<?xml version="1.0" encoding="utf-8"?>
<!-- Generator: Adobe Illustrator 21.0.0, SVG Export Plug-In . SVG Version: 6.00 Build 0)  -->
<svg version="1.1" id="Layer_1" xmlns="http://www.w3.org/2000/svg" xmlns:xlink="http://www.w3.org/1999/xlink" x="0px" y="0px"
	 width="32px" height="32px" viewBox="0 0 32 32" style="enable-background:new 0 0 32 32;" xml:space="preserve">
<style type="text/css">
	.st0{fill:none;}
	.st1{fill:#952524;}
</style>
<rect class="st0" width="32" height="32"/>
<path class="st1" d="M31.3,12.4c-0.1-1.3-1.2-2.2-2.6-2.2H12.4c0.4-0.5,0.6-1.1,0.5-1.7c-0.1-1.3-1.2-2.3-2.6-2.3H4.4
	c-0.7,0-1.4,0.3-1.9,0.8C2.1,7.4,1.8,8,1.8,8.7c0,0.6,0.2,1.1,0.6,1.6c-1,0.3-1.8,1.3-1.8,2.4c0,1.2,0.9,2.2,2,2.4v10.3
	c0,0.3,0.2,0.5,0.5,0.5s0.5-0.2,0.5-0.5V15.2h24.8v10.2c0,0.3,0.2,0.5,0.5,0.5s0.5-0.2,0.5-0.5V15.1C30.6,14.8,31.4,13.6,31.3,12.4z
	 M30.3,12.5c0,0.4-0.1,0.9-0.4,1.2c-0.3,0.3-0.7,0.5-1.1,0.5H3.3c-0.8,0-1.5-0.6-1.6-1.4c0-0.4,0.1-0.9,0.4-1.2
	c0.3-0.3,0.7-0.5,1.1-0.5h25.6C29.6,11.1,30.3,11.7,30.3,12.5z M11.5,9.7c-0.3,0.3-0.7,0.5-1.1,0.5h-6c-0.8,0-1.5-0.6-1.6-1.4
	c0-0.4,0.1-0.9,0.4-1.2c0.3-0.3,0.7-0.5,1.1-0.5h6c0.8,0,1.5,0.6,1.6,1.4C12,8.9,11.8,9.3,11.5,9.7z"/>
</svg>
