<?xml version="1.0" encoding="utf-8"?>
<!-- Generator: Adobe Illustrator 21.0.0, SVG Export Plug-In . SVG Version: 6.00 Build 0)  -->
<svg version="1.1" id="Layer_1" xmlns="http://www.w3.org/2000/svg" xmlns:xlink="http://www.w3.org/1999/xlink" x="0px" y="0px"
	 width="32px" height="32px" viewBox="0 0 32 32" style="enable-background:new 0 0 32 32;" xml:space="preserve">
<style type="text/css">
	.st0{fill:none;}
	.st1{fill:#952524;}
</style>
<rect class="st0" width="32" height="32"/>
<g>
	<path class="st1" d="M30.9,5.2H1.1C0.5,5.2,0,5.7,0,6.3v17.9c0,0.7,0.6,1.3,1.3,1.3h2.9v-0.9H0.9V6.2h30.1v18.3h-3.2v0.9h2.9
		c0.7,0,1.3-0.6,1.3-1.3V6.3C32,5.7,31.5,5.2,30.9,5.2z"/>
	<path class="st1" d="M10.3,22.3c1.3,0,2.3-1,2.3-2.3c0-1.3-1-2.3-2.3-2.3c-1.3,0-2.3,1-2.3,2.3C8,21.3,9,22.3,10.3,22.3 M8.4,20.1
		c0-1,0.8-1.8,1.8-1.8c1,0,1.8,0.8,1.8,1.8s-0.8,1.8-1.8,1.8C9.2,21.9,8.4,21.1,8.4,20.1"/>
	<path class="st1" d="M10.3,23.1L10.3,23.1c-2.6,0-4.2,1.3-4.2,3c0,0.4,0.3,0.7,0.7,0.7h7.1c0.4,0,0.7-0.3,0.7-0.7
		C14.5,24.5,12.8,23.1,10.3,23.1 M10.3,23.6L10.3,23.6c2.1,0,3.8,1.1,3.8,2.5c0,0.1-0.1,0.3-0.3,0.3H6.7c-0.1,0-0.3-0.1-0.3-0.3
		C6.4,24.7,8,23.7,10.3,23.6"/>
	<path class="st1" d="M21.7,22.3c1.3,0,2.3-1,2.3-2.3c0-1.3-1-2.3-2.3-2.3c-1.3,0-2.3,1-2.3,2.3C19.5,21.3,20.5,22.3,21.7,22.3
		 M19.9,20.1c0-1,0.8-1.8,1.8-1.8s1.8,0.8,1.8,1.8s-0.8,1.8-1.8,1.8S19.9,21.1,19.9,20.1"/>
	<path class="st1" d="M21.7,23.1L21.7,23.1c-2.6,0-4.2,1.3-4.2,3c0,0.4,0.3,0.7,0.7,0.7h7.1c0.4,0,0.7-0.3,0.7-0.7
		C26,24.5,24.3,23.1,21.7,23.1 M21.7,23.6L21.7,23.6c2.1,0,3.8,1.1,3.8,2.5c0,0.1-0.1,0.3-0.3,0.3h-7.1c-0.1,0-0.3-0.1-0.3-0.3
		C17.9,24.7,19.5,23.7,21.7,23.6"/>
</g>
</svg>
