<?xml version="1.0" encoding="utf-8"?>
<!-- Generator: Adobe Illustrator 21.0.0, SVG Export Plug-In . SVG Version: 6.00 Build 0)  -->
<svg version="1.1" id="Layer_1" xmlns="http://www.w3.org/2000/svg" xmlns:xlink="http://www.w3.org/1999/xlink" x="0px" y="0px"
	 width="32px" height="32px" viewBox="0 0 32 32" style="enable-background:new 0 0 32 32;" xml:space="preserve">
<style type="text/css">
	.st0{fill:none;}
	.st1{fill:#952524;}
</style>
<rect class="st0" width="32" height="32"/>
<path class="st1" d="M31.2,11.6l-14.7-11c-0.3-0.2-0.7-0.2-1,0L0.8,11.6c-0.3,0.2-0.4,0.6-0.3,0.9c0.1,0.4,0.4,0.6,0.8,0.6h3v15.1
	H2.7H2.2c-0.3,0-0.5,0.2-0.5,0.5c0,0.3,0.2,0.5,0.5,0.5h0.5h1.5v1.2V31c0,0.3,0.2,0.5,0.5,0.5s0.5-0.2,0.5-0.5v-0.5v-1.2h21.4v1.2
	V31c0,0.3,0.2,0.5,0.5,0.5c0.3,0,0.5-0.2,0.5-0.5v-0.5v-1.2h1.5h0.5c0.3,0,0.5-0.2,0.5-0.5c0-0.3-0.2-0.5-0.5-0.5h-0.5h-1.5V13.1
	h2.9c0.4,0,0.7-0.2,0.8-0.5C31.6,12.3,31.5,11.9,31.2,11.6z M26.7,28.2H5.3v-5v-1v-9h21.4v9v0.3H5.3v0.4h21.4v0.3V28.2z M1.9,12.1
	L16,1.6l14.1,10.5H1.9z"/>
</svg>
