<?xml version="1.0" encoding="utf-8"?>
<!-- Generator: Adobe Illustrator 21.0.0, SVG Export Plug-In . SVG Version: 6.00 Build 0)  -->
<svg version="1.1" id="Layer_1" xmlns="http://www.w3.org/2000/svg" xmlns:xlink="http://www.w3.org/1999/xlink" x="0px" y="0px"
	 width="32px" height="32px" viewBox="0 0 32 32" style="enable-background:new 0 0 32 32;" xml:space="preserve">
<style type="text/css">
	.st0{fill:none;}
	.st1{fill:#952524;}
</style>
<rect class="st0" width="32" height="32"/>
<g>
	<path class="st1" d="M26.9,20.9c0-0.9-0.7-1.7-1.6-1.7c-0.9,0-1.6,0.7-1.6,1.7c0,0.9,0.7,1.7,1.6,1.7
		C26.2,22.6,26.9,21.8,26.9,20.9 M24.2,20.9c0-0.6,0.5-1.2,1.1-1.2c0.6,0,1.1,0.5,1.1,1.2c0,0.6-0.5,1.2-1.1,1.2
		C24.7,22.1,24.2,21.6,24.2,20.9"/>
	<polygon class="st1" points="28.6,13.8 23.6,13.8 22.8,10.2 22.8,10.2 21.3,10.2 21.3,10.7 22.4,10.7 23.1,13.8 19.3,13.8 
		19.3,14.3 28.6,14.3 	"/>
	<rect x="19.3" y="15.7" class="st1" width="11.9" height="0.5"/>
	<g>
		<path class="st1" d="M8.2,23.4c0.9,0.1,1.8-0.4,2.7-1.5c0.9-1.1,1.4-1.7,1.7-2.2v0.1l0.4-0.6c0,0,0,0,0-0.1
			c0.2-0.2,0.4-0.5,0.5-0.5c0,0,0.1,0,0.2,0.2c0,0.1,0.1,0.2,0.2,0.3l2.4,3.6c0.2,0.3,0.5,0.5,0.8,0.5c0.1,0,0.1,0,0.2,0
			c0.3,0,0.5-0.1,0.7-0.2l0.5-0.4l0.1-0.1c0.3-0.4,0.7-1.4-0.1-2.4c-0.6-0.8-2.6-3.6-3.4-4.6L15,15.3l0-0.9c0-0.5-0.4-0.9-1-0.9H9.7
			c-0.1,0-1.5-0.1-2.1-1.8c-0.3-0.7-0.6-1.1-1-1.3c-0.3-0.2-0.7-0.1-1.1,0.1c-0.7,0.3-1.1,0.9-1.3,1.7c-0.3,1.4-0.6,5.3,1.9,9.7
			C6.1,21.9,6.9,23.2,8.2,23.4z M5.1,12.3c0.1-0.5,0.4-0.8,0.7-1c0.2-0.1,0.3-0.1,0.4,0c0.2,0.1,0.4,0.3,0.5,0.8
			c0.9,2.4,3,2.4,3,2.4H14c0,0,0,0,0,0l0,0.9c0,0.2,0.1,0.3,0.2,0.5c0.4,0.6,3,4.1,3.7,5c0.4,0.6,0.2,1.1,0.1,1.3l-0.4,0.3
			c-0.1,0-0.1,0.1-0.2,0c-0.1,0-0.1-0.1-0.2-0.1l-2.4-3.6c0-0.1-0.1-0.1-0.1-0.2l0,0c-0.2-0.5-0.6-0.7-1-0.7l-0.1,0
			c-0.7,0-1.2,0.7-1.3,0.9l0,0c-0.2,0.2-0.8,1.1-2.1,2.6C9.5,22,9,22.4,8.4,22.4c0,0-0.1,0-0.1,0c-0.8-0.1-1.4-1-1.4-1.1
			C4.5,17.2,4.8,13.6,5.1,12.3z"/>
		<path class="st1" d="M7,10c1.5,0,2.7-1.2,2.7-2.8c0-1.5-1.2-2.8-2.7-2.8c-1.5,0-2.7,1.2-2.7,2.8C4.3,8.8,5.5,10,7,10z M5.3,7.2
			c0-1,0.8-1.8,1.8-1.8s1.8,0.8,1.8,1.8S8,9.1,7,9.1S5.3,8.3,5.3,7.2z"/>
		<path class="st1" d="M8.8,19.3L8.8,19.3c0.2,0,0.4-0.1,0.5-0.2l2.3-2.4c0.2-0.2,0.2-0.4,0.1-0.7c-0.1-0.2-0.3-0.4-0.5-0.4
			c-0.4,0-2.7-0.1-3.4-0.5c-0.2-0.1-0.4-0.1-0.6,0c-0.2,0.1-0.3,0.4-0.3,0.6c0.1,0.7,0.3,2.1,1.3,3.2C8.4,19.2,8.6,19.3,8.8,19.3z
			 M7.9,16.2c0.7,0.2,1.7,0.3,2.5,0.3l-1.6,1.7C8.3,17.5,8,16.7,7.9,16.2z"/>
		<path class="st1" d="M31,12.5v10.8c0,1.8-1.4,3.2-3.2,3.2H4.2c-1.8,0-3.2-1.5-3.2-3.2V12.5H0v10.8c0,2.3,1.9,4.2,4.2,4.2h23.7
			c2.3,0,4.2-1.9,4.2-4.2V12.5H31z"/>
	</g>
</g>
</svg>
