<?xml version="1.0" encoding="utf-8"?>
<!-- Generator: Adobe Illustrator 21.0.0, SVG Export Plug-In . SVG Version: 6.00 Build 0)  -->
<svg version="1.1" id="Layer_1" xmlns="http://www.w3.org/2000/svg" xmlns:xlink="http://www.w3.org/1999/xlink" x="0px" y="0px"
	 width="32px" height="32px" viewBox="0 0 32 32" style="enable-background:new 0 0 32 32;" xml:space="preserve">
<style type="text/css">
	.st0{fill:none;}
	.st1{fill:#952524;}
</style>
<rect class="st0" width="32" height="32"/>
<path class="st1" d="M31.3,12H4.2V8.2h3.6v-1H3.7c-0.3,0-0.5,0.2-0.5,0.5V12H0.7C0.3,12,0,12.3,0,12.7v0.4c0,6.4,5.2,11.6,11.6,11.6
	h8.9c6.4,0,11.6-5.2,11.6-11.6v-0.4C32,12.3,31.7,12,31.3,12z M31,13v0.1c0,5.9-4.8,10.6-10.6,10.6h-8.9C5.7,23.8,1,19,1,13.1V13H31
	z"/>
</svg>
