<?xml version="1.0" encoding="utf-8"?>
<!-- Generator: Adobe Illustrator 21.0.0, SVG Export Plug-In . SVG Version: 6.00 Build 0)  -->
<svg version="1.1" id="Layer_1" xmlns="http://www.w3.org/2000/svg" xmlns:xlink="http://www.w3.org/1999/xlink" x="0px" y="0px"
	 width="32px" height="32px" viewBox="0 0 32 32" style="enable-background:new 0 0 32 32;" xml:space="preserve">
<style type="text/css">
	.st0{fill:none;}
	.st1{fill:#952524;}
</style>
<rect class="st0" width="32" height="32"/>
<g>
	<path class="st1" d="M16,4.5c-6,0-11.6,2.3-15.8,6.6c-0.2,0.2-0.2,0.5,0,0.7l0,0h0C0.3,12,0.4,12,0.5,12h0c0.1,0,0.3-0.1,0.4-0.2
		c4-4.1,9.4-6.3,15.1-6.3c5.7,0,11.1,2.2,15.1,6.3c0.1,0.1,0.2,0.2,0.4,0.2h0c0.1,0,0.3-0.1,0.4-0.2c0.2-0.2,0.2-0.5,0-0.7
		C27.6,6.9,22,4.5,16,4.5"/>
	<path class="st1" d="M16,10.3c-4.5,0-8.7,1.7-11.8,4.9c-0.2,0.2-0.2,0.5,0,0.7c0.2,0.2,0.5,0.2,0.7,0c3-3,6.9-4.6,11.1-4.6
		c4.2,0,8.1,1.6,11.1,4.6c0.1,0.1,0.2,0.2,0.4,0.2h0c0.1,0,0.3-0.1,0.4-0.2c0.2-0.2,0.2-0.5,0-0.7C24.7,12,20.5,10.3,16,10.3"/>
	<path class="st1" d="M16,16.6c-2.8,0-5.4,1.1-7.3,3.1c-0.2,0.2-0.2,0.5,0,0.7c0.1,0.1,0.2,0.2,0.4,0.2h0c0.1,0,0.3-0.1,0.4-0.2
		c1.8-1.8,4.1-2.7,6.6-2.7s4.8,1,6.6,2.7c0.1,0.1,0.2,0.1,0.4,0.2h0c0.1,0,0.3-0.1,0.4-0.2c0.2-0.2,0.2-0.5,0-0.7
		C21.4,17.7,18.8,16.6,16,16.6"/>
	<path class="st1" d="M19.4,23.8c-0.9-0.9-2.1-1.5-3.4-1.5c-1.3,0-2.5,0.5-3.4,1.5c-0.1,0.1-0.1,0.3,0,0.4l3.1,3.1
		c0.1,0.1,0.3,0.1,0.4,0l3.1-3.1C19.5,24.1,19.5,23.9,19.4,23.8 M16,26.3l-2.3-2.4l0.1-0.1c0.6-0.5,1.4-0.7,2.2-0.7
		c0.8,0,1.5,0.2,2.2,0.7l0.1,0.1L16,26.3z"/>
</g>
</svg>
