<?xml version="1.0" encoding="utf-8"?>
<!-- Generator: Adobe Illustrator 21.0.0, SVG Export Plug-In . SVG Version: 6.00 Build 0)  -->
<svg version="1.1" id="Layer_1" xmlns="http://www.w3.org/2000/svg" xmlns:xlink="http://www.w3.org/1999/xlink" x="0px" y="0px"
	 width="32px" height="32px" viewBox="0 0 32 32" style="enable-background:new 0 0 32 32;" xml:space="preserve">
<style type="text/css">
	.st0{fill:none;}
	.st1{fill:#952524;}
</style>
<rect class="st0" width="32" height="32"/>
<g>
	<path class="st1" d="M17.9,0.4c-0.1,0-0.3,0-0.4,0.1c-0.1,0.1-0.2,0.2-0.2,0.3c0,0.3,0.2,0.5,0.4,0.5c1.5,0.2,9.2,1.8,10.7,10.9
		c0,0.2,0.2,0.4,0.5,0.4c0,0,0,0,0.1,0l0,0c0.1,0,0.3-0.1,0.3-0.2c0.1-0.1,0.1-0.2,0.1-0.4C27.8,2.5,19.6,0.7,17.9,0.4z"/>
	<path class="st1" d="M17.6,4.3c-0.1,0-0.3,0-0.4,0.1C17.1,4.5,17,4.6,17,4.8c0,0.3,0.1,0.5,0.4,0.6c1.5,0.3,6.6,1.7,7.2,7.3
		c0,0.3,0.2,0.5,0.5,0.5h0c0.1,0,0.3-0.1,0.4-0.2c0.1-0.1,0.1-0.2,0.1-0.4C25,6.4,19.3,4.7,17.6,4.3z"/>
	<path class="st1" d="M17,9.2L17,9.2c0.8,0.2,3.5,1.2,3.7,3.8c0,0.2,0.2,0.4,0.5,0.4c0.1,0,0.3-0.1,0.4-0.2c0.1-0.1,0.1-0.2,0.1-0.4
		c-0.3-3.1-3.2-4.3-4.5-4.6c-0.1,0-0.3,0-0.4,0.1c-0.1,0.1-0.2,0.2-0.2,0.3C16.6,8.9,16.7,9.1,17,9.2z"/>
	<path class="st1" d="M17.6,15.5c0.7-0.8,0.6-2-0.2-2.8c-0.4-0.4-0.9-0.6-1.5-0.6c-0.5,0-0.9,0.2-1.3,0.5L7.3,5.2
		C6.7,4.7,6.1,5.1,6,5.2c-2.3,2.4-3.5,5.6-3.5,9c0.1,3.4,1.4,6.5,3.8,8.9l0.6,0.6c0,0,0,0,0,0l-2.8,7c-0.1,0.2-0.1,0.4,0.1,0.6
		c0.1,0.2,0.3,0.3,0.5,0.3h7.9c0.3,0,0.5-0.1,0.7-0.4c0.2-0.2,0.2-0.5,0.1-0.8l-1.1-3.5c1.2,0.3,2.4,0.5,3.6,0.5
		c3.3,0,6.4-1.2,8.8-3.4c0.6-0.7,0.1-1.3,0-1.3L17.6,15.5z M15.4,13.2c0.4-0.2,1-0.2,1.3,0.2c0.3,0.3,0.4,0.9,0.2,1.3L15.4,13.2z
		 M12.4,30.6H5.2l2.4-6.2c1,0.9,2.2,1.6,3.4,2.1L12.4,30.6z M23.9,23.3c-2.2,2-5,3.1-8,3.1c-3.2,0-6.1-1.2-8.4-3.5L7,22.3
		c-2.2-2.2-3.5-5.2-3.5-8.4c0-3,1.1-5.8,3.1-8L23.9,23.3z"/>
</g>
</svg>
