<?xml version="1.0" encoding="utf-8"?>
<!-- Generator: Adobe Illustrator 21.0.0, SVG Export Plug-In . SVG Version: 6.00 Build 0)  -->
<svg version="1.1" id="Layer_1" xmlns="http://www.w3.org/2000/svg" xmlns:xlink="http://www.w3.org/1999/xlink" x="0px" y="0px"
	 width="32px" height="32px" viewBox="0 0 32 32" style="enable-background:new 0 0 32 32;" xml:space="preserve">
<style type="text/css">
	.st0{fill:none;}
	.st1{fill:#952524;}
</style>
<rect class="st0" width="32" height="32"/>
<g>
	<path class="st1" d="M16.2,9.2c-3.8,0-6.8,3.1-6.8,6.8s3.1,6.8,6.8,6.8c3.8,0,6.8-3.1,6.8-6.8S19.9,9.2,16.2,9.2 M16.2,21.9
		c-3.2,0-5.9-2.6-5.9-5.9c0-3.2,2.6-5.9,5.9-5.9c3.2,0,5.9,2.6,5.9,5.9C22,19.3,19.4,21.9,16.2,21.9"/>
	<path class="st1" d="M16.2,5.9C10.6,5.9,6,10.5,6,16.1s4.5,10.1,10.1,10.1c5.6,0,10.1-4.5,10.1-10.1S21.7,5.9,16.2,5.9 M16.2,25.2
		c-5.1,0-9.2-4.1-9.2-9.2c0-5.1,4.1-9.2,9.2-9.2c5.1,0,9.2,4.1,9.2,9.2C25.3,21.1,21.2,25.2,16.2,25.2"/>
	<path class="st1" d="M31.1,10.9c0,0.4-0.2,0.8-0.5,1.1c-0.3,0.3-0.7,0.4-1.1,0.4c-0.4,0-0.8-0.2-1.1-0.4c-0.3-0.3-0.5-0.7-0.5-1.1
		V5.8H27v5.1c0,0.7,0.3,1.3,0.7,1.8c0.4,0.4,0.8,0.6,1.3,0.7v13H30v-13c0.5-0.1,0.9-0.3,1.3-0.7c0.5-0.5,0.7-1.1,0.7-1.8V5.8h-0.9
		V10.9z"/>
	<rect x="29.3" y="5.8" class="st1" width="0.5" height="4.6"/>
	<path class="st1" d="M6,9.9c0-2.4-1.4-4.3-3-4.3S0,7.6,0,9.9c0,2.1,1.1,3.9,2.5,4.2v12.2h0.9V14.2C4.9,13.9,6,12.1,6,9.9z M3,13.4
		c-1.2,0-2.2-1.5-2.2-3.4c0-1.9,1-3.4,2.2-3.4s2.2,1.5,2.2,3.4C5.2,11.8,4.2,13.4,3,13.4z"/>
</g>
</svg>
