<?xml version="1.0" encoding="utf-8"?>
<!-- Generator: Adobe Illustrator 21.0.0, SVG Export Plug-In . SVG Version: 6.00 Build 0)  -->
<svg version="1.1" id="Layer_1" xmlns="http://www.w3.org/2000/svg" xmlns:xlink="http://www.w3.org/1999/xlink" x="0px" y="0px"
	 width="32px" height="32px" viewBox="0 0 32 32" style="enable-background:new 0 0 32 32;" xml:space="preserve">
<style type="text/css">
	.st0{fill:none;}
	.st1{fill:#952524;}
</style>
<rect class="st0" width="32" height="32"/>
<g>
	<path class="st1" d="M30.1,3.4h-5V2c0-0.3-0.2-0.5-0.5-0.5c-0.3,0-0.5,0.2-0.5,0.5v1.4h-7.7V2c0-0.3-0.2-0.5-0.5-0.5
		c-0.3,0-0.5,0.2-0.5,0.5v1.4H7.8V2c0-0.3-0.2-0.5-0.5-0.5C7.1,1.5,6.9,1.7,6.9,2v1.4h-5C0.8,3.4,0,4.2,0,5.2v23.3
		c0,1,0.8,1.9,1.9,1.9h28.2c1,0,1.9-0.8,1.9-1.9V5.2C32,4.2,31.1,3.4,30.1,3.4 M0.9,10.5h27.4h0.1c0.2,0,0.4-0.2,0.4-0.5v0
		c0-0.2-0.2-0.4-0.4-0.5H0.9V5.2c0-0.5,0.4-1,1-1h5v1.4c0,0.3,0.2,0.5,0.5,0.5c0.3,0,0.5-0.2,0.5-0.5V4.3h7.7v1.4
		c0,0.3,0.2,0.5,0.5,0.5c0.3,0,0.5-0.2,0.5-0.5V4.3h7.7v1.4c0,0.3,0.2,0.5,0.5,0.5c0.3,0,0.5-0.2,0.5-0.5V4.3h5c0.5,0,1,0.4,1,1
		v23.3c0,0.5-0.4,1-1,1H1.9c-0.5,0-1-0.4-1-1V10.5z"/>
	<path class="st1" d="M23.3,26.7h-0.7v-5.6c0-0.7-0.6-1.3-1.3-1.3h-3.8v-2.5c0-0.4-0.2-0.7-0.4-1l-0.2-0.2l0.2-0.2
		c0.5-0.5,0.5-1.2,0.1-1.8l-0.9-1.3c-0.1-0.1-0.2-0.1-0.3-0.1c-0.1,0-0.2,0.1-0.3,0.1L15,14.1c-0.4,0.5-0.3,1.3,0.1,1.8l0.2,0.2
		c0,0,0,0,0.1,0c-0.1,0-0.1,0.1-0.2,0.1c-0.3,0.3-0.4,0.6-0.4,1v2.5h-3.8c-0.7,0-1.3,0.6-1.3,1.3v5.6H8.7c-0.1,0-0.3,0.1-0.3,0.3
		c0,0.1,0.1,0.3,0.3,0.3h14.6c0.1,0,0.3-0.1,0.3-0.3C23.6,26.8,23.4,26.7,23.3,26.7z M22.1,23.4v3.3h-12v-3.3H22.1z M15.5,15.5
		c-0.3-0.4-0.3-0.8-0.1-1.2l0.7-1l0.7,1c0.2,0.3,0.2,0.8-0.1,1.1c-0.2,0.2-0.4,0.3-0.6,0.3C15.9,15.8,15.7,15.7,15.5,15.5z
		 M16.1,16.3c0.5,0,0.9,0.4,0.9,0.9v2.5h-1.8v-2.5C15.2,16.7,15.6,16.3,16.1,16.3z M22.1,21.1v1.8h-12v-1.8c0-0.4,0.4-0.8,0.8-0.8
		h10.4C21.7,20.3,22.1,20.6,22.1,21.1z"/>
</g>
</svg>
