<?xml version="1.0" encoding="utf-8"?>
<!-- Generator: Adobe Illustrator 21.0.0, SVG Export Plug-In . SVG Version: 6.00 Build 0)  -->
<svg version="1.1" id="Layer_1" xmlns="http://www.w3.org/2000/svg" xmlns:xlink="http://www.w3.org/1999/xlink" x="0px" y="0px"
	 width="32px" height="32px" viewBox="0 0 32 32" style="enable-background:new 0 0 32 32;" xml:space="preserve">
<style type="text/css">
	.st0{fill:none;}
	.st1{fill:#952524;}
</style>
<rect class="st0" width="32" height="32"/>
<g>
	<path class="st1" d="M1.6,26.8h15.3c0.5,0,0.9,0.1,1.3,0.4l1.2,0.8c0.4,0.3,0.9,0.4,1.3,0.4H30c1.1,0,2-0.9,2-2c0-1.1-0.9-2-2-2
		h-6.4c-0.3,0-0.6-0.1-0.8-0.3l-4-4c-0.4-0.4-1-0.7-1.6-0.7H1.6C0.7,19.4,0,20.1,0,21v4.2C0,26.1,0.7,26.8,1.6,26.8 M1,25.2V21
		c0-0.3,0.3-0.6,0.6-0.6h15.6c0.4,0,0.7,0.1,1,0.4l4,4c0.4,0.4,0.9,0.6,1.5,0.6H30c0.6,0,1,0.5,1,1c0,0.6-0.5,1-1,1h-9.3
		c-0.3,0-0.6-0.1-0.8-0.2l-1.2-0.8c-0.5-0.4-1.2-0.6-1.8-0.6H1.6C1.2,25.8,1,25.6,1,25.2"/>
	<path class="st1" d="M24.5,23.6c1.9,0,3.4-1.5,3.4-3.4c0-1.9-1.5-3.4-3.4-3.4c-1.9,0-3.4,1.5-3.4,3.4
		C21.1,22.1,22.6,23.6,24.5,23.6 M22,20.2c0-1.4,1.1-2.5,2.5-2.5c1.4,0,2.5,1.1,2.5,2.5c0,1.4-1.1,2.5-2.5,2.5
		C23.2,22.7,22,21.6,22,20.2"/>
	<path class="st1" d="M12.6,7.7c1.9,0,3.4-1.5,3.4-3.4c0-1.9-1.5-3.4-3.4-3.4S9.2,2.3,9.2,4.2C9.2,6.1,10.7,7.7,12.6,7.7 M10.1,4.2
		c0-1.4,1.1-2.5,2.5-2.5c1.4,0,2.5,1.1,2.5,2.5c0,1.4-1.1,2.5-2.5,2.5C11.2,6.7,10.1,5.6,10.1,4.2"/>
	<path class="st1" d="M4.3,17.1l5.8,0.2h0c0.5,0,0.9-0.3,1.1-0.8l0.7-2.1l0,0c0-0.2,0.2-0.6,0.4-0.6c0.2-0.1,0.4,0.1,0.7,0.3
		c1,0.9,3.5,2.1,5.5,2.9c0.5,0.2,1,0.2,1.5-0.1c0.5-0.3,0.7-0.8,0.8-1.3c0.1-0.8-0.4-1.5-1.2-1.7c-4.1-1.1-7.3-5.2-7.3-5.3l0,0
		C10.5,6.8,9,7.3,8.3,7.7c-0.6,0.4-1.2,1-1.4,1.8C5.9,12,4.2,15.1,3.7,16c-0.1,0.2-0.1,0.5,0,0.7C3.8,16.9,4,17.1,4.3,17.1 M18.8,16
		c-2.7-1.2-4.5-2.1-5.2-2.8c-0.6-0.5-1.2-0.7-1.7-0.5c-0.7,0.2-1,1.1-1,1.3l-0.7,2.1c0,0.1-0.1,0.1-0.2,0.1l-5.4-0.1
		c0.8-1.4,2.2-4,3-6.3c0.2-0.6,0.6-1,1-1.3c0.9-0.5,1.8-0.3,2.7,0.6c0.3,0.5,3.5,4.5,7.8,5.6c0.3,0.1,0.5,0.4,0.5,0.7
		c0,0.2-0.1,0.4-0.3,0.5C19.2,16.1,19,16.1,18.8,16"/>
	<rect y="30.2" class="st1" width="32" height="1"/>
</g>
</svg>
