<?xml version="1.0" encoding="utf-8"?>
<!-- Generator: Adobe Illustrator 21.0.0, SVG Export Plug-In . SVG Version: 6.00 Build 0)  -->
<svg version="1.1" id="Layer_1" xmlns="http://www.w3.org/2000/svg" xmlns:xlink="http://www.w3.org/1999/xlink" x="0px" y="0px"
	 width="32px" height="32px" viewBox="0 0 32 32" style="enable-background:new 0 0 32 32;" xml:space="preserve">
<style type="text/css">
	.st0{fill:none;}
	.st1{fill:#952524;}
</style>
<rect class="st0" width="32" height="32"/>
<g>
	<path class="st1" d="M16,4c-3.3,0-6,2.7-6,6c0,3.3,2.7,6,6,6s6-2.7,6-6C22,6.7,19.3,4,16,4z M16,15c-2.8,0-5-2.3-5-5
		c0-2.8,2.3-5,5-5c2.8,0,5,2.3,5,5C21,12.8,18.8,15,16,15z"/>
	<path class="st1" d="M16,18.3c-6.6,0-11.3,3.3-11.3,7.9c0,1,0.8,1.8,1.8,1.8h19.1c1,0,1.8-0.8,1.8-1.8C27.3,21.7,22.6,18.3,16,18.3
		z M25.5,27H6.5c-0.4,0-0.8-0.4-0.8-0.8c0-3.9,4.3-6.8,10.3-6.9h0c5.7,0,10.3,3.1,10.3,6.9C26.3,26.7,26,27,25.5,27z"/>
</g>
</svg>
