<?xml version="1.0" encoding="utf-8"?>
<!-- Generator: Adobe Illustrator 21.0.0, SVG Export Plug-In . SVG Version: 6.00 Build 0)  -->
<svg version="1.1" id="Layer_1" xmlns="http://www.w3.org/2000/svg" xmlns:xlink="http://www.w3.org/1999/xlink" x="0px" y="0px"
	 width="32px" height="32px" viewBox="0 0 32 32" style="enable-background:new 0 0 32 32;" xml:space="preserve">
<style type="text/css">
	.st0{fill:none;}
	.st1{fill:#952524;}
</style>
<rect class="st0" width="32" height="32"/>
<g>
	<path class="st1" d="M26.8,1.4H5.2c-1.1,0-2,0.9-2,2v25.1c0,1.1,0.9,2,2,2h21.7c1.1,0,2-0.9,2-2V3.4C28.9,2.3,28,1.4,26.8,1.4z
		 M4.1,3.4c0-0.6,0.5-1.1,1-1.1h21.7c0.6,0,1.1,0.5,1.1,1.1v3H4.1V3.4z M27.9,7.5v21.1c0,0.6-0.5,1-1.1,1H5.2c-0.6,0-1-0.5-1-1V7.5
		H27.9z"/>
	<path class="st1" d="M16,26.1c4.4,0,7.9-3.6,7.9-7.9c0-4.4-3.6-7.9-7.9-7.9s-7.9,3.6-7.9,7.9C8.1,22.5,11.6,26.1,16,26.1z
		 M9.1,18.1c0-3.8,3.1-6.9,6.9-6.9c3.8,0,6.9,3.1,6.9,6.9s-3.1,6.9-6.9,6.9C12.2,25.1,9.1,22,9.1,18.1z"/>
	<path class="st1" d="M16,22.6c2.5,0,4.5-2,4.5-4.5c0-2.5-2-4.5-4.5-4.5c-2.5,0-4.5,2-4.5,4.5C11.5,20.6,13.5,22.6,16,22.6z
		 M12.5,18.1c0-1.9,1.6-3.5,3.5-3.5c1.9,0,3.5,1.6,3.5,3.5s-1.6,3.5-3.5,3.5C14.1,21.6,12.5,20.1,12.5,18.1z"/>
	<circle class="st1" cx="6.9" cy="4.3" r="1.1"/>
</g>
</svg>
