<?xml version="1.0" encoding="utf-8"?>
<!-- Generator: Adobe Illustrator 21.0.0, SVG Export Plug-In . SVG Version: 6.00 Build 0)  -->
<svg version="1.1" id="Layer_1" xmlns="http://www.w3.org/2000/svg" xmlns:xlink="http://www.w3.org/1999/xlink" x="0px" y="0px"
	 width="32px" height="32px" viewBox="0 0 32 32" style="enable-background:new 0 0 32 32;" xml:space="preserve">
<style type="text/css">
	.st0{fill:none;}
	.st1{fill:#952524;}
</style>
<rect class="st0" width="32" height="32"/>
<g>
	<path class="st1" d="M3.6,1.7l-0.1,0l-2.5,9.7c-0.1,0.5-0.1,1.1,0.2,1.6c0.3,0.5,0.7,0.8,1.3,1l6.5,1.7l-1.2,6.9H5.1
		c-0.2-2.3-2.1-4-4.4-4H0v11.9h0.7c2.2,0,4.1-1.6,4.4-3.8h5.7l2.1-9.9l6.6,1.7c1.5,0.4,3-0.5,3.3-2l0-0.1l2,1.9
		c0.1,0.1,0.3,0.1,0.4,0.1c0.2,0,0.3-0.2,0.3-0.3l1.6-6l0.5,0.1c0.3,0.1,0.6,0.1,0.9,0.1c1.6,0,3-1.1,3.4-2.6L32,9.2l0,0L3.6,1.7z
		 M11.9,16.4l-2,9.1H5.1v-2h3.4l1.4-7.6L11.9,16.4z M26.1,11.7l-1.4,5.1L23,15.2l1-4L26.1,11.7z M23.1,11l-1.4,5.2
		c-0.1,0.5-0.4,0.8-0.8,1.1c-0.4,0.2-0.9,0.3-1.3,0.2L2.7,13c-0.3-0.1-0.5-0.3-0.7-0.5s-0.2-0.5-0.1-0.8l1.5-5.8L23.1,11z
		 M27.8,11.2L3.6,4.8l0.5-2l26.6,7C30.2,10.9,29,11.5,27.8,11.2z M1,29.3v-9.9c1.8,0.2,3.1,1.6,3.1,3.4v3C4.1,27.7,2.7,29.2,1,29.3z
		"/>
	<path class="st1" d="M16.4,12.2l2.9,0.8c0,0,0.1,0,0.1,0c0.2,0,0.4-0.1,0.5-0.4c0-0.1,0-0.3,0-0.4c-0.1-0.1-0.2-0.2-0.3-0.2
		l-2.9-0.8c-0.3-0.1-0.5,0.1-0.6,0.4c0,0.1,0,0.3,0,0.4C16.1,12.1,16.3,12.2,16.4,12.2z"/>
</g>
</svg>
