<?xml version="1.0" encoding="utf-8"?>
<!-- Generator: Adobe Illustrator 21.0.0, SVG Export Plug-In . SVG Version: 6.00 Build 0)  -->
<svg version="1.1" id="Layer_1" xmlns="http://www.w3.org/2000/svg" xmlns:xlink="http://www.w3.org/1999/xlink" x="0px" y="0px"
	 width="32px" height="32px" viewBox="0 0 32 32" style="enable-background:new 0 0 32 32;" xml:space="preserve">
<style type="text/css">
	.st0{fill:none;}
	.st1{fill:#952524;}
</style>
<rect class="st0" width="32" height="32"/>
<g>
	<path class="st1" d="M26.7,0.5H5.3c-2.7,0-4.8,2.2-4.8,4.8v21.3c0,2.7,2.2,4.8,4.8,4.8h21.3c2.7,0,4.8-2.2,4.8-4.8V5.3
		C31.5,2.7,29.3,0.5,26.7,0.5 M26.7,30.3H5.3c-2,0-3.7-1.7-3.7-3.7V5.3c0-2,1.7-3.7,3.7-3.7h21.3c2,0,3.7,1.7,3.7,3.7v21.3
		C30.3,28.7,28.7,30.3,26.7,30.3"/>
	<path class="st1" d="M20.6,9.3L20.6,9.3C19.6,8.4,18.5,8,17.2,8h-5.3v16H13v-6.9h4.1c1.4,0,2.5-0.4,3.4-1.3c0.9-0.9,1.4-2,1.4-3.2
		C22,11.3,21.5,10.2,20.6,9.3z M19.7,15c-0.7,0.7-1.5,1-2.5,1H13v-7h4.2c1,0,1.9,0.4,2.5,1.1c0.7,0.7,1,1.5,1,2.4
		C20.8,13.5,20.4,14.3,19.7,15z"/>
</g>
</svg>
