<?xml version="1.0" encoding="utf-8"?>
<!-- Generator: Adobe Illustrator 21.0.0, SVG Export Plug-In . SVG Version: 6.00 Build 0)  -->
<svg version="1.1" id="Layer_1" xmlns="http://www.w3.org/2000/svg" xmlns:xlink="http://www.w3.org/1999/xlink" x="0px" y="0px"
	 width="32px" height="32px" viewBox="0 0 32 32" style="enable-background:new 0 0 32 32;" xml:space="preserve">
<style type="text/css">
	.st0{fill:none;}
	.st1{fill:#952524;}
</style>
<rect class="st0" width="32" height="32"/>
<g>
	<path class="st1" d="M8.2,12.3c1.9,0,3.5-1.6,3.5-3.5s-1.6-3.5-3.5-3.5S4.7,6.8,4.7,8.8S6.3,12.3,8.2,12.3z M8.2,6.4
		c1.3,0,2.4,1.1,2.4,2.4s-1.1,2.4-2.4,2.4c-1.3,0-2.4-1.1-2.4-2.4S6.9,6.4,8.2,6.4z"/>
	<path class="st1" d="M26.7,0.5H5.3c-2.7,0-4.8,2.2-4.8,4.8v21.3c0,2.7,2.2,4.8,4.8,4.8h21.3c2.7,0,4.8-2.2,4.8-4.8V5.3
		C31.5,2.7,29.3,0.5,26.7,0.5z M5.3,1.7h21.3c2,0,3.7,1.7,3.7,3.7v20.1l-7.9-8c-0.6-0.6-1.4-0.9-2.2-0.9c-0.8,0-1.6,0.4-2.1,1.1
		l-2.2,2.7L12,16.1c-0.5-0.6-1.3-0.9-2.1-0.8c-0.8,0-1.5,0.4-2,1l-6.3,8V5.3C1.7,3.3,3.3,1.7,5.3,1.7z M1.7,26.7v-0.5L8.9,17
		c0.3-0.3,0.7-0.6,1.1-0.6c0,0,0,0,0.1,0c0.4,0,0.8,0.2,1.1,0.5l12.9,13.4H5.3C3.3,30.3,1.7,28.7,1.7,26.7z M26.7,30.3h-1l-8.8-9.2
		l2.3-2.8c0.3-0.4,0.7-0.6,1.2-0.6c0,0,0.1,0,0.1,0c0.4,0,0.9,0.2,1.2,0.5l8.6,8.8l0.1,0.1C30,28.9,28.5,30.3,26.7,30.3z"/>
</g>
</svg>
