<?xml version="1.0" encoding="utf-8"?>
<!-- Generator: Adobe Illustrator 21.0.0, SVG Export Plug-In . SVG Version: 6.00 Build 0)  -->
<svg version="1.1" id="Layer_1" xmlns="http://www.w3.org/2000/svg" xmlns:xlink="http://www.w3.org/1999/xlink" x="0px" y="0px"
	 width="32px" height="32px" viewBox="0 0 32 32" style="enable-background:new 0 0 32 32;" xml:space="preserve">
<style type="text/css">
	.st0{fill:none;}
	.st1{fill:#952524;}
</style>
<g>
	<rect class="st0" width="32" height="32"/>
</g>
<path class="st1" d="M31.8,14L16,0.8L0.2,14C0.1,14.1,0,14.3,0,14.4c0,0.2,0,0.3,0.1,0.4c0.2,0.2,0.6,0.3,0.8,0.1l2.9-2.4v17.8
	c0,0.5,0.4,0.9,0.9,0.9h22.6c0.5,0,0.9-0.4,0.9-0.9V12.5l0.1,0l2.8,2.4c0.1,0.1,0.3,0.2,0.4,0.1c0.2,0,0.3-0.1,0.4-0.2
	c0.1-0.1,0.2-0.3,0.1-0.4C32,14.3,31.9,14.1,31.8,14z M27,30H5V11.5l0,0l11-9.2l0,0L27,11.5V30z"/>
</svg>
