<?xml version="1.0" encoding="utf-8"?>
<!-- Generator: Adobe Illustrator 21.0.0, SVG Export Plug-In . SVG Version: 6.00 Build 0)  -->
<svg version="1.1" id="Layer_1" xmlns="http://www.w3.org/2000/svg" xmlns:xlink="http://www.w3.org/1999/xlink" x="0px" y="0px"
	 width="32px" height="32px" viewBox="0 0 32 32" style="enable-background:new 0 0 32 32;" xml:space="preserve">
<style type="text/css">
	.st0{fill:none;}
	.st1{fill:#952524;}
</style>
<g>
	<rect class="st0" width="32" height="32"/>
</g>
<g>
	<path class="st1" d="M31.5,5.1c0-0.3,0-0.6-0.1-0.8c-0.1-0.6-0.4-1.2-0.8-1.7c0,0-0.1-0.1-0.1-0.1c0,0-0.1-0.1-0.1-0.1
		c-0.2-0.3-0.4-0.5-0.7-0.7c0,0-0.1-0.1-0.1-0.1c0,0-0.1-0.1-0.1-0.1c-0.5-0.4-1.1-0.6-1.7-0.8c-0.2-0.1-0.4-0.1-0.7-0.1
		c-0.2,0-0.3,0-0.5,0H5.3c-0.2,0-0.3,0-0.5,0c-0.2,0-0.5,0-0.7,0.1C3.6,0.8,3,1.1,2.6,1.4c0,0-0.1,0.1-0.1,0.1c0,0-0.1,0.1-0.1,0.1
		C2,1.8,1.8,2.1,1.6,2.3c0,0-0.1,0.1-0.1,0.1c0,0-0.1,0.1-0.1,0.1C1,3.1,0.8,3.7,0.6,4.3C0.6,4.6,0.5,4.8,0.5,5.1c0,0.1,0,0.1,0,0.2
		v21.3c0,0.1,0,0.1,0,0.2c0,0.3,0,0.6,0.1,0.8c0.1,0.6,0.4,1.2,0.8,1.7c0,0,0.1,0.1,0.1,0.1c0,0,0.1,0.1,0.1,0.1
		c0.2,0.3,0.5,0.5,0.8,0.8c0,0,0.1,0.1,0.1,0.1c0,0,0.1,0.1,0.1,0.1c0.5,0.4,1.1,0.6,1.8,0.8c0.3,0.1,0.6,0.1,1,0.1h0.8h0.1h6.8h0.1
		h13.5c0.3,0,0.7,0,1-0.1c0.6-0.1,1.2-0.4,1.8-0.8c0,0,0.1-0.1,0.1-0.1c0,0,0.1-0.1,0.1-0.1c0.3-0.2,0.5-0.5,0.8-0.8
		c0,0,0.1-0.1,0.1-0.1c0,0,0.1-0.1,0.1-0.1c0.4-0.5,0.6-1.1,0.8-1.7c0.1-0.3,0.1-0.6,0.1-0.8c0-0.1,0-0.1,0-0.2V5.3
		C31.5,5.3,31.5,5.2,31.5,5.1z M30.3,26.7c0,2-1.7,3.7-3.7,3.7H5.3c-2,0-3.7-1.7-3.7-3.7V12.3h6.9v3.6h1.2V7.5H8.5v3.6H1.7V5.3
		c0-2,1.7-3.7,3.7-3.7h11.1v10.6H27v-1.2h-9.4V1.7h9c2,0,3.7,1.7,3.7,3.7v15.9h-8.4v1.2h8.4V26.7z"/>
</g>
</svg>
