<?xml version="1.0" encoding="utf-8"?>
<!-- Generator: Adobe Illustrator 21.0.0, SVG Export Plug-In . SVG Version: 6.00 Build 0)  -->
<svg version="1.1" id="Layer_1" xmlns="http://www.w3.org/2000/svg" xmlns:xlink="http://www.w3.org/1999/xlink" x="0px" y="0px"
	 width="32px" height="32px" viewBox="0 0 32 32" style="enable-background:new 0 0 32 32;" xml:space="preserve">
<style type="text/css">
	.st0{fill:none;}
	.st1{fill:#952524;}
</style>
<g>
	<rect class="st0" width="32" height="32"/>
</g>
<g>
	<path class="st1" d="M16,7c-2.6,0-4.7,2.1-4.7,4.7c0,2.6,2.1,4.7,4.7,4.7c2.6,0,4.7-2.1,4.7-4.7C20.7,9.1,18.6,7,16,7 M19.7,11.7
		c0,2-1.7,3.7-3.7,3.7c-2,0-3.7-1.7-3.7-3.7C12.3,9.7,14,8,16,8C18,8,19.7,9.7,19.7,11.7"/>
	<path class="st1" d="M24.3,3.9C20.9,0.4,16,0.5,16,0.5c-0.1,0-4.9-0.1-8.3,3.4c-2.2,2.3-3.2,5.4-3,9.5c0,0.6,0,6.6,10.8,17.9
		c0,0,0.2,0.2,0.4,0.2c0.1,0,0.2,0,0.4-0.2C27.2,20,27.2,14,27.2,13.4C27.4,9.4,26.4,6.2,24.3,3.9 M26.2,13.4
		c0,0.1,0.1,5.9-10.2,16.9C5.7,19.3,5.8,13.5,5.8,13.4l0-0.1C5.6,9.6,6.5,6.7,8.5,4.6c3-3.1,7.4-3.1,7.6-3.1c0.8,0,4.8,0.2,7.5,3.1
		C25.5,6.7,26.4,9.6,26.2,13.4L26.2,13.4z"/>
</g>
</svg>
