<?xml version="1.0" encoding="utf-8"?>
<!-- Generator: Adobe Illustrator 21.0.0, SVG Export Plug-In . SVG Version: 6.00 Build 0)  -->
<svg version="1.1" id="Layer_1" xmlns="http://www.w3.org/2000/svg" xmlns:xlink="http://www.w3.org/1999/xlink" x="0px" y="0px"
	 width="32px" height="32px" viewBox="0 0 32 32" style="enable-background:new 0 0 32 32;" xml:space="preserve">
<style type="text/css">
	.st0{fill:none;}
	.st1{fill:#952524;}
</style>
<g>
	<rect class="st0" width="32" height="32"/>
</g>
<g>
	<path class="st1" d="M26.7,0.5H5.3c-2.7,0-4.8,2.2-4.8,4.8v21.3c0,2.7,2.2,4.8,4.8,4.8h21.3c2.7,0,4.8-2.2,4.8-4.8V5.3
		C31.5,2.7,29.3,0.5,26.7,0.5 M30.3,5.3v21.3c0,2-1.7,3.7-3.7,3.7H5.3c-2,0-3.7-1.7-3.7-3.7V5.3c0-2,1.7-3.7,3.7-3.7h21.3
		C28.7,1.7,30.3,3.3,30.3,5.3"/>
	<path class="st1" d="M21,18.4l-0.1-0.1c-1-1.8-3.4-2.8-4.4-3.2V8.5c1.4,0.1,2.5,0.9,3,1.2c0.2,0.2,0.6,0.1,0.8-0.1
		c0.1-0.1,0.2-0.3,0.1-0.4c0-0.2-0.1-0.3-0.2-0.4c-0.5-0.4-1.9-1.3-3.7-1.5V5.6c0-0.3-0.3-0.6-0.6-0.6c-0.3,0-0.6,0.3-0.6,0.6v1.7
		c-0.8,0.1-1.5,0.4-2.2,0.9c-1.1,0.7-1.7,1.8-1.9,2.9c-0.1,1.4,0.4,3.4,4.1,4.8v7.4c-0.9-0.1-2.7-0.5-3.6-1.5
		c-0.2-0.2-0.5-0.2-0.8-0.1c-0.1,0.1-0.2,0.2-0.2,0.4c0,0.2,0,0.3,0.1,0.5c1.2,1.3,3.5,1.8,4.5,1.9v1.9c0,0.3,0.3,0.6,0.6,0.6
		c0.3,0,0.6-0.3,0.6-0.6v-1.8c1.2,0,3.7-0.4,4.7-3.6C21.4,20.1,21.4,19.2,21,18.4L21,18.4z M20.1,20.6c-0.7,2.4-2.6,2.8-3.6,2.8
		v-7.1c0.9,0.3,2.7,1.2,3.4,2.5C20.2,19.4,20.3,20,20.1,20.6 M15.3,8.5v6.1c-2.1-0.9-3.1-2.1-2.9-3.4c0.1-0.8,0.6-1.5,1.3-2.1
		C14.2,8.9,14.8,8.6,15.3,8.5"/>
</g>
</svg>
