<?xml version="1.0" encoding="utf-8"?>
<!-- Generator: Adobe Illustrator 21.0.0, SVG Export Plug-In . SVG Version: 6.00 Build 0)  -->
<svg version="1.1" id="Layer_1" xmlns="http://www.w3.org/2000/svg" xmlns:xlink="http://www.w3.org/1999/xlink" x="0px" y="0px"
	 width="32px" height="32px" viewBox="0 0 32 32" style="enable-background:new 0 0 32 32;" xml:space="preserve">
<style type="text/css">
	.st0{fill:none;}
	.st1{fill:#952524;}
</style>
<g>
	<rect class="st0" width="32" height="32"/>
</g>
<path class="st1" d="M32,12.2c-0.1-0.4-0.5-0.6-0.8-0.6l-9.5-1c-0.3,0-0.5-0.2-0.6-0.4l-4.2-9c-0.1-0.4-0.5-0.6-0.9-0.6
	c-0.4,0-0.7,0.2-0.9,0.6l-4,8.9c-0.1,0.2-0.3,0.4-0.6,0.4l-9.7,1c-0.4,0-0.7,0.3-0.8,0.6c-0.1,0.4,0,0.8,0.3,1l7,5.8
	c0.5,0.4,0.7,1,0.5,1.5l-2.2,9.6c-0.1,0.4,0,0.7,0.3,1c0.2,0.1,0.4,0.2,0.6,0.2c0.1,0,0.3,0,0.4-0.1l8.9-4.7c0,0,0,0,0,0l8.9,4.7
	c0.3,0.2,0.7,0.1,1-0.1c0.3-0.2,0.4-0.6,0.3-0.9l-2.1-9.6c-0.1-0.6,0.1-1.1,0.5-1.5l6.9-5.8C31.9,13,32.1,12.6,32,12.2z M22.9,20.8
	l2,9l-8.3-4.4c-0.2-0.1-0.4-0.2-0.6-0.2c-0.2,0-0.4,0.1-0.6,0.2l-8.3,4.4l2-8.9c0.2-1-0.1-2.1-0.9-2.8l-6.5-5.3l9-0.9
	c0.7-0.1,1.3-0.5,1.6-1.2L16,2.4l3.9,8.4c0.3,0.6,0.9,1.1,1.6,1.1l8.7,0.9l-6.4,5.3C23.1,18.8,22.7,19.8,22.9,20.8z"/>
</svg>
