<?xml version="1.0" encoding="utf-8"?>
<!-- Generator: Adobe Illustrator 21.0.0, SVG Export Plug-In . SVG Version: 6.00 Build 0)  -->
<svg version="1.1" id="Layer_1" xmlns="http://www.w3.org/2000/svg" xmlns:xlink="http://www.w3.org/1999/xlink" x="0px" y="0px"
	 width="32px" height="32px" viewBox="0 0 32 32" style="enable-background:new 0 0 32 32;" xml:space="preserve">
<style type="text/css">
	.st0{fill:none;}
	.st1{fill:#952524;}
</style>
<rect class="st0" width="32" height="32"/>
<g>
	<path class="st1" d="M26.6,0.5H5.4c-2.7,0-4.8,2.2-4.8,4.8v21.3c0,2.7,2.2,4.8,4.8,4.8h21.3c2.7,0,4.8-2.2,4.8-4.8V5.4
		C31.5,2.7,29.3,0.5,26.6,0.5 M30.3,5.4v21.3c0,2-1.7,3.7-3.7,3.7H5.4c-2,0-3.7-1.7-3.7-3.7V5.4c0-2,1.7-3.7,3.7-3.7h21.3
		C28.7,1.7,30.3,3.3,30.3,5.4"/>
	<path class="st1" d="M7.8,15.3c-0.8-0.3-1.3-0.5-1.5-0.7C6.1,14.5,6,14.3,6,14c0-0.3,0.1-0.5,0.4-0.7C6.6,13.1,6.9,13,7.3,13
		c0.4,0,0.7,0.1,0.9,0.3c0.2,0.2,0.4,0.4,0.5,0.7l0,0.1l1.1-0.5l0-0.1c-0.1-0.5-0.5-0.9-0.9-1.2c-0.4-0.3-1-0.5-1.6-0.5
		c-0.7,0-1.3,0.2-1.8,0.6C5,12.9,4.8,13.4,4.8,14c0,0.8,0.4,1.5,1.3,1.9c0.2,0.1,0.6,0.2,1.2,0.5c0.6,0.2,1,0.4,1.2,0.6
		c0.2,0.2,0.3,0.5,0.3,0.8c0,0.4-0.1,0.7-0.4,0.9C8.1,18.9,7.8,19,7.3,19c-0.2,0-0.4,0-0.6-0.1c-0.2-0.1-0.3-0.2-0.5-0.3
		c-0.1-0.1-0.3-0.3-0.4-0.5c-0.1-0.2-0.2-0.4-0.3-0.6l0-0.1l-1.1,0.4l0,0.1c0.2,0.7,0.5,1.2,1.1,1.6c0.5,0.4,1.1,0.6,1.8,0.6
		c0.7,0,1.4-0.2,1.9-0.6c0.5-0.4,0.8-1,0.8-1.7c0-0.6-0.2-1.1-0.5-1.5C9.1,15.9,8.6,15.6,7.8,15.3"/>
	<path class="st1" d="M14.8,11.7c-1.1,0-2.1,0.4-2.9,1.2c-0.8,0.8-1.2,1.8-1.2,2.9c0,1.2,0.4,2.2,1.2,2.9c0.8,0.8,1.8,1.2,2.9,1.2
		c0.6,0,1.2-0.1,1.8-0.4l0.5,0.8l0.9-0.6l-0.5-0.8c0.4-0.4,0.7-0.8,1-1.4c0.2-0.5,0.4-1.1,0.4-1.7c0-1.2-0.4-2.1-1.2-2.9
		C16.9,12.1,15.9,11.7,14.8,11.7 M17.7,15.8c0,0.9-0.3,1.6-0.8,2.1L16,16.6L15,17.2l0.9,1.4c-0.4,0.2-0.8,0.3-1.2,0.3
		c-0.8,0-1.5-0.3-2.1-0.9c-0.5-0.6-0.8-1.3-0.8-2.2c0-0.9,0.3-1.6,0.8-2.2c0.6-0.6,1.3-0.9,2.1-0.9c0.8,0,1.5,0.3,2.1,0.9
		C17.4,14.2,17.7,14.9,17.7,15.8"/>
	<polygon class="st1" points="23.7,16.7 21,12.1 21,12 19.9,12 19.9,20 21,20 21,15.3 21,14.2 23.3,18.3 23.3,18.3 24,18.3 
		26.4,14.2 26.3,15.3 26.3,20 27.5,20 27.5,12 26.4,12 	"/>
</g>
</svg>
