<?xml version="1.0" encoding="utf-8"?>
<!-- Generator: Adobe Illustrator 21.0.0, SVG Export Plug-In . SVG Version: 6.00 Build 0)  -->
<svg version="1.1" id="Layer_1" xmlns="http://www.w3.org/2000/svg" xmlns:xlink="http://www.w3.org/1999/xlink" x="0px" y="0px"
	 width="32px" height="32px" viewBox="0 0 32 32" style="enable-background:new 0 0 32 32;" xml:space="preserve">
<style type="text/css">
	.st0{fill:none;}
	.st1{fill:#952524;}
</style>
<rect class="st0" width="32" height="32"/>
<g>
	<path class="st1" d="M31.3,19.3c-0.7,0-1.4,0.2-1.9,0.7l-1.5,1.2c-0.7,0.6-1.8,0.5-2.5-0.1l-0.7-0.6l0,0c-0.7-0.5-1.5-0.9-2.3-1
		l-6.6-8.1l6.4-1.7c0.5-0.1,0.9-0.5,1.2-0.9c0.3-0.4,0.3-1,0.2-1.5C23.1,6,22,5.4,20.8,5.7l-9.3,2.6c-0.6,0.2-1.1,0.7-1.3,1.3
		c-0.2,0.6-0.1,1.3,0.4,1.8l3.7,4.4l-4.4,3.6c-0.6,0.1-1.2,0.4-1.7,0.8l-1.6,1.1c-0.4,0.2-0.9,0.1-1.3-0.1l-2-1.4
		c-0.5-0.3-1-0.5-1.6-0.5H0v1h1.6c0.4,0,0.7,0.1,1,0.3l2,1.4c0.7,0.5,1.6,0.6,2.4,0.2l1.7-1.2c1.4-1,3.2-1,4.6,0l1.1,0.9
		c0.5,0.5,1.2,0.7,1.9,0.7c0.5,0,1-0.1,1.4-0.4l1-0.9c1.5-1.4,3.7-1.4,5.3-0.2l0.6,0.6c1,1,2.7,1.1,3.8,0.2l1.5-1.2
		c0.4-0.3,0.8-0.4,1.3-0.4H32v-1H31.3z M15.5,16L15.5,16l-4.3-5.2c-0.2-0.2-0.3-0.6-0.2-0.9c0.1-0.3,0.3-0.5,0.6-0.6l9.3-2.6
		c0.6-0.2,1.2,0.2,1.4,0.8c0.1,0.2,0,0.5-0.1,0.7c-0.1,0.2-0.3,0.3-0.5,0.4l-6.8,1.8c-0.2,0.1-0.4,0.3-0.5,0.5
		c-0.1,0.2,0,0.5,0.1,0.7l6.3,7.7c-1.1,0.1-2.2,0.6-3,1.3l-0.9,0.8c-0.7,0.3-1.5,0.3-2.1-0.3l-1.1-1l0,0c-0.7-0.5-1.5-0.8-2.3-0.9
		L15.5,16z"/>
	<path class="st1" d="M29.4,23.6l-1.5,1.2c-0.7,0.6-1.8,0.5-2.5-0.1l-0.7-0.6l0,0c-2-1.5-4.8-1.4-6.7,0.3l-0.9,0.8
		c-0.7,0.3-1.5,0.3-2.1-0.3l-1.1-1l0,0c-1.8-1.2-4-1.2-5.8,0L6.5,25c-0.4,0.2-0.9,0.1-1.3-0.1l-2-1.4c-0.5-0.3-1-0.5-1.6-0.5H0v1
		h1.6c0.4,0,0.7,0.1,1,0.3l2,1.4c0.7,0.5,1.6,0.6,2.4,0.2l1.7-1.2c1.4-1,3.2-1,4.6,0l1.1,0.9c0.5,0.5,1.2,0.7,1.9,0.7
		c0.5,0,1-0.1,1.4-0.4l1-0.9c1.5-1.4,3.7-1.4,5.3-0.2l0.6,0.6c1.1,1,2.7,1.1,3.8,0.2l1.5-1.2c0.4-0.3,0.8-0.4,1.3-0.4H32v-1h-0.7
		C30.6,23,29.9,23.2,29.4,23.6z"/>
	<path class="st1" d="M20.6,14.3c0,2,1.7,3.7,3.7,3.7s3.7-1.7,3.7-3.7s-1.7-3.7-3.7-3.7S20.6,12.2,20.6,14.3z M21.6,14.3
		c0-1.5,1.2-2.6,2.6-2.6c1.5,0,2.6,1.2,2.6,2.6c0,1.5-1.2,2.6-2.6,2.6C22.8,16.9,21.6,15.7,21.6,14.3z"/>
</g>
</svg>
