<?xml version="1.0" encoding="utf-8"?>
<!-- Generator: Adobe Illustrator 21.0.0, SVG Export Plug-In . SVG Version: 6.00 Build 0)  -->
<svg version="1.1" id="Layer_1" xmlns="http://www.w3.org/2000/svg" xmlns:xlink="http://www.w3.org/1999/xlink" x="0px" y="0px"
	 width="32px" height="32px" viewBox="0 0 32 32" style="enable-background:new 0 0 32 32;" xml:space="preserve">
<style type="text/css">
	.st0{fill:none;}
	.st1{fill:#952524;}
</style>
<rect class="st0" width="32" height="32"/>
<g>
	<path class="st1" d="M19.5,7.3c1.9,0,3.4-1.5,3.4-3.4s-1.5-3.4-3.4-3.4c-1.9,0-3.4,1.5-3.4,3.4S17.6,7.3,19.5,7.3z M17.1,3.9
		c0-1.3,1.1-2.4,2.4-2.4c1.3,0,2.4,1.1,2.4,2.4s-1.1,2.4-2.4,2.4C18.2,6.3,17.1,5.2,17.1,3.9z"/>
	<path class="st1" d="M27.6,9.2h-2.2c-0.3,0-0.5,0.2-0.5,0.5v14.1h-5.8c-0.3,0-0.5,0.2-0.5,0.5v6.2H8.2c-0.3,0-0.5,0.2-0.5,0.5
		c0,0.3,0.2,0.5,0.5,0.5H19c0.3,0,0.6-0.3,0.6-0.6v-6.1h5.8c0.3,0,0.6-0.3,0.6-0.6v-14h1.7c0.3,0,0.5-0.2,0.5-0.5
		C28.1,9.4,27.8,9.2,27.6,9.2z"/>
	<path class="st1" d="M9.6,13.9c1.2,0.8,2.8,0.8,4,0l1.2-0.9c1.1-0.8,2.5-0.7,3.6,0.1l1,0.8c0.6,0.5,1.3,0.7,2.1,0.7
		c0.7,0,1.4-0.2,2-0.6l0.6-0.4c0.1-0.1,0.2-0.2,0.2-0.3c0-0.1,0-0.3-0.1-0.4l0,0h0c-0.1-0.1-0.2-0.2-0.3-0.2c-0.1,0-0.3,0-0.4,0.1
		l-0.6,0.4c-0.9,0.6-2.1,0.6-2.9-0.1l-1-0.8c-1.4-1.1-3.3-1.1-4.8-0.1l-1.2,0.9c-0.8,0.6-2,0.6-2.8,0l-1.4-0.9
		c-1.1-0.8-2.5-0.8-3.7-0.2l-0.8,0.4c-0.1,0.1-0.2,0.2-0.2,0.3c0,0.1,0,0.3,0,0.4c0.1,0.2,0.4,0.3,0.7,0.2l0.8-0.4
		c0.9-0.5,1.9-0.4,2.7,0.1L9.6,13.9z"/>
	<path class="st1" d="M19.3,8.7c0.8-0.1,1.5,0.5,1.6,1.3l0.3,2.8l0,0l0,0c0,0,0.2,0,0.3,0c0.2,0,0.5,0,0.6-0.1l0,0l-0.3-2.8
		c-0.2-1.3-1.2-2.2-2.5-2.2c-0.1,0-0.2,0-0.2,0c-0.7,0.1-1.4,0.4-1.9,1c-0.5,0.6-0.7,1.3-0.6,2l0.1,0.6l0.1,0c0.3,0,0.5,0.1,0.8,0.2
		l0.2,0.1l-0.1-1c-0.1-0.5,0.1-0.9,0.4-1.3C18.4,8.9,18.8,8.7,19.3,8.7z"/>
	<path class="st1" d="M10.7,19.2L9.3,26c-0.3,1.4,0.6,2.8,1.9,3.1c0.2,0.1,0.4,0.1,0.6,0.1c0.4,0,0.8-0.1,1.2-0.3
		c0.6-0.3,0.9-0.9,1.1-1.5l1.2-4.8h5c0.8,0,1.5-0.3,2.1-0.9c0.5-0.6,0.8-1.4,0.7-2.2l-0.5-4.1l-0.1,0.1c-0.1,0.1-0.7,0.1-0.9,0.1
		l-0.1,0l0.5,4.1c0.1,0.5-0.1,1-0.4,1.4c-0.3,0.4-0.8,0.6-1.3,0.6h-5.8l-1.4,5.6c-0.1,0.4-0.3,0.7-0.6,0.9c-0.3,0.2-0.7,0.2-1.1,0.1
		c-0.9-0.2-1.4-1.1-1.2-2l1.4-6.8c0.2-0.7,0.8-1.3,1.5-1.3l5.3-0.1l0.1,0l-0.4-3.5l-1-0.3l0.3,2.8l-4.3,0.1
		C12,17.1,10.9,18,10.7,19.2z"/>
</g>
</svg>
