<?xml version="1.0" encoding="UTF-8" standalone="no"?>
<svg width="150px" height="150px" viewBox="0 0 150 150" version="1.1" xmlns="http://www.w3.org/2000/svg" xmlns:xlink="http://www.w3.org/1999/xlink">
    <!-- Generator: Sketch 41 (35326) - http://www.bohemiancoding.com/sketch -->
    <title>Explore</title>
    <desc>Created with Sketch.</desc>
    <defs></defs>
    <g id="Page-1" stroke="none" stroke-width="1" fill="none" fill-rule="evenodd">
        <g id="Investor_LandingPage_Philina_V2-Copy-3" transform="translate(-102.000000, -1277.000000)">
            <g id="How_It_Works_By_Phi" transform="translate(-20.000000, 875.000000)">
                <g id="Explore" transform="translate(124.000000, 404.000000)">
                    <circle id="Oval-3" stroke="#FE7800" stroke-width="3" fill="#FE7800" cx="73" cy="73" r="73"></circle>
                    <g id="Eye" transform="translate(36.000000, 53.000000)" stroke="#FFFFFF" stroke-width="2" stroke-linecap="round" stroke-linejoin="round">
                        <path d="M72.4375,20.875 C72.4375,20.875 56.35,41.1875 36.5,41.1875 C16.65,41.1875 0.5625,20.875 0.5625,20.875 C0.5625,20.875 16.65,0.5625 36.5,0.5625 C56.35,0.5625 72.4375,20.875 72.4375,20.875 L72.4375,20.875 Z" id="Stroke-4157"></path>
                        <path d="M56.8125,20.875 C56.8125,32.09375 47.71875,41.1875 36.5,41.1875 C25.284375,41.1875 16.1875,32.09375 16.1875,20.875 C16.1875,9.659375 25.284375,0.5625 36.5,0.5625 C47.71875,0.5625 56.8125,9.659375 56.8125,20.875 L56.8125,20.875 Z" id="Stroke-4158"></path>
                        <path d="M31.2296875,26.1484375 C31.2296875,29.0640625 33.5921875,31.4234375 36.5015625,31.4234375 C39.4109375,31.4234375 41.7765625,29.0640625 41.7765625,26.1484375 C41.7765625,23.2390625 39.4109375,20.8765625 36.5015625,20.8765625 C33.5921875,20.8765625 31.2296875,18.5171875 31.2296875,15.6046875 C31.2296875,12.6921875 33.5921875,10.3296875 36.5015625,10.3296875 C39.4109375,10.3296875 41.7765625,12.6921875 41.7765625,15.6046875" id="Stroke-4159"></path>
                        <path d="M36,31.4234375 L36,34.9390625" id="Stroke-4160"></path>
                        <path d="M36,6.815625 L36,10.328125" id="Stroke-4161"></path>
                    </g>
                </g>
            </g>
        </g>
    </g>
</svg>