<?xml version="1.0" encoding="UTF-8" standalone="no"?>
<svg width="150px" height="150px" viewBox="0 0 150 150" version="1.1" xmlns="http://www.w3.org/2000/svg" xmlns:xlink="http://www.w3.org/1999/xlink">
    <!-- Generator: Sketch 41 (35326) - http://www.bohemiancoding.com/sketch -->
    <title>Invest</title>
    <desc>Created with Sketch.</desc>
    <defs></defs>
    <g id="Page-1" stroke="none" stroke-width="1" fill="none" fill-rule="evenodd">
        <g id="Investor_LandingPage_Philina_V2-Copy-3" transform="translate(-524.000000, -1277.000000)">
            <g id="How_It_Works_By_Phi" transform="translate(-20.000000, 875.000000)">
                <g id="Invest" transform="translate(546.000000, 404.000000)">
                    <path d="M73,146 C113.316787,146 146,113.316787 146,73 C146,32.6832133 113.316787,0 73,0 C32.6832133,0 0,32.6832133 0,73 C0,113.316787 32.6832133,146 73,146 Z" id="Oval-3" stroke="#FE7800" stroke-width="3" fill="#FE7800"></path>
                    <g id="Group-707" transform="translate(37.000000, 37.000000)" stroke="#FFFFFF" stroke-width="2" stroke-linejoin="round">
                        <path d="M31.1578947,35 L39.8421053,35" id="Stroke-4747" stroke-linecap="round"></path>
                        <path d="M31.1578947,39 L39.8421053,39" id="Stroke-4748" stroke-linecap="round"></path>
                        <path d="M35,39.0789474 L35,40.8157895" id="Stroke-4749" stroke-linecap="round"></path>
                        <path d="M51.1315789,15.6315789 C51.1315789,7.48057895 44.1321053,0.868421053 35.5,0.868421053 C26.8661579,0.868421053 19.8684211,7.48057895 19.8684211,15.6315789 C19.8684211,22.3601053 24.6395263,28.0274211 31.1578947,29.8059474 L31.1578947,32.1315789 L39.8421053,32.1315789 L39.8421053,29.8059474 C46.3604737,28.0274211 51.1315789,22.3601053 51.1315789,15.6315789 L51.1315789,15.6315789 Z" id="Stroke-4750" stroke-linecap="round"></path>
                        <path d="M31.9483316,19.1815105 C31.9483316,21.1441421 33.5392789,22.7350895 35.5001737,22.7350895 C37.4610684,22.7350895 39.0520158,21.1441421 39.0520158,19.1815105 C39.0520158,17.2223526 37.4610684,15.6314053 35.5001737,15.6314053 C33.5392789,15.6314053 31.9483316,14.0421947 31.9483316,12.0778263 C31.9483316,10.1204053 33.5392789,8.52598421 35.5001737,8.52598421 C37.4610684,8.52598421 39.0520158,10.1204053 39.0520158,12.0778263" id="Stroke-4751" stroke-linecap="round"></path>
                        <path d="M35,22.7349158 L35,25.1838632" id="Stroke-4752" stroke-linecap="round"></path>
                        <path d="M35,6.07894737 L35,8.52615789" id="Stroke-4753" stroke-linecap="round"></path>
                        <polygon id="Stroke-4146" points="44.3125 69.4375 63.0625 69.4375 63.0625 60.0625 44.3125 60.0625"></polygon>
                        <path d="M59.9375,60.0625 L59.9375,55.278125 C59.9375,55.278125 69.896875,45.41875 72.4375,42.875 L72.4375,17.68125 C72.4375,17.68125 64.625,14.846875 64.625,36.625 L55.346875,45.903125 L57.496875,36.528125 C58.571875,32.034375 54.4625,30.115625 52.221875,33.596875 C50.159375,36.80625 47.4375,45.975 47.4375,45.975 L47.4375,60.0625" id="Stroke-4147" stroke-linecap="round"></path>
                        <polygon id="Stroke-4148" points="9.9375 69.4375 28.6875 69.4375 28.6875 60.0625 9.9375 60.0625"></polygon>
                        <path d="M13.0625,60.0625 L13.0625,55.278125 C13.0625,55.278125 3.6875,45.41875 0.5625,42.875 L0.5625,17.68125 C0.5625,17.68125 8.375,14.846875 8.375,36.625 L17.653125,45.903125 L15.503125,36.528125 C14.428125,32.034375 18.5375,30.115625 20.778125,33.596875 C22.840625,36.80625 25.5625,45.975 25.5625,45.975 L25.5625,60.0625" id="Stroke-4149" stroke-linecap="round"></path>
                    </g>
                </g>
            </g>
        </g>
    </g>
</svg>