<?xml version="1.0" encoding="UTF-8" standalone="no"?>
<svg width="941px" height="577px" viewBox="0 0 941 577" version="1.1" xmlns="http://www.w3.org/2000/svg" xmlns:xlink="http://www.w3.org/1999/xlink">
    <!-- Generator: Sketch 41.2 (35397) - http://www.bohemiancoding.com/sketch -->
    <title>Investor_graph_update_01/06/17</title>
    <desc>Created with Sketch.</desc>
    <defs>
        <filter x="-50%" y="-50%" width="200%" height="200%" filterUnits="objectBoundingBox" id="filter-1">
            <feOffset dx="0" dy="30" in="SourceAlpha" result="shadowOffsetOuter1"></feOffset>
            <feGaussianBlur stdDeviation="19" in="shadowOffsetOuter1" result="shadowBlurOuter1"></feGaussianBlur>
            <feColorMatrix values="0 0 0 0 0   0 0 0 0 0   0 0 0 0 0  0 0 0 0.200000003 0" type="matrix" in="shadowBlurOuter1" result="shadowMatrixOuter1"></feColorMatrix>
            <feMerge>
                <feMergeNode in="shadowMatrixOuter1"></feMergeNode>
                <feMergeNode in="SourceGraphic"></feMergeNode>
            </feMerge>
        </filter>
        <path d="M910.543131,486 C910.543131,486 880.476963,497.765943 805.317271,497.765943 C805.317271,497.765943 553.610224,499.874747 455.271565,499.874747 C356.932907,499.874747 105.22586,497.765943 105.22586,497.765943 C30.0661681,497.765943 0,486 0,486 L910.543131,486 Z" id="path-2"></path>
        <filter x="-50%" y="-50%" width="200%" height="200%" filterUnits="objectBoundingBox" id="filter-3">
            <feGaussianBlur stdDeviation="12.5 0" in="SourceGraphic"></feGaussianBlur>
        </filter>
        <filter x="-50%" y="-50%" width="200%" height="200%" filterUnits="objectBoundingBox" id="filter-4">
            <feOffset dx="0" dy="1" in="SourceAlpha" result="shadowOffsetOuter1"></feOffset>
            <feGaussianBlur stdDeviation="2.5" in="shadowOffsetOuter1" result="shadowBlurOuter1"></feGaussianBlur>
            <feColorMatrix values="0 0 0 0 0   0 0 0 0 0   0 0 0 0 0  0 0 0 1 0" type="matrix" in="shadowBlurOuter1"></feColorMatrix>
        </filter>
        <linearGradient x1="50%" y1="100%" x2="50%" y2="95.3611898%" id="linearGradient-5">
            <stop stop-color="#000000" offset="0%"></stop>
            <stop stop-color="#000000" stop-opacity="0" offset="100%"></stop>
        </linearGradient>
        <path d="M108.223642,0 L800.236422,0 C814.488433,0 826.460064,11.4076752 826.460064,24.9745452 L826.460064,464.804035 C826.460064,478.370905 826.37263,489.778581 811.891374,489.778581 L98.0255591,489.778581 C83.3607406,489.778581 82,478.370905 82,464.804035 L82,24.9745452 C82,11.4076752 93.9716309,0 108.223642,0 L108.223642,0 Z" id="path-6"></path>
        <mask id="mask-7" maskContentUnits="userSpaceOnUse" maskUnits="objectBoundingBox" x="0" y="0" width="744.460064" height="489.778581" fill="white">
            <use xlink:href="#path-6"></use>
        </mask>
        <rect id="path-8" x="110" y="36" width="689.099042" height="409.305046"></rect>
        <rect id="path-10" x="110" y="36" width="689.099042" height="409.305046"></rect>
        <mask id="mask-11" maskContentUnits="userSpaceOnUse" maskUnits="objectBoundingBox" x="0" y="0" width="689.099042" height="409.305046" fill="white">
            <use xlink:href="#path-10"></use>
        </mask>
        <mask id="mask-13" maskContentUnits="userSpaceOnUse" maskUnits="objectBoundingBox" x="0" y="0" width="689.099042" height="409.305046" fill="white">
            <use xlink:href="#path-10"></use>
        </mask>
        <linearGradient x1="50%" y1="99.740912%" x2="50%" y2="0%" id="linearGradient-14">
            <stop stop-color="#D0D0D0" offset="0%"></stop>
            <stop stop-color="#E7E7E7" offset="100%"></stop>
        </linearGradient>
        <linearGradient x1="100%" y1="59.0212107%" x2="0%" y2="59.0212107%" id="linearGradient-15">
            <stop stop-color="#000000" offset="0%"></stop>
            <stop stop-color="#FFFFFF" stop-opacity="0.5" offset="49.648972%"></stop>
            <stop stop-color="#000000" offset="100%"></stop>
        </linearGradient>
        <rect id="path-16" x="1" y="481" width="910.543131" height="2.77494946"></rect>
        <filter x="-50%" y="-50%" width="200%" height="200%" filterUnits="objectBoundingBox" id="filter-17">
            <feOffset dx="0" dy="1" in="SourceAlpha" result="shadowOffsetInner1"></feOffset>
            <feComposite in="shadowOffsetInner1" in2="SourceAlpha" operator="arithmetic" k2="-1" k3="1" result="shadowInnerInner1"></feComposite>
            <feColorMatrix values="0 0 0 0 1   0 0 0 0 1   0 0 0 0 1  0 0 0 0.300000012 0" type="matrix" in="shadowInnerInner1"></feColorMatrix>
        </filter>
        <linearGradient x1="50%" y1="2.0567602%" x2="50%" y2="100%" id="linearGradient-18">
            <stop stop-color="#000000" offset="0%"></stop>
            <stop stop-color="#9A9A9A" offset="100%"></stop>
        </linearGradient>
        <linearGradient x1="50%" y1="50%" x2="50%" y2="0%" id="linearGradient-19">
            <stop stop-color="#000000" stop-opacity="0" offset="0%"></stop>
            <stop stop-color="#000000" offset="100%"></stop>
        </linearGradient>
        <linearGradient x1="50%" y1="20.7927981%" x2="50%" y2="100%" id="linearGradient-20">
            <stop stop-color="#FFFFFF" stop-opacity="-0.0636196476" offset="0%"></stop>
            <stop stop-color="#FFFFFF" stop-opacity="0" offset="0%"></stop>
            <stop stop-color="#FFFFFF" offset="100%"></stop>
        </linearGradient>
        <path d="M455.412141,487.937374 C422.31434,487.937374 376.65016,487.166555 368,485.624916 L368,481 L542.824281,481 L542.824281,485.624916 C534.174121,487.166555 488.509941,487.937374 455.412141,487.937374 Z" id="path-21"></path>
    </defs>
    <g id="Page-1" stroke="none" stroke-width="1" fill="none" fill-rule="evenodd">
        <g id="Investor_graph_update_01/06/17">
            <g id="macbook" filter="url(#filter-1)" transform="translate(11.000000, 18.121622)">
                <g id="Group-9">
                    <g id="Group-11">
                        <g id="Graph_01_05_17">
                            <g id="shadow" opacity="0.1" filter="url(#filter-3)" fill-opacity="1" fill="black">
                                <use filter="url(#filter-4)" xlink:href="#path-2"></use>
                            </g>
                            <g id="top">
                                <use fill="#EFEFEF" fill-rule="evenodd" xlink:href="#path-6"></use>
                                <use fill-opacity="0.1" fill="url(#linearGradient-5)" fill-rule="evenodd" style="mix-blend-mode: multiply;" xlink:href="#path-6"></use>
                                <use stroke-opacity="0.25" stroke="#FFFFFF" mask="url(#mask-7)" stroke-width="7.5" xlink:href="#path-6"></use>
                            </g>
                            <mask id="mask-9" fill="white">
                                <use xlink:href="#path-8"></use>
                            </mask>
                            <use id="screen" fill="#FFFFFF" xlink:href="#path-8"></use>
                            <mask id="mask-12" fill="white">
                                <use xlink:href="#path-10"></use>
                            </mask>
                            <g id="screen" stroke="#FFFFFF" mask="url(#mask-11)" stroke-width="2.5">
                                <use mask="url(#mask-13)" xlink:href="#path-10"></use>
                            </g>
                            <g id="Graph" mask="url(#mask-12)">
                                <g transform="translate(116.000000, 62.000000)">
                                    <rect id="light-background" fill="#FFFFFF" x="41.5984908" y="0" width="590.911895" height="364.232067"></rect>
                                    <g id="BG_Grid" stroke-width="1" fill="none" transform="translate(92.796633, 14.150023)" stroke-linecap="square">
                                        <path d="M0.533313985,242.384649 L443.183921,242.384649" id="Line" stroke="#4A4A4A" opacity="0.5"></path>
                                        <path d="M0.533313985,66.2954769 L443.183921,66.2954769" id="Line-Copy-5" stroke="#4A4A4A" opacity="0.5"></path>
                                        <path d="M0.533313985,279.593968 L443.183921,279.593968" id="Line-Copy-4" stroke="#4A4A4A" opacity="0.5"></path>
                                        <path d="M0.533313985,102.456646 L443.183921,102.456646" id="Line-Copy-6" stroke="#4A4A4A" opacity="0.5"></path>
                                        <path d="M0.533313985,173.730835 L443.183921,173.730835" id="Line-Copy" stroke="#4A4A4A" opacity="0.5"></path>
                                        <path d="M0.533313985,207.795704 L443.183921,207.795704" id="Line-Copy-2" stroke="#4A4A4A" opacity="0.5"></path>
                                        <path d="M0.533313985,31.7065324 L443.183921,31.7065324" id="Line-Copy-8" stroke="#4A4A4A" opacity="0.5"></path>
                                        <path d="M0.533313985,139.14189 L443.183921,139.14189" id="Line-Copy-3" stroke="#4A4A4A" opacity="0.5"></path>
                                        <path d="M0.533313985,310.776425 L443.183921,310.776425" id="x-axis" stroke="#4A4A4A"></path>
                                        <path d="M0.533313985,310.776425 L0.533313985,0" id="y-axis" stroke="#4A4A4A"></path>
                                    </g>
                                    <g id="Bloomberg" stroke-width="1" fill="none" transform="translate(101.159120, 221.231599)">
                                        <text id="BLOOMBERG-" font-family="HelveticaNeue, Helvetica Neue" font-size="12" font-weight="normal" fill="#FE7800">
                                            <tspan x="442.271994" y="11.2998178">BLOOMBERG </tspan>
                                            <tspan x="442.271994" y="25.2998178">US GOVT. BOND</tspan>
                                            <tspan x="442.271994" y="39.2998178">INDEX 1-3 YEAR</tspan>
                                        </text>
                                        <polyline id="Path-323" stroke="#FE7800" stroke-width="2" points="0.208035365 38.219459 16.7324359 40.8160948 29.1194865 35.3337799 38.5941427 35.6490437 53.7810917 33.5302252 74.3876358 33.6169577 81.3103013 32.5638176 94.1275446 33.2845651 110.099882 32.6008111 125.428492 32.6888393 147.07354 31.4134539 173.885068 31.7778497 192.636471 30.8238696 204.14022 29.7327292 211.38579 32.3019246 217.912637 30.9118978 224.604061 31.1166146 230.528846 30.7296999 237.657754 29.4768333 243.628371 28.7050511 252.692625 30.5925396 261.57147 29.0407866 274.002269 30.1114553 290.182932 29.3621919 309.62806 28.1318441 318.725646 27.2658922 329.141935 25.6261109 337.685375 27.6957974 346.782962 24.0477447 354.397269 26.0723935 368.265515 24.4121405 381.09005 24.6823667 387.039834 23.4069812 395.43953 24.8420457 401.530975 22.4100106 418.013711 24.4776499 430.35493 21.5870492"></polyline>
                                    </g>
                                    <g id="S&amp;P500" stroke-width="1" fill="none" transform="translate(101.862971, 24.311648)">
                                        <text id="S&amp;P-500-" font-family="HelveticaNeue, Helvetica Neue" font-size="12" font-weight="normal" fill="#4D4D4D">
                                            <tspan x="443.307631" y="60.6651783">S&amp;P 500 </tspan>
                                            <tspan x="443.307631" y="74.6651783">(SPY)</tspan>
                                        </text>
                                        <polyline id="Path-324" stroke="#4C4C4C" stroke-width="2" points="0.181243424 234.616829 5.17064574 233.47493 9.88193315 223.499021 16.9202195 223.499021 24.2137049 213.845237 45.6639683 233.031135 59.801997 279.975256 66.7559114 244.044228 74.4420909 245.540165 80.5314533 242.369775 101.355698 201.109821 108.893966 204.234336 115.305192 228.595181 122.414309 213.997822 132.044168 207.181333 145.234314 190.722841 149.420621 199.37952 158.414044 199.333644 164.804438 196.872328 171.286494 177.508912 179.865349 172.032783 186.125539 156.233687 202.565568 136.978549 208.307026 143.326815 215.9005 119.391331 222.383599 136.090078 229.136479 125.167053 234.670653 106.842814 252.038773 74.5685959 258.594785 92.8559444 268.617338 68.4905552 279.93776 63.628532 294.895551 41.3082632 300.984914 50.5020931 308.826296 30.7162179 314.77608 37.9979932 330.265101 11.8761341 337.487756 13.9007829 343.80836 31.8749148 352.430964 0.753872274 358.866147 10.5966543 372.711478 0.266646375 379.519564 10.7563334 385.654758 1.5174658 395.373156 39.6950951 400.21048 53.3517505 408.937247 7.95990237 414.678705 7.07347878 422.709664 17.5406469 428.546952 46.9379743"></polyline>
                                    </g>
                                    <g id="ProsperGraph" stroke-width="1" fill="none" transform="translate(103.462913, 24.797123)">
                                        <path d="M0.0437484128,235.39379 L22.6533448,219.043062 L37.0986541,210.532986 L49.1148848,201.11192 L60.1832332,197.719763 L69.9766279,198.266357 L84.4677688,192.077769 L92.0154117,193.170957 L99.7057576,187.758246 L114.047946,183.117317 L120.382091,178.064907 L126.901646,176.256234 L132.969134,170.909032 L140.784476,169.634671 L154.641265,162.649735 L169.713634,156.734444 L175.35093,156.483666 L197.48346,144.47191 L224.68664,132.834785 L257.679193,117.170882 L289.109303,100.347258 L297.502748,95.0102922 L318.942595,86.0795234 L334.014965,79.3566248 L361.888954,66.7184354 L379.809137,57.4232707 C379.809137,57.4232707 386.049283,53.8619757 388.121336,52.8519454 C397.996072,48.0384662 415.649503,39.9527421 415.649503,39.9527421 L432.800965,37.0273395" id="Path-325" stroke="#E20C77" stroke-width="4"></path>
                                        <text id="PROSPER-MARKETPLACE" font-family="HelveticaNeue, Helvetica Neue" font-size="12" font-weight="normal" letter-spacing="0.927386045" fill="#E20C77">
                                            <tspan x="440.075701" y="11.2980278">PROSPER </tspan>
                                            <tspan x="440.075701" y="25.2980278">MARKETPLACE</tspan>
                                            <tspan x="440.075701" y="39.2980278">INDEX</tspan>
                                            <tspan x="440.075701" y="53.2980278"></tspan>
                                        </text>
                                    </g>
                                    <g id="Axies_Texts" stroke-width="1" fill="none" transform="translate(0.000000, 34.064870)" font-size="12.1029363">
                                        <text id="$8k" font-family="HelveticaNeue-Light, Helvetica Neue" font-weight="300" fill="#4A4A4A">
                                            <tspan x="57.2811785" y="291.22484">$8k</tspan>
                                        </text>
                                        <text id="$12k" font-family="HelveticaNeue-Light, Helvetica Neue" font-weight="300" fill="#4A4A4A">
                                            <tspan x="50.551946" y="154.265358">$12k</tspan>
                                        </text>
                                        <text id="2011" font-family="HelveticaNeue, Helvetica Neue" font-weight="normal" fill="#4A4A4A">
                                            <tspan x="90.943206" y="317.772651">2011</tspan>
                                        </text>
                                        <text id="2014" font-family="HelveticaNeue, Helvetica Neue" font-weight="normal" fill="#4A4A4A">
                                            <tspan x="330.542534" y="316.86711">2014</tspan>
                                        </text>
                                        <text id="2012" font-family="HelveticaNeue, Helvetica Neue" font-weight="normal" fill="#4A4A4A">
                                            <tspan x="167.994713" y="316.86711">2012</tspan>
                                        </text>
                                        <text id="2015" font-family="HelveticaNeue, Helvetica Neue" font-weight="normal" fill="#4A4A4A">
                                            <tspan x="416.890582" y="316.86711">2015</tspan>
                                        </text>
                                        <text id="2016" font-family="HelveticaNeue, Helvetica Neue" font-weight="normal" fill="#4A4A4A">
                                            <tspan x="501.500953" y="316.86711">2016</tspan>
                                        </text>
                                        <text id="2013" font-family="HelveticaNeue, Helvetica Neue" font-weight="normal" fill="#4A4A4A">
                                            <tspan x="245.64468" y="316.86711">2013</tspan>
                                        </text>
                                        <text id="$10k" font-family="HelveticaNeue-Light, Helvetica Neue" font-weight="300" fill="#4A4A4A">
                                            <tspan x="50.551946" y="222.713957">$10k</tspan>
                                        </text>
                                        <text id="$14k" font-family="HelveticaNeue-Light, Helvetica Neue" font-weight="300" fill="#4A4A4A">
                                            <tspan x="50.551946" y="83.1341006">$14k</tspan>
                                        </text>
                                        <text id="$16k" font-family="HelveticaNeue-Light, Helvetica Neue" font-weight="300" fill="#4A4A4A">
                                            <tspan x="50.551946" y="12.1408276">$16k</tspan>
                                        </text>
                                    </g>
                                </g>
                            </g>
                            <path d="M911.543131,484 C911.543131,484 881.476963,498.119132 806.648562,497.319757 C806.317271,498.119132 554.610224,500.649697 457,500.649697 C357.932907,500.649697 106.22586,498.119132 105.894569,497.319757 C31.0661681,498.119132 1,484 1,484 L911.543131,484 Z" id="bottom" fill="url(#linearGradient-14)"></path>
                            <g id="bottomfront">
                                <use fill="#F3F3F3" fill-rule="evenodd" xlink:href="#path-16"></use>
                                <use fill-opacity="0.02" fill="url(#linearGradient-15)" fill-rule="evenodd" style="mix-blend-mode: multiply;" xlink:href="#path-16"></use>
                                <use fill="black" fill-opacity="1" filter="url(#filter-17)" xlink:href="#path-16"></use>
                            </g>
                            <g id="shadows">
                                <use fill="#FAFAFA" xlink:href="#path-21"></use>
                                <use fill-opacity="0.03" fill="url(#linearGradient-18)" style="mix-blend-mode: multiply;" xlink:href="#path-21"></use>
                                <use fill-opacity="0.04" fill="url(#linearGradient-19)" style="mix-blend-mode: multiply;" xlink:href="#path-21"></use>
                                <use fill-opacity="0.3" fill="url(#linearGradient-20)" style="mix-blend-mode: soft-light;" xlink:href="#path-21"></use>
                            </g>
                            <g id="Group-15" transform="translate(76.000000, 35.000000)">
                                <rect id="light-background" fill="#FFFFFF" x="32.2401702" y="0" width="691.75983" height="413"></rect>
                                <g id="Group-2" transform="translate(90.480478, 18.065789)" stroke="#C6C6C6" stroke-linecap="square">
                                    <path d="M0.520002744,277.078349 L488.659914,277.078349" id="Line" opacity="0.5"></path>
                                    <path d="M0.520002744,102.245813 L488.659914,102.245813" id="Line-Copy-5" opacity="0.5"></path>
                                    <path d="M0.520002744,314.022129 L488.659914,314.022129" id="Line-Copy-4" opacity="0.5"></path>
                                    <path d="M0.520002744,138.148923 L488.659914,138.148923" id="Line-Copy-6" opacity="0.5"></path>
                                    <path d="M0.520002744,208.914474 L488.659914,208.914474" id="Line-Copy" opacity="0.5"></path>
                                    <path d="M0.520002744,242.736244 L488.659914,242.736244" id="Line-Copy-2" opacity="0.5"></path>
                                    <path d="M0.520002744,67.9037081 L488.659914,67.9037081" id="Line-Copy-8" opacity="0.5"></path>
                                    <path d="M0.520002744,34.0819378 L488.659914,34.0819378" id="Line-Copy-8" opacity="0.5"></path>
                                    <path d="M0.520002744,0.260167462 L488.659914,0.260167466" id="Line-Copy-8" opacity="0.5"></path>
                                    <path d="M0.520002744,174.572368 L488.659914,174.572368" id="Line-Copy-3" opacity="0.5"></path>
                                    <path d="M0.520002744,345.242225 L488.659914,345.242225" id="x-axis"></path>
                                    <path d="M0.520002744,345.502392 L0.520002744,0.260167464" id="y-axis"></path>
                                </g>
                                <text id="$8k" font-family="HelveticaNeue-Light, Helvetica Neue" font-size="12.1000004" font-weight="300" fill="#4D4D4D">
                                    <tspan x="55.3692449" y="369.738172">$8k</tspan>
                                </text>
                                <text id="$12k" font-family="HelveticaNeue-Light, Helvetica Neue" font-size="12.1000004" font-weight="300" fill="#4D4D4D">
                                    <tspan x="48.6416447" y="233.756082">$12k</tspan>
                                </text>
                                <text id="2011" font-family="HelveticaNeue, Helvetica Neue" font-size="12.1000004" font-weight="normal" fill="#4D4D4D">
                                    <tspan x="88.3406592" y="395.576193">2011</tspan>
                                </text>
                                <text id="2014" font-family="HelveticaNeue, Helvetica Neue" font-size="12.1000004" font-weight="normal" fill="#4D4D4D">
                                    <tspan x="321.959713" y="394.677114">2014</tspan>
                                </text>
                                <text id="2012" font-family="HelveticaNeue, Helvetica Neue" font-size="12.1000004" font-weight="normal" fill="#4D4D4D">
                                    <tspan x="163.469" y="394.677114">2012</tspan>
                                </text>
                                <text id="2015" font-family="HelveticaNeue, Helvetica Neue" font-size="12.1000004" font-weight="normal" fill="#4D4D4D">
                                    <tspan x="406.152558" y="394.677114">2015</tspan>
                                </text>
                                <text id="2016" font-family="HelveticaNeue, Helvetica Neue" font-size="12.1000004" font-weight="normal" fill="#4D4D4D">
                                    <tspan x="488.651098" y="394.677114">2016</tspan>
                                </text>
                                <text id="2017" font-family="HelveticaNeue, Helvetica Neue" font-size="12.1000004" font-weight="normal" fill="#4D4D4D">
                                    <tspan x="561.451482" y="394.677114">2017</tspan>
                                </text>
                                <text id="2013" font-family="HelveticaNeue, Helvetica Neue" font-size="12.1000004" font-weight="normal" fill="#4D4D4D">
                                    <tspan x="239.180865" y="394.677114">2013</tspan>
                                </text>
                                <text id="$10k" font-family="HelveticaNeue-Light, Helvetica Neue" font-size="12.1000004" font-weight="300" fill="#4D4D4D">
                                    <tspan x="48.6416447" y="301.716207">$10k</tspan>
                                </text>
                                <text id="$14k" font-family="HelveticaNeue-Light, Helvetica Neue" font-size="12.1000004" font-weight="300" fill="#4D4D4D">
                                    <tspan x="48.6416447" y="163.132443">$14k</tspan>
                                </text>
                                <text id="$16k" font-family="HelveticaNeue-Light, Helvetica Neue" font-size="12.1000004" font-weight="300" fill="#4D4D4D">
                                    <tspan x="48.3881993" y="92.5059809">$16k</tspan>
                                </text>
                                <text id="$18k" font-family="HelveticaNeue-Light, Helvetica Neue" font-size="12.1000004" font-weight="300" fill="#4D4D4D">
                                    <tspan x="48.3881993" y="27.4641148">$18k</tspan>
                                </text>
                                <g id="Group" transform="translate(95.680505, 25.350478)">
                                    <text id="PROSPER-" font-family="HelveticaNeue, Helvetica Neue" font-size="12" font-weight="normal" letter-spacing="0.480000019" fill="#E20C77">
                                        <tspan x="492.531974" y="51.4783047">PROSPER </tspan>
                                        <tspan x="492.531974" y="65.4783047">MARKETPLACE</tspan>
                                        <tspan x="492.531974" y="79.4783047">INDEX</tspan>
                                        <tspan x="492.531974" y="93.4783047" letter-spacing="0.288000017"></tspan>
                                    </text>
                                    <g id="S&amp;P500" transform="translate(0.520003, 0.116614)">
                                        <text id="S&amp;P-500-" font-family="HelveticaNeue, Helvetica Neue" font-size="12" font-weight="normal" fill="#4C4C4C">
                                            <tspan x="493.482604" y="11">S&amp;P 500 </tspan>
                                            <tspan x="493.482604" y="25">(SPY)</tspan>
                                        </text>
                                        <polyline id="Path-324" stroke="#4C4C4C" stroke-width="2" points="0.0769979269 269.520977 7.87952378 259.023161 13.2367881 248.441132 20.1287364 249.577267 27.1703025 238.856241 33.5387654 243.006268 41.6191676 252.780512 48.0244971 257.905222 61.7696523 304.514332 68.7797407 270.197069 76.2297569 271.424199 82.5196229 270.865136 96.1508868 237.63565 103.371005 226.703156 109.497433 229.313927 116.871661 253.039981 124.53958 239.788311 130.823449 234.824285 144.343429 217.34286 151.34098 224.953074 157.540219 223.102682 165.236792 221.971181 172.672815 200.568289 178.496634 197.342176 184.582863 181.655829 192.706561 173.544003 200.12859 162.531261 206.794289 170.780786 213.530425 145.076393 219.833368 161.655971 226.398596 150.810897 231.778985 132.617427 240.291374 112.970576 247.622776 102.066837 254.206511 121.361205 260.756928 98.4168765 267.725825 96.2909651 275.263802 92.1815831 281.359088 80.6024213 288.801108 71.1699016 295.666051 79.2482311 302.967467 56.8034486 309.744449 67.1414366 324.717015 38.328463 330.977992 41.4416827 337.451629 59.8527186 344.595544 28.8309719 351.927908 40.7991124 365.983874 26.8018248 371.871338 41.7081667 378.567481 28.043718 386.154341 64.149331 392.718722 79.5080945 399.808707 36.1680952 406.784898 33.5600812 414.021721 48.4411859 420.786666 76.4634962 427.224966 75.7409844 434.788519 43.0850144 442.306791 39.9149613 448.048969 30.8116276 455.970284 30.6527079 463.006862 10.7635647 470.697525 8.34176701 477.66181 13.8348602 483.005118 24.093815"></polyline>
                                    </g>
                                    <g id="Bloomberg" transform="translate(0.353723, 227.410028)">
                                        <text id="BLOOMBERG-" font-family="HelveticaNeue, Helvetica Neue" font-size="12" font-weight="normal" fill="#FE7800">
                                            <tspan x="493.482604" y="11">BLOOMBERG </tspan>
                                            <tspan x="493.482604" y="25">US GOVT. BOND</tspan>
                                            <tspan x="493.482604" y="39">INDEX 1-3 YEAR</tspan>
                                        </text>
                                        <polyline id="Path-323" stroke="#FE7800" stroke-width="2" points="0.490901598 41.9420757 12.1112897 41.193212 20.6908687 42.0445518 32.7166026 39.4962653 43.3508831 38.5644551 58.1587738 36.4607572 78.2509892 36.5468707 85.0008686 35.5012462 97.4982002 36.2168502 113.071876 35.5379757 125.988372 36.1346196 132.380087 34.3660113 146.316531 34.3660113 152.739041 35.3298598 159.783176 34.6361755 175.265017 34.7208873 193.548395 33.7737151 205.3416 34.4899858 211.517751 34.3065321 215.353496 33.2387743 222.865999 34.4340898 228.937591 32.7371431 237.44597 32.4362917 243.267563 31.6700173 252.105579 33.544036 260.762812 32.0033568 272.883345 33.0663848 283.5368 31.4063871 292.488877 31.2928332 297.90294 32.186782 307.619934 31.1009009 316.49045 30.2411288 326.646753 28.6130496 331.151315 30.6575234 338.552098 28.715494 346.772881 29.4084617 352.997015 28.3335377 367.663941 28.3965999 377.298271 27.6760402 383.099551 26.4097563 391.289594 27.8345797 397.229001 25.4199004 413.300336 27.4727843 425.333524 24.602812 429.658919 25.0507198 437.475074 23.967913 450.631622 24.5340396 457.166568 21.4834053 464.39404 22.8772234 483.996015 22.6858869"></polyline>
                                    </g>
                                    <polyline id="Path-325" stroke="#E20C77" stroke-width="4" points="7.08650141 269.622576 12.9606981 267.526698 20.3985715 260.119949 40.9993181 246.851454 47.8762572 240.253662 54.8561306 236.265591 68.9303775 231.804182 76.0619116 231.681187 90.4876038 224.538625 97.5576893 223.189208 104.203315 219.279833 110.693961 216.925876 123.867244 209.28651 130.616961 206.945283 139.125814 202.097334 147.532889 198.998073 158.933156 193.478888 172.032418 188.129827 186.826049 182.974036 206.440245 172.297903 226.338956 163.305647 234.218638 158.354699 262.08493 146.506216 281.967449 134.813969 304.860508 122.835868 328.370017 112.560162 341.353623 105.629066 359.220248 96.9863166 364.31145 95.1346295 372.89895 90.2739509 386.360217 84.2941589 406.05306 74.8945323 422.14667 70.8694275 451.678538 57.099409 483.164034 46.1688129"></polyline>
                                </g>
                            </g>
                        </g>
                        <g id="Group-15" transform="translate(110.000000, 36.878378)">
                            <rect id="light-background" fill="#FFFFFF" x="9" y="0" width="677" height="408"></rect>
                            <g id="Group-2" transform="translate(85.481556, 19.833333)" stroke="#C6C6C6" stroke-linecap="square">
                                <path d="M0.495268153,274.017893 L465.416185,274.017893" id="Line" opacity="0.5"></path>
                                <path d="M0.495268153,101.692923 L465.416185,101.692923" id="Line-Copy-5" opacity="0.5"></path>
                                <path d="M0.495268153,310.431801 L465.416185,310.431801" id="Line-Copy-4" opacity="0.5"></path>
                                <path d="M0.495268153,137.081086 L465.416185,137.081086" id="Line-Copy-6" opacity="0.5"></path>
                                <path d="M0.495268153,206.83167 L465.416185,206.83167" id="Line-Copy" opacity="0.5"></path>
                                <path d="M0.495268153,240.168345 L465.416185,240.168345" id="Line-Copy-2" opacity="0.5"></path>
                                <path d="M0.495268153,67.8433749 L465.416185,67.8433749" id="Line-Copy-8" opacity="0.5"></path>
                                <path d="M0.495268153,34.5066991 L465.416185,34.5066991" id="Line-Copy-8" opacity="0.5"></path>
                                <path d="M0.495268153,172.982122 L465.416185,172.982122" id="Line-Copy-3" opacity="0.5"></path>
                                <path d="M0.495268153,341.204117 L465.416185,341.204117" id="x-axis"></path>
                                <path d="M0.495268153,341.460553 L0.495268153,1.17002328" id="y-axis"></path>
                            </g>
                            <text id="$8k" font-family="HelveticaNeue-Light, Helvetica Neue" font-size="12.1000004" font-weight="300" fill="#4D4D4D">
                                <tspan x="51.2325352" y="365.808273">$8k</tspan>
                            </text>
                            <text id="$12k" font-family="HelveticaNeue-Light, Helvetica Neue" font-size="12.1000004" font-weight="300" fill="#4D4D4D">
                                <tspan x="44.504935" y="239.380744">$12k</tspan>
                            </text>
                            <text id="2011" font-family="HelveticaNeue, Helvetica Neue" font-size="12.1000004" font-weight="normal" fill="#4D4D4D">
                                <tspan x="92.7165786" y="392.210849">2011</tspan>
                            </text>
                            <text id="2014" font-family="HelveticaNeue, Helvetica Neue" font-size="12.1000004" font-weight="normal" fill="#4D4D4D">
                                <tspan x="328.428502" y="391.361719">2014</tspan>
                            </text>
                            <text id="2012" font-family="HelveticaNeue, Helvetica Neue" font-size="12.1000004" font-weight="normal" fill="#4D4D4D">
                                <tspan x="168.694183" y="391.361719">2012</tspan>
                            </text>
                            <text id="2015" font-family="HelveticaNeue, Helvetica Neue" font-size="12.1000004" font-weight="normal" fill="#4D4D4D">
                                <tspan x="412.969809" y="391.361719">2015</tspan>
                            </text>
                            <text id="2016" font-family="HelveticaNeue, Helvetica Neue" font-size="12.1000004" font-weight="normal" fill="#4D4D4D">
                                <tspan x="495.910418" y="391.361719">2016</tspan>
                            </text>
                            <text id="2013" font-family="HelveticaNeue, Helvetica Neue" font-size="12.1000004" font-weight="normal" fill="#4D4D4D">
                                <tspan x="245.223071" y="391.361719">2013</tspan>
                            </text>
                            <text id="$10k" font-family="HelveticaNeue-Light, Helvetica Neue" font-size="12.1000004" font-weight="300" fill="#4D4D4D">
                                <tspan x="44.504935" y="303.565307">$10k</tspan>
                            </text>
                            <text id="$14k" font-family="HelveticaNeue-Light, Helvetica Neue" font-size="12.1000004" font-weight="300" fill="#4D4D4D">
                                <tspan x="44.504935" y="172.68064">$14k</tspan>
                            </text>
                            <text id="$16k" font-family="HelveticaNeue-Light, Helvetica Neue" font-size="12.1000004" font-weight="300" fill="#4D4D4D">
                                <tspan x="44.2654921" y="105.977871">$16k</tspan>
                            </text>
                            <text id="$18k" font-family="HelveticaNeue-Light, Helvetica Neue" font-size="12.1000004" font-weight="300" fill="#4D4D4D">
                                <tspan x="44.2654921" y="44.5494418">$18k</tspan>
                            </text>
                            <g id="Group-17" transform="translate(87.917127, 41.555556)">
                                <g id="Group" transform="translate(0.642908, 0.331007)">
                                    <text id="PROSPER-" font-family="HelveticaNeue, Helvetica Neue" font-size="12" font-weight="normal" letter-spacing="0.480000019" fill="#E20C77">
                                        <tspan x="476.602031" y="49.22951">PROSPER </tspan>
                                        <tspan x="476.602031" y="63.22951">MARKETPLACE</tspan>
                                        <tspan x="476.602031" y="77.22951">INDEX</tspan>
                                        <tspan x="476.602031" y="91.22951" letter-spacing="0.288000017"></tspan>
                                    </text>
                                    <g id="S&amp;P500" transform="translate(7.491273, 0.110136)">
                                        <text id="S&amp;P-500-" font-family="HelveticaNeue, Helvetica Neue" font-size="12" font-weight="normal" fill="#4C4C4C">
                                            <tspan x="470.50014" y="11">S&amp;P 500 </tspan>
                                            <tspan x="470.50014" y="25">(SPY)</tspan>
                                        </text>
                                        <polyline id="Path-324" stroke="#4C4C4C" stroke-width="2" points="0.301828411 251.756377 3.10591476 249.617707 8.71227446 239.711452 15.158729 240.656718 21.5881516 231.236763 27.6836578 234.92493 34.5730933 243.57765 41.475228 249.385908 54.1174384 288.325837 60.5077173 260.229961 71.4110224 261.063212 73.506404 260.090763 85.6729373 231.989225 91.8635903 219.853837 94.7921943 219.65639 98.855367 222.393167 105.646794 244.013318 111.44932 233.926941 117.362106 228.878003 131.202908 212.823812 138.779222 217.594547 145.870501 216.718283 150.859825 214.573548 158.941798 193.904041 163.242074 191.978708 169.219169 179.119394 176.894044 171.458225 183.000066 159.62189 190.203444 168.848521 196.567418 144.572149 202.522132 160.23064 208.724641 149.988069 213.80777 132.805347 221.849861 114.249988 229.666941 104.504897 234.996207 122.174471 241.184722 100.504828 244.081821 97.7312096 250.000882 97.5236065 254.890111 94.6159396 261.439129 84.267856 267.679499 74.7715737 274.165164 82.4011071 281.063187 61.203257 287.46575 70.9669124 300.533029 44.2527709 305.294889 46.740445 313.410696 62.1324245 320.100006 36.5483554 326.693505 46.2926579 338.387587 34.1538682 345.579866 46.9681553 351.951056 36.762815 359.222577 70.9955557 364.893413 83.5710423 370.908447 43.5912443 374.008676 41.0779329 378.129974 41.3452513 384.733846 54.7890905 391.16915 79.6064917 397.7383 79.6429311 403.647726 48.4709571 410.625044 46.9999858 412.426427 43.7649436 417.054728 38.4109423 422.839817 38.3693179 430.387726 17.8637443 437.207576 17.3862269 437.708759 18.6820965 441.530955 19.4278802 449.68523 31.4670016 456.009595 10.6284099"></polyline>
                                    </g>
                                    <g id="Bloomberg" transform="translate(0.334180, 214.776138)">
                                        <text id="BLOOMBERG-" font-family="HelveticaNeue, Helvetica Neue" font-size="12" font-weight="normal" fill="#FE7800">
                                            <tspan x="477.50014" y="11">BLOOMBERG </tspan>
                                            <tspan x="477.50014" y="25">US GOVT. BOND</tspan>
                                            <tspan x="477.50014" y="39">INDEX 1-3 YEAR</tspan>
                                        </text>
                                        <polyline id="Path-323" stroke="#FE7800" stroke-width="2" points="0.330926528 37.6561438 10.4421577 37.0158113 21.2709612 37.8831836 27.1058514 35.27502 42.4085638 34.9734716 53.9455819 32.5462707 72.9277301 32.6276001 79.304688 31.6400659 91.1115593 32.3159141 105.824811 31.6747549 118.027688 32.2382518 124.06627 30.5678995 137.232745 30.5678995 143.30042 31.4782009 149.955376 30.8230546 164.581867 30.9030602 183.510575 29.8220042 192.99676 30.6849866 198.831688 30.5117248 202.455513 29.5032868 209.55296 30.6321959 215.289105 29.029524 223.327408 28.7453866 228.693643 29.3689832 244.655147 29.4711624 248.640232 27.6437117 255.843012 29.6130558 260.0988 27.8893808 275.32927 27.6654535 280.373786 27.9418673 289.624358 27.4841842 297.752089 27.2713164 307.599971 25.1345468 311.855663 27.0654388 318.847562 25.2312999 326.464987 25.3107533 332.494417 24.8705634 349.034961 24.7473708 349.10603 23.5052551 368.742388 23.6166144 368.034488 22.2811006 374.84339 22.4365646 389.466063 24.0576297 400.834434 21.3471002 404.920858 21.7701242 412.30518 20.7474734 424.734847 21.2821485 427.210272 19.0321218 440.499281 19.0832114 440.592909 20.0676839 448.266624 19.2273 457.189446 19.2380767 463.412624 20.5310825"></polyline>
                                    </g>
                                    <polyline id="Path-325" stroke="#E20C77" stroke-width="4" points="7.63481103 251.905309 14.7105958 251.363322 20.7052427 245.668841 39.5479037 233.137484 45.8379589 226.906236 52.2221639 223.139724 65.0953023 218.926172 71.6182251 218.81001 84.8128163 212.064257 91.2795347 210.789807 97.3580172 207.09762 103.294746 204.874439 115.343809 197.659481 121.517499 195.448323 129.300199 190.869705 136.989808 187.942625 147.417166 182.730061 159.398526 177.67817 172.929655 172.808812 190.869959 162.725797 209.070497 154.233111 216.27772 149.557216 241.765878 138.366982 259.951606 127.324304 280.890952 116.011654 302.394139 106.30682 314.269713 99.7607847 330.611585 91.5981879 335.268299 89.8493723 343.122934 85.2587314 355.435405 79.6111501 373.447643 70.7337249 388.167811 66.9322371 415.179404 53.9272196 443.977901 43.6038788 463.496133 37.262661"></polyline>
                                </g>
                            </g>
                        </g>
                    </g>
                </g>
            </g>
        </g>
    </g>
</svg>