<?xml version="1.0" standalone="no"?>
<!DOCTYPE svg PUBLIC "-//W3C//DTD SVG 20010904//EN"
 "http://www.w3.org/TR/2001/REC-SVG-20010904/DTD/svg10.dtd">
<svg version="1.0" xmlns="http://www.w3.org/2000/svg"
 width="256.000000pt" height="256.000000pt" viewBox="0 0 256.000000 256.000000"
 preserveAspectRatio="xMidYMid meet">
<metadata>
Created by potrace 1.15, written by Peter Selinger 2001-2017
</metadata>
<g transform="translate(0.000000,256.000000) scale(0.100000,-0.100000)"
fill="#000000" stroke="none">
<path d="M355 2310 l-120 -5 -3 -129 c-3 -138 -1 -144 46 -142 27 1 27 1 32
96 l5 95 92 3 c81 2 93 5 98 22 8 25 -2 57 -18 62 -7 1 -66 1 -132 -2z"/>
<path d="M2108 2297 c-5 -10 -8 -28 -6 -40 3 -21 9 -22 95 -25 107 -3 101 4
105 -122 3 -72 4 -75 29 -78 44 -5 50 14 47 149 l-3 124 -129 5 c-116 5 -129
3 -138 -13z"/>
<path d="M437 2113 c-16 -4 -17 -52 -15 -876 l3 -872 878 -3 877 -2 -2 877 -3
878 -860 1 c-473 1 -868 0 -878 -3z m1649 -97 c12 -12 14 -131 14 -784 0 -687
-2 -771 -16 -776 -20 -8 -1555 -8 -1563 0 -8 7 -14 1499 -6 1542 l6 32 775 0
c659 0 778 -2 790 -14z"/>
<path d="M240 436 c-6 -6 -10 -66 -10 -137 0 -106 3 -128 16 -133 9 -3 67 -6
130 -6 113 0 115 0 126 26 22 47 3 59 -100 62 l-91 3 -3 97 -3 97 -28 0 c-15
1 -32 -4 -37 -9z"/>
<path d="M2305 437 c-3 -7 -6 -50 -7 -97 l-3 -85 -92 -3 c-91 -3 -93 -3 -99
-29 -13 -51 2 -58 131 -61 78 -2 122 1 131 9 19 15 20 254 2 265 -21 13 -59
13 -63 1z"/>
</g>
</svg>
