<?xml version="1.0" encoding="utf-8"?>
<!-- Generator: Adobe Illustrator 16.0.0, SVG Export Plug-In . SVG Version: 6.00 Build 0)  -->
<!DOCTYPE svg PUBLIC "-//W3C//DTD SVG 1.1//EN" "http://www.w3.org/Graphics/SVG/1.1/DTD/svg11.dtd">
<svg version="1.1" id="Layer_1" xmlns="http://www.w3.org/2000/svg" xmlns:xlink="http://www.w3.org/1999/xlink" x="0px" y="0px"
	 width="28px" height="30px" viewBox="0 0 28 30" enable-background="new 0 0 28 30" xml:space="preserve">
<image overflow="visible" width="28" height="30" xlink:href="transportnew.png" >
</image>
<g>
	<g>
		<path fill="#FFFFFF" d="M17.961,18.545h0.853c0.261,0,0.472-0.212,0.472-0.472V8.962c0-0.654-0.527-1.182-1.181-1.182h-2.596
			V7.105h-3.017V7.78H9.896c-0.653,0-1.182,0.528-1.182,1.182v9.111c0,0.26,0.212,0.472,0.473,0.472h0.853l-3.418,2.631h2.197
			l2.678-2.631h5.007l2.679,2.631h2.194L17.961,18.545z M16.504,17.055c0-0.399,0.324-0.725,0.724-0.725
			c0.401,0,0.726,0.325,0.726,0.725s-0.324,0.724-0.726,0.724C16.828,17.778,16.504,17.454,16.504,17.055L16.504,17.055z
			 M10.822,17.778c-0.4,0-0.724-0.324-0.724-0.724s0.324-0.725,0.724-0.725c0.4,0,0.725,0.325,0.725,0.725
			S11.223,17.778,10.822,17.778L10.822,17.778z M10.127,14.033c-0.131,0-0.237-0.105-0.237-0.236V9.218
			c0-0.13,0.106-0.236,0.237-0.236h7.747c0.13,0,0.236,0.106,0.236,0.236v4.578c0,0.131-0.106,0.236-0.236,0.236H10.127z
			 M10.127,14.033"/>
	</g>
</g>
</svg>
