<?xml version="1.0" encoding="utf-8"?>
<!-- Generator: Adobe Illustrator 23.0.2, SVG Export Plug-In . SVG Version: 6.00 Build 0)  -->
<svg version="1.1" id="Layer_1" xmlns="http://www.w3.org/2000/svg" xmlns:xlink="http://www.w3.org/1999/xlink" x="0px" y="0px"
	 width="32px" height="32px" viewBox="0 0 32 32" style="enable-background:new 0 0 32 32;" xml:space="preserve">
<style type="text/css">
	.st0{fill:none;}
	.st1{fill:#952625;}
</style>
<rect y="0" class="st0" width="32" height="32"/>
<g>
	<g>
		<path class="st1" d="M15.86,26.48c-2.33,0-4.67-0.99-6.56-2.85l0.7-0.71c2.26,2.21,5.2,3.06,7.88,2.27
			c1.96-0.58,3.35-1.94,3.73-3.64c0.85-3.8-5.76-5.71-5.82-5.73c-2.85-0.79-5.02-2.79-5.4-4.98c-0.29-1.66,0.47-3.21,2.14-4.38
			c4.27-3,9.14,0.57,9.35,0.73l-0.6,0.8c-0.04-0.03-4.5-3.29-8.17-0.71c-1.35,0.95-1.95,2.12-1.73,3.39
			c0.31,1.79,2.24,3.51,4.68,4.19c0.31,0.09,7.58,2.19,6.53,6.91c-0.46,2.06-2.11,3.7-4.42,4.39
			C17.42,26.37,16.64,26.48,15.86,26.48z"/>
	</g>
	<g>
		<rect x="15.42" y="2.26" class="st1" width="1" height="27.47"/>
	</g>
</g>
</svg>
