<?xml version="1.0" encoding="utf-8"?>
<!-- Generator: Adobe Illustrator 23.0.2, SVG Export Plug-In . SVG Version: 6.00 Build 0)  -->
<svg version="1.1" id="Layer_1" xmlns="http://www.w3.org/2000/svg" xmlns:xlink="http://www.w3.org/1999/xlink" x="0px" y="0px"
	 width="32px" height="32px" viewBox="0 0 32 32" style="enable-background:new 0 0 32 32;" xml:space="preserve">
<style type="text/css">
	.st0{fill:none;}
	.st1{fill:#952625;}
</style>
<rect y="0" class="st0" width="32" height="32"/>
<g>
	<g>
		<path class="st1" d="M16,8.23c-0.78,0-1.42-0.64-1.42-1.42c0-0.78,0.64-1.42,1.42-1.42c0.78,0,1.42,0.64,1.42,1.42
			C17.42,7.6,16.78,8.23,16,8.23z M15.99,6.81C15.99,6.81,16,6.82,15.99,6.81h0.71H15.99z"/>
	</g>
	<g>
		<path class="st1" d="M16,17.42c-0.78,0-1.42-0.64-1.42-1.42c0-0.79,0.64-1.42,1.42-1.42c0.78,0,1.42,0.64,1.42,1.42
			C17.42,16.78,16.78,17.42,16,17.42z M15.99,16C15.99,16,16,16,15.99,16h0.71H15.99z"/>
	</g>
	<g>
		<path class="st1" d="M16,26.61c-0.78,0-1.42-0.64-1.42-1.42c0-0.78,0.64-1.42,1.42-1.42c0.78,0,1.42,0.64,1.42,1.42
			C17.42,25.97,16.78,26.61,16,26.61z M15.99,25.19C15.99,25.19,16,25.19,15.99,25.19h0.71H15.99z"/>
	</g>
</g>
</svg>
