<?xml version="1.0" standalone="no"?>
<!DOCTYPE svg PUBLIC "-//W3C//DTD SVG 20010904//EN"
 "http://www.w3.org/TR/2001/REC-SVG-20010904/DTD/svg10.dtd">
<svg version="1.0" xmlns="http://www.w3.org/2000/svg"
 width="103.000000pt" height="91.000000pt" viewBox="0 0 103.000000 91.000000"
 preserveAspectRatio="xMidYMid meet">
<metadata>
Created by potrace 1.15, written by Peter Selinger 2001-2017
</metadata>
<g transform="translate(0.000000,91.000000) scale(0.100000,-0.100000)"
fill="#000000" stroke="none">
<path d="M530 790 l0 -30 -75 0 -75 0 0 -29 c0 -16 6 -31 13 -34 8 -3 11 -20
9 -48 l-4 -44 -42 3 c-37 3 -46 0 -65 -24 -13 -16 -21 -39 -19 -53 3 -22 -1
-26 -27 -29 -54 -6 -64 -24 -79 -139 -2 -18 -7 -37 -11 -43 -11 -19 14 -65 45
-84 25 -14 30 -23 30 -57 0 -39 0 -39 -40 -39 -38 0 -40 -2 -40 -30 l0 -30
365 0 365 0 0 30 c0 17 -4 30 -10 30 -5 0 -10 11 -10 25 0 14 -4 25 -10 25 -6
0 -10 92 -10 255 0 163 4 255 10 255 6 0 10 13 10 30 l0 29 -72 3 c-72 3 -73
4 -76 31 -3 26 -6 28 -40 25 -32 -3 -37 -7 -40 -30 -4 -38 -22 -36 -22 2 0 28
-2 30 -40 30 -38 0 -40 -2 -40 -30z m290 -345 l0 -255 -45 0 -44 0 -3 92 -3
93 -102 3 -102 3 -3 -93 -3 -93 -47 -3 -48 -3 0 41 c0 26 8 51 21 69 17 23 20
37 15 68 -4 21 -8 52 -11 68 -2 17 -8 59 -14 95 -12 74 -14 154 -4 163 3 4 93
7 200 7 l193 0 0 -255z m-425 131 c12 -8 18 -25 17 -47 0 -18 4 -39 10 -46 6
-7 8 -25 5 -39 -2 -14 0 -38 6 -53 18 -49 -12 -111 -54 -111 -23 0 -26 32 -4
50 8 7 15 19 15 27 0 13 -3 13 -15 3 -13 -10 -15 -9 -15 9 0 11 -4 21 -10 21
-5 0 -10 -7 -10 -16 0 -10 -6 -14 -15 -10 -8 3 -15 2 -15 -3 0 -5 7 -14 15
-21 20 -17 20 -60 0 -60 -27 0 -65 47 -65 79 0 16 4 32 9 35 4 3 11 40 15 83
5 49 13 84 23 95 19 21 62 23 88 4z m-135 -123 c0 -15 -5 -41 -11 -58 -14 -39
-6 -78 22 -104 22 -20 18 -41 -7 -41 -8 0 -14 9 -14 20 0 11 -4 20 -10 20 -5
0 -10 -9 -10 -20 0 -28 -26 -25 -46 5 -10 16 -13 32 -8 47 4 13 9 34 10 48 3
27 13 78 19 98 3 6 16 12 30 12 20 0 25 -5 25 -27z"/>
</g>
</svg>
