<?xml version="1.0" standalone="no"?>
<!DOCTYPE svg PUBLIC "-//W3C//DTD SVG 20010904//EN"
 "http://www.w3.org/TR/2001/REC-SVG-20010904/DTD/svg10.dtd">
<svg version="1.0" xmlns="http://www.w3.org/2000/svg"
 width="103.000000pt" height="91.000000pt" viewBox="0 0 103.000000 91.000000"
 preserveAspectRatio="xMidYMid meet">
<metadata>
Created by potrace 1.15, written by Peter Selinger 2001-2017
</metadata>
<g transform="translate(0.000000,91.000000) scale(0.100000,-0.100000)"
fill="#000000" stroke="none">
<path d="M550 801 c0 -14 -8 -21 -27 -23 -28 -3 -28 -4 -29 -76 -1 -40 -4 -76
-8 -79 -3 -4 -6 -1 -6 5 0 8 -32 12 -105 12 -58 0 -105 -4 -105 -9 0 -5 -9
-11 -20 -14 -19 -5 -20 -14 -20 -246 l0 -241 -30 0 c-28 0 -30 -3 -30 -35 l0
-35 343 2 342 3 3 24 c2 15 -3 30 -12 36 -14 10 -16 54 -18 331 l-3 319 -27 3
c-20 2 -28 9 -28 23 0 18 -8 19 -110 19 -102 0 -110 -1 -110 -19z m208 -18 c3
-18 10 -23 33 -23 l29 0 0 -325 c0 -210 4 -325 10 -325 6 0 10 -7 10 -15 0
-13 -43 -15 -330 -15 -287 0 -330 2 -330 15 0 13 22 15 135 15 160 0 186 18
33 22 l-103 3 -3 224 -2 223 25 24 c23 22 35 24 113 24 118 -1 119 -2 119
-178 1 -73 3 -136 7 -139 3 -4 6 96 6 220 l0 227 25 0 c18 0 25 5 25 18 0 30
10 33 105 30 85 -3 90 -4 93 -25z"/>
</g>
</svg>
