<?xml version="1.0" standalone="no"?>
<!DOCTYPE svg PUBLIC "-//W3C//DTD SVG 20010904//EN"
 "http://www.w3.org/TR/2001/REC-SVG-20010904/DTD/svg10.dtd">
<svg version="1.0" xmlns="http://www.w3.org/2000/svg"
 width="103.000000pt" height="91.000000pt" viewBox="0 0 103.000000 91.000000"
 preserveAspectRatio="xMidYMid meet">
<metadata>
Created by potrace 1.15, written by Peter Selinger 2001-2017
</metadata>
<g transform="translate(0.000000,91.000000) scale(0.100000,-0.100000)"
fill="#000000" stroke="none">
<path d="M338 697 l-167 -102 -1 -42 c0 -31 4 -43 14 -43 8 0 18 5 21 10 19
32 25 -5 25 -165 0 -149 -2 -175 -15 -175 -11 0 -15 -11 -15 -40 l0 -40 315 0
315 0 0 40 c0 29 -4 40 -15 40 -13 0 -15 26 -15 175 0 160 6 197 25 165 3 -5
13 -10 21 -10 10 0 14 12 14 43 0 39 -3 44 -40 65 l-40 23 0 80 0 80 -52 -3
-53 -3 -5 -43 -5 -42 -73 45 c-39 25 -75 45 -80 44 -4 0 -82 -46 -174 -102z
m350 -21 c138 -83 162 -101 162 -122 0 -13 -2 -24 -5 -24 -3 0 -60 33 -128 73
-67 41 -140 84 -163 96 l-41 23 -149 -87 c-82 -48 -153 -91 -158 -96 -17 -15
-26 -10 -26 16 0 20 15 33 83 74 45 27 120 72 166 100 46 28 86 49 90 47 3 -2
79 -47 169 -100z m-38 -53 l130 -76 0 -184 0 -183 -145 0 -145 0 0 150 0 151
-82 -3 -83 -3 -3 -147 -3 -148 -34 0 -35 0 0 184 0 183 128 76 c70 41 131 76
135 76 4 1 66 -34 137 -76z m-180 -298 l0 -145 -65 0 -65 0 0 145 0 145 65 0
65 0 0 -145z m340 -185 c0 -20 -7 -20 -300 -20 -293 0 -300 0 -300 20 0 20 7
20 300 20 293 0 300 0 300 -20z"/>
<path d="M567 484 c-4 -4 -7 -43 -7 -86 l0 -78 80 0 81 0 -3 83 -3 82 -70 3
c-39 1 -74 0 -78 -4z"/>
</g>
</svg>
