<?xml version="1.0" standalone="no"?>
<!DOCTYPE svg PUBLIC "-//W3C//DTD SVG 20010904//EN"
 "http://www.w3.org/TR/2001/REC-SVG-20010904/DTD/svg10.dtd">
<svg version="1.0" xmlns="http://www.w3.org/2000/svg"
 width="103.000000pt" height="91.000000pt" viewBox="0 0 103.000000 91.000000"
 preserveAspectRatio="xMidYMid meet">
<metadata>
Created by potrace 1.15, written by Peter Selinger 2001-2017
</metadata>
<g transform="translate(0.000000,91.000000) scale(0.100000,-0.100000)"
fill="#000000" stroke="none">
<path d="M358 683 c-70 -70 -128 -132 -128 -139 0 -6 7 -15 16 -18 12 -4 45
22 114 89 84 83 99 94 110 80 17 -20 69 -19 92 2 18 16 25 10 153 -118 l135
-134 -392 -5 -393 -5 -3 -177 -2 -178 455 0 455 0 0 180 0 180 -28 0 c-22 0
-61 34 -212 185 -156 156 -189 185 -214 185 -24 0 -52 -23 -158 -127z m572
-428 l0 -135 -415 0 -415 0 0 135 0 135 415 0 415 0 0 -135z"/>
<path d="M135 347 c-3 -7 -5 -52 -3 -98 3 -78 4 -84 26 -87 19 -3 22 1 22 32
0 31 3 36 24 36 21 0 25 -6 28 -32 2 -26 8 -34 26 -36 23 -3 23 -3 20 95 -3
90 -5 98 -23 98 -16 0 -21 -8 -23 -37 -3 -32 -7 -38 -27 -38 -20 0 -24 6 -27
37 -3 39 -32 59 -43 30z"/>
<path d="M324 326 c-45 -45 -46 -91 -5 -135 71 -76 203 -3 171 95 -26 78 -108
98 -166 40z"/>
<path d="M634 347 c-3 -8 -4 -52 -2 -98 l3 -84 63 -3 c38 -2 69 2 78 9 10 8
14 8 14 0 0 -7 21 -11 55 -11 48 0 55 2 55 20 0 16 -7 20 -35 20 l-35 0 0 75
c0 59 -3 77 -15 82 -25 9 -30 -4 -33 -85 l-4 -77 -49 3 c-34 3 -49 8 -49 18 0
8 10 14 23 14 31 0 51 15 44 34 -4 10 -18 16 -37 16 -20 0 -30 5 -30 15 0 11
11 15 39 15 39 0 68 20 56 40 -10 16 -134 13 -141 -3z"/>
</g>
</svg>
