<?xml version="1.0" standalone="no"?>
<!DOCTYPE svg PUBLIC "-//W3C//DTD SVG 20010904//EN"
 "http://www.w3.org/TR/2001/REC-SVG-20010904/DTD/svg10.dtd">
<svg version="1.0" xmlns="http://www.w3.org/2000/svg"
 width="103.000000pt" height="91.000000pt" viewBox="0 0 103.000000 91.000000"
 preserveAspectRatio="xMidYMid meet">
<metadata>
Created by potrace 1.15, written by Peter Selinger 2001-2017
</metadata>
<g transform="translate(0.000000,91.000000) scale(0.100000,-0.100000)"
fill="#000000" stroke="none">
<path d="M258 803 c-30 -35 -108 -186 -108 -208 0 -24 42 -65 66 -65 11 0 14
-21 14 -95 0 -95 0 -95 -25 -95 -27 0 -34 -15 -10 -24 12 -4 15 -26 15 -106 0
-60 4 -100 10 -100 6 0 10 -13 10 -30 l0 -30 300 0 300 0 0 30 c0 17 5 30 10
30 6 0 10 40 10 100 0 80 3 102 15 106 24 9 17 24 -10 24 -25 0 -25 0 -25 95
0 80 2 95 16 95 20 0 74 57 74 77 0 9 -6 21 -14 27 -8 6 -31 43 -51 81 -62
115 -31 105 -325 105 -232 0 -258 -2 -272 -17z m60 -270 c12 -3 29 0 37 7 13
11 20 10 41 0 20 -11 32 -11 55 -3 23 9 37 9 55 1 17 -8 31 -8 48 0 18 8 32 8
55 -1 23 -8 35 -8 55 3 21 10 28 11 41 0 14 -12 41 -10 78 5 16 7 17 -2 17
-99 l0 -106 -270 0 -270 0 0 106 c0 97 1 106 18 99 9 -4 27 -10 40 -12z m512
-308 l0 -95 -300 0 -300 0 0 95 0 95 300 0 300 0 0 -95z m-32 -132 c3 -10 -55
-13 -267 -13 -236 0 -271 2 -271 15 0 13 34 15 267 13 202 -2 267 -6 271 -15z"/>
<path d="M413 274 c-3 -8 2 -23 10 -32 15 -15 15 -17 1 -34 -9 -9 -14 -24 -10
-33 5 -13 23 -15 117 -13 98 3 112 5 115 20 1 10 -5 22 -14 27 -14 8 -15 12
-4 22 6 7 12 23 12 36 0 23 -2 23 -110 23 -92 0 -112 -3 -117 -16z"/>
</g>
</svg>
