<?xml version="1.0" standalone="no"?>
<!DOCTYPE svg PUBLIC "-//W3C//DTD SVG 20010904//EN"
 "http://www.w3.org/TR/2001/REC-SVG-20010904/DTD/svg10.dtd">
<svg version="1.0" xmlns="http://www.w3.org/2000/svg"
 width="103.000000pt" height="91.000000pt" viewBox="0 0 103.000000 91.000000"
 preserveAspectRatio="xMidYMid meet">
<metadata>
Created by potrace 1.15, written by Peter Selinger 2001-2017
</metadata>
<g transform="translate(0.000000,91.000000) scale(0.100000,-0.100000)"
fill="#000000" stroke="none">
<path d="M423 823 c-53 -18 -99 -70 -113 -125 -6 -24 -14 -50 -19 -58 -4 -8
-9 -44 -9 -80 -1 -56 3 -71 29 -109 16 -25 28 -51 27 -58 -2 -7 -34 -32 -72
-55 -88 -55 -108 -88 -104 -178 l3 -65 303 -3 302 -2 12 25 c10 22 18 25 58
25 61 0 75 15 66 77 -9 64 -26 87 -107 139 -38 25 -69 49 -69 53 0 5 12 26 27
47 30 44 32 84 11 167 -16 63 -53 103 -104 113 -25 4 -48 17 -64 36 -14 15
-50 37 -80 48 -30 11 -55 19 -55 19 0 -1 -19 -8 -42 -16z m65 -66 c4 -60 22
-61 22 -2 0 25 4 45 10 45 22 0 80 -64 90 -98 14 -53 13 -59 -15 -66 -39 -10
-31 -30 10 -23 25 4 35 2 35 -7 0 -17 -68 -26 -184 -25 -102 2 -152 10 -148
24 1 5 18 8 37 6 40 -3 47 14 10 23 -20 5 -25 13 -25 39 0 42 31 92 70 112
l30 16 0 -66 c0 -37 4 -65 10 -65 6 0 10 15 10 33 0 100 32 145 38 54z m221
-68 c11 -11 23 -32 27 -47 3 -15 9 -37 14 -49 8 -19 6 -22 -22 -25 -43 -4 -50
-28 -9 -28 19 0 34 -6 37 -15 7 -17 -27 -76 -70 -124 l-31 -33 32 7 c27 5 42
-1 101 -40 75 -50 92 -75 92 -135 l0 -40 -46 0 c-45 0 -46 0 -39 29 4 21 1 35
-12 49 -10 11 -26 32 -36 46 -9 14 -47 42 -82 61 -36 20 -65 40 -65 43 0 4 11
25 25 47 38 62 46 86 39 109 -4 11 -6 38 -5 59 1 20 -2 37 -7 37 -9 0 -22 66
-15 74 8 8 53 -8 72 -25z m-69 -175 c0 -10 -7 -25 -15 -34 -8 -9 -25 -36 -38
-61 -27 -51 -78 -89 -118 -89 -36 0 -101 57 -120 103 -7 17 -21 40 -31 50 -24
24 -23 51 5 65 12 7 78 13 152 14 111 3 133 1 148 -14 9 -9 17 -25 17 -34z
m-244 -179 c24 -16 51 -25 77 -25 27 0 51 8 73 25 18 14 35 25 38 25 3 0 6
-29 6 -65 l0 -66 -117 3 -118 3 -3 63 c-2 34 -1 62 2 62 3 0 22 -11 42 -25z
m-132 -113 c10 -17 397 -17 414 0 7 7 12 27 12 45 0 41 20 36 50 -13 16 -25
20 -46 18 -86 l-3 -53 -285 0 -285 0 -3 29 c-6 48 7 93 36 128 l27 32 6 -35
c3 -19 9 -40 13 -47z"/>
</g>
</svg>
