<?xml version="1.0" standalone="no"?>
<!DOCTYPE svg PUBLIC "-//W3C//DTD SVG 20010904//EN"
 "http://www.w3.org/TR/2001/REC-SVG-20010904/DTD/svg10.dtd">
<svg version="1.0" xmlns="http://www.w3.org/2000/svg"
 width="103.000000pt" height="91.000000pt" viewBox="0 0 103.000000 91.000000"
 preserveAspectRatio="xMidYMid meet">
<metadata>
Created by potrace 1.15, written by Peter Selinger 2001-2017
</metadata>
<g transform="translate(0.000000,91.000000) scale(0.100000,-0.100000)"
fill="#000000" stroke="none">
<path d="M72 448 c-23 -101 -45 -193 -48 -205 l-6 -23 496 0 c372 0 496 3 496
12 0 6 -19 98 -42 205 l-42 193 -406 0 -406 0 -42 -182z m571 140 c3 -13 9
-58 12 -100 l7 -78 -179 0 -180 0 -2 54 c-1 53 0 55 26 59 27 4 27 4 -2 3 -29
-1 -30 -2 -33 -58 l-3 -58 -99 0 c-84 0 -100 3 -100 16 0 14 27 145 35 172 3
9 64 12 259 12 l254 0 5 -22z m308 -158 c21 -96 39 -178 39 -182 0 -5 -65 -8
-145 -8 -80 0 -145 3 -145 8 0 4 -9 84 -20 177 -11 94 -20 174 -20 178 0 4 57
6 127 5 l126 -3 38 -175z m-665 -45 c6 -14 8 -13 20 2 13 17 13 17 14 -3 0
-12 -3 -49 -6 -83 l-7 -61 -128 0 c-105 0 -129 3 -129 14 0 26 23 121 33 134
15 19 196 17 203 -3z m384 -24 c0 -15 3 -49 6 -75 l7 -46 -177 0 c-201 0 -182
-10 -170 98 l7 52 163 0 164 0 0 -29z"/>
</g>
</svg>
