<?xml version="1.0" standalone="no"?>
<!DOCTYPE svg PUBLIC "-//W3C//DTD SVG 20010904//EN"
 "http://www.w3.org/TR/2001/REC-SVG-20010904/DTD/svg10.dtd">
<svg version="1.0" xmlns="http://www.w3.org/2000/svg"
 width="103.000000pt" height="91.000000pt" viewBox="0 0 103.000000 91.000000"
 preserveAspectRatio="xMidYMid meet">
<metadata>
Created by potrace 1.15, written by Peter Selinger 2001-2017
</metadata>
<g transform="translate(0.000000,91.000000) scale(0.100000,-0.100000)"
fill="#000000" stroke="none">
<path d="M392 714 c-12 -8 -22 -22 -22 -30 0 -8 -5 -14 -11 -14 -7 0 -10 -19
-7 -53 2 -36 -2 -60 -11 -70 -12 -15 -11 -17 4 -17 17 0 18 -11 12 -161 -5
-153 -4 -162 16 -185 20 -23 26 -24 142 -24 116 0 122 1 142 24 20 23 21 32
16 185 -5 145 -4 161 11 161 19 0 21 16 3 23 -10 4 -13 20 -9 61 3 38 1 56 -7
56 -6 0 -11 6 -11 14 0 33 -41 46 -145 46 -75 0 -106 -4 -123 -16z m188 -18
c8 -3 24 -4 35 -3 18 2 20 -5 23 -84 2 -75 0 -87 -18 -104 -31 -28 -29 -123 3
-153 24 -23 24 -23 11 -129 -5 -37 -9 -43 -29 -43 -13 0 -27 5 -30 10 -8 13
-115 13 -115 0 0 -14 -43 -13 -58 2 -7 7 -12 41 -12 83 0 59 3 72 20 83 29 18
29 121 0 147 -18 17 -20 29 -18 104 l3 86 27 -3 c14 -1 29 1 31 5 6 9 103 8
127 -1z"/>
<path d="M410 601 c0 -5 7 -25 15 -45 l15 -36 76 0 75 0 15 35 c7 19 14 39 14
45 0 6 -39 10 -105 10 -58 0 -105 -4 -105 -9z"/>
<path d="M414 296 c-3 -19 -3 -39 1 -45 4 -7 46 -11 106 -11 107 0 105 -1 93
59 l-6 31 -94 0 -93 0 -7 -34z"/>
</g>
</svg>
