<?xml version="1.0" standalone="no"?>
<!DOCTYPE svg PUBLIC "-//W3C//DTD SVG 20010904//EN"
 "http://www.w3.org/TR/2001/REC-SVG-20010904/DTD/svg10.dtd">
<svg version="1.0" xmlns="http://www.w3.org/2000/svg"
 width="103.000000pt" height="91.000000pt" viewBox="0 0 103.000000 91.000000"
 preserveAspectRatio="xMidYMid meet">
<metadata>
Created by potrace 1.15, written by Peter Selinger 2001-2017
</metadata>
<g transform="translate(0.000000,91.000000) scale(0.100000,-0.100000)"
fill="#000000" stroke="none">
<path d="M228 749 c-21 -12 -26 -107 -6 -127 7 -7 36 -12 65 -12 40 0 53 -4
53 -15 0 -12 -13 -15 -59 -15 -35 0 -63 -5 -69 -13 -13 -15 -50 -226 -58 -328
-3 -44 -1 -80 5 -89 9 -13 60 -15 361 -15 384 0 369 -2 370 60 0 49 -52 359
-62 373 -6 6 -21 12 -34 12 -21 0 -24 5 -24 34 0 44 -20 59 -77 58 -51 0 -63
-11 -63 -60 l0 -33 -87 3 c-98 3 -120 21 -33 26 30 2 60 8 67 14 17 13 17 110
1 126 -15 15 -325 16 -350 1z m342 -64 l0 -55 -170 0 -170 0 0 55 0 55 170 0
170 0 0 -55z m178 -80 l3 -51 34 4 c19 2 35 0 35 -4 0 -5 9 -61 20 -124 29
-169 36 -260 19 -271 -18 -11 -660 -11 -678 0 -11 7 -12 26 -8 87 6 72 29 236
42 292 5 22 6 22 214 22 228 0 221 -2 221 59 0 37 7 42 55 39 l40 -3 3 -50z"/>
</g>
</svg>
