<?xml version="1.0" standalone="no"?>
<!DOCTYPE svg PUBLIC "-//W3C//DTD SVG 20010904//EN"
 "http://www.w3.org/TR/2001/REC-SVG-20010904/DTD/svg10.dtd">
<svg version="1.0" xmlns="http://www.w3.org/2000/svg"
 width="103.000000pt" height="91.000000pt" viewBox="0 0 103.000000 91.000000"
 preserveAspectRatio="xMidYMid meet">
<metadata>
Created by potrace 1.15, written by Peter Selinger 2001-2017
</metadata>
<g transform="translate(0.000000,91.000000) scale(0.100000,-0.100000)"
fill="#000000" stroke="none">
<path d="M115 737 c-3 -7 -4 -152 -3 -322 l3 -310 23 -3 c21 -3 22 0 22 57 l0
61 265 0 265 0 0 -61 c0 -57 1 -60 23 -57 14 2 23 11 25 26 3 22 7 23 80 20
71 -3 77 -5 80 -25 3 -17 10 -23 28 -23 l24 0 0 325 0 325 -25 0 c-24 0 -25
-3 -25 -60 l0 -60 -80 0 -80 0 0 60 c0 57 -1 60 -25 60 -24 0 -25 -3 -25 -60
l0 -60 -147 0 -148 1 28 20 c15 11 27 24 27 29 0 15 -103 60 -137 60 -38 0
-98 -23 -126 -48 -18 -16 -18 -17 10 -39 l28 -23 -32 0 -33 0 0 60 c0 54 -2
60 -20 60 -11 0 -23 -6 -25 -13z m283 -37 c17 -11 32 -22 32 -25 0 -13 -84
-45 -120 -45 -36 0 -120 32 -120 45 0 3 15 14 33 25 21 14 50 20 87 20 37 0
66 -6 88 -20z m292 -110 l0 -30 -265 0 -265 0 0 30 0 30 265 0 265 0 0 -30z
m-2 -162 l3 -118 -153 0 -153 0 30 20 c40 26 38 40 -10 67 -52 29 -131 31
-185 3 -53 -27 -57 -38 -24 -66 l29 -23 -32 -1 -33 0 0 113 c0 63 3 117 7 120
4 4 122 6 262 5 l256 -3 3 -117z m-301 -39 c24 -11 43 -24 43 -29 0 -17 -77
-44 -126 -43 -49 0 -114 26 -114 46 0 14 83 47 119 47 19 0 54 -9 78 -21z
m303 -119 l0 -30 -265 0 -265 0 0 30 0 30 265 0 265 0 0 -30z"/>
</g>
</svg>
