<?xml version="1.0" standalone="no"?>
<!DOCTYPE svg PUBLIC "-//W3C//DTD SVG 20010904//EN"
 "http://www.w3.org/TR/2001/REC-SVG-20010904/DTD/svg10.dtd">
<svg version="1.0" xmlns="http://www.w3.org/2000/svg"
 width="103.000000pt" height="91.000000pt" viewBox="0 0 103.000000 91.000000"
 preserveAspectRatio="xMidYMid meet">
<metadata>
Created by potrace 1.15, written by Peter Selinger 2001-2017
</metadata>
<g transform="translate(0.000000,91.000000) scale(0.100000,-0.100000)"
fill="#000000" stroke="none">
<path d="M527 699 c-5 -9 -7 -71 -5 -138 l3 -122 -25 3 c-23 3 -25 7 -30 73
l-5 70 -97 3 -98 3 0 -64 c0 -71 -8 -83 -55 -89 l-30 -3 -3 -163 c-2 -110 1
-161 8 -157 6 4 10 58 10 136 l0 129 335 0 335 0 0 -129 c0 -78 4 -132 10
-136 7 -4 10 47 8 157 l-3 163 -30 3 c-47 6 -55 18 -55 88 l0 64 -95 0 -95 0
0 -63 c0 -68 -10 -87 -47 -87 -22 0 -22 2 -25 138 -2 78 -6 130 -11 121z m-82
-184 l0 -50 -82 -3 c-79 -3 -83 -2 -83 19 0 11 11 30 25 41 14 11 25 24 25 30
0 6 -8 4 -18 -5 -24 -22 -32 -21 -32 3 0 20 5 21 83 18 l82 -3 0 -50z m343 -2
l3 -53 -85 0 -86 0 0 48 c0 27 3 52 7 56 4 4 41 5 83 4 l75 -3 3 -52z"/>
<path d="M278 329 c-24 -13 -23 -46 1 -59 11 -5 36 -10 55 -10 l36 0 0 -49 c0
-48 -1 -49 -40 -65 -22 -9 -40 -20 -40 -26 0 -6 16 -3 38 6 46 20 48 20 95 0
21 -9 37 -12 37 -6 0 6 -18 17 -40 26 -39 16 -40 17 -40 65 l0 49 36 0 c45 0
74 15 74 40 0 11 -9 24 -19 30 -25 13 -171 13 -193 -1z"/>
<path d="M608 329 c-24 -13 -23 -46 1 -59 11 -5 36 -10 55 -10 l36 0 0 -49 c0
-48 -1 -49 -40 -65 -22 -9 -40 -20 -40 -26 0 -6 16 -3 38 6 46 20 48 20 95 0
20 -9 37 -12 37 -7 0 5 -17 18 -37 28 -35 17 -38 22 -41 66 l-3 47 36 0 c46 0
75 15 75 40 0 11 -9 24 -19 30 -25 13 -171 13 -193 -1z"/>
</g>
</svg>
