<?xml version="1.0" standalone="no"?>
<!DOCTYPE svg PUBLIC "-//W3C//DTD SVG 20010904//EN"
 "http://www.w3.org/TR/2001/REC-SVG-20010904/DTD/svg10.dtd">
<svg version="1.0" xmlns="http://www.w3.org/2000/svg"
 width="103.000000pt" height="91.000000pt" viewBox="0 0 103.000000 91.000000"
 preserveAspectRatio="xMidYMid meet">
<metadata>
Created by potrace 1.15, written by Peter Selinger 2001-2017
</metadata>
<g transform="translate(0.000000,91.000000) scale(0.100000,-0.100000)"
fill="#000000" stroke="none">
<path d="M326 662 c-104 -65 -191 -123 -194 -130 -2 -7 6 -12 22 -12 l26 0 0
-211 0 -210 51 3 51 3 2 180 1 180 235 0 235 0 1 -180 2 -180 51 -3 51 -3 0
210 0 211 26 0 c16 0 24 5 22 12 -4 11 -375 248 -388 248 -3 0 -90 -53 -194
-118z m358 -12 c101 -61 154 -100 151 -108 -3 -8 -5 -103 -5 -213 l0 -199 -25
0 -25 0 0 180 0 180 -260 0 -260 0 0 -180 0 -180 -25 0 -25 0 0 199 c0 110 -2
205 -5 213 -3 8 51 47 153 110 86 54 160 96 164 95 4 -1 77 -45 162 -97z"/>
<path d="M470 355 c0 -60 0 -60 -45 -44 -26 10 -37 8 -73 -10 l-43 -22 3 -57
c3 -56 4 -57 43 -76 32 -15 45 -16 75 -7 22 7 36 7 38 1 2 -6 43 -10 93 -10
l89 0 0 140 0 140 -90 0 -90 0 0 -55z"/>
</g>
</svg>
