<?xml version="1.0" standalone="no"?>
<!DOCTYPE svg PUBLIC "-//W3C//DTD SVG 20010904//EN"
 "http://www.w3.org/TR/2001/REC-SVG-20010904/DTD/svg10.dtd">
<svg version="1.0" xmlns="http://www.w3.org/2000/svg"
 width="272.000000pt" height="247.000000pt" viewBox="0 0 272.000000 247.000000"
 preserveAspectRatio="xMidYMid meet">
<metadata>
Created by potrace 1.15, written by Peter Selinger 2001-2017
</metadata>
<g transform="translate(0.000000,247.000000) scale(0.100000,-0.100000)"
fill="#000000" stroke="none">
<path d="M627 1998 c-21 -5 -53 -25 -72 -43 -29 -27 -35 -40 -35 -74 l0 -41
70 0 c63 0 70 2 70 20 0 11 5 20 10 20 6 0 10 7 10 15 0 23 27 29 45 12 17
-17 20 -47 5 -47 -5 0 -10 -7 -10 -16 0 -8 -22 -37 -50 -64 -27 -27 -50 -52
-50 -55 0 -4 -17 -23 -38 -43 -49 -47 -62 -72 -62 -116 0 -24 5 -36 18 -40 9
-3 88 -5 175 -5 l157 1 0 54 0 54 -75 0 c-41 0 -75 3 -75 6 0 4 29 35 65 71
36 35 65 68 65 74 0 5 5 9 10 9 6 0 10 7 10 15 0 8 5 15 10 15 6 0 10 25 10
55 0 30 -4 55 -10 55 -5 0 -10 6 -10 14 0 40 -164 77 -243 54z"/>
<path d="M1007 1925 c-20 -41 -37 -82 -37 -90 0 -8 -4 -15 -10 -15 -5 0 -10
-9 -10 -20 0 -11 -4 -20 -10 -20 -5 0 -10 -11 -10 -25 0 -14 -4 -25 -10 -25
-6 0 -10 -27 -10 -60 l0 -60 81 0 c88 0 109 -10 109 -54 0 -30 21 -37 95 -34
41 3 50 7 53 23 8 54 13 65 32 65 17 0 20 7 20 39 0 33 -4 40 -25 45 l-24 6
-3 148 -3 147 -100 3 -100 3 -38 -76z"/>
<path d="M1645 1958 c-22 -11 -42 -24 -45 -27 -3 -3 -17 -12 -32 -20 -15 -8
-30 -22 -34 -33 -3 -10 -9 -18 -13 -18 -4 0 -18 -21 -31 -47 -12 -27 -26 -56
-31 -65 -5 -10 -9 -47 -9 -83 l0 -65 -140 -140 c-77 -77 -145 -140 -150 -140
-6 0 -69 -57 -141 -127 -71 -71 -145 -142 -163 -159 -64 -58 -86 -100 -86
-166 0 -57 23 -123 54 -154 32 -31 97 -54 155 -54 93 0 124 22 286 206 33 37
94 102 135 144 41 42 102 107 135 144 109 122 153 166 169 166 9 0 16 5 16 10
0 6 32 10 75 10 43 0 75 4 75 10 0 6 13 10 29 10 16 0 31 3 33 8 2 4 20 20 41
35 48 36 106 115 107 145 0 12 5 22 10 22 6 0 10 36 10 89 0 50 -4 93 -10 96
-5 3 -10 13 -10 21 0 18 -24 44 -39 44 -11 0 -71 -83 -71 -99 0 -6 -4 -11 -9
-11 -5 0 -11 -8 -14 -17 -7 -21 -37 -72 -54 -90 -14 -15 -63 -17 -63 -3 0 6
-9 10 -20 10 -11 0 -20 5 -20 10 0 6 -7 10 -15 10 -8 0 -15 5 -15 10 0 6 -9
10 -20 10 -11 0 -20 5 -20 10 0 6 -6 10 -12 10 -20 0 -68 45 -68 64 0 9 5 16
10 16 6 0 10 7 10 15 0 8 5 15 10 15 6 0 10 9 10 19 0 11 3 21 8 23 4 2 18 23
31 48 14 25 29 48 34 51 5 4 7 19 3 33 -5 21 -12 26 -39 26 -17 -1 -50 -10
-72 -22z m-630 -978 c3 -5 14 -10 23 -10 9 0 27 -16 40 -35 22 -35 30 -95 12
-95 -5 0 -10 -7 -10 -16 0 -20 -28 -43 -52 -44 -10 0 -18 -4 -18 -10 0 -5 -9
-10 -20 -10 -11 0 -20 5 -20 10 0 6 -7 10 -15 10 -9 0 -27 11 -40 25 -20 19
-25 34 -25 75 0 27 5 50 10 50 6 0 10 6 10 13 0 15 55 45 82 46 9 1 20 -3 23
-9z"/>
<path d="M573 1418 c-6 -13 -15 -34 -22 -48 -36 -81 -56 -264 -41 -381 13
-112 80 -319 102 -319 5 0 8 -7 8 -15 0 -8 5 -15 10 -15 6 0 10 -9 10 -20 0
-11 5 -20 10 -20 6 0 10 -5 10 -10 0 -20 164 -187 191 -195 11 -4 19 -10 19
-14 0 -5 14 -14 30 -21 17 -7 30 -16 30 -20 0 -4 20 -15 45 -26 25 -10 45 -22
45 -26 0 -4 11 -8 24 -8 14 0 28 -4 31 -10 3 -5 19 -10 36 -10 16 0 29 -4 29
-10 0 -5 18 -10 39 -10 22 0 43 -5 46 -10 4 -6 65 -10 150 -10 85 0 146 4 150
10 3 5 18 10 32 10 29 0 156 41 161 52 2 5 9 8 17 8 18 0 107 51 126 72 9 10
22 18 28 18 12 0 145 132 189 187 12 15 28 40 34 56 7 15 16 27 20 27 5 0 8 9
8 20 0 11 5 20 10 20 6 0 10 9 10 20 0 11 4 20 8 20 4 0 13 21 21 48 7 26 16
56 21 67 18 45 30 148 30 251 0 98 2 110 20 122 19 12 19 12 -2 49 -13 21 -28
44 -35 51 -7 7 -13 17 -13 22 0 5 -6 15 -12 22 -7 7 -19 25 -27 41 -8 15 -22
27 -32 27 -14 0 -18 -12 -23 -72 -3 -40 -8 -94 -11 -121 -7 -47 -7 -47 24 -53
l31 -6 0 -129 c0 -79 -4 -129 -10 -129 -5 0 -10 -16 -10 -35 0 -19 -4 -35 -10
-35 -5 0 -10 -13 -10 -30 0 -16 -4 -30 -10 -30 -5 0 -10 -7 -10 -15 0 -58
-190 -315 -232 -315 -8 0 -20 -9 -28 -20 -8 -11 -20 -20 -26 -20 -7 0 -14 -3
-16 -8 -8 -18 -181 -92 -261 -111 -71 -17 -278 -14 -345 5 -62 16 -143 48
-182 71 -14 8 -33 17 -42 20 -10 3 -18 9 -18 14 0 5 -7 9 -16 9 -8 0 -33 18
-54 40 -21 22 -42 40 -45 40 -11 0 -73 69 -108 120 -17 25 -34 46 -39 48 -4 2
-8 12 -8 23 0 10 -4 19 -10 19 -5 0 -10 9 -10 20 0 11 -4 20 -10 20 -5 0 -10
14 -10 30 0 17 -4 30 -10 30 -5 0 -10 10 -10 23 0 13 -4 27 -9 33 -21 22 -40
309 -22 327 6 6 11 30 11 54 0 24 5 43 10 43 6 0 10 14 10 30 0 17 5 30 10 30
6 0 10 11 10 25 0 14 5 25 10 25 6 0 10 7 10 15 0 11 -11 15 -38 15 -30 0 -41
-5 -49 -22z"/>
</g>
</svg>
