<?xml version="1.0" standalone="no"?>
<!DOCTYPE svg PUBLIC "-//W3C//DTD SVG 20010904//EN"
 "http://www.w3.org/TR/2001/REC-SVG-20010904/DTD/svg10.dtd">
<svg version="1.0" xmlns="http://www.w3.org/2000/svg"
 width="272.000000pt" height="247.000000pt" viewBox="0 0 272.000000 247.000000"
 preserveAspectRatio="xMidYMid meet">
<metadata>
Created by potrace 1.15, written by Peter Selinger 2001-2017
</metadata>
<g transform="translate(0.000000,247.000000) scale(0.100000,-0.100000)"
fill="#000000" stroke="none">
<path d="M1892 2118 c-16 -16 -15 -63 1 -76 7 -6 37 -14 67 -17 166 -20 297
-98 382 -229 172 -266 52 -622 -248 -738 -84 -32 -244 -33 -327 0 -139 53
-245 153 -298 281 -29 69 -32 86 -32 181 0 75 5 120 18 160 20 61 71 146 116
194 l29 31 0 -46 c0 -25 5 -60 11 -78 9 -26 16 -31 45 -31 23 0 37 6 44 19 5
11 10 81 10 155 l0 136 -143 0 c-153 0 -167 -4 -167 -50 0 -33 17 -50 51 -50
41 0 41 -11 3 -60 -186 -241 -164 -594 48 -796 53 -50 121 -104 132 -104 4 0
30 -11 58 -25 29 -14 95 -33 146 -41 86 -15 101 -15 183 0 186 34 326 130 422
288 97 161 110 376 31 553 -56 127 -160 233 -289 295 -106 50 -265 76 -293 48z"/>
<path d="M769 2001 c-107 -26 -169 -61 -236 -133 l-22 -23 39 -63 c22 -34 42
-62 45 -62 3 0 27 11 53 24 52 26 182 56 244 56 54 0 162 -27 227 -57 30 -13
57 -20 61 -16 33 39 79 116 75 123 -3 5 -38 36 -78 68 -66 53 -80 60 -167 80
-52 13 -104 24 -115 26 -11 2 -68 -8 -126 -23z"/>
<path d="M765 1720 c-22 -5 -58 -16 -80 -25 l-39 -17 27 -15 c50 -26 196 -38
303 -24 53 6 108 18 122 25 l26 14 -39 17 c-78 32 -225 44 -320 25z"/>
<path d="M1695 1701 c-62 -37 -89 -122 -44 -136 21 -7 48 17 49 43 0 20 39 52
63 52 31 0 67 -40 67 -73 0 -21 -21 -49 -85 -115 -47 -49 -92 -97 -100 -108
-19 -26 -19 -70 1 -78 9 -3 69 -6 134 -6 112 0 119 1 125 21 10 32 -4 39 -93
46 -45 3 -82 8 -82 11 0 3 38 45 85 93 82 84 85 88 85 133 0 26 -7 60 -15 75
-29 56 -130 79 -190 42z"/>
<path d="M2058 1598 c-47 -68 -93 -137 -103 -155 -28 -48 -12 -60 95 -68 l89
-7 3 -42 c3 -36 6 -41 28 -41 22 0 26 5 30 39 4 30 12 43 34 55 16 9 28 20 27
24 0 4 -1 11 -1 16 0 5 -13 14 -30 19 l-29 11 -3 133 -3 133 -26 3 c-24 3 -36
-10 -111 -120z"/>
<path d="M620 1533 c0 -162 76 -300 195 -354 53 -24 89 -24 143 2 62 31 110
83 150 167 29 61 35 87 40 161 2 48 1 91 -4 94 -5 3 -34 -1 -64 -10 -88 -23
-252 -28 -340 -10 -41 9 -85 19 -97 23 -22 6 -23 5 -23 -73z"/>
<path d="M595 1089 c-60 -23 -127 -47 -148 -55 -55 -21 -105 -56 -117 -84 -6
-13 -16 -65 -21 -115 -5 -49 -18 -162 -29 -250 -10 -88 -21 -190 -24 -227 l-5
-68 634 0 635 0 0 31 c0 16 -4 60 -10 97 -5 37 -16 139 -25 227 -21 215 -40
314 -63 337 -22 22 -127 66 -271 115 l-105 35 -63 -21 c-75 -25 -133 -26 -188
-5 -67 27 -86 25 -200 -17z m315 -216 c0 -5 16 -98 35 -208 l35 -199 -38 -40
c-20 -22 -41 -44 -47 -48 -5 -4 -31 14 -58 40 -46 45 -47 48 -41 92 3 25 10
59 14 75 5 17 16 82 25 145 22 149 22 150 51 150 13 0 24 -3 24 -7z m307 -35
c46 -38 32 -142 -22 -164 -74 -30 -135 48 -101 129 8 21 25 42 38 47 25 10 66
4 85 -12z"/>
</g>
</svg>
