<?xml version="1.0" standalone="no"?>
<!DOCTYPE svg PUBLIC "-//W3C//DTD SVG 20010904//EN"
 "http://www.w3.org/TR/2001/REC-SVG-20010904/DTD/svg10.dtd">
<svg version="1.0" xmlns="http://www.w3.org/2000/svg"
 width="272.000000pt" height="247.000000pt" viewBox="0 0 272.000000 247.000000"
 preserveAspectRatio="xMidYMid meet">
<metadata>
Created by potrace 1.15, written by Peter Selinger 2001-2017
</metadata>
<g transform="translate(0.000000,247.000000) scale(0.100000,-0.100000)"
fill="#000000" stroke="none">
<path d="M741 2181 c-21 -28 -21 -40 -21 -499 0 -414 2 -472 16 -486 8 -9 19
-16 23 -16 28 0 31 40 33 496 l3 469 558 3 557 2 0 -468 c0 -502 1 -513 48
-498 l22 7 0 487 c-1 461 -2 488 -19 510 l-19 22 -590 0 -591 0 -20 -29z"/>
<path d="M866 2068 c-14 -19 -16 -78 -16 -438 0 -437 3 -463 43 -447 15 5 17
36 19 249 l3 243 167 3 c173 3 187 7 172 47 -5 12 -37 15 -172 17 l-167 3 0
135 0 135 203 3 202 2 0 -409 c0 -349 2 -410 15 -421 8 -7 22 -10 30 -6 13 5
15 41 15 251 l0 245 205 0 205 0 0 -244 c0 -208 2 -245 15 -250 8 -3 22 -3 30
0 13 5 15 64 15 443 0 327 -3 440 -12 449 -9 9 -130 12 -484 12 l-473 0 -15
-22z m924 -188 l0 -140 -202 2 -203 3 -3 124 c-1 69 0 131 2 138 4 10 50 13
206 13 l200 0 0 -140z"/>
<path d="M436 1079 c-31 -36 -33 -64 -6 -79 14 -8 22 -6 32 6 65 79 76 68 54
-58 -10 -51 -21 -122 -26 -158 -5 -36 -16 -100 -25 -142 -19 -91 -10 -138 42
-234 27 -50 33 -73 33 -121 0 -33 5 -64 12 -71 9 -9 201 -12 804 -12 l792 0
11 31 c6 18 11 53 11 79 0 33 7 58 23 81 13 19 31 61 41 93 20 64 21 46 -15
281 -5 33 -13 83 -19 110 -5 28 -13 76 -16 108 -6 53 -5 57 14 57 12 0 23 -8
27 -19 14 -46 65 -50 65 -5 0 14 -10 38 -22 54 l-22 30 -892 0 -892 0 -26 -31z
m242 -60 c2 -19 -2 -61 -8 -94 -14 -70 -24 -125 -45 -254 -18 -101 -14 -153
16 -215 10 -21 16 -43 13 -47 -9 -16 -60 -10 -75 9 -51 63 -65 127 -50 227 27
181 62 378 70 393 6 11 21 17 43 16 30 -1 33 -4 36 -35z m158 -63 c-4 -50 -11
-125 -17 -166 -5 -41 -12 -126 -15 -188 -5 -91 -3 -119 10 -146 23 -49 21 -56
-23 -56 -34 0 -44 5 -63 33 -46 63 -51 81 -45 169 4 46 11 108 17 138 6 30 15
84 20 120 16 108 29 173 37 181 10 9 64 16 77 10 5 -2 6 -44 2 -95z m959 70
c5 -19 22 -158 31 -251 2 -22 9 -83 15 -136 12 -99 8 -127 -28 -207 -13 -31
-17 -33 -56 -30 -46 3 -45 -2 -28 92 5 27 4 102 0 170 -21 280 -25 381 -18
387 5 3 25 3 44 1 26 -3 37 -10 40 -26z m320 -15 c3 -20 10 -54 15 -76 5 -22
11 -62 15 -90 3 -27 10 -72 16 -100 6 -27 13 -90 16 -139 5 -79 3 -93 -18
-135 -28 -55 -45 -70 -80 -71 -36 0 -39 7 -21 43 32 64 39 124 25 206 -8 42
-18 103 -22 136 -5 33 -17 102 -26 153 -9 51 -15 98 -12 105 3 8 19 11 46 9
38 -4 41 -6 46 -41z m-1113 20 c-1 -7 -8 -88 -15 -180 -13 -194 -15 -361 -3
-413 l9 -38 -41 0 c-31 0 -43 5 -56 25 -35 53 -41 106 -27 252 7 76 16 161 21
188 5 28 12 81 15 118 l7 68 46 -3 c33 -2 46 -7 44 -17z m163 -103 c-4 -68 -8
-213 -10 -323 l-2 -200 -43 0 c-28 0 -45 5 -50 15 -23 45 -32 103 -27 186 7
111 24 322 33 392 l6 52 50 0 51 0 -8 -122z m155 -203 l0 -325 -44 0 c-31 0
-46 5 -50 16 -8 21 -8 480 1 567 l6 67 43 0 44 0 0 -325z m162 64 c2 -144 1
-289 -2 -323 l-5 -61 -45 0 -45 0 -3 323 -2 322 49 0 50 0 3 -261z m163 154
c3 -60 11 -142 16 -183 15 -119 13 -269 -4 -315 -15 -39 -17 -40 -62 -40 l-46
0 -5 323 -5 322 50 0 49 0 7 -107z m308 90 c3 -10 12 -58 20 -108 9 -49 24
-133 33 -185 10 -52 18 -126 18 -165 0 -60 -5 -77 -30 -120 -25 -42 -36 -51
-63 -53 -58 -6 -63 1 -41 53 22 51 26 136 11 226 -5 30 -14 104 -21 164 -6 61
-13 131 -16 158 l-5 47 45 0 c34 0 46 -4 49 -17z m147 -728 l0 -35 -747 2
c-712 3 -748 4 -751 21 -10 49 -45 47 753 47 l745 0 0 -35z"/>
</g>
</svg>
