<?xml version="1.0" standalone="no"?>
<!DOCTYPE svg PUBLIC "-//W3C//DTD SVG 20010904//EN"
 "http://www.w3.org/TR/2001/REC-SVG-20010904/DTD/svg10.dtd">
<svg version="1.0" xmlns="http://www.w3.org/2000/svg"
 width="272.000000pt" height="247.000000pt" viewBox="0 0 272.000000 247.000000"
 preserveAspectRatio="xMidYMid meet">
<metadata>
Created by potrace 1.15, written by Peter Selinger 2001-2017
</metadata>
<g transform="translate(0.000000,247.000000) scale(0.100000,-0.100000)"
fill="#000000" stroke="none">
<path d="M610 2120 c0 -5 -11 -10 -25 -10 -14 0 -35 -10 -47 -22 l-23 -23 -3
-840 c-1 -462 0 -854 3 -872 4 -25 12 -33 35 -38 17 -4 30 -13 30 -21 0 -12
111 -14 768 -14 422 0 778 3 790 7 18 4 20 8 10 14 -9 6 -4 9 15 9 20 0 30 6
34 20 3 11 12 20 19 20 20 0 21 1692 1 1712 -7 7 -16 20 -19 29 -4 9 -24 20
-45 24 -60 13 -1543 17 -1543 5z m1519 -58 c3 -4 14 -11 24 -15 16 -6 17 -51
15 -846 -2 -462 -7 -843 -11 -848 -10 -9 -1494 -17 -1544 -8 -20 3 -33 12 -33
20 0 8 -7 15 -15 15 -13 0 -15 98 -15 820 0 529 3 820 10 820 5 0 12 11 16 24
4 19 14 26 37 28 78 7 1511 -2 1516 -10z"/>
<path d="M730 2043 c-8 -4 -20 -13 -27 -22 -7 -9 -13 -11 -13 -6 -3 26 -19
-36 -21 -80 -2 -48 -2 -49 -9 -15 -4 19 -7 -145 -7 -365 0 -220 3 -384 7 -365
7 32 7 30 9 -20 2 -70 10 -100 27 -100 8 0 14 -8 14 -17 0 -15 2 -16 10 -3 6
10 10 11 10 3 0 -10 135 -13 640 -13 562 0 640 2 640 15 0 8 7 15 15 15 8 0
15 7 15 15 0 8 7 15 15 15 13 0 15 56 15 440 0 402 -1 442 -17 460 -10 11 -23
20 -29 20 -7 0 -14 7 -18 15 -5 13 -84 15 -633 14 -345 0 -635 -3 -643 -6z
m1278 -500 l-3 -438 -625 -3 c-344 -1 -635 0 -647 3 l-23 5 0 426 c0 248 4
423 9 420 5 -3 11 1 15 9 5 13 86 15 641 15 l635 0 -2 -437z"/>
<path d="M1246 1692 c-4 -3 -6 -15 -6 -27 0 -17 8 -24 30 -28 24 -5 30 -12 30
-31 0 -14 -4 -28 -10 -31 -5 -3 -10 -32 -10 -64 0 -52 3 -59 22 -64 12 -3 25
-4 30 -1 4 3 8 48 8 100 l0 94 30 0 c26 0 30 4 30 28 l0 29 -74 0 c-41 0 -77
-2 -80 -5z"/>
<path d="M1457 1680 c-14 -17 -18 -43 -20 -134 -2 -105 3 -139 19 -123 4 3 10
35 13 71 8 75 17 91 27 50 4 -16 13 -35 21 -42 7 -7 13 -23 13 -35 0 -12 4
-28 9 -35 7 -11 9 -11 14 2 4 9 13 16 22 16 10 0 15 10 15 34 0 41 46 98 61
75 5 -8 8 -36 7 -64 -2 -39 0 -50 12 -50 12 0 16 16 18 73 2 41 -2 79 -7 86
-6 7 -6 17 -1 26 14 22 13 26 -15 44 -23 15 -26 15 -43 -2 -11 -11 -21 -35
-25 -54 -6 -39 -34 -78 -54 -78 -8 0 -13 13 -13 34 0 19 -6 41 -14 49 -8 8
-16 27 -18 42 -4 36 -18 41 -41 15z"/>
<path d="M1109 1670 c-9 -10 -20 -41 -24 -70 -4 -30 -10 -47 -15 -40 -4 6 -10
-7 -13 -31 -3 -24 -11 -45 -16 -47 -13 -4 -15 -62 -2 -62 5 0 12 7 15 16 3 8
10 13 15 10 10 -7 21 16 21 45 0 16 7 19 45 19 43 0 45 -1 45 -30 0 -20 5 -30
15 -30 9 0 18 -7 21 -15 11 -28 24 -15 24 24 0 25 -5 41 -15 45 -10 4 -15 20
-15 51 0 33 -4 45 -15 45 -10 0 -15 11 -15 35 0 24 -5 35 -15 35 -8 0 -15 5
-15 10 0 16 -23 10 -41 -10z"/>
<path d="M1278 912 c-505 -2 -578 -4 -578 -17 0 -8 -6 -14 -12 -12 -7 1 -14
-8 -16 -21 -2 -12 -8 -20 -13 -17 -5 4 -9 -45 -9 -119 0 -77 4 -126 10 -126 6
0 10 -6 10 -12 0 -7 11 -23 24 -35 22 -21 33 -23 145 -23 l121 0 0 -45 0 -45
395 0 c344 0 395 2 395 15 0 8 6 15 14 15 7 0 16 14 20 30 l6 30 121 0 c112 0
121 1 126 20 3 11 12 20 19 20 11 0 14 30 14 155 0 131 -2 155 -15 155 -8 0
-15 6 -15 14 0 14 -81 26 -155 22 -16 0 -290 -2 -607 -4z m692 -49 c0 -7 9
-13 19 -13 23 0 28 -37 21 -165 l-5 -90 -29 -3 c-22 -3 -26 -6 -15 -13 9 -6 0
-9 -31 -9 -33 0 -41 3 -30 10 11 7 -3 10 -47 10 -67 0 -77 6 -67 44 5 20 12
25 33 24 76 -5 90 0 97 36 9 51 -3 96 -27 96 -11 0 -17 5 -14 10 4 6 -12 10
-39 10 -25 0 -46 -4 -46 -10 0 -6 -23 -9 -52 -9 -49 2 -51 2 -18 9 19 4 -164
8 -407 9 -248 0 -443 -3 -443 -8 0 -5 -13 -11 -30 -14 -21 -5 -31 -14 -36 -32
-7 -28 3 -96 14 -93 18 4 102 -15 102 -23 0 -5 9 -9 20 -9 13 0 20 -7 20 -20
0 -18 -7 -20 -65 -20 -37 0 -65 -4 -65 -10 0 -5 -8 -10 -17 -10 -15 0 -16 2
-3 10 11 7 6 10 -20 10 -82 1 -80 -2 -80 136 0 104 2 124 15 124 8 0 15 6 15
13 0 9 130 12 615 12 485 0 615 -3 615 -12z m-250 -238 l0 -125 -350 0 -350 0
0 125 0 125 350 0 350 0 0 -125z"/>
</g>
</svg>
