<?xml version="1.0" standalone="no"?>
<!DOCTYPE svg PUBLIC "-//W3C//DTD SVG 20010904//EN"
 "http://www.w3.org/TR/2001/REC-SVG-20010904/DTD/svg10.dtd">
<svg version="1.0" xmlns="http://www.w3.org/2000/svg"
 width="272.000000pt" height="247.000000pt" viewBox="0 0 272.000000 247.000000"
 preserveAspectRatio="xMidYMid meet">
<metadata>
Created by potrace 1.15, written by Peter Selinger 2001-2017
</metadata>
<g transform="translate(0.000000,247.000000) scale(0.100000,-0.100000)"
fill="#000000" stroke="none">
<path d="M1350 2315 c-7 -8 -16 -15 -21 -15 -5 0 -17 -8 -28 -17 -10 -10 -35
-31 -55 -46 -134 -103 -266 -363 -266 -524 l0 -63 45 0 45 0 0 43 c0 112 67
280 145 364 l44 48 1 -35 c0 -43 24 -123 44 -152 45 -64 118 -74 211 -28 53
26 61 28 72 14 14 -19 53 -144 53 -172 0 -11 3 -34 6 -51 6 -30 9 -31 55 -31
42 0 49 3 49 20 0 46 -61 257 -101 348 -24 56 -38 63 -66 33 -26 -26 -99 -70
-143 -86 -35 -12 -40 -12 -57 7 -16 18 -18 39 -17 189 0 93 0 169 -2 169 -1 0
-7 -7 -14 -15z"/>
<path d="M1270 1812 c-26 -31 -50 -92 -50 -127 l0 -35 140 0 c96 0 140 3 140
11 0 15 -70 79 -87 79 -7 0 -13 -6 -13 -14 0 -14 -21 -26 -46 -26 -17 0 -39
43 -48 93 -8 41 -15 45 -36 19z"/>
<path d="M443 1584 c-16 -41 16 -249 55 -354 25 -69 91 -189 119 -218 7 -7 13
-17 13 -21 0 -22 183 -190 223 -204 9 -4 17 -16 17 -27 0 -11 -46 -91 -103
-178 -56 -86 -114 -175 -127 -197 -13 -22 -30 -46 -37 -53 -18 -18 -16 -67 2
-82 30 -25 60 -3 116 85 30 47 62 95 72 107 9 12 17 27 17 35 0 7 3 13 8 13 4
0 18 20 32 45 14 25 28 45 32 45 5 0 8 4 8 9 0 5 17 34 37 65 33 52 39 56 65
50 16 -3 41 -12 56 -20 15 -8 35 -14 45 -14 10 0 27 -5 38 -10 11 -6 54 -14
97 -18 l77 -7 3 -279 c1 -186 6 -284 13 -293 18 -20 67 -16 79 7 11 20 11 823
0 833 -3 3 -17 8 -31 12 -45 11 -59 -14 -59 -106 l0 -79 -31 0 c-42 0 -152 28
-224 57 -97 39 -190 99 -257 166 -112 111 -145 161 -218 332 -13 31 -40 157
-40 188 l0 27 821 0 821 0 -7 -67 c-4 -38 -11 -72 -15 -78 -4 -5 -11 -27 -14
-48 -11 -58 -92 -208 -152 -281 -47 -57 -152 -149 -209 -183 -45 -27 -172 -83
-188 -83 -7 0 -29 -5 -49 -11 -37 -10 -38 -11 -38 -60 l0 -51 33 7 c17 4 71
21 120 37 l87 30 20 -24 c11 -13 19 -29 20 -35 0 -7 3 -13 8 -13 4 0 16 -17
27 -37 11 -20 25 -41 30 -47 6 -6 28 -40 50 -76 22 -36 44 -70 50 -77 5 -6 29
-42 53 -80 55 -88 72 -99 106 -72 25 20 35 54 18 61 -4 2 -19 21 -32 43 -13
22 -75 118 -137 212 -63 95 -116 179 -119 186 -3 9 8 22 28 34 149 89 300 290
366 488 22 67 46 231 40 285 l-3 35 -913 3 c-822 2 -913 1 -919 -14z"/>
</g>
</svg>
