<?xml version="1.0" standalone="no"?>
<!DOCTYPE svg PUBLIC "-//W3C//DTD SVG 20010904//EN"
 "http://www.w3.org/TR/2001/REC-SVG-20010904/DTD/svg10.dtd">
<svg version="1.0" xmlns="http://www.w3.org/2000/svg"
 width="272.000000pt" height="247.000000pt" viewBox="0 0 272.000000 247.000000"
 preserveAspectRatio="xMidYMid meet">
<metadata>
Created by potrace 1.15, written by Peter Selinger 2001-2017
</metadata>
<g transform="translate(0.000000,247.000000) scale(0.100000,-0.100000)"
fill="#000000" stroke="none">
<path d="M1692 2328 c-9 -12 -30 -82 -46 -151 -6 -25 -10 -28 -32 -23 -64 16
-226 24 -314 16 -256 -25 -480 -130 -661 -311 -92 -92 -97 -111 -44 -158 67
-59 112 -75 207 -77 87 -2 87 -2 119 -39 64 -72 162 -100 254 -71 l50 16 25
-32 c13 -18 44 -53 68 -76 l44 -44 -47 -176 c-26 -98 -50 -187 -52 -199 -7
-30 -17 -29 -31 2 -21 46 -106 127 -167 159 -56 29 -67 31 -165 31 -101 0
-108 -1 -168 -34 -80 -44 -154 -124 -183 -199 -44 -113 -26 -257 43 -353 l30
-42 -29 5 c-15 3 -76 18 -134 33 -116 31 -146 29 -185 -10 -23 -24 -24 -28
-24 -191 l0 -166 34 -34 34 -34 1021 0 c1122 0 1063 -3 1096 60 11 22 15 64
15 173 0 133 -2 147 -23 178 -37 56 -60 58 -210 19 -163 -42 -206 -42 -362 4
-66 20 -140 36 -165 36 -25 0 -97 -16 -160 -35 -130 -39 -215 -47 -206 -17 3
9 30 107 59 217 30 110 74 273 97 361 l44 162 57 6 c32 3 83 17 115 31 l57 25
30 -35 c59 -73 163 -101 259 -71 l54 17 52 -34 c47 -32 123 -57 173 -57 11 0
41 5 65 11 67 17 71 35 40 154 -63 237 -191 431 -379 576 -86 67 -274 169
-311 169 -27 0 -28 23 -6 106 11 43 18 86 14 96 -6 21 -37 24 -52 6z m-188
-229 c3 -3 -13 -26 -35 -50 -63 -66 -150 -206 -210 -334 -49 -105 -56 -116
-91 -130 -71 -28 -130 -16 -185 38 -18 17 -33 37 -33 45 0 19 71 116 131 179
55 57 63 95 23 101 -25 4 -111 -86 -177 -183 -22 -33 -45 -63 -51 -67 -6 -4
-38 -8 -71 -8 -63 0 -129 23 -154 54 -13 15 -10 21 25 57 153 159 370 268 594
300 61 8 225 7 234 -2z m181 -53 c18 -19 38 -54 44 -78 16 -56 25 -291 16
-411 l-7 -95 -61 -28 c-127 -57 -247 -37 -329 55 -78 87 -78 87 -26 200 55
119 163 286 214 331 34 30 86 59 108 60 5 0 23 -15 41 -34z m172 -99 c116
-122 186 -295 199 -493 l7 -92 -38 -12 c-45 -15 -116 -8 -149 14 -14 8 -36 30
-49 48 -22 30 -24 38 -17 93 19 138 10 396 -16 478 -10 30 12 18 63 -36z m221
-113 c132 -122 246 -316 283 -478 11 -49 10 -59 -2 -67 -34 -21 -138 2 -193
44 -32 25 -33 29 -39 114 -9 123 -49 272 -101 376 -25 48 -41 87 -37 87 4 0
44 -34 89 -76z m-628 -500 c0 -8 -21 -93 -46 -187 -25 -95 -69 -259 -98 -366
-28 -107 -57 -196 -64 -199 -20 -6 -14 32 32 201 24 89 68 250 96 357 29 107
54 198 57 203 8 13 23 7 23 -9z m-578 -221 c9 -10 23 -33 32 -50 13 -27 14
-36 4 -53 -7 -11 -22 -20 -34 -20 -57 0 -149 -44 -262 -126 -23 -17 -23 -17
-17 12 25 115 100 203 202 240 50 17 57 17 75 -3z m163 -11 c65 -33 145 -115
145 -149 0 -18 -108 32 -130 60 -11 14 -29 29 -40 32 -15 5 -60 65 -60 81 0 7
52 -7 85 -24z m-107 -201 c16 -14 22 -30 22 -61 0 -52 -23 -132 -53 -185 -20
-35 -30 -42 -96 -62 -65 -19 -76 -20 -95 -8 -29 20 -74 79 -92 121 -14 34 -14
37 10 69 35 45 110 98 176 123 68 26 99 27 128 3z m230 -25 c62 -32 63 -34 30
-153 -17 -59 -32 -110 -34 -112 -1 -2 -24 4 -50 13 -26 9 -67 16 -90 16 l-42
0 20 58 c11 31 23 89 26 127 6 85 19 99 73 80 20 -7 50 -20 67 -29z m6 -341
c158 -46 216 -46 367 0 63 19 134 35 158 35 24 0 98 -16 165 -36 156 -47 205
-47 364 -4 143 39 155 36 160 -30 3 -33 -1 -47 -17 -62 -28 -25 -29 -90 -1
-118 23 -23 26 -50 8 -68 -9 -9 -248 -12 -1014 -12 -551 0 -1009 3 -1018 6
-20 8 -21 57 -1 74 21 17 20 103 0 120 -24 20 -17 114 8 118 10 2 71 -11 135
-28 153 -43 212 -42 357 3 142 45 182 45 329 2z"/>
</g>
</svg>
