<?xml version="1.0" standalone="no"?>
<!DOCTYPE svg PUBLIC "-//W3C//DTD SVG 20010904//EN"
 "http://www.w3.org/TR/2001/REC-SVG-20010904/DTD/svg10.dtd">
<svg version="1.0" xmlns="http://www.w3.org/2000/svg"
 width="272.000000pt" height="247.000000pt" viewBox="0 0 272.000000 247.000000"
 preserveAspectRatio="xMidYMid meet">
<metadata>
Created by potrace 1.15, written by Peter Selinger 2001-2017
</metadata>
<g transform="translate(0.000000,247.000000) scale(0.100000,-0.100000)"
fill="#000000" stroke="none">
<path d="M226 1889 c-44 -23 -64 -42 -92 -84 -18 -28 -19 -50 -19 -355 l0
-325 28 -42 c15 -24 45 -54 67 -68 l40 -25 1113 0 1114 0 46 31 c30 20 54 46
69 77 22 45 23 57 26 337 3 321 -1 348 -61 412 -63 67 18 63 -1194 63 -1089 0
-1099 0 -1137 -21z m2241 -61 c15 -7 37 -21 48 -32 19 -20 20 -34 20 -348 l0
-328 -28 -27 -27 -28 -263 0 -262 0 -5 125 c-3 69 -9 131 -13 138 -6 9 -172
12 -772 12 -745 0 -765 0 -775 -19 -5 -11 -10 -74 -10 -140 l0 -121 -52 0
c-65 0 -95 15 -125 59 -23 33 -23 39 -23 326 0 323 3 339 64 376 30 18 65 19
1113 19 822 0 1089 -3 1110 -12z m-599 -566 c9 -6 12 -34 10 -103 l-3 -94
-710 0 -710 0 -3 94 c-2 69 1 97 10 103 17 10 1389 10 1406 0z"/>
<path d="M387 1693 c-13 -12 -7 -51 9 -57 9 -3 452 -6 984 -6 947 0 970 0 980
19 5 11 7 27 4 35 -6 14 -104 16 -988 16 -541 0 -986 -3 -989 -7z"/>
<path d="M398 1529 c-21 -12 -23 -40 -6 -57 9 -9 242 -12 985 -12 l973 0 12
26 c26 56 62 54 -986 54 -634 -1 -967 -4 -978 -11z"/>
<path d="M514 827 c-2 -7 -3 -62 -2 -123 3 -98 5 -109 22 -112 34 -7 46 25 46
124 0 51 -3 99 -6 108 -7 19 -53 21 -60 3z"/>
<path d="M827 834 c-4 -4 -7 -80 -7 -169 0 -136 3 -165 16 -176 11 -9 20 -10
32 -2 15 9 17 32 17 179 l0 169 -25 3 c-14 2 -29 0 -33 -4z"/>
<path d="M1137 834 c-4 -4 -7 -105 -7 -225 l0 -219 26 -6 c17 -4 29 -2 35 7 5
8 8 111 6 229 l-2 215 -25 3 c-14 2 -29 0 -33 -4z"/>
<path d="M1446 824 c-10 -27 -7 -304 4 -325 14 -25 35 -24 54 3 13 18 16 52
16 161 0 76 -5 147 -10 158 -13 23 -55 25 -64 3z"/>
<path d="M1756 824 c-8 -20 -8 -182 0 -212 5 -18 13 -22 33 -20 l26 3 3 123 3
122 -30 0 c-17 0 -31 -6 -35 -16z"/>
</g>
</svg>
