<?xml version="1.0" standalone="no"?>
<!DOCTYPE svg PUBLIC "-//W3C//DTD SVG 20010904//EN"
 "http://www.w3.org/TR/2001/REC-SVG-20010904/DTD/svg10.dtd">
<svg version="1.0" xmlns="http://www.w3.org/2000/svg"
 width="272.000000pt" height="247.000000pt" viewBox="0 0 272.000000 247.000000"
 preserveAspectRatio="xMidYMid meet">
<metadata>
Created by potrace 1.15, written by Peter Selinger 2001-2017
</metadata>
<g transform="translate(0.000000,247.000000) scale(0.100000,-0.100000)"
fill="#000000" stroke="none">
<path d="M665 1848 c-2 -7 -6 -29 -7 -48 -2 -28 -7 -34 -21 -32 -10 2 -67 -29
-125 -69 -192 -129 -200 -137 -204 -172 -3 -30 -6 -32 -48 -37 -32 -4 -46 -10
-48 -22 -3 -17 12 -24 68 -30 l25 -3 0 -405 0 -405 -45 -5 c-37 -4 -45 -9 -45
-25 0 -20 7 -20 1150 -20 1143 0 1150 0 1150 20 0 16 -8 21 -43 23 l-42 3 2
407 3 407 40 5 c32 4 40 9 40 25 0 16 -8 21 -40 25 -34 4 -40 9 -43 31 -3 27
-14 40 -69 85 l-32 25 -3 112 -3 112 -85 0 -85 0 -3 -40 c-4 -59 -9 -70 -27
-55 -16 14 -10 17 -138 -69 -54 -36 -106 -70 -115 -76 -9 -5 -19 -12 -22 -15
-3 -3 -17 -13 -32 -23 -18 -11 -28 -27 -30 -49 -3 -32 -4 -33 -53 -33 -49 0
-50 1 -53 32 -3 25 -13 40 -48 65 l-44 31 0 103 c0 56 -3 109 -6 118 -5 13
-23 16 -89 16 -91 0 -95 -3 -95 -66 0 -31 -2 -34 -23 -29 -16 4 -36 -4 -69
-29 -26 -20 -49 -36 -52 -36 -5 0 -115 -77 -143 -100 -7 -5 -16 -10 -21 -10
-17 0 -40 -35 -44 -65 -3 -29 -5 -30 -53 -30 -49 0 -50 0 -53 33 -3 26 -13 40
-48 65 l-44 31 0 106 c0 69 -4 110 -12 118 -17 17 -167 16 -173 0z m22 -180
c26 -18 50 -35 53 -38 3 -3 38 -28 78 -55 l72 -49 0 -453 0 -453 -75 0 -75 0
0 119 c0 66 -3 126 -6 135 -9 24 -209 24 -218 0 -3 -9 -6 -69 -6 -135 l0 -120
-72 3 -73 3 -3 451 -2 451 127 87 c70 47 133 86 140 86 7 0 34 -15 60 -32z
m732 5 c48 -35 60 -43 141 -96 l65 -42 3 -457 2 -458 -75 0 -75 0 0 119 c0 66
-3 126 -6 135 -5 13 -24 16 -105 16 -87 0 -99 -2 -109 -19 -5 -11 -10 -72 -10
-135 l0 -116 -69 0 c-54 0 -70 4 -75 16 -9 23 -7 877 2 890 12 17 245 174 259
174 7 0 31 -12 52 -27z m826 -57 l120 -83 0 -454 0 -454 -70 0 -70 0 -5 130
-5 130 -100 3 c-85 2 -102 0 -112 -15 -9 -11 -13 -55 -13 -135 l0 -118 -70 0
-70 0 0 458 0 457 46 30 c74 48 88 58 145 98 30 20 61 37 69 36 8 0 69 -37
135 -83z m-1197 -589 l2 -408 -52 3 -53 3 -3 395 c-1 217 0 401 3 408 3 9 20
12 52 10 l48 -3 3 -408z m740 0 l2 -408 -52 3 -53 3 -3 399 c-2 313 1 401 10
408 7 4 31 7 53 6 l40 -3 3 -408z m-1110 -299 l3 -108 -56 0 -55 0 0 111 0
110 53 -3 52 -3 3 -107z m747 90 c3 -13 5 -61 3 -108 l-3 -85 -55 0 -55 0 -3
94 c-1 52 -1 100 2 108 4 8 23 13 55 13 44 0 51 -3 56 -22z m735 -88 l0 -110
-55 0 -55 0 0 103 c0 57 3 107 7 110 3 4 28 7 55 7 l48 0 0 -110z"/>
<path d="M520 1491 c-11 -21 -14 -169 -4 -195 5 -13 24 -16 109 -16 85 0 104
3 109 16 11 29 7 189 -6 202 -8 8 -46 12 -105 12 -81 0 -94 -2 -103 -19z"/>
<path d="M520 1191 c-11 -21 -14 -169 -4 -195 5 -13 24 -16 103 -16 62 0 101
4 109 12 8 8 12 47 12 109 0 79 -3 98 -16 103 -9 3 -56 6 -104 6 -78 0 -91 -2
-100 -19z"/>
<path d="M1260 1491 c-5 -11 -10 -54 -10 -96 0 -114 1 -115 119 -115 81 0 100
3 105 16 11 29 7 189 -6 202 -8 8 -46 12 -105 12 -81 0 -94 -2 -103 -19z"/>
<path d="M1260 1191 c-5 -11 -10 -54 -10 -96 0 -113 2 -115 113 -115 59 0 97
4 105 12 8 8 12 47 12 109 0 79 -3 98 -16 103 -9 3 -56 6 -104 6 -78 0 -91 -2
-100 -19z"/>
<path d="M2000 1491 c-14 -28 -13 -173 3 -194 10 -15 27 -17 112 -15 l100 3 3
90 c5 141 9 135 -108 135 -88 0 -100 -2 -110 -19z"/>
<path d="M2001 1191 c-15 -28 -14 -173 2 -194 10 -15 27 -17 112 -15 l100 3 0
110 0 110 -102 3 c-93 2 -103 1 -112 -17z"/>
</g>
</svg>
