<?xml version="1.0" standalone="no"?>
<!DOCTYPE svg PUBLIC "-//W3C//DTD SVG 20010904//EN"
 "http://www.w3.org/TR/2001/REC-SVG-20010904/DTD/svg10.dtd">
<svg version="1.0" xmlns="http://www.w3.org/2000/svg"
 width="272.000000pt" height="247.000000pt" viewBox="0 0 272.000000 247.000000"
 preserveAspectRatio="xMidYMid meet">
<metadata>
Created by potrace 1.15, written by Peter Selinger 2001-2017
</metadata>
<g transform="translate(0.000000,247.000000) scale(0.100000,-0.100000)"
fill="#000000" stroke="none">
<path d="M620 2197 c0 -54 -5 -52 162 -62 l97 -6 7 46 c3 25 5 48 3 50 -2 2
-64 7 -137 11 l-132 7 0 -46z"/>
<path d="M611 2102 c-18 -33 -13 -113 8 -146 44 -67 139 -88 208 -45 60 37 93
137 59 182 -12 15 -35 19 -139 24 -119 6 -125 5 -136 -15z"/>
<path d="M1790 2002 c0 -21 -7 -30 -30 -39 -20 -7 -31 -20 -35 -39 -11 -49
-14 -54 -32 -54 -32 0 -142 -58 -184 -97 -53 -48 -86 -100 -113 -178 l-21 -61
-25 23 c-26 24 -81 40 -99 28 -6 -3 -11 -35 -11 -69 0 -101 -8 -126 -39 -126
l-27 0 0 98 1 97 -30 3 c-68 6 -222 61 -237 86 -4 6 -8 23 -8 38 0 15 -7 42
-16 61 -49 102 -204 103 -261 1 -20 -38 -21 -45 -13 -229 5 -104 9 -245 10
-312 l0 -123 145 0 145 0 0 163 c0 90 3 166 6 170 4 3 23 0 43 -8 20 -7 74
-21 121 -30 48 -9 88 -23 93 -31 11 -19 57 -18 57 1 0 11 11 15 38 15 20 0 50
7 66 15 15 8 30 15 32 15 2 0 5 -210 6 -467 l3 -468 435 0 435 0 3 500 c1 308
-2 521 -8 555 -27 148 -149 286 -285 322 -26 7 -49 17 -50 23 -2 5 -6 23 -9
38 -5 19 -18 33 -41 44 -25 12 -35 23 -35 40 0 14 -6 23 -15 23 -10 0 -15 -10
-15 -28z m125 -206 c98 -26 179 -93 223 -186 l27 -55 0 -500 0 -500 -355 0
-355 0 -3 485 c-2 535 -3 528 61 623 79 117 250 174 402 133z"/>
<path d="M1507 1404 c-10 -10 -8 -536 1 -552 6 -9 35 -12 108 -10 l99 3 0 280
0 280 -101 3 c-55 1 -103 0 -107 -4z"/>
<path d="M1880 1162 c0 -35 -13 -42 -81 -42 l-50 0 3 -137 3 -138 175 0 175 0
0 139 0 139 -50 1 c-47 1 -50 3 -55 31 -5 29 -7 30 -63 33 l-57 3 0 -29z"/>
<path d="M1520 695 l0 -75 285 0 c157 0 288 -1 293 -2 4 -2 8 32 10 75 l3 77
-296 0 -295 0 0 -75z"/>
<path d="M619 1068 c-3 -51 5 -118 18 -143 9 -16 26 -57 37 -90 l22 -60 -22
-65 c-11 -36 -45 -119 -74 -185 -57 -130 -100 -246 -100 -269 0 -48 54 -96
107 -96 45 1 71 29 102 115 16 44 56 136 91 204 67 135 100 216 100 244 0 31
24 18 63 -36 65 -88 128 -240 142 -342 12 -87 25 -123 52 -144 34 -27 92 -27
127 0 31 25 34 68 11 181 -43 211 -141 391 -299 551 -48 49 -86 96 -86 106 0
21 -9 22 -207 36 -63 4 -83 2 -84 -7z"/>
<path d="M1528 388 c-68 -56 -61 -135 14 -174 26 -14 37 -14 68 -4 106 35 84
190 -27 190 -22 0 -46 -6 -55 -12z"/>
<path d="M1949 371 c-22 -22 -29 -39 -29 -68 0 -50 22 -80 69 -94 50 -15 96 8
117 57 18 44 10 77 -28 109 -42 35 -91 34 -129 -4z"/>
</g>
</svg>
