<?xml version="1.0" standalone="no"?>
<!DOCTYPE svg PUBLIC "-//W3C//DTD SVG 20010904//EN"
 "http://www.w3.org/TR/2001/REC-SVG-20010904/DTD/svg10.dtd">
<svg version="1.0" xmlns="http://www.w3.org/2000/svg"
 width="272.000000pt" height="247.000000pt" viewBox="0 0 272.000000 247.000000"
 preserveAspectRatio="xMidYMid meet">
<metadata>
Created by potrace 1.15, written by Peter Selinger 2001-2017
</metadata>
<g transform="translate(0.000000,247.000000) scale(0.100000,-0.100000)"
fill="#000000" stroke="none">
<path d="M1547 1893 c-4 -3 -7 -15 -7 -25 0 -16 9 -18 73 -18 46 0 80 -5 92
-14 17 -12 17 -15 2 -54 -15 -38 -15 -44 3 -109 11 -37 20 -71 20 -76 0 -13
-633 -4 -637 9 -2 7 18 17 49 24 110 26 141 69 58 82 -25 3 -111 7 -192 7
-116 1 -148 -2 -148 -12 0 -23 53 -65 97 -76 76 -20 81 -59 19 -139 -90 -116
-102 -128 -118 -114 -22 18 -93 41 -164 52 -125 20 -275 -31 -370 -126 -92
-93 -134 -194 -134 -324 0 -342 356 -555 665 -397 62 31 146 123 185 202 19
39 35 72 36 74 2 2 30 0 64 -4 85 -10 111 -37 98 -103 -5 -30 -17 -53 -30 -64
-27 -20 -22 -27 23 -34 40 -6 73 10 50 25 -11 7 -11 18 0 65 7 31 16 56 21 56
16 0 48 41 48 63 0 12 17 40 38 63 20 23 82 92 137 155 109 125 136 156 217
243 52 56 56 59 66 39 10 -17 4 -27 -36 -73 -91 -101 -122 -179 -122 -305 0
-166 66 -294 194 -377 247 -159 569 -61 673 206 24 61 28 86 28 171 0 75 -5
113 -20 150 -61 159 -181 258 -352 291 -82 15 -135 11 -223 -20 -25 -9 -48
-16 -52 -16 -8 0 -40 68 -63 134 -8 23 -23 66 -34 96 -25 65 -26 77 -7 61 8
-7 40 -15 70 -18 53 -6 56 -5 66 21 12 31 13 116 2 132 -13 20 -53 26 -97 14
l-43 -12 -37 41 -37 41 -82 0 c-46 0 -86 -3 -89 -7z m216 -397 c4 -11 -38 -73
-73 -106 -11 -11 -98 -109 -155 -175 -33 -38 -78 -90 -101 -115 -23 -25 -49
-55 -60 -67 -10 -13 -22 -23 -26 -23 -15 0 -8 39 8 48 40 22 -25 44 -65 22
-17 -8 -25 11 -90 205 -39 117 -71 216 -71 219 0 3 141 6 314 6 260 0 315 -2
319 -14z m-620 -298 c47 -144 84 -264 82 -266 -2 -3 -33 -1 -68 2 l-64 7 -6
77 c-9 113 -40 188 -113 276 l-33 38 52 64 c29 34 55 63 58 63 3 1 45 -117 92
-261z m-368 126 c25 -9 45 -23 45 -30 0 -7 -19 -37 -43 -66 -24 -29 -59 -78
-79 -109 -20 -31 -52 -69 -72 -84 -35 -27 -48 -66 -26 -80 5 -3 42 -10 82 -15
40 -4 111 -18 158 -29 47 -11 97 -21 112 -21 15 0 29 -4 33 -10 10 -16 -48
-113 -100 -166 -73 -73 -141 -97 -260 -91 -113 5 -169 30 -246 106 -91 92
-126 218 -95 341 34 135 134 234 271 271 45 12 169 3 220 -17z m1478 -9 c71
-33 142 -104 176 -175 21 -44 26 -74 29 -147 4 -86 2 -97 -26 -155 -42 -89
-91 -142 -170 -180 -89 -44 -206 -51 -294 -18 -175 65 -278 276 -219 448 17
50 79 152 92 152 4 0 24 -30 45 -66 22 -37 67 -97 102 -133 34 -36 69 -74 77
-83 19 -22 39 -23 59 -2 26 26 19 52 -21 78 -67 42 -136 128 -166 204 -23 58
-22 61 21 79 96 41 206 41 295 -2z m-1289 -151 c24 -51 50 -191 36 -199 -7 -4
-195 23 -252 37 -21 5 -38 13 -38 19 0 10 117 166 158 211 l26 28 22 -21 c13
-12 34 -45 48 -75z"/>
</g>
</svg>
