<?xml version="1.0" standalone="no"?>
<!DOCTYPE svg PUBLIC "-//W3C//DTD SVG 20010904//EN"
 "http://www.w3.org/TR/2001/REC-SVG-20010904/DTD/svg10.dtd">
<svg version="1.0" xmlns="http://www.w3.org/2000/svg"
 width="272.000000pt" height="247.000000pt" viewBox="0 0 272.000000 247.000000"
 preserveAspectRatio="xMidYMid meet">
<metadata>
Created by potrace 1.15, written by Peter Selinger 2001-2017
</metadata>
<g transform="translate(0.000000,247.000000) scale(0.100000,-0.100000)"
fill="#000000" stroke="none">
<path d="M438 2289 c-17 -9 -18 -70 -18 -1054 0 -982 1 -1045 18 -1057 9 -7
22 -22 28 -33 11 -20 25 -20 860 -23 467 -1 859 0 872 3 12 3 22 12 22 20 0 8
10 20 23 26 12 7 25 17 29 23 4 6 8 475 8 1042 0 986 -1 1032 -18 1047 -17 16
-94 17 -913 17 -589 -1 -900 -4 -911 -11z m1811 -23 c8 -9 11 -45 9 -98 l-3
-83 -907 -3 -908 -2 0 93 c0 52 3 97 7 100 3 4 408 7 898 7 754 0 894 -2 904
-14z m11 -1134 c0 -504 -4 -923 -8 -930 -7 -10 -195 -12 -908 -10 l-899 3 -3
924 c-1 548 2 927 7 930 5 3 415 5 910 3 l901 -2 0 -918z m-65 -977 c0 -7
-293 -11 -852 -13 -756 -2 -853 0 -853 13 0 13 97 15 853 13 559 -2 852 -6
852 -13z"/>
<path d="M1147 2213 c-11 -11 -8 -68 5 -81 9 -9 85 -12 280 -12 l268 0 6 24
c3 13 4 35 2 47 l-3 24 -276 3 c-151 1 -278 -1 -282 -5z m541 -40 l-3 -28
-260 0 -260 0 -3 28 -3 27 266 0 266 0 -3 -27z"/>
<path d="M575 1914 l-25 -27 0 -746 c0 -692 2 -748 18 -767 9 -12 27 -27 39
-33 15 -8 232 -11 745 -11 663 0 726 1 748 17 14 9 28 22 32 27 4 6 8 352 8
768 l0 757 -22 21 c-22 20 -31 20 -770 20 l-749 0 -24 -26z m1535 -16 c20 -21
20 -31 20 -758 0 -650 -2 -738 -16 -758 l-15 -22 -749 0 -749 0 -15 22 c-14
20 -16 109 -16 760 0 725 0 738 20 758 20 20 33 20 760 20 l739 0 21 -22z"/>
<path d="M617 1883 c-4 -3 -7 -341 -7 -750 l0 -743 735 0 735 0 5 22 c3 13 4
349 3 748 l-3 725 -731 3 c-402 1 -734 -1 -737 -5z m1451 -745 l2 -728 -720 0
-720 0 0 730 0 730 718 -2 717 -3 3 -727z"/>
<path d="M960 1710 c-106 -20 -200 -135 -200 -246 0 -57 38 -140 86 -187 24
-24 41 -47 37 -50 -10 -11 -92 -8 -114 3 -15 9 -19 22 -19 70 0 33 -4 60 -10
60 -6 0 -10 -28 -10 -64 0 -103 -49 -96 622 -96 670 0 618 -8 618 100 0 33 -4
60 -10 60 -5 0 -10 -24 -10 -54 0 -61 -18 -89 -54 -84 -14 2 -20 9 -19 23 11
92 21 250 17 257 -3 4 -68 8 -144 8 -136 0 -139 0 -142 -22 -2 -13 -15 -29
-30 -36 -26 -12 -28 -17 -28 -77 0 -79 6 -95 35 -95 27 0 58 -26 52 -44 -4
-11 -218 -22 -244 -12 -9 4 1 20 31 49 62 63 81 107 81 192 -1 104 -47 180
-140 228 -35 18 -60 20 -205 22 -91 1 -181 -1 -200 -5z m141 -25 c61 -22 125
-87 145 -148 32 -97 -4 -204 -91 -266 -42 -31 -58 -36 -116 -39 -86 -5 -132
10 -184 62 -95 95 -98 235 -7 330 69 71 161 93 253 61z m120 3 c51 -15 114
-70 141 -121 29 -57 28 -148 -2 -206 -39 -77 -115 -131 -184 -131 -30 0 -30 1
45 73 42 39 81 85 87 100 31 75 1 149 -91 227 -36 30 -66 58 -66 63 -1 10 26
9 70 -5z m137 -14 c81 -33 140 -142 128 -237 -11 -94 -93 -189 -176 -203 l-35
-6 68 64 c80 75 97 104 97 170 0 67 -27 114 -98 173 -84 69 -80 78 16 39z
m510 -310 c3 -75 1 -85 -22 -110 -22 -27 -30 -29 -96 -29 -99 0 -110 14 -110
136 l0 90 113 -3 112 -3 3 -81z"/>
<path d="M945 1616 c-85 -38 -119 -141 -75 -230 29 -60 80 -91 151 -91 49 0
63 5 96 31 54 43 75 88 70 151 -8 116 -132 188 -242 139z m153 -26 c102 -62
93 -211 -16 -264 -54 -27 -125 -15 -168 28 -24 24 -44 76 -44 113 0 109 132
181 228 123z"/>
<path d="M1215 1096 c-16 -8 -73 -31 -125 -51 -52 -19 -104 -40 -115 -45 -11
-5 -60 -24 -110 -44 -85 -33 -90 -36 -88 -63 1 -15 4 -64 6 -108 5 -95 22
-137 76 -190 23 -21 41 -43 41 -47 0 -12 -108 -10 -131 2 -15 9 -19 22 -19 70
0 35 -4 60 -10 60 -7 0 -10 -25 -8 -67 3 -60 6 -69 27 -79 18 -9 172 -12 603
-11 561 2 580 3 594 21 16 23 20 136 4 136 -6 0 -10 -27 -10 -60 0 -70 -11
-80 -89 -80 -57 0 -64 11 -33 51 10 13 25 40 34 59 22 47 51 191 41 201 -5 5
-98 9 -208 9 -192 2 -200 1 -214 -19 -7 -12 -18 -21 -23 -21 -13 0 -40 -28
-55 -58 -19 -35 -16 -82 7 -119 24 -41 53 -56 115 -63 37 -4 51 -10 53 -22 3
-17 -11 -18 -183 -18 -201 0 -199 -1 -141 51 57 49 99 173 67 194 -6 3 -6 18
0 38 15 52 11 108 -8 122 -13 9 -16 25 -14 62 3 60 -12 103 -36 103 -10 0 -31
-7 -48 -14z m61 -95 c-2 -30 -9 -57 -15 -60 -5 -3 -106 -21 -225 -40 -178 -28
-219 -31 -231 -21 -24 20 -6 32 145 89 74 28 144 56 155 61 11 6 49 21 85 34
60 23 66 23 78 8 10 -12 12 -34 8 -71z m39 -91 c10 -16 -23 -117 -41 -124 -27
-11 -424 -7 -445 4 -10 6 -19 21 -19 33 0 21 10 24 223 58 249 41 273 43 282
29z m559 -125 c-1 -70 -43 -173 -89 -217 -24 -24 -36 -28 -85 -28 -67 0 -96
18 -135 84 -41 70 -69 186 -51 214 6 9 50 12 184 10 l177 -3 -1 -60z m-560
-34 c3 -5 -2 -30 -12 -56 -71 -193 -384 -208 -476 -23 -47 94 -62 88 228 88
140 0 257 -4 260 -9z"/>
</g>
</svg>
