<?xml version="1.0" standalone="no"?>
<!DOCTYPE svg PUBLIC "-//W3C//DTD SVG 20010904//EN"
 "http://www.w3.org/TR/2001/REC-SVG-20010904/DTD/svg10.dtd">
<svg version="1.0" xmlns="http://www.w3.org/2000/svg"
 width="272.000000pt" height="247.000000pt" viewBox="0 0 272.000000 247.000000"
 preserveAspectRatio="xMidYMid meet">
<metadata>
Created by potrace 1.15, written by Peter Selinger 2001-2017
</metadata>
<g transform="translate(0.000000,247.000000) scale(0.100000,-0.100000)"
fill="#000000" stroke="none">
<path d="M433 2180 c-23 -9 -23 -11 -23 -219 0 -181 2 -210 16 -215 20 -8 518
-8 538 0 14 5 16 34 16 215 l0 209 -26 10 c-32 12 -491 12 -521 0z m485 -217
l-3 -158 -220 0 -220 0 -3 158 -3 157 226 0 226 0 -3 -157z"/>
<path d="M1103 2178 c-23 -11 -23 -14 -23 -202 l0 -190 -66 -67 c-46 -46 -65
-72 -61 -83 6 -15 49 -16 414 -14 476 3 455 -3 349 106 l-66 69 0 186 c0 174
-1 187 -19 197 -27 14 -499 12 -528 -2z m487 -231 c0 -186 2 -193 60 -244 l25
-22 -305 -1 -304 0 37 38 37 38 0 182 0 182 225 0 225 0 0 -173z"/>
<path d="M1770 2170 c-19 -19 -20 -33 -20 -206 0 -109 4 -193 10 -205 10 -18
24 -19 278 -19 195 0 271 3 280 12 9 9 12 70 12 215 l0 203 -26 10 c-14 6
-135 10 -270 10 -231 0 -245 -1 -264 -20z m498 -207 l-3 -158 -222 -3 -223 -2
0 160 0 160 225 0 226 0 -3 -157z"/>
<path d="M483 1613 c-7 -2 -13 -18 -13 -34 0 -26 -4 -29 -30 -29 -27 0 -30 -3
-30 -29 0 -25 4 -30 28 -33 26 -3 27 -6 30 -64 3 -57 1 -64 -28 -92 -42 -42
-42 -92 0 -134 27 -26 35 -29 68 -24 20 4 47 6 60 6 28 -1 96 -1 125 0 12 0
39 -2 59 -6 33 -5 41 -2 68 24 41 42 41 89 -1 136 -27 32 -30 40 -27 93 l3 58
93 3 92 3 0 29 0 29 -92 3 -93 3 -5 30 c-4 24 -10 30 -30 30 -20 0 -26 -6 -30
-30 -4 -25 -10 -31 -37 -33 -29 -3 -32 -1 -35 30 -2 28 -7 33 -28 33 -21 0
-26 -5 -28 -33 -3 -31 -6 -33 -35 -30 -27 2 -33 8 -37 33 -5 29 -22 39 -47 28z"/>
<path d="M2068 1462 c-32 -19 -58 -68 -58 -106 0 -22 4 -26 30 -26 25 0 30 4
30 23 0 31 35 67 65 67 14 0 34 -9 45 -20 17 -17 20 -33 20 -125 l0 -105 -31
0 c-28 0 -30 -2 -27 -32 2 -28 8 -34 31 -36 24 -3 28 -7 25 -30 l-3 -27 -412
-3 -413 -2 0 29 c0 25 4 30 28 33 22 2 28 8 30 36 3 30 1 32 -27 32 -23 0 -31
5 -31 18 0 38 -18 42 -198 42 l-174 0 -11 -30 c-9 -24 -17 -30 -40 -30 -26 0
-28 -3 -25 -32 2 -28 8 -34 31 -36 24 -3 28 -7 25 -30 l-3 -27 -280 -5 -280
-5 0 -375 0 -375 944 -3 c689 -1 947 1 957 9 11 9 14 80 14 368 0 371 -1 381
-42 381 -17 0 -18 13 -18 163 0 176 -12 226 -61 261 -31 21 -106 20 -141 -2z
m-768 -352 l0 -60 -125 0 -125 0 0 60 0 60 125 0 125 0 0 -60z m-380 -225 l0
-95 -225 0 -225 0 0 95 0 95 225 0 225 0 0 -95z m825 -220 l0 -310 -377 -3
-378 -2 0 315 0 315 378 -2 377 -3 0 -310z m525 220 l0 -95 -225 0 -225 0 0
95 0 95 225 0 225 0 0 -95z m-1355 -350 l0 -190 -220 0 -220 0 -3 180 c-1 98
0 185 3 192 3 11 51 13 222 11 l218 -3 0 -190z m1090 0 l0 -190 -92 -3 -93 -3
0 196 0 196 93 -3 92 -3 0 -190z m253 187 c9 -7 12 -52 10 -193 l-3 -184 -95
0 -95 0 -3 180 c-1 98 0 185 2 192 6 15 162 19 184 5z"/>
<path d="M1062 782 c-9 -7 -12 -51 -10 -188 l3 -179 309 -3 c241 -2 311 1 318
10 4 7 8 86 8 175 0 134 -3 164 -16 177 -13 14 -55 16 -307 16 -161 0 -298 -4
-305 -8z m558 -182 l0 -130 -252 2 -253 3 -3 114 c-1 63 0 121 2 128 4 10 58
13 256 13 l250 0 0 -130z"/>
</g>
</svg>
