<?xml version="1.0" standalone="no"?>
<!DOCTYPE svg PUBLIC "-//W3C//DTD SVG 20010904//EN"
 "http://www.w3.org/TR/2001/REC-SVG-20010904/DTD/svg10.dtd">
<svg version="1.0" xmlns="http://www.w3.org/2000/svg"
 width="272.000000pt" height="247.000000pt" viewBox="0 0 272.000000 247.000000"
 preserveAspectRatio="xMidYMid meet">
<metadata>
Created by potrace 1.15, written by Peter Selinger 2001-2017
</metadata>
<g transform="translate(0.000000,247.000000) scale(0.100000,-0.100000)"
fill="#000000" stroke="none">
<path d="M403 2172 c-15 -10 -26 -59 -63 -302 -17 -113 -36 -218 -41 -234 -7
-23 -5 -34 7 -48 14 -15 37 -18 148 -20 l131 -3 3 -612 2 -613 -68 0 c-40 0
-73 -5 -80 -12 -17 -17 -15 -42 6 -61 16 -14 44 -17 189 -17 152 0 172 2 186
18 38 41 5 70 -83 74 l-65 3 -3 604 c-2 477 0 606 10 613 7 4 70 8 140 8 111
0 128 2 137 18 10 18 2 108 -18 217 -21 117 -40 231 -46 284 -12 92 -11 91
-262 91 -120 0 -223 -4 -230 -8z m415 -159 c6 -43 18 -123 27 -178 9 -55 19
-119 22 -142 l5 -43 -237 0 -237 0 5 48 c3 26 12 90 21 142 8 52 21 130 27
173 l13 77 171 0 171 0 12 -77z"/>
<path d="M1193 1718 c-4 -7 -10 -83 -13 -168 l-5 -155 -70 -6 c-107 -9 -133
-26 -159 -104 -14 -39 -16 -116 -16 -513 0 -488 2 -512 43 -520 34 -7 47 17
47 82 l0 61 650 0 650 0 0 -56 c0 -58 18 -89 51 -89 38 0 39 10 39 533 0 562
2 543 -64 583 -29 18 -62 19 -421 24 l-390 5 -3 154 c-1 93 -7 160 -13 168
-16 18 -314 19 -326 1z m247 -198 l0 -120 -85 0 -85 0 0 120 0 120 85 0 85 0
0 -120z m864 -226 c14 -5 16 -27 16 -140 l0 -134 -647 2 -648 3 -3 125 c-2
109 0 126 15 137 13 10 153 13 634 13 340 0 624 -3 633 -6z m-679 -584 l0
-225 -287 -3 c-250 -2 -288 0 -302 14 -14 13 -16 47 -16 224 0 157 3 210 13
213 6 3 143 5 302 4 l290 -2 0 -225z m695 5 l0 -225 -22 -5 c-13 -3 -147 -4
-298 -3 l-275 3 -3 215 c-1 118 0 220 2 227 4 10 71 13 301 13 l295 0 0 -225z"/>
</g>
</svg>
