<?xml version="1.0" standalone="no"?>
<!DOCTYPE svg PUBLIC "-//W3C//DTD SVG 20010904//EN"
 "http://www.w3.org/TR/2001/REC-SVG-20010904/DTD/svg10.dtd">
<svg version="1.0" xmlns="http://www.w3.org/2000/svg"
 width="272.000000pt" height="247.000000pt" viewBox="0 0 272.000000 247.000000"
 preserveAspectRatio="xMidYMid meet">
<metadata>
Created by potrace 1.15, written by Peter Selinger 2001-2017
</metadata>
<g transform="translate(0.000000,247.000000) scale(0.100000,-0.100000)"
fill="#000000" stroke="none">
<path d="M1320 2258 c-25 -28 -26 -60 0 -83 11 -10 20 -22 20 -26 0 -5 -71
-55 -157 -112 -343 -223 -437 -285 -557 -362 -177 -114 -172 -109 -95 -115
l64 -5 3 -647 2 -648 194 0 195 0 3 -27 3 -28 375 0 375 0 3 28 3 27 194 0
194 0 -6 650 -6 650 77 0 c54 0 75 3 70 11 -3 6 -52 41 -108 77 -55 36 -159
103 -231 150 -71 47 -160 104 -197 128 -260 169 -328 215 -328 223 0 4 9 16
20 26 43 39 8 105 -55 105 -22 0 -41 -8 -55 -22z m122 -258 c25 -47 84 -156
132 -243 47 -87 86 -160 86 -162 0 -3 -128 -5 -285 -5 -267 0 -284 1 -278 18
3 9 25 51 48 92 50 89 99 179 150 275 67 126 76 138 90 123 7 -7 33 -51 57
-98z m-165 -6 c-30 -55 -56 -103 -58 -109 -2 -5 -39 -74 -82 -152 l-79 -143
-251 0 c-295 0 -289 -13 -67 130 138 88 297 191 495 320 49 32 91 57 93 55 2
-1 -21 -47 -51 -101z m365 -35 c112 -73 221 -144 243 -159 22 -15 89 -58 148
-96 60 -38 121 -79 135 -91 l27 -22 -252 -1 -252 0 -14 28 c-25 50 -100 187
-107 197 -4 6 -31 55 -60 110 -29 55 -61 115 -72 133 -11 17 -15 32 -9 32 5 0
101 -59 213 -131z m-632 -796 l0 -398 -185 3 -185 3 0 394 0 395 185 0 185 0
0 -397z m670 2 l0 -395 -310 0 -310 0 0 395 0 395 310 0 310 0 0 -395z m408
-2 l2 -393 -180 0 -180 0 0 395 0 395 178 -2 177 -3 3 -392z m-368 -688 l0
-45 -355 0 -355 0 0 45 0 45 355 0 355 0 0 -45z m-5 -105 l0 -35 -345 0 -345
0 -3 23 c-8 54 -20 52 350 50 l343 -3 0 -35z m5 -100 l0 -40 -355 0 -355 0 0
40 0 40 355 0 355 0 0 -40z"/>
</g>
</svg>
