<?xml version="1.0" standalone="no"?>
<!DOCTYPE svg PUBLIC "-//W3C//DTD SVG 20010904//EN"
 "http://www.w3.org/TR/2001/REC-SVG-20010904/DTD/svg10.dtd">
<svg version="1.0" xmlns="http://www.w3.org/2000/svg"
 width="272.000000pt" height="247.000000pt" viewBox="0 0 272.000000 247.000000"
 preserveAspectRatio="xMidYMid meet">
<metadata>
Created by potrace 1.15, written by Peter Selinger 2001-2017
</metadata>
<g transform="translate(0.000000,247.000000) scale(0.100000,-0.100000)"
fill="#000000" stroke="none">
<path d="M541 1814 c-22 -28 -37 -85 -28 -108 4 -10 -13 -15 -75 -19 -77 -6
-83 -9 -113 -42 -39 -42 -45 -68 -45 -194 l0 -97 -40 -23 c-73 -41 -100 -133
-61 -209 22 -43 46 -67 79 -76 21 -7 22 -12 22 -104 0 -118 11 -159 50 -197
25 -24 39 -29 103 -33 l75 -4 6 -51 c4 -35 13 -59 30 -76 23 -22 34 -25 135
-29 60 -2 121 -2 135 2 l26 6 0 245 0 245 528 -2 527 -3 3 -235 c2 -207 4
-237 19 -247 18 -14 190 -17 228 -5 51 17 60 29 65 89 l5 58 77 6 c60 5 83 12
106 30 39 31 42 43 42 177 l0 113 33 14 c17 7 45 27 61 44 24 25 30 42 34 88
5 75 -8 106 -60 142 -24 17 -49 35 -56 41 -8 8 -12 47 -12 130 0 113 -1 120
-26 149 -28 34 -86 54 -143 50 -52 -4 -61 5 -61 60 0 37 -5 52 -23 70 -23 20
-32 21 -153 19 l-129 -3 -3 -242 -2 -243 -530 0 -530 0 -2 243 -3 242 -137 3
-136 3 -21 -27z m244 -614 l0 -595 -94 -3 c-77 -2 -97 0 -112 14 -18 16 -19
43 -19 585 l0 568 23 16 c17 12 43 15 112 13 l90 -3 0 -595z m1367 583 c17
-15 18 -47 18 -589 0 -557 -1 -574 -19 -584 -28 -14 -184 -13 -199 2 -17 17
-17 1159 0 1176 19 19 177 16 200 -5z m-1637 -583 l0 -435 -66 -3 c-64 -3 -68
-2 -93 28 l-26 32 0 375 0 376 26 34 c25 33 27 34 92 31 l67 -3 0 -435z m1858
415 l27 -26 0 -389 0 -389 -25 -26 c-22 -21 -35 -25 -89 -25 -49 0 -65 4 -70
16 -8 20 -8 828 0 848 5 12 21 16 68 16 52 0 65 -4 89 -25z m-475 -418 l-3
-102 -525 0 -525 0 -3 94 c-1 52 -1 99 1 105 3 8 162 10 531 8 l527 -2 -3
-103z"/>
</g>
</svg>
