<?xml version="1.0" standalone="no"?>
<!DOCTYPE svg PUBLIC "-//W3C//DTD SVG 20010904//EN"
 "http://www.w3.org/TR/2001/REC-SVG-20010904/DTD/svg10.dtd">
<svg version="1.0" xmlns="http://www.w3.org/2000/svg"
 width="272.000000pt" height="247.000000pt" viewBox="0 0 272.000000 247.000000"
 preserveAspectRatio="xMidYMid meet">
<metadata>
Created by potrace 1.15, written by Peter Selinger 2001-2017
</metadata>
<g transform="translate(0.000000,247.000000) scale(0.100000,-0.100000)"
fill="#000000" stroke="none">
<path d="M717 1893 c-13 -21 -35 -58 -48 -83 -13 -25 -27 -46 -31 -48 -5 -2
-8 -8 -8 -14 0 -6 -27 -55 -60 -110 -33 -54 -60 -101 -60 -103 0 -2 -16 -27
-35 -56 -19 -30 -35 -59 -35 -66 0 -7 -4 -13 -10 -13 -5 0 -10 -5 -10 -11 0
-6 -27 -56 -60 -111 -33 -54 -60 -103 -60 -108 0 -5 -6 -15 -13 -22 -6 -7 -23
-33 -36 -58 -14 -25 -27 -47 -30 -50 -3 -3 -16 -25 -29 -50 -13 -25 -34 -63
-47 -85 -22 -37 -24 -51 -25 -176 0 -119 2 -138 18 -152 17 -16 117 -17 1228
-17 665 0 1215 4 1222 9 17 10 13 338 -4 349 -11 7 -53 77 -96 162 -13 25 -25
47 -28 50 -13 13 -80 129 -80 139 0 6 -4 11 -10 11 -5 0 -10 5 -10 11 0 6 -23
48 -50 94 -28 46 -50 87 -50 93 0 6 -4 12 -8 14 -10 4 -82 125 -82 138 0 4 -3
10 -7 12 -5 2 -19 26 -33 53 -14 28 -28 52 -31 55 -8 8 -79 127 -79 134 0 3
-8 15 -17 26 -17 20 -29 20 -640 20 l-623 0 -23 -37z m340 -35 c9 -7 13 -7 13
1 0 6 16 11 36 11 l36 0 -7 -52 c-3 -29 -12 -80 -20 -113 -13 -58 -29 -140
-46 -235 -9 -49 -29 -151 -53 -275 -9 -44 -23 -116 -30 -160 -8 -44 -17 -87
-19 -95 -3 -8 -8 -27 -11 -42 l-6 -28 -190 1 c-140 0 -190 3 -191 12 0 9 -2 9
-6 0 -7 -18 -293 -17 -294 0 0 9 -2 9 -6 0 -6 -15 -53 -18 -53 -3 0 5 13 32
30 58 17 27 30 54 30 60 0 6 3 12 8 14 9 4 82 126 82 139 0 5 4 9 9 9 6 0 12
-15 14 -32 3 -23 4 -17 5 19 2 42 10 66 43 120 23 38 45 70 50 73 5 3 20 28
35 55 14 28 31 53 37 57 7 4 13 18 14 32 2 25 62 128 82 141 6 3 9 11 6 16 -4
5 3 22 14 38 12 16 21 32 21 35 0 3 20 39 45 79 l45 74 132 1 c82 1 137 -3
145 -10z m184 0 c0 -10 2 -10 6 0 2 6 16 12 29 12 20 0 24 -5 26 -32 l1 -33 4
32 4 33 118 -1 119 -1 17 -75 c10 -43 15 -91 12 -115 -4 -26 -2 -37 3 -28 14
23 23 -12 24 -100 1 -43 4 -73 8 -67 9 15 14 -1 28 -78 16 -85 37 -197 55
-290 27 -134 42 -235 37 -240 -3 -3 -25 -5 -49 -5 -34 0 -43 4 -44 18 -1 16
-2 16 -6 0 -4 -14 -15 -18 -59 -18 l-54 0 -1 43 -2 42 -6 -40 -6 -40 -52 -3
-53 -3 -2 228 -3 228 -2 -227 -3 -228 -65 0 -65 0 -2 58 -2 57 -3 -57 -4 -58
-59 0 c-41 0 -60 4 -61 13 0 9 -2 10 -6 0 -3 -9 -27 -13 -69 -13 l-64 0 0 29
c0 17 5 33 10 36 6 3 10 21 10 40 0 19 5 46 11 62 6 15 13 48 16 73 2 24 11
52 19 61 12 13 13 18 2 21 -10 4 -11 12 -1 39 6 19 15 63 18 99 4 35 11 71 15
80 7 13 19 77 37 188 3 21 11 32 22 32 13 0 13 2 2 9 -9 6 -12 19 -7 42 4 19
11 61 16 94 15 90 18 95 51 95 16 0 29 -6 30 -12z m390 -5 c1 -16 2 -16 6 -1
3 13 18 16 79 17 51 0 74 -3 74 -11 0 -9 3 -9 12 0 7 7 20 12 30 12 10 0 18
-5 18 -12 0 -9 3 -9 12 0 16 16 68 15 69 0 0 -10 2 -10 6 0 6 15 23 16 23 1 0
-6 33 -66 73 -133 88 -145 130 -233 123 -252 -3 -8 -2 -22 2 -31 5 -15 7 -13
12 10 5 25 10 19 68 -77 34 -57 62 -109 62 -115 0 -6 5 -11 10 -11 6 0 10 -4
10 -9 0 -6 16 -36 35 -68 35 -59 43 -79 25 -68 -6 3 -7 -1 -4 -9 3 -9 10 -16
14 -16 13 0 77 -102 93 -150 9 -25 16 -39 17 -32 0 10 3 10 15 -2 8 -8 15 -17
15 -19 0 -3 -61 -6 -135 -6 -123 -2 -135 0 -135 16 -1 17 -1 17 -11 1 -8 -14
-26 -17 -111 -17 -69 0 -105 4 -110 12 -6 9 -8 9 -8 0 0 -9 -19 -13 -59 -13
-51 0 -62 4 -76 23 l-17 22 7 -22 c6 -22 3 -23 -43 -23 -58 0 -58 -1 -77 115
-8 44 -17 92 -21 107 -3 15 -4 33 -1 40 6 17 4 34 -4 31 -6 -2 -13 29 -39 167
-6 30 -18 89 -26 130 -9 41 -17 93 -18 115 -1 22 -10 63 -18 90 -9 28 -19 73
-23 100 -3 28 -8 62 -11 78 -5 22 -2 27 15 27 13 0 21 -7 22 -17z m-681 -1057
l0 -45 48 -3 c34 -2 47 -7 47 -18 0 -11 -13 -16 -47 -18 l-48 -3 0 -40 0 -39
-380 0 -380 0 0 105 0 105 380 0 380 0 0 -44z m800 -1 l0 -45 46 0 c38 0 45
-3 42 -17 -2 -13 -15 -19 -46 -21 -42 -3 -42 -3 -42 -43 l0 -39 -382 2 c-374
3 -383 3 -383 23 0 15 9 21 39 26 39 6 56 21 56 51 0 34 -13 48 -51 54 -43 7
-54 17 -45 39 5 13 62 15 386 15 l380 0 0 -45z m790 -60 l0 -105 -380 0 -380
0 0 25 c0 22 4 25 35 25 26 0 39 6 51 25 26 39 6 73 -46 81 -34 6 -40 10 -40
30 l0 24 380 0 380 0 0 -105z"/>
</g>
</svg>
