<?xml version="1.0" standalone="no"?>
<!DOCTYPE svg PUBLIC "-//W3C//DTD SVG 20010904//EN"
 "http://www.w3.org/TR/2001/REC-SVG-20010904/DTD/svg10.dtd">
<svg version="1.0" xmlns="http://www.w3.org/2000/svg"
 width="272.000000pt" height="247.000000pt" viewBox="0 0 272.000000 247.000000"
 preserveAspectRatio="xMidYMid meet">
<metadata>
Created by potrace 1.15, written by Peter Selinger 2001-2017
</metadata>
<g transform="translate(0.000000,247.000000) scale(0.100000,-0.100000)"
fill="#000000" stroke="none">
<path d="M1165 2275 c-186 -34 -307 -117 -373 -255 l-27 -55 0 -760 0 -760 38
-71 c21 -39 50 -83 65 -97 44 -41 142 -96 212 -118 137 -42 435 -42 574 1 145
45 247 136 294 263 22 57 22 64 22 782 0 717 0 725 -22 782 -11 32 -31 74 -44
94 -58 93 -191 167 -347 195 -100 17 -297 17 -392 -1z m345 -40 c245 -33 377
-136 411 -320 6 -33 9 -315 7 -747 l-3 -693 -26 -56 c-52 -111 -136 -178 -274
-220 -73 -22 -97 -24 -265 -23 -172 1 -191 2 -265 27 -127 42 -210 107 -260
206 -31 61 -37 214 -33 878 l3 648 31 65 c33 69 95 139 147 166 145 73 324 97
527 69z"/>
<path d="M1015 1655 c-25 -24 -27 -31 -23 -97 5 -89 15 -98 114 -98 92 0 104
13 104 110 0 92 -10 103 -98 108 -66 4 -73 2 -97 -23z m145 -90 l0 -66 -57 3
-58 3 -3 63 -3 62 61 0 60 0 0 -65z"/>
<path d="M1290 1668 c-23 -12 -25 -20 -28 -92 -4 -105 6 -116 102 -116 97 1
109 11 114 98 6 94 -12 115 -99 119 -40 3 -73 -1 -89 -9z m138 -100 l-3 -63
-48 -3 c-27 -2 -55 2 -63 9 -14 12 -20 99 -7 112 3 4 33 7 65 7 l59 0 -3 -62z"/>
<path d="M1560 1673 c-30 -11 -40 -37 -40 -108 0 -93 11 -105 104 -105 102 0
106 4 106 111 0 87 -1 90 -26 99 -27 10 -118 12 -144 3z m128 -105 l-3 -63
-55 0 -55 0 -3 63 -3 62 61 0 61 0 -3 -62z"/>
<path d="M1006 1398 c-11 -15 -16 -45 -16 -86 0 -54 4 -66 26 -89 23 -23 31
-25 96 -21 88 5 98 16 98 108 0 98 -12 110 -110 110 -70 0 -81 -2 -94 -22z"/>
<path d="M1278 1409 c-15 -8 -18 -25 -18 -94 0 -79 2 -86 25 -101 30 -20 143
-16 169 5 25 21 23 162 -2 184 -21 19 -145 24 -174 6z m150 -96 l-3 -58 -60 0
-60 0 -3 58 -3 57 66 0 66 0 -3 -57z"/>
<path d="M1536 1398 c-21 -29 -22 -146 -2 -173 16 -23 125 -33 169 -16 27 10
27 12 27 99 0 55 -4 92 -12 100 -7 7 -43 12 -89 12 -69 0 -80 -3 -93 -22z"/>
<path d="M1015 1145 c-21 -20 -25 -34 -25 -87 0 -96 12 -108 110 -108 70 0 81
2 94 22 17 23 22 143 8 164 -14 22 -52 34 -107 34 -46 0 -60 -4 -80 -25z m145
-90 l0 -66 -57 3 -58 3 -3 49 c-5 71 -1 76 63 76 l55 0 0 -65z"/>
<path d="M1546 1149 c-23 -18 -26 -27 -26 -88 0 -99 12 -111 109 -111 46 0 82
5 89 12 7 7 12 44 12 94 0 74 -2 84 -22 98 -34 24 -129 21 -162 -5z m139 -94
l0 -60 -55 0 -55 0 -3 63 -3 63 58 -3 58 -3 0 -60z"/>
<path d="M1278 1146 c-15 -11 -18 -29 -18 -94 0 -98 4 -102 114 -102 70 0 77
2 92 25 23 36 16 152 -11 171 -25 18 -154 18 -177 0z m150 -88 c3 -53 1 -58
-21 -63 -13 -4 -41 -5 -63 -3 l-39 3 -3 49 c-5 73 -1 77 65 74 l58 -3 3 -57z"/>
<path d="M1015 896 c-15 -11 -20 -29 -23 -82 -3 -59 -1 -73 18 -96 20 -26 27
-28 91 -28 94 0 109 15 109 110 0 95 -15 110 -108 110 -42 0 -75 -5 -87 -14z"/>
<path d="M1283 898 c-21 -10 -23 -18 -23 -93 0 -105 9 -115 107 -115 93 0 103
11 103 113 0 67 -3 78 -22 91 -26 19 -130 21 -165 4z m147 -98 l0 -60 -65 0
-65 0 0 60 0 60 65 0 65 0 0 -60z"/>
<path d="M1550 897 c-23 -11 -25 -19 -28 -87 -4 -102 5 -113 96 -118 106 -6
112 0 112 108 0 78 -2 91 -19 100 -27 14 -131 12 -161 -3z"/>
<path d="M1530 567 c-39 -20 -70 -74 -70 -124 0 -88 56 -143 146 -143 131 0
187 162 87 250 -28 25 -42 30 -86 30 -29 0 -63 -6 -77 -13z m143 -67 c58 -64
11 -160 -78 -160 -14 0 -39 13 -57 29 -27 24 -33 36 -33 69 0 94 104 132 168
62z"/>
<path d="M997 512 c-12 -13 -17 -36 -17 -74 0 -81 12 -88 143 -88 94 0 109 2
127 20 25 25 27 105 4 138 -14 21 -23 22 -128 22 -97 0 -115 -3 -129 -18z
m223 -77 l0 -45 -94 0 c-76 0 -95 3 -100 16 -8 21 -8 59 1 67 3 4 48 7 100 7
l93 0 0 -45z"/>
</g>
</svg>
