<?xml version="1.0" standalone="no"?>
<!DOCTYPE svg PUBLIC "-//W3C//DTD SVG 20010904//EN"
 "http://www.w3.org/TR/2001/REC-SVG-20010904/DTD/svg10.dtd">
<svg version="1.0" xmlns="http://www.w3.org/2000/svg"
 width="272.000000pt" height="247.000000pt" viewBox="0 0 272.000000 247.000000"
 preserveAspectRatio="xMidYMid meet">
<metadata>
Created by potrace 1.15, written by Peter Selinger 2001-2017
</metadata>
<g transform="translate(0.000000,247.000000) scale(0.100000,-0.100000)"
fill="#000000" stroke="none">
<path d="M592 2122 c-36 -11 -81 -60 -92 -100 -12 -46 -12 -58 0 -103 14 -49
51 -85 109 -104 43 -14 52 -14 91 0 131 46 161 184 60 280 -25 24 -40 29 -87
31 -32 2 -68 0 -81 -4z m142 -43 c87 -60 70 -192 -31 -234 -45 -19 -58 -19
-102 1 -55 24 -76 59 -76 126 0 46 4 61 25 83 53 58 122 67 184 24z"/>
<path d="M1930 1928 c0 -8 20 -35 45 -61 37 -40 45 -55 45 -86 0 -33 -6 -44
-40 -74 -45 -39 -64 -86 -54 -132 10 -44 54 -105 76 -105 18 0 17 4 -10 38
-34 42 -49 100 -34 128 6 11 29 38 51 62 49 51 54 92 17 150 -27 44 -96 100
-96 80z"/>
<path d="M1140 1873 c82 -87 88 -115 34 -165 -44 -42 -74 -89 -74 -118 0 -29
46 -112 70 -128 16 -10 20 -10 20 2 0 8 -6 21 -12 28 -24 25 -48 76 -48 100 0
15 21 49 55 88 30 35 55 71 55 80 0 47 -89 160 -126 160 -14 0 -7 -12 26 -47z"/>
<path d="M1510 1913 c0 -4 20 -28 45 -53 30 -31 47 -58 51 -81 5 -31 1 -39
-45 -86 -47 -47 -51 -55 -51 -98 0 -48 26 -106 60 -132 40 -32 40 0 0 47 -23
27 -30 44 -30 78 0 39 5 50 44 89 72 72 71 116 -5 198 -37 40 -69 58 -69 38z"/>
<path d="M571 1741 c-18 -5 -37 -15 -42 -23 -5 -7 -9 -86 -9 -176 l0 -164 -37
4 -38 3 -3 -412 -2 -413 900 0 900 0 0 409 c0 226 -3 412 -7 414 -5 2 -44 -4
-88 -14 -199 -46 -345 -49 -515 -13 -120 26 -382 26 -500 0 -117 -25 -184 -34
-262 -35 l-67 -1 -3 190 c-4 231 -3 229 -119 235 -41 2 -89 0 -108 -4z m183
-40 c14 -12 16 -39 16 -193 l0 -180 -57 5 c-63 6 -149 23 -164 32 -5 4 -9 75
-9 159 0 154 5 176 40 190 28 10 157 1 174 -13z m-235 -365 c12 -15 28 -17
230 -35 134 -12 233 -5 376 26 116 25 396 24 525 -2 145 -30 398 -22 506 17
67 24 65 39 62 -374 l-3 -373 -872 -3 -873 -2 0 380 c0 365 1 380 19 380 10 0
24 -6 30 -14z"/>
<path d="M2290 985 l0 -465 -945 0 -945 0 0 444 c0 244 -3 451 -6 460 -5 13
-25 16 -115 16 l-109 0 0 -560 0 -560 1175 0 1175 0 -2 563 -3 562 -112 3
-113 3 0 -466z m198 -101 l-3 -535 -1143 -2 -1142 -2 0 533 0 532 85 0 85 0 0
-455 0 -455 975 0 975 0 0 460 0 460 85 0 85 0 -2 -536z"/>
</g>
</svg>
