<?xml version="1.0" standalone="no"?>
<!DOCTYPE svg PUBLIC "-//W3C//DTD SVG 20010904//EN"
 "http://www.w3.org/TR/2001/REC-SVG-20010904/DTD/svg10.dtd">
<svg version="1.0" xmlns="http://www.w3.org/2000/svg"
 width="272.000000pt" height="247.000000pt" viewBox="0 0 272.000000 247.000000"
 preserveAspectRatio="xMidYMid meet">
<metadata>
Created by potrace 1.15, written by Peter Selinger 2001-2017
</metadata>
<g transform="translate(0.000000,247.000000) scale(0.100000,-0.100000)"
fill="#000000" stroke="none">
<path d="M552 2188 c-7 -7 -12 -37 -12 -68 0 -54 -2 -59 -51 -111 -53 -57
-181 -197 -212 -233 -10 -12 -39 -43 -63 -69 -49 -53 -53 -69 -24 -94 20 -17
20 -30 20 -645 0 -624 0 -627 -21 -647 -14 -13 -19 -26 -14 -40 5 -18 14 -21
65 -21 44 0 59 4 64 16 8 22 8 21 -14 42 -20 18 -20 29 -18 318 l3 299 75 0
75 0 5 -335 c3 -184 7 -336 8 -337 1 -2 10 -3 21 -3 23 0 38 17 43 50 3 23 8
25 57 28 82 5 99 -2 103 -41 2 -27 7 -32 28 -32 l25 0 3 324 c1 225 6 329 14
338 8 10 30 13 77 11 l66 -3 3 -297 c2 -296 2 -297 -20 -318 -18 -16 -20 -24
-12 -38 14 -22 123 -30 135 -10 13 19 11 26 -11 45 -19 17 -20 30 -20 295 0
216 3 278 13 278 6 -1 30 -7 52 -15 121 -45 352 -66 485 -46 139 21 182 30
193 39 7 5 29 12 50 16 l37 7 0 -280 c0 -246 -2 -281 -16 -289 -9 -5 -14 -18
-12 -33 3 -22 8 -24 66 -27 l62 -3 0 29 c0 17 -6 32 -15 36 -13 5 -15 45 -13
308 l3 303 72 3 73 3 2 -332 c3 -303 4 -333 20 -343 25 -15 52 3 58 40 5 27 9
29 54 32 67 4 96 -4 96 -27 0 -35 12 -51 36 -51 13 0 25 1 26 3 1 1 5 153 8
337 l5 335 73 3 72 3 0 -311 c0 -275 -2 -310 -16 -310 -11 0 -14 -8 -12 -28 3
-26 5 -27 68 -27 63 0 65 1 68 28 2 19 -1 27 -12 27 -14 0 -16 66 -16 645 0
565 2 646 15 651 8 4 15 14 15 24 0 19 -7 27 -120 150 -43 47 -88 96 -100 110
-12 14 -40 45 -63 70 -91 98 -97 108 -97 165 0 57 -8 70 -40 60 -17 -5 -20
-15 -20 -65 0 -64 -7 -75 -131 -201 -25 -26 -55 -58 -65 -72 -11 -14 -55 -62
-97 -108 -78 -84 -91 -115 -62 -139 12 -10 15 -46 15 -205 0 -173 -2 -194 -18
-208 -10 -10 -26 -17 -35 -17 -9 0 -18 -4 -21 -9 -3 -5 -41 -17 -83 -27 -62
-15 -117 -19 -263 -19 -184 0 -220 5 -330 43 -83 28 -80 21 -80 235 0 181 1
192 21 213 20 21 21 25 7 46 -9 13 -33 42 -54 64 -62 67 -197 215 -240 264
-21 25 -45 49 -51 53 -8 5 -13 31 -13 66 0 43 -5 62 -18 74 -22 20 -34 21 -50
5z m245 -424 l72 -79 -145 -3 c-79 -1 -210 -1 -291 0 l-147 3 50 54 c27 29 60
65 74 80 14 15 56 62 95 105 l69 78 76 -80 c41 -44 107 -115 147 -158z m1415
175 c23 -28 66 -75 93 -104 80 -84 120 -129 129 -142 6 -10 -53 -13 -278 -13
-157 0 -286 3 -286 8 0 4 19 28 43 53 23 25 80 88 127 140 47 52 90 97 95 101
20 15 34 7 77 -43z m-1334 -636 l2 -303 -305 0 -305 0 0 299 c0 230 3 301 13
304 6 3 143 5 302 4 l290 -2 3 -302z m1570 0 l2 -303 -300 0 -300 0 0 298 c0
164 3 302 7 305 4 4 137 6 297 5 l291 -3 3 -302z"/>
<path d="M495 1511 c-47 -21 -100 -73 -122 -118 -11 -23 -14 -53 -11 -100 4
-81 33 -130 100 -174 37 -25 53 -29 111 -29 42 0 82 6 102 16 41 19 92 74 101
108 3 15 10 29 15 32 20 12 9 102 -18 154 -57 109 -175 157 -278 111z m168
-79 c39 -24 71 -93 64 -143 -10 -76 -79 -139 -153 -139 -28 0 -81 25 -105 49
-22 23 -49 81 -49 106 0 34 37 102 67 123 49 35 121 36 176 4z"/>
<path d="M2096 1521 c-3 -4 -18 -11 -33 -15 -36 -7 -82 -51 -108 -101 -23 -44
-27 -171 -7 -196 87 -106 109 -119 210 -119 62 0 74 3 113 32 52 37 64 51 85
98 19 43 20 102 3 158 -15 51 -80 121 -121 129 -16 3 -31 10 -34 14 -3 5 -27
9 -54 9 -27 0 -51 -4 -54 -9z m139 -89 c57 -48 60 -54 60 -128 0 -63 -3 -75
-25 -96 -33 -33 -83 -58 -114 -58 -82 0 -156 76 -156 161 0 40 6 53 38 89 53
60 145 75 197 32z"/>
</g>
</svg>
