<?xml version="1.0" standalone="no"?>
<!DOCTYPE svg PUBLIC "-//W3C//DTD SVG 20010904//EN"
 "http://www.w3.org/TR/2001/REC-SVG-20010904/DTD/svg10.dtd">
<svg version="1.0" xmlns="http://www.w3.org/2000/svg"
 width="272.000000pt" height="247.000000pt" viewBox="0 0 272.000000 247.000000"
 preserveAspectRatio="xMidYMid meet">
<metadata>
Created by potrace 1.15, written by Peter Selinger 2001-2017
</metadata>
<g transform="translate(0.000000,247.000000) scale(0.100000,-0.100000)"
fill="#000000" stroke="none">
<path d="M1283 2227 c-27 -14 -63 -76 -63 -110 0 -33 25 -54 45 -37 8 7 15 21
15 32 0 27 44 68 73 68 40 0 69 -31 69 -73 0 -41 -31 -76 -68 -77 -17 0 -23
-8 -28 -33 -3 -18 -16 -41 -29 -51 -12 -11 -48 -43 -79 -72 l-57 -54 -153 0
c-112 0 -164 -4 -193 -16 -22 -8 -48 -17 -57 -21 -10 -3 -18 -9 -18 -14 0 -5
-5 -9 -10 -9 -6 0 -62 -36 -125 -80 -63 -44 -119 -80 -125 -80 -5 0 -10 -3
-10 -7 0 -5 -27 -26 -60 -48 -33 -22 -62 -46 -65 -54 -3 -7 15 -45 40 -84 90
-141 220 -326 233 -331 7 -3 44 14 81 39 38 25 76 45 85 45 15 0 16 -41 16
-463 0 -347 3 -466 12 -475 9 -9 142 -12 539 -12 290 0 534 3 543 6 14 5 16
57 16 475 0 542 -9 505 105 424 l63 -46 25 23 c34 31 267 374 267 392 0 9 -28
34 -62 57 -35 24 -64 46 -66 51 -2 4 -8 8 -14 8 -6 0 -38 20 -72 43 -166 118
-194 136 -269 166 -16 6 -91 11 -183 11 l-155 0 -52 48 c-112 103 -112 102
-72 120 38 17 65 69 65 125 0 43 -5 53 -38 88 -36 36 -43 39 -93 38 -30 -1
-64 -6 -76 -12z m-191 -510 c34 -54 69 -85 132 -117 40 -20 62 -24 135 -24 75
0 92 4 136 29 64 35 89 59 123 113 l27 44 110 -4 c103 -4 114 -6 170 -38 33
-19 66 -40 73 -47 7 -7 16 -13 20 -13 4 0 23 -14 42 -30 19 -16 41 -30 48 -30
6 0 12 -4 12 -10 0 -5 6 -10 14 -10 8 0 16 -3 18 -8 2 -4 31 -25 65 -47 35
-22 63 -46 63 -53 0 -12 -20 -53 -31 -62 -3 -3 -19 -25 -34 -50 -15 -25 -31
-47 -34 -50 -3 -3 -27 -38 -54 -77 -26 -40 -49 -73 -52 -73 -17 0 -141 83
-157 105 -4 5 -8 59 -8 118 l0 108 -27 -3 -28 -3 -3 -603 -2 -602 -493 2 -492
3 -5 600 -5 600 -27 3 -28 3 0 -113 0 -114 -61 -42 c-33 -23 -65 -42 -70 -42
-5 0 -9 -4 -9 -10 0 -24 -30 -7 -55 32 -15 23 -32 47 -36 52 -5 6 -30 43 -56
81 -25 39 -49 72 -52 75 -12 10 -31 50 -31 64 0 8 14 20 30 28 17 7 30 15 30
18 0 3 16 14 35 24 19 11 35 23 35 28 0 4 6 8 13 8 7 0 22 9 34 19 36 33 197
136 233 148 19 6 78 12 130 12 l95 1 27 -43z m436 31 c21 -21 13 -36 -30 -66
-99 -67 -216 -60 -305 17 -13 11 -23 23 -23 28 0 28 29 33 185 33 112 0 165
-4 173 -12z"/>
</g>
</svg>
