<?xml version="1.0" standalone="no"?>
<!DOCTYPE svg PUBLIC "-//W3C//DTD SVG 20010904//EN"
 "http://www.w3.org/TR/2001/REC-SVG-20010904/DTD/svg10.dtd">
<svg version="1.0" xmlns="http://www.w3.org/2000/svg"
 width="272.000000pt" height="247.000000pt" viewBox="0 0 272.000000 247.000000"
 preserveAspectRatio="xMidYMid meet">
<metadata>
Created by potrace 1.15, written by Peter Selinger 2001-2017
</metadata>
<g transform="translate(0.000000,247.000000) scale(0.100000,-0.100000)"
fill="#000000" stroke="none">
<path d="M720 2218 c-50 -26 -90 -89 -90 -143 1 -46 34 -109 71 -136 46 -33
144 -34 186 -3 74 55 97 155 50 225 -26 39 -97 79 -142 79 -17 0 -51 -10 -75
-22z"/>
<path d="M789 1852 l-116 -3 35 -94 35 -95 53 0 52 0 16 43 c8 23 24 66 35 95
10 28 16 53 13 55 -4 1 -59 1 -123 -1z"/>
<path d="M982 1833 c-26 -50 -62 -169 -62 -206 0 -44 26 -218 58 -397 13 -69
16 -111 10 -123 -8 -16 -26 -17 -196 -15 l-187 3 2 71 3 70 -34 17 -35 16 -10
-47 c-42 -201 -55 -284 -45 -300 7 -10 27 -18 52 -20 l41 -3 3 -309 3 -310 27
-27 c39 -38 97 -38 136 0 l27 27 3 310 c3 299 4 310 23 310 18 0 19 -10 19
-310 l0 -311 24 -24 c32 -32 69 -40 107 -25 57 24 59 39 59 370 l0 300 38 0
c24 0 45 7 55 18 14 16 14 26 -4 117 -52 269 -89 479 -86 489 2 6 14 -20 27
-59 20 -61 32 -80 100 -148 65 -65 76 -81 72 -105 -6 -41 22 -60 91 -64 l57
-3 3 -393 c2 -377 3 -394 21 -408 29 -21 33 -18 39 27 3 22 17 57 31 78 l26
37 0 237 0 237 349 0 350 0 15 22 c21 30 20 44 -4 68 -16 16 -33 20 -80 20
l-60 0 0 74 c0 81 -16 112 -53 102 -13 -3 -21 1 -24 14 -9 34 -43 33 -56 -2
-3 -10 -13 -15 -25 -11 -36 9 -52 -22 -52 -103 l0 -75 -37 3 -38 3 -5 120 -5
120 -83 3 c-53 2 -89 -1 -98 -9 -11 -9 -14 -40 -14 -125 l0 -114 -40 0 -40 0
0 75 c0 62 -4 79 -20 95 -11 11 -26 20 -34 20 -8 0 -17 8 -20 18 -3 9 -48 55
-100 102 l-94 85 -57 141 c-63 158 -88 201 -133 227 -30 17 -31 17 -40 0z"/>
<path d="M563 1825 c-12 -8 -65 -84 -117 -169 -102 -163 -116 -206 -78 -238
32 -28 314 -158 343 -158 41 0 69 32 69 78 0 49 -11 59 -132 116 -54 26 -98
51 -98 56 0 11 68 120 75 120 2 0 -2 -19 -10 -41 -8 -23 -15 -45 -15 -49 0 -9
51 -32 58 -25 3 3 9 32 14 66 8 60 -3 105 -57 242 -9 21 -24 22 -52 2z"/>
<path d="M1566 787 c-21 -16 -24 -60 -6 -82 11 -13 55 -15 286 -15 271 0 273
0 288 22 21 30 20 44 -4 68 -19 19 -33 20 -283 20 -203 0 -267 -3 -281 -13z"/>
<path d="M1563 608 c-23 -30 -23 -49 2 -74 l24 -24 250 0 c260 0 295 5 307 42
3 10 -2 30 -10 43 l-16 25 -274 0 c-207 0 -276 -3 -283 -12z"/>
<path d="M1555 461 c-38 -17 -67 -59 -72 -103 -10 -89 80 -159 163 -127 123
47 102 224 -27 235 -24 2 -53 0 -64 -5z"/>
<path d="M2032 450 c-67 -41 -77 -133 -21 -190 78 -78 209 -24 209 87 0 39 -5
50 -39 84 -32 32 -46 39 -77 39 -22 0 -54 -9 -72 -20z"/>
</g>
</svg>
