<?xml version="1.0" standalone="no"?>
<!DOCTYPE svg PUBLIC "-//W3C//DTD SVG 20010904//EN"
 "http://www.w3.org/TR/2001/REC-SVG-20010904/DTD/svg10.dtd">
<svg version="1.0" xmlns="http://www.w3.org/2000/svg"
 width="272.000000pt" height="247.000000pt" viewBox="0 0 272.000000 247.000000"
 preserveAspectRatio="xMidYMid meet">
<metadata>
Created by potrace 1.15, written by Peter Selinger 2001-2017
</metadata>
<g transform="translate(0.000000,247.000000) scale(0.100000,-0.100000)"
fill="#000000" stroke="none">
<path d="M1282 1987 c-178 -213 -533 -441 -912 -588 -47 -18 -93 -39 -102 -47
-17 -14 -18 -45 -18 -377 0 -274 3 -365 13 -377 7 -9 120 -45 275 -87 l263
-71 174 0 c225 0 207 -22 203 254 l-3 206 188 0 187 0 0 -218 c0 -156 3 -221
12 -230 8 -8 64 -12 186 -12 172 0 176 1 326 41 277 74 371 101 384 111 9 8
12 93 10 386 l-3 376 -154 63 c-367 150 -693 365 -864 568 -35 42 -67 71 -81
73 -17 2 -36 -14 -84 -71z m142 -211 c92 -177 200 -329 320 -453 l50 -53 -427
0 c-235 0 -427 4 -427 8 0 4 21 28 46 52 103 100 247 306 334 479 23 46 43 81
44 80 2 -2 28 -53 60 -113z m344 -180 c104 -69 280 -162 404 -217 43 -19 78
-36 78 -39 0 -5 -202 -44 -295 -57 -27 -4 -40 4 -104 63 -40 37 -101 104 -135
148 -61 78 -176 249 -176 262 0 3 29 -17 65 -46 36 -28 110 -80 163 -114z
m-613 107 c-39 -68 -110 -169 -164 -233 -50 -59 -69 -78 -142 -147 l-49 -46
-160 29 c-88 15 -160 31 -160 35 0 4 15 12 33 19 156 62 453 231 577 329 41
33 79 60 83 60 5 1 -3 -20 -18 -46z m-590 -478 c105 -19 191 -35 193 -35 1 0
2 -144 2 -320 0 -233 -3 -320 -11 -320 -7 0 -82 20 -168 44 -86 25 -175 50
-198 56 l-43 11 0 299 c0 279 1 300 18 300 9 0 103 -16 207 -35z m1815 -265
l0 -299 -52 -15 c-152 -44 -344 -96 -350 -96 -7 0 -12 639 -5 640 1 1 83 16
182 34 99 19 190 34 203 35 l22 1 0 -300z m-510 -105 l0 -325 -115 0 -115 0 0
219 c0 216 0 220 -22 235 -19 13 -61 16 -258 16 -173 0 -241 -3 -253 -12 -15
-11 -17 -40 -19 -233 l-3 -220 -117 -3 -118 -3 0 326 0 325 510 0 510 0 0
-325z"/>
</g>
</svg>
