<?xml version="1.0" standalone="no"?>
<!DOCTYPE svg PUBLIC "-//W3C//DTD SVG 20010904//EN"
 "http://www.w3.org/TR/2001/REC-SVG-20010904/DTD/svg10.dtd">
<svg version="1.0" xmlns="http://www.w3.org/2000/svg"
 width="272.000000pt" height="247.000000pt" viewBox="0 0 272.000000 247.000000"
 preserveAspectRatio="xMidYMid meet">
<metadata>
Created by potrace 1.15, written by Peter Selinger 2001-2017
</metadata>
<g transform="translate(0.000000,247.000000) scale(0.100000,-0.100000)"
fill="#000000" stroke="none">
<path d="M920 2247 c-85 -40 -187 -217 -244 -427 -53 -192 -66 -322 -66 -668
0 -292 1 -298 24 -348 36 -77 137 -143 219 -144 20 0 37 -5 37 -10 0 -10 -50
-84 -231 -343 -49 -71 -89 -135 -89 -143 0 -11 17 -14 78 -14 42 0 82 4 88 8
6 4 29 35 53 69 l42 63 510 0 511 0 19 -23 c10 -12 33 -43 50 -69 l31 -48 79
0 c67 0 79 2 79 17 0 9 -37 71 -82 137 -45 67 -117 173 -160 236 l-78 115 54
6 c122 14 218 103 232 217 4 30 4 191 1 356 -4 245 -9 323 -26 418 -43 238
-122 432 -219 540 -64 70 -47 68 -489 67 -280 0 -405 -4 -423 -12z m835 -139
c77 -80 126 -176 167 -328 15 -56 22 -117 25 -243 5 -163 5 -168 -18 -202 -15
-22 -37 -39 -59 -45 -46 -13 -1004 -13 -1049 0 -65 18 -91 75 -91 199 0 256
100 538 228 644 l34 27 356 0 356 0 51 -52z m-773 -1076 c36 -33 45 -80 23
-125 -48 -101 -206 -71 -209 40 -2 103 112 155 186 85z m842 24 c45 -19 66
-52 66 -103 0 -61 -40 -105 -97 -107 -139 -3 -170 173 -38 216 30 9 33 9 69
-6z m-195 -432 c12 -19 21 -37 21 -40 0 -2 -139 -4 -310 -4 -170 0 -310 3
-310 8 0 4 9 22 20 40 l20 32 269 0 269 0 21 -36z m103 -156 c24 -35 47 -69
51 -75 7 -10 -84 -13 -438 -13 l-446 0 12 23 c7 12 30 46 51 75 l39 52 344 0
343 0 44 -62z"/>
<path d="M1094 1887 c-2 -7 -3 -105 -2 -217 l3 -205 63 -3 62 -3 0 115 c0 63
4 117 8 120 5 3 33 -24 62 -59 30 -36 56 -65 59 -64 3 0 31 30 61 66 l55 66 5
-119 5 -119 65 0 65 0 0 215 0 215 -57 3 -56 3 -68 -81 -68 -80 -28 27 c-15
15 -47 51 -70 80 l-43 53 -58 0 c-37 0 -59 -4 -63 -13z"/>
</g>
</svg>
