<?xml version="1.0" standalone="no"?>
<!DOCTYPE svg PUBLIC "-//W3C//DTD SVG 20010904//EN"
 "http://www.w3.org/TR/2001/REC-SVG-20010904/DTD/svg10.dtd">
<svg version="1.0" xmlns="http://www.w3.org/2000/svg"
 width="272.000000pt" height="247.000000pt" viewBox="0 0 272.000000 247.000000"
 preserveAspectRatio="xMidYMid meet">
<metadata>
Created by potrace 1.15, written by Peter Selinger 2001-2017
</metadata>
<g transform="translate(0.000000,247.000000) scale(0.100000,-0.100000)"
fill="#000000" stroke="none">
<path d="M1120 2053 c-115 -21 -157 -52 -166 -124 -5 -38 -11 -49 -24 -49 -26
0 -30 -19 -30 -150 0 -110 2 -120 21 -134 26 -18 19 -31 -29 -54 -44 -20 -54
-55 -23 -72 15 -7 27 -8 41 0 19 10 19 6 17 -340 -2 -258 -6 -353 -15 -362
-13 -13 -18 -232 -6 -262 3 -9 16 -16 29 -16 16 0 26 -9 35 -30 7 -17 24 -40
38 -50 23 -19 42 -20 373 -20 l347 0 31 31 c17 17 31 39 31 50 0 13 7 19 23
19 42 0 47 17 47 146 0 112 -2 124 -20 137 -20 14 -20 20 -11 128 5 69 5 204
-1 342 -5 126 -7 231 -5 234 3 2 14 0 25 -6 24 -13 48 -6 56 15 9 24 -3 41
-45 59 -44 20 -49 34 -19 53 19 12 20 21 18 139 -3 124 -4 128 -28 140 -17 8
-25 22 -28 45 -5 50 -28 77 -90 106 -57 27 -58 27 -312 29 -140 0 -266 -1
-280 -4z m442 -95 c2 -18 10 -24 39 -26 23 -2 42 3 52 12 21 21 40 20 61 -2
13 -16 17 -55 24 -243 l7 -223 -25 -31 c-13 -16 -41 -49 -62 -72 l-38 -43 0
-148 0 -148 66 -64 66 -65 -7 -100 c-11 -182 -27 -320 -37 -332 -7 -8 -37 -13
-81 -13 -62 0 -72 3 -93 25 -22 24 -27 25 -156 25 -132 -1 -168 -9 -168 -39 0
-13 -137 -16 -157 -3 -12 7 -23 93 -43 332 l-8 95 67 68 66 67 3 143 c4 160 6
153 -89 254 l-42 45 7 141 c15 330 16 338 45 349 22 8 28 6 40 -11 22 -34 101
-26 101 10 0 18 10 19 179 19 179 0 180 0 183 -22z m-502 -773 l0 -121 -30
-29 -30 -29 0 135 c0 74 3 151 6 172 l7 38 23 -22 c23 -21 24 -29 24 -144z
m693 58 c9 -144 9 -233 -1 -233 -5 0 -18 11 -30 25 -20 23 -22 36 -22 146 0
99 3 125 18 144 9 14 20 25 23 25 3 0 9 -48 12 -107z"/>
<path d="M1070 1695 c-10 -12 -10 -22 0 -47 22 -55 59 -142 73 -168 l13 -25
214 -2 c118 -2 221 1 228 5 7 5 32 55 56 113 33 77 42 108 35 121 -9 17 -33
18 -308 18 -253 0 -300 -2 -311 -15z m520 -70 c0 -8 -7 -33 -16 -55 l-16 -40
-179 0 -180 0 -19 46 c-11 25 -20 50 -20 55 0 5 91 9 215 9 183 0 215 -2 215
-15z"/>
<path d="M1102 878 c-18 -23 -44 -219 -31 -234 9 -11 68 -14 299 -14 159 0
295 3 304 6 22 8 20 50 -7 159 l-22 90 -266 3 c-205 2 -269 -1 -277 -10z m494
-108 c8 -25 12 -51 9 -57 -3 -10 -58 -13 -229 -13 -124 0 -227 3 -229 8 -2 4
1 31 6 60 l9 52 210 -2 211 -3 13 -45z"/>
</g>
</svg>
