<?xml version="1.0" standalone="no"?>
<!DOCTYPE svg PUBLIC "-//W3C//DTD SVG 20010904//EN"
 "http://www.w3.org/TR/2001/REC-SVG-20010904/DTD/svg10.dtd">
<svg version="1.0" xmlns="http://www.w3.org/2000/svg"
 width="272.000000pt" height="247.000000pt" viewBox="0 0 272.000000 247.000000"
 preserveAspectRatio="xMidYMid meet">
<metadata>
Created by potrace 1.15, written by Peter Selinger 2001-2017
</metadata>
<g transform="translate(0.000000,247.000000) scale(0.100000,-0.100000)"
fill="#000000" stroke="none">
<path d="M1725 2033 c-63 -33 -115 -123 -115 -197 0 -22 -4 -26 -30 -26 -37 0
-97 -29 -126 -62 -83 -91 -38 -284 83 -349 34 -19 47 -32 45 -45 -1 -11 -5
-55 -9 -99 -5 -69 -2 -87 16 -127 32 -71 66 -91 149 -85 37 2 100 13 139 25
40 12 85 22 100 21 33 0 159 -32 169 -42 4 -4 36 -7 72 -7 76 0 112 20 143 82
17 33 20 54 17 126 -2 48 -7 94 -11 103 -6 11 2 20 30 35 72 36 113 91 139
184 17 57 2 137 -33 174 -31 34 -95 66 -130 66 -27 0 -29 3 -41 66 -15 77 -48
126 -103 155 -71 36 -161 17 -220 -45 -30 -32 -34 -32 -62 -3 -61 63 -157 85
-222 50z m123 -90 c45 -26 82 -94 82 -153 0 -122 -97 -171 -172 -87 -63 69
-63 201 -1 239 35 22 54 22 91 1z m355 -7 c54 -44 50 -165 -7 -230 -49 -54
-99 -60 -141 -16 -28 29 -30 37 -30 102 0 48 4 73 13 76 6 2 12 10 12 17 0 21
72 75 100 75 14 -1 38 -11 53 -24z m-562 -249 c36 -24 78 -96 79 -136 0 -39
-46 -91 -81 -91 -98 0 -175 166 -107 230 28 26 67 25 109 -3z m770 12 c28 -15
42 -57 34 -108 -8 -55 -79 -131 -123 -131 -38 0 -68 24 -82 65 -10 29 -8 41 9
79 23 53 47 81 81 95 33 13 57 13 81 0z m-364 -116 c72 -33 138 -90 180 -155
61 -95 80 -210 46 -270 -16 -26 -22 -29 -58 -25 -22 2 -74 14 -115 26 -55 17
-92 21 -140 18 -72 -5 -160 -24 -175 -38 -5 -5 -28 -9 -50 -9 -54 0 -70 28
-69 116 2 123 85 251 211 320 67 37 115 42 170 17z"/>
<path d="M453 1393 c-49 -31 -81 -90 -90 -162 -6 -50 -6 -51 -40 -51 -45 0
-102 -31 -133 -72 -22 -29 -25 -43 -25 -118 0 -80 2 -88 34 -135 35 -52 54
-69 105 -96 19 -9 29 -21 27 -30 -3 -8 -7 -55 -9 -105 -5 -109 14 -158 75
-194 44 -26 110 -24 203 6 72 23 179 23 250 0 30 -10 83 -20 117 -23 l62 -5
45 45 c36 36 46 54 52 92 6 41 1 144 -8 185 -2 7 10 20 26 29 93 50 141 130
141 236 0 51 -5 78 -19 101 -27 44 -92 84 -138 84 -35 0 -38 2 -38 28 0 43
-30 122 -59 155 -38 42 -73 57 -136 57 -59 0 -87 -12 -141 -62 l-31 -29 -35
35 c-20 20 -43 36 -52 36 -9 0 -16 5 -16 10 0 6 -28 10 -63 10 -51 0 -71 -5
-104 -27z m137 -73 c0 -5 6 -10 14 -10 25 0 69 -82 74 -136 7 -86 -30 -137
-99 -136 -74 1 -125 84 -117 188 6 70 35 104 90 104 21 0 38 -4 38 -10z m363
-14 c62 -58 39 -215 -38 -256 -75 -40 -145 11 -145 108 0 126 110 216 183 148z
m-580 -232 c62 -29 106 -122 86 -181 -10 -31 -46 -63 -72 -63 -27 0 -77 32
-101 63 -45 62 -44 151 2 180 34 21 43 21 85 1z m793 -8 c24 -20 28 -31 27
-74 -1 -64 -31 -116 -84 -142 -51 -27 -62 -25 -98 11 -36 36 -40 70 -13 126
20 44 40 66 79 87 39 21 58 20 89 -8z m-346 -123 c29 -15 73 -48 99 -74 41
-42 59 -70 102 -163 8 -16 14 -59 14 -96 0 -54 -4 -73 -20 -90 -22 -24 -37
-24 -140 5 -140 39 -152 40 -260 11 -155 -42 -159 -42 -184 -11 -53 68 -8 232
91 335 106 111 196 136 298 83z"/>
</g>
</svg>
