<?xml version="1.0" standalone="no"?>
<!DOCTYPE svg PUBLIC "-//W3C//DTD SVG 20010904//EN"
 "http://www.w3.org/TR/2001/REC-SVG-20010904/DTD/svg10.dtd">
<svg version="1.0" xmlns="http://www.w3.org/2000/svg"
 width="272.000000pt" height="247.000000pt" viewBox="0 0 272.000000 247.000000"
 preserveAspectRatio="xMidYMid meet">
<metadata>
Created by potrace 1.15, written by Peter Selinger 2001-2017
</metadata>
<g transform="translate(0.000000,247.000000) scale(0.100000,-0.100000)"
fill="#000000" stroke="none">
<path d="M738 2158 c-43 -25 -47 -39 -19 -67 11 -11 51 -73 89 -138 56 -95 81
-127 123 -158 37 -28 65 -62 96 -115 24 -41 47 -82 53 -90 5 -8 26 -44 46 -80
21 -36 77 -134 127 -217 l89 -153 -87 -150 c-48 -82 -91 -150 -95 -150 -3 0
-16 -19 -28 -43 -48 -94 -191 -332 -199 -331 -4 1 -68 21 -141 44 -74 23 -137
38 -141 34 -10 -11 -34 -95 -29 -100 2 -2 99 -35 216 -73 177 -58 227 -71 306
-77 l95 -7 11 27 c5 15 10 31 10 36 0 4 -58 27 -130 50 -71 22 -130 44 -130
48 0 4 16 33 34 64 19 31 46 76 59 100 14 24 45 80 71 124 25 45 46 85 46 88
0 18 154 266 161 259 13 -14 149 -251 149 -260 0 -5 47 -89 105 -188 58 -99
105 -183 105 -186 0 -3 -58 -26 -130 -49 -71 -24 -130 -47 -130 -51 0 -4 5
-20 10 -35 l11 -27 92 7 c72 5 133 20 282 67 265 84 247 76 239 113 -10 45
-22 76 -31 76 -5 0 -69 -20 -143 -44 -74 -25 -138 -41 -141 -38 -4 4 -51 84
-104 177 -54 94 -105 179 -114 190 -10 11 -28 38 -41 60 -12 22 -49 86 -82
143 l-59 102 54 93 c62 105 196 337 228 394 62 110 85 143 118 161 51 29 70
53 140 175 35 60 71 117 82 128 29 29 23 44 -27 70 -44 24 -45 24 -60 5 -8
-11 -14 -26 -14 -33 0 -8 -35 -73 -78 -146 -43 -73 -81 -139 -85 -147 -4 -8
-15 -28 -26 -45 -22 -36 -190 -328 -278 -482 -35 -62 -68 -115 -72 -118 -10
-6 -38 40 -381 635 -62 107 -126 216 -141 243 -16 26 -29 55 -29 65 0 20 -18
42 -34 42 -6 0 -28 -10 -48 -22z"/>
<path d="M1323 685 c-67 -29 -81 -125 -27 -176 20 -19 37 -24 76 -24 43 0 53
4 79 33 49 55 31 140 -36 168 -42 17 -51 17 -92 -1z"/>
</g>
</svg>
