<?xml version="1.0" standalone="no"?>
<!DOCTYPE svg PUBLIC "-//W3C//DTD SVG 20010904//EN"
 "http://www.w3.org/TR/2001/REC-SVG-20010904/DTD/svg10.dtd">
<svg version="1.0" xmlns="http://www.w3.org/2000/svg"
 width="272.000000pt" height="247.000000pt" viewBox="0 0 272.000000 247.000000"
 preserveAspectRatio="xMidYMid meet">
<metadata>
Created by potrace 1.15, written by Peter Selinger 2001-2017
</metadata>
<g transform="translate(0.000000,247.000000) scale(0.100000,-0.100000)"
fill="#000000" stroke="none">
<path d="M1889 2245 c-112 -28 -208 -104 -257 -202 -37 -75 -43 -137 -40 -402
3 -229 5 -255 20 -265 31 -19 52 4 58 65 l5 54 208 3 207 2 0 -48 c0 -36 5
-54 19 -66 24 -22 57 -13 65 17 3 12 6 135 6 274 0 292 7 325 84 404 59 61 98
79 229 104 20 4 27 11 27 29 0 42 -23 51 -97 37 -158 -29 -272 -132 -313 -281
l-15 -55 -208 -3 c-235 -3 -226 -7 -188 81 41 96 145 172 252 186 58 7 82 29
63 59 -14 22 -55 24 -125 7z m201 -542 l0 -128 -210 3 -210 3 0 118 c0 65 3
121 7 124 3 4 98 7 210 7 l203 0 0 -127z"/>
<path d="M592 1279 c-18 -5 -73 -34 -123 -65 -50 -30 -104 -57 -119 -60 -29
-6 -77 14 -99 40 -26 31 -81 14 -81 -24 0 -37 106 -100 168 -100 49 0 141 45
210 104 28 25 61 47 72 51 25 8 64 -14 125 -71 96 -89 166 -104 265 -55 63 32
64 32 125 84 72 62 97 58 190 -28 99 -92 165 -105 270 -53 36 17 65 34 65 38
0 4 29 22 65 39 82 40 105 37 183 -30 78 -67 139 -85 212 -63 30 9 94 40 143
70 50 30 101 54 115 54 13 0 44 -14 69 -31 49 -32 79 -34 97 -6 15 24 0 45
-59 81 -67 41 -130 42 -205 2 -54 -28 -162 -104 -168 -118 -5 -12 -44 -9 -69
5 -12 7 -42 31 -66 54 -127 119 -237 114 -392 -17 -32 -27 -67 -50 -77 -50
-25 0 -62 25 -129 85 -72 66 -127 84 -196 64 -57 -15 -131 -58 -192 -111 -24
-21 -53 -38 -65 -38 -20 0 -60 27 -148 101 -66 55 -116 68 -186 48z"/>
<path d="M605 843 c-34 -8 -87 -35 -155 -79 -96 -61 -142 -66 -192 -19 -36 33
-62 39 -82 17 -21 -24 -13 -44 27 -75 52 -39 94 -57 135 -57 50 0 141 45 210
104 28 25 61 47 72 51 26 8 67 -15 133 -75 97 -88 164 -101 264 -49 32 16 85
52 117 80 32 27 66 49 75 49 22 0 83 -40 131 -85 103 -97 184 -99 319 -7 31
21 76 46 101 56 56 21 78 14 144 -43 87 -76 138 -91 223 -66 31 9 82 34 113
55 73 50 129 72 159 65 14 -4 43 -20 67 -37 51 -36 84 -32 84 10 -1 20 -12 35
-43 58 -109 81 -204 64 -354 -62 -28 -25 -61 -44 -75 -44 -14 0 -56 27 -106
69 -97 80 -142 98 -215 81 -56 -12 -113 -46 -181 -107 -65 -58 -87 -57 -162
10 -88 79 -129 101 -189 101 -62 0 -142 -38 -223 -106 -77 -66 -90 -64 -194
26 -70 62 -72 64 -114 75 -41 11 -55 12 -89 4z"/>
<path d="M596 399 c-21 -5 -77 -35 -124 -66 -75 -49 -93 -57 -134 -57 -38 0
-54 6 -76 27 -41 39 -92 32 -92 -13 0 -37 104 -100 166 -100 46 0 151 51 207
100 84 74 101 73 201 -14 102 -88 148 -102 236 -69 45 17 153 84 165 103 3 6
19 17 36 25 25 14 33 14 61 1 18 -8 56 -36 83 -61 54 -50 121 -85 163 -85 35
0 106 28 162 64 25 16 69 40 98 54 47 21 57 23 84 11 17 -7 52 -30 77 -52 50
-44 119 -77 159 -77 40 0 110 29 175 73 32 21 78 45 102 53 40 14 46 14 83 -5
23 -11 43 -25 47 -31 9 -14 48 -13 63 2 42 42 -57 121 -153 121 -47 0 -124
-26 -160 -55 -5 -4 -35 -28 -66 -53 -76 -61 -96 -59 -181 20 -73 69 -113 88
-179 88 -73 -1 -113 -21 -218 -108 -30 -25 -63 -45 -73 -45 -25 0 -63 25 -118
77 -60 57 -104 77 -167 76 -64 -2 -119 -28 -210 -100 -37 -29 -75 -53 -85 -53
-22 0 -61 24 -108 67 -64 58 -87 72 -131 82 -24 6 -46 10 -49 10 -3 -1 -22 -5
-44 -10z"/>
</g>
</svg>
