<?xml version="1.0" standalone="no"?>
<!DOCTYPE svg PUBLIC "-//W3C//DTD SVG 20010904//EN"
 "http://www.w3.org/TR/2001/REC-SVG-20010904/DTD/svg10.dtd">
<svg version="1.0" xmlns="http://www.w3.org/2000/svg"
 width="272.000000pt" height="247.000000pt" viewBox="0 0 272.000000 247.000000"
 preserveAspectRatio="xMidYMid meet">
<metadata>
Created by potrace 1.15, written by Peter Selinger 2001-2017
</metadata>
<g transform="translate(0.000000,247.000000) scale(0.100000,-0.100000)"
fill="#000000" stroke="none">
<path d="M1334 2212 c-17 -15 -130 -122 -250 -238 -120 -117 -235 -226 -254
-244 -51 -47 -440 -422 -462 -444 -42 -45 -11 -66 101 -66 l81 0 0 -508 c0
-382 3 -511 12 -520 9 -9 205 -12 820 -12 788 0 808 0 818 19 6 13 10 194 10
520 l0 501 84 0 c64 0 88 4 100 16 22 21 13 35 -81 123 -43 40 -134 128 -203
195 -120 115 -433 416 -625 599 -49 48 -97 86 -105 87 -8 0 -29 -13 -46 -28z
m138 -136 c46 -44 180 -173 298 -286 118 -114 231 -222 250 -240 68 -63 260
-252 260 -256 0 -2 -26 -4 -58 -4 -32 0 -63 -5 -70 -12 -9 -9 -12 -138 -12
-520 l0 -508 -155 0 -155 0 0 369 c0 323 -2 372 -16 385 -13 14 -67 16 -434
16 -230 0 -425 -3 -434 -6 -14 -5 -16 -49 -16 -385 l0 -380 -157 3 -158 3 -5
515 -5 515 -69 5 -69 5 79 74 c95 88 415 394 569 543 209 202 259 248 266 246
4 -2 45 -39 91 -82z m288 -1156 l0 -30 -380 0 c-329 0 -381 2 -386 15 -4 8 -4
22 0 30 5 13 57 15 386 15 l380 0 0 -30z m0 -130 l0 -30 -380 0 c-329 0 -381
2 -386 15 -4 8 -4 22 0 30 5 13 57 15 386 15 l380 0 0 -30z m0 -130 l0 -30
-380 0 c-329 0 -381 2 -386 15 -4 8 -4 22 0 30 5 13 57 15 386 15 l380 0 0
-30z m0 -130 l0 -30 -382 2 -383 3 -3 28 -3 27 385 0 386 0 0 -30z m-2 -122
l-3 -33 -380 0 c-358 0 -380 1 -383 18 -9 48 -17 47 388 47 l381 0 -3 -32z m2
-128 l0 -30 -380 0 c-329 0 -381 2 -386 15 -4 8 -4 22 0 30 5 13 57 15 386 15
l380 0 0 -30z"/>
<path d="M1348 1822 c-1 -4 -76 -77 -166 -162 -121 -114 -162 -160 -160 -175
3 -20 8 -20 358 -20 321 0 355 2 358 16 3 15 -116 138 -288 297 -50 46 -93 65
-102 44z m157 -187 l120 -114 -245 -1 -245 0 115 115 c63 63 120 115 125 115
6 0 64 -52 130 -115z"/>
</g>
</svg>
