<?xml version="1.0" standalone="no"?>
<!DOCTYPE svg PUBLIC "-//W3C//DTD SVG 20010904//EN"
 "http://www.w3.org/TR/2001/REC-SVG-20010904/DTD/svg10.dtd">
<svg version="1.0" xmlns="http://www.w3.org/2000/svg"
 width="272.000000pt" height="247.000000pt" viewBox="0 0 272.000000 247.000000"
 preserveAspectRatio="xMidYMid meet">
<metadata>
Created by potrace 1.15, written by Peter Selinger 2001-2017
</metadata>
<g transform="translate(0.000000,247.000000) scale(0.100000,-0.100000)"
fill="#000000" stroke="none">
<path d="M347 1993 c-21 -24 -107 -171 -107 -183 0 -6 -4 -10 -10 -10 -16 0
-14 -1342 2 -1358 18 -18 272 -17 286 1 6 7 13 60 14 118 l3 104 40 0 40 0 2
-95 c5 -153 -10 -140 153 -140 100 0 141 3 147 13 4 6 10 59 13 117 l5 105 35
0 35 0 5 -105 c3 -58 9 -111 13 -118 6 -8 47 -12 145 -12 l137 0 13 30 c9 19
12 59 10 115 -3 81 -2 86 19 91 54 14 58 7 61 -106 1 -57 8 -110 14 -117 15
-18 273 -19 285 -1 4 7 10 60 13 118 l5 105 35 0 35 0 3 -100 c4 -137 2 -135
162 -135 162 0 160 -2 160 139 l0 102 38 -3 37 -3 5 -105 c3 -58 9 -111 13
-118 11 -17 268 -17 285 0 9 9 12 174 12 680 l0 667 -46 78 c-102 174 -113
178 -170 73 -10 -19 -21 -37 -24 -40 -3 -3 -19 -27 -35 -55 -25 -42 -30 -64
-35 -140 l-5 -90 -37 -3 -38 -3 0 86 c0 74 -9 114 -30 135 -3 3 -14 21 -24 40
-11 19 -34 59 -53 88 -49 78 -63 72 -145 -66 -67 -111 -67 -112 -70 -195 l-3
-82 -35 0 -35 0 -5 90 c-5 85 -8 95 -50 165 -58 98 -90 140 -105 140 -13 0
-42 -29 -59 -59 -6 -11 -29 -50 -51 -88 -37 -62 -40 -75 -45 -158 l-5 -90 -35
0 -35 0 -6 80 c-6 90 -5 87 -74 207 -52 91 -84 120 -108 100 -7 -6 -40 -55
-73 -109 -58 -97 -59 -99 -64 -188 l-5 -90 -35 0 -35 0 -6 90 c-6 88 -7 93
-63 185 -31 52 -63 101 -70 109 -25 25 -54 2 -102 -82 -27 -45 -53 -85 -58
-89 -6 -4 -13 -51 -16 -104 -5 -106 -15 -122 -63 -110 -27 6 -27 8 -27 91 0
68 -4 91 -22 122 -12 21 -25 40 -28 43 -3 3 -18 30 -34 60 -46 84 -67 98 -99
63z m55 -135 c63 -86 59 -42 56 -728 l-3 -625 -80 0 -80 0 -3 626 -2 626 35
59 c19 32 35 61 35 66 0 17 19 6 42 -24z m413 -29 l35 -60 -2 -632 -3 -632
-75 0 -75 0 -3 628 -2 628 24 43 c37 66 50 86 58 86 4 0 23 -27 43 -61z m383
26 c12 -19 22 -39 22 -44 0 -5 6 -11 13 -13 9 -4 12 -142 12 -649 l0 -644 -68
-3 c-42 -2 -74 2 -83 9 -12 10 -14 110 -14 628 l0 616 35 58 c19 32 35 62 35
68 0 21 26 7 48 -26z m382 21 c0 -8 4 -16 8 -18 5 -1 20 -28 35 -57 l27 -55 0
-611 c0 -462 -3 -614 -12 -623 -12 -12 -114 -17 -142 -6 -14 6 -16 70 -16 631
0 576 1 627 18 656 9 18 19 34 22 37 3 3 13 17 23 33 19 29 37 36 37 13z m420
-39 l35 -52 0 -640 0 -640 -75 0 -75 0 -3 628 -2 628 36 65 c20 35 39 64 42
64 4 0 23 -24 42 -53z m381 26 c8 -16 16 -30 19 -33 3 -3 13 -21 23 -40 16
-33 17 -80 15 -660 l-3 -625 -77 -3 -78 -3 0 641 c0 608 1 642 19 668 10 15
26 39 35 55 9 15 20 27 25 27 4 0 14 -12 22 -27z m-1763 -703 c1 -118 0 -225
-3 -238 -5 -20 -11 -23 -43 -20 l-37 3 -3 238 -2 238 42 -3 43 -3 3 -215z
m392 -20 l0 -240 -40 0 -40 0 0 240 0 240 40 0 40 0 0 -240z m398 3 l-3 -238
-37 -3 -38 -3 0 240 0 241 40 0 40 0 -2 -237z m392 -4 l0 -240 -37 3 -38 3 -3
238 -2 237 40 0 40 0 0 -241z m398 4 l-3 -238 -37 -3 -38 -3 0 240 0 241 40 0
40 0 -2 -237z"/>
</g>
</svg>
