<?xml version="1.0" standalone="no"?>
<!DOCTYPE svg PUBLIC "-//W3C//DTD SVG 20010904//EN"
 "http://www.w3.org/TR/2001/REC-SVG-20010904/DTD/svg10.dtd">
<svg version="1.0" xmlns="http://www.w3.org/2000/svg"
 width="272.000000pt" height="247.000000pt" viewBox="0 0 272.000000 247.000000"
 preserveAspectRatio="xMidYMid meet">
<metadata>
Created by potrace 1.15, written by Peter Selinger 2001-2017
</metadata>
<g transform="translate(0.000000,247.000000) scale(0.100000,-0.100000)"
fill="#000000" stroke="none">
<path d="M1845 1999 c-33 -16 -79 -49 -102 -74 -40 -44 -43 -45 -101 -45 -72
0 -192 -30 -265 -66 -30 -14 -77 -48 -104 -74 -86 -84 -93 -173 -18 -239 31
-27 116 -61 152 -61 10 0 12 -7 7 -22 -29 -91 37 -200 139 -232 31 -10 77 -16
108 -14 l54 3 11 -50 c28 -124 64 -376 64 -446 0 -32 -4 -40 -22 -44 -13 -3
-133 -4 -267 -3 -266 3 -272 5 -257 61 5 22 12 26 49 29 l42 3 3 105 c3 132 5
130 -140 130 l-108 0 0 25 0 24 123 3 122 3 0 65 0 65 -122 3 -123 3 0 29 0
30 113 0 c75 0 117 4 125 12 16 16 16 110 0 126 -9 9 -140 12 -528 12 -283 0
-525 -3 -538 -6 -21 -6 -23 -11 -20 -73 l3 -66 118 -3 117 -3 0 -29 0 -30
-120 0 -120 0 0 -70 0 -69 118 -3 c113 -3 117 -4 120 -25 3 -23 2 -23 -101
-23 -58 0 -112 -3 -121 -6 -13 -5 -16 -25 -16 -120 l0 -114 31 0 c29 0 30 -1
27 -42 l-3 -43 -88 -3 c-68 -2 -87 -6 -87 -17 0 -13 137 -15 1060 -15 936 0
1060 2 1060 15 0 13 -21 15 -130 15 -71 0 -130 3 -131 8 0 4 -2 16 -5 27 -10
46 -15 391 -6 404 8 11 19 9 64 -12 110 -52 218 -60 335 -26 111 33 182 103
185 182 1 43 -11 97 -23 97 -5 0 -9 5 -9 11 0 7 -8 17 -17 24 -15 11 -13 17
24 59 40 45 73 122 73 168 0 26 -23 96 -45 138 -35 68 -145 131 -252 146 -49
6 -49 6 -72 65 -20 53 -27 60 -76 84 -46 22 -67 25 -152 25 -88 -1 -104 -4
-158 -31z m248 -10 c74 -20 125 -86 106 -136 -12 -33 2 -40 91 -45 93 -5 134
-20 188 -72 51 -48 76 -102 76 -166 -1 -65 -21 -109 -75 -166 l-40 -40 31 -39
c37 -46 44 -73 37 -128 -9 -69 -79 -119 -196 -139 -87 -15 -212 3 -276 39 -72
40 -71 33 -45 193 10 65 60 221 86 271 16 32 19 69 5 69 -30 0 -107 -210 -136
-370 -21 -117 -31 -426 -17 -535 12 -91 9 -97 -53 -93 l-40 3 -7 90 c-4 50
-17 144 -29 210 -11 66 -25 145 -29 175 -10 63 -22 120 -59 280 -20 88 -31
116 -44 118 -23 5 -22 -17 8 -144 29 -124 30 -140 9 -148 -64 -25 -169 12
-209 73 -28 41 -28 45 -13 161 3 23 -1 25 -49 31 -70 9 -134 42 -157 79 -72
123 156 279 409 280 69 0 70 1 86 32 19 39 95 93 158 112 56 18 132 20 184 5z
m-803 -709 l0 -30 -505 0 -505 0 0 30 0 30 505 0 505 0 0 -30z m-316 -78 c3
-5 2 -18 -1 -30 -5 -22 -9 -22 -194 -22 l-189 0 0 30 0 30 189 0 c105 0 192
-4 195 -8z m321 -102 c3 -6 3 -19 0 -30 -6 -20 -16 -20 -511 -20 l-504 0 0 30
0 30 504 0 c329 0 507 -4 511 -10z m-322 -110 c3 -11 2 -22 -2 -25 -4 -2 -91
-5 -192 -6 l-184 -1 -3 26 -3 26 189 0 c181 0 190 -1 195 -20z m317 -160 l0
-80 -504 0 -504 0 -4 76 c-2 42 -1 78 1 80 2 2 231 4 508 4 l503 0 0 -80z
m-172 -122 c15 -15 15 -51 0 -66 -17 -17 -669 -17 -686 0 -13 13 -16 60 -5 71
3 4 158 7 343 7 248 0 339 -3 348 -12z"/>
<path d="M1948 1588 c-50 -94 -88 -176 -103 -225 -10 -35 -19 -28 -34 25 -7
26 -20 66 -27 90 -8 23 -14 49 -14 57 0 8 -7 15 -15 15 -20 0 -20 -50 1 -115
18 -56 27 -90 44 -153 16 -64 37 -52 70 38 14 41 41 106 58 143 18 38 32 70
32 73 0 2 12 22 26 44 25 37 27 70 5 70 -5 0 -24 -28 -43 -62z"/>
</g>
</svg>
