<?xml version="1.0" standalone="no"?>
<!DOCTYPE svg PUBLIC "-//W3C//DTD SVG 20010904//EN"
 "http://www.w3.org/TR/2001/REC-SVG-20010904/DTD/svg10.dtd">
<svg version="1.0" xmlns="http://www.w3.org/2000/svg"
 width="272.000000pt" height="247.000000pt" viewBox="0 0 272.000000 247.000000"
 preserveAspectRatio="xMidYMid meet">
<metadata>
Created by potrace 1.15, written by Peter Selinger 2001-2017
</metadata>
<g transform="translate(0.000000,247.000000) scale(0.100000,-0.100000)"
fill="#000000" stroke="none">
<path d="M1145 2246 c-380 -87 -677 -348 -791 -693 -45 -139 -54 -192 -54
-333 0 -188 28 -306 112 -475 99 -198 262 -359 468 -463 159 -79 263 -102 467
-102 184 0 256 12 387 65 270 109 466 301 585 571 54 126 71 218 71 400 0 199
-23 305 -100 461 -131 266 -352 451 -650 544 -98 30 -116 33 -270 36 -114 2
-183 -2 -225 -11z m351 -141 c195 -34 351 -114 491 -253 141 -140 220 -298
255 -509 21 -123 21 -128 4 -237 -27 -170 -59 -256 -141 -381 -146 -223 -367
-361 -643 -400 -103 -15 -121 -15 -225 0 -61 9 -139 25 -171 36 -415 135 -685
570 -612 988 37 214 111 359 255 501 215 213 497 305 787 255z"/>
<path d="M1315 1960 c-48 -11 -74 -32 -96 -78 -73 -150 114 -283 235 -166 34
33 36 39 36 95 0 46 -5 68 -21 90 -34 48 -98 72 -154 59z"/>
<path d="M1274 1494 c-16 -8 -39 -29 -50 -47 -18 -30 -19 -53 -19 -457 l0
-425 23 -33 c61 -85 176 -83 244 3 l23 30 0 425 0 425 -23 33 c-13 18 -36 39
-52 47 -37 19 -106 19 -146 -1z"/>
</g>
</svg>
