<?xml version="1.0" standalone="no"?>
<!DOCTYPE svg PUBLIC "-//W3C//DTD SVG 20010904//EN"
 "http://www.w3.org/TR/2001/REC-SVG-20010904/DTD/svg10.dtd">
<svg version="1.0" xmlns="http://www.w3.org/2000/svg"
 width="272.000000pt" height="247.000000pt" viewBox="0 0 272.000000 247.000000"
 preserveAspectRatio="xMidYMid meet">
<metadata>
Created by potrace 1.15, written by Peter Selinger 2001-2017
</metadata>
<g transform="translate(0.000000,247.000000) scale(0.100000,-0.100000)"
fill="#000000" stroke="none">
<path d="M1160 2150 c-184 -42 -342 -131 -480 -269 -131 -132 -211 -272 -259
-459 -30 -115 -30 -329 0 -444 48 -187 128 -327 259 -459 192 -193 424 -289
697 -289 499 0 912 372 965 867 52 495 -266 936 -760 1053 -107 26 -311 26
-422 0z m385 -59 c198 -42 350 -125 484 -264 140 -145 214 -299 247 -515 16
-106 16 -118 0 -225 -34 -216 -106 -368 -247 -514 -84 -87 -218 -183 -256
-183 -9 0 -13 20 -13 68 l1 67 41 25 c107 63 255 246 300 370 64 172 64 388 0
560 -26 71 -97 182 -161 251 -71 78 -103 98 -126 79 -8 -7 -15 -16 -15 -20 0
-4 33 -41 74 -82 108 -110 162 -208 197 -356 24 -105 24 -199 0 -304 -31 -130
-81 -229 -163 -322 -36 -41 -138 -126 -151 -126 -2 0 -7 44 -11 97 -3 54 -9
127 -12 163 l-6 65 77 65 c80 66 105 105 105 161 0 60 -80 432 -97 451 -14 16
-34 18 -179 18 -151 0 -165 -2 -182 -20 -13 -14 -30 -78 -57 -208 -49 -244
-50 -253 -30 -293 9 -19 50 -66 92 -105 l75 -70 -12 -210 c-7 -115 -15 -211
-17 -214 -3 -3 -59 -5 -126 -5 l-122 0 -7 85 c-3 47 -6 295 -7 552 -1 467 -1
467 -23 488 -29 27 -46 25 -124 -11 -76 -36 -158 -113 -192 -179 -44 -86 -52
-142 -52 -358 0 -245 1 -247 95 -287 l65 -28 0 -84 0 -84 -41 23 c-115 65
-229 219 -286 388 -26 79 -26 321 0 400 58 171 150 297 284 388 131 88 220
115 398 118 145 3 167 9 152 47 -7 19 -129 32 -219 22 -330 -35 -585 -251
-684 -580 -28 -94 -25 -306 5 -405 41 -134 99 -234 187 -325 49 -49 69 -66
152 -126 42 -31 42 -31 42 -93 0 -35 -3 -65 -6 -69 -13 -12 -181 102 -254 173
-127 124 -203 252 -252 425 -19 66 -23 105 -23 225 0 177 23 274 97 415 127
241 373 426 628 474 30 6 64 13 75 15 55 11 199 4 280 -13z m-365 -921 c0
-341 -2 -400 -14 -400 -20 0 -155 55 -169 69 -8 8 -8 11 1 11 7 0 12 11 12 25
0 25 -10 30 -68 37 -12 2 -23 6 -22 11 0 4 0 25 0 47 l0 40 45 0 c41 0 45 2
45 24 0 26 -16 36 -61 36 -30 0 -31 1 -31 50 0 17 1 34 1 39 1 6 20 11 44 13
37 3 42 6 42 28 0 22 -5 25 -42 28 -39 3 -43 6 -43 30 0 50 11 72 35 72 39 0
55 11 55 36 0 17 -6 24 -20 24 -80 0 88 164 183 179 4 0 7 -179 7 -399z m352
388 c1 -2 4 -88 7 -193 6 -175 7 -190 25 -193 10 -2 22 2 27 10 5 7 9 95 9
196 l0 182 30 0 30 0 0 -178 c0 -188 6 -218 46 -210 18 3 19 15 22 196 2 181
3 192 22 192 15 0 21 -11 30 -57 6 -32 17 -87 25 -123 44 -210 47 -231 35
-260 -6 -15 -33 -46 -58 -67 -115 -94 -121 -102 -119 -141 2 -35 0 -37 -28
-37 -28 0 -30 3 -36 43 -5 36 -13 50 -50 80 -24 20 -63 55 -86 78 -52 50 -53
62 -18 229 14 66 30 145 36 175 14 74 16 80 34 80 8 0 16 -1 17 -2z m151 -880
c4 -73 10 -177 13 -230 l7 -96 -64 -20 c-35 -11 -68 -17 -72 -12 -5 4 -2 105
7 223 9 118 16 227 16 241 0 24 3 26 43 26 l44 0 6 -132z m-551 32 l45 -20 7
-167 c4 -93 8 -177 9 -188 2 -17 -3 -20 -33 -17 -19 2 -49 10 -67 17 l-31 13
4 159 c5 149 11 223 18 223 2 0 24 -9 48 -20z m363 -345 c-3 -33 -12 -63 -18
-67 -14 -9 -179 -11 -201 -2 -12 5 -16 21 -16 68 l0 61 121 0 121 1 -7 -61z"/>
</g>
</svg>
