<?xml version="1.0" standalone="no"?>
<!DOCTYPE svg PUBLIC "-//W3C//DTD SVG 20010904//EN"
 "http://www.w3.org/TR/2001/REC-SVG-20010904/DTD/svg10.dtd">
<svg version="1.0" xmlns="http://www.w3.org/2000/svg"
 width="272.000000pt" height="247.000000pt" viewBox="0 0 272.000000 247.000000"
 preserveAspectRatio="xMidYMid meet">
<metadata>
Created by potrace 1.15, written by Peter Selinger 2001-2017
</metadata>
<g transform="translate(0.000000,247.000000) scale(0.100000,-0.100000)"
fill="#000000" stroke="none">
<path d="M1543 2274 c-20 -8 -72 -97 -93 -159 -11 -32 -20 -80 -20 -108 0 -80
41 -197 87 -249 13 -15 10 -22 -41 -73 -46 -47 -60 -56 -80 -51 -27 7 -70 -6
-92 -28 -8 -8 -14 -34 -14 -59 0 -56 31 -89 89 -92 32 -2 48 -11 90 -53 28
-28 51 -53 51 -56 0 -5 -223 -12 -712 -21 l-288 -6 0 -514 0 -515 825 0 825 0
0 504 c0 501 0 505 21 511 19 7 20 7 2 21 -14 11 -78 13 -314 14 l-297 0 -38
39 c-101 101 -97 96 -83 134 9 25 9 42 1 64 -10 29 -7 33 43 83 l53 52 43 -29
c75 -51 120 -63 227 -62 67 0 110 5 139 17 60 25 133 79 133 99 0 10 -38 56
-85 102 -81 81 -85 87 -85 129 0 36 5 49 30 72 19 17 30 38 30 54 0 30 -40 76
-65 76 -23 0 -58 -20 -74 -43 -11 -16 -22 -18 -65 -15 -48 5 -56 9 -134 86
-46 45 -87 82 -90 81 -4 0 -12 -3 -19 -5z m265 -283 c133 -132 242 -246 242
-255 0 -8 -29 -29 -67 -48 -61 -30 -76 -33 -158 -33 -82 0 -97 3 -156 32 -66
33 -122 84 -151 138 -40 76 -43 90 -43 184 1 87 4 101 29 146 33 58 46 75 56
75 4 0 116 -108 248 -239z m270 -1189 l2 -422 -737 2 -738 3 -3 410 c-1 225 0
416 3 423 3 10 156 12 737 10 l733 -3 3 -423z"/>
<path d="M1590 810 c0 -5 -1 -84 -1 -175 0 -91 1 -169 1 -175 0 -11 60 -14 60
-2 1 18 1 338 0 350 0 14 -60 17 -60 2z"/>
<path d="M1274 797 c-2 -7 -3 -87 -2 -177 l3 -165 28 -3 c16 -2 34 1 40 6 8 7
18 6 31 -4 25 -18 76 -18 100 1 39 30 56 68 56 128 0 97 -32 137 -109 137 -27
0 -53 -4 -56 -10 -15 -24 -25 -6 -25 45 0 55 0 55 -30 55 -17 0 -33 -6 -36
-13z m150 -138 c40 -19 51 -104 16 -139 -46 -46 -100 -6 -100 74 0 25 7 40 26
55 31 25 27 24 58 10z"/>
<path d="M1805 721 c-66 -13 -95 -53 -95 -131 0 -77 6 -91 50 -122 60 -43 137
-37 183 15 9 11 17 26 17 34 0 18 -50 16 -74 -2 -39 -29 -106 -10 -106 30 0
11 22 15 93 17 88 3 92 4 95 27 13 86 -67 150 -163 132z"/>
<path d="M738 695 c-59 -55 -60 -162 -2 -221 30 -29 41 -34 82 -34 38 0 54 6
80 28 17 15 34 39 38 55 6 25 4 27 -23 27 -19 0 -37 -9 -51 -25 -44 -50 -92
-20 -92 58 0 34 6 53 20 67 27 27 44 25 73 -6 32 -34 73 -31 69 6 -1 13 -12
35 -24 47 -18 19 -32 23 -82 23 -51 0 -66 -4 -88 -25z"/>
<path d="M1020 707 c-22 -18 -42 -56 -35 -67 11 -18 60 -11 73 11 18 28 77 24
77 -6 0 -16 -12 -23 -61 -35 -80 -20 -94 -32 -94 -84 0 -75 72 -111 137 -69
19 13 28 14 31 5 2 -6 20 -12 39 -12 32 0 35 2 29 23 -3 12 -6 63 -6 114 0
119 -12 133 -109 133 -37 0 -73 -6 -81 -13z"/>
<path d="M930 219 c-9 -16 -8 -26 5 -45 l15 -24 388 0 c306 1 391 3 405 14 21
16 22 62 1 70 -9 3 -193 6 -409 6 -388 0 -394 0 -405 -21z"/>
</g>
</svg>
