<?xml version="1.0" standalone="no"?>
<!DOCTYPE svg PUBLIC "-//W3C//DTD SVG 20010904//EN"
 "http://www.w3.org/TR/2001/REC-SVG-20010904/DTD/svg10.dtd">
<svg version="1.0" xmlns="http://www.w3.org/2000/svg"
 width="272.000000pt" height="247.000000pt" viewBox="0 0 272.000000 247.000000"
 preserveAspectRatio="xMidYMid meet">
<metadata>
Created by potrace 1.15, written by Peter Selinger 2001-2017
</metadata>
<g transform="translate(0.000000,247.000000) scale(0.100000,-0.100000)"
fill="#000000" stroke="none">
<path d="M1567 2168 c-22 -17 -74 -177 -87 -266 -17 -120 0 -186 74 -290 117
-165 112 -294 -20 -519 -18 -31 -18 -33 -1 -50 16 -16 20 -16 44 -3 33 19 78
94 111 185 20 55 25 90 25 165 1 111 -19 166 -106 303 l-52 82 0 90 c0 86 2
94 43 174 23 46 42 91 42 100 0 37 -41 53 -73 29z"/>
<path d="M1833 2172 c-31 -20 -93 -251 -93 -346 0 -67 26 -136 79 -213 87
-126 104 -211 67 -335 -16 -53 -65 -156 -88 -185 -15 -18 -5 -57 15 -61 32 -6
63 25 100 100 52 106 70 185 65 289 -4 94 -17 127 -119 299 -39 66 -44 80 -43
135 1 68 23 145 66 221 32 60 33 67 12 88 -17 17 -42 20 -61 8z"/>
<path d="M2102 2173 c-35 -14 -92 -227 -92 -343 0 -93 17 -142 69 -209 15 -20
41 -61 57 -91 25 -48 29 -66 29 -140 0 -93 -22 -164 -84 -269 -25 -41 -29 -56
-21 -72 41 -76 154 99 180 278 17 122 -13 219 -125 408 -34 57 -36 64 -32 137
3 64 10 89 45 163 23 48 42 95 42 104 0 33 -32 49 -68 34z"/>
<path d="M685 2115 c-129 -60 -142 -234 -25 -311 115 -76 269 9 270 149 0 122
-137 213 -245 162z"/>
<path d="M694 1667 c-39 -15 -74 -44 -99 -82 -19 -29 -20 -47 -20 -376 0 -390
0 -392 79 -447 l39 -27 274 -3 273 -3 121 -242 c66 -133 127 -249 136 -259 8
-9 28 -22 44 -28 37 -16 79 0 114 42 48 57 40 83 -119 393 -94 183 -153 287
-171 300 -24 18 -45 20 -231 23 l-204 3 0 45 0 44 169 0 c165 0 169 1 195 25
39 36 37 94 -5 129 -30 26 -33 26 -195 26 l-164 0 0 138 c0 160 -9 200 -55
251 -49 54 -117 72 -181 48z"/>
<path d="M564 626 c-38 -17 -74 -73 -74 -115 0 -49 25 -99 62 -121 31 -19 50
-20 317 -20 l283 0 38 38 c64 64 63 157 -3 206 -27 20 -41 21 -310 23 -221 2
-289 0 -313 -11z"/>
</g>
</svg>
