<?xml version="1.0" standalone="no"?>
<!DOCTYPE svg PUBLIC "-//W3C//DTD SVG 20010904//EN"
 "http://www.w3.org/TR/2001/REC-SVG-20010904/DTD/svg10.dtd">
<svg version="1.0" xmlns="http://www.w3.org/2000/svg"
 width="272.000000pt" height="247.000000pt" viewBox="0 0 272.000000 247.000000"
 preserveAspectRatio="xMidYMid meet">
<metadata>
Created by potrace 1.15, written by Peter Selinger 2001-2017
</metadata>
<g transform="translate(0.000000,247.000000) scale(0.100000,-0.100000)"
fill="#000000" stroke="none">
<path d="M1940 1979 c-36 -15 -78 -58 -103 -104 -21 -38 -22 -54 -25 -387 -3
-341 -3 -348 17 -348 47 0 51 8 51 96 l0 84 130 0 130 0 0 -110 0 -109 30 -16
c16 -8 31 -15 35 -15 3 0 5 165 5 368 0 339 2 370 19 409 30 65 91 89 150 59
39 -21 62 -61 70 -119 3 -30 13 -54 22 -60 55 -34 68 62 22 154 -72 141 -247
146 -323 9 -21 -38 -25 -61 -28 -152 l-4 -108 -129 0 -129 0 0 73 c0 91 14
139 50 180 23 26 35 32 75 32 41 1 49 5 62 29 8 15 12 30 9 34 -11 11 -111 12
-136 1z m195 -504 l0 -80 -125 0 -125 0 -3 69 c-2 38 -1 75 2 83 5 11 31 13
128 11 l123 -3 0 -80z"/>
<path d="M618 1555 c-186 -23 -208 -33 -208 -91 0 -43 40 -76 84 -70 17 3 81
8 141 11 l110 5 28 -40 c32 -47 33 -57 10 -65 -10 -3 -108 -52 -217 -109
l-200 -104 38 -16 c36 -15 39 -15 139 27 97 40 106 42 202 41 94 0 106 -3 197
-42 97 -42 98 -42 138 -26 29 12 40 22 40 38 -1 50 -29 159 -46 181 -61 77
-243 264 -264 272 -17 6 -79 3 -192 -12z"/>
<path d="M1225 1497 c-57 -32 -85 -79 -85 -142 0 -125 132 -205 240 -144 95
54 115 172 41 253 -53 58 -129 71 -196 33z"/>
<path d="M150 961 c0 -56 3 -71 15 -71 8 0 52 -16 98 -35 159 -65 205 -65 360
1 44 19 96 34 117 34 21 0 73 -15 117 -34 155 -66 201 -66 360 -1 46 19 99 35
118 35 19 0 72 -16 118 -35 159 -65 205 -65 360 1 44 19 96 34 117 34 21 0 73
-15 117 -34 155 -66 201 -66 360 -1 46 19 90 35 98 35 12 0 15 15 15 70 l0 70
-31 0 c-17 0 -74 -18 -126 -40 -110 -46 -156 -50 -223 -19 -158 73 -229 77
-374 18 -122 -49 -152 -48 -280 5 -81 35 -94 38 -165 34 -61 -3 -93 -11 -159
-41 -96 -43 -145 -47 -212 -16 -86 40 -154 59 -210 59 -56 0 -124 -19 -210
-59 -66 -30 -113 -27 -211 16 -46 20 -103 38 -126 41 l-43 5 0 -72z"/>
<path d="M713 749 c-12 -4 -26 -17 -32 -28 -29 -53 1 -97 74 -110 28 -5 79
-23 115 -40 130 -61 195 -60 347 4 45 19 98 35 117 35 20 0 74 -16 121 -35
154 -64 213 -64 355 0 99 45 137 45 239 0 148 -65 203 -65 358 0 45 19 89 35
97 35 13 0 16 13 16 74 l0 73 -42 -8 c-24 -4 -81 -24 -126 -43 -47 -20 -100
-36 -122 -36 -21 0 -83 18 -140 41 -78 31 -116 41 -160 41 -44 0 -81 -10 -159
-41 -58 -24 -118 -41 -140 -41 -23 0 -75 15 -123 36 -147 63 -199 63 -351 -2
-43 -19 -96 -34 -117 -34 -21 0 -82 17 -136 39 -109 43 -158 53 -191 40z"/>
</g>
</svg>
