<?xml version="1.0" standalone="no"?>
<!DOCTYPE svg PUBLIC "-//W3C//DTD SVG 20010904//EN"
 "http://www.w3.org/TR/2001/REC-SVG-20010904/DTD/svg10.dtd">
<svg version="1.0" xmlns="http://www.w3.org/2000/svg"
 width="272.000000pt" height="247.000000pt" viewBox="0 0 272.000000 247.000000"
 preserveAspectRatio="xMidYMid meet">
<metadata>
Created by potrace 1.15, written by Peter Selinger 2001-2017
</metadata>
<g transform="translate(0.000000,247.000000) scale(0.100000,-0.100000)"
fill="#000000" stroke="none">
<path d="M1278 2315 c-126 -28 -218 -101 -271 -215 -29 -61 -31 -74 -35 -207
l-4 -143 -179 0 c-115 0 -180 -4 -184 -11 -10 -15 -31 -124 -39 -199 -4 -36
-20 -159 -36 -275 -16 -115 -31 -228 -33 -250 -3 -22 -9 -69 -15 -105 -6 -36
-15 -108 -21 -160 -7 -52 -18 -140 -26 -195 -32 -228 -37 -283 -25 -304 l11
-21 927 0 c510 0 932 4 938 8 21 14 23 43 9 129 -7 48 -16 117 -20 153 -3 36
-12 106 -20 155 -8 50 -28 196 -44 325 -17 129 -38 282 -46 340 -8 58 -22 164
-31 235 -8 72 -20 140 -26 153 -11 22 -15 22 -189 22 -209 0 -187 -20 -191
170 -4 138 -18 184 -80 262 -82 104 -242 162 -370 133z m197 -114 c60 -26 120
-92 145 -157 16 -44 20 -78 20 -174 l0 -120 -285 0 -285 0 -6 25 c-3 14 -4 71
-2 128 7 147 44 221 141 283 20 14 54 29 75 34 51 13 145 4 197 -19z m-505
-643 c0 -91 -2 -104 -22 -125 -34 -36 -31 -98 5 -129 28 -24 76 -31 112 -18
22 9 45 56 45 93 0 17 -11 42 -25 60 -24 28 -26 36 -23 123 l3 93 288 3 287 2
0 -101 c0 -93 -2 -103 -25 -131 -34 -40 -33 -82 4 -119 41 -41 91 -40 133 1
27 27 30 36 25 73 -3 23 -14 47 -24 55 -15 11 -18 28 -18 115 l0 102 146 3
146 3 12 -88 c6 -49 22 -167 36 -263 13 -96 35 -267 49 -380 15 -113 33 -244
41 -291 8 -47 15 -95 15 -107 l0 -22 -823 0 c-453 0 -826 2 -829 5 -3 3 -1 27
3 53 8 46 39 269 64 472 7 58 21 157 30 220 8 63 18 138 21 165 3 28 12 92 21
143 l15 92 144 0 144 0 0 -102z m1224 -1154 c3 -9 6 -31 6 -50 l0 -34 -851 0
-852 0 7 38 c3 20 6 43 6 50 0 9 175 12 839 12 756 0 839 -2 845 -16z"/>
</g>
</svg>
