<?xml version="1.0" standalone="no"?>
<!DOCTYPE svg PUBLIC "-//W3C//DTD SVG 20010904//EN"
 "http://www.w3.org/TR/2001/REC-SVG-20010904/DTD/svg10.dtd">
<svg version="1.0" xmlns="http://www.w3.org/2000/svg"
 width="272.000000pt" height="247.000000pt" viewBox="0 0 272.000000 247.000000"
 preserveAspectRatio="xMidYMid meet">
<metadata>
Created by potrace 1.15, written by Peter Selinger 2001-2017
</metadata>
<g transform="translate(0.000000,247.000000) scale(0.100000,-0.100000)"
fill="#000000" stroke="none">
<path d="M245 1978 c-3 -7 -4 -368 -3 -803 l3 -790 268 -3 267 -2 0 30 0 30
-229 0 c-199 0 -230 2 -235 16 -9 22 -7 217 2 230 4 6 50 14 103 17 53 3 105
10 115 15 11 6 39 20 64 32 354 171 354 699 0 870 -25 12 -53 26 -64 32 -10 5
-62 12 -115 15 -53 3 -99 11 -103 17 -9 13 -11 208 -2 230 5 14 60 16 510 16
l504 0 0 -204 0 -203 -39 -7 c-92 -14 -184 -89 -236 -190 -16 -32 -20 -59 -20
-141 0 -82 4 -109 20 -141 52 -101 144 -176 236 -190 l39 -7 0 -203 0 -204
-230 0 -230 0 0 -30 0 -30 810 0 810 0 0 805 0 805 -1120 0 c-887 0 -1122 -3
-1125 -12z m2169 -64 c9 -22 7 -217 -2 -230 -4 -6 -50 -14 -103 -17 -53 -3
-105 -10 -115 -15 -11 -6 -39 -20 -64 -32 -354 -171 -354 -699 0 -870 25 -12
53 -26 64 -32 10 -5 62 -12 115 -15 53 -3 99 -11 103 -17 9 -13 11 -208 2
-230 -5 -14 -60 -16 -510 -16 l-504 0 0 204 0 203 39 7 c92 14 184 89 236 190
16 32 20 59 20 141 0 82 -4 109 -20 141 -52 101 -144 176 -236 190 l-39 7 0
203 0 204 504 0 c450 0 505 -2 510 -16z m-1906 -323 c9 -6 40 -20 67 -33 71
-33 147 -112 187 -194 31 -65 33 -75 33 -179 0 -104 -2 -114 -33 -179 -37 -75
-114 -160 -172 -188 -94 -45 -111 -50 -192 -51 l-83 -2 0 115 0 115 133 3 132
3 0 184 0 184 -132 3 -133 3 -3 104 c-1 58 0 111 3 119 4 12 21 14 91 8 46 -3
92 -10 102 -15z m1907 -101 l0 -115 -132 -3 -133 -3 0 -184 0 -184 133 -3 132
-3 0 -115 0 -115 -83 2 c-81 1 -98 6 -192 51 -58 28 -135 113 -172 188 -31 65
-33 75 -33 179 0 104 2 114 33 179 37 75 114 160 172 188 106 51 129 56 220
54 l55 -1 0 -115z m-1085 -305 l0 -265 -24 0 c-35 0 -84 29 -131 75 -61 61
-80 106 -80 190 0 84 19 129 80 190 48 48 91 73 128 74 l27 1 0 -265z m152
248 c45 -24 109 -90 133 -137 14 -29 20 -59 20 -111 0 -84 -19 -129 -80 -190
-47 -46 -96 -75 -131 -75 l-24 0 0 265 0 265 24 0 c13 0 39 -8 58 -17z m-977
-248 l0 -120 -95 0 -95 0 -3 109 c-1 61 0 116 2 123 4 11 28 13 98 11 l93 -3
0 -120z m1910 0 l0 -120 -95 0 -95 0 -3 109 c-1 61 0 116 2 123 4 11 28 13 98
11 l93 -3 0 -120z"/>
</g>
</svg>
