<?xml version="1.0" standalone="no"?>
<!DOCTYPE svg PUBLIC "-//W3C//DTD SVG 20010904//EN"
 "http://www.w3.org/TR/2001/REC-SVG-20010904/DTD/svg10.dtd">
<svg version="1.0" xmlns="http://www.w3.org/2000/svg"
 width="272.000000pt" height="247.000000pt" viewBox="0 0 272.000000 247.000000"
 preserveAspectRatio="xMidYMid meet">
<metadata>
Created by potrace 1.15, written by Peter Selinger 2001-2017
</metadata>
<g transform="translate(0.000000,247.000000) scale(0.100000,-0.100000)"
fill="#000000" stroke="none">
<path d="M1282 2230 c-23 -17 -45 -30 -48 -30 -3 0 -36 -20 -73 -45 -37 -25
-72 -45 -79 -45 -7 0 -12 -3 -12 -8 0 -4 -20 -18 -45 -32 -25 -14 -45 -28 -45
-32 0 -5 -5 -8 -12 -8 -7 0 -41 -19 -78 -42 -36 -24 -74 -48 -85 -55 -128 -76
-211 -127 -215 -132 -6 -7 -40 -29 -59 -38 -8 -3 -44 -26 -80 -50 -36 -23 -72
-43 -78 -43 -7 0 -13 -5 -13 -10 0 -6 -10 -15 -23 -20 -71 -32 -167 -100 -167
-119 0 -27 34 -41 96 -41 l64 0 0 -616 c0 -520 2 -618 14 -630 11 -11 44 -14
139 -14 107 0 126 2 140 18 15 17 17 70 17 550 l0 532 705 0 705 0 0 -533 c0
-505 1 -535 18 -550 15 -14 41 -17 144 -17 108 0 127 2 141 18 15 17 17 75 17
630 l0 612 56 0 c63 0 94 13 94 38 0 17 -35 49 -70 65 -8 4 -49 29 -90 57 -41
27 -84 55 -95 60 -11 6 -32 18 -47 28 -15 9 -78 48 -140 86 -62 38 -143 89
-180 113 -37 24 -71 43 -77 43 -5 0 -11 4 -13 8 -2 7 -67 48 -213 135 -11 7
-22 14 -25 17 -3 3 -14 10 -25 17 -11 6 -57 34 -102 62 -45 28 -90 51 -100 51
-10 0 -37 -14 -61 -30z m106 -77 c15 -10 29 -20 32 -23 3 -3 19 -13 35 -23 17
-9 90 -54 163 -100 74 -45 146 -89 160 -97 15 -8 29 -17 32 -20 3 -3 14 -10
25 -17 89 -53 211 -128 215 -133 3 -4 12 -10 20 -13 8 -4 27 -15 42 -25 14 -9
67 -42 117 -72 83 -51 112 -80 77 -80 -7 0 -16 -10 -20 -22 -3 -13 -6 -292 -6
-620 l0 -598 -75 0 -75 0 0 533 c0 401 -3 536 -12 545 -9 9 -194 12 -773 12
-579 0 -764 -3 -773 -12 -9 -9 -12 -144 -12 -545 l0 -533 -75 0 -75 0 0 607 0
607 -22 23 c-12 13 -20 24 -17 26 2 2 33 21 69 42 36 21 67 42 70 45 3 4 12 9
20 13 8 4 24 13 35 19 10 7 37 24 60 38 22 13 49 30 60 37 11 7 27 16 35 20 8
4 20 11 25 16 20 17 218 137 226 137 5 0 9 5 9 10 0 6 4 10 9 10 9 0 206 120
227 138 6 5 20 13 32 16 12 4 22 12 22 17 0 5 6 9 14 9 7 0 19 7 26 15 16 20
44 19 78 -2z"/>
<path d="M1082 1858 c-7 -7 -12 -19 -12 -28 0 -38 17 -40 277 -40 l253 0 12
25 c8 19 8 28 -2 40 -11 13 -50 15 -264 15 -183 0 -255 -3 -264 -12z"/>
<path d="M938 1709 c-11 -6 -18 -22 -18 -39 l0 -30 418 0 c312 0 421 3 430 12
22 22 13 46 -19 57 -42 15 -787 15 -811 0z"/>
<path d="M1208 1159 c-16 -9 -18 -29 -18 -179 0 -94 -4 -170 -8 -170 -5 0 -33
12 -63 28 -92 46 -128 56 -158 42 -39 -18 -81 -36 -126 -55 -22 -9 -56 -25
-75 -35 l-35 -19 -3 -175 -2 -174 52 -25 c29 -13 80 -35 113 -48 33 -13 62
-27 63 -31 5 -12 92 -9 92 2 0 6 5 10 11 10 10 0 90 33 121 50 14 8 17 4 20
-28 l3 -37 260 -3 c236 -2 261 -1 273 15 9 13 12 111 12 408 0 337 -2 394 -16
413 -15 22 -18 22 -257 22 -146 0 -249 -5 -259 -11z m132 -136 c1 -35 6 -66
15 -78 14 -17 19 -18 48 -6 57 23 64 23 102 5 55 -26 69 -12 73 70 l3 66 39 0
40 0 0 -150 0 -150 -195 0 -195 0 0 150 0 150 35 0 35 0 0 -57z m-289 -240
c64 -29 69 -42 23 -58 -16 -5 -32 -14 -36 -19 -10 -14 -81 -12 -86 2 -2 7 -11
12 -20 12 -9 1 -28 7 -40 14 l-24 13 26 16 c14 9 31 17 39 17 7 0 22 7 33 15
24 18 16 19 85 -12z m-169 -132 c26 -11 52 -21 57 -21 7 0 11 -40 11 -111 0
-126 8 -119 -96 -73 l-54 24 0 110 c0 102 1 110 18 102 9 -5 38 -19 64 -31z
m308 -71 l0 -110 -27 -11 c-16 -6 -39 -17 -53 -24 -14 -7 -37 -15 -52 -19
l-28 -6 0 97 c0 54 4 103 8 108 4 6 27 19 52 31 45 21 93 42 98 43 1 1 2 -49
2 -109z m150 53 c1 -88 29 -112 90 -76 27 16 31 16 70 -2 60 -27 74 -15 78 69
l3 66 39 0 40 0 0 -150 0 -150 -195 0 -195 0 0 150 0 150 35 0 35 0 0 -57z"/>
</g>
</svg>
