<?xml version="1.0" standalone="no"?>
<!DOCTYPE svg PUBLIC "-//W3C//DTD SVG 20010904//EN"
 "http://www.w3.org/TR/2001/REC-SVG-20010904/DTD/svg10.dtd">
<svg version="1.0" xmlns="http://www.w3.org/2000/svg"
 width="272.000000pt" height="247.000000pt" viewBox="0 0 272.000000 247.000000"
 preserveAspectRatio="xMidYMid meet">
<metadata>
Created by potrace 1.15, written by Peter Selinger 2001-2017
</metadata>
<g transform="translate(0.000000,247.000000) scale(0.100000,-0.100000)"
fill="#000000" stroke="none">
<path d="M1690 2159 c-8 -18 -27 -37 -47 -47 -42 -20 -42 -28 1 -48 19 -10 40
-31 50 -50 8 -19 19 -34 24 -34 5 0 16 16 25 35 9 20 31 42 52 53 l37 18 -42
28 c-22 15 -46 38 -52 51 -15 34 -33 31 -48 -6z"/>
<path d="M900 2000 c-14 -33 -58 -75 -90 -85 -31 -10 -24 -30 18 -49 26 -12
46 -31 62 -62 14 -24 27 -44 31 -44 3 0 17 20 30 44 16 31 35 50 61 62 21 9
38 22 38 28 0 6 -17 20 -37 31 -23 12 -47 37 -61 63 -13 23 -27 42 -32 42 -4
0 -13 -14 -20 -30z"/>
<path d="M1383 1934 l-26 -26 6 -129 6 -129 -32 -25 c-18 -14 -69 -52 -114
-85 -75 -54 -83 -63 -83 -93 0 -18 5 -38 11 -44 7 -7 52 -24 101 -40 48 -15
87 -31 86 -35 -2 -4 -227 -232 -501 -507 -446 -445 -498 -501 -495 -526 4 -37
48 -70 79 -60 13 5 247 233 520 507 l496 500 11 -29 c6 -15 19 -54 28 -87 18
-65 43 -96 77 -96 33 0 44 12 126 128 l72 102 138 0 c121 0 140 2 154 18 31
34 20 65 -62 176 l-79 107 45 131 44 131 -19 26 c-10 14 -27 28 -37 30 -10 1
-75 -16 -145 -39 l-127 -42 -108 81 c-59 45 -116 81 -127 81 -10 0 -31 -12
-45 -26z m185 -224 c36 -27 74 -50 84 -50 10 0 48 11 84 25 37 14 69 23 72 21
2 -3 -5 -36 -17 -75 -11 -38 -21 -78 -21 -89 0 -11 20 -47 45 -81 25 -34 45
-63 45 -66 0 -2 -39 -6 -87 -7 l-88 -3 -48 -65 c-27 -36 -52 -66 -56 -68 -5
-1 -19 30 -31 70 -13 40 -27 78 -32 85 -5 6 -43 22 -84 34 -40 13 -74 28 -74
34 0 5 24 26 52 45 79 54 78 52 78 151 0 49 3 89 6 89 3 0 35 -22 72 -50z"/>
<path d="M2000 1056 c0 -7 5 -27 11 -45 8 -23 8 -44 -1 -82 -7 -27 -10 -52 -8
-55 3 -2 25 2 49 9 25 8 54 11 65 7 10 -4 32 -10 48 -14 28 -7 28 -6 21 26 -9
42 -9 94 0 136 4 17 6 32 4 32 -2 0 -24 -6 -49 -14 -38 -11 -52 -11 -90 0 -25
8 -46 14 -47 14 -2 0 -3 -6 -3 -14z"/>
<path d="M1635 759 c-9 -17 -32 -40 -51 -51 -19 -11 -34 -22 -34 -24 0 -2 17
-15 38 -28 22 -13 45 -38 52 -55 7 -17 16 -31 20 -31 4 0 13 14 20 31 7 17 31
42 53 56 l40 25 -40 24 c-23 13 -46 37 -53 54 -16 38 -25 38 -45 -1z"/>
</g>
</svg>
