<?xml version="1.0" standalone="no"?>
<!DOCTYPE svg PUBLIC "-//W3C//DTD SVG 20010904//EN"
 "http://www.w3.org/TR/2001/REC-SVG-20010904/DTD/svg10.dtd">
<svg version="1.0" xmlns="http://www.w3.org/2000/svg"
 width="272.000000pt" height="247.000000pt" viewBox="0 0 272.000000 247.000000"
 preserveAspectRatio="xMidYMid meet">
<metadata>
Created by potrace 1.15, written by Peter Selinger 2001-2017
</metadata>
<g transform="translate(0.000000,247.000000) scale(0.100000,-0.100000)"
fill="#000000" stroke="none">
<path d="M390 2111 l0 -150 43 -3 42 -3 3 -933 2 -932 155 0 155 0 0 109 c0
122 6 136 63 146 18 3 256 5 529 3 462 -3 499 -4 515 -21 15 -14 19 -38 21
-127 l4 -110 149 0 149 0 2 932 3 933 43 3 42 3 0 150 0 149 -960 0 -960 0 0
-149z m1830 4 l0 -65 -870 0 -870 0 0 58 c0 32 3 62 7 65 3 4 395 7 870 7
l863 0 0 -65z m-910 -914 c0 -683 -2 -759 -16 -765 -9 -3 -175 -6 -370 -6
l-354 0 0 765 0 765 370 0 370 0 0 -759z m828 14 c1 -407 0 -750 -3 -762 l-5
-23 -358 0 c-265 0 -361 3 -370 12 -9 9 -12 191 -12 758 0 411 3 750 7 753 4
4 171 6 372 5 l366 -3 3 -740z m-1437 -950 c-1 -43 -5 -83 -7 -87 -3 -4 -32
-8 -65 -8 l-59 0 0 90 0 91 67 -3 66 -3 -2 -80z m1434 -5 l0 -85 -60 0 -60 0
-6 65 c-3 36 -9 71 -13 78 -15 24 6 33 72 30 l67 -3 0 -85z"/>
<path d="M1107 1332 c-24 -27 -25 -293 -1 -316 20 -20 38 -20 58 0 13 13 16
42 16 158 0 126 -2 145 -18 159 -24 22 -35 21 -55 -1z"/>
<path d="M1546 1334 c-23 -23 -23 -295 0 -318 19 -20 29 -20 48 0 23 23 23
295 0 318 -8 9 -19 16 -24 16 -5 0 -16 -7 -24 -16z"/>
</g>
</svg>
