<?xml version="1.0" standalone="no"?>
<!DOCTYPE svg PUBLIC "-//W3C//DTD SVG 20010904//EN"
 "http://www.w3.org/TR/2001/REC-SVG-20010904/DTD/svg10.dtd">
<svg version="1.0" xmlns="http://www.w3.org/2000/svg"
 width="272.000000pt" height="247.000000pt" viewBox="0 0 272.000000 247.000000"
 preserveAspectRatio="xMidYMid meet">
<metadata>
Created by potrace 1.15, written by Peter Selinger 2001-2017
</metadata>
<g transform="translate(0.000000,247.000000) scale(0.100000,-0.100000)"
fill="#000000" stroke="none">
<path d="M1265 1994 c-155 -10 -393 -64 -535 -121 -101 -41 -238 -109 -261
-129 -8 -8 -18 -14 -21 -14 -23 0 -205 -140 -296 -227 -54 -53 -55 -53 -50
-103 5 -53 22 -74 66 -86 35 -10 64 2 113 48 71 66 101 92 139 118 19 14 37
27 40 31 3 3 23 16 45 29 22 13 42 26 45 29 9 11 118 67 200 104 220 100 505
148 753 126 158 -13 319 -47 404 -85 17 -8 36 -14 42 -14 6 0 19 -4 29 -9 9
-6 58 -29 107 -53 119 -56 272 -160 365 -247 96 -90 140 -101 193 -48 16 16
22 34 22 65 0 40 -5 48 -65 105 -168 160 -399 302 -620 380 -210 74 -497 115
-715 101z"/>
<path d="M1205 1465 c-236 -38 -470 -149 -627 -297 -63 -59 -75 -90 -59 -141
15 -43 48 -61 101 -54 33 4 54 17 99 60 121 116 270 189 481 238 122 28 374
11 495 -33 52 -19 119 -48 148 -64 15 -9 38 -21 50 -27 49 -27 105 -68 145
-107 52 -50 87 -70 124 -70 55 0 88 34 88 91 0 38 -6 47 -52 93 -73 70 -158
136 -177 136 -5 0 -11 4 -13 8 -4 11 -175 93 -238 115 -159 56 -401 78 -565
52z"/>
<path d="M1255 959 c-33 -6 -64 -15 -69 -20 -6 -5 -17 -9 -26 -9 -17 0 -138
-59 -166 -81 -9 -8 -39 -35 -65 -60 -42 -39 -49 -52 -49 -84 0 -29 7 -44 31
-66 42 -39 84 -39 135 2 150 121 288 160 436 124 85 -21 148 -52 220 -112 42
-34 61 -43 90 -43 21 0 38 5 38 10 0 6 5 10 11 10 21 0 38 34 39 76 0 36 -6
48 -42 83 -54 55 -162 118 -249 148 -82 27 -240 38 -334 22z"/>
<path d="M1335 470 c-61 -25 -91 -109 -61 -168 23 -45 53 -62 109 -62 42 0 54
5 83 34 28 28 34 42 34 75 0 56 -22 95 -64 115 -37 17 -69 20 -101 6z"/>
</g>
</svg>
