<?xml version="1.0" encoding="utf-8"?>
<!-- Generator: Adobe Illustrator 23.0.2, SVG Export Plug-In . SVG Version: 6.00 Build 0)  -->
<svg version="1.1" id="Layer_1" xmlns="http://www.w3.org/2000/svg" xmlns:xlink="http://www.w3.org/1999/xlink" x="0px" y="0px"
	 width="32px" height="32px" viewBox="0 0 32 32" style="enable-background:new 0 0 32 32;" xml:space="preserve">
<style type="text/css">
	.st0{fill:none;}
	.st1{fill:#972726;}
</style>
<g>
	<rect y="0" class="st0" width="32" height="32"/>
</g>
<g>
	<path class="st1" d="M29.7,18.17h-1.04c0.17-0.3,0.28-0.64,0.28-1.01v-1.79v-1v-1.79c0-1.11-0.9-2.01-2.01-2.01h-4.65
		c2.58-0.84,4.23-2.21,4.23-3.79c0-2.63-4.58-4.69-10.42-4.69c-5.84,0-10.42,2.06-10.42,4.69c0,1.58,1.65,2.94,4.23,3.79H4.76
		c-0.89,0-1.62,0.73-1.62,1.62v1.55c0,0.44,0.18,0.83,0.45,1.12c-0.28,0.29-0.45,0.69-0.45,1.12v1.55c0,0.22,0.04,0.43,0.13,0.62
		H2.2c-1.1,0-2,0.9-2,2v2.37c0,0.6,0.27,1.13,0.69,1.5c-0.42,0.37-0.69,0.9-0.69,1.5v2.37c0,1.1,0.9,2,2,2h27.5
		c1.16,0,2.1-0.94,2.1-2.1v-3.27v-1v-3.26C31.8,19.11,30.86,18.17,29.7,18.17 M6.66,6.79c0-1.78,3.79-3.69,9.42-3.69
		c5.64,0,9.42,1.91,9.42,3.69c0,1.78-3.79,3.69-9.42,3.69C10.44,10.48,6.66,8.57,6.66,6.79 M8.93,14.62h-3.5
		c-1.38,0-1.3-0.87-1.3-0.87V12.2c0-0.34,0.28-0.62,0.62-0.62h22.17c0.56,0,1.01,0.45,1.01,1.01v1.43v0.15v0.21v1v0.27v0.02v1.5
		c0,0.56-0.45,1.01-1.01,1.01H4.76c-0.34,0-0.62-0.28-0.62-0.62v-1.55c0,0-0.07-0.87,1.3-0.87h3.5H24.7v-0.5H8.93z M30.8,23.22v0.07
		v0.24v1v0.25v0.06v2.95c0,0.61-0.5,1.1-1.1,1.1H2.2c-0.55,0-1-0.45-1-1v-2.37c0,0-0.12-1.25,1.8-1.25v0h24.56v-0.5H4.52H3.01
		c-1.92,0-1.8-1.25-1.8-1.25v-2.37c0-0.55,0.45-1,1-1h2.56h22.17h2.77c0.61,0,1.1,0.49,1.1,1.1V23.22z"/>
</g>
</svg>
