<?xml version="1.0" encoding="utf-8"?>
<!-- Generator: Adobe Illustrator 23.0.2, SVG Export Plug-In . SVG Version: 6.00 Build 0)  -->
<svg version="1.1" id="Layer_1" xmlns="http://www.w3.org/2000/svg" xmlns:xlink="http://www.w3.org/1999/xlink" x="0px" y="0px"
	 width="32px" height="32px" viewBox="0 0 32 32" style="enable-background:new 0 0 32 32;" xml:space="preserve">
<style type="text/css">
	.st0{fill:none;}
	.st1{fill:#952524;}
</style>
<g>
	<rect y="0" class="st0" width="32" height="32"/>
</g>
<g>
	<path class="st1" d="M16,4.55c-5.98,0-11.61,2.35-15.85,6.6c-0.2,0.2-0.2,0.53,0,0.74l0.03,0.02h0c0.1,0.08,0.22,0.13,0.34,0.13
		c0.14,0,0.27-0.05,0.37-0.16C4.93,7.83,10.3,5.6,16,5.6c5.7,0,11.07,2.23,15.11,6.29c0.1,0.1,0.23,0.15,0.37,0.16h0
		c0.14,0,0.27-0.05,0.37-0.15c0.2-0.2,0.21-0.54,0-0.74C27.61,6.89,21.98,4.55,16,4.55"/>
	<path class="st1" d="M16,10.26c-4.46,0-8.66,1.75-11.82,4.92c-0.2,0.2-0.2,0.53,0.01,0.74c0.2,0.2,0.54,0.2,0.74-0.01
		C7.89,12.94,11.82,11.3,16,11.3c4.18,0,8.11,1.64,11.08,4.61c0.1,0.1,0.23,0.16,0.37,0.16h0c0.14,0,0.27-0.05,0.37-0.15
		c0.2-0.2,0.21-0.53,0-0.74C24.66,12.01,20.46,10.26,16,10.26"/>
	<path class="st1" d="M16,16.64c-2.76,0-5.36,1.09-7.31,3.06c-0.2,0.2-0.2,0.53,0.01,0.73c0.1,0.1,0.23,0.16,0.37,0.16h0
		c0.14,0,0.26-0.05,0.36-0.15c1.75-1.77,4.09-2.74,6.57-2.74c2.48,0,4.82,0.97,6.57,2.74c0.09,0.1,0.22,0.15,0.36,0.15h0
		c0.14,0,0.27-0.06,0.37-0.16c0.2-0.2,0.21-0.53,0.01-0.73C21.36,17.73,18.77,16.64,16,16.64"/>
	<path class="st1" d="M19.37,23.77c-0.87-0.93-2.1-1.46-3.37-1.46c-1.27,0-2.5,0.53-3.37,1.46c-0.12,0.13-0.12,0.32,0,0.44
		l3.14,3.15c0.12,0.12,0.32,0.12,0.44,0l3.14-3.15C19.49,24.1,19.49,23.9,19.37,23.77 M16,26.34l-2.28-2.42l0.1-0.07
		c0.65-0.45,1.4-0.7,2.18-0.7c0.78,0,1.54,0.24,2.18,0.7l0.1,0.07L16,26.34z"/>
</g>
</svg>
