<?xml version="1.0" encoding="utf-8"?>
<!-- Generator: Adobe Illustrator 23.0.2, SVG Export Plug-In . SVG Version: 6.00 Build 0)  -->
<svg version="1.1" id="Layer_1" xmlns="http://www.w3.org/2000/svg" xmlns:xlink="http://www.w3.org/1999/xlink" x="0px" y="0px"
	 width="32px" height="32px" viewBox="0 0 32 32" style="enable-background:new 0 0 32 32;" xml:space="preserve">
<style type="text/css">
	.st0{fill:none;}
	.st1{fill:#962425;}
</style>
<rect class="st0" width="32" height="32"/>
<g>
	<rect x="21.34" y="14.67" class="st1" width="0.53" height="2.75"/>
	<rect x="21.34" y="8.2" class="st1" width="0.53" height="2.75"/>
	<rect x="1.95" y="15.24" class="st1" width="6.13" height="0.53"/>
	<rect x="11.04" y="15.24" class="st1" width="6.13" height="0.53"/>
	<path class="st1" d="M5.96,10.4c-0.05-0.13-0.2-0.19-0.33-0.13c-0.17,0.07-1.03,0.45-1.09,1.06c-0.02,0.2,0.04,0.51,0.47,0.8
		c0.08,0.05,0.3,0.23,0.29,0.41c-0.01,0.11-0.12,0.33-0.73,0.61c-0.13,0.06-0.19,0.21-0.13,0.33c0.04,0.09,0.13,0.15,0.23,0.15
		c0.04,0,0.07-0.01,0.1-0.02c0.67-0.3,1.01-0.63,1.03-1.04c0.04-0.52-0.49-0.85-0.51-0.86c-0.12-0.08-0.26-0.21-0.25-0.33
		c0.02-0.23,0.48-0.52,0.78-0.65C5.95,10.68,6.01,10.53,5.96,10.4"/>
	<path class="st1" d="M10.46,10.34c-0.03-0.07-0.08-0.12-0.14-0.14c-0.03-0.01-0.06-0.02-0.1-0.02c-0.03,0-0.07,0.01-0.1,0.02
		c-0.11,0.04-1.07,0.45-1.14,1.1c-0.02,0.21,0.04,0.53,0.49,0.84c0.08,0.05,0.31,0.24,0.3,0.42C9.76,12.65,9.67,12.89,9,13.19
		c-0.13,0.06-0.19,0.21-0.13,0.35c0.04,0.1,0.14,0.16,0.24,0.16c0.04,0,0.07-0.01,0.11-0.02c0.7-0.31,1.05-0.66,1.08-1.08
		c0.04-0.55-0.53-0.89-0.53-0.9c-0.13-0.09-0.27-0.21-0.25-0.34c0.02-0.23,0.49-0.54,0.82-0.67c0.06-0.03,0.12-0.08,0.14-0.14
		C10.48,10.47,10.48,10.4,10.46,10.34"/>
	<path class="st1" d="M12.76,13.53c0.04,0.1,0.14,0.16,0.24,0.16c0.04,0,0.08-0.01,0.11-0.02c0.7-0.31,1.05-0.66,1.08-1.08
		c0.04-0.55-0.53-0.89-0.53-0.9c-0.13-0.09-0.27-0.21-0.25-0.34c0.02-0.24,0.5-0.54,0.81-0.67c0.13-0.05,0.2-0.21,0.14-0.35
		c-0.03-0.06-0.08-0.11-0.14-0.14c-0.07-0.03-0.14-0.03-0.2,0c-0.18,0.07-1.07,0.47-1.14,1.1c-0.02,0.21,0.04,0.53,0.49,0.83
		c0.09,0.06,0.31,0.24,0.3,0.42c-0.01,0.11-0.12,0.35-0.76,0.63C12.76,13.25,12.7,13.4,12.76,13.53"/>
	<path class="st1" d="M17.62,8.57c-0.03-0.03-3.22-2.97-4.23-3.89c-1.02-0.92-2-0.96-2.17-0.96h-0.01H8.02c0,0-0.01,0-0.03,0
		c-0.19,0-1.16,0.05-2.16,0.96C4.81,5.61,1.63,8.54,1.6,8.57C1.51,8.65,1.49,8.76,1.53,8.86c0.04,0.1,0.14,0.17,0.25,0.17h15.67
		c0.11,0,0.21-0.07,0.25-0.17C17.73,8.76,17.7,8.65,17.62,8.57 M2.45,8.5l0.04-0.04c0.86-0.79,2.9-2.67,3.69-3.39
		C7,4.33,7.78,4.25,8,4.25h3.22c0,0,0.01,0,0.02,0c0.13,0,0.93,0.03,1.81,0.83c0.67,0.61,2.26,2.07,3.31,3.03l0.42,0.39H2.45z"/>
	<path class="st1" d="M30.49,3.58h-9.83c-0.83,0-1.5,0.67-1.5,1.5v12.08H1.66C0.75,17.16,0,17.9,0,18.81v7.97
		c0,0.91,0.74,1.65,1.65,1.65h28.84c0.83,0,1.5-0.67,1.5-1.5V5.08C32,4.25,31.32,3.58,30.49,3.58 M1.66,18.13h7.43v2.66h-8.1v-1.99
		C0.98,18.43,1.28,18.13,1.66,18.13 M1.66,27.45c-0.37,0-0.67-0.3-0.67-0.67v-5.46h8.1v6.13H1.66z M19.16,27.45h-9.1v-9.32h9.1
		V27.45z M31.02,26.92c0,0.29-0.23,0.52-0.52,0.52h-9.83c-0.29,0-0.52-0.24-0.52-0.52V13.4h10.88V26.92z M31.02,12.42H20.14V5.08
		c0-0.29,0.23-0.52,0.52-0.52h9.83c0.29,0,0.52,0.24,0.52,0.52V12.42z"/>
	<g>
		<path class="st1" d="M17.17,25.92h-4.9c-0.46,0-0.84-0.38-0.84-0.84v-4.33c0-0.46,0.38-0.84,0.84-0.84h4.9
			c0.46,0,0.84,0.38,0.84,0.84v4.33C18.01,25.54,17.63,25.92,17.17,25.92z M12.26,20.43c-0.17,0-0.31,0.14-0.31,0.31v4.33
			c0,0.17,0.14,0.31,0.31,0.31h4.9c0.17,0,0.31-0.14,0.31-0.31v-4.33c0-0.17-0.14-0.31-0.31-0.31H12.26z"/>
	</g>
</g>
</svg>
