<?xml version="1.0" encoding="utf-8"?>
<!-- Generator: Adobe Illustrator 23.0.2, SVG Export Plug-In . SVG Version: 6.00 Build 0)  -->
<svg version="1.1" id="Layer_1" xmlns="http://www.w3.org/2000/svg" xmlns:xlink="http://www.w3.org/1999/xlink" x="0px" y="0px"
	 width="32px" height="32px" viewBox="0 0 32 32" style="enable-background:new 0 0 32 32;" xml:space="preserve">
<style type="text/css">
	.st0{fill:none;}
	.st1{fill:#952524;}
</style>
<g>
	<rect y="0" class="st0" width="32" height="32"/>
</g>
<g>
	<path class="st1" d="M31.31,12.38c-0.14-1.27-1.24-2.22-2.57-2.22H12.39c0.38-0.49,0.56-1.1,0.51-1.73c-0.1-1.29-1.24-2.3-2.58-2.3
		H4.43c-0.7,0-1.38,0.29-1.88,0.79C2.08,7.41,1.83,8.04,1.84,8.69c0.01,0.58,0.23,1.14,0.61,1.58c-1.05,0.32-1.77,1.29-1.77,2.39
		c0,1.17,0.86,2.22,2.01,2.45v10.26c0,0.27,0.22,0.49,0.49,0.49c0.27,0,0.49-0.22,0.49-0.49V15.16h24.81v10.21
		c0,0.27,0.22,0.49,0.49,0.49c0.27,0,0.49-0.22,0.49-0.49V15.08C30.65,14.77,31.44,13.62,31.31,12.38 M30.34,12.51
		c0.04,0.43-0.1,0.85-0.39,1.17c-0.29,0.32-0.7,0.5-1.13,0.5H3.25c-0.82,0-1.51-0.6-1.59-1.37c-0.04-0.43,0.09-0.85,0.39-1.17
		c0.29-0.32,0.7-0.5,1.13-0.5h25.57C29.56,11.14,30.26,11.74,30.34,12.51 M11.54,9.66c-0.29,0.32-0.7,0.5-1.13,0.5H4.42
		c-0.82,0-1.51-0.6-1.59-1.37C2.79,8.36,2.92,7.94,3.22,7.62c0.29-0.32,0.7-0.5,1.13-0.5h5.99c0.82,0,1.51,0.6,1.59,1.37
		C11.97,8.92,11.83,9.34,11.54,9.66"/>
</g>
</svg>
