<?xml version="1.0" encoding="utf-8"?>
<!-- Generator: Adobe Illustrator 23.0.2, SVG Export Plug-In . SVG Version: 6.00 Build 0)  -->
<svg version="1.1" id="Layer_1" xmlns="http://www.w3.org/2000/svg" xmlns:xlink="http://www.w3.org/1999/xlink" x="0px" y="0px"
	 width="32px" height="32px" viewBox="0 0 32 32" style="enable-background:new 0 0 32 32;" xml:space="preserve">
<style type="text/css">
	.st0{fill:none;}
	.st1{fill:#952625;}
</style>
<rect y="0" class="st0" width="32" height="32"/>
<g>
	<path class="st1" d="M25.15,18.21V2.12H6.84v16.08H0.53v11.67h30.94V18.21H25.15z M26.73,19.19v9.71h-3.81v-9.71h2.23H26.73z
		 M13.74,19.19v9.71H9.93v-9.71H13.74z M14.26,19.19h3.81v9.71h-3.81V19.19z M18.59,19.19h3.81v9.71h-3.81V19.19z M7.82,3.1h16.35
		v15.1H7.82V3.1z M9.41,19.19v9.71H5.6v-9.71h1.24H9.41z M1.51,19.19h3.57v9.71H1.51V19.19z M30.49,28.9h-3.24v-9.71h3.24V28.9z"/>
</g>
</svg>
