<?xml version="1.0" encoding="utf-8"?>
<!-- Generator: Adobe Illustrator 23.0.2, SVG Export Plug-In . SVG Version: 6.00 Build 0)  -->
<svg version="1.1" id="Layer_1" xmlns="http://www.w3.org/2000/svg" xmlns:xlink="http://www.w3.org/1999/xlink" x="0px" y="0px"
	 width="32px" height="32px" viewBox="0 0 32 32" style="enable-background:new 0 0 32 32;" xml:space="preserve">
<style type="text/css">
	.st0{fill:none;}
	.st1{fill:#952524;}
</style>
<rect class="st0" width="32" height="32"/>
<g>
	<path class="st1" d="M15.15,5.61c0.01,0.04,0.09,0.61,0.56,0.68c0.13,0.02,0.22-0.01,0.3-0.07c0.16-0.14,0.17-0.45,0.16-0.54
		l-0.01-0.03c-0.73-3.05-3.42-5.19-6.56-5.19c-3.72,0-6.75,3.03-6.75,6.75c0,3.03,2.05,5.7,4.98,6.5l0.07,0.02
		c0.08,0.01,0.38,0.04,0.55-0.1c0.08-0.07,0.11-0.16,0.11-0.29c0-0.55-0.56-0.62-0.59-0.62c-2.48-0.74-4.14-2.95-4.14-5.5
		c0-3.18,2.59-5.77,5.76-5.77C12.16,1.44,14.44,3.16,15.15,5.61"/>
	<path class="st1" d="M28.64,1.21h-4.71c-0.19,0-0.36,0.11-0.44,0.28l-2.74,5.64H10.63c-0.27,0-0.49,0.22-0.49,0.49v23.42
		c0,0.27,0.22,0.49,0.49,0.49h13.31c0.27,0,0.49-0.22,0.49-0.49V7.62c0-0.27-0.22-0.49-0.49-0.49h-2.09l0.06-0.12l2.34-4.82h4.4
		c0.27,0,0.49-0.22,0.49-0.49S28.91,1.21,28.64,1.21 M23.44,8.11v22.44H11.12V8.11h9.17l-0.06,0.12l-7.15,14.75
		c-0.12,0.24-0.02,0.54,0.23,0.66c0.07,0.03,0.14,0.05,0.21,0.05c0.19,0,0.36-0.11,0.44-0.28l7.41-15.3H23.44z"/>
	<polygon class="st1" points="18.61,13.74 23.49,13.74 23.49,13.19 18.89,13.19 	"/>
	<polygon class="st1" points="17.85,13.19 11.08,13.19 11.08,13.74 17.57,13.74 	"/>
</g>
</svg>
