<?xml version="1.0" encoding="utf-8"?>
<!-- Generator: Adobe Illustrator 23.0.2, SVG Export Plug-In . SVG Version: 6.00 Build 0)  -->
<svg version="1.1" id="Layer_1" xmlns="http://www.w3.org/2000/svg" xmlns:xlink="http://www.w3.org/1999/xlink" x="0px" y="0px"
	 width="32px" height="32px" viewBox="0 0 32 32" style="enable-background:new 0 0 32 32;" xml:space="preserve">
<style type="text/css">
	.st0{fill:none;}
	.st1{fill:#972726;}
</style>
<g>
	<rect y="0" class="st0" width="32" height="32"/>
</g>
<g>
	<path class="st1" d="M25.93,7.96c-0.31-1.89-1.99-3.35-4.04-3.35c-2.26,0-4.1,1.78-4.1,3.97c0,1.31,0.67,2.46,1.68,3.19
		c-0.28,0.3-0.59,0.64-0.91,1.03c-0.81-0.01-2.47-0.2-2.88-1.54c-0.46-1.5-0.78-2.26-1.33-2.51c-0.28-0.13-0.6-0.11-0.97,0.05
		c-1.09,0.47-0.81,3.03-0.75,3.5c0,0.12,0.02,1.16,1.89,2.45l-0.81,1.1l-3.45-4.08L7.12,14.3l1.17,1.53l-2.41,0.13l-1.73-1.67
		c-0.12-0.07-1.18-0.66-1.81-0.21c-0.38,0.27-0.49,0.84-0.33,1.67c0.23,1.17,0.93,1.92,1.64,2.4C3,18.15,1.38,18.28,0.65,19.37
		c-0.96,1.44-0.21,2.39,0.79,3.39c1,1,5.31,4.38,5.49,4.53l0.14,0.11h16.08l8.21-14.31c0.04-0.06,0.96-1.45-0.03-2.67
		C29.61,8.33,27.74,7.74,25.93,7.96 M18.3,8.57c0-1.9,1.61-3.45,3.59-3.45c1.79,0,3.27,1.27,3.53,2.92
		c-1.62,0.33-3.16,1.26-4.44,2.3c-0.05,0.04-0.5,0.4-1.16,1.05C18.91,10.76,18.3,9.74,18.3,8.57 M15.25,14.59l-0.23-0.15
		c-1.85-1.2-1.89-2.15-1.89-2.19c-0.14-1.1-0.1-2.76,0.44-3c0.31-0.13,0.46-0.1,0.55-0.06c0.37,0.17,0.67,0.93,1.06,2.2
		c0.45,1.46,1.97,1.82,2.97,1.89c-0.86,1.09-1.8,2.49-2.62,4.17c-0.01,0-0.02,0-0.02-0.01c-0.25-0.08-0.44-0.12-0.54-0.14
		l-0.92-1.09L15.25,14.59z M8.19,14.43l1.96-1.6l4.4,5.2l0.14,0.02c0,0,0.22,0.04,0.52,0.13c0.34,0.1,0.66,0.23,0.93,0.38
		c0.52,0.28,0.89,0.62,1.1,1.01c0.32,0.58,0.29,1.29-0.07,2.12c-0.05,0.08-0.88,1.52-2.06,1.72c-0.6,0.1-1.19-0.12-1.84-0.7
		c-0.04-0.03-0.98-0.76-1.03-2.84l0-0.13L8.19,14.43z M2.52,15.65c-0.12-0.6-0.08-1.01,0.12-1.15c0.29-0.21,0.97,0.07,1.2,0.2
		l1.84,1.79l2.99-0.16l1.4,1.83H4.75C3.94,17.82,2.8,17.11,2.52,15.65 M30.49,12.54l-7.93,13.83H7.43c-0.76-0.6-4.4-3.48-5.25-4.33
		C1.15,21,1.04,20.65,1.51,19.94c0.46-0.69,1.85-0.78,2.37-0.76h6.97l0.63,0.82c0.09,2.45,1.31,3.3,1.31,3.3h0
		c0.66,0.59,1.35,0.89,2.04,0.89c0.13,0,0.27-0.01,0.41-0.04c1.6-0.27,2.59-2.06,2.63-2.15c0.47-1.07,0.48-2.03,0.04-2.83
		c-0.29-0.53-0.77-0.98-1.44-1.33c0,0,0,0,0,0c1.28-2.61,2.87-4.5,3.94-5.59c0.15-0.15,0.29-0.29,0.42-0.41
		c0.47-0.45,0.77-0.69,0.79-0.7c1.35-1.09,2.62-1.77,3.8-2.04c0.18-0.04,0.35-0.07,0.53-0.1c1.73-0.23,3.26,0.46,4.58,2.07
		C31.04,11.69,30.53,12.48,30.49,12.54"/>
</g>
</svg>
