<?xml version="1.0" encoding="utf-8"?>
<!-- Generator: Adobe Illustrator 23.0.2, SVG Export Plug-In . SVG Version: 6.00 Build 0)  -->
<svg version="1.1" id="Layer_1" xmlns="http://www.w3.org/2000/svg" xmlns:xlink="http://www.w3.org/1999/xlink" x="0px" y="0px"
	 width="32px" height="32px" viewBox="0 0 32 32" style="enable-background:new 0 0 32 32;" xml:space="preserve">
<style type="text/css">
	.st0{fill:none;}
	.st1{fill:#952524;}
</style>
<g>
	<rect y="0" class="st0" width="32" height="32"/>
</g>
<g>
	<path class="st1" d="M7.31,17.47c2.54,0,4.6-2.06,4.6-4.6c0-2.54-2.06-4.6-4.6-4.6c-2.54,0-4.6,2.06-4.6,4.6
		C2.71,15.4,4.78,17.47,7.31,17.47z M7.31,9.25c1.99,0,3.62,1.62,3.62,3.62c0,1.99-1.62,3.62-3.62,3.62c-1.99,0-3.62-1.62-3.62-3.62
		C3.7,10.87,5.32,9.25,7.31,9.25z"/>
	<path class="st1" d="M20.54,16.04c3.34,0,6.05-2.72,6.05-6.05c0-3.34-2.72-6.05-6.05-6.05c-3.34,0-6.05,2.72-6.05,6.05
		C14.49,13.32,17.2,16.04,20.54,16.04z M20.54,4.91c2.79,0,5.07,2.27,5.07,5.07c0,2.8-2.27,5.07-5.07,5.07
		c-2.79,0-5.07-2.27-5.07-5.07C15.47,7.19,17.75,4.91,20.54,4.91z"/>
	<path class="st1" d="M20.54,18.37c-6.59,0-11.38,3.33-11.38,7.91c0,0.99,0.8,1.79,1.79,1.79h19.17c0.99,0,1.79-0.8,1.79-1.79
		C31.92,21.69,27.13,18.37,20.54,18.37z M30.12,27.09H10.96c-0.45,0-0.81-0.36-0.81-0.81c0-3.89,4.37-6.8,10.39-6.92
		c5.73,0,10.39,3.11,10.39,6.92C30.93,26.72,30.57,27.09,30.12,27.09z"/>
	<path class="st1" d="M1.7,27.19c-0.41,0-0.74-0.33-0.74-0.74c0-3.48,3.88-5.99,9.43-6.1h0c0.31-0.28,0.8-0.67,1.33-1
		c-0.49-0.04-0.92-0.06-1.34-0.06c-5.98,0-10.31,3.01-10.31,7.17c0,0.89,0.73,1.62,1.62,1.62h6.41c-0.17-0.29-0.25-0.63-0.28-0.88
		H1.7z"/>
</g>
</svg>
