<?xml version="1.0" encoding="utf-8"?>
<!-- Generator: Adobe Illustrator 23.0.2, SVG Export Plug-In . SVG Version: 6.00 Build 0)  -->
<svg version="1.1" id="Layer_1" xmlns="http://www.w3.org/2000/svg" xmlns:xlink="http://www.w3.org/1999/xlink" x="0px" y="0px"
	 width="32px" height="32px" viewBox="0 0 32 32" style="enable-background:new 0 0 32 32;" xml:space="preserve">
<style type="text/css">
	.st0{fill:none;}
	.st1{fill:#952524;}
</style>
<rect class="st0" width="32" height="32"/>
<g>
	<path class="st1" d="M4.67,28.33c-0.38,0-0.68-0.11-0.89-0.34c-0.3-0.31-0.3-0.72-0.3-0.79V4.6c0-0.44,0.29-0.8,0.71-0.9
		c0.43-0.1,0.84,0.1,1.04,0.5c0.97,2,1.48,5.69,1.48,10.66c-0.01,0.06-0.09,0.94-0.6,1.48c-0.26,0.27-0.33,1.25-0.31,1.85v9.01
		c0,0.01,0.05,0.45-0.25,0.78C5.35,28.21,5.05,28.33,4.67,28.33 M4.02,27.21c0,0.01,0,0.25,0.15,0.4c0.21,0.21,0.77,0.22,0.96,0.01
		c0.14-0.15,0.11-0.39,0.11-0.39l0-0.33v-8.7c-0.01-0.27-0.05-1.71,0.46-2.25c0.32-0.33,0.43-0.92,0.45-1.13
		c0-6.15-0.78-9.05-1.43-10.4c-0.1-0.2-0.28-0.23-0.42-0.2C4.17,4.27,4.02,4.38,4.02,4.6V27.21z"/>
	<path class="st1" d="M15.05,3.87c-1.95,0-3.53,2.38-3.53,5.32c0,2.32,1,4.27,2.37,5v12.98c0,0.64,0.52,1.16,1.16,1.16
		c0.64,0,1.16-0.52,1.16-1.16V14.19c1.38-0.73,2.37-2.68,2.37-5C18.58,6.26,16.99,3.87,15.05,3.87 M16.21,13.58
		c-0.17,0.12-0.36,0.21-0.55,0.27v0.56v12.75c0,0.34-0.27,0.61-0.61,0.61c-0.34,0-0.61-0.27-0.61-0.61V14.41v-0.56
		c-0.19-0.06-0.38-0.15-0.55-0.27c-1.07-0.73-1.82-2.42-1.82-4.39c0-2.63,1.34-4.77,2.98-4.77c1.64,0,2.98,2.14,2.98,4.77
		C18.03,11.16,17.28,12.85,16.21,13.58"/>
	<rect x="24.12" y="3.87" class="st1" width="0.55" height="7.82"/>
	<rect x="25.9" y="3.87" class="st1" width="0.55" height="7.82"/>
	<path class="st1" d="M27.98,3.87v7.39c0,1.07-0.63,1.98-1.53,2.42c-0.17,0.08-0.36,0.15-0.55,0.2v0.56v12.72
		c0,0.34-0.27,0.61-0.61,0.61c-0.34,0-0.61-0.27-0.61-0.61V14.44v-0.56c-0.19-0.04-0.38-0.11-0.55-0.2
		c-0.9-0.44-1.53-1.35-1.53-2.42V3.87h-0.55v7.39c0,1.38,0.87,2.55,2.08,3.02v12.88c0,0.64,0.52,1.16,1.16,1.16
		c0.64,0,1.16-0.52,1.16-1.16V14.28c1.21-0.47,2.08-1.64,2.08-3.02V3.87H27.98z"/>
</g>
</svg>
