<?xml version="1.0" encoding="utf-8"?>
<!-- Generator: Adobe Illustrator 23.0.2, SVG Export Plug-In . SVG Version: 6.00 Build 0)  -->
<svg version="1.1" id="Layer_1" xmlns="http://www.w3.org/2000/svg" xmlns:xlink="http://www.w3.org/1999/xlink" x="0px" y="0px"
	 width="32px" height="32px" viewBox="0 0 32 32" style="enable-background:new 0 0 32 32;" xml:space="preserve">
<style type="text/css">
	.st0{fill:none;}
	.st1{fill:#952524;}
</style>
<rect class="st0" width="32" height="32"/>
<g>
	<path class="st1" d="M5.53,16.67c-0.15-0.03-0.29,0.06-0.33,0.21c-0.03,0.15,0.06,0.29,0.21,0.33c0.26,0.06,0.52,0.08,0.77,0.08
		c1.11,0,2.1-0.47,2.73-0.85l0.02-0.67C8.33,16.19,6.95,16.97,5.53,16.67"/>
	<path class="st1" d="M26.62,11.7c0.14-0.05,0.22-0.21,0.16-0.35c-0.05-0.14-0.21-0.21-0.35-0.16c-0.11,0.04-1.98,0.74-3.2,2.06
		l-0.13,1.1C24.07,12.65,26.59,11.71,26.62,11.7"/>
	<path class="st1" d="M29.61,6.15L29.61,6.15c-0.07-0.19-0.25-0.31-0.45-0.31c0,0-0.01,0-0.03,0c-0.28,0-2.53,0.09-4.43,1.99
		c-1.05,1.04-1.79,2.44-2.21,4.16l-0.07,0.28L22.32,12C21.11,8.63,18.69,6.54,16,6.54S10.89,8.63,9.68,12l-0.1,0.27l-0.07-0.28
		C9.1,10.27,8.36,8.87,7.31,7.83C5.39,5.92,3.21,5.84,2.9,5.84c-0.02,0-0.04,0-0.04,0c-0.21,0-0.39,0.13-0.46,0.31
		c-3.41,8.7-0.15,18.21-0.01,18.61c0.07,0.19,0.24,0.32,0.43,0.33c0.01,0,0.06,0,0.14,0c0.58,0,2.61-0.13,4.34-1.77
		c0.88-0.83,1.55-1.94,1.99-3.29l0.09-0.26l0.08,0.26c1.09,3.72,3.66,6.12,6.54,6.12c2.88,0,5.45-2.4,6.54-6.12l0.08-0.26l0.08,0.26
		c0.44,1.35,1.11,2.45,1.99,3.29c1.74,1.64,3.76,1.77,4.34,1.77c0.08,0,0.12,0,0.14,0c0.2-0.01,0.37-0.14,0.44-0.33
		C29.75,24.36,33.01,14.85,29.61,6.15 M8.93,15.71c0,0.02,0,0.04,0,0.06v0l-0.02,0.67c-0.12,2.77-0.88,4.85-2.26,6.16
		c-1.22,1.16-2.64,1.44-3.37,1.5l-0.07,0l-0.02-0.06c-0.48-1.57-2.72-9.77-0.03-17.13l0.02-0.06l0.07,0.01
		c0.73,0.1,2.13,0.44,3.37,1.67c1.11,1.11,1.83,2.69,2.14,4.7l0.12,1.09c0.04,0.47,0.05,0.9,0.05,1.32
		C8.94,15.67,8.93,15.69,8.93,15.71 M16,25.18c-3.35,0-6.08-3.96-6.08-8.83c0-4.87,2.73-8.83,6.08-8.83s6.08,3.96,6.08,8.83
		C22.08,21.22,19.35,25.18,16,25.18 M28.81,24.04l-0.02,0.07l-0.07,0c-0.72-0.06-2.13-0.32-3.36-1.49
		c-1.39-1.31-2.16-3.39-2.28-6.17l-0.02-0.67c0-0.02,0-0.04,0-0.06c0-0.02,0-0.04,0-0.07c0-0.45,0.02-0.89,0.05-1.31l0.13-1.1
		c0.83-5.39,4.43-6.25,5.51-6.38l0.07-0.01l0.02,0.06C31.54,14.26,29.29,22.47,28.81,24.04"/>
	<path class="st1" d="M26.58,17.21c0.15-0.03,0.25-0.18,0.21-0.33c-0.03-0.15-0.18-0.24-0.33-0.21c-1.41,0.3-2.8-0.49-3.4-0.9
		l0.02,0.67c0.63,0.38,1.62,0.85,2.72,0.85C26.06,17.29,26.32,17.27,26.58,17.21"/>
	<path class="st1" d="M5.22,11.34c-0.05,0.14,0.02,0.3,0.17,0.35c0.03,0.01,2.54,0.95,3.5,2.64l-0.12-1.09
		c-1.22-1.33-3.09-2.02-3.2-2.06C5.43,11.13,5.27,11.2,5.22,11.34"/>
</g>
</svg>
