<?xml version="1.0" encoding="utf-8"?>
<!-- Generator: Adobe Illustrator 23.0.2, SVG Export Plug-In . SVG Version: 6.00 Build 0)  -->
<svg version="1.1" id="Layer_1" xmlns="http://www.w3.org/2000/svg" xmlns:xlink="http://www.w3.org/1999/xlink" x="0px" y="0px"
	 width="32px" height="32px" viewBox="0 0 32 32" style="enable-background:new 0 0 32 32;" xml:space="preserve">
<style type="text/css">
	.st0{fill:none;}
	.st1{fill:#952524;}
</style>
<g>
	<rect y="0" class="st0" width="32" height="32"/>
</g>
<g>
	<path class="st1" d="M26.66,0.58H5.34c-2.63,0-4.76,2.13-4.76,4.76v21.31c0,2.62,2.14,4.76,4.76,4.76h21.31
		c2.63,0,4.76-2.13,4.76-4.76V5.34C31.42,2.72,29.28,0.58,26.66,0.58z M30.42,26.66c0,2.08-1.69,3.77-3.77,3.77H5.34
		c-2.08,0-3.77-1.69-3.77-3.77V5.34c0-2.08,1.69-3.77,3.77-3.77h21.31c2.08,0,3.77,1.69,3.77,3.77V26.66z"/>
	<path class="st1" d="M20.51,9.37c-0.91-0.86-2.03-1.3-3.34-1.3h-5.22v15.87h1v-6.91h4.22c1.33,0,2.46-0.43,3.35-1.29
		c0.92-0.85,1.39-1.93,1.39-3.19c0-1.23-0.46-2.3-1.38-3.16L20.51,9.37z M19.8,15.06c-0.68,0.7-1.56,1.06-2.59,1.06h-4.27V8.97h4.27
		c1.04,0,1.92,0.37,2.61,1.1c0.69,0.69,1.04,1.52,1.04,2.48C20.86,13.52,20.5,14.36,19.8,15.06z"/>
</g>
</svg>
