<?xml version="1.0" encoding="utf-8"?>
<!-- Generator: Adobe Illustrator 23.0.2, SVG Export Plug-In . SVG Version: 6.00 Build 0)  -->
<svg version="1.1" id="Layer_1" xmlns="http://www.w3.org/2000/svg" xmlns:xlink="http://www.w3.org/1999/xlink" x="0px" y="0px"
	 width="32px" height="32px" viewBox="0 0 32 32" style="enable-background:new 0 0 32 32;" xml:space="preserve">
<style type="text/css">
	.st0{fill:none;}
	.st1{fill:#952524;}
</style>
<rect class="st0" width="32" height="32"/>
<g>
	<path class="st1" d="M20.86,12.53h-1.27v-2.12c0-1.96-1.59-3.55-3.55-3.55c-1.96,0-3.55,1.59-3.55,3.55v2.12h-1.34
		c-0.46,0-0.84,0.38-0.84,0.84v6.89c0,0.46,0.38,0.84,0.84,0.84h9.72c0.46,0,0.84-0.38,0.84-0.84v-6.89
		C21.7,12.9,21.32,12.53,20.86,12.53 M13.03,10.41c0-1.66,1.35-3,3-3c1.66,0,3,1.35,3,3v2.12h-6.01V10.41z M21.15,20.26
		c0,0.16-0.13,0.29-0.29,0.29h-9.72c-0.16,0-0.29-0.13-0.29-0.29v-6.89c0-0.16,0.13-0.29,0.29-0.29h1.34h7.11h1.27
		c0.16,0,0.29,0.13,0.29,0.29V20.26z"/>
	<path class="st1" d="M16.8,16.79c0.31-0.24,0.52-0.6,0.52-1.02c0-0.73-0.59-1.32-1.32-1.32c-0.73,0-1.32,0.59-1.32,1.32
		c0,0.43,0.22,0.8,0.55,1.04c-0.16,0.68-0.43,1.45-0.78,1.69c-0.1,0.07-0.14,0.19-0.11,0.31c0.04,0.12,0.14,0.19,0.26,0.19h1.34H16
		h1.42c0.12,0,0.23-0.08,0.26-0.19c0.04-0.11-0.01-0.24-0.11-0.31C17.23,18.26,16.96,17.47,16.8,16.79 M16,18.45h-0.05h-0.74
		c0.25-0.42,0.43-0.97,0.54-1.42c0.05-0.21,0.09-0.39,0.11-0.53c-0.19-0.04-0.35-0.14-0.46-0.29c-0.09-0.13-0.16-0.28-0.16-0.44
		c0-0.42,0.35-0.77,0.77-0.77c0.42,0,0.77,0.34,0.77,0.77c0,0.17-0.07,0.32-0.16,0.45c-0.1,0.14-0.25,0.24-0.43,0.28
		c0.02,0.14,0.06,0.32,0.11,0.53c0.11,0.44,0.28,1,0.54,1.42H16z"/>
	<path class="st1" d="M31.07,7.08c-3.92-1.4-7.15-5.81-7.28-6l-0.16-0.23l-0.28,0.02C21.74,1,20.2,1.08,18.75,1.1
		C17.81,1.12,16.88,1.14,16,1.13l0-0.05v0.05c-0.73,0-1.41-0.01-2.02-0.02c-1.65,0-3.44-0.08-5.33-0.24L8.38,0.85L8.22,1.08
		c-0.03,0.04-3.3,4.58-7.28,6L0.61,7.19l0,0.34c0,0.19-0.02,19.13,15.29,23.6l0.1,0.02l0.11-0.02c15.2-4.44,15.28-23.4,15.28-23.6
		l0-0.34L31.07,7.08z M30.4,7.93c-0.04,1.29-0.34,5.86-2.28,10.59c-2.47,6.01-6.54,9.91-12.1,11.6L16,30.13l-0.02-0.01
		C2.89,26.15,1.7,10.94,1.6,7.93l0-0.06l0.06-0.02c3.54-1.43,6.38-4.91,7.17-5.94l0.03-0.04l0.05,0c0.07,0.01,7.28,0.64,14.21,0
		l0.05,0l0.03,0.04c0.79,1.03,3.63,4.51,7.17,5.94l0.05,0.02L30.4,7.93z"/>
</g>
</svg>
