<?xml version="1.0" encoding="utf-8"?>
<!-- Generator: Adobe Illustrator 23.0.2, SVG Export Plug-In . SVG Version: 6.00 Build 0)  -->
<svg version="1.1" id="Layer_1" xmlns="http://www.w3.org/2000/svg" xmlns:xlink="http://www.w3.org/1999/xlink" x="0px" y="0px"
	 width="32px" height="32px" viewBox="0 0 32 32" style="enable-background:new 0 0 32 32;" xml:space="preserve">
<style type="text/css">
	.st0{fill:none;}
	.st1{fill:#972726;}
	.st2{fill:#28B24B;}
	.st3{fill:none;stroke:#952524;stroke-width:0.52;stroke-miterlimit:10;}
</style>
<rect class="st0" width="32" height="32"/>
<g>
	<g>
		<path class="st1" d="M15.44,9.8c2.09,0,3.8-1.7,3.8-3.8c0-2.09-1.7-3.8-3.8-3.8c-2.09,0-3.8,1.7-3.8,3.8
			C11.64,8.1,13.34,9.8,15.44,9.8 M15.44,2.82c1.76,0,3.18,1.43,3.18,3.18s-1.43,3.18-3.18,3.18c-1.75,0-3.18-1.43-3.18-3.18
			S13.68,2.82,15.44,2.82"/>
		<path class="st1" d="M22.67,13.87l-4.06-4.06l-0.43,0.44l4.06,4.06c0.18,0.18,0.27,0.41,0.27,0.66c0,0.25-0.1,0.48-0.27,0.66
			c-0.35,0.34-0.9,0.36-1.27,0.05l-2.81-2.41v3.14h-5.44v-3.14l-2.8,2.41c-0.37,0.32-0.93,0.3-1.27-0.05
			c-0.18-0.18-0.27-0.41-0.27-0.66c0-0.25,0.1-0.48,0.27-0.66l4.06-4.06l-0.43-0.43l-4.06,4.06c-0.29,0.29-0.45,0.68-0.45,1.1
			c0,0.41,0.16,0.8,0.45,1.09c0.57,0.57,1.49,0.61,2.1,0.08l1.79-1.54v3.18l-1.8,1.41c-0.93,0.73-1.1,2.08-0.38,3.01l1.91,2.48
			c0.23,0.3,0.57,0.5,0.95,0.54c0.38,0.05,0.75-0.05,1.06-0.29l0.08-0.06c0.83-0.65,0.99-1.83,0.36-2.68l-0.52-0.7
			c-0.11-0.15-0.09-0.37,0.06-0.49l0.25-0.21l0.07,0.03c0.81,0.34,1.75,0.34,2.56,0l0.07-0.03L17.04,21
			c0.15,0.12,0.17,0.34,0.06,0.49l-0.52,0.7c-0.63,0.85-0.47,2.03,0.36,2.68l0.09,0.07c0.3,0.24,0.68,0.35,1.06,0.29
			c0.38-0.05,0.72-0.24,0.95-0.55l1.91-2.48c0.72-0.93,0.55-2.28-0.38-3.01l-1.8-1.41V14.6l1.79,1.54c0.61,0.52,1.53,0.49,2.1-0.08
			c0.29-0.29,0.45-0.68,0.45-1.09C23.12,14.55,22.96,14.17,22.67,13.87 M18.67,17.74v-0.13V17.74l0,0.13h0V17.74z M13.8,22.56
			c0.43,0.58,0.32,1.39-0.25,1.83l-0.08,0.07c-0.15,0.11-0.32,0.17-0.5,0.17c-0.03,0-0.06,0-0.1-0.01
			c-0.22-0.03-0.41-0.14-0.54-0.31l-1.91-2.48c-0.51-0.67-0.39-1.63,0.27-2.15l1.51-1.18l0.05,0.18c0.19,0.66,0.6,1.26,1.15,1.69
			l0.11,0.09l-0.11,0.1c-0.36,0.34-0.42,0.9-0.12,1.3L13.8,22.56z M15.44,20.46c-1.45,0-2.64-1.13-2.72-2.57l0-0.86h5.44l0,0.85
			C18.08,19.33,16.89,20.46,15.44,20.46 M20.19,19.68c0.66,0.52,0.79,1.48,0.27,2.15l-1.91,2.48c-0.13,0.17-0.33,0.28-0.54,0.31
			c-0.03,0-0.07,0.01-0.1,0.01c-0.17,0-0.35-0.06-0.49-0.17l-0.09-0.07c-0.57-0.45-0.68-1.25-0.25-1.83l0.52-0.7
			c0.3-0.4,0.25-0.96-0.12-1.3l-0.11-0.1l0.11-0.09c0.55-0.43,0.96-1.03,1.15-1.69l0.05-0.18L20.19,19.68z"/>
		<path class="st2" d="M18.67,17.62v0.13V17.62z"/>
		<polygon class="st2" points="18.67,17.74 18.67,17.74 18.67,17.87 		"/>
	</g>
	<path class="st1" d="M27.88,17.1v6.99c0,2.61-2.12,4.73-4.73,4.73H8.41c-2.61,0-4.73-2.12-4.73-4.73V17.1H2.7v6.99
		c0,3.15,2.56,5.71,5.71,5.71h14.75c3.15,0,5.71-2.56,5.71-5.71V17.1H27.88z"/>
	<g>
		<path class="st1" d="M25.15,7.29c-0.77,0-1.39-0.62-1.39-1.39s0.63-1.39,1.39-1.39c0.77,0,1.39,0.62,1.39,1.39
			S25.91,7.29,25.15,7.29z M25.15,5.03c-0.48,0-0.87,0.39-0.87,0.87s0.39,0.87,0.87,0.87s0.87-0.39,0.87-0.87S25.63,5.03,25.15,5.03
			z"/>
	</g>
	<g>
		<path class="st1" d="M27.07,13.19c-0.55,0-1.07-0.2-1.48-0.56c-0.44-0.4-0.71-0.94-0.74-1.54c-0.03-0.59,0.17-1.17,0.56-1.61
			c0.4-0.44,0.94-0.71,1.54-0.74c0.59-0.03,1.17,0.16,1.61,0.56c0.44,0.4,0.71,0.94,0.74,1.54v0c0.07,1.23-0.87,2.28-2.1,2.35
			C27.15,13.19,27.11,13.19,27.07,13.19z M27.07,9.25c-0.03,0-0.07,0-0.1,0c-0.46,0.03-0.87,0.23-1.18,0.57
			c-0.3,0.34-0.46,0.78-0.43,1.23c0.03,0.46,0.23,0.87,0.57,1.18c0.34,0.3,0.77,0.45,1.23,0.43c0.94-0.05,1.66-0.86,1.61-1.8l0,0
			c-0.03-0.46-0.23-0.87-0.57-1.18C27.89,9.41,27.49,9.25,27.07,9.25z"/>
	</g>
	<circle class="st3" cx="5.36" cy="11.13" r="1.02"/>
</g>
</svg>
