<?xml version="1.0" encoding="utf-8"?>
<!-- Generator: Adobe Illustrator 23.0.2, SVG Export Plug-In . SVG Version: 6.00 Build 0)  -->
<svg version="1.1" id="Layer_1" xmlns="http://www.w3.org/2000/svg" xmlns:xlink="http://www.w3.org/1999/xlink" x="0px" y="0px"
	 width="32px" height="32px" viewBox="0 0 32 32" style="enable-background:new 0 0 32 32;" xml:space="preserve">
<style type="text/css">
	.st0{fill:none;}
	.st1{fill:#972726;}
</style>
<g>
	<rect y="0" class="st0" width="32" height="32"/>
</g>
<g>
	<path class="st1" d="M30.78,21.21l-6.43-3.31V9.45l1.48,1.26c0.21,0.18,0.53,0.15,0.7-0.06c0.18-0.21,0.15-0.52-0.06-0.7
		L16.35,1.34c-0.18-0.16-0.46-0.16-0.64,0L7.63,8.05c0,0-0.01,0.01-0.01,0.01L5.36,9.95c-0.21,0.18-0.24,0.49-0.06,0.71
		c0.1,0.12,0.24,0.18,0.38,0.18c0.11,0,0.23-0.04,0.32-0.12l1.48-1.23v8.44L1.2,21.46c-0.16,0.09-0.25,0.25-0.25,0.43
		c0,0.18,0.09,0.34,0.25,0.43l14.47,8.38c0.08,0.04,0.16,0.07,0.25,0.07c0.09,0,0.18-0.02,0.25-0.07l14.64-8.62
		c0.16-0.09,0.25-0.26,0.25-0.44C31.05,21.46,30.94,21.3,30.78,21.21 M8.03,9l0.45-0.35l7.54-6.27l7.33,6.23l0.46,0.32v12.69H8.03V9
		z M15.91,29.7L2.45,21.9l5.02-2.83v2.59c0,0.28,0.22,0.5,0.5,0.5h15.87c0.28,0,0.5-0.22,0.5-0.5v-2.63l5.17,2.66L15.91,29.7z"/>
</g>
</svg>
