<?xml version="1.0" encoding="utf-8"?>
<!-- Generator: Adobe Illustrator 23.0.2, SVG Export Plug-In . SVG Version: 6.00 Build 0)  -->
<svg version="1.1" id="Layer_1" xmlns="http://www.w3.org/2000/svg" xmlns:xlink="http://www.w3.org/1999/xlink" x="0px" y="0px"
	 width="32px" height="32px" viewBox="0 0 32 32" style="enable-background:new 0 0 32 32;" xml:space="preserve">
<style type="text/css">
	.st0{fill:none;}
	.st1{fill:#952524;}
</style>
<rect class="st0" width="32" height="32"/>
<g>
	<path class="st1" d="M14.41,16.97h-13c-0.43,0-0.78,0.35-0.78,0.78v13c0,0.43,0.35,0.78,0.78,0.78h13c0.43,0,0.78-0.35,0.78-0.78
		v-13C15.19,17.32,14.84,16.97,14.41,16.97 M14.64,30.75c0,0.13-0.1,0.23-0.23,0.23h-13c-0.13,0-0.23-0.1-0.23-0.23v-13
		c0-0.13,0.1-0.23,0.23-0.23h13c0.13,0,0.23,0.1,0.23,0.23V30.75z"/>
	<path class="st1" d="M7.92,18.94c-2.93,0-5.31,2.38-5.31,5.31c0,2.93,2.38,5.31,5.31,5.31c2.93,0,5.31-2.38,5.31-5.31
		C13.23,21.32,10.85,18.94,7.92,18.94 M7.92,29.01c-2.63,0-4.76-2.14-4.76-4.76c0-2.63,2.14-4.76,4.76-4.76
		c2.63,0,4.76,2.14,4.76,4.76C12.68,26.87,10.54,29.01,7.92,29.01"/>
	<path class="st1" d="M7.92,22.12c-0.23,0-0.42,0.19-0.42,0.42c0,0.23,0.19,0.42,0.42,0.42c0.23,0,0.42-0.19,0.42-0.42
		C8.34,22.31,8.15,22.12,7.92,22.12"/>
	<path class="st1" d="M9.84,25.01c-0.23,0-0.42,0.19-0.42,0.42c0,0.23,0.19,0.42,0.42,0.42c0.23,0,0.42-0.19,0.42-0.42
		C10.26,25.2,10.07,25.01,9.84,25.01"/>
	<path class="st1" d="M5.99,25.01c-0.23,0-0.42,0.19-0.42,0.42c0,0.23,0.19,0.42,0.42,0.42c0.23,0,0.42-0.19,0.42-0.42
		C6.42,25.2,6.23,25.01,5.99,25.01"/>
	<path class="st1" d="M30.58,16.97h-13c-0.43,0-0.78,0.35-0.78,0.78v13c0,0.43,0.35,0.78,0.78,0.78h13c0.43,0,0.78-0.35,0.78-0.78
		v-13C31.36,17.32,31.01,16.97,30.58,16.97 M30.81,30.75c0,0.13-0.1,0.23-0.23,0.23h-13c-0.13,0-0.23-0.1-0.23-0.23v-13
		c0-0.13,0.1-0.23,0.23-0.23h13c0.13,0,0.23,0.1,0.23,0.23V30.75z"/>
	<path class="st1" d="M24.08,18.94c-2.93,0-5.31,2.38-5.31,5.31c0,2.93,2.38,5.31,5.31,5.31c2.93,0,5.31-2.38,5.31-5.31
		C29.4,21.32,27.01,18.94,24.08,18.94 M24.08,29.01c-2.63,0-4.76-2.14-4.76-4.76c0-2.63,2.14-4.76,4.76-4.76
		c2.63,0,4.76,2.14,4.76,4.76C28.85,26.87,26.71,29.01,24.08,29.01"/>
	<rect x="21.75" y="21.99" class="st1" width="0.55" height="2.38"/>
	<rect x="25.87" y="21.99" class="st1" width="0.55" height="2.38"/>
	<path class="st1" d="M24.08,25.59c-0.23,0-0.42,0.19-0.42,0.42c0,0.23,0.19,0.42,0.42,0.42c0.23,0,0.42-0.19,0.42-0.42
		C24.51,25.78,24.32,25.59,24.08,25.59"/>
	<path class="st1" d="M14.41,0.47h-13c-0.43,0-0.78,0.35-0.78,0.78v13c0,0.43,0.35,0.78,0.78,0.78h13c0.43,0,0.78-0.35,0.78-0.78
		v-13C15.19,0.82,14.84,0.47,14.41,0.47 M14.64,14.25c0,0.13-0.1,0.23-0.23,0.23h-13c-0.13,0-0.23-0.1-0.23-0.23v-13
		c0-0.13,0.1-0.23,0.23-0.23h13c0.13,0,0.23,0.1,0.23,0.23V14.25z"/>
	<path class="st1" d="M7.92,2.44c-2.93,0-5.31,2.38-5.31,5.31c0,2.93,2.38,5.31,5.31,5.31c2.93,0,5.31-2.38,5.31-5.31
		C13.23,4.82,10.85,2.44,7.92,2.44 M7.92,12.51c-2.63,0-4.76-2.14-4.76-4.76c0-2.63,2.14-4.76,4.76-4.76c2.63,0,4.76,2.14,4.76,4.76
		C12.68,10.38,10.54,12.51,7.92,12.51"/>
	<rect x="7.64" y="4.61" class="st1" width="0.55" height="2.36"/>
	<rect x="4.73" y="8.9" class="st1" width="2.07" height="0.55"/>
	<rect x="9.03" y="8.9" class="st1" width="2.08" height="0.55"/>
	<path class="st1" d="M30.58,0.47h-13c-0.43,0-0.78,0.35-0.78,0.78v13c0,0.43,0.35,0.78,0.78,0.78h13c0.43,0,0.78-0.35,0.78-0.78
		v-13C31.36,0.82,31.01,0.47,30.58,0.47 M30.81,14.25c0,0.13-0.1,0.23-0.23,0.23h-13c-0.13,0-0.23-0.1-0.23-0.23v-13
		c0-0.13,0.1-0.23,0.23-0.23h13c0.13,0,0.23,0.1,0.23,0.23V14.25z"/>
	<path class="st1" d="M24.08,2.44c-2.93,0-5.31,2.38-5.31,5.31c0,2.93,2.38,5.31,5.31,5.31c2.93,0,5.31-2.38,5.31-5.31
		C29.4,4.82,27.01,2.44,24.08,2.44 M24.08,12.51c-2.63,0-4.76-2.14-4.76-4.76c0-2.63,2.14-4.76,4.76-4.76
		c2.63,0,4.76,2.14,4.76,4.76C28.85,10.38,26.71,12.51,24.08,12.51"/>
	<path class="st1" d="M22.25,7.32c-0.24,0-0.43,0.19-0.43,0.43c0,0.23,0.19,0.43,0.43,0.43c0.24,0,0.43-0.19,0.43-0.43
		C22.68,7.52,22.49,7.32,22.25,7.32"/>
	<path class="st1" d="M25.92,7.32c-0.24,0-0.43,0.19-0.43,0.43c0,0.23,0.19,0.43,0.43,0.43c0.24,0,0.43-0.19,0.43-0.43
		C26.34,7.52,26.15,7.32,25.92,7.32"/>
</g>
</svg>
