<?xml version="1.0" encoding="utf-8"?>
<!-- Generator: Adobe Illustrator 23.0.2, SVG Export Plug-In . SVG Version: 6.00 Build 0)  -->
<svg version="1.1" id="Layer_1" xmlns="http://www.w3.org/2000/svg" xmlns:xlink="http://www.w3.org/1999/xlink" x="0px" y="0px"
	 width="32px" height="32px" viewBox="0 0 32 32" style="enable-background:new 0 0 32 32;" xml:space="preserve">
<style type="text/css">
	.st0{fill:none;}
	.st1{fill:#972726;}
</style>
<g>
	<rect y="0" class="st0" width="32" height="32"/>
</g>
<g>
	<path class="st1" d="M24.87,31.06l-0.47-1.81h0l-3.52-14.23c0.91-0.18,1.56-0.58,1.94-1.21c0.59-0.99,0.22-2.13,0.22-2.13
		l-0.58-2.53L22.4,8.9h2.26V8.39h-2.12l-0.02-0.23c-0.04-1.01-0.17-4.11-0.26-5.37c-0.05-0.62-0.26-1.1-0.65-1.43
		c-0.55-0.46-1.2-0.41-1.23-0.41H16l-4.33,0c-0.07-0.01-0.73-0.06-1.27,0.41c-0.39,0.33-0.61,0.81-0.65,1.43
		C9.65,4.05,9.52,7.15,9.48,8.16h0L9.46,8.39H7.34V8.9H9.6L9.54,9.16h0l-0.56,2.48c-0.02,0.05-0.39,1.19,0.2,2.18
		c0.36,0.61,1,1,1.94,1.2L7.6,29.25l-0.47,1.81h1.07v-0.05l1.18-4.79l0.13-0.48h12.99l0.13,0.48l1.19,4.8v0.04H24.87z M10.48,8.16
		c0.04-1.03,0.17-4.08,0.26-5.3c0.06-0.87,0.6-0.93,0.88-0.91H16l4.42,0c0.22-0.02,0.77,0.04,0.84,0.91
		c0.09,1.22,0.22,4.27,0.26,5.3l0.02,0.22h-4.83h-1.42h-4.83L10.48,8.16z M10.04,13.31c-0.36-0.59-0.12-1.35-0.1-1.4l0.63-2.75
		l0.07-0.26h4.61h1.5h4.61l0.07,0.26h0l0.64,2.8c0,0.01,0.24,0.76-0.11,1.35c-0.24,0.39-0.7,0.65-1.29,0.75H16l-4.58,0.01
		C10.74,13.96,10.28,13.7,10.04,13.31 M16,25.22H9.62l2.51-10.16H16l3.86-0.01l2.52,10.16H16z"/>
</g>
</svg>
