<?xml version="1.0" encoding="utf-8"?>
<!-- Generator: Adobe Illustrator 23.0.2, SVG Export Plug-In . SVG Version: 6.00 Build 0)  -->
<svg version="1.1" id="Layer_1" xmlns="http://www.w3.org/2000/svg" xmlns:xlink="http://www.w3.org/1999/xlink" x="0px" y="0px"
	 width="32px" height="32px" viewBox="0 0 32 32" style="enable-background:new 0 0 32 32;" xml:space="preserve">
<style type="text/css">
	.st0{fill:none;}
	.st1{fill:#952524;}
</style>
<rect class="st0" width="32" height="32"/>
<g>
	<g>
		<path class="st1" d="M30.38,30.32c-0.07,0-0.13-0.01-0.2-0.04l-4.5-1.92c-0.06-0.02-0.11-0.06-0.16-0.11L4.97,7.7
			c-0.19-0.19-0.2-0.51,0-0.7l2.21-2.25L5.32,2.88L2.59,5.61C1.5,6.71,2.6,8.3,2.64,8.37l6.7,6.69c0.2,0.2,0.2,0.51,0,0.71
			s-0.51,0.2-0.71,0L1.88,9.01c-0.63-0.87-1.35-2.75,0-4.11l3.09-3.09c0.19-0.19,0.52-0.19,0.71,0l2.55,2.55
			c0,0,0.01,0.01,0.01,0.01c0,0.01,0.01,0.01,0.02,0.02l20.52,20.52c0.04,0.04,0.08,0.1,0.11,0.16l1.96,4.55
			c0.08,0.19,0.04,0.41-0.1,0.55C30.64,30.27,30.51,30.32,30.38,30.32z M26.17,27.48l3.26,1.39L28,25.56L7.89,5.45L6.03,7.34
			L26.17,27.48z"/>
	</g>
	<g>
		<path class="st1" d="M7.02,9.32c-0.07,0-0.14-0.03-0.19-0.08c-0.11-0.11-0.11-0.28,0-0.39l2.58-2.58c0.11-0.11,0.28-0.11,0.39,0
			s0.11,0.28,0,0.39L7.22,9.24C7.16,9.29,7.09,9.32,7.02,9.32z"/>
	</g>
	<g>
		<path class="st1" d="M8.77,11.09c-0.07,0-0.14-0.03-0.19-0.08c-0.11-0.11-0.11-0.28,0-0.39l2.58-2.58c0.11-0.11,0.28-0.11,0.39,0
			s0.11,0.28,0,0.39l-2.58,2.58C8.91,11.06,8.84,11.09,8.77,11.09z"/>
	</g>
</g>
</svg>
