<?xml version="1.0" encoding="utf-8"?>
<!-- Generator: Adobe Illustrator 23.0.2, SVG Export Plug-In . SVG Version: 6.00 Build 0)  -->
<svg version="1.1" id="Layer_1" xmlns="http://www.w3.org/2000/svg" xmlns:xlink="http://www.w3.org/1999/xlink" x="0px" y="0px"
	 width="32px" height="32px" viewBox="0 0 32 32" style="enable-background:new 0 0 32 32;" xml:space="preserve">
<style type="text/css">
	.st0{fill:none;}
	.st1{fill:#952524;}
</style>
<rect class="st0" width="32" height="32"/>
<g>
	<rect x="1.46" y="10.33" class="st1" width="26.39" height="0.55"/>
	<path class="st1" d="M5.41,18.86c0,0.27,0.22,0.49,0.49,0.49h11.41l-2.26,2.26c-0.09,0.09-0.14,0.22-0.14,0.35
		c0,0.13,0.05,0.25,0.14,0.35c0.19,0.19,0.51,0.18,0.69,0l3.1-3.1c0.19-0.19,0.19-0.5,0-0.69l-3.18-3.18
		c-0.18-0.19-0.51-0.19-0.69,0c-0.09,0.09-0.14,0.21-0.14,0.35c0,0.13,0.05,0.26,0.14,0.35l2.35,2.35H5.9
		C5.63,18.37,5.41,18.59,5.41,18.86"/>
	<path class="st1" d="M29.69,3.51h-4.82V2.25c0-0.27-0.22-0.49-0.49-0.49c-0.27,0-0.49,0.22-0.49,0.49v1.26h-7.4V2.25
		c0-0.27-0.22-0.49-0.49-0.49s-0.49,0.22-0.49,0.49v1.26h-7.4V2.25c0-0.27-0.22-0.49-0.49-0.49c-0.27,0-0.49,0.22-0.49,0.49v1.26
		H2.31c-1.01,0-1.83,0.82-1.83,1.83v10.63h0.98V5.34c0-0.47,0.38-0.85,0.85-0.85h4.82v1.26c0,0.27,0.22,0.49,0.49,0.49
		c0.27,0,0.49-0.22,0.49-0.49V4.49h7.4v1.26c0,0.27,0.22,0.49,0.49,0.49s0.49-0.22,0.49-0.49V4.49h7.4v1.26
		c0,0.27,0.22,0.49,0.49,0.49c0.27,0,0.49-0.22,0.49-0.49V4.49h4.82c0.47,0,0.85,0.38,0.85,0.85v23.07c0,0.47-0.38,0.85-0.85,0.85
		H2.31c-0.47,0-0.85-0.38-0.85-0.85v-6.74H0.48v6.74c0,1.01,0.82,1.83,1.83,1.83h27.38c1.01,0,1.83-0.82,1.83-1.83V5.34
		C31.52,4.33,30.7,3.51,29.69,3.51"/>
</g>
</svg>
