<?xml version="1.0" encoding="utf-8"?>
<!-- Generator: Adobe Illustrator 23.0.2, SVG Export Plug-In . SVG Version: 6.00 Build 0)  -->
<svg version="1.1" id="Layer_1" xmlns="http://www.w3.org/2000/svg" xmlns:xlink="http://www.w3.org/1999/xlink" x="0px" y="0px"
	 width="32px" height="32px" viewBox="0 0 32 32" style="enable-background:new 0 0 32 32;" xml:space="preserve">
<style type="text/css">
	.st0{fill:none;}
	.st1{fill:#952524;}
</style>
<rect class="st0" width="32" height="32"/>
<g>
	<path class="st1" d="M24.21,16.36l-0.05-0.09l-7.73-14C16.35,2.13,16.19,2.04,16,2.04c-0.19,0-0.35,0.09-0.43,0.23L7.84,16.25
		c-0.01,0.03-0.02,0.04-0.03,0.06c-0.01,0.02-0.01,0.03-0.02,0.05c-0.71,1.35-1.07,2.8-1.07,4.32c0,5.12,4.16,9.28,9.28,9.28
		c5.12,0,9.28-4.16,9.28-9.28C25.28,19.16,24.92,17.71,24.21,16.36 M16,28.98c-4.58,0-8.3-3.72-8.3-8.3c0-1.23,0.27-2.43,0.82-3.57
		l0.1-0.21c0.16-0.33,0.3-0.65,0.51-0.95L16,3.52l0.07,0.13l6.8,12.31c0.21,0.3,0.35,0.61,0.51,0.94l0.1,0.21
		c0.54,1.13,0.82,2.33,0.82,3.57C24.3,25.26,20.58,28.98,16,28.98"/>
	<path class="st1" d="M18.65,15.56c-0.13,0.08-0.16,0.26-0.07,0.38c0.02,0.03,1.97,2.95,1.38,5.71c-0.28,1.31-1.09,2.39-2.4,3.21
		c-0.13,0.08-0.17,0.25-0.09,0.38c0.05,0.08,0.14,0.13,0.23,0.13c0.05,0,0.1-0.01,0.15-0.04c1.45-0.9,2.34-2.11,2.65-3.57
		c0.63-3-1.38-6.01-1.47-6.13C18.95,15.5,18.78,15.47,18.65,15.56"/>
</g>
</svg>
