<?xml version="1.0" encoding="utf-8"?>
<!-- Generator: Adobe Illustrator 23.0.2, SVG Export Plug-In . SVG Version: 6.00 Build 0)  -->
<svg version="1.1" id="Layer_1" xmlns="http://www.w3.org/2000/svg" xmlns:xlink="http://www.w3.org/1999/xlink" x="0px" y="0px"
	 width="32px" height="32px" viewBox="0 0 32 32" style="enable-background:new 0 0 32 32;" xml:space="preserve">
<style type="text/css">
	.st0{fill:none;}
	.st1{fill:#952524;}
</style>
<rect class="st0" width="32" height="32"/>
<g>
	<path class="st1" d="M29.68,12.12H2.32c-0.28,0-0.5,0.22-0.5,0.5v2.39c0,0.28,0.22,0.5,0.5,0.5h4.3l8.91,7.15l-9.22,7.39
		c-0.12,0.09-0.14,0.27-0.04,0.39c0.05,0.07,0.13,0.1,0.21,0.1c0.06,0,0.12-0.02,0.17-0.06l9.31-7.47l9.32,7.47
		c0.05,0.04,0.11,0.06,0.17,0.06c0.08,0,0.16-0.04,0.21-0.1c0.09-0.12,0.08-0.29-0.04-0.39l-9.22-7.39l8.91-7.15h4.35
		c0.28,0,0.5-0.22,0.5-0.5v-2.39C30.18,12.35,29.95,12.12,29.68,12.12 M15.97,22.31L7.5,15.52h16.94L15.97,22.31z M29.18,14.52H2.82
		v-1.39h26.35V14.52z"/>
	<path class="st1" d="M11.98,10.31H22.8c0.15,0,0.27-0.12,0.27-0.27V9.25c0-0.35,0.09-0.61,0.28-0.79c0.31-0.29,0.8-0.25,0.83-0.25
		h1.65c0.08,0,0.15-0.03,0.2-0.09c0.05-0.06,0.08-0.13,0.07-0.21c0-0.02-0.19-1.94-0.35-3.37c0.79-0.06,1.39-0.31,1.77-0.79
		c0.68-0.85,0.41-2.03,0.4-2.08c-0.03-0.15-0.18-0.24-0.33-0.21c-0.15,0.03-0.24,0.18-0.21,0.33c0,0.01,0.21,0.97-0.3,1.61
		c-0.29,0.36-0.76,0.55-1.4,0.59c-0.01-0.06-0.01-0.13-0.02-0.19c-0.16-1.31-1.22-1.54-1.73-1.48h-2.19
		c-8.42,0.06-10.03,7.58-10.05,7.66c-0.02,0.08,0,0.16,0.06,0.23C11.82,10.28,11.9,10.31,11.98,10.31 M21.76,2.88l2.22,0
		c0.11-0.02,1.03-0.08,1.16,1c0.13,1.1,0.33,3.04,0.4,3.79l-1.32,0c-0.03,0-0.73-0.06-1.23,0.4c-0.31,0.28-0.46,0.68-0.46,1.19v0.52
		H12.33C12.72,8.34,14.69,2.93,21.76,2.88"/>
	<path class="st1" d="M24.03,6.03V4.49c0-0.15-0.12-0.27-0.28-0.27h-2.26c-2.38,0-3.5,1.6-3.55,1.67c-0.06,0.09-0.07,0.19-0.02,0.28
		c0.05,0.09,0.14,0.15,0.24,0.15h5.59C23.91,6.31,24.03,6.19,24.03,6.03 M23.48,5.76h-4.69c0.47-0.42,1.35-1,2.69-1h1.99V5.76z"/>
</g>
</svg>
