<?xml version="1.0" encoding="utf-8"?>
<!-- Generator: Adobe Illustrator 23.0.2, SVG Export Plug-In . SVG Version: 6.00 Build 0)  -->
<svg version="1.1" id="Layer_1" xmlns="http://www.w3.org/2000/svg" xmlns:xlink="http://www.w3.org/1999/xlink" x="0px" y="0px"
	 width="32px" height="32px" viewBox="0 0 32 32" style="enable-background:new 0 0 32 32;" xml:space="preserve">
<style type="text/css">
	.st0{fill:none;}
	.st1{fill:#952524;}
</style>
<g>
	<rect y="0" class="st0" width="32" height="32"/>
</g>
<g>
	<path class="st1" d="M31.21,11.62L16.51,0.66c-0.3-0.23-0.73-0.23-1.03,0L0.81,11.59c-0.3,0.22-0.44,0.6-0.35,0.93
		c0.1,0.38,0.44,0.64,0.83,0.64h2.95v15.02H2.21c-0.29,0-0.53,0.24-0.53,0.54s0.24,0.53,0.53,0.53h2.04v1.72
		c0,0.3,0.24,0.54,0.54,0.54c0.3,0,0.54-0.24,0.54-0.54v-1.72h21.35v1.72c0,0.3,0.24,0.54,0.54,0.54c0.29,0,0.53-0.24,0.53-0.54
		v-1.72h2.02c0.3,0,0.54-0.24,0.54-0.53s-0.24-0.54-0.54-0.54h-2.02V13.17h2.91c0.37,0,0.71-0.22,0.83-0.54
		C31.64,12.26,31.53,11.85,31.21,11.62z M26.68,13.17v9.31H5.32v-9.31H26.68z M26.68,22.89v5.3H5.32v-5.3H26.68z M30.07,12.1H1.93
		L16,1.61L30.07,12.1z"/>
</g>
</svg>
