<?xml version="1.0" encoding="utf-8"?>
<!-- Generator: Adobe Illustrator 23.0.2, SVG Export Plug-In . SVG Version: 6.00 Build 0)  -->
<svg version="1.1" id="Layer_1" xmlns="http://www.w3.org/2000/svg" xmlns:xlink="http://www.w3.org/1999/xlink" x="0px" y="0px"
	 width="32px" height="32px" viewBox="0 0 32 32" style="enable-background:new 0 0 32 32;" xml:space="preserve">
<style type="text/css">
	.st0{fill:none;}
	.st1{fill:#952524;}
</style>
<rect class="st0" width="32" height="32"/>
<g>
	<path class="st1" d="M31.53,14.39l-5.25-6.93c-0.17-0.22-0.48-0.27-0.7-0.1l-3.55,2.69H10.05L5.99,7.32
		c-0.11-0.07-0.25-0.1-0.38-0.08c-0.13,0.03-0.25,0.1-0.32,0.21l-4.84,7.22c-0.07,0.11-0.1,0.24-0.08,0.38
		c0.03,0.13,0.1,0.24,0.21,0.32l4.19,2.81c0.08,0.06,0.18,0.08,0.28,0.08c0.03,0,0.06,0,0.1-0.01c0.13-0.03,0.24-0.1,0.32-0.21
		l0.25-0.37l0.56,0.42c-0.46,0.77-0.24,1.77,0.51,2.26c0.28,0.18,0.6,0.28,0.92,0.28c0.11,0,0.23-0.01,0.34-0.04
		c0.01,0,0.02-0.01,0.03-0.01c0.1,0.46,0.37,0.86,0.76,1.13c0.3,0.2,0.64,0.29,0.98,0.29c0.17,0,0.34-0.03,0.5-0.08
		c0.11,0.44,0.37,0.84,0.78,1.11c0.31,0.2,0.65,0.3,0.99,0.3c0.17,0,0.34-0.03,0.5-0.08c0.1,0.42,0.35,0.82,0.74,1.07
		c0.3,0.2,0.63,0.29,0.96,0.29c0.45,0,0.89-0.18,1.23-0.51l0.53,0.35c0.3,0.2,0.65,0.3,0.98,0.3c0.59,0,1.17-0.29,1.53-0.84
		c0.17-0.26,0.26-0.56,0.29-0.86c0.17,0.05,0.34,0.07,0.51,0.07c0.58,0,1.15-0.28,1.49-0.8c0.16-0.25,0.25-0.52,0.28-0.79
		c0.26,0.13,0.53,0.22,0.81,0.22c0.6,0,1.19-0.3,1.56-0.86c0.17-0.26,0.26-0.56,0.29-0.86c0.19,0.07,0.38,0.11,0.58,0.11
		c0.12,0,0.24-0.01,0.36-0.04c0.46-0.1,0.86-0.37,1.12-0.76c0.41-0.61,0.38-1.39-0.01-1.96l0.35-0.32l0.65,0.86
		c0.08,0.11,0.2,0.18,0.33,0.19c0.02,0,0.04,0.01,0.07,0.01c0.11,0,0.22-0.04,0.3-0.1l3.86-2.93c0.11-0.08,0.18-0.2,0.19-0.33
		C31.65,14.63,31.61,14.5,31.53,14.39 M4.92,17.08l-3.36-2.25l4.29-6.39l3.36,2.25L4.92,17.08z M8.63,18.82l-0.28,0.43c0,0,0,0,0,0
		l-0.06,0.08c-0.1,0.15-0.25,0.25-0.43,0.29c-0.17,0.04-0.36,0-0.51-0.1c-0.31-0.21-0.4-0.63-0.19-0.95l0.34-0.51
		c0.13-0.2,0.35-0.31,0.57-0.31c0.13,0,0.26,0.04,0.38,0.11C8.75,18.08,8.83,18.5,8.63,18.82 M10.58,20.53
		C10.58,20.53,10.58,20.53,10.58,20.53l-0.09,0.13c-0.24,0.36-0.73,0.46-1.09,0.22c-0.36-0.24-0.46-0.73-0.22-1.09l0.28-0.43
		c0,0,0,0,0,0l0.53-0.8c0.24-0.36,0.73-0.46,1.09-0.22c0.36,0.24,0.46,0.73,0.22,1.09l-0.07,0.1L10.58,20.53z M12.78,21.98
		c-0.05,0.08-0.12,0.14-0.19,0.19c-0.27,0.2-0.64,0.22-0.95,0.02c-0.37-0.24-0.47-0.74-0.23-1.11l0.73-1.1c0,0,0,0,0,0l0.21-0.32
		c0.12-0.18,0.3-0.3,0.51-0.35c0.05-0.01,0.11-0.02,0.16-0.02c0.16,0,0.32,0.05,0.47,0.15c0.05,0.03,0.08,0.08,0.13,0.13
		c0.25,0.26,0.31,0.67,0.1,0.99L12.78,21.98z M15.26,22.73c-0.02,0.08-0.04,0.15-0.09,0.22l-0.22,0.34
		c-0.07,0.11-0.18,0.19-0.29,0.24c-0.23,0.12-0.52,0.12-0.75-0.03c-0.23-0.15-0.34-0.42-0.32-0.68c0.01-0.12,0.04-0.25,0.11-0.36
		l0.22-0.34c0.05-0.07,0.11-0.12,0.17-0.17c0.25-0.19,0.59-0.22,0.87-0.04c0.17,0.11,0.28,0.28,0.32,0.48
		C15.3,22.51,15.29,22.62,15.26,22.73 M25.04,18.79c-0.11,0.17-0.29,0.29-0.49,0.33c-0.2,0.04-0.41,0-0.58-0.11l-3.03-2l-0.47-0.31
		c-0.23-0.12-0.52-0.06-0.66,0.17c-0.14,0.22-0.09,0.5,0.11,0.67l0.48,0.31l2.06,1.36c0.18,0.12,0.31,0.3,0.35,0.52
		c0.04,0.21,0,0.43-0.15,0.66c-0.25,0.38-0.76,0.48-1.13,0.23l-1.16-0.77h0l-0.96-0.63l-0.46-0.3c-0.23-0.13-0.52-0.06-0.67,0.17
		c-0.14,0.22-0.09,0.49,0.1,0.66l0.48,0.32l0.91,0.6l0.04,0.03c0.36,0.24,0.46,0.73,0.22,1.09c-0.12,0.18-0.29,0.29-0.5,0.34
		c-0.21,0.04-0.42,0-0.59-0.11l-0.96-0.63l-0.47-0.31c-0.23-0.12-0.51-0.05-0.66,0.16l-0.01,0.01c-0.14,0.22-0.08,0.5,0.11,0.66
		l0.47,0.31l0.08,0.05c0.37,0.24,0.47,0.74,0.21,1.14c-0.24,0.37-0.74,0.47-1.11,0.23l-0.51-0.33c0.26-0.55,0.21-1.19-0.1-1.69
		c-0.13-0.2-0.29-0.38-0.51-0.52c-0.21-0.14-0.44-0.21-0.67-0.25l-0.1-0.07c-0.01,0.01-0.01,0.03-0.01,0.04
		c0.05-0.11,0.08-0.22,0.1-0.33c0,0,0-0.01,0-0.01c0.05-0.27,0.04-0.53-0.03-0.79c-0.05-0.21-0.14-0.41-0.27-0.59
		c-0.13-0.19-0.3-0.36-0.5-0.49c-0.4-0.27-0.89-0.36-1.35-0.26c-0.11,0.02-0.22,0.06-0.32,0.1c-0.12-0.37-0.36-0.7-0.7-0.93
		c-0.67-0.44-1.52-0.36-2.11,0.12c-0.13-0.23-0.3-0.43-0.54-0.59C8.3,16.58,7.4,16.7,6.85,17.27l-0.57-0.43l3.89-5.8h4.3l-2.08,1.45
		c-0.06,0.05-0.56,0.53-0.56,1.23c0,0.31,0.09,0.77,0.56,1.22c0.41,0.4,0.88,0.54,1.33,0.54c0.6,0,1.15-0.24,1.43-0.44l3.18-1.51
		l1.55,0.95l-0.1-0.06l0.1,0.06l0.84,0.54l0.12,0.07l0,0l3.99,2.63C25.18,17.95,25.28,18.43,25.04,18.79 M25.11,16.71l-4.26-2.81
		c0,0-0.01,0-0.02-0.01l0,0l-2.22-1.36c-0.14-0.09-0.32-0.1-0.48-0.02l-3.49,1.67c-0.01,0-0.96,0.65-1.57,0.05
		c-0.17-0.17-0.25-0.32-0.25-0.48c0-0.23,0.18-0.45,0.19-0.47l3.2-2.23h5.46l3.94,5.21L25.11,16.71z M27.37,16.92l-4.65-6.13
		l3.07-2.32l4.65,6.13L27.37,16.92z"/>
</g>
</svg>
