<?xml version="1.0" encoding="utf-8"?>
<!-- Generator: Adobe Illustrator 23.0.2, SVG Export Plug-In . SVG Version: 6.00 Build 0)  -->
<svg version="1.1" id="Layer_1" xmlns="http://www.w3.org/2000/svg" xmlns:xlink="http://www.w3.org/1999/xlink" x="0px" y="0px"
	 width="32px" height="32px" viewBox="0 0 32 32" style="enable-background:new 0 0 32 32;" xml:space="preserve">
<style type="text/css">
	.st0{fill:none;}
	.st1{fill:#952524;}
</style>
<rect class="st0" width="32" height="32"/>
<g>
	<path class="st1" d="M16.57,2.97l-0.08,0V1.02c0-0.27-0.22-0.49-0.49-0.49c-0.27,0-0.49,0.22-0.49,0.49v1.95l-0.08,0
		C8.86,3.27,3.71,8.66,3.71,15.23v0.98c0,0.27,0.22,0.49,0.49,0.49h11.31l0,13.04c0.08,0.59,0.67,1.73,2.35,1.73
		c1.71,0,2.23-1.31,2.26-2.01c0.01-0.27-0.2-0.5-0.47-0.51c-0.13-0.01-0.25,0.03-0.35,0.11c-0.1,0.09-0.16,0.22-0.17,0.35
		c-0.01,0.11-0.09,1.08-1.28,1.08c-1.06,0-1.32-0.61-1.37-0.8l0-0.03V16.7H27.8c0.27,0,0.49-0.22,0.49-0.49v-0.98
		C28.29,8.66,23.14,3.27,16.57,2.97 M27.31,15.72H4.69v-0.49c0-5.44,3.89-10.12,9.24-11.11c0.06-0.02,1.68-0.57,4.14,0
		c5.35,0.99,9.24,5.67,9.24,11.11V15.72z"/>
	<path class="st1" d="M16.96,3.89c1.4,1.17,3.59,4.23,3.54,11.91h0.6c0.05-6.78-1.63-10.12-3.09-11.73
		C17.64,3.98,17.29,3.92,16.96,3.89"/>
	<path class="st1" d="M10.9,15.8h0.61c-0.05-7.76,2.26-10.82,3.59-11.94c-0.57,0.06-0.95,0.15-1.1,0.2
		C12.53,5.68,10.85,9.02,10.9,15.8"/>
</g>
</svg>
