<?xml version="1.0" encoding="utf-8"?>
<!-- Generator: Adobe Illustrator 23.0.2, SVG Export Plug-In . SVG Version: 6.00 Build 0)  -->
<svg version="1.1" id="Layer_1" xmlns="http://www.w3.org/2000/svg" xmlns:xlink="http://www.w3.org/1999/xlink" x="0px" y="0px"
	 width="32px" height="32px" viewBox="0 0 32 32" style="enable-background:new 0 0 32 32;" xml:space="preserve">
<style type="text/css">
	.st0{fill:none;}
	.st1{fill:#952524;}
</style>
<g>
	<rect y="0" class="st0" width="32" height="32"/>
</g>
<g>
	<path class="st1" d="M30.95,5.19H1.05c-0.59,0-1.07,0.48-1.07,1.08v17.87c0,0.73,0.59,1.33,1.32,1.33h2.89v-0.98H0.96V6.18h30.08
		v18.3h-3.23v0.98h2.89c0.73,0,1.32-0.59,1.32-1.33V6.27C32.02,5.68,31.54,5.19,30.95,5.19z"/>
	<path class="st1" d="M12.55,20.06c0-1.26-1.03-2.29-2.29-2.29c-1.26,0-2.29,1.03-2.29,2.29s1.03,2.29,2.29,2.29
		C11.52,22.35,12.55,21.32,12.55,20.06z M8.43,20.06c0-1.01,0.82-1.83,1.83-1.83c1.01,0,1.82,0.82,1.82,1.83
		c0,1.01-0.82,1.82-1.82,1.82C9.25,21.88,8.43,21.06,8.43,20.06z"/>
	<path class="st1" d="M10.25,23.11c-2.47,0-4.26,1.25-4.26,2.98c0,0.4,0.32,0.72,0.72,0.72h7.1c0.4,0,0.72-0.32,0.72-0.72
		C14.52,24.36,12.73,23.11,10.25,23.11z M14.05,26.09c0,0.14-0.11,0.25-0.25,0.25h-7.1c-0.14,0-0.25-0.11-0.25-0.25
		c0-1.39,1.56-2.39,3.8-2.44C12.38,23.65,14.05,24.72,14.05,26.09z"/>
	<path class="st1" d="M24.04,20.06c0-1.26-1.03-2.29-2.29-2.29c-1.26,0-2.29,1.03-2.29,2.29s1.03,2.29,2.29,2.29
		C23.01,22.35,24.04,21.32,24.04,20.06z M19.92,20.06c0-1.01,0.82-1.83,1.82-1.83c1.01,0,1.82,0.82,1.82,1.83
		c0,1.01-0.82,1.82-1.82,1.82C20.74,21.88,19.92,21.06,19.92,20.06z"/>
	<path class="st1" d="M21.75,23.11c-2.47,0-4.26,1.25-4.26,2.98c0,0.4,0.32,0.72,0.72,0.72h7.1c0.4,0,0.72-0.32,0.72-0.72
		C26.01,24.36,24.22,23.11,21.75,23.11z M25.54,26.09c0,0.14-0.11,0.25-0.25,0.25h-7.1c-0.14,0-0.25-0.11-0.25-0.25
		c0-1.39,1.56-2.39,3.79-2.44C23.87,23.65,25.54,24.72,25.54,26.09z"/>
</g>
</svg>
