<?xml version="1.0" encoding="utf-8"?>
<!-- Generator: Adobe Illustrator 23.0.2, SVG Export Plug-In . SVG Version: 6.00 Build 0)  -->
<svg version="1.1" id="Layer_1" xmlns="http://www.w3.org/2000/svg" xmlns:xlink="http://www.w3.org/1999/xlink" x="0px" y="0px"
	 width="32px" height="32px" viewBox="0 0 32 32" style="enable-background:new 0 0 32 32;" xml:space="preserve">
<style type="text/css">
	.st0{fill:none;}
	.st1{fill:#952524;}
</style>
<g>
	<rect y="0" class="st0" width="32" height="32"/>
</g>
<g>
	<path class="st1" d="M31.08,10.9h-3.62l1.19-3.91c0.1-0.32-0.08-0.66-0.4-0.76c-0.15-0.05-0.32-0.03-0.46,0.04
		c-0.15,0.08-0.25,0.2-0.3,0.36l-1.3,4.27H0.93c-0.52,0-0.95,0.43-0.95,0.95v17.6h0.18c0.44,0,0.8-0.36,0.8-0.8V11.88h24.93
		l-2.58,8.47h-7.83c-0.33,0-0.61,0.27-0.61,0.61c0,0.34,0.27,0.61,0.61,0.61h3.76v6.61h-2.51v1.06h5.83v-1.06h-2.1v-6.61h3.2
		c0.34,0,0.63-0.22,0.73-0.54l2.78-9.15h3.88v17.56h0.18c0.44,0,0.8-0.36,0.8-0.8V11.84C32.02,11.32,31.6,10.9,31.08,10.9z"/>
	<path class="st1" d="M14.77,8.86h-0.9V2.91c0-0.19-0.16-0.35-0.35-0.35H3.64c-0.19,0-0.35,0.16-0.35,0.35v5.95h-1v0.67h12.48V8.86z
		 M13.2,3.25v5.6H3.97v-5.6c0-0.01,0.01-0.02,0.02-0.02h9.19C13.19,3.23,13.2,3.24,13.2,3.25z"/>
</g>
</svg>
