<?xml version="1.0" encoding="utf-8"?>
<!-- Generator: Adobe Illustrator 23.0.2, SVG Export Plug-In . SVG Version: 6.00 Build 0)  -->
<svg version="1.1" id="Layer_1" xmlns="http://www.w3.org/2000/svg" xmlns:xlink="http://www.w3.org/1999/xlink" x="0px" y="0px"
	 width="32px" height="32px" viewBox="0 0 32 32" style="enable-background:new 0 0 32 32;" xml:space="preserve">
<style type="text/css">
	.st0{fill:none;}
	.st1{fill:#952524;}
</style>
<rect class="st0" width="32" height="32"/>
<g>
	<path class="st1" d="M8.81,21.88c0.74-0.28,1.53-0.73,2.33-1.34l0.13-0.1l0.14,0.09c0.48,0.31,1.77,1.02,3.26,1.02
		c0.27,0,0.53-0.02,0.79-0.07c1.24-0.22,2.3-1,3.14-2.3c0.07-0.13,1.94-3.77-0.18-5.65c-0.04-0.04-0.67-0.71-1.49-0.63
		c-0.53,0.05-1.01,0.4-1.41,1.03l-0.05,0.06c0.01,0-1.78,2.56-4.44,2.77c-1.59,0.13-3.2-0.64-4.78-2.29
		c-0.02-0.01-0.88-0.68-1.79-0.68c-0.09,0-0.18,0.01-0.28,0.02c-0.44,0.07-0.82,0.33-1.09,0.74c-0.53,0.8-0.87,2.35-0.44,3.98
		c0.27,1.03,0.94,2.44,2.65,3.33C6.28,22.37,7.5,22.38,8.81,21.88 M15.95,14.26l0.02-0.04c0.31-0.49,0.65-0.76,1.02-0.8
		c0.52-0.06,0.99,0.39,1.08,0.48c1.6,1.42,0.51,4.12,0.16,4.89l0.01,0.02l-0.08,0.13c-0.75,1.14-1.68,1.83-2.77,2.03
		c-0.23,0.04-0.47,0.06-0.69,0.06c-1.11,0-2.12-0.45-2.67-0.75l-0.3-0.17l0.25-0.23C13.7,18.35,15.16,16.3,15.95,14.26 M3.18,18.41
		C2.82,17,3.09,15.55,3.56,14.84c0.19-0.3,0.44-0.47,0.74-0.52c0.77-0.12,1.62,0.52,1.63,0.53c1.68,1.75,3.42,2.56,5.18,2.42
		c0.9-0.07,1.79-0.39,2.66-0.95l0.99-0.64l-0.66,0.98c-1.5,2.21-3.59,4.02-5.46,4.73c-0.47,0.18-1.07,0.34-1.69,0.34
		c-0.46,0-0.93-0.09-1.38-0.32C4.03,20.61,3.42,19.34,3.18,18.41"/>
	<path class="st1" d="M17.68,8.84c0.57,0.36,1.28,0.66,2.09,0.89l0.16,0.05l0.02,0.16c0.06,0.62,0.33,2.19,1.46,3.23
		c0.82,0.75,1.88,1.06,3.24,0.96c0.13-0.02,3.61-0.64,3.79-3.09c0.01-0.06,0.15-0.84-0.35-1.38c-0.32-0.35-0.82-0.49-1.46-0.43
		l-0.05,0l-0.01,0c-0.39,0-2.77-0.02-4.17-1.58c-0.91-1.01-1.22-2.5-0.92-4.43c0-0.09,0-1.18-0.63-1.77
		c-0.26-0.25-0.59-0.38-0.96-0.38c-0.04,0-0.09,0-0.14,0.01c-0.83,0.06-2.07,0.63-2.98,1.79c-0.57,0.72-1.18,1.93-0.91,3.57
		C16.01,7.36,16.64,8.2,17.68,8.84 M26.61,9.76c0.37-0.04,0.82-0.02,1.08,0.26c0.3,0.31,0.24,0.83,0.23,0.95
		c-0.14,1.73-2.31,2.41-3.12,2.6l0,0.03l-0.25,0.02c-0.13,0.01-0.26,0.01-0.39,0.01c-0.98,0-1.79-0.28-2.4-0.84
		c-0.81-0.74-1.13-1.79-1.25-2.54l-0.06-0.34l0.34,0.06C22.73,10.35,24.85,10.26,26.61,9.76 M17.16,3.19
		c0.76-0.98,1.89-1.54,2.6-1.59c0.28-0.02,0.52,0.05,0.71,0.23c0.45,0.43,0.47,1.34,0.47,1.34c-0.32,2.08,0.03,3.7,1.05,4.83
		c0.46,0.51,1.04,0.91,1.74,1.21l1.01,0.43l-1.1,0.03c-0.13,0-0.26,0.01-0.39,0.01c-2.05,0-4.02-0.47-5.31-1.28
		c-0.63-0.4-1.42-1.07-1.59-2.06C16.11,4.9,16.66,3.83,17.16,3.19"/>
	<path class="st1" d="M7.76,9.4l0.16,0l0.06,0.15c0.22,0.56,0.48,1.04,0.78,1.44c0.56,0.74,1.24,1.17,1.96,1.23
		c1.26,0.09,2.14-0.46,2.64-0.92c0.7-0.66,1.16-1.61,1.15-2.38c-0.01-0.34-0.13-0.64-0.37-0.84c-0.54-0.47-1.46-0.36-1.5-0.35
		c-1.33,0.33-2.42,0.2-3.22-0.39C8.2,6.4,8.03,4.67,8.01,4.37L8,4.31C8,3.69,7.76,3.37,7.56,3.22C7.32,3.03,7.03,2.99,6.82,2.99
		c-0.17,0-0.29,0.03-0.29,0.03C4.56,3.34,4.36,6.14,4.36,6.17c0.02,0.98,0.34,1.77,0.95,2.34C6.11,9.24,7.19,9.38,7.76,9.4
		 M8.35,6.93c0.22,0.32,0.48,0.58,0.76,0.8c0.93,0.7,2.15,0.86,3.62,0.49c0.21-0.02,0.78-0.02,1.07,0.23
		c0.13,0.11,0.19,0.26,0.19,0.46c0.01,0.5-0.3,1.34-0.99,1.99c-0.4,0.37-1.06,0.79-1.98,0.79c-0.08,0-0.17,0-0.26-0.01
		c-0.72-0.06-1.26-0.59-1.58-1.02C8.53,9.82,8.07,8.52,7.91,7.1L7.81,6.16L8.35,6.93z M6.61,3.53c0.07-0.02,0.41-0.08,0.63,0.1
		c0.16,0.12,0.24,0.36,0.24,0.7C7.23,5.68,7.3,7.16,7.66,8.55l0.09,0.34L7.4,8.85C6.9,8.79,6.19,8.61,5.66,8.12
		C5.16,7.67,4.89,7,4.88,6.19C4.89,6.07,5.11,3.79,6.61,3.53"/>
	<path class="st1" d="M19.62,27.45c-0.43-0.11-1.19-0.38-1.39-0.84c-0.23-0.55,0.14-1.43,0.26-1.63c0.48-0.84,0.19-1.92-0.65-2.4
		c-0.27-0.16-0.57-0.24-0.88-0.24c-0.15,0-0.31,0.02-0.46,0.06c-0.45,0.12-0.83,0.42-1.07,0.82c-0.14,0.25-1.38,2.51-0.45,4.74
		c0.41,0.98,1.39,2.28,3.74,2.9c0.95,0.25,1.91-0.33,2.16-1.25c0.12-0.46,0.05-0.93-0.18-1.34C20.46,27.86,20.08,27.57,19.62,27.45
		 M20.37,29.47L20.37,29.47c-0.08,0.32-0.29,0.58-0.58,0.75c-0.19,0.11-0.41,0.17-0.62,0.17c-0.1,0-0.21-0.01-0.31-0.04
		c-2.14-0.57-3.03-1.72-3.39-2.59c-0.83-1.99,0.29-4.04,0.42-4.27c0.17-0.29,0.43-0.49,0.75-0.58c0.34-0.09,0.66-0.04,0.94,0.12
		c0.59,0.34,0.79,1.09,0.46,1.69c-0.01,0.01-0.66,1.22-0.28,2.1c0.22,0.51,0.8,0.89,1.74,1.14c0.32,0.09,0.59,0.29,0.75,0.57
		C20.4,28.82,20.45,29.15,20.37,29.47"/>
	<path class="st1" d="M10.11,25.11c-0.88-0.39-2.33-0.62-4.25,0.44c-0.12,0.07-0.24,0.15-0.34,0.25L5.5,25.82
		c-0.5,0.51-0.62,1.29-0.27,1.92c0.21,0.38,0.55,0.65,0.96,0.77c0.41,0.12,0.85,0.07,1.23-0.13c0.44-0.24,0.82-0.37,1.11-0.37
		c0.11,0,0.21,0.02,0.29,0.06c0.43,0.18,0.75,0.9,0.83,1.2c0.21,0.84,1.07,1.39,1.95,1.18c0.42-0.1,0.77-0.36,1-0.73
		c0.22-0.37,0.29-0.8,0.19-1.22C12.67,28.08,12.06,25.97,10.11,25.11 M12.14,29.44L12.14,29.44c-0.15,0.25-0.39,0.42-0.67,0.49
		c-0.09,0.02-0.17,0.03-0.25,0.03c-0.49,0-0.93-0.33-1.06-0.83c0,0-0.34-1.21-1.13-1.55c-0.46-0.2-1.1-0.08-1.86,0.34
		c-0.25,0.14-0.55,0.17-0.82,0.09c-0.28-0.08-0.51-0.26-0.65-0.52c-0.24-0.43-0.15-0.97,0.2-1.31c0.07-0.07,0.15-0.12,0.23-0.17
		c1.74-0.96,3.02-0.75,3.79-0.42c1.75,0.77,2.3,2.79,2.36,3.02C12.33,28.9,12.29,29.19,12.14,29.44"/>
	<path class="st1" d="M27.71,16.49c-0.68-0.47-1.63-0.31-2.11,0.38c-0.47,0.68-0.31,1.63,0.38,2.1c0.12,0.09,1.04,0.85,0.05,2.63
		c-0.74,1.34-2,1.38-2.94,0.98c-0.2-0.09-0.4-0.13-0.61-0.13c-0.58,0-1.13,0.33-1.38,0.89c-0.17,0.37-0.18,0.78-0.04,1.16
		c0.14,0.38,0.43,0.68,0.79,0.84c0.68,0.3,1.52,0.48,2.32,0.48c1.93,0,3.53-0.98,4.51-2.76C30.54,19.69,28.86,17.29,27.71,16.49
		 M28.22,22.81L28.22,22.81c-1.13,2.05-2.83,2.48-4.05,2.48c-1.03,0-1.81-0.3-2.1-0.43c-0.24-0.11-0.42-0.3-0.52-0.55
		c-0.09-0.25-0.09-0.52,0.02-0.76c0.21-0.48,0.82-0.71,1.3-0.49c1.15,0.5,2.71,0.44,3.61-1.2c1.24-2.25-0.15-3.27-0.21-3.31
		c-0.44-0.31-0.56-0.93-0.25-1.37c0.31-0.44,0.92-0.56,1.37-0.25C28.42,17.63,29.9,19.77,28.22,22.81"/>
</g>
</svg>
