<?xml version="1.0" encoding="utf-8"?>
<!-- Generator: Adobe Illustrator 23.0.2, SVG Export Plug-In . SVG Version: 6.00 Build 0)  -->
<svg version="1.1" id="Layer_1" xmlns="http://www.w3.org/2000/svg" xmlns:xlink="http://www.w3.org/1999/xlink" x="0px" y="0px"
	 width="32px" height="32px" viewBox="0 0 32 32" style="enable-background:new 0 0 32 32;" xml:space="preserve">
<style type="text/css">
	.st0{fill:none;}
	.st1{fill:#952524;}
</style>
<g>
	<rect y="0" class="st0" width="32" height="32"/>
</g>
<g>
	<path class="st1" d="M22.38,3.13H9.62c-0.76,0-1.38,0.62-1.38,1.38v23c0,0.76,0.62,1.38,1.38,1.38h12.76
		c0.76,0,1.38-0.62,1.38-1.38v-23C23.76,3.74,23.14,3.13,22.38,3.13 M9.22,4.5c0-0.22,0.18-0.4,0.4-0.4h12.76
		c0.22,0,0.4,0.18,0.4,0.4v23c0,0.22-0.18,0.4-0.4,0.4H9.62c-0.22,0-0.4-0.18-0.4-0.4V4.5z"/>
	<rect x="14.21" y="6.7" class="st1" width="3.58" height="0.58"/>
	<path class="st1" d="M16,26.5c1.01,0,1.83-0.82,1.83-1.83c0-1.01-0.82-1.83-1.83-1.83c-1.01,0-1.83,0.82-1.83,1.83
		C14.17,25.68,14.99,26.5,16,26.5 M14.75,24.67c0-0.69,0.56-1.25,1.25-1.25c0.69,0,1.25,0.56,1.25,1.25c0,0.69-0.56,1.25-1.25,1.25
		C15.31,25.92,14.75,25.36,14.75,24.67"/>
</g>
</svg>
