<?xml version="1.0" encoding="utf-8"?>
<!-- Generator: Adobe Illustrator 23.0.2, SVG Export Plug-In . SVG Version: 6.00 Build 0)  -->
<svg version="1.1" id="Layer_1" xmlns="http://www.w3.org/2000/svg" xmlns:xlink="http://www.w3.org/1999/xlink" x="0px" y="0px"
	 width="32px" height="32px" viewBox="0 0 32 32" style="enable-background:new 0 0 32 32;" xml:space="preserve">
<style type="text/css">
	.st0{fill:none;}
	.st1{fill:#952524;}
</style>
<rect class="st0" width="32" height="32"/>
<g>
	<path class="st1" d="M31.58,15.62l-0.01-0.29h-0.48c0.25-0.53,0.39-1.11,0.39-1.68c0-2.28-1.99-4.14-4.43-4.14l-1.04,0l0.87-0.57
		c1.77-1.16,3.37-1.89,4.12-2.21l0,0c0.59-0.24,0.43-0.92,0.43-0.92h0l-0.36-1.19v0c-0.12-0.39-0.46-0.48-0.63-0.5
		C23.99,4.25,19.02,8.48,17.63,9.8L17.42,10L17.2,9.8c-0.61-0.58-1.45-0.99-2.5-1.21c-0.58-0.13-1.14-0.2-1.67-0.22l-0.3-0.01l0-0.3
		c-0.02-1.34-0.91-2.34-1.29-2.71c-0.03-0.03-0.09-0.08-0.17-0.06c-0.07,0-0.12,0.04-0.16,0.08c-0.08,0.09-0.07,0.22,0.02,0.3
		c0.34,0.33,1.15,1.24,1.16,2.41l0,0.28L12.02,8.4c-0.72,0.08-1.38,0.27-1.97,0.57l-0.19,0.1L9.69,8.93
		c-0.96-0.88-1.86-1.2-2.66-0.97c-1.34,0.39-2,2.22-2.22,2.99l-0.05,0.19L4.1,11.26l-0.09-0.25c-0.18-0.49-0.61-1.2-1.66-1.77
		C2.3,9.21,2.24,9.2,2.19,9.22C2.12,9.24,2.07,9.28,2.05,9.33C2,9.44,2.04,9.57,2.14,9.63c0.88,0.48,1.25,1.05,1.42,1.45l0.12,0.29
		l-0.29,0.12C1.77,12.12,0.74,13.5,0.74,15c0,0.11,0.01,0.23,0.02,0.34H0.43L0.42,15.7c0,0.05,0,0.11,0,0.16c0,0.06,0,0.11,0,0.17
		l0.01,0.15c0.1,3.15,1.78,6.1,4.72,8.31c2.93,2.2,6.79,3.41,10.86,3.41c4.08,0,7.93-1.21,10.86-3.41c2.94-2.21,4.61-5.16,4.72-8.31
		l0-0.12c0-0.06,0.01-0.13,0.01-0.19S31.59,15.73,31.58,15.62z M17.87,10.18c1.32-1.28,6.12-5.45,12.47-5.63c0,0,0.24-0.01,0.3,0.21
		l0.34,1.15c0,0,0.1,0.29-0.2,0.42l0,0c-1.93,0.82-8.1,3.78-10.34,9h-2.73c0.46-0.91,0.7-1.99,0.65-2.92
		c-0.02-0.47-0.14-1.17-0.55-1.86l-0.13-0.21L17.87,10.18z M22.98,15.33h-2.05c0.29-0.64,0.66-1.28,1.1-1.9l0.57-0.8v0.98
		C22.59,14.22,22.73,14.81,22.98,15.33z M14.61,9.02c2.77,0.6,3.26,2.4,3.31,3.42c0.05,1.12-0.33,2.2-0.71,2.9h-7.4
		c0.01-0.11,0.02-0.23,0.02-0.34c0-1.14-0.62-2.25-1.66-2.98l-0.21-0.15l0.1-0.23C8.44,10.77,10.02,8.03,14.61,9.02z M5.35,10.73
		c0.31-0.92,0.88-2.07,1.8-2.34l0,0c0.59-0.17,1.27,0.06,2.01,0.67L9.47,9.3l-0.3,0.24c-0.77,0.62-1.22,1.34-1.46,1.84l-0.13,0.27
		L7.3,11.53c-0.53-0.22-1.09-0.36-1.67-0.39l-0.4-0.03L5.35,10.73z M1.18,15c0-1.89,1.84-3.42,4.1-3.42c2.26,0,4.1,1.54,4.1,3.42
		c0,0.11-0.01,0.22-0.02,0.34H1.2C1.19,15.22,1.18,15.11,1.18,15z M30.52,16.47c-0.2,2.73-1.74,5.3-4.35,7.23
		c-2.74,2.03-6.35,3.14-10.17,3.14c-3.82,0-7.43-1.12-10.17-3.14c-2.6-1.93-4.15-4.5-4.35-7.23l-0.01-0.09h29.05L30.52,16.47z
		 M23.48,15.33c-0.29-0.52-0.44-1.09-0.44-1.68c0-2.04,1.79-3.7,4-3.7c2.2,0,4,1.66,4,3.7c0,0.59-0.15,1.16-0.44,1.68H23.48z"/>
</g>
</svg>
