<?xml version="1.0" encoding="utf-8"?>
<!-- Generator: Adobe Illustrator 23.0.2, SVG Export Plug-In . SVG Version: 6.00 Build 0)  -->
<svg version="1.1" id="Layer_1" xmlns="http://www.w3.org/2000/svg" xmlns:xlink="http://www.w3.org/1999/xlink" x="0px" y="0px"
	 width="32px" height="32px" viewBox="0 0 32 32" style="enable-background:new 0 0 32 32;" xml:space="preserve">
<style type="text/css">
	.st0{fill:none;}
	.st1{fill:#952524;}
</style>
<rect class="st0" width="32" height="32"/>
<g>
	<path class="st0" d="M23.11,22.41l4.67,4.27c1.26-1.46,2.08-3.31,2.23-5.34l-6.32-0.3C23.61,21.55,23.41,22.02,23.11,22.41z"/>
	<path class="st1" d="M12.42,26.86"/>
	<path class="st0" d="M18.39,18.84l-4.67-4.27c-1.26,1.46-2.06,3.31-2.22,5.34l6.32,0.3C17.9,19.7,18.1,19.23,18.39,18.84z"/>
	<path class="st0" d="M20.76,18.19c-0.61,0-1.16,0.23-1.59,0.61c-0.14,0.12-0.27,0.26-0.37,0.4c-0.21,0.3-0.36,0.65-0.42,1.03
		c-0.02,0.12-0.04,0.25-0.04,0.38c0,0.06,0.01,0.11,0.02,0.17c0.09,1.25,1.13,2.25,2.4,2.25c0.6,0,1.14-0.23,1.57-0.59
		c0.14-0.12,0.27-0.25,0.38-0.4c0.22-0.3,0.37-0.65,0.43-1.03c0.02-0.13,0.04-0.26,0.04-0.4c0-0.05-0.01-0.1-0.01-0.15
		C23.08,19.2,22.04,18.19,20.76,18.19z"/>
	<path class="st0" d="M20.76,11.33c-2.61,0-4.98,1.09-6.66,2.83l4.67,4.27c0.53-0.48,1.23-0.79,2-0.79c1.59,0,2.89,1.27,2.96,2.84
		l6.32,0.3c0-0.06,0.01-0.12,0.01-0.17C30.04,15.49,25.88,11.33,20.76,11.33z"/>
	<path class="st1" d="M23.46,10.63l-0.06-0.02V1.04H4.74C3.41,1.07,0.9,1.93,0.9,4.9l0,19.42c0,0.07-0.11,1.53,0.87,2.59
		c0.63,0.68,1.53,1.02,2.7,1.02h8.98l0.02,0.02c1.96,1.94,4.55,3.01,7.29,3.01c5.71,0,10.35-4.64,10.35-10.35
		C31.11,15.96,27.96,11.85,23.46,10.63z M4.46,26.95c-0.87,0-1.53-0.24-1.97-0.7c-0.64-0.68-0.62-1.69-0.62-1.88V4.9
		c0-2.7,2.59-2.87,2.88-2.88h17.66v8.39l-0.1-0.02c-0.58-0.09-1.08-0.13-1.56-0.13c-5.71,0-10.35,4.64-10.35,10.35
		c0,2.24,0.72,4.38,2.08,6.2l0.1,0.14H4.46z M30.12,20.79l-0.03,0.55c-0.16,2-0.93,3.87-2.25,5.39l-0.37,0.41
		c-1.79,1.83-4.17,2.84-6.71,2.84c-5.17,0-9.37-4.2-9.37-9.37c0-0.03,0-0.06,0-0.09c0-0.02,0-0.04,0-0.07l0.03-0.55
		c0.15-2,0.92-3.87,2.24-5.39l0.37-0.41c1.79-1.85,4.18-2.86,6.73-2.86c5.17,0,9.37,4.2,9.37,9.37c0,0.03,0,0.07,0,0.1
		C30.12,20.74,30.12,20.76,30.12,20.79z"/>
	<rect x="6.64" y="2.02" class="st1" width="0.55" height="24.93"/>
	<path class="st1" d="M20.76,17.61c-0.78,0-1.48,0.31-2.02,0.8l-4.71-4.31l-0.37,0.41l4.72,4.32c-0.3,0.4-0.5,0.87-0.57,1.38
		l-6.39-0.3l-0.03,0.56l6.39,0.3c0.08,1.58,1.38,2.85,2.98,2.85c0.77,0,1.46-0.3,2-0.78l4.72,4.32l0.37-0.41l-4.71-4.31
		c0.3-0.4,0.51-0.87,0.58-1.38l6.39,0.3l0.03-0.56l-6.38-0.3C23.68,18.89,22.37,17.61,20.76,17.61z M23.16,21.01
		c-0.06,0.39-0.22,0.74-0.44,1.04c-0.11,0.15-0.24,0.28-0.38,0.4c-0.43,0.37-0.98,0.6-1.58,0.6c-1.29,0-2.34-1.01-2.43-2.27
		c0-0.06-0.02-0.12-0.02-0.17c0-0.13,0.02-0.26,0.04-0.38c0.06-0.38,0.21-0.74,0.42-1.04c0.11-0.15,0.24-0.29,0.38-0.41
		c0.43-0.38,0.99-0.62,1.61-0.62c1.3,0,2.35,1.02,2.43,2.29c0,0.05,0.01,0.1,0.01,0.15C23.2,20.75,23.18,20.88,23.16,21.01z"/>
</g>
</svg>
