<?xml version="1.0" encoding="utf-8"?>
<!-- Generator: Adobe Illustrator 23.0.2, SVG Export Plug-In . SVG Version: 6.00 Build 0)  -->
<svg version="1.1" id="Layer_1" xmlns="http://www.w3.org/2000/svg" xmlns:xlink="http://www.w3.org/1999/xlink" x="0px" y="0px"
	 width="32px" height="32px" viewBox="0 0 32 32" style="enable-background:new 0 0 32 32;" xml:space="preserve">
<style type="text/css">
	.st0{fill:none;}
	.st1{fill:#952524;}
</style>
<rect class="st0" width="32" height="32"/>
<g>
	<path class="st1" d="M29.27,7.89h-1.26V2.72c0-0.27-0.22-0.49-0.49-0.49h-5.66c-0.27,0-0.49,0.22-0.49,0.49v5.17h-1.13
		c-1.21,0-2.2,0.99-2.2,2.2v12.76l-0.15-0.16c-0.34-0.36-0.71-0.66-1.11-0.88l-0.04-0.02v-4.4c0-1.02-0.83-1.85-1.85-1.85h-2.35
		l-0.01-0.08c-0.18-1.98-1.82-3.48-3.8-3.48c-1.98,0-3.61,1.5-3.8,3.48l-0.01,0.08H2.37c-1.02,0-1.85,0.83-1.85,1.85v10.53
		c0,1.02,0.83,1.85,1.85,1.85h12.51c0.13,0,0.27-0.02,0.42-0.05c1.06-0.14,2.02-0.66,2.71-1.48l0.1-0.11l0.05,0.14
		c0.3,0.9,1.14,1.5,2.08,1.5h9.03c1.21,0,2.2-0.99,2.2-2.2V10.09C31.47,8.88,30.49,7.89,29.27,7.89 M5.9,15.45
		c0.18-1.42,1.4-2.48,2.83-2.48c1.43,0,2.65,1.07,2.83,2.48l0.01,0.1H5.89L5.9,15.45z M2.37,28.79c-0.48,0-0.87-0.39-0.87-0.87V17.4
		c0-0.48,0.39-0.87,0.87-0.87h12.51c0.48,0,0.87,0.39,0.87,0.87v4.01l-0.1-0.02c-0.03-0.01-0.06-0.01-0.09-0.01
		c-0.03,0-0.07,0-0.1-0.01l-0.07-0.01V21.2c0-1.35-1.1-2.44-2.44-2.44c-1.35,0-2.44,1.09-2.44,2.44v0.12l-0.08,0
		c-2.25,0.12-4.02,1.97-4.02,4.22c0,1.19,0.49,2.29,1.38,3.11l0.16,0.15H2.37z M14.41,21.2v0.08l-2.92,0.01v-0.09
		c0-0.82,0.66-1.47,1.46-1.47C13.75,19.74,14.41,20.39,14.41,21.2 M16.87,28.01c-0.53,0.45-1.18,0.71-1.87,0.76
		c-0.03,0-0.06,0.01-0.08,0.01c-0.04,0.01-0.09,0.01-0.14,0.01h-4.13c-1.8,0-3.26-1.46-3.26-3.26c0-1.8,1.46-3.26,3.26-3.26h4.13
		c0.28,0,0.57,0.05,0.91,0.15c0.44,0.13,0.83,0.34,1.18,0.63c0.74,0.63,1.17,1.53,1.17,2.48C18.04,26.48,17.61,27.39,16.87,28.01
		 M22.35,3.21h4.69v4.68h-4.69V3.21z M30.49,27.57c0,0.67-0.55,1.22-1.22,1.22h-9.03c-0.67,0-1.22-0.55-1.22-1.22V10.09
		c0-0.67,0.55-1.22,1.22-1.22h9.03c0.67,0,1.22,0.55,1.22,1.22V27.57z"/>
	<rect x="22.01" y="12.14" class="st1" width="0.98" height="11.03"/>
	<rect x="26.66" y="12.14" class="st1" width="0.98" height="11.03"/>
</g>
</svg>
