<?xml version="1.0" encoding="utf-8"?>
<!-- Generator: Adobe Illustrator 23.0.2, SVG Export Plug-In . SVG Version: 6.00 Build 0)  -->
<svg version="1.1" id="Layer_1" xmlns="http://www.w3.org/2000/svg" xmlns:xlink="http://www.w3.org/1999/xlink" x="0px" y="0px"
	 width="32px" height="32px" viewBox="0 0 32 32" style="enable-background:new 0 0 32 32;" xml:space="preserve">
<style type="text/css">
	.st0{fill:none;}
	.st1{fill:#972726;}
</style>
<g>
	<rect y="0" class="st0" width="32" height="32"/>
</g>
<g>
	<path class="st1" d="M24.84,9.1c-0.04-0.04-0.95-1.07-2.96-2.53C19.71,5,18,6.88,17.99,6.89l-4.46,4.41l3.83-0.16l1.57-1.5
		l3.8,3.22l-1,2.69c-0.05,0.09-0.45,0.87-0.22,1.48c0.1,0.26,0.3,0.46,0.59,0.57c0.17,0.06,0.33,0.1,0.48,0.1
		c0.16,0,0.32-0.04,0.46-0.11c0.46-0.24,0.61-0.78,0.61-0.8c0.01-0.02,0.63-2.24,1.41-4.46C25.9,9.93,24.85,9.1,24.84,9.1
		 M24.59,12.15c-0.78,2.23-1.41,4.47-1.42,4.5c0,0-0.1,0.35-0.36,0.48c-0.15,0.08-0.32,0.07-0.53-0.01
		c-0.15-0.06-0.25-0.15-0.29-0.27c-0.13-0.34,0.09-0.89,0.2-1.11l1.14-3.05l-4.41-3.74l-1.76,1.68l-2.35,0.1l3.55-3.5
		c0.06-0.06,1.43-1.56,3.23-0.25c1.96,1.42,2.87,2.44,2.91,2.48C24.51,9.47,25.29,10.14,24.59,12.15"/>
	<path class="st1" d="M28.65,8.31c-1.48,0-2.69,1.21-2.69,2.69c0,1.48,1.21,2.69,2.69,2.69s2.69-1.21,2.69-2.69
		C31.34,9.52,30.14,8.31,28.65,8.31 M28.65,13.2c-1.21,0-2.19-0.98-2.19-2.19c0-1.21,0.98-2.19,2.19-2.19s2.19,0.98,2.19,2.19
		C30.84,12.21,29.86,13.2,28.65,13.2"/>
	<path class="st1" d="M16.46,5.59c0.07,0,0.14-0.03,0.19-0.09c0.1-0.12,2.5-2.91,6.15-0.42c0.11,0.08,0.27,0.05,0.35-0.07
		c0.08-0.11,0.05-0.27-0.07-0.35c-4.02-2.74-6.78,0.48-6.81,0.51c-0.09,0.11-0.08,0.26,0.03,0.35C16.35,5.57,16.4,5.59,16.46,5.59"
		/>
	<path class="st1" d="M17.33,2.38c0.08-0.06,2.1-1.35,4.48,0.01c0.04,0.02,0.08,0.03,0.12,0.03c0.09,0,0.17-0.05,0.22-0.13
		c0.07-0.12,0.03-0.27-0.09-0.34c-2.66-1.51-4.91-0.05-5,0.01c-0.12,0.08-0.15,0.23-0.07,0.35C17.06,2.42,17.22,2.45,17.33,2.38"/>
	<path class="st1" d="M0.66,12.95v17.79h1v-1.92v-0.28h17.22v0.28v1.92h1V12.95H0.66z M18.88,13.95v4.19v1v6.83v2.07h-3.71V13.95
		h0.21H18.88z M14.38,13.95h0.29v14.09h-4.16V13.95h0.25H14.38z M9.77,13.95h0.25v14.09H5.86V13.95h0.29H9.77z M1.66,19.14v-1v-4.19
		h3.5h0.21v14.09H1.66v-2.07V19.14z"/>
</g>
</svg>
