<?xml version="1.0" encoding="utf-8"?>
<!-- Generator: Adobe Illustrator 23.0.2, SVG Export Plug-In . SVG Version: 6.00 Build 0)  -->
<svg version="1.1" id="Layer_1" xmlns="http://www.w3.org/2000/svg" xmlns:xlink="http://www.w3.org/1999/xlink" x="0px" y="0px"
	 width="32px" height="32px" viewBox="0 0 32 32" style="enable-background:new 0 0 32 32;" xml:space="preserve">
<style type="text/css">
	.st0{fill:none;}
	.st1{fill:#952524;}
</style>
<rect class="st0" width="32" height="32"/>
<g>
	<rect x="1.43" y="10.33" class="st1" width="26.42" height="0.55"/>
	<path class="st1" d="M22.89,22.31c0.19,0.19,0.51,0.19,0.69,0l3.1-3.1c0.09-0.09,0.14-0.21,0.14-0.34c0-0.13-0.05-0.26-0.14-0.35
		l-3.18-3.18c-0.19-0.19-0.5-0.19-0.69,0c-0.19,0.19-0.19,0.5,0,0.69l2.35,2.35H13.75c-0.27,0-0.49,0.22-0.49,0.49
		c0,0.27,0.22,0.49,0.49,0.49h11.41l-2.26,2.26c-0.09,0.09-0.14,0.21-0.14,0.35C22.75,22.09,22.8,22.21,22.89,22.31"/>
	<path class="st1" d="M30.54,15.96h0.98V5.34c0-1.01-0.82-1.83-1.83-1.83h-4.82V2.25c0-0.27-0.22-0.49-0.49-0.49
		c-0.27,0-0.49,0.22-0.49,0.49v1.26h-7.4V2.25c0-0.27-0.22-0.49-0.49-0.49c-0.27,0-0.49,0.22-0.49,0.49v1.26h-7.4V2.25
		c0-0.27-0.22-0.49-0.49-0.49c-0.27,0-0.49,0.22-0.49,0.49v1.26H2.31c-1.01,0-1.83,0.82-1.83,1.83v23.07c0,1.01,0.82,1.83,1.83,1.83
		h27.38c1.01,0,1.83-0.82,1.83-1.83v-6.74h-0.98v6.74c0,0.47-0.38,0.85-0.85,0.85H2.31c-0.47,0-0.85-0.38-0.85-0.85V5.34
		c0-0.47,0.38-0.85,0.85-0.85h4.82v1.26c0,0.27,0.22,0.49,0.49,0.49c0.27,0,0.49-0.22,0.49-0.49V4.49h7.4v1.26
		c0,0.27,0.22,0.49,0.49,0.49c0.27,0,0.49-0.22,0.49-0.49V4.49h7.4v1.26c0,0.27,0.22,0.49,0.49,0.49c0.27,0,0.49-0.22,0.49-0.49
		V4.49h4.82c0.47,0,0.85,0.38,0.85,0.85V15.96z"/>
</g>
</svg>
