<?xml version="1.0" encoding="utf-8"?>
<!-- Generator: Adobe Illustrator 23.0.2, SVG Export Plug-In . SVG Version: 6.00 Build 0)  -->
<svg version="1.1" id="Layer_1" xmlns="http://www.w3.org/2000/svg" xmlns:xlink="http://www.w3.org/1999/xlink" x="0px" y="0px"
	 width="32px" height="32px" viewBox="0 0 32 32" style="enable-background:new 0 0 32 32;" xml:space="preserve">
<style type="text/css">
	.st0{fill:none;}
	.st1{fill:#952624;}
</style>
<rect class="st0" width="32" height="32"/>
<g>
	<path class="st1" d="M11.97,6.72l-0.44,0.61c-0.16,0.22-0.11,0.54,0.11,0.7c0.09,0.06,0.19,0.1,0.3,0.1c0.15,0,0.3-0.07,0.4-0.21
		l0.46-0.62c1.03-1.54,0.09-2.4-0.26-2.71c-0.08-0.07-0.1-0.12-0.1-0.12c0-0.01,0.02-0.06,0.12-0.15c0.5-0.48,0.73-1.35,0.75-1.45
		c0.07-0.27-0.09-0.54-0.36-0.61c-0.27-0.07-0.54,0.09-0.61,0.36c-0.05,0.18-0.23,0.73-0.48,0.98c-0.28,0.27-0.42,0.57-0.42,0.88
		c0,0.31,0.15,0.59,0.46,0.88C12.18,5.61,12.51,5.91,11.97,6.72"/>
	<path class="st1" d="M18.58,5.34l-0.44,0.61c-0.16,0.22-0.11,0.54,0.11,0.7c0.09,0.07,0.19,0.1,0.29,0.1c0.15,0,0.31-0.07,0.4-0.21
		l0.45-0.62c1.03-1.54,0.08-2.4-0.26-2.71c-0.08-0.08-0.1-0.12-0.1-0.12c0-0.01,0.02-0.06,0.11-0.15c0.5-0.49,0.73-1.35,0.75-1.45
		c0.07-0.27-0.09-0.54-0.36-0.61c-0.27-0.07-0.54,0.09-0.61,0.36c-0.05,0.18-0.23,0.73-0.48,0.98c-0.28,0.27-0.42,0.57-0.42,0.88
		c0,0.31,0.15,0.59,0.46,0.88C18.79,4.23,19.12,4.53,18.58,5.34"/>
	<path class="st1" d="M15.38,9.41l-0.44,0.61c-0.16,0.22-0.11,0.54,0.11,0.7c0.09,0.06,0.19,0.1,0.29,0.1c0.15,0,0.31-0.07,0.4-0.21
		l0.46-0.62c1.03-1.54,0.09-2.4-0.26-2.71c-0.08-0.07-0.1-0.12-0.1-0.12c0-0.01,0.02-0.06,0.12-0.15c0.5-0.49,0.73-1.35,0.75-1.45
		c0.07-0.27-0.09-0.54-0.36-0.61c-0.27-0.07-0.54,0.09-0.61,0.36c-0.05,0.18-0.23,0.73-0.48,0.98c-0.28,0.27-0.42,0.57-0.42,0.88
		c0,0.3,0.15,0.59,0.46,0.88C15.59,8.31,15.92,8.6,15.38,9.41"/>
	<path class="st1" d="M24.94,19.1c-5.89-2.37-7.16-5.92-7.17-5.96l-0.11-0.34h-0.99h-0.49h-0.91v0l-0.94,0l-0.12,0.34
		c-0.01,0.04-1.28,3.59-7.23,5.99c-0.12,0.07-3.01,1.76-3.02,4.49c0,2.1,1.69,4.15,5,6.07c0.09,0.06,2.15,1.45,7.02,1.45
		c4.87,0,6.94-1.39,6.99-1.43c3.34-1.94,5.04-3.99,5.03-6.09C28.02,20.89,25.13,19.2,24.94,19.1 M15.04,13.8h0.24h0.54h0.37h0.49
		h0.29c0.39,0.86,1.74,3.17,5.31,5.14l0.07,0.03c-5.74,2.64-11.05,0.73-12.69,0l0.11-0.06C13.31,16.94,14.64,14.66,15.04,13.8
		 M22.46,28.87c-0.02,0.01-1.94,1.27-6.46,1.27c-4.52,0-6.44-1.26-6.49-1.29c-3.01-1.74-4.54-3.5-4.54-5.21
		c0-2.14,2.46-3.6,2.45-3.6c0.4-0.16,0.77-0.32,1.12-0.49l0.53-0.27c0.75,0.37,3.49,1.57,7.08,1.57c2.05,0,4.37-0.4,6.75-1.57
		l0.53,0.27c0.34,0.16,0.69,0.31,1.06,0.46c0.03,0.01,2.51,1.47,2.52,3.63C27.03,25.35,25.5,27.1,22.46,28.87"/>
</g>
</svg>
