<?xml version="1.0" encoding="utf-8"?>
<!-- Generator: Adobe Illustrator 23.0.2, SVG Export Plug-In . SVG Version: 6.00 Build 0)  -->
<svg version="1.1" id="Layer_1" xmlns="http://www.w3.org/2000/svg" xmlns:xlink="http://www.w3.org/1999/xlink" x="0px" y="0px"
	 width="32px" height="32px" viewBox="0 0 32 32" style="enable-background:new 0 0 32 32;" xml:space="preserve">
<style type="text/css">
	.st0{fill:none;}
	.st1{fill:#952624;}
</style>
<rect class="st0" width="31.99" height="31.99"/>
<g>
	<path class="st1" d="M4.08,28.07L4.08,28.07L4.08,28.07z"/>
	<path class="st1" d="M29.18,16.68l-0.13-0.08l0.13-0.08c1.09-0.69,1.73-1.85,1.73-3.12c0-2.04-1.66-3.7-3.7-3.7H11.97l-0.45-4.73
		c-0.05-0.23-0.2-0.52-0.67-0.52h-0.01h-0.42V2.38c0-0.95-0.77-1.72-1.72-1.72H6.27c-0.95,0-1.72,0.77-1.72,1.72v2.06h-0.5H4.03
		c-0.56,0-0.67,0.42-0.69,0.6l0,0.05L1.08,30.42c0,0.14,0.07,0.9,1.21,0.9h10.51c0.02,0,0.03,0,0.05,0c0.4,0,0.7-0.1,0.89-0.31
		c0.27-0.3,0.22-0.71,0.22-0.72l-0.02-0.18l0.01,0l-0.02-0.21h13.29c2.04,0,3.7-1.66,3.7-3.7c0-1.27-0.65-2.44-1.73-3.12l-0.13-0.09
		l0.13-0.08c1.09-0.69,1.73-1.85,1.73-3.12C30.91,18.54,30.26,17.37,29.18,16.68 M27.21,10.68c1.5,0,2.71,1.22,2.71,2.71
		c0,1.5-1.22,2.71-2.71,2.71H12.59l-0.39-4.07l-0.13-1.36H27.21z M5.53,2.38c0-0.41,0.33-0.73,0.73-0.73h2.42
		c0.41,0,0.73,0.33,0.73,0.73v2.06H5.53V2.38z M2.08,30.34L4.3,5.43h6.27l2.39,24.9H2.08z M29.92,26.22c0,1.49-1.22,2.71-2.71,2.71
		H13.82l-0.52-5.42h13.91C28.7,23.51,29.92,24.72,29.92,26.22 M27.21,22.52h-14l-0.52-5.42h14.52c1.5,0,2.71,1.22,2.71,2.71
		S28.7,22.52,27.21,22.52"/>
</g>
</svg>
