<?xml version="1.0" encoding="utf-8"?>
<!-- Generator: Adobe Illustrator 23.0.2, SVG Export Plug-In . SVG Version: 6.00 Build 0)  -->
<svg version="1.1" id="Layer_1" xmlns="http://www.w3.org/2000/svg" xmlns:xlink="http://www.w3.org/1999/xlink" x="0px" y="0px"
	 width="32px" height="32px" viewBox="0 0 32 32" style="enable-background:new 0 0 32 32;" xml:space="preserve">
<style type="text/css">
	.st0{fill:none;}
	.st1{fill:#952524;}
</style>
<rect class="st0" width="32" height="32"/>
<g>
	<path class="st1" d="M28.22,17.34c-0.09-0.08-0.22-0.09-0.33-0.02c-0.03,0.02-2.94,1.83-8.04,1.55c-3.71-0.21-6.22,2.17-7.43,3.67
		v0.91c0.86-1.24,3.36-4.25,7.39-4.03c3.78,0.21,6.38-0.69,7.59-1.24c-1.26,2.27-5.8,8.8-14.99,5.57v0.57
		c1.76,0.6,3.37,0.87,4.81,0.87c7.81,0,11.02-7.44,11.06-7.54C28.34,17.55,28.31,17.42,28.22,17.34"/>
	<path class="st1" d="M20.63,5.11c-0.05-0.04-0.12-0.07-0.2-0.07c-0.08,0-2.32,0.09-4.5,1.03l-0.29,0.13l-0.12-0.3
		c-1.09-2.73-3.04-4.77-3.13-4.86c-0.09-0.09-0.29-0.09-0.38,0C11.93,1.12,9.99,3.16,8.89,5.9L8.77,6.2L8.48,6.07
		C6.3,5.14,4.05,5.04,3.96,5.04c-0.07,0-0.14,0.03-0.19,0.07C3.72,5.16,3.69,5.23,3.68,5.3c0,0.28-0.09,6.77,4.24,8.57
		c0.12,0.04,0.81,0.28,1.64,0.28c0.23,0,0.5-0.03,0.78-0.09l0.12-0.03l0.11,0.07c0.36,0.23,0.73,0.38,1.11,0.45l0.25,0.05v16.18
		c0,0.15,0.12,0.26,0.26,0.26s0.26-0.12,0.26-0.26V14.59l0.25-0.05c0.38-0.07,0.75-0.22,1.11-0.45l0.11-0.07l0.13,0.03
		c0.28,0.06,0.54,0.09,0.77,0.09c0.91,0,1.66-0.28,1.67-0.29c4.3-1.79,4.21-8.28,4.21-8.55C20.71,5.23,20.68,5.16,20.63,5.11
		 M9.35,6.19c0.75-1.93,1.96-3.53,2.62-4.31L12.2,1.6l0.24,0.28c0.65,0.78,1.86,2.37,2.62,4.3l0.1,0.25l-0.23,0.13
		c-1.11,0.64-1.94,1.45-2.45,2.39l-0.27,0.5l-0.27-0.5c-0.51-0.94-1.33-1.75-2.44-2.39L9.25,6.44L9.35,6.19z M9.19,13.6
		c-0.53-0.05-0.95-0.18-1.06-0.22L8.1,13.37c-3.19-1.33-3.77-5.63-3.87-7.42L4.21,5.58l0.37,0.04c0.78,0.09,2.31,0.33,3.78,0.97
		L8.6,6.7L8.53,6.96c-0.53,1.83-0.46,3.51,0.18,5c0.04,0.08,0.3,0.59,0.75,1.13l0.48,0.58L9.19,13.6z M10.57,13.46l-0.16-0.13
		c-0.71-0.62-1.14-1.41-1.22-1.57c-0.58-1.32-0.65-2.8-0.23-4.41l0.11-0.41l0.36,0.22c1.16,0.72,1.94,1.63,2.32,2.73
		c0.06,0.21,0.17,0.68,0.17,1.23l0,0.04c0,0.82-0.23,1.45-0.68,1.88c-0.15,0.14-0.31,0.25-0.49,0.34L10.57,13.46z M12.7,13.99
		c-0.17,0.04-0.32,0.08-0.5,0.08c-0.18,0-0.35-0.04-0.49-0.07l-0.59-0.13l0.5-0.46c0.12-0.11,0.22-0.26,0.32-0.4l0.26-0.38L12.45,13
		c0.11,0.15,0.2,0.29,0.33,0.41c0.02,0.01,0.04,0.03,0.06,0.05l0.43,0.4L12.7,13.99z M13.98,13.32l-0.15,0.13l-0.18-0.09
		c-0.18-0.09-0.35-0.2-0.5-0.34c-0.45-0.43-0.68-1.06-0.68-1.88c0.01-0.69,0.15-1.2,0.16-1.23c0.39-1.12,1.18-2.05,2.35-2.77
		l0.36-0.22l0.11,0.41c0.42,1.61,0.35,3.08-0.22,4.37C15.22,11.72,14.77,12.63,13.98,13.32 M20.16,5.95
		c-0.1,1.79-0.68,6.09-3.85,7.41c-0.01,0-0.49,0.17-1.09,0.23l-0.75,0.07l0.48-0.58c0.48-0.58,0.74-1.11,0.75-1.14
		c0.64-1.48,0.71-3.15,0.18-4.98L15.81,6.7l0.25-0.11c1.46-0.64,2.98-0.88,3.76-0.97l0.37-0.04L20.16,5.95z"/>
</g>
</svg>
