<?xml version="1.0" encoding="utf-8"?>
<!-- Generator: Adobe Illustrator 23.0.2, SVG Export Plug-In . SVG Version: 6.00 Build 0)  -->
<svg version="1.1" id="Layer_1" xmlns="http://www.w3.org/2000/svg" xmlns:xlink="http://www.w3.org/1999/xlink" x="0px" y="0px"
	 width="32px" height="32px" viewBox="0 0 32 32" style="enable-background:new 0 0 32 32;" xml:space="preserve">
<style type="text/css">
	.st0{fill:none;}
	.st1{fill:#952625;}
</style>
<rect y="0" class="st0" width="32" height="32"/>
<g>
	<g>
		<path class="st1" d="M28.75,28.44H3.25c-1.14,0-2.07-0.93-2.07-2.07v-4.18c0-1.14,0.93-2.07,2.07-2.07h25.5
			c1.14,0,2.07,0.93,2.07,2.07v4.18C30.82,27.51,29.89,28.44,28.75,28.44z M3.25,21.1c-0.6,0-1.09,0.49-1.09,1.09v4.18
			c0,0.6,0.49,1.09,1.09,1.09h25.5c0.6,0,1.09-0.49,1.09-1.09v-4.18c0-0.6-0.49-1.09-1.09-1.09H3.25z"/>
	</g>
	<path class="st1" d="M12.24,11.88c1.14-0.84,1.89-2.18,1.89-3.7c0-2.54-2.07-4.62-4.62-4.62H8.77H7.79H7.75
		c-3.62,0-6.57,2.95-6.57,6.57s2.95,6.57,6.57,6.57h0.04h0.98h2.92c1.35,0,2.44-1.1,2.44-2.44C14.13,13.1,13.32,12.13,12.24,11.88z
		 M11.68,15.72H8.77H7.79H7.75c-3.08,0-5.59-2.51-5.59-5.59c0-3.06,2.48-5.56,5.54-5.59v0h0.05c0,0,0,0,0,0v0h0.04v0h0.98h0.75
		c2,0,3.63,1.63,3.63,3.63s-1.63,3.63-3.63,3.63H8.79H8.77H7.76v0c-0.89-0.01-1.61-0.73-1.61-1.63c0-0.89,0.72-1.62,1.61-1.63h1.84
		c0.27,0,0.49-0.22,0.49-0.49S9.88,7.58,9.61,7.58H7.76l0,0.01l0-0.01c-1.43,0.01-2.59,1.17-2.59,2.61c0,1.44,1.17,2.61,2.61,2.61v0
		h0.99h0.03h0.72h2.17c0.81,0,1.46,0.66,1.46,1.46S12.49,15.72,11.68,15.72z"/>
	<path class="st1" d="M28.93,11.88c1.14-0.84,1.89-2.18,1.89-3.7c0-2.54-2.07-4.62-4.62-4.62h-0.75h-0.98h-0.04
		c-3.62,0-6.57,2.95-6.57,6.57s2.95,6.57,6.57,6.57h0.04h0.98h2.92c1.35,0,2.44-1.1,2.44-2.44C30.82,13.1,30.01,12.13,28.93,11.88z
		 M28.38,15.72h-2.92h-0.98h-0.04c-3.08,0-5.59-2.51-5.59-5.59c0-3.06,2.48-5.56,5.54-5.59v0h0.05c0,0,0,0,0,0v0h0.04v0h0.98h0.75
		c2,0,3.63,1.63,3.63,3.63s-1.63,3.63-3.63,3.63h-0.72h-0.03h-1.01v0c-0.89-0.01-1.61-0.73-1.61-1.63c0-0.89,0.72-1.62,1.61-1.63
		h1.84c0.27,0,0.49-0.22,0.49-0.49s-0.22-0.49-0.49-0.49h-1.84l0,0.01l0-0.01c-1.43,0.01-2.59,1.17-2.59,2.61
		c0,1.44,1.17,2.61,2.61,2.61v0h0.99h0.03h0.72h2.17c0.81,0,1.46,0.66,1.46,1.46S29.18,15.72,28.38,15.72z"/>
</g>
</svg>
