<?xml version="1.0" encoding="utf-8"?>
<!-- Generator: Adobe Illustrator 23.0.2, SVG Export Plug-In . SVG Version: 6.00 Build 0)  -->
<svg version="1.1" id="Layer_1" xmlns="http://www.w3.org/2000/svg" xmlns:xlink="http://www.w3.org/1999/xlink" x="0px" y="0px"
	 width="32px" height="32px" viewBox="0 0 32 32" style="enable-background:new 0 0 32 32;" xml:space="preserve">
<style type="text/css">
	.st0{fill:none;}
	.st1{fill:#952625;}
</style>
<rect class="st0" width="32" height="32"/>
<g>
	<g>
		<g>
			<path class="st1" d="M7.59,17.88c-1.52,0-2.75-1.69-2.75-3.77s1.23-3.77,2.75-3.77s2.75,1.69,2.75,3.77S9.11,17.88,7.59,17.88z
				 M7.59,10.86c-1.23,0-2.23,1.46-2.23,3.25s1,3.25,2.23,3.25c1.23,0,2.23-1.46,2.23-3.25S8.82,10.86,7.59,10.86z"/>
		</g>
		<g>
			<path class="st1" d="M24.41,17.88c-1.52,0-2.75-1.69-2.75-3.77s1.23-3.77,2.75-3.77s2.75,1.69,2.75,3.77S25.93,17.88,24.41,17.88
				z M24.41,10.86c-1.23,0-2.23,1.46-2.23,3.25s1,3.25,2.23,3.25s2.23-1.46,2.23-3.25S25.64,10.86,24.41,10.86z"/>
		</g>
		<g>
			<path class="st1" d="M12.85,13.53c-1.52,0-2.75-1.69-2.75-3.77s1.23-3.77,2.75-3.77s2.75,1.69,2.75,3.77S14.37,13.53,12.85,13.53
				z M12.85,6.51c-1.23,0-2.23,1.46-2.23,3.25c0,1.79,1,3.25,2.23,3.25s2.23-1.46,2.23-3.25C15.08,7.97,14.08,6.51,12.85,6.51z"/>
		</g>
		<g>
			<path class="st1" d="M19.3,13.53c-1.52,0-2.75-1.69-2.75-3.77s1.23-3.77,2.75-3.77s2.75,1.69,2.75,3.77S20.82,13.53,19.3,13.53z
				 M19.3,6.51c-1.23,0-2.23,1.46-2.23,3.25c0,1.79,1,3.25,2.23,3.25s2.23-1.46,2.23-3.25C21.53,7.97,20.53,6.51,19.3,6.51z"/>
		</g>
		<g>
			<path class="st1" d="M10.99,25.96c-0.28,0-0.53-0.06-0.76-0.19c-1.14-0.63-1.14-2.58-1.14-2.67c-0.26-7.97,6.17-8.52,6.24-8.52
				l0.01,0c2.18-0.1,3.98,0.52,5.34,1.86c1.55,1.51,2.4,3.85,2.33,6.42c-0.03,1.32-0.4,2.19-1.09,2.59
				c-1.02,0.59-2.33-0.1-2.39-0.13c-0.02-0.01-1.54-0.9-3.11-1.19c-1.72-0.3-3.57,1.15-3.59,1.16
				C12.13,25.74,11.51,25.96,10.99,25.96z M15.36,15.1c-0.29,0.02-6,0.56-5.75,8c0,0.03,0,1.74,0.87,2.22
				c0.48,0.26,1.17,0.11,2.05-0.45c0.06-0.05,2.03-1.61,3.98-1.25c1.67,0.3,3.21,1.21,3.28,1.25c0,0,1.1,0.58,1.87,0.14
				c0.52-0.3,0.8-1.03,0.83-2.15c0.06-2.38-0.76-4.64-2.18-6.03C19.06,15.58,17.39,15,15.36,15.1z"/>
		</g>
	</g>
	<g>
		<g>
			<path class="st1" d="M16,31.05C7.7,31.05,0.95,24.3,0.95,16S7.7,0.95,16,0.95S31.05,7.7,31.05,16S24.3,31.05,16,31.05z M16,1.93
				C8.24,1.93,1.93,8.24,1.93,16c0,7.76,6.31,14.07,14.07,14.07c7.76,0,14.07-6.31,14.07-14.07C30.07,8.24,23.76,1.93,16,1.93z"/>
		</g>
		<g>
			
				<rect x="1.42" y="15.4" transform="matrix(0.5121 -0.8589 0.8589 0.5121 -6.0346 21.1471)" class="st1" width="28.36" height="0.98"/>
		</g>
	</g>
</g>
</svg>
