<?xml version="1.0" encoding="utf-8"?>
<!-- Generator: Adobe Illustrator 23.0.2, SVG Export Plug-In . SVG Version: 6.00 Build 0)  -->
<svg version="1.1" id="Layer_1" xmlns="http://www.w3.org/2000/svg" xmlns:xlink="http://www.w3.org/1999/xlink" x="0px" y="0px"
	 width="32px" height="32px" viewBox="0 0 32 32" style="enable-background:new 0 0 32 32;" xml:space="preserve">
<style type="text/css">
	.st0{fill:none;}
	.st1{fill:#952625;}
</style>
<rect class="st0" width="32" height="32"/>
<g>
	<g>
		<path class="st1" d="M25.77,27.23c-0.86,0-1.63-0.62-1.79-1.49l-1.26-6.87c-0.03-0.19-0.2-0.32-0.39-0.32l-6.59,0.17
			c-0.02,0-0.04,0-0.06,0c-1.08,0-2-0.77-2.19-1.84l-1.27-7.09c-0.14-0.8,0.12-1.62,0.71-2.18c0.59-0.56,1.42-0.79,2.21-0.61
			l5.38,1.21c0.75,0.17,1.24,0.92,1.08,1.67c-0.08,0.39-0.32,0.73-0.66,0.94c-0.34,0.21-0.76,0.26-1.14,0.15l-2.75-0.81l0.66,4.66
			c0.04,0.26,0.29,0.44,0.52,0.45l6.01-0.1c0.01,0,0.02,0,0.03,0c0.86,0,1.59,0.61,1.75,1.46l1.54,8.46
			c0.09,0.49-0.03,1.01-0.33,1.41c-0.3,0.41-0.75,0.66-1.25,0.72C25.9,27.22,25.83,27.23,25.77,27.23z M22.34,18.04
			c0.44,0,0.81,0.31,0.89,0.74l1.26,6.87c0.12,0.67,0.76,1.13,1.42,1.05c0.36-0.04,0.68-0.22,0.89-0.51
			c0.22-0.29,0.3-0.65,0.23-1.01l-1.54-8.46c-0.11-0.61-0.64-1.04-1.25-1.03l-6.01,0.1c0,0-0.01,0-0.02,0
			c-0.52,0-0.96-0.38-1.03-0.9l-0.72-5.12l0.12-0.14c0.08-0.07,0.19-0.09,0.3-0.07l3.06,0.9c0.25,0.07,0.5,0.04,0.72-0.09
			c0.22-0.13,0.37-0.34,0.42-0.59c0.1-0.48-0.21-0.96-0.69-1.06L15.01,7.5c-0.63-0.14-1.27,0.04-1.73,0.48
			c-0.46,0.44-0.67,1.08-0.56,1.71l1.27,7.09c0.15,0.84,0.87,1.41,1.73,1.41l6.59-0.17C22.32,18.04,22.33,18.04,22.34,18.04z
			 M17,9.84L17,9.84C17,9.84,17,9.84,17,9.84z"/>
	</g>
	<g>
		<path class="st1" d="M14.64,6.48c-1.57,0-2.85-1.28-2.85-2.84s1.28-2.85,2.85-2.85c1.57,0,2.84,1.28,2.84,2.85
			S16.21,6.48,14.64,6.48z M14.64,1.31c-1.28,0-2.33,1.04-2.33,2.33s1.04,2.33,2.33,2.33s2.33-1.04,2.33-2.33S15.92,1.31,14.64,1.31
			z"/>
	</g>
	<g>
		<path class="st1" d="M14.33,31.21c-2.27,0-4.53-0.75-6.27-2.11c-2.1-1.65-3.34-4.05-3.6-6.95c-0.65-7.28,5.62-10.04,5.69-10.06
			c0.25-0.1,0.54,0.01,0.64,0.26c0.11,0.25-0.01,0.54-0.26,0.64c-0.23,0.1-5.68,2.52-5.09,9.07c0.23,2.62,1.35,4.79,3.23,6.26
			c1.91,1.5,4.55,2.17,7.04,1.8c4.45-0.67,6.36-3.68,6.38-3.71c0.14-0.23,0.44-0.3,0.67-0.16c0.23,0.14,0.3,0.44,0.16,0.67
			c-0.09,0.14-2.17,3.42-7.07,4.16C15.35,31.17,14.84,31.21,14.33,31.21z"/>
	</g>
</g>
</svg>
