<?xml version="1.0" encoding="utf-8"?>
<!-- Generator: Adobe Illustrator 23.0.2, SVG Export Plug-In . SVG Version: 6.00 Build 0)  -->
<svg version="1.1" id="Layer_1" xmlns="http://www.w3.org/2000/svg" xmlns:xlink="http://www.w3.org/1999/xlink" x="0px" y="0px"
	 width="32px" height="32px" viewBox="0 0 32 32" style="enable-background:new 0 0 32 32;" xml:space="preserve">
<style type="text/css">
	.st0{fill:none;}
	.st1{fill:#952524;}
</style>
<g>
	<rect y="0" class="st0" width="32" height="32"/>
</g>
<g>
	<path class="st1" d="M27.63,20.16c0.18-0.83,0.26-1.66,0.26-2.47c0-5.18-3.3-9.72-8.23-11.31c0-0.01,0-0.02,0-0.03
		c0.01-0.08,0.02-0.16,0.02-0.25c0-2.03-1.65-3.68-3.68-3.68c-2.03,0-3.68,1.65-3.68,3.68c0,0.08,0.01,0.17,0.02,0.25
		c0,0.01,0,0.02,0,0.03c-4.93,1.6-8.23,6.13-8.23,11.31c0,0.82,0.09,1.65,0.27,2.47c-1.27,0.61-2.09,1.91-2.09,3.31
		c0,2.03,1.65,3.68,3.68,3.68c0.74,0,1.46-0.23,2.08-0.65c2.2,1.98,5.02,3.08,7.95,3.08c2.94,0,5.76-1.09,7.95-3.08
		c0.62,0.43,1.34,0.65,2.08,0.65c2.03,0,3.68-1.65,3.68-3.68C29.72,22.07,28.9,20.78,27.63,20.16z M18.71,6.17
		c0,0.02-0.01,0.05-0.01,0.07c-0.01,0.25-0.06,0.49-0.14,0.73c-0.38,1.1-1.41,1.84-2.56,1.84s-2.18-0.74-2.55-1.84
		c-0.08-0.24-0.13-0.48-0.14-0.73c0-0.02,0-0.05-0.01-0.07c0-0.02-0.01-0.05-0.01-0.07c0-1.5,1.22-2.71,2.71-2.71
		c1.5,0,2.71,1.22,2.71,2.71C18.71,6.12,18.71,6.15,18.71,6.17z M26.03,20.76c0.18,0,0.36,0.02,0.54,0.05
		c0.22,0.04,0.45,0.13,0.7,0.26c0.91,0.47,1.48,1.39,1.48,2.4c0,1.5-1.22,2.71-2.71,2.71c-0.52,0-1.03-0.15-1.47-0.44
		c-0.2-0.13-0.38-0.29-0.56-0.49c-0.44-0.5-0.69-1.14-0.69-1.78C23.32,21.98,24.54,20.76,26.03,20.76z M5.97,20.76
		c1.5,0,2.71,1.22,2.71,2.71c0,0.65-0.24,1.28-0.69,1.78c-0.18,0.2-0.36,0.36-0.56,0.49c-0.44,0.29-0.95,0.44-1.47,0.44
		c-1.5,0-2.71-1.22-2.71-2.71c0-1.01,0.57-1.93,1.48-2.4c0.25-0.13,0.48-0.21,0.7-0.26C5.61,20.78,5.79,20.76,5.97,20.76z
		 M9.65,23.48c0-2.03-1.65-3.69-3.68-3.69c-0.22,0-0.44,0.02-0.67,0.06c-0.15-0.71-0.22-1.44-0.22-2.16c0-4.71,3-8.86,7.47-10.35
		c0.53,1.47,1.9,2.45,3.45,2.45s2.93-0.98,3.45-2.45c4.47,1.49,7.47,5.64,7.47,10.35c0,0.72-0.07,1.45-0.22,2.16
		c-0.23-0.04-0.45-0.06-0.67-0.06c-2.03,0-3.68,1.65-3.68,3.69c0,0.86,0.31,1.7,0.88,2.37c-2.01,1.78-4.57,2.76-7.23,2.76
		s-5.22-0.98-7.23-2.76C9.34,25.18,9.65,24.34,9.65,23.48z"/>
</g>
</svg>
