<?xml version="1.0" encoding="utf-8"?>
<!-- Generator: Adobe Illustrator 23.0.2, SVG Export Plug-In . SVG Version: 6.00 Build 0)  -->
<svg version="1.1" id="Layer_1" xmlns="http://www.w3.org/2000/svg" xmlns:xlink="http://www.w3.org/1999/xlink" x="0px" y="0px"
	 width="32px" height="32px" viewBox="0 0 32 32" style="enable-background:new 0 0 32 32;" xml:space="preserve">
<style type="text/css">
	.st0{fill:none;}
	.st1{fill:#952524;}
</style>
<rect class="st0" width="32" height="32"/>
<g>
	<path class="st1" d="M18.24,15.91c-0.07-0.06-0.16-0.08-0.25-0.06c-0.09,0.02-0.16,0.09-0.19,0.17l-0.63,1.72
		c-0.2-0.43-0.51-1.19-0.91-2.43c-0.06-0.2-0.29-0.87-0.74-0.91c-0.4-0.03-0.61,0.42-0.68,0.57c-0.3,0.65-0.38,2.08-0.4,2.95
		c-0.25-0.32-0.54-0.76-0.63-1.21c-0.03-0.12-0.12-0.2-0.24-0.22c-0.12,0-0.23,0.06-0.28,0.17c-0.07,0.17-1.73,4.1-0.89,6.24
		c0.78,1.98,2.58,2.17,3.63,2.17c0.14,0,0.26,0,0.37-0.01c2.66-0.07,3.3-2.24,3.38-4.05C19.92,17.43,18.31,15.97,18.24,15.91
		 M16.38,24.51c-0.89,0.02-2.73,0.07-3.47-1.81c-0.57-1.44,0.2-3.96,0.63-5.16c0.38,0.72,0.96,1.27,0.99,1.3
		c0.08,0.07,0.2,0.09,0.3,0.05c0.1-0.04,0.16-0.15,0.16-0.25c-0.01-0.72,0.03-2.73,0.36-3.42c0.08-0.16,0.13-0.22,0.14-0.25
		c0.08,0.06,0.2,0.29,0.26,0.51c0.78,2.44,1.24,3.08,1.26,3.11c0.06,0.08,0.15,0.12,0.26,0.11c0.1-0.02,0.18-0.08,0.22-0.18
		l0.68-1.86c0.42,0.58,1.16,1.95,1.06,4.33C19.08,24.44,17.04,24.49,16.38,24.51"/>
	<path class="st1" d="M23.13,6.67c0.54-0.19,0.93-0.9,0.93-1.79c0-1.03-0.53-1.84-1.21-1.84c-0.68,0-1.21,0.81-1.21,1.84
		c0,0.88,0.39,1.6,0.93,1.79v1.86h-4.01V6.67c0.54-0.19,0.93-0.9,0.93-1.79c0-1.03-0.53-1.84-1.21-1.84s-1.21,0.81-1.21,1.84
		c0,0.88,0.39,1.6,0.93,1.79v1.86h-4.01V6.67c0.54-0.19,0.93-0.9,0.93-1.79c0-1.03-0.53-1.84-1.21-1.84c-0.68,0-1.21,0.81-1.21,1.84
		c0,0.88,0.39,1.6,0.93,1.79v1.86H9.42V6.67c0.54-0.19,0.93-0.9,0.93-1.79c0-1.03-0.53-1.84-1.21-1.84c-0.68,0-1.21,0.81-1.21,1.84
		c0,0.88,0.39,1.6,0.93,1.79v1.86H6.44v0.55h19.13V8.54h-2.43V6.67z M9.15,6.17c-0.31,0-0.65-0.53-0.65-1.29
		c0-0.76,0.34-1.29,0.65-1.29c0.31,0,0.65,0.55,0.65,1.29C9.8,5.62,9.45,6.17,9.15,6.17 M13.71,6.17c-0.31,0-0.65-0.53-0.65-1.29
		c0-0.76,0.34-1.29,0.65-1.29c0.31,0,0.65,0.53,0.65,1.29C14.37,5.65,14.02,6.17,13.71,6.17 M18.29,6.17
		c-0.31,0-0.65-0.53-0.65-1.29c0-0.76,0.34-1.29,0.65-1.29s0.65,0.53,0.65,1.29C18.94,5.65,18.59,6.17,18.29,6.17 M22.86,6.17
		c-0.31,0-0.65-0.55-0.65-1.29c0-0.74,0.34-1.29,0.65-1.29c0.31,0,0.65,0.53,0.65,1.29C23.51,5.65,23.16,6.17,22.86,6.17"/>
	<path class="st1" d="M26.05,0.41H5.95c-0.27,0-0.49,0.22-0.49,0.49V31.1c0,0.27,0.22,0.49,0.49,0.49h20.11
		c0.27,0,0.49-0.22,0.49-0.49V0.9C26.54,0.63,26.32,0.41,26.05,0.41 M25.56,30.61H6.44V1.39h19.13V30.61z"/>
</g>
</svg>
