<?xml version="1.0" encoding="utf-8"?>
<!-- Generator: Adobe Illustrator 23.0.2, SVG Export Plug-In . SVG Version: 6.00 Build 0)  -->
<svg version="1.1" id="Layer_1" xmlns="http://www.w3.org/2000/svg" xmlns:xlink="http://www.w3.org/1999/xlink" x="0px" y="0px"
	 width="32px" height="32px" viewBox="0 0 32 32" style="enable-background:new 0 0 32 32;" xml:space="preserve">
<style type="text/css">
	.st0{fill:none;}
	.st1{fill:#972726;}
	.st2{fill:#28B24B;}
</style>
<g>
	<rect y="0" class="st0" width="32" height="32"/>
</g>
<g>
	<polygon class="st1" points="28.76,27.62 3.24,27.62 3.24,7.21 2.24,7.21 2.24,30.78 3.24,30.78 3.24,28.49 28.76,28.49 
		28.76,30.78 29.76,30.78 29.76,7.21 28.76,7.21 	"/>
	<path class="st1" d="M16,8.81c2.09,0,3.8-1.7,3.8-3.8c0-2.09-1.7-3.8-3.8-3.8c-2.09,0-3.8,1.7-3.8,3.8
		C12.2,7.11,13.91,8.81,16,8.81 M16,1.83c1.76,0,3.18,1.43,3.18,3.18S17.76,8.2,16,8.2c-1.75,0-3.18-1.43-3.18-3.18
		S14.24,1.83,16,1.83"/>
	<path class="st1" d="M23.23,12.88l-4.06-4.06l-0.43,0.44l4.06,4.06c0.18,0.18,0.27,0.41,0.27,0.66c0,0.25-0.1,0.48-0.27,0.66
		c-0.35,0.34-0.9,0.36-1.27,0.05l-2.81-2.41v3.14h-5.44v-3.14l-2.8,2.41c-0.37,0.32-0.93,0.3-1.27-0.05
		c-0.18-0.18-0.27-0.41-0.27-0.66c0-0.25,0.1-0.48,0.27-0.66l4.06-4.06l-0.43-0.43l-4.06,4.06c-0.29,0.29-0.45,0.68-0.45,1.1
		c0,0.41,0.16,0.8,0.45,1.09c0.57,0.57,1.49,0.61,2.1,0.08l1.79-1.54v3.18l-1.8,1.41c-0.93,0.73-1.1,2.08-0.38,3.01l1.91,2.48
		c0.23,0.3,0.57,0.5,0.95,0.54c0.38,0.05,0.75-0.05,1.06-0.29l0.08-0.06c0.83-0.65,0.99-1.83,0.36-2.68l-0.52-0.7
		c-0.11-0.15-0.09-0.37,0.06-0.49l0.25-0.21l0.07,0.03c0.81,0.34,1.75,0.34,2.56,0l0.07-0.03l0.25,0.21
		c0.15,0.12,0.17,0.34,0.06,0.49l-0.52,0.7c-0.63,0.85-0.47,2.03,0.36,2.68l0.08,0.07c0.3,0.24,0.68,0.35,1.06,0.29
		c0.38-0.05,0.72-0.24,0.95-0.55l1.91-2.48c0.72-0.93,0.55-2.28-0.38-3.01l-1.8-1.41v-3.18l1.79,1.54c0.61,0.52,1.53,0.49,2.1-0.08
		c0.29-0.29,0.45-0.68,0.45-1.09C23.68,13.56,23.52,13.18,23.23,12.88 M19.23,16.75v-0.13V16.75l0,0.13h0V16.75z M14.36,21.57
		c0.43,0.58,0.32,1.39-0.25,1.83l-0.08,0.07c-0.15,0.11-0.32,0.17-0.5,0.17c-0.03,0-0.06,0-0.1-0.01c-0.22-0.03-0.41-0.14-0.54-0.31
		l-1.91-2.48c-0.51-0.67-0.39-1.63,0.27-2.15l1.51-1.18l0.05,0.18c0.19,0.66,0.6,1.26,1.15,1.69l0.11,0.09l-0.11,0.1
		c-0.36,0.34-0.42,0.9-0.12,1.3L14.36,21.57z M16,19.47c-1.45,0-2.64-1.13-2.72-2.57l0-0.86h5.44l0,0.85
		C18.64,18.34,17.45,19.47,16,19.47 M20.75,18.69c0.66,0.52,0.79,1.48,0.27,2.15l-1.91,2.48c-0.13,0.17-0.33,0.28-0.54,0.31
		c-0.03,0-0.07,0.01-0.1,0.01c-0.17,0-0.35-0.06-0.49-0.17l-0.09-0.07c-0.57-0.45-0.68-1.25-0.25-1.83l0.52-0.7
		c0.3-0.4,0.25-0.96-0.12-1.3l-0.11-0.1l0.11-0.09c0.55-0.43,0.96-1.03,1.15-1.69l0.05-0.18L20.75,18.69z"/>
	<path class="st2" d="M19.23,16.63v0.13V16.63z"/>
	<polygon class="st2" points="19.23,16.75 19.23,16.75 19.23,16.88 	"/>
</g>
</svg>
