<?xml version="1.0" encoding="utf-8"?>
<!-- Generator: Adobe Illustrator 23.0.2, SVG Export Plug-In . SVG Version: 6.00 Build 0)  -->
<svg version="1.1" id="Layer_1" xmlns="http://www.w3.org/2000/svg" xmlns:xlink="http://www.w3.org/1999/xlink" x="0px" y="0px"
	 width="32px" height="32px" viewBox="0 0 32 32" style="enable-background:new 0 0 32 32;" xml:space="preserve">
<style type="text/css">
	.st0{fill:none;}
	.st1{fill:#952524;}
</style>
<rect class="st0" width="32" height="32"/>
<g>
	<path class="st1" d="M24.69,9.04c0.03,0.01,0.52,0.16,1.11,0.16c0.43,0,0.91-0.08,1.31-0.35c0.13-0.09,0.16-0.26,0.07-0.38
		c-0.09-0.13-0.26-0.16-0.38-0.07c-0.71,0.49-1.93,0.12-1.94,0.12c-0.14-0.04-0.3,0.04-0.34,0.18C24.46,8.84,24.54,8.99,24.69,9.04"
		/>
	<path class="st1" d="M23.35,11.98c0.19,0.04,0.75,0.14,1.34,0.14c0.62,0,1.27-0.11,1.58-0.52c0.09-0.12,0.07-0.29-0.06-0.39
		c-0.12-0.09-0.29-0.07-0.39,0.06c-0.29,0.39-1.56,0.33-2.37,0.17c-0.15-0.03-0.29,0.07-0.32,0.22
		C23.11,11.8,23.2,11.95,23.35,11.98"/>
	<path class="st1" d="M25.11,14.88c-0.09-0.12-0.27-0.14-0.39-0.05c-0.21,0.16-0.69,0.34-1.8,0.27l-0.1-0.01
		c-0.23,0-0.39,0.14-0.42,0.16c-0.11,0.1-0.1,0.26,0,0.38c0.05,0.06,0.13,0.09,0.21,0.09c0.08,0,0.15-0.03,0.21-0.08l0.07,0
		c0.38,0.02,1.54,0.09,2.17-0.38C25.18,15.17,25.2,15,25.11,14.88"/>
	<path class="st1" d="M25.66,5c0.29-0.27,1.21-0.92,1.89-0.69c0.64,0.22,0.92,1.16,1.05,1.91c0.54,3.25-1.82,9.08-2.53,10.73h0.6
		c0.82-1.94,3.02-7.52,2.47-10.82c-0.21-1.3-0.69-2.09-1.41-2.34c-1.14-0.39-2.39,0.75-2.46,0.81C22,8.01,19.21,15.79,18.8,16.96
		h0.58C19.95,15.38,22.64,8.13,25.66,5"/>
	<path class="st1" d="M4.83,31.66h22.34l2.81-14.7H2.02L4.83,31.66z M28.77,18.04l-2.41,12.64H5.64l-0.01-0.07L3.21,17.94h25.58
		L28.77,18.04z"/>
	<path class="st1" d="M14.38,14.45h1.33c0.15,0,0.28-0.12,0.28-0.27c0-0.15-0.12-0.27-0.28-0.27h-1.34l-0.04-2.47h1.86
		c0.15,0,0.28-0.12,0.28-0.27c0-0.15-0.12-0.27-0.28-0.27h-1.87l-0.01-0.82c0-0.01-0.07-0.92,0.5-1.53
		c0.35-0.37,0.87-0.56,1.55-0.56c0.72,0,1.26,0.2,1.61,0.6c0.57,0.65,0.57,1.71,0.47,2.49l-0.06,0.47
		c-0.15,1.25-0.43,3.51-0.97,5.43h0.57c0.53-1.93,0.8-4.14,0.95-5.37l0.06-0.47c0.16-1.28-0.04-2.29-0.6-2.93
		c-0.39-0.44-0.95-0.69-1.65-0.75l2.01-5.01c0.06-0.14-0.01-0.3-0.15-0.36c-0.15-0.06-0.3,0.01-0.36,0.15l-1.69,4.21V0.62
		c0-0.15-0.12-0.27-0.28-0.27c-0.15,0-0.28,0.12-0.28,0.27v5.42L14.2,2.21c-0.06-0.14-0.23-0.19-0.36-0.13
		c-0.14,0.06-0.2,0.23-0.13,0.37l2.29,4.89v0.11c-0.66,0.07-1.2,0.3-1.58,0.71c-0.73,0.79-0.65,1.9-0.65,1.93l0.11,6.87h0.55
		L14.38,14.45z"/>
	<path class="st1" d="M4.56,13.68l0.82-4.56l0.01-0.06L4.95,7.49l2.84-0.73L8.24,8.7l3.13,3.06l1.18,5.19h0.56l-1.23-5.39
		l-0.02-0.08L8.74,8.42L8.32,6.61C8.76,6.45,9.02,6,8.9,5.54L8.87,5.42c-0.12-0.48-0.62-0.77-1.1-0.65l-3.93,1
		C3.61,5.83,3.41,5.98,3.29,6.19c-0.12,0.21-0.16,0.45-0.1,0.68l0.03,0.12c0.06,0.23,0.2,0.43,0.41,0.55
		c0.14,0.08,0.3,0.13,0.46,0.13c0.07,0,0.15-0.01,0.22-0.03l0.09-0.02l0.41,1.47l-0.83,4.63l0.99,3.24h0.58L4.56,13.68z M4.18,7.11
		C4.09,7.13,4,7.12,3.92,7.07C3.84,7.03,3.78,6.95,3.76,6.86L3.72,6.73C3.7,6.64,3.71,6.55,3.76,6.47c0.05-0.08,0.13-0.14,0.22-0.16
		l3.93-1C7.94,5.29,7.97,5.29,8,5.29c0.16,0,0.3,0.11,0.34,0.27l0.03,0.12C8.42,5.87,8.3,6.06,8.11,6.11L4.18,7.11z"/>
</g>
</svg>
