<?xml version="1.0" encoding="utf-8"?>
<!-- Generator: Adobe Illustrator 23.0.2, SVG Export Plug-In . SVG Version: 6.00 Build 0)  -->
<svg version="1.1" id="Layer_1" xmlns="http://www.w3.org/2000/svg" xmlns:xlink="http://www.w3.org/1999/xlink" x="0px" y="0px"
	 width="32px" height="32px" viewBox="0 0 32 32" style="enable-background:new 0 0 32 32;" xml:space="preserve">
<style type="text/css">
	.st0{fill:none;}
	.st1{fill:#952524;}
</style>
<rect class="st0" width="32" height="32"/>
<g>
	<rect x="13.04" y="19.85" class="st1" width="5.91" height="0.55"/>
	<rect x="13.04" y="8.35" class="st1" width="5.91" height="0.55"/>
	<path class="st1" d="M11.36,13.04c0.2,0,0.36-0.16,0.36-0.36c0-0.2-0.16-0.36-0.36-0.36c-0.2,0-0.36,0.16-0.36,0.36
		C11,12.88,11.16,13.04,11.36,13.04z"/>
	<path class="st1" d="M15.99,13.04c0.2,0,0.36-0.16,0.36-0.36c0-0.2-0.16-0.36-0.36-0.36c-0.2,0-0.36,0.16-0.36,0.36
		C15.63,12.88,15.8,13.04,15.99,13.04z"/>
	<path class="st1" d="M20.63,13.04c0.2,0,0.36-0.16,0.36-0.36c0-0.2-0.16-0.36-0.36-0.36c-0.2,0-0.36,0.16-0.36,0.36
		C20.27,12.88,20.43,13.04,20.63,13.04z"/>
	<path class="st1" d="M31.1,12.14h-4.68v-0.08v-1.61h-0.66h-0.09c-0.21-4.18-2.74-6.6-2.85-6.7l-0.14-0.13H9.61L9.47,3.76
		c-0.03,0.03-2.63,2.49-2.85,6.7H6.53H5.57v1.6v0.08H0.91c-0.27,0-0.49,0.22-0.49,0.49s0.22,0.49,0.49,0.49h4.66v0.08v1.6h0.79h0.08
		v12.85H8.1v0.72h0.98v-0.72h14.25v0.72h0.98v-0.72h1.23V14.8h0.08h0.79V13.2v-0.08l4.68,0c0.27,0,0.49-0.22,0.49-0.49
		S31.37,12.14,31.1,12.14z M9.99,4.63l0.02-0.03h12.27l0.02,0.03c0.51,0.56,2.18,2.62,2.37,5.83h-0.08H7.69H7.61
		C7.8,7.26,9.47,5.19,9.99,4.63z M21.56,26.67H10.67v-9.5h10.89V26.67z M24.56,26.67h-2.45v-9.78c0-0.15-0.12-0.27-0.27-0.27H10.39
		c-0.15,0-0.27,0.12-0.27,0.27v9.78H7.43V14.8h0.02h0.07h16.96h0.09V26.67z M25.87,14.25H6.12v-1.62c0,0,0,0,0-0.01s0,0,0-0.01
		v-1.62h19.75V14.25z"/>
</g>
</svg>
