<?xml version="1.0" encoding="utf-8"?>
<!-- Generator: Adobe Illustrator 23.0.2, SVG Export Plug-In . SVG Version: 6.00 Build 0)  -->
<svg version="1.1" id="Layer_1" xmlns="http://www.w3.org/2000/svg" xmlns:xlink="http://www.w3.org/1999/xlink" x="0px" y="0px"
	 width="32px" height="32px" viewBox="0 0 32 32" style="enable-background:new 0 0 32 32;" xml:space="preserve">
<style type="text/css">
	.st0{fill:none;}
	.st1{fill:#972726;}
</style>
<g>
	<rect y="0" class="st0" width="32" height="32"/>
</g>
<g>
	<path class="st1" d="M27.78,23.42v0.38v2.18h-2.59v0.5h6.28v-0.5h-2.69V7.08c0-0.63-0.25-0.99-0.46-1.18
		c-0.46-0.42-1.07-0.38-1.1-0.38H4.96c-0.71,0-1.11,0.28-1.33,0.52c-0.46,0.51-0.41,1.19-0.4,1.21v18.74H0.54v0.5h6.35v-0.5H4.23
		v-2.18h0v-1.03h23.55v0.15V23.42z M6.81,22.27H4.23l0-15.08c0,0-0.02-0.31,0.15-0.49c0.11-0.13,0.31-0.19,0.58-0.19h1.86V22.27z
		 M10.39,22.27H7.31V6.52h3.07V22.27z M13.96,22.27h-3.07V6.52h3.07V22.27z M17.54,22.27h-3.07V6.52h3.07V22.27z M21.11,22.27h-3.07
		V6.52h3.07V22.27z M24.69,22.27h-3.08V6.52l3.08,0V22.27z M25.19,22.27V6.52h2.07c0,0,0.25-0.01,0.39,0.12
		c0.09,0.08,0.14,0.23,0.14,0.44v15.19H25.19z"/>
</g>
</svg>
