<?xml version="1.0" encoding="utf-8"?>
<!-- Generator: Adobe Illustrator 23.0.2, SVG Export Plug-In . SVG Version: 6.00 Build 0)  -->
<svg version="1.1" id="Layer_1" xmlns="http://www.w3.org/2000/svg" xmlns:xlink="http://www.w3.org/1999/xlink" x="0px" y="0px"
	 width="32px" height="32px" viewBox="0 0 32 32" style="enable-background:new 0 0 32 32;" xml:space="preserve">
<style type="text/css">
	.st0{fill:none;}
	.st1{fill:#972726;}
</style>
<g>
	<rect y="0" class="st0" width="32" height="32"/>
</g>
<g>
	<polygon class="st1" points="14.91,23.84 17.08,23.84 27.83,23.84 30.72,21.36 30.07,20.6 27.46,22.84 17.08,22.84 14.91,22.84 
		4.54,22.84 1.93,20.6 1.28,21.36 4.17,23.84 	"/>
	<path class="st1" d="M30.86,26.5c-0.04,0-0.07-0.01-0.11-0.01v-0.02c-0.32-0.04-0.5-0.21-0.75-0.46c-0.32-0.32-0.76-0.75-1.58-0.75
		c-0.41,0-0.72,0.11-0.98,0.26c-0.26,0.15-0.46,0.34-0.63,0.51c-0.14,0.14-0.26,0.25-0.4,0.34c-0.13,0.07-0.28,0.12-0.48,0.12
		c-0.42,0-0.63-0.2-0.91-0.48c-0.32-0.31-0.76-0.75-1.57-0.75c-0.41,0-0.72,0.11-0.98,0.26c-0.27,0.15-0.46,0.34-0.63,0.51
		c-0.14,0.14-0.26,0.26-0.4,0.34c-0.13,0.07-0.28,0.12-0.48,0.12c-0.42,0-0.62-0.19-0.91-0.47c-0.32-0.32-0.76-0.75-1.58-0.75
		c-0.41,0-0.73,0.11-0.98,0.26c-0.26,0.15-0.46,0.34-0.63,0.5c-0.14,0.14-0.26,0.26-0.4,0.34c-0.13,0.07-0.28,0.12-0.48,0.12
		c-0.42,0-0.63-0.2-0.91-0.47c-0.32-0.32-0.76-0.75-1.58-0.75c-0.41,0-0.72,0.11-0.98,0.26c-0.26,0.15-0.46,0.34-0.63,0.51
		c-0.14,0.14-0.27,0.26-0.4,0.34c-0.13,0.07-0.28,0.12-0.48,0.12c-0.43,0-0.62-0.19-0.91-0.47c-0.32-0.32-0.76-0.75-1.58-0.75
		c-0.41,0-0.73,0.11-0.98,0.26c-0.26,0.15-0.46,0.34-0.63,0.5c-0.2,0.2-0.37,0.35-0.6,0.43c-0.08,0.02-0.18,0.03-0.28,0.03
		c-0.42,0-0.63-0.2-0.9-0.47c-0.32-0.32-0.76-0.75-1.58-0.75c-0.41,0-0.72,0.11-0.98,0.26c-0.26,0.15-0.46,0.34-0.63,0.51
		c-0.24,0.23-0.42,0.39-0.71,0.44c-0.05,0.01-0.1,0.02-0.15,0.02v1c0.04,0,0.07-0.01,0.11-0.01v0.01c0.05,0,0.09-0.02,0.14-0.03
		c0.66-0.08,1.06-0.44,1.34-0.73c0.15-0.15,0.27-0.27,0.4-0.34c0.13-0.07,0.26-0.11,0.44-0.11c0.4,0,0.59,0.18,0.87,0.46
		c0.33,0.32,0.77,0.76,1.61,0.76c0.42,0,0.74-0.11,1-0.26c0.27-0.15,0.47-0.35,0.64-0.51c0.15-0.15,0.27-0.26,0.4-0.34
		c0.13-0.07,0.26-0.11,0.45-0.11c0.39,0,0.57,0.16,0.87,0.46c0.33,0.32,0.77,0.76,1.61,0.76c0.42,0,0.74-0.11,1-0.26
		c0.27-0.15,0.47-0.35,0.64-0.51c0.15-0.15,0.27-0.27,0.4-0.34c0.13-0.07,0.26-0.11,0.44-0.11c0.39,0,0.57,0.16,0.88,0.46
		c0.33,0.32,0.77,0.76,1.61,0.76c0.42,0,0.74-0.11,1-0.26c0.27-0.15,0.47-0.35,0.64-0.51c0.15-0.15,0.27-0.26,0.4-0.34
		c0.06-0.03,0.11-0.06,0.18-0.08c0,0,0,0,0,0c0.08-0.02,0.17-0.03,0.27-0.03c0.39,0,0.57,0.16,0.87,0.46
		c0.33,0.32,0.77,0.76,1.61,0.76c0.42,0,0.74-0.11,1-0.26c0.27-0.15,0.47-0.35,0.64-0.51c0.15-0.15,0.27-0.27,0.4-0.34
		c0.13-0.07,0.26-0.11,0.44-0.11c0.39,0,0.57,0.16,0.88,0.46c0.33,0.32,0.77,0.76,1.61,0.76c0.42,0,0.74-0.11,1-0.26
		c0.27-0.15,0.47-0.35,0.64-0.51c0.17-0.17,0.31-0.3,0.48-0.38c0.1-0.04,0.22-0.07,0.36-0.07c0.39,0,0.57,0.16,0.87,0.46
		c0.32,0.32,0.77,0.75,1.59,0.76V26.5z"/>
	<path class="st1" d="M22.26,11.78h0.35h3.85h0.93c0.05,0,0.09-0.02,0.14-0.03c0.58-0.07,1.03-0.55,1.03-1.14
		c0-0.27-0.11-0.52-0.27-0.72c-0.21-0.27-0.53-0.46-0.9-0.46H23.1c-0.32,0-0.58-0.26-0.58-0.58c0-0.32,0.26-0.58,0.58-0.58h1.56
		c0.49,0,0.92-0.19,1.26-0.5c0.36-0.34,0.59-0.81,0.59-1.35H26c0,0.74-0.61,1.35-1.35,1.35H23.1c-0.38,0-0.69,0.21-0.88,0.5
		c-0.11,0.17-0.19,0.36-0.19,0.58c0,0.25,0.1,0.46,0.24,0.65c0.2,0.25,0.49,0.43,0.84,0.43h4.28c0.37,0,0.67,0.3,0.67,0.67
		c0,0.37-0.3,0.67-0.67,0.67h-0.93H22.6h-0.35c-0.18,0-0.36,0.04-0.52,0.1c-0.51,0.19-0.87,0.67-0.92,1.23h0.5
		C21.39,12.14,21.77,11.78,22.26,11.78"/>
	<path class="st1" d="M30.23,16.12l0-0.02V13.7H19.4v2.06l-6.07,0c-0.03,0-0.33-0.03-0.63,0.1l-0.35,0.16l0-4.39
		c0.01-0.11,0.23-2.04-1.5-3.76c0,0-0.67-0.5-0.72-1l0-2.36H7.04l0,2.28C6.98,7.32,6.4,7.8,6.22,7.94C4.6,9.56,4.8,11.51,4.81,11.53
		l0,9.04l0,0.71l5.42,0.02H23.9c0.02,0,1.93,0.06,2.89-0.8l0.31-0.39c0.47-0.57,0.65-1.22,0.71-1.66l0.03-0.19l0.2-0.02
		c0.72-0.07,1.27-0.3,1.64-0.7C30.27,16.91,30.23,16.13,30.23,16.12 M7.33,20.8l-0.29,0.02H5.31l0-9.32
		C5.3,11.46,5.12,9.75,6.53,8.32c0.07-0.05,0.92-0.65,1-1.52l0-1.81h2.09l0,1.88c0.08,0.76,0.88,1.35,0.88,1.35
		c1.44,1.42,1.37,3.04,1.34,3.35v5.08l-1.32,0.39c-0.12,0.02-0.53,0.08-0.78,0.42v0c-0.06,0.07-0.15,0.24-0.17,0.52l-0.01,0.12
		l-1.91,1.4c-0.03,0.03-0.5,0.48-0.39,1L7.33,20.8z M8.24,20.78c-0.22-0.08-0.48-0.22-0.48-0.43c-0.04-0.16,0.2-0.44,0.21-0.44
		l1.69-1.25l0.08,0.38c0.11,0.5,0.22,1.05,0.31,1.46l0.06,0.3L8.24,20.78z M10.63,20.8l-0.04-0.2c-0.12-0.57-0.34-1.63-0.49-2.3
		c-0.05-0.23-0.03-0.4,0.06-0.53c0.1-0.15,0.28-0.19,0.45-0.23l1.46-0.43l0.03,0.3c0.09,0.91,0.37,2.32,0.53,3.08l0.06,0.3H10.63z
		 M13.2,20.8l-0.04-0.2c-0.1-0.45-0.59-2.77-0.59-3.63c0-0.25,0.06-0.44,0.19-0.56c0.15-0.14,0.37-0.17,0.54-0.16l6.11,0v1.41
		c-0.01,0.17-0.09,1.55,0.83,2.54c0.02,0.03,0.05,0.05,0.08,0.07c0.03,0.03,0.06,0.05,0.09,0.08l0.47,0.43H13.2z M26.65,19.89
		c-0.51,0.55-1.29,0.84-2.3,0.84h-1.44c-1.02,0-1.79-0.28-2.31-0.84c-0.74-0.81-0.71-1.96-0.7-2.18V14.2h7.45l0,3.56
		C27.35,17.76,27.45,19.02,26.65,19.89 M29.31,17.19c-0.27,0.29-0.67,0.47-1.18,0.54l-0.28,0.04V14.2h1.88l0,1.93
		C29.73,16.19,29.73,16.76,29.31,17.19"/>
</g>
</svg>
