<?xml version="1.0" encoding="utf-8"?>
<!-- Generator: Adobe Illustrator 23.0.2, SVG Export Plug-In . SVG Version: 6.00 Build 0)  -->
<svg version="1.1" id="Layer_1" xmlns="http://www.w3.org/2000/svg" xmlns:xlink="http://www.w3.org/1999/xlink" x="0px" y="0px"
	 width="32px" height="32px" viewBox="0 0 32 32" style="enable-background:new 0 0 32 32;" xml:space="preserve">
<style type="text/css">
	.st0{fill:none;}
	.st1{fill:#972726;}
</style>
<g>
	<rect y="0" class="st0" width="32" height="32"/>
</g>
<g>
	<path class="st1" d="M15.95,11.03c2.81,0,5.1-2.29,5.1-5.09c0-2.81-2.29-5.1-5.1-5.1c-2.81,0-5.1,2.29-5.1,5.1
		C10.85,8.74,13.14,11.03,15.95,11.03 M15.95,1.84c2.26,0,4.1,1.84,4.1,4.1c0,2.26-1.84,4.09-4.1,4.09s-4.1-1.84-4.1-4.09
		C11.85,3.67,13.69,1.84,15.95,1.84"/>
	<path class="st1" d="M29.07,21.96c-0.96-1.69-4.3-6.67-4.48-6.93c-0.06-0.07-1.61-1.84-3.68-1.94c-1.52-0.08-3.96-0.03-4.91-0.01
		c-0.95-0.02-3.39-0.07-4.91,0.01c-2.07,0.11-3.62,1.87-3.72,1.99c-0.14,0.21-3.49,5.19-4.45,6.88c-1.13,1.99,0.02,3.25,0.08,3.31
		l3.83,3.83c0.47,0.47,0.99,0.7,1.54,0.69c0.78-0.02,1.32-0.54,1.44-0.66l0.16,1.59c0.03,0.26,0.24,0.45,0.5,0.45
		c0.02,0,0.03,0,0.05,0c0.27-0.03,0.48-0.27,0.45-0.55L9.89,19.89c-0.02-0.2-0.16-0.37-0.36-0.43C9.34,19.4,9.13,19.47,9,19.63
		l-2.65,3.35c-0.15,0.19-0.14,0.47,0.03,0.65l2.71,2.9c0.08,0.11,0.8,1.11,0.02,1.88c0,0-0.34,0.36-0.77,0.37
		c-0.25,0.02-0.54-0.13-0.8-0.39l-3.81-3.81c-0.03-0.03-0.69-0.8,0.07-2.13c0.94-1.65,4.37-6.76,4.37-6.77
		c0.01-0.01,1.33-1.51,2.98-1.6c0.34-0.02,0.74-0.03,1.16-0.04l2.75,6.89l-1.19,2.73c-0.03,0.06-0.03,0.13,0,0.19
		s0.07,0.11,0.13,0.14l2.17,0.95c0.03,0.01,0.07,0.02,0.1,0.02c0.1,0,0.19-0.06,0.23-0.15l1.59-3.63c0.06-0.13,0-0.27-0.13-0.33
		l-0.88-0.39l2.71-6.42c0.39,0.01,0.76,0.02,1.09,0.03c1.62,0.08,2.93,1.55,2.94,1.55c0.05,0.07,3.47,5.16,4.41,6.82
		c0.75,1.33,0.09,2.1,0.08,2.11l-3.83,3.83c-0.27,0.27-0.56,0.38-0.8,0.39c-0.43-0.01-0.77-0.37-0.79-0.39
		c-0.76-0.76-0.04-1.75,0.01-1.83l2.75-2.94c0.17-0.18,0.18-0.46,0.03-0.65L23,19.63c-0.13-0.16-0.34-0.23-0.53-0.17
		c-0.19,0.06-0.34,0.23-0.36,0.43l-1.08,10.72c-0.03,0.27,0.17,0.52,0.45,0.55c0.02,0,0.03,0,0.05,0c0.25,0,0.47-0.19,0.5-0.45
		l0.16-1.59c0.16,0.16,0.69,0.64,1.44,0.66c0.54,0.02,1.07-0.22,1.54-0.69L29,25.26C29.05,25.21,30.2,23.95,29.07,21.96 M7.4,23.26
		l1.62-2.04l0.43,4.23L7.4,23.26z M17.51,21.22l-1.39,3.17l-1.71-0.75l1.39-3.17l0.66,0.29c0.02,0.07,0.06,0.13,0.14,0.16
		c0.03,0.01,0.06,0.02,0.1,0.02c0.04,0,0.08-0.02,0.11-0.03L17.51,21.22z M16.6,20.27l-0.83-0.36c-0.12-0.05-0.27,0-0.33,0.13
		l-0.11,0.26l-2.49-6.25c0.99-0.01,2.01,0.01,2.7,0.02c0.18,0,0.33,0.01,0.46,0.01c0.13,0,0.28-0.01,0.46-0.01
		c0.71-0.01,1.77-0.03,2.77-0.02L16.6,20.27z M22.98,21.22l1.62,2.04l-2.05,2.19L22.98,21.22z"/>
</g>
</svg>
