<?xml version="1.0" encoding="utf-8"?>
<!-- Generator: Adobe Illustrator 23.0.2, SVG Export Plug-In . SVG Version: 6.00 Build 0)  -->
<svg version="1.1" id="Layer_1" xmlns="http://www.w3.org/2000/svg" xmlns:xlink="http://www.w3.org/1999/xlink" x="0px" y="0px"
	 width="32px" height="32px" viewBox="0 0 32 32" style="enable-background:new 0 0 32 32;" xml:space="preserve">
<style type="text/css">
	.st0{fill:none;}
	.st1{fill:#952524;}
</style>
<rect class="st0" width="32" height="32"/>
<g>
	<path class="st1" d="M30.48,4.22l-0.07-0.04l0-0.01c-0.25-0.13-1.13-0.59-2.52-1.13c-3.71-1.49-7.62-2.26-11.62-2.27l-0.27,0
		l-0.1,0c-0.07,0-0.13,0-0.2,0C11.72,0.78,7.81,1.55,4.1,3.04C2.69,3.59,1.8,4.05,1.58,4.18L1.52,4.22
		C1.35,4.31,1.26,4.48,1.27,4.67l0.53,9.14c0.01,0.11,0.05,0.21,0.12,0.29l2.01,2.34c0.09,0.1,0.22,0.16,0.35,0.17
		c0.15,0,0.27-0.05,0.37-0.14l1.25-1.25l0.24,1.95H5.25c-0.27,0-0.48,0.21-0.49,0.47c0,0.1-0.01,1.02,0.97,2.03
		c1.17,1.21,3.89,2.65,10.27,2.65c6.38,0,9.1-1.44,10.27-2.65c0.98-1.01,0.97-1.93,0.97-2.03c-0.01-0.27-0.22-0.47-0.49-0.47h-0.88
		l0.24-1.95l1.25,1.25c0.09,0.09,0.22,0.14,0.37,0.14c0.13,0,0.26-0.07,0.35-0.17l2.01-2.34c0.07-0.08,0.11-0.18,0.12-0.29
		l0.53-9.14C30.74,4.48,30.65,4.31,30.48,4.22 M29.73,4.99l-0.5,8.6l-0.02,0.02l-1.54,1.79l-1.59-1.58
		c-0.13-0.13-0.33-0.18-0.5-0.12c-0.18,0.06-0.3,0.22-0.33,0.4l-0.43,3.5c-0.02,0.14,0.03,0.28,0.12,0.38
		c0.09,0.11,0.23,0.17,0.37,0.17h0.83l-0.06,0.12c-0.12,0.24-0.29,0.48-0.52,0.71c-1.03,1.07-3.53,2.35-9.57,2.35
		c-7.43,0-9.5-1.92-10.08-3.06l-0.06-0.12h0.83c0.14,0,0.27-0.06,0.37-0.17c0.09-0.1,0.14-0.24,0.12-0.38l-0.43-3.5
		c-0.02-0.19-0.15-0.34-0.33-0.4c-0.17-0.06-0.37-0.01-0.5,0.12L4.32,15.4l-1.56-1.81l0-0.03l-0.5-8.63l0.05-0.03
		C3.13,4.5,3.98,4.13,4.85,3.8c2.34-0.88,6.08-1.94,10.61-2.04c0.12,0,0.25,0,0.37,0c4.88,0,8.92,1.14,11.47,2.11
		c0.85,0.33,1.63,0.68,2.39,1.05l0.05,0.03L29.73,4.99z"/>
	<path class="st1" d="M14.86,11.38h-0.08c-0.64,0-3.95,0.07-6.62,1.52C8.05,12.97,8,13.11,8.05,13.24l1.46,3.37
		c0.04,0.1,0.14,0.16,0.24,0.16l5.11-0.12c0.14,0,0.26-0.12,0.26-0.26v-4.74C15.12,11.51,15,11.39,14.86,11.38z M14.59,16.13
		l-4.67,0.11l-0.08-0.2l-1.21-2.79l0.27-0.13c1.95-0.91,4.19-1.14,5.36-1.19l0.32-0.01V16.13z"/>
	<path class="st1" d="M23.83,12.9c-2.72-1.47-6.24-1.52-6.63-1.52c-0.2,0-0.31,0.12-0.31,0.26v4.74c0,0.15,0.11,0.26,0.26,0.26
		l5.1,0.12c0.11,0,0.21-0.06,0.25-0.16l1.46-3.38C24,13.11,23.95,12.97,23.83,12.9L23.83,12.9z M22.07,16.24l-4.66-0.11v-4.22
		l0.32,0.02c1.17,0.06,3.41,0.29,5.36,1.19l0.27,0.13L22.07,16.24z"/>
	<path class="st1" d="M11.37,24.77c-0.26,0.56-0.36,1.08-0.36,1.56c0.03,0.49,0.13,0.89,0.35,1.4c0.23,0.61,0.32,1.3,0.16,1.94
		c-0.14,0.63-0.47,1.22-0.99,1.57c0.21-1.21,0.13-2.17-0.24-3.09c-0.23-0.54-0.37-1.31-0.17-1.96
		C10.32,25.53,10.78,24.98,11.37,24.77"/>
	<path class="st1" d="M16.42,24.77c-0.26,0.56-0.36,1.08-0.36,1.56c0.03,0.49,0.13,0.89,0.35,1.4c0.23,0.61,0.32,1.3,0.16,1.94
		c-0.14,0.63-0.47,1.22-0.99,1.57c0.21-1.21,0.13-2.17-0.24-3.09c-0.23-0.54-0.37-1.31-0.17-1.96
		C15.37,25.53,15.83,24.98,16.42,24.77"/>
	<path class="st1" d="M21.46,24.77c-0.25,0.56-0.36,1.08-0.36,1.56c0.03,0.49,0.13,0.89,0.35,1.4c0.23,0.61,0.32,1.3,0.16,1.94
		c-0.14,0.63-0.47,1.22-0.99,1.57c0.21-1.21,0.13-2.17-0.24-3.09c-0.23-0.54-0.37-1.31-0.17-1.96
		C20.41,25.53,20.87,24.98,21.46,24.77"/>
</g>
</svg>
