<?xml version="1.0" encoding="utf-8"?>
<!-- Generator: Adobe Illustrator 23.0.2, SVG Export Plug-In . SVG Version: 6.00 Build 0)  -->
<svg version="1.1" id="Layer_1" xmlns="http://www.w3.org/2000/svg" xmlns:xlink="http://www.w3.org/1999/xlink" x="0px" y="0px"
	 width="32px" height="32px" viewBox="0 0 32 32" style="enable-background:new 0 0 32 32;" xml:space="preserve">
<style type="text/css">
	.st0{fill:none;}
	.st1{fill:#952524;}
</style>
<rect class="st0" width="32" height="32"/>
<g>
	<path class="st1" d="M23.12,28.08c-1.04-0.55-3.77-2.32-3.93-3.85c-0.08-0.79-0.38-1.32-0.89-1.58c-0.86-0.44-1.9,0.15-1.96,0.19
		c-0.03,0.01-2.82,1.25-4.74,1.25c-0.52,0-0.9-0.12-1.13-0.37c-0.3-0.32-0.28-0.77-0.27-0.8v-0.96c0-1.18-0.74-1.55-1.17-1.59H8.7
		l0.06-0.97c0.01-0.14-0.04-0.27-0.13-0.37c-0.09-0.1-0.23-0.16-0.36-0.16c-0.42,0-0.58-0.09-0.61-0.13
		c-0.02-0.03-0.01-0.11,0.01-0.15c0.03-0.07,0.04-0.14,0.04-0.22c-0.01-0.34-0.1-2.05-1.19-2.07c-0.22,0-0.74-0.25-0.87-0.59
		C5.6,15.64,5.5,15.4,5.93,14.97c1.37-1.37,1.3-3.23,1.3-3.29V8.04c1.22,0.42,2.67,0.63,4.38,0.63c0.28,0,0.5-0.22,0.5-0.5
		c0-0.28-0.22-0.5-0.5-0.5c-3.16,0-5.38-0.75-6.59-2.25C3.64,3.73,4.08,1.6,4.08,1.58C4.14,1.31,3.97,1.04,3.7,0.98
		C3.43,0.93,3.17,1.09,3.11,1.36c-0.02,0.11-0.54,2.6,1.13,4.68c0.52,0.64,1.18,1.17,1.99,1.58v4.08c0,0.02,0.06,1.5-1,2.56
		c-0.78,0.78-0.65,1.48-0.51,1.83c0.31,0.77,1.22,1.2,1.72,1.2h0.01c0.11,0.09,0.23,0.57,0.26,1.01c-0.06,0.2-0.13,0.6,0.11,0.98
		c0.18,0.29,0.49,0.47,0.92,0.54l-0.06,1.01c-0.01,0.14,0.04,0.27,0.13,0.37c0.09,0.1,0.23,0.16,0.36,0.16l0.82,0
		c0,0,0.21,0.07,0.21,0.59l0,0.92c-0.01,0.09-0.05,0.89,0.53,1.52c0.43,0.46,1.06,0.7,1.88,0.7c2.13,0,5.02-1.28,5.19-1.36
		c0.22-0.13,0.76-0.34,1.05-0.19c0.24,0.12,0.32,0.49,0.35,0.79c0.23,2.33,4.02,4.4,4.4,4.6c0.67,0.46,1.72,1.33,1.87,1.76
		c0.07,0.21,0.27,0.34,0.47,0.34c0.05,0,0.11-0.01,0.16-0.03c0.26-0.09,0.4-0.37,0.32-0.63C25.12,29.47,23.49,28.32,23.12,28.08"/>
	<path class="st1" d="M28.84,4.99l-3.3-3.3c-0.19-0.19-0.52-0.19-0.71,0l-9.38,9.38l-5.06,2.79c-0.14,0.08-0.23,0.21-0.25,0.37
		c-0.02,0.16,0.03,0.31,0.14,0.42l2.92,2.92l2.53,2.63c0.09,0.1,0.23,0.15,0.36,0.15c0.02,0,0.04,0,0.06,0
		c0.16-0.02,0.29-0.11,0.37-0.25l2.86-4.95l9.46-9.46C29.04,5.51,29.04,5.19,28.84,4.99 M15.99,19.03l-2.08-2.16l-0.01-0.01
		l-2.45-2.45l4.31-2.38l2.67,2.77L15.99,19.03z M18.77,14.36l-2.55-2.64l1.94-1.94l2.55,2.64L18.77,14.36z M21.1,12.03l-2.55-2.64
		l6.64-6.64l2.6,2.6L21.1,12.03z"/>
</g>
</svg>
