<?xml version="1.0" encoding="utf-8"?>
<!-- Generator: Adobe Illustrator 23.0.2, SVG Export Plug-In . SVG Version: 6.00 Build 0)  -->
<svg version="1.1" id="Layer_1" xmlns="http://www.w3.org/2000/svg" xmlns:xlink="http://www.w3.org/1999/xlink" x="0px" y="0px"
	 width="32px" height="32px" viewBox="0 0 32 32" style="enable-background:new 0 0 32 32;" xml:space="preserve">
<style type="text/css">
	.st0{fill:none;}
	.st1{fill:#952524;}
</style>
<g>
	<rect y="0" class="st0" width="32" height="32"/>
</g>
<g>
	<polygon class="st1" points="22.11,18.04 17.96,13.71 17.96,6.23 16.97,6.23 16.97,14.11 21.33,18.65 21.4,18.73 22.09,18.06 	"/>
	<path class="st1" d="M17.82,0.51c-3.35,0-6.56,1.26-9.03,3.54L8.73,4.12l0.66,0.73l0.08-0.07c2.07-1.92,4.76-3.08,7.57-3.27v2.24
		h0.99V1.5c6.53,0.1,11.96,5.48,12.11,12.01h-2.34v0.99h2.33c-0.28,5.05-3.71,9.48-8.54,11.03l-0.1,0.03l0.29,0.91l0.01,0.02
		l0.1-0.03c5.53-1.77,9.24-6.86,9.24-12.66C31.12,6.48,25.16,0.51,17.82,0.51"/>
	<path class="st1" d="M15.48,22.64c-0.25-0.19-0.58-0.22-0.85-0.06l-1.85,1.07c-0.1,0.06-0.18,0.16-0.21,0.27
		c-0.03,0.12-0.02,0.24,0.05,0.35c0.15,0.25,0.47,0.34,0.72,0.19l1.66-0.96l3.91,3.05l-2.6,3.89C2.78,23.02,1.9,8.86,1.87,6.02h5.35
		l0.62,5.16l-1.72,0.89c-0.15,0.08-0.27,0.22-0.32,0.38c-0.05,0.17-0.04,0.34,0.04,0.5c0.04,0.08,0.11,0.14,0.2,0.17
		c0.08,0.03,0.17,0.02,0.25-0.02l2.21-1.15c0.24-0.13,0.38-0.39,0.35-0.66L8.16,5.51C8.12,5.24,7.89,5.03,7.61,5.03H1.72
		c-0.02,0-0.04,0-0.06,0c-0.23,0-0.42,0.06-0.55,0.19C0.91,5.39,0.88,5.63,0.88,5.73c-0.02,1.06,0.05,4.88,1.63,9.59
		c1.64,4.89,5.31,11.65,13.47,16.08c0.08,0.04,0.25,0.09,0.44,0.09c0.24,0,0.43-0.1,0.57-0.3l2.87-4.3
		c0.21-0.31,0.14-0.72-0.15-0.95L15.48,22.64z M8.96,24.65c0.13,0.14,0.25,0.28,0.38,0.42C9.21,24.93,9.08,24.79,8.96,24.65
		 M10.69,26.43c0.15,0.14,0.3,0.27,0.45,0.41C10.99,26.71,10.84,26.57,10.69,26.43 M12.67,28.1c0.15,0.11,0.3,0.23,0.45,0.34
		C12.97,28.33,12.81,28.22,12.67,28.1 M14.91,29.66c0.13,0.08,0.26,0.16,0.39,0.24C15.17,29.81,15.04,29.74,14.91,29.66"/>
</g>
</svg>
