<?xml version="1.0" encoding="utf-8"?>
<!-- Generator: Adobe Illustrator 23.0.2, SVG Export Plug-In . SVG Version: 6.00 Build 0)  -->
<svg version="1.1" id="Layer_1" xmlns="http://www.w3.org/2000/svg" xmlns:xlink="http://www.w3.org/1999/xlink" x="0px" y="0px"
	 width="32px" height="32px" viewBox="0 0 32 32" style="enable-background:new 0 0 32 32;" xml:space="preserve">
<style type="text/css">
	.st0{fill:none;}
	.st1{fill:#972726;}
</style>
<g>
	<rect y="0" class="st0" width="32" height="32"/>
</g>
<g>
	<path class="st1" d="M25.64,9.63V7.27c0-1.67-1.35-3.02-3.02-3.02c-1.67,0-3.02,1.35-3.02,3.02v2.37c-0.88,0.3-1.69,0.73-2.43,1.27
		c-3.13-2.21-7.22-2.23-10.32-0.26L5,9.17C3.7,8.13,1.8,8.34,0.76,9.64c-1.04,1.3-0.83,3.2,0.47,4.24l1.85,1.48
		c-1.29,3.63-0.23,7.83,2.94,10.37c3.33,2.66,7.95,2.64,11.25,0.25c1.51,1.07,3.36,1.71,5.35,1.71c5.12,0,9.28-4.16,9.28-9.28
		C31.9,14.34,29.28,10.89,25.64,9.63 M17.26,24.72c-0.25,0.22-0.52,0.43-0.79,0.62c-2.93,1.98-6.93,1.94-9.84-0.38
		c-2.74-2.19-3.72-5.77-2.74-8.94c0.1-0.33,0.23-0.65,0.38-0.97l-0.13-0.1l-0.67-0.54l-0.35-0.28l-1.27-1.02
		c-0.87-0.7-1.02-1.98-0.32-2.85c0.7-0.87,1.98-1.02,2.85-0.32l1.32,1.05l0.31,0.25l0.67,0.54l0.13,0.1
		c0.28-0.21,0.56-0.41,0.86-0.58c2.66-1.53,6.03-1.48,8.69,0.27c0.21,0.14,0.43,0.27,0.63,0.43c0.07,0.06,0.13,0.12,0.2,0.18
		c0.45,0.38,0.85,0.81,1.2,1.26c0.1,0.13,0.2,0.26,0.3,0.4c0.31,0.45,0.54,0.94,0.75,1.44c0.07,0.18,0.15,0.35,0.21,0.53
		c0.57,1.69,0.59,3.53,0.03,5.25c-0.06,0.18-0.13,0.36-0.2,0.54c-0.2,0.49-0.43,0.98-0.73,1.44c-0.09,0.14-0.19,0.27-0.29,0.4
		c-0.06,0.07-0.1,0.15-0.16,0.22C17.98,24.05,17.63,24.4,17.26,24.72 M20.41,15.05c0.71-0.53,1.57-0.86,2.52-0.86
		c2.32,0,4.21,1.89,4.21,4.21c0,2.32-1.89,4.21-4.21,4.21c-0.93,0-1.78-0.31-2.48-0.82C21.29,19.6,21.26,17.19,20.41,15.05
		 M22.62,26.7c-1.68,0-3.25-0.51-4.56-1.37c0.36-0.32,0.69-0.67,1-1.05c0.07-0.09,0.13-0.18,0.2-0.27l0.29-0.4
		c0.28-0.42,0.51-0.86,0.72-1.31c0.76,0.52,1.68,0.83,2.66,0.83c2.6,0,4.71-2.11,4.71-4.71c0-2.6-2.11-4.71-4.71-4.71
		c-1.01,0-1.94,0.33-2.71,0.87c-0.21-0.45-0.45-0.89-0.73-1.31l-0.3-0.4c-0.35-0.46-0.75-0.89-1.2-1.29
		c0.5-0.34,1.04-0.65,1.61-0.87c0.32-0.13,0.65-0.23,0.99-0.31v-0.16V9.35V8.9V7.27c0-1.12,0.91-2.03,2.03-2.03
		c1.12,0,2.03,0.91,2.03,2.03v1.69v0.39v0.86v0.16c0.34,0.09,0.67,0.18,0.99,0.31c3.08,1.21,5.27,4.21,5.27,7.72
		C30.91,22.98,27.19,26.7,22.62,26.7"/>
	<path class="st1" d="M11.81,13.69c-2.6,0-4.71,2.11-4.71,4.71c0,2.6,2.11,4.71,4.71,4.71s4.71-2.11,4.71-4.71
		C16.53,15.8,14.41,13.69,11.81,13.69 M11.81,22.62c-2.32,0-4.21-1.89-4.21-4.21c0-2.32,1.89-4.21,4.21-4.21
		c2.32,0,4.21,1.89,4.21,4.21C16.03,20.73,14.14,22.62,11.81,22.62"/>
</g>
</svg>
