<?xml version="1.0" encoding="utf-8"?>
<!-- Generator: Adobe Illustrator 23.0.2, SVG Export Plug-In . SVG Version: 6.00 Build 0)  -->
<svg version="1.1" id="Layer_1" xmlns="http://www.w3.org/2000/svg" xmlns:xlink="http://www.w3.org/1999/xlink" x="0px" y="0px"
	 width="32px" height="32px" viewBox="0 0 32 32" style="enable-background:new 0 0 32 32;" xml:space="preserve">
<style type="text/css">
	.st0{fill:none;}
	.st1{fill:#972726;}
</style>
<rect class="st0" width="32" height="32"/>
<g>
	<path class="st1" d="M20.01,2.68V1.82c0-0.7-0.57-1.28-1.28-1.28h-2.35c-0.7,0-1.28,0.57-1.28,1.28V2.5h-0.72V2.3
		c0-0.24-0.17-0.45-0.41-0.49L6,0.4c-0.15-0.03-0.3,0.01-0.41,0.11C5.48,0.61,5.42,0.75,5.42,0.9v5.52c0,0.15,0.07,0.29,0.18,0.39
		c0.09,0.07,0.2,0.11,0.32,0.11c0.03,0,0.06,0,0.09-0.01l7.98-1.56c0.24-0.05,0.4-0.25,0.4-0.49V4.69h0.72v0.94
		c-1.85,0.31-3.27,1.91-3.27,3.85v21.11c0,0.56,0.45,1.01,1.01,1.01h9.42c0.56,0,1.01-0.45,1.01-1.01V9.48
		c0-1.94-1.42-3.54-3.27-3.85V3.22c1.53,0.17,6.02,1.04,6.02,5.65c0,0.15,0.12,0.27,0.28,0.27s0.28-0.12,0.28-0.27
		C26.58,3.82,21.6,2.86,20.01,2.68 M16.11,1.82c0-0.15,0.12-0.28,0.28-0.28h2.35c0.15,0,0.28,0.12,0.28,0.28v3.75h-2.9V1.82z
		 M13.39,4.44L6.42,5.81V1.49l6.98,1.23V4.44z M14.39,3.05h0.72v1.1h-0.72V3.05z M22.28,9.48v21.11c0,0.01,0,0.01-0.01,0.01
		l-9.43-0.01V9.48c0-1.61,1.31-2.91,2.91-2.91h3.61C20.97,6.57,22.28,7.87,22.28,9.48"/>
	<path class="st1" d="M15.35,11.57v9.42c0,0.15,0.12,0.27,0.28,0.27h3.88c0.15,0,0.28-0.12,0.28-0.27v-9.42
		c0-0.15-0.12-0.27-0.28-0.27h-3.88C15.47,11.3,15.35,11.42,15.35,11.57 M15.9,11.85h3.33v8.87H15.9V11.85z"/>
</g>
</svg>
