<?xml version="1.0" encoding="utf-8"?>
<!-- Generator: Adobe Illustrator 23.0.2, SVG Export Plug-In . SVG Version: 6.00 Build 0)  -->
<svg version="1.1" id="Layer_1" xmlns="http://www.w3.org/2000/svg" xmlns:xlink="http://www.w3.org/1999/xlink" x="0px" y="0px"
	 width="32px" height="32px" viewBox="0 0 32 32" style="enable-background:new 0 0 32 32;" xml:space="preserve">
<style type="text/css">
	.st0{fill:none;}
	.st1{fill:#952524;}
	.st2{fill:#972726;}
</style>
<rect class="st0" width="32" height="32"/>
<g>
	<path class="st1" d="M16,15.51c3.33,0,6.03-2.71,6.03-6.03c0-3.32-2.7-6.03-6.03-6.03c-3.32,0-6.03,2.71-6.03,6.03
		C9.97,12.81,12.67,15.51,16,15.51 M16,4.44c2.78,0,5.05,2.26,5.05,5.04c0,2.78-2.26,5.05-5.05,5.05c-2.78,0-5.04-2.26-5.04-5.05
		C10.96,6.7,13.22,4.44,16,4.44"/>
	<g>
		<path class="st2" d="M23.61,28.55H8.39c-0.14,0-0.26-0.12-0.26-0.26V17.18c0-0.14,0.12-0.26,0.26-0.26h15.23
			c0.14,0,0.26,0.12,0.26,0.26v11.11C23.87,28.43,23.76,28.55,23.61,28.55z M8.65,28.03h14.71V17.44H8.65V28.03z"/>
	</g>
	<g>
		<path class="st1" d="M8.28,26.51H6.46c-0.44,0-0.8-0.36-0.8-0.8c0-1.82,0.98-3.43,2.62-4.63V19.8c-2.25,1.41-3.61,3.48-3.61,5.9
			c0,0.99,0.8,1.79,1.79,1.79h1.82V26.51z"/>
		<path class="st1" d="M23.69,19.78v1.33c1.64,1.22,2.65,2.83,2.65,4.59c0,0.44-0.36,0.8-0.8,0.8h-1.85v0.98h1.85
			c0.98,0,1.79-0.8,1.79-1.79C27.33,23.27,25.96,21.19,23.69,19.78z"/>
	</g>
</g>
</svg>
