<?xml version="1.0" encoding="utf-8"?>
<!-- Generator: Adobe Illustrator 23.0.2, SVG Export Plug-In . SVG Version: 6.00 Build 0)  -->
<svg version="1.1" id="Layer_1" xmlns="http://www.w3.org/2000/svg" xmlns:xlink="http://www.w3.org/1999/xlink" x="0px" y="0px"
	 width="32px" height="32px" viewBox="0 0 32 32" style="enable-background:new 0 0 32 32;" xml:space="preserve">
<style type="text/css">
	.st0{fill:none;}
	.st1{fill:#972726;}
</style>
<g>
	<rect y="0" class="st0" width="32" height="32"/>
</g>
<g>
	<path class="st1" d="M16.04,9.75c-2.29,0-4.16-1.86-4.16-4.16c0-2.29,1.87-4.16,4.16-4.16c2.29,0,4.16,1.87,4.16,4.16
		C20.2,7.88,18.34,9.75,16.04,9.75 M16.04,2.43c-1.74,0-3.16,1.42-3.16,3.16c0,1.74,1.42,3.16,3.16,3.16c1.74,0,3.16-1.42,3.16-3.16
		C19.2,3.85,17.79,2.43,16.04,2.43"/>
	<path class="st1" d="M9.81,30.57c-0.67,0-1.13-0.23-1.42-0.45c-0.5-0.38-0.82-1.01-0.86-1.68c-0.01-0.15-0.04-0.31-0.23-0.32
		l-2.65-0.5c0.04,0.01-1.44,0.01-2.29-0.83c-0.39-0.38-0.58-0.87-0.58-1.45c0-0.91,0.27-1.59,0.8-2.03c0.79-0.66,1.85-0.48,1.9-0.47
		l6.86,0.88v-5.96l-3.22,2.47c-0.06,0.05-0.14,0.08-0.22,0.1l-5.19,0.93H2.69c-2.1,0-2.4-1.24-2.4-1.99c0-0.98,0.94-1.47,1.5-1.6
		l4.58-0.95l5.52-5.52c1.14-1.14,2.45-0.99,2.5-0.98l3.29,0c-0.01,0,1.29-0.16,2.44,0.99l5.52,5.52l4.57,0.95
		c0.57,0.13,1.51,0.62,1.51,1.6c0,0.75-0.3,2-2.33,2l-5.28-0.94c-0.08-0.01-0.15-0.05-0.22-0.1l-3.22-2.47v6.11l6.87-1.03
		c0.06-0.01,1.17-0.14,1.96,0.57c0.51,0.46,0.76,1.15,0.73,2.05c-0.07,2.03-2.81,2.29-2.92,2.3l-2.52,0.36
		c-0.26,0.01-0.29,0.18-0.3,0.33c-0.04,0.67-0.36,1.3-0.86,1.68c-0.37,0.29-1.05,0.59-2.1,0.38l-4.2-0.66
		c-0.06-0.01-0.56-0.15-1.31-0.15s-1.25,0.13-1.26,0.13l-4.28,0.67C10.23,30.55,10.01,30.57,9.81,30.57 M7.35,27.12
		c0.47,0.01,1.13,0.35,1.18,1.26C8.54,28.52,8.6,29.01,9,29.33c0.31,0.24,0.74,0.3,1.29,0.19l4.24-0.67v0
		c-0.01,0,0.58-0.16,1.47-0.16c0.9,0,1.5,0.16,1.52,0.17l4.17,0.65c0.57,0.11,1,0.05,1.31-0.19c0.4-0.31,0.46-0.8,0.47-0.95
		c0.06-0.96,0.8-1.28,1.25-1.26l2.46-0.36c0.05-0.01,2-0.19,2.04-1.34c0.02-0.58-0.11-1.01-0.39-1.27c-0.44-0.4-1.14-0.33-1.15-0.33
		l-7.43,1.12c-0.15,0.02-0.29-0.02-0.4-0.12c-0.11-0.1-0.17-0.23-0.17-0.38v-7.71c0-0.19,0.11-0.36,0.28-0.45
		c0.17-0.09,0.37-0.06,0.53,0.05l3.92,3.01l5.08,0.91c1.14-0.01,1.24-0.52,1.24-1c0-0.43-0.72-0.63-0.73-0.63l-4.7-0.98
		c-0.1-0.02-0.18-0.07-0.25-0.14l-5.63-5.63c-0.79-0.79-1.66-0.7-1.67-0.7l-3.42,0c-0.09-0.01-0.94-0.09-1.73,0.69l-5.63,5.63
		c-0.07,0.07-0.16,0.12-0.25,0.14L2,18.64c0,0-0.72,0.19-0.72,0.62c0,0.48,0.1,1,1.33,1l4.98-0.9l3.93-3.01
		c0.15-0.12,0.35-0.14,0.52-0.05c0.17,0.08,0.28,0.26,0.28,0.45v7.55c0,0.14-0.06,0.28-0.17,0.38c-0.11,0.09-0.25,0.14-0.39,0.12
		l-7.44-0.96c-0.03-0.01-0.68-0.11-1.11,0.25c-0.29,0.24-0.43,0.67-0.43,1.26c0,0.3,0.09,0.54,0.29,0.74
		c0.46,0.45,1.39,0.55,1.68,0.55L7.35,27.12z"/>
</g>
</svg>
