<?xml version="1.0" encoding="utf-8"?>
<!-- Generator: Adobe Illustrator 23.0.2, SVG Export Plug-In . SVG Version: 6.00 Build 0)  -->
<svg version="1.1" id="Layer_1" xmlns="http://www.w3.org/2000/svg" xmlns:xlink="http://www.w3.org/1999/xlink" x="0px" y="0px"
	 width="32px" height="32px" viewBox="0 0 32 32" style="enable-background:new 0 0 32 32;" xml:space="preserve">
<style type="text/css">
	.st0{fill:none;}
	.st1{fill:#972726;}
</style>
<g>
	<rect y="0" class="st0" width="32" height="32"/>
</g>
<g>
	<polygon class="st1" points="14.91,23.65 17.09,23.65 27.83,23.65 30.72,21.16 30.07,20.41 27.46,22.65 17.09,22.65 14.91,22.65 
		4.54,22.65 1.93,20.41 1.28,21.16 4.16,23.65 	"/>
	<path class="st1" d="M30.86,26.21c-0.04,0-0.07-0.01-0.11-0.01v-0.02c-0.31-0.04-0.5-0.21-0.75-0.46
		c-0.32-0.32-0.76-0.75-1.58-0.75c-0.41,0-0.72,0.11-0.98,0.26c-0.26,0.15-0.46,0.34-0.63,0.51c-0.14,0.14-0.26,0.25-0.4,0.34
		c-0.13,0.07-0.28,0.12-0.48,0.12c-0.42,0-0.63-0.2-0.91-0.48c-0.32-0.31-0.76-0.75-1.58-0.75c-0.41,0-0.72,0.11-0.98,0.26
		c-0.27,0.15-0.46,0.34-0.63,0.51c-0.15,0.14-0.26,0.26-0.4,0.34c-0.13,0.07-0.28,0.12-0.47,0.12c-0.43,0-0.62-0.19-0.91-0.47
		c-0.32-0.32-0.76-0.75-1.58-0.75c-0.41,0-0.73,0.11-0.98,0.26c-0.26,0.15-0.46,0.34-0.63,0.51c-0.14,0.14-0.26,0.25-0.4,0.34
		c-0.13,0.07-0.28,0.12-0.48,0.12c-0.42,0-0.63-0.2-0.9-0.47c-0.32-0.32-0.76-0.75-1.58-0.75c-0.41,0-0.72,0.11-0.98,0.26
		c-0.26,0.15-0.46,0.34-0.63,0.51c-0.14,0.14-0.27,0.26-0.4,0.34c-0.13,0.07-0.28,0.12-0.48,0.12c-0.43,0-0.62-0.19-0.91-0.47
		c-0.32-0.32-0.76-0.75-1.58-0.75c-0.41,0-0.73,0.11-0.98,0.26c-0.26,0.15-0.46,0.34-0.63,0.5c-0.2,0.2-0.36,0.35-0.6,0.43
		c-0.08,0.02-0.17,0.04-0.28,0.04c-0.42,0-0.63-0.2-0.9-0.47c-0.32-0.32-0.76-0.75-1.58-0.75c-0.41,0-0.73,0.11-0.98,0.26
		c-0.26,0.15-0.46,0.34-0.63,0.51c-0.24,0.23-0.42,0.39-0.71,0.44c-0.05,0.01-0.09,0.02-0.15,0.02v1c0.04,0,0.07-0.01,0.11-0.01
		v0.01c0.05,0,0.09-0.02,0.14-0.03c0.66-0.09,1.06-0.44,1.34-0.73c0.15-0.15,0.27-0.27,0.4-0.34c0.13-0.07,0.26-0.11,0.44-0.11
		c0.4,0,0.59,0.18,0.87,0.46c0.33,0.32,0.77,0.76,1.61,0.76c0.42,0,0.74-0.11,1-0.26c0.27-0.15,0.47-0.35,0.64-0.51
		c0.15-0.15,0.27-0.26,0.4-0.34c0.13-0.07,0.26-0.11,0.45-0.11c0.39,0,0.57,0.16,0.87,0.46c0.33,0.32,0.77,0.76,1.61,0.76
		c0.42,0,0.74-0.11,1-0.26c0.27-0.15,0.47-0.35,0.64-0.51c0.15-0.15,0.27-0.27,0.4-0.34c0.13-0.07,0.26-0.11,0.44-0.11
		c0.39,0,0.57,0.16,0.88,0.46c0.33,0.32,0.77,0.76,1.61,0.76c0.42,0,0.74-0.11,1-0.26c0.27-0.15,0.47-0.35,0.64-0.51
		c0.15-0.15,0.27-0.26,0.4-0.34c0.06-0.03,0.11-0.06,0.18-0.08c0,0,0,0,0,0c0.08-0.02,0.17-0.03,0.27-0.03
		c0.39,0,0.57,0.16,0.87,0.46c0.33,0.32,0.77,0.76,1.61,0.76c0.42,0,0.74-0.11,1-0.26c0.27-0.15,0.47-0.35,0.64-0.51
		c0.15-0.15,0.27-0.27,0.4-0.34c0.13-0.07,0.26-0.11,0.44-0.11c0.39,0,0.57,0.16,0.88,0.46c0.33,0.32,0.77,0.76,1.61,0.76
		c0.42,0,0.74-0.11,1-0.26c0.27-0.15,0.47-0.35,0.64-0.51c0.17-0.17,0.31-0.3,0.48-0.38c0.1-0.04,0.22-0.07,0.36-0.07
		c0.39,0,0.57,0.16,0.87,0.46c0.32,0.32,0.77,0.75,1.59,0.76V26.21z"/>
	<path class="st1" d="M4.54,6.9c0.01,0.17,0.02,0.33,0.03,0.5c0.23,3.34,0.98,6.34,2.19,6.71v6.25H5.46c-0.14,0-0.25,0.11-0.25,0.25
		c0,0.14,0.11,0.25,0.25,0.25h3.12c0.14,0,0.25-0.11,0.25-0.25c0-0.14-0.11-0.25-0.25-0.25H7.26v-6.25
		c1.21-0.37,1.96-3.36,2.19-6.71c0.01-0.17,0.02-0.33,0.03-0.5c0.03-0.53,0.04-1.07,0.05-1.61c0-0.04,0-0.08,0-0.11
		c0-0.13,0-0.26,0-0.39h-0.5H5H4.5c0,0.13,0,0.26,0,0.39c0,0.04,0,0.07,0,0.11C4.5,5.83,4.51,6.37,4.54,6.9 M7.01,13.65
		c-0.81,0-1.69-2.48-1.94-6.25h3.89C8.7,11.17,7.82,13.65,7.01,13.65 M9.03,5.29c0,0.56-0.02,1.09-0.04,1.61H5.04
		C5.01,6.39,5,5.85,5,5.29H9.03z"/>
	<path class="st1" d="M15.9,12.33c-0.1,0-0.19,0.17-0.19,0.37s0.08,0.37,0.19,0.37c0.1,0,0.19-0.17,0.19-0.37S16,12.33,15.9,12.33"
		/>
	<path class="st1" d="M14.73,10.89c-0.1,0-0.19,0.17-0.19,0.37c0,0.2,0.08,0.37,0.19,0.37c0.1,0,0.19-0.17,0.19-0.37
		C14.92,11.06,14.83,10.89,14.73,10.89"/>
	<path class="st1" d="M13.68,11.3c-0.1,0-0.19,0.17-0.19,0.37s0.08,0.37,0.19,0.37c0.1,0,0.19-0.16,0.19-0.37S13.78,11.3,13.68,11.3
		"/>
	<path class="st1" d="M11.58,11.96c-0.1,0-0.19,0.16-0.19,0.37s0.08,0.37,0.19,0.37s0.19-0.17,0.19-0.37S11.68,11.96,11.58,11.96"/>
	<path class="st1" d="M17.55,11.18c-0.1,0-0.19,0.17-0.19,0.37c0,0.2,0.08,0.37,0.19,0.37c0.1,0,0.19-0.17,0.19-0.37
		C17.73,11.34,17.65,11.18,17.55,11.18"/>
	<path class="st1" d="M25.86,14.3v-2.22h-2.57c0.06-0.22,0.27-0.38,0.3-0.4c0.07-0.07,0.7-0.67,0.62-1.23
		c-0.02-0.16-0.12-0.39-0.43-0.54c-0.58-0.29-0.51-0.7-0.5-0.75c0.03-0.13-0.05-0.27-0.18-0.3c-0.14-0.03-0.27,0.05-0.3,0.18
		c-0.07,0.29,0,0.93,0.77,1.31c0.14,0.07,0.15,0.14,0.15,0.17c0.03,0.21-0.25,0.59-0.43,0.76c-0.02,0.01-0.45,0.31-0.51,0.79h-1.52
		c0.06-0.23,0.27-0.44,0.37-0.52c0.03-0.03,0.34-0.3,0.35-0.75c0.01-0.35-0.17-0.68-0.52-1c-0.21-0.19-0.31-0.37-0.3-0.54
		c0.02-0.26,0.29-0.44,0.33-0.47c0.07-0.07,0.7-0.67,0.62-1.23c-0.02-0.16-0.12-0.39-0.43-0.55c-0.58-0.29-0.51-0.7-0.5-0.75
		c0.03-0.13-0.05-0.27-0.18-0.3c-0.13-0.03-0.27,0.05-0.3,0.18c-0.07,0.29,0,0.93,0.77,1.31c0.14,0.07,0.15,0.14,0.16,0.17
		c0.03,0.21-0.25,0.59-0.43,0.76c-0.02,0.01-0.48,0.32-0.52,0.82c-0.03,0.33,0.13,0.65,0.46,0.95c0.24,0.22,0.36,0.43,0.36,0.62
		c0,0.22-0.16,0.37-0.16,0.37c-0.06,0.04-0.5,0.4-0.56,0.91h-0.23c-0.49-1.24-1.69-2.12-3.1-2.12h-4.31c-1.84,0-3.33,1.49-3.33,3.33
		v0.33c-0.35,0.11-0.61,0.42-0.61,0.81c0,0.33,0.19,0.6,0.46,0.75c-0.08,0.07-0.14,0.15-0.2,0.24c0,0-0.01,0-0.01,0.01
		c0,0,0,0.01,0,0.01c-0.15,0.23-0.24,0.49-0.24,0.78c0,0.41,0.18,0.78,0.46,1.04C9.37,17.4,9.18,17.67,9.18,18
		c0,0.38,0.26,0.7,0.61,0.81v0.06c0,1.2,0.97,2.17,2.17,2.17h6.81c0.16,0.08,0.33,0.14,0.52,0.14h5.41c0.64,0,1.17-0.52,1.17-1.17
		v-1.43c0.94-0.2,1.65-1.08,1.65-2.14C27.51,15.38,26.8,14.49,25.86,14.3 M10.28,13.29c0-1.44,1.09-2.63,2.49-2.8c0,0,0,0.01,0,0.01
		c0,0.2,0.08,0.37,0.19,0.37c0.1,0,0.19-0.17,0.19-0.37c0-0.02,0-0.03,0-0.04h3.32c0,0.03-0.01,0.06-0.01,0.09
		c0,0.2,0.08,0.37,0.19,0.37c0.1,0,0.19-0.16,0.19-0.37c0-0.03,0-0.06-0.01-0.09h0.6c1.13,0,2.1,0.67,2.55,1.62h-0.83
		c-0.03-0.11-0.09-0.19-0.16-0.19c-0.07,0-0.13,0.08-0.16,0.19h-0.7v1.4h-7.83V13.29z M10.03,14.07h8.08v0.71h-7.51h-0.57
		c-0.2,0-0.36-0.16-0.36-0.36S9.84,14.07,10.03,14.07 M9.73,15.95c0.05-0.2,0.26-0.43,0.26-0.43c0.17-0.15,0.38-0.24,0.61-0.24h7.51
		v0.23v0.56v1.07h-7.51c-0.51,0-0.93-0.42-0.93-0.93C9.68,16.12,9.7,16.04,9.73,15.95 M9.68,18c0-0.2,0.16-0.36,0.36-0.36h0.57h7.51
		V18v0.36h-8.08C9.84,18.35,9.68,18.19,9.68,18 M11.95,20.53c-0.92,0-1.67-0.75-1.67-1.67v-0.01h7.83V20c0,0.19,0.06,0.37,0.14,0.53
		H11.95z M18.61,15.75C18.61,15.75,18.61,15.75,18.61,15.75c0,0.01,0,0.01,0,0.01V15.75z M25.36,14.27v0.5v3.33v0.5V20
		c0,0.37-0.3,0.67-0.67,0.67h-5.41c0,0-0.01,0-0.01,0c-0.21-0.01-0.38-0.11-0.5-0.26c-0.19-0.19-0.15-1.56-0.15-1.56v-0.5v-0.71
		v-0.5v-1.86v-0.5v-0.71v-0.08v-0.42v-0.08v-0.27v-0.64h0.28h0.17h1.09h0.52h2.19h0.62h1.88V14.27z M25.86,18.05v-3.23
		c0.66,0.19,1.15,0.84,1.15,1.61C27.01,17.21,26.52,17.86,25.86,18.05"/>
</g>
</svg>
