<?xml version="1.0" encoding="utf-8"?>
<!-- Generator: Adobe Illustrator 23.0.2, SVG Export Plug-In . SVG Version: 6.00 Build 0)  -->
<svg version="1.1" id="Layer_1" xmlns="http://www.w3.org/2000/svg" xmlns:xlink="http://www.w3.org/1999/xlink" x="0px" y="0px"
	 width="32px" height="32px" viewBox="0 0 32 32" style="enable-background:new 0 0 32 32;" xml:space="preserve">
<style type="text/css">
	.st0{fill:none;}
	.st1{fill:#972726;}
</style>
<g>
	<rect y="0" class="st0" width="32" height="32"/>
</g>
<g>
	<path class="st1" d="M24.41,15.93c-0.09-0.13-0.25-0.21-0.41-0.21h-0.69c0.73-0.75,1.11-1.59,1.15-2.49
		c0.07-1.87-1.41-3.31-1.48-3.37c-0.02-0.02-1.71-1.43-3.86-1.2C19.07,8,18.85,7.11,18.13,6.31c-1.06-1.18-2.84-1.73-5.3-1.65
		c-0.21,0.01-0.39,0.14-0.46,0.34c-0.07,0.2,0,0.42,0.17,0.55c0.13,0.1,0.4,0.4,0.39,0.64c-0.01,0.17-0.16,0.35-0.44,0.53
		C12.28,6.86,12.03,7,11.75,7.15c-1.46,0.83-3.28,1.86-3.25,4.39c0.01,0.36,0.07,0.7,0.19,0.99c-0.26,0.29-0.55,0.74-0.64,1.37
		c-0.08,0.58,0.05,1.19,0.38,1.81H8c-0.16,0-0.31,0.08-0.4,0.21c-0.09,0.13-0.12,0.3-0.06,0.46c0.09,0.25,0.83,2.48,0.92,4.85
		l0.57,5.66c0.03,0.25,0.24,0.45,0.49,0.45h12.96c0.26,0,0.47-0.19,0.5-0.45l0.58-5.69c0.09-2.5,0.91-4.81,0.92-4.83
		C24.52,16.23,24.5,16.06,24.41,15.93 M23.32,16.71c-0.28,0.94-0.7,2.62-0.76,4.44l-0.53,5.2H9.97l-0.52-5.18
		c-0.07-1.82-0.49-3.52-0.77-4.46H23.32z M9.35,13.41c0.65,0.52,1.55,0.63,2.19,0.63c0.62,0,1.12-0.1,1.21-0.12
		c0.27-0.06,0.44-0.32,0.38-0.59c-0.06-0.27-0.32-0.43-0.59-0.38c-0.02,0-1.73,0.36-2.57-0.31c-0.31-0.24-0.46-0.6-0.46-1.1
		c-0.03-1.95,1.38-2.74,2.74-3.51c0.26-0.15,0.54-0.3,0.78-0.46c0.58-0.37,0.88-0.81,0.9-1.32c0.01-0.19-0.02-0.38-0.1-0.57
		c1.64,0.08,2.83,0.52,3.55,1.31c0.63,0.69,0.73,1.51,0.75,1.91c-0.44,0.15-0.85,0.37-1.23,0.65c-2.43,1.78-4.39,0.43-4.41,0.42
		c-0.23-0.16-0.54-0.1-0.69,0.13c-0.08,0.11-0.11,0.24-0.08,0.37c0.02,0.13,0.1,0.25,0.21,0.32c0.11,0.07,2.61,1.73,5.56-0.43
		c2.36-1.73,4.73,0.19,4.83,0.27c0.01,0.01,1.2,1.17,1.15,2.59c-0.03,0.8-0.45,1.53-1.23,2.18l-0.57,0.35H9.62
		c-0.45-0.61-0.64-1.17-0.58-1.67c0.03-0.24,0.12-0.47,0.26-0.68C9.32,13.38,9.33,13.4,9.35,13.41"/>
</g>
</svg>
