<?xml version="1.0" encoding="utf-8"?>
<!-- Generator: Adobe Illustrator 23.0.2, SVG Export Plug-In . SVG Version: 6.00 Build 0)  -->
<svg version="1.1" id="Layer_1" xmlns="http://www.w3.org/2000/svg" xmlns:xlink="http://www.w3.org/1999/xlink" x="0px" y="0px"
	 width="32px" height="32px" viewBox="0 0 32 32" style="enable-background:new 0 0 32 32;" xml:space="preserve">
<style type="text/css">
	.st0{fill:none;}
	.st1{fill:#972726;}
</style>
<g>
	<rect y="0" class="st0" width="32" height="32"/>
</g>
<g>
	<path class="st1" d="M16.18,1.77"/>
	<path class="st1" d="M23.55,1.77"/>
	<path class="st1" d="M29.86,25.55h-0.74v-8.57c0-0.87-0.71-1.57-1.57-1.57h-2.36h-0.25V8.89c0-0.14-0.11-0.25-0.25-0.25h-2.23
		c-0.14,0-0.25,0.11-0.25,0.25v6.52h-0.25h-4.14h-0.25V8.89c0-0.14-0.11-0.25-0.25-0.25H15.1c-0.14,0-0.25,0.11-0.25,0.25v6.52H14.6
		h-4.14h-0.25V8.89c0-0.14-0.11-0.25-0.25-0.25H7.74c-0.14,0-0.25,0.11-0.25,0.25v6.52H7.24H4.45c-0.87,0-1.57,0.71-1.57,1.57v8.57
		H2.13c-0.57,0-1.04,0.47-1.04,1.04c0,2.35,1.91,4.26,4.26,4.26h9.89h1.51h9.89c2.35,0,4.26-1.91,4.26-4.26
		C30.91,26.01,30.44,25.55,29.86,25.55 M22.71,9.14h1.73v6.27h-0.25v0h-1.23v0h-0.25V9.14z M15.35,9.14h1.73v6.27h-0.25v0H15.6v0
		h-0.25V9.14z M7.99,9.14h1.73v6.27H9.46v0H8.24v0H7.99V9.14z M3.88,19.74v-2.76c0-0.31,0.26-0.57,0.57-0.57h3.29h2.23h5.14h2.23
		h5.14h2.23h2.86c0.31,0,0.57,0.26,0.57,0.57v2.77v0.74c-0.69,0.98-1.43,1.48-2.2,1.49c-1.64,0-2.93-2.12-3.08-2.36
		c-0.05-0.09-0.13-0.14-0.21-0.14c-0.09,0-0.17,0.04-0.21,0.12c-1,1.6-2.07,2.43-3.1,2.35c-1.77-0.04-3.06-2.32-3.07-2.34
		c-0.04-0.08-0.13-0.13-0.21-0.13c-0.08,0.03-0.18,0.06-0.22,0.13c-0.97,1.63-2.01,2.46-3.09,2.46c-1.84-0.01-3.23-2.36-3.29-2.46
		c-0.05-0.09-0.13-0.13-0.23-0.13c-0.08,0-0.16,0.06-0.21,0.14c-0.77,1.49-1.64,2.26-2.57,2.29c-1.04,0.06-1.97-0.8-2.56-1.53V19.74
		z M3.88,21.25v-0.1c0.84,0.87,1.68,1.31,2.49,1.31l0.07,0c0.95-0.03,1.83-0.66,2.6-1.89l0.19-0.3l0.21,0.28
		c0.58,0.76,1.78,2.05,3.26,2.06c1.12,0,2.17-0.7,3.13-2.08l0.2-0.28l0.2,0.28c0.54,0.72,1.65,1.93,3.07,1.97c0.01,0,0.03,0,0.04,0
		c1.1,0,2.11-0.65,3.08-1.98l0.2-0.27l0.2,0.27c0.56,0.75,1.69,2.01,3.08,2.01c0.79-0.01,1.53-0.41,2.22-1.2v0.07v4.14H16.21h-0.43
		H3.88V21.25z M26.65,29.85h-9.39h-1h-0.5h-1H5.35c-1.8,0-3.26-1.46-3.22-3.3l12.61,0.04l2.5-0.01h9.21l3.44,0.01
		C29.91,28.38,28.44,29.85,26.65,29.85"/>
	<path class="st1" d="M8.53,6.95C8.7,7.11,9,7.12,9.17,6.95L9.41,6.7c1.43-1.43,1.43-3.76,0-5.19L9.19,1.29
		C9.1,1.2,8.98,1.16,8.85,1.16S8.6,1.2,8.51,1.29L8.29,1.51c-1.43,1.43-1.43,3.76,0,5.19L8.53,6.95z M8.64,1.86l0.21-0.21l0.18,0.18
		c1.26,1.27,1.26,3.28,0.03,4.52L8.88,6.52L8.68,6.38C7.41,5.11,7.41,3.1,8.64,1.86"/>
	<path class="st1" d="M15.9,6.95c0.17,0.17,0.46,0.17,0.63,0l0.24-0.24c1.43-1.43,1.43-3.76,0-5.2l-0.22-0.22
		c-0.08-0.08-0.21-0.13-0.34-0.13c-0.13,0-0.25,0.05-0.34,0.13l-0.22,0.22c-0.69,0.69-1.08,1.62-1.08,2.6c0,0.98,0.38,1.9,1.08,2.6
		L15.9,6.95z M16.01,1.86l0.21-0.2l0.17,0.17c1.27,1.27,1.27,3.28,0.03,4.52l-0.18,0.17l-0.21-0.14c-0.63-0.63-0.96-1.43-0.96-2.28
		C15.08,3.26,15.41,2.46,16.01,1.86"/>
	<path class="st1" d="M23.26,6.95c0.17,0.17,0.46,0.17,0.63,0l0.24-0.24c1.43-1.43,1.43-3.76,0-5.19l-0.22-0.22
		c-0.08-0.08-0.21-0.13-0.34-0.13c-0.13,0-0.26,0.05-0.34,0.13l-0.22,0.22c-1.43,1.43-1.43,3.76,0,5.19L23.26,6.95z M23.37,1.86
		l0.21-0.2l0.17,0.17c1.27,1.27,1.27,3.28,0.03,4.52l-0.18,0.17L23.4,6.38C22.13,5.11,22.13,3.1,23.37,1.86"/>
</g>
</svg>
