<?xml version="1.0" encoding="utf-8"?>
<!-- Generator: Adobe Illustrator 23.0.2, SVG Export Plug-In . SVG Version: 6.00 Build 0)  -->
<svg version="1.1" id="Layer_1" xmlns="http://www.w3.org/2000/svg" xmlns:xlink="http://www.w3.org/1999/xlink" x="0px" y="0px"
	 width="32px" height="32px" viewBox="0 0 32 32" style="enable-background:new 0 0 32 32;" xml:space="preserve">
<style type="text/css">
	.st0{fill:none;}
	.st1{fill:#972726;}
</style>
<g>
	<rect y="0" class="st0" width="32" height="32"/>
</g>
<g>
	<path class="st1" d="M7.86,21c1,0,1.95-0.39,2.66-1.1c0.71-0.71,1.1-1.65,1.1-2.66c0-0.92-0.34-1.78-0.94-2.46l0.84-0.84
		c0.71,0.62,1.58,0.94,2.46,0.94c0.96,0,1.92-0.37,2.65-1.1c1.4-1.4,1.45-3.64,0.16-5.12l0.83-0.84c0.71,0.61,1.58,0.94,2.46,0.94
		c0.96,0,1.92-0.37,2.66-1.1c1.46-1.46,1.46-3.85,0-5.31c-1.46-1.46-3.85-1.46-5.31,0c-1.4,1.4-1.45,3.64-0.16,5.12l-0.84,0.84
		c-1.47-1.29-3.71-1.24-5.12,0.16c-1.4,1.4-1.45,3.64-0.16,5.12l-0.84,0.84c-1.44-1.24-3.76-1.2-5.11,0.16
		c-0.71,0.71-1.1,1.65-1.1,2.66c0,0.92,0.34,1.78,0.94,2.46l-4.41,4.42l0.35,0.35l4.41-4.41C6.08,20.65,6.94,21,7.86,21 M18.13,3.07
		c0.54-0.54,1.24-0.8,1.95-0.8c0.71,0,1.41,0.27,1.95,0.8c1.07,1.07,1.07,2.82,0,3.9c-1.08,1.07-2.82,1.07-3.9,0
		C17.06,5.89,17.06,4.14,18.13,3.07 M12.02,9.18c0.54-0.54,1.24-0.81,1.95-0.81c0.71,0,1.41,0.27,1.95,0.81
		c1.07,1.07,1.07,2.82,0,3.9c-1.07,1.07-2.82,1.07-3.9,0C10.95,12,10.95,10.25,12.02,9.18 M5.91,15.29
		c0.52-0.52,1.21-0.81,1.95-0.81c0.74,0,1.43,0.29,1.95,0.81c0.52,0.52,0.81,1.21,0.81,1.95c0,0.74-0.29,1.43-0.81,1.95
		c-1.04,1.04-2.85,1.04-3.9,0c-0.52-0.52-0.81-1.21-0.81-1.95C5.1,16.5,5.39,15.81,5.91,15.29"/>
	<path class="st1" d="M30.27,8.63c-1.47-1.46-3.85-1.46-5.31,0L12.74,20.85c-1.4,1.4-1.45,3.64-0.16,5.12l-4.41,4.41l0.35,0.35
		l4.42-4.42c0.7,0.62,1.58,0.94,2.46,0.94c0.96,0,1.92-0.37,2.65-1.1l12.22-12.22C31.74,12.48,31.74,10.09,30.27,8.63 M29.57,13.23
		L17.34,25.46c-1.07,1.07-2.82,1.07-3.9,0c-1.07-1.08-1.07-2.82,0-3.9L25.67,9.34c0.54-0.54,1.24-0.81,1.95-0.81
		c0.7,0,1.41,0.27,1.95,0.81C30.64,10.41,30.64,12.16,29.57,13.23"/>
	<g>
		<polygon class="st1" points="26.77,14.12 23.9,14.12 23.9,16.99 21,16.99 21,19.88 18.12,19.88 18.12,22.73 15.28,22.73 
			15.28,25.33 14.78,25.33 14.78,22.23 17.62,22.23 17.62,19.39 20.5,19.39 20.5,16.49 23.4,16.49 23.4,13.62 26.27,13.62 
			26.27,10.71 29.48,10.71 29.48,11.21 26.77,11.21 		"/>
	</g>
</g>
</svg>
