<?xml version="1.0" encoding="utf-8"?>
<!-- Generator: Adobe Illustrator 23.0.2, SVG Export Plug-In . SVG Version: 6.00 Build 0)  -->
<svg version="1.1" id="Layer_1" xmlns="http://www.w3.org/2000/svg" xmlns:xlink="http://www.w3.org/1999/xlink" x="0px" y="0px"
	 width="32px" height="32px" viewBox="0 0 32 32" style="enable-background:new 0 0 32 32;" xml:space="preserve">
<style type="text/css">
	.st0{fill:none;}
	.st1{fill:#952524;}
</style>
<rect class="st0" width="32" height="32"/>
<g>
	<g>
		<path class="st1" d="M15.99,31.34c-7.86,0-14.58-6.04-15.27-14.01c-0.36-4.08,0.9-8.06,3.54-11.2C6.89,3,10.59,1.07,14.67,0.72
			c8.41-0.74,15.88,5.53,16.61,13.95l0,0c0.35,4.08-0.9,8.06-3.54,11.2c-2.64,3.14-6.33,5.06-10.42,5.42
			C16.88,31.32,16.43,31.34,15.99,31.34z M16.01,1.64c-0.42,0-0.83,0.02-1.25,0.05C10.94,2.03,7.47,3.83,5,6.76
			C2.54,9.7,1.36,13.42,1.69,17.24c0.68,7.89,7.65,13.75,15.55,13.06c3.82-0.33,7.28-2.13,9.75-5.07c2.47-2.94,3.64-6.66,3.31-10.48
			C29.66,7.29,23.37,1.64,16.01,1.64z"/>
	</g>
	<g>
		<g>
			<path class="st1" d="M16,18.85L16,18.85c-0.45,0-0.81-0.36-0.81-0.81v-5.59c0-0.45,0.36-0.81,0.81-0.81h0
				c0.45,0,0.81,0.36,0.81,0.81v5.59C16.81,18.48,16.45,18.85,16,18.85z"/>
		</g>
		<g>
			<path class="st1" d="M16,9.36L16,9.36c-0.14,0-0.26,0.11-0.26,0.26v2.17h0.51V9.61C16.26,9.47,16.14,9.36,16,9.36z"/>
		</g>
		<g>
			<g>
				<g>
					<path class="st1" d="M16.37,12.48c-0.08,0-0.17-0.04-0.22-0.12c-0.08-0.12-0.04-0.28,0.08-0.36l1.73-1.11V9.03l2.2-3.74
						c0.07-0.12,0.23-0.17,0.36-0.09c0.12,0.07,0.17,0.23,0.09,0.36l-2.13,3.62v2l-1.97,1.27C16.47,12.47,16.42,12.48,16.37,12.48z"
						/>
				</g>
				<g>
					<path class="st1" d="M20.12,14.4c-0.29,0-0.59-0.02-0.89-0.05c-2.54-0.3-3.21-0.61-3.24-0.62c-0.13-0.06-0.19-0.22-0.12-0.35
						c0.02-0.03,0.04-0.06,0.07-0.09c-0.04-0.03-0.07-0.08-0.08-0.13c-0.04-0.14,0.04-0.28,0.18-0.32l6.38-1.72
						c0.25-0.07,2.48-0.61,3.37,0.28c0.25,0.25,0.26,0.5,0.22,0.67c-0.18,0.76-1.75,1.32-2.06,1.43
						C23.9,13.51,22.27,14.4,20.12,14.4z M16.33,13.29c0.28,0.09,1.1,0.31,2.96,0.53c2.41,0.28,4.43-0.8,4.45-0.82
						c0.69-0.23,1.68-0.72,1.76-1.07c0.01-0.03,0.02-0.08-0.08-0.18c-0.58-0.58-2.27-0.3-2.87-0.14L16.33,13.29z"/>
				</g>
				<g>
					<path class="st1" d="M22.89,22.6c-0.08,0-0.16-0.04-0.21-0.11l-2.9-3.97l-1.44-3.37l-2.33-0.77c-0.14-0.04-0.21-0.19-0.17-0.33
						s0.19-0.21,0.33-0.16l2.55,0.85l1.51,3.53l2.87,3.92c0.08,0.12,0.06,0.28-0.06,0.36C23,22.59,22.95,22.6,22.89,22.6z"/>
				</g>
				<g>
					<path class="st1" d="M21.19,27.15c-0.1,0-0.2-0.06-0.24-0.16l-3.25-7.74v-2.48l-1.85-1.33c-0.12-0.08-0.14-0.25-0.06-0.36
						c0.08-0.12,0.25-0.14,0.36-0.06l2.07,1.48v2.69l3.21,7.59c0.06,0.13-0.01,0.29-0.14,0.34C21.26,27.14,21.23,27.15,21.19,27.15z
						"/>
				</g>
			</g>
			<g>
				<g>
					<path class="st1" d="M15.63,12.48c-0.05,0-0.1-0.01-0.14-0.04l-1.97-1.27v-2l-2.13-3.62c-0.07-0.12-0.03-0.28,0.09-0.36
						c0.12-0.07,0.28-0.03,0.36,0.09l2.2,3.74v1.86L15.77,12c0.12,0.08,0.16,0.24,0.08,0.36C15.8,12.44,15.71,12.48,15.63,12.48z"/>
				</g>
				<g>
					<path class="st1" d="M11.88,14.4c-2.15,0-3.79-0.89-3.87-0.93C7.74,13.38,6.18,12.82,6,12.06c-0.04-0.17-0.03-0.42,0.22-0.67
						c0.89-0.89,3.12-0.34,3.37-0.28l6.38,1.72c0.14,0.04,0.22,0.18,0.18,0.32c-0.01,0.05-0.04,0.1-0.08,0.13
						c0.03,0.02,0.05,0.05,0.07,0.09c0.06,0.13,0.01,0.28-0.12,0.34c-0.03,0.01-0.71,0.33-3.24,0.62
						C12.47,14.38,12.17,14.4,11.88,14.4z M7.86,11.41c-0.52,0-1.01,0.08-1.28,0.35c-0.1,0.1-0.08,0.16-0.08,0.18
						c0.08,0.35,1.07,0.84,1.72,1.05c0.06,0.03,2.08,1.12,4.49,0.83c1.86-0.22,2.68-0.44,2.96-0.53l-6.22-1.68
						C9.13,11.53,8.48,11.41,7.86,11.41z"/>
				</g>
				<g>
					<path class="st1" d="M9.11,22.6c-0.05,0-0.11-0.02-0.15-0.05c-0.12-0.08-0.14-0.25-0.06-0.36l2.9-3.97l1.48-3.48l2.55-0.85
						c0.13-0.05,0.28,0.03,0.33,0.16s-0.03,0.28-0.17,0.33l-2.33,0.77l-1.41,3.31l-2.93,4.02C9.27,22.56,9.19,22.6,9.11,22.6z"/>
				</g>
				<g>
					<path class="st1" d="M10.81,27.15c-0.03,0-0.07-0.01-0.1-0.02c-0.13-0.06-0.19-0.21-0.14-0.34l3.21-7.59v-2.69l2.07-1.48
						c0.12-0.08,0.28-0.06,0.36,0.06c0.08,0.12,0.06,0.28-0.06,0.36l-1.85,1.33l-0.02,2.58l-3.23,7.64
						C11,27.09,10.91,27.15,10.81,27.15z"/>
				</g>
			</g>
		</g>
	</g>
	<g>
		
			<rect x="1.46" y="15.78" transform="matrix(0.6661 -0.7459 0.7459 0.6661 -6.6933 17.5971)" class="st1" width="29.69" height="0.98"/>
	</g>
</g>
</svg>
