<?xml version="1.0" encoding="utf-8"?>
<!-- Generator: Adobe Illustrator 23.0.2, SVG Export Plug-In . SVG Version: 6.00 Build 0)  -->
<svg version="1.1" id="Layer_1" xmlns="http://www.w3.org/2000/svg" xmlns:xlink="http://www.w3.org/1999/xlink" x="0px" y="0px"
	 width="32px" height="32px" viewBox="0 0 32 32" style="enable-background:new 0 0 32 32;" xml:space="preserve">
<style type="text/css">
	.st0{fill:none;}
	.st1{fill:#952524;}
</style>
<rect class="st0" width="32" height="32"/>
<g>
	<path class="st1" d="M22.18,19.12H16.6c-4.16,0-7.54,3.39-7.54,7.54c0,0.71,0.58,1.3,1.3,1.3h18.08c0.71,0,1.3-0.58,1.3-1.3
		C29.72,22.5,26.34,19.12,22.18,19.12 M28.43,26.91H10.35c-0.14,0-0.25-0.11-0.25-0.25c0-3.58,2.91-6.5,6.5-6.5h5.58
		c3.58,0,6.5,2.92,6.5,6.5C28.68,26.8,28.57,26.91,28.43,26.91"/>
	<path class="st1" d="M19.39,17.03c3.11,0,5.65-2.53,5.65-5.65c0-3.12-2.53-5.65-5.65-5.65c-3.12,0-5.65,2.53-5.65,5.65
		C13.74,14.5,16.27,17.03,19.39,17.03 M19.39,6.78c2.54,0,4.6,2.06,4.6,4.6c0,2.54-2.06,4.6-4.6,4.6s-4.6-2.06-4.6-4.6
		C14.79,8.84,16.85,6.78,19.39,6.78"/>
	<g>
		<g>
			<path class="st1" d="M6.56,14.03c-2.36,0-4.28-1.92-4.28-4.28S4.2,5.46,6.56,5.46s4.28,1.92,4.28,4.28S8.92,14.03,6.56,14.03z
				 M6.56,5.98c-2.08,0-3.76,1.69-3.76,3.76c0,2.08,1.69,3.76,3.76,3.76c2.08,0,3.76-1.69,3.76-3.76C10.32,7.67,8.63,5.98,6.56,5.98
				z"/>
		</g>
		<g>
			<path class="st1" d="M7.61,4.56h-2.1c-0.14,0-0.26-0.12-0.26-0.26s0.12-0.26,0.26-0.26h2.1c0.14,0,0.26,0.12,0.26,0.26
				S7.75,4.56,7.61,4.56z"/>
		</g>
		<g>
			<rect x="6.3" y="4.3" class="st1" width="0.52" height="1.42"/>
		</g>
		<g>
			
				<rect x="9.18" y="6.23" transform="matrix(0.7071 -0.7071 0.7071 0.7071 -1.7701 8.7129)" class="st1" width="0.9" height="0.52"/>
		</g>
		<g>
			<path class="st1" d="M10.42,6.95c-0.07,0-0.13-0.03-0.18-0.08L9.23,5.87c-0.1-0.1-0.1-0.27,0-0.37c0.1-0.1,0.27-0.1,0.37,0
				l1.01,1.01c0.1,0.1,0.1,0.27,0,0.37C10.56,6.93,10.49,6.95,10.42,6.95z"/>
		</g>
		<g>
			<circle class="st1" cx="6.56" cy="9.8" r="0.7"/>
		</g>
		<g>
			<path class="st1" d="M8.13,11.63c-0.07,0-0.13-0.03-0.18-0.08L6.38,9.98c-0.1-0.1-0.1-0.27,0-0.37c0.1-0.1,0.27-0.1,0.37,0
				l1.57,1.57c0.1,0.1,0.1,0.27,0,0.37C8.26,11.6,8.19,11.63,8.13,11.63z"/>
		</g>
	</g>
</g>
</svg>
