<?xml version="1.0" encoding="utf-8"?>
<!-- Generator: Adobe Illustrator 23.0.2, SVG Export Plug-In . SVG Version: 6.00 Build 0)  -->
<svg version="1.1" id="Layer_1" xmlns="http://www.w3.org/2000/svg" xmlns:xlink="http://www.w3.org/1999/xlink" x="0px" y="0px"
	 width="32px" height="32px" viewBox="0 0 32 32" style="enable-background:new 0 0 32 32;" xml:space="preserve">
<style type="text/css">
	.st0{fill:none;}
	.st1{fill:#952524;}
</style>
<rect class="st0" width="32" height="32"/>
<g>
	<path class="st1" d="M9.81,3.89H5.82H1.84C1.75,3.89,1.67,3.93,1.61,4C1.55,4.06,1.53,4.15,1.54,4.24l1.22,7.13
		c0.07,0.43,0.37,1.17,1.08,1.17h1.69v15.58h0.61V12.53h1.69c0.71,0,1.01-0.73,1.08-1.16l1.21-7.13C10.12,4.15,10.1,4.06,10.04,4
		C9.98,3.93,9.9,3.89,9.81,3.89 M8.29,11.27c0,0.01-0.12,0.66-0.48,0.66H5.82H3.83c-0.36,0-0.48-0.65-0.48-0.66L2.2,4.49h1.75
		l0.58,3.96c0.02,0.15,0.15,0.26,0.3,0.26c0.01,0,0.03,0,0.04,0c0.17-0.02,0.28-0.18,0.26-0.34L4.56,4.49h1.26h1.11L6.36,8.37
		C6.34,8.53,6.45,8.69,6.62,8.71c0.01,0,0.03,0,0.04,0c0.15,0,0.28-0.11,0.3-0.26l0.58-3.96h1.9L8.29,11.27z"/>
	<path class="st1" d="M22.67,19.15H16.9c-4.3,0-7.8,3.4-7.8,7.58c0,0.72,0.6,1.3,1.34,1.3h18.67c0.74,0,1.34-0.58,1.34-1.3
		C30.46,22.55,26.97,19.15,22.67,19.15 M29.12,26.98H10.45c-0.14,0-0.25-0.11-0.25-0.25c0-3.6,3.01-6.53,6.71-6.53h5.77
		c3.7,0,6.71,2.93,6.71,6.53C29.38,26.86,29.26,26.98,29.12,26.98"/>
	<path class="st1" d="M19.78,17.05c3.22,0,5.84-2.55,5.84-5.68c0-3.13-2.62-5.68-5.84-5.68c-3.22,0-5.84,2.55-5.84,5.68
		C13.95,14.5,16.57,17.05,19.78,17.05 M19.78,6.75c2.62,0,4.75,2.07,4.75,4.62c0,2.55-2.13,4.62-4.75,4.62s-4.75-2.07-4.75-4.62
		C15.03,8.82,17.16,6.75,19.78,6.75"/>
</g>
</svg>
