<?xml version="1.0" encoding="utf-8"?>
<!-- Generator: Adobe Illustrator 23.0.2, SVG Export Plug-In . SVG Version: 6.00 Build 0)  -->
<svg version="1.1" id="Layer_1" xmlns="http://www.w3.org/2000/svg" xmlns:xlink="http://www.w3.org/1999/xlink" x="0px" y="0px"
	 width="32px" height="32px" viewBox="0 0 32 32" style="enable-background:new 0 0 32 32;" xml:space="preserve">
<style type="text/css">
	.st0{fill:none;}
	.st1{fill:#952524;}
</style>
<rect class="st0" width="32" height="32"/>
<g>
	<path class="st1" d="M7.18,3.9H2.93c-0.52,0-0.94,0.42-0.94,0.94v5.58c0,0.52,0.42,0.94,0.94,0.94h1.81V28.1h0.62V11.36h1.81
		c0.52,0,0.94-0.42,0.94-0.94V4.84C8.12,4.32,7.7,3.9,7.18,3.9 M7.49,10.42c0,0.17-0.14,0.31-0.31,0.31H2.93
		c-0.17,0-0.31-0.14-0.31-0.31V4.84c0-0.17,0.14-0.31,0.31-0.31h4.25c0.17,0,0.31,0.14,0.31,0.31V10.42z"/>
	<path class="st1" d="M19.89,17.32c3.05,0,5.53-2.48,5.53-5.53c0-3.05-2.48-5.53-5.53-5.53c-3.05,0-5.53,2.48-5.53,5.53
		C14.37,14.84,16.85,17.32,19.89,17.32 M19.89,7.29c2.48,0,4.5,2.02,4.5,4.5s-2.02,4.5-4.5,4.5c-2.48,0-4.5-2.02-4.5-4.5
		S17.41,7.29,19.89,7.29"/>
	<path class="st1" d="M22.63,19.36h-5.46c-4.07,0-7.38,3.31-7.38,7.38c0,0.7,0.57,1.27,1.27,1.27h17.69c0.7,0,1.27-0.57,1.27-1.27
		C30.01,22.68,26.69,19.36,22.63,19.36 M28.74,26.99H11.05c-0.14,0-0.25-0.11-0.25-0.25c0-3.51,2.85-6.36,6.36-6.36h5.46
		c3.51,0,6.36,2.85,6.36,6.36C28.98,26.88,28.87,26.99,28.74,26.99"/>
</g>
</svg>
