<?xml version="1.0" encoding="utf-8"?>
<!-- Generator: Adobe Illustrator 23.0.2, SVG Export Plug-In . SVG Version: 6.00 Build 0)  -->
<svg version="1.1" id="Layer_1" xmlns="http://www.w3.org/2000/svg" xmlns:xlink="http://www.w3.org/1999/xlink" x="0px" y="0px"
	 width="32px" height="32px" viewBox="0 0 32 32" style="enable-background:new 0 0 32 32;" xml:space="preserve">
<style type="text/css">
	.st0{fill:none;}
	.st1{fill:#952524;}
</style>
<rect class="st0" width="32" height="32"/>
<g>
	<path class="st1" d="M21.78,7.42c1.76,0,3.2-1.43,3.2-3.19c0-1.76-1.43-3.2-3.2-3.2c-1.76,0-3.2,1.43-3.2,3.2
		C18.59,5.99,20.02,7.42,21.78,7.42z M21.78,1.58c1.46,0,2.64,1.19,2.64,2.65c0,1.46-1.19,2.65-2.64,2.65
		c-1.46,0-2.65-1.19-2.65-2.65C19.14,2.77,20.33,1.58,21.78,1.58z"/>
	<path class="st1" d="M24.61,8.68c-3.12-0.81-5.81-0.03-5.91,0c-4.9,1.15-5.3,10.64-5.32,11.07l-0.79,0.6l0.45,0.53l-6.18,4.73
		c-0.01,0.01-0.13,0.13-0.13,0.33c0,0.12,0.05,0.24,0.13,0.36c-0.27,0.3-0.43,0.7-0.31,1.05l-2.77,2.21l0.34,0.43l2.79-2.23
		c0.17,0.1,0.34,0.13,0.51,0.13c0.27,0,0.49-0.09,0.58-0.13c0.1,0.12,0.2,0.21,0.33,0.24c0.04,0.01,0.08,0.01,0.12,0.01
		c0.13,0,0.22-0.05,0.25-0.07l6.11-4.75l0.5,0.61l2.19-1.73l-0.68,6.77c-0.01,0.04-0.16,0.91,0.32,1.49
		c0.27,0.33,0.67,0.49,1.2,0.49c1.45,0,1.83-1.37,1.83-2.07l0.93-8.67c0-0.06,0.02-0.24,0.12-0.35c0.07-0.07,0.18-0.11,0.32-0.11
		c0.45,0,0.52,0.29,0.53,0.38l0.91,8.9c0.04,0.71,0.48,2.05,1.89,2.05c0.41,0,0.74-0.15,0.99-0.44c0.5-0.59,0.38-1.26,0.37-1.31
		L25.1,18.9l-0.15-6.14c0-0.17,0.01-0.36,0.04-0.49c0.05,0.05,0.11,0.14,0.19,0.27c0.63,1.02,0.86,3.18,0.69,6.41l-0.04,0.62
		c-0.02,0.08-0.14,0.78,0.23,1.23c0.13,0.16,0.37,0.34,0.79,0.34c1,0,1.27-0.95,1.27-1.42C28.16,19.32,29.03,9.82,24.61,8.68z
		 M7.02,25.8l6.18-4.73l0.17,0.21l-6.33,4.86C6.93,25.93,7.02,25.81,7.02,25.8z M8.56,27.75c0,0-0.07,0.04-0.16,0.02
		c-0.06-0.02-0.12-0.07-0.19-0.13l6.3-4.8L14.65,23L8.56,27.75z M14.6,22.07l-6.83,5.21c0,0-0.42,0.19-0.66-0.06
		c-0.18-0.18,0.19-0.58,0.18-0.58l6.88-5.28l-0.78-0.93l3.55-2.72l1.98,2.54l-3.52,2.78L14.6,22.07z M18.14,18.36l-1.1-1.42
		l-1.32,1.01c0.67-3.49,1.06-4.72,1.71-5.52c0.46-0.56,0.65-0.59,0.65-0.59c0.03,0.03,0.06,0.15,0.06,0.23V18.36z M27.57,19.69
		c0,0.09-0.03,0.9-0.72,0.9c-0.17,0-0.29-0.04-0.36-0.14c-0.17-0.21-0.14-0.63-0.11-0.81l0.05-0.65c0.18-3.4-0.07-5.6-0.77-6.73
		c-0.2-0.33-0.48-0.7-0.83-0.6c-0.37,0.11-0.43,0.66-0.42,1.11l0.15,6.16l1.14,10.36c0.06,0.36,0.01,0.6-0.25,0.88
		c-0.15,0.15-0.32,0.24-0.57,0.24c-1.24,0-1.33-1.46-1.34-1.54l-0.91-8.91c-0.02-0.31-0.28-0.89-1.08-0.89
		c-0.38,0-0.6,0.15-0.72,0.28c-0.28,0.3-0.27,0.71-0.27,0.71l-0.94,8.65c0,0.06-0.02,1.54-1.28,1.54c-0.35,0-0.61-0.1-0.77-0.29
		c-0.32-0.38-0.2-1.03-0.2-1.06l0.73-7.32l1.58-1.25l-0.99-1.28v-7c0-0.06-0.03-0.6-0.43-0.74c-0.45-0.15-0.93,0.36-1.26,0.76
		c-0.75,0.93-1.17,2.3-1.94,6.37l-1.1,0.84c0.15-1.92,0.95-9.17,4.88-10.1c0.03-0.01,2.66-0.77,5.63,0
		C28.44,10.24,27.58,19.57,27.57,19.69z"/>
</g>
</svg>
