<?xml version="1.0" encoding="utf-8"?>
<!-- Generator: Adobe Illustrator 23.0.2, SVG Export Plug-In . SVG Version: 6.00 Build 0)  -->
<svg version="1.1" id="Layer_1" xmlns="http://www.w3.org/2000/svg" xmlns:xlink="http://www.w3.org/1999/xlink" x="0px" y="0px"
	 width="32px" height="32px" viewBox="0 0 32 32" style="enable-background:new 0 0 32 32;" xml:space="preserve">
<style type="text/css">
	.st0{fill:none;}
	.st1{fill:#952624;stroke:#221F1F;stroke-width:0.03;stroke-miterlimit:10;}
	.st2{fill:none;stroke:#221F1F;stroke-width:0.03;stroke-miterlimit:10;}
	.st3{fill:#952624;}
</style>
<rect class="st0" width="32" height="32"/>
<g>
	<path class="st1" d="M30.62,30.73c-0.4,0-0.58-0.16-0.89-0.47c-0.31-0.32-0.75-0.75-1.55-0.75c-0.8,0-1.23,0.43-1.55,0.75
		c-0.3,0.3-0.49,0.47-0.89,0.47c-0.4,0-0.58-0.16-0.89-0.47c-0.31-0.32-0.75-0.75-1.55-0.75c-0.8,0-1.24,0.43-1.55,0.75
		c-0.31,0.31-0.49,0.47-0.89,0.47c-0.4,0-0.58-0.16-0.89-0.47c-0.32-0.32-0.75-0.75-1.55-0.75c-0.8,0-1.23,0.43-1.55,0.75
		c-0.3,0.3-0.49,0.47-0.89,0.47c-0.4,0-0.58-0.16-0.89-0.47c-0.31-0.32-0.75-0.75-1.55-0.75c-0.8,0-1.24,0.43-1.55,0.75
		c-0.31,0.31-0.49,0.47-0.89,0.47c-0.4,0-0.58-0.16-0.89-0.47c-0.31-0.32-0.75-0.75-1.55-0.75s-1.23,0.43-1.55,0.75
		c-0.31,0.31-0.49,0.47-0.89,0.47c-0.4,0-0.58-0.16-0.89-0.47c-0.32-0.32-0.75-0.75-1.55-0.75c-0.8,0-1.23,0.43-1.55,0.75
		c-0.31,0.31-0.49,0.47-0.89,0.47c-0.27,0-0.49,0.22-0.49,0.49c0,0.27,0.22,0.49,0.49,0.49c0.82,0,1.26-0.44,1.58-0.76
		c0.3-0.3,0.48-0.46,0.86-0.46c0.38,0,0.56,0.16,0.86,0.46c0.32,0.32,0.76,0.76,1.58,0.76c0.82,0,1.26-0.44,1.58-0.76
		c0.3-0.3,0.48-0.46,0.86-0.46c0.38,0,0.55,0.16,0.86,0.46c0.32,0.32,0.76,0.76,1.58,0.76c0.82,0,1.26-0.44,1.58-0.76
		c0.3-0.3,0.48-0.46,0.86-0.46c0.38,0,0.56,0.16,0.86,0.46c0.32,0.32,0.76,0.76,1.58,0.76c0.82,0,1.26-0.44,1.58-0.76
		c0.3-0.3,0.48-0.46,0.86-0.46c0.38,0,0.55,0.16,0.86,0.46c0.32,0.32,0.76,0.76,1.58,0.76c0.82,0,1.26-0.44,1.58-0.76
		c0.3-0.3,0.48-0.46,0.86-0.46s0.55,0.16,0.86,0.46c0.32,0.32,0.76,0.76,1.58,0.76c0.82,0,1.26-0.44,1.58-0.76
		c0.3-0.3,0.48-0.46,0.86-0.46c0.38,0,0.56,0.16,0.86,0.46c0.32,0.32,0.75,0.76,1.58,0.76c0.27,0,0.49-0.22,0.49-0.49
		C31.11,30.95,30.89,30.73,30.62,30.73"/>
	<path class="st1" d="M6.16,5.56c-0.33,0-0.6,0.27-0.6,0.6c0,0.33,0.27,0.6,0.6,0.6s0.6-0.27,0.6-0.6C6.76,5.82,6.49,5.56,6.16,5.56
		"/>
	<path class="st2" d="M4.07,8.58L3.93,8.45v1.86c0,0.03-0.02,0.81,0.55,1.39c0.37,0.38,0.91,0.61,1.62,0.69l0.09,0.01V9.37l-0.08,0
		C5.35,9.35,4.65,9.08,4.07,8.58z"/>
	<path class="st2" d="M14.91,10.72c2.52-4.39-0.28-7.24-0.31-7.27c-0.47-0.6-2.29-2.55-6.05-2.12c-1.44,0.16-2.58,0.7-3.38,1.62
		C5.11,3,3.93,4.24,3.93,6.06l0,0.04c0,0.02,0,0.04,0,0.05c0,1.23,1,2.23,2.23,2.23c1.23,0,2.24-1,2.24-2.23
		c0-0.47-0.15-0.92-0.43-1.3C8.05,4.74,8.34,4.38,8.8,4.24c0.59-0.19,1.48-0.34,2.34-0.01c0.75,0.29,1.31,0.87,1.67,1.74
		c0.01,0.02,0.84,1.93-0.57,3.81c-1.23,1.64-6.5,8.41-6.55,8.46l0,0.01C5.65,18.3,5.35,18.74,5,19.4l-0.14,0.26
		c0,0-1.16,2.4-1.09,3.82c0,1.99,1.62,3.61,3.61,3.61h18.98c1.99,0,3.61-1.62,3.61-3.61s-1.62-3.61-3.61-3.61H12.18"/>
	<path class="st3" d="M26.37,18.89H12.18c-1.83,0-1.34-1.02-1.04-1.46c0.02-0.03,0.03-0.05,0.05-0.07l0.08-0.11
		c0,0,0.01-0.02,0.01-0.02l0,0l0,0l0,0l0,0l4.45-5.98c2.54-4.4,0.37-7.53-0.23-8.26v0.04l-0.15-0.22c-0.09-0.12-2.17-2.99-6.9-2.47
		c-5.43,0.6-5.5,5.75-5.5,5.8l0,4.13c0,0.02-0.06,1.17,0.81,2.08c0.66,0.69,1.64,1.04,2.92,1.04h0.49V9.2l0.06-0.02
		c1.29-0.45,2.15-1.67,2.15-3.02c0-0.29-0.05-0.58-0.15-0.93L9.2,5.15l0.09-0.02c0.21-0.05,0.48-0.1,0.77-0.1
		c0.24,0,0.5,0.04,0.74,0.13c0.49,0.19,0.85,0.58,1.11,1.2c0.01,0.01,0.61,1.42-0.45,2.84c-0.97,1.3-4.44,5.76-6.42,8.3L4.9,17.67
		c-0.08,0.12-2.12,2.99-2.12,5.82c0,2.53,2.06,4.59,4.59,4.59h18.98c2.53,0,4.59-2.06,4.59-4.59S28.9,18.89,26.37,18.89z
		 M6.19,12.41L6.09,12.4c-0.71-0.08-1.25-0.31-1.62-0.69c-0.56-0.58-0.55-1.36-0.55-1.39V8.45l0.14,0.12
		c0.58,0.5,1.28,0.78,2.04,0.79l0.08,0V12.41z M26.37,27.1H7.38c-1.99,0-3.61-1.62-3.61-3.61c-0.07-1.42,1.09-3.82,1.09-3.82L5,19.4
		c0.35-0.66,0.66-1.1,0.69-1.15l0-0.01c0.04-0.05,5.32-6.83,6.55-8.46c1.42-1.89,0.58-3.79,0.57-3.81
		c-0.36-0.87-0.92-1.45-1.67-1.74C10.28,3.9,9.39,4.06,8.8,4.24C8.34,4.38,8.05,4.74,7.96,4.86C8.25,5.24,8.4,5.69,8.4,6.16
		c0,1.23-1,2.23-2.24,2.23c-1.23,0-2.23-1-2.23-2.23c0-0.02,0-0.04,0-0.05l0-0.04c0-1.82,1.19-3.06,1.24-3.11
		c0.8-0.92,1.94-1.46,3.38-1.62c3.76-0.42,5.58,1.52,6.05,2.12c0.03,0.03,2.83,2.88,0.31,7.27l-4.27,5.74l0,0l0,0l-0.15,0.21l0.01,0
		l0,0l-0.01,0c-0.07,0.1-0.12,0.19-0.19,0.28l-0.03,0.04l0,0c-1.8,2.79,1.91,2.88,1.91,2.88h14.19c1.99,0,3.61,1.62,3.61,3.61
		S28.36,27.1,26.37,27.1z"/>
	<path class="st0" d="M23.77,22.69C23.77,22.69,23.78,22.7,23.77,22.69C23.78,22.7,23.77,22.69,23.77,22.69z"/>
	<g>
		<path class="st3" d="M21.48,25.01h-9.3c-0.54,0-0.96-0.16-1.26-0.48c-0.47-0.5-0.44-1.2-0.44-1.23l0-1.24h0.53v1.26
			c0,0.02-0.02,0.52,0.29,0.86c0.2,0.21,0.49,0.31,0.87,0.31h9.3c0.12,0,0.23-0.04,0.32-0.11L24,22.69l-8.68,0v-0.53H24
			c0.23,0,0.43,0.14,0.5,0.36c0.07,0.22,0,0.45-0.18,0.59l-2.19,1.68C21.94,24.93,21.71,25.01,21.48,25.01z"/>
	</g>
</g>
</svg>
