<?xml version="1.0" encoding="utf-8"?>
<!-- Generator: Adobe Illustrator 23.0.2, SVG Export Plug-In . SVG Version: 6.00 Build 0)  -->
<svg version="1.1" id="Layer_1" xmlns="http://www.w3.org/2000/svg" xmlns:xlink="http://www.w3.org/1999/xlink" x="0px" y="0px"
	 width="32px" height="32px" viewBox="0 0 32 32" style="enable-background:new 0 0 32 32;" xml:space="preserve">
<style type="text/css">
	.st0{fill:none;}
	.st1{fill:#972726;}
</style>
<g>
	<rect y="0" class="st0" width="32" height="32"/>
</g>
<g>
	<path class="st1" d="M31.15,15.21h-1.4C29.59,9.55,25.26,4.92,19.73,4.3c0.14-0.22,0.22-0.48,0.22-0.76c0-0.81-0.66-1.48-1.48-1.48
		C17.66,2.06,17,2.73,17,3.54c0,0.28,0.08,0.54,0.22,0.76C11.7,4.92,7.38,9.52,7.2,15.21H5.76c-0.11,0-0.21,0.05-0.28,0.13
		c-0.07,0.08-0.1,0.19-0.09,0.29c0,0.03,0.37,2.77,2.5,3.73c-0.92,0.56-1.93,1.46-2.54,2.05v-0.77H1.71
		c-0.06-0.01-0.63-0.02-0.98,0.39c-0.16,0.18-0.32,0.51-0.22,1.04c0.19,1.03,1.29,6.87,1.3,6.9c0.09,0.36,0.43,0.96,1.11,0.96h1.33
		c0.04,0.01,0.09,0.01,0.15,0.01c0.15,0,0.34-0.03,0.53-0.18c0.28-0.21,0.43-0.59,0.43-1.12v-0.37h11.21c2.07,0,3.8-1.69,3.85-1.74
		l5.05-4.13c0.02-0.02,0.58-0.53,0.6-1.28c0.01-0.47-0.18-0.91-0.59-1.31c-0.05-0.05-0.11-0.08-0.16-0.13h2.1
		c3.57,0,4.1-4.02,4.11-4.06c0.01-0.11-0.02-0.21-0.09-0.29C31.36,15.25,31.25,15.21,31.15,15.21 M4.6,28.64
		c0,0.31-0.07,0.47-0.13,0.52c-0.04,0.03-0.09,0.03-0.09,0.02l-1.46-0.01c-0.26,0-0.37-0.38-0.37-0.38
		c-0.02-0.08-1.1-5.85-1.29-6.87c-0.02-0.13-0.04-0.31,0.05-0.41c0.1-0.11,0.31-0.14,0.4-0.13H4.6V28.64z M18.47,2.81
		c0.4,0,0.73,0.33,0.73,0.73c0,0.34-0.25,0.62-0.57,0.69c-0.05,0-0.1-0.01-0.16-0.01c-0.05,0-0.11,0.01-0.16,0.01
		c-0.32-0.07-0.57-0.35-0.57-0.69C17.75,3.14,18.07,2.81,18.47,2.81 M18.21,4.99c0.09,0,0.18-0.01,0.27-0.01
		c0.09,0,0.18,0.01,0.27,0.01C24.3,5.13,28.81,9.59,29,15.21h-9.07h-2.96H7.94C8.1,9.63,12.62,5.13,18.21,4.99 M24.97,21.84
		l-5.06,4.14c-0.02,0.02-1.6,1.54-3.35,1.54H5.35v-5.07c0.16-0.16,2.3-2.33,3.57-2.79l-0.01-0.02c0.19,0.02,0.38,0.04,0.59,0.04
		h0.15h0.75h3.99c0.52,0,0.93,0.42,0.93,0.94c0,0.52-0.42,0.94-0.93,0.94h-2.58c-0.55,0-1.03,0.3-1.29,0.75
		c-0.13,0.22-0.21,0.48-0.21,0.75c0,0.83,0.67,1.5,1.5,1.5h4.55h0.38h0.31c0,0,0.55-0.03,1.02-0.3c0.19-0.11,0.4-0.24,0.64-0.42
		c1.1-0.81,4.34-3.36,4.49-3.48c0.04-0.03,0.93-0.83,1.74-0.01c0.25,0.25,0.37,0.51,0.37,0.76C25.31,21.52,24.97,21.84,24.97,21.84
		 M15.78,19.69h1.62h2.09h3.34c-0.04,0.03-0.09,0.06-0.12,0.1c-0.03,0.03-3.36,2.65-4.45,3.45c-0.26,0.19-0.45,0.31-0.61,0.39
		c-0.24,0.14-0.5,0.18-0.69,0.19l-0.24,0l-0.38,0h-0.38h-0.05h-4.12c-0.41,0-0.75-0.34-0.75-0.75c0-0.41,0.34-0.75,0.75-0.75h2.58
		c0.58,0,1.1-0.3,1.4-0.75c0.18-0.27,0.29-0.59,0.29-0.94C16.07,20.28,15.96,19.96,15.78,19.69 M27.41,18.94H19.5h-2.09h-3.02H9.65
		H9.5c-2.31,0-3.06-2.07-3.28-2.98h1.34h9.42h2.96h9.46h1.31C30.48,16.87,29.72,18.94,27.41,18.94"/>
</g>
</svg>
