<?xml version="1.0" encoding="utf-8"?>
<!-- Generator: Adobe Illustrator 23.0.2, SVG Export Plug-In . SVG Version: 6.00 Build 0)  -->
<svg version="1.1" id="Layer_1" xmlns="http://www.w3.org/2000/svg" xmlns:xlink="http://www.w3.org/1999/xlink" x="0px" y="0px"
	 width="32px" height="32px" viewBox="0 0 32 32" style="enable-background:new 0 0 32 32;" xml:space="preserve">
<style type="text/css">
	.st0{fill:none;}
	.st1{fill:#952524;}
</style>
<rect class="st0" width="32" height="32"/>
<g>
	<path class="st1" d="M7.01,21.44V10.22c0.99-0.65,1.65-1.76,1.65-3.03c0-1.23-0.62-2.31-1.55-2.97C6.93,4.1,6.74,3.99,6.54,3.9
		v0.64v2.48L5.03,7.89L3.46,7.1V4.59V3.95c-0.2,0.1-0.39,0.21-0.57,0.35C2,4.96,1.42,6,1.42,7.19c0,1.27,0.66,2.39,1.66,3.04v11.21
		c-0.99,0.65-1.66,1.76-1.66,3.03c0,2,1.63,3.62,3.63,3.62c2,0,3.62-1.63,3.62-3.62C8.67,23.2,8.01,22.09,7.01,21.44 M5.04,27.53
		c-1.68,0-3.06-1.37-3.06-3.05c0-0.93,0.43-1.76,1.09-2.32c0.17-0.15,0.36-0.28,0.57-0.38v-0.64v-10.6V9.89
		C3.44,9.78,3.25,9.66,3.07,9.51C2.42,8.95,1.99,8.12,1.99,7.19c0-0.84,0.34-1.61,0.9-2.16v2.42l2.17,1.08l2.06-1.17v-2.4
		C7.71,5.52,8.1,6.31,8.1,7.19c0,0.93-0.43,1.75-1.08,2.31C6.84,9.65,6.65,9.78,6.44,9.89v0.64v10.6v0.64
		c0.21,0.11,0.39,0.23,0.57,0.38c0.66,0.56,1.08,1.38,1.08,2.31C8.1,26.16,6.73,27.53,5.04,27.53"/>
	<path class="st1" d="M4.62,22.36L3,23.78l0.42,2.12l2.04,0.69l1.62-1.42l-0.42-2.12L4.62,22.36z M5.33,25.94l-1.42-0.48l-0.29-1.47
		L4.75,23l1.42,0.48l0.29,1.47L5.33,25.94z"/>
	<path class="st1" d="M20.27,17.1c3.11,0,5.64-2.53,5.64-5.64c0-3.11-2.53-5.64-5.64-5.64c-3.11,0-5.64,2.53-5.64,5.64
		C14.63,14.57,17.16,17.1,20.27,17.1 M20.27,6.87c2.53,0,4.59,2.06,4.59,4.59c0,2.53-2.06,4.59-4.59,4.59s-4.59-2.06-4.59-4.59
		C15.67,8.93,17.73,6.87,20.27,6.87"/>
	<path class="st1" d="M23.05,19.19h-5.57c-4.15,0-7.53,3.38-7.53,7.53c0,0.71,0.58,1.29,1.29,1.29h18.04c0.71,0,1.29-0.58,1.29-1.29
		C30.58,22.57,27.21,19.19,23.05,19.19 M29.29,26.97H11.24c-0.14,0-0.25-0.11-0.25-0.25c0-3.58,2.91-6.48,6.48-6.48h5.57
		c3.57,0,6.48,2.91,6.48,6.48C29.54,26.86,29.43,26.97,29.29,26.97"/>
</g>
</svg>
