<?xml version="1.0" encoding="utf-8"?>
<!-- Generator: Adobe Illustrator 23.0.2, SVG Export Plug-In . SVG Version: 6.00 Build 0)  -->
<svg version="1.1" id="Layer_1" xmlns="http://www.w3.org/2000/svg" xmlns:xlink="http://www.w3.org/1999/xlink" x="0px" y="0px"
	 width="32px" height="32px" viewBox="0 0 32 32" style="enable-background:new 0 0 32 32;" xml:space="preserve">
<style type="text/css">
	.st0{fill:none;}
	.st1{fill:#952524;}
</style>
<rect class="st0" width="32" height="32"/>
<g>
	<path class="st1" d="M29.1,27.21l-4.42-4.44l0.01-0.01l-4.77-4.71v-6.84c0-0.79-0.24-1.4-0.7-1.81c-0.69-0.6-1.58-0.5-1.59-0.5
		l-2.04,0c-0.19,0-0.43-0.03-0.52-0.17c-0.18-0.28,0.05-0.98,0.19-1.25c0.37-0.71,0.56-1.44,0.56-2.18c0-2.61-2.12-4.73-4.73-4.73
		c-2.61,0-4.74,2.12-4.74,4.73c0,0.74,0.19,1.47,0.56,2.18l0.04,0.08l-0.01,0c0.14,0.33,0.3,0.91,0.15,1.16
		C6.99,8.88,6.75,8.91,6.56,8.91l-1.95,0c-0.11-0.01-1-0.1-1.68,0.49c-0.47,0.41-0.7,1.02-0.7,1.81l0,17.93
		c-0.01,0.1-0.06,0.98,0.55,1.63c0.4,0.43,0.96,0.65,1.68,0.65h6.13v-0.98H4.46c-0.43,0-0.75-0.11-0.96-0.33
		c-0.3-0.32-0.3-0.79-0.29-0.93V11.22c0-0.49,0.12-0.85,0.36-1.07c0.15-0.14,0.45-0.29,0.96-0.26l2.03,0c0.79,0,1.17-0.34,1.35-0.63
		c0.05-0.08,0.08-0.17,0.11-0.25C8.3,8.24,7.88,7.29,7.79,7.09L7.77,7.07l0.01-0.01C7.47,6.5,7.32,5.91,7.32,5.31
		c0-2.07,1.68-3.75,3.76-3.75c2.07,0,3.75,1.68,3.75,3.75c0,0.59-0.16,1.18-0.46,1.75l-0.01,0.02c-0.09,0.19-0.53,1.15-0.24,1.94
		c0.03,0.09,0.07,0.17,0.11,0.25c0.18,0.29,0.56,0.63,1.35,0.63l2.09,0c0.01,0,0.54-0.06,0.89,0.26c0.24,0.22,0.36,0.57,0.36,1.07
		l0,5.87l-5.56-5.49c-0.13-0.12-0.31-0.17-0.48-0.12c-0.17,0.05-0.3,0.19-0.34,0.36c-1.61,6.67,3.91,12.36,6.35,14.5l0.03,0.03v2.88
		c0,0.05,0.01,0.55-0.29,0.88c-0.2,0.22-0.53,0.33-0.96,0.33h-7.1l0.01,0.98h7.09c0.72,0,1.29-0.22,1.68-0.65
		c0.62-0.67,0.55-1.57,0.55-1.58v-2.04l0.14,0.1c0.09,0.07,0.15,0.12,0.18,0.13c0.19,0.14,0.47,0.12,0.63-0.05l0.89-0.89l0.06,0.06
		l3.99,3.99c0.44,0.44,1.02,0.68,1.65,0.68s1.21-0.24,1.65-0.68C30,29.6,30,28.12,29.1,27.21 M20.47,26.35l-0.06-0.05
		c-0.13-0.1-0.29-0.24-0.47-0.39c-0.36-0.3-0.75-0.66-1.15-1.04c-2.31-2.22-6.1-6.69-5.48-11.76l0.02-0.17l10.34,10.21l-0.06,0.06
		L20.47,26.35z M28.4,29.81L28.4,29.81c-0.26,0.25-0.6,0.4-0.96,0.4h0c-0.36,0-0.7-0.14-0.96-0.4l-4.05-4.05l1.93-1.93l0.06,0.06
		l3.98,4C28.93,28.43,28.92,29.29,28.4,29.81"/>
	<path class="st1" d="M11.61,3.55c0-0.3-0.24-0.54-0.54-0.54c-0.3,0-0.54,0.24-0.54,0.54c0,0.3,0.24,0.54,0.54,0.54
		C11.37,4.09,11.61,3.85,11.61,3.55"/>
</g>
</svg>
