<?xml version="1.0" encoding="utf-8"?>
<!-- Generator: Adobe Illustrator 23.0.2, SVG Export Plug-In . SVG Version: 6.00 Build 0)  -->
<svg version="1.1" id="Layer_1" xmlns="http://www.w3.org/2000/svg" xmlns:xlink="http://www.w3.org/1999/xlink" x="0px" y="0px"
	 width="32px" height="32px" viewBox="0 0 32 32" style="enable-background:new 0 0 32 32;" xml:space="preserve">
<style type="text/css">
	.st0{fill:none;}
	.st1{fill:#952524;}
</style>
<rect class="st0" width="32" height="32"/>
<g>
	<path class="st1" d="M16,16.04c4.07,0,7.39-3.31,7.39-7.39c0-4.07-3.31-7.39-7.39-7.39c-4.07,0-7.39,3.31-7.39,7.39
		C8.61,12.73,11.93,16.04,16,16.04 M16,2.41c3.44,0,6.24,2.8,6.24,6.24c0,3.44-2.8,6.24-6.24,6.24c-3.44,0-6.24-2.8-6.24-6.24
		C9.76,5.21,12.56,2.41,16,2.41"/>
	<path class="st1" d="M19.35,18.58h-1.68l0.25,1.15h1.43c5.01,0,9.08,3.93,9.08,8.76c0,0.25-0.21,0.45-0.47,0.45H17.72l0.36,1.15
		h9.88c0.92,0,1.66-0.72,1.66-1.6C29.62,23.02,25.01,18.58,19.35,18.58"/>
	<path class="st1" d="M4.1,28.94c-0.27,0-0.48-0.2-0.48-0.45c0-4.83,4.2-8.76,9.44-8.76h1.05l0.18-1.15h-1.31
		c-5.85,0-10.6,4.44-10.6,9.91c0,0.88,0.77,1.6,1.72,1.6h9.73l0.27-1.15H4.1z"/>
	<g>
		<path class="st1" d="M16,23.2l-2.73-1.87l0.58-2.74h4.31l0.58,2.74L16,23.2z M13.96,21.05l2.04,1.4l2.04-1.4l-0.39-1.85h-3.31
			L13.96,21.05z"/>
	</g>
	<g>
		<polygon class="st1" points="18.37,30.74 13.63,30.74 14.72,22.07 15.23,22.13 14.21,30.26 17.79,30.26 16.91,22.12 17.43,22.08 
					"/>
	</g>
</g>
</svg>
