<?xml version="1.0" encoding="utf-8"?>
<!-- Generator: Adobe Illustrator 23.0.2, SVG Export Plug-In . SVG Version: 6.00 Build 0)  -->
<svg version="1.1" id="Layer_1" xmlns="http://www.w3.org/2000/svg" xmlns:xlink="http://www.w3.org/1999/xlink" x="0px" y="0px"
	 width="32px" height="32px" viewBox="0 0 32 32" style="enable-background:new 0 0 32 32;" xml:space="preserve">
<style type="text/css">
	.st0{fill:none;}
	.st1{fill:#952524;}
</style>
<g>
	<rect y="0" class="st0" width="32" height="32"/>
</g>
<g>
	<path class="st1" d="M3.05,12c0.09,0.07,0.19,0.1,0.3,0.1c0.04,0,0.08-0.01,0.12-0.02c0.14-0.04,0.26-0.13,0.32-0.27l-0.07-0.03
		l0.07,0.03c0.1-0.21,0.03-0.46-0.16-0.6c-0.2-0.15-0.45-0.4-0.48-0.73c-0.05-0.56,0.5-1.27,1.58-2.05c1.2-0.85,1.75-1.74,1.64-2.64
		C6.25,4.7,5.16,3.98,4.52,3.64C4.4,3.58,4.26,3.57,4.13,3.62C4,3.67,3.9,3.77,3.84,3.9c-0.09,0.23,0.01,0.5,0.23,0.61
		c0.29,0.15,1.25,0.71,1.33,1.4c0.08,0.64-0.63,1.29-1.23,1.73c-1.41,1.01-2.08,2-1.99,2.94C2.25,11.26,2.69,11.73,3.05,12"/>
	<path class="st1" d="M8.24,12c0.09,0.07,0.19,0.1,0.3,0.1c0.04,0,0.08-0.01,0.12-0.02c0.14-0.04,0.26-0.13,0.32-0.27v0
		c0.1-0.21,0.03-0.46-0.15-0.6c-0.2-0.15-0.45-0.4-0.48-0.73C8.3,9.92,8.85,9.21,9.93,8.44c1.2-0.85,1.75-1.74,1.63-2.64
		c-0.13-1.09-1.22-1.81-1.85-2.15c-0.12-0.06-0.27-0.07-0.4-0.03C9.19,3.67,9.08,3.77,9.03,3.9c-0.09,0.23,0.01,0.5,0.23,0.61
		c0.29,0.15,1.25,0.71,1.33,1.4c0.08,0.64-0.63,1.29-1.23,1.73c-1.41,1.01-2.08,2-1.99,2.94C7.44,11.26,7.88,11.73,8.24,12"/>
	<path class="st1" d="M13.13,12c0.09,0.07,0.19,0.1,0.3,0.1c0.04,0,0.08-0.01,0.12-0.02c0.14-0.04,0.26-0.13,0.32-0.27l-0.07-0.03
		l0.07,0.03c0.1-0.21,0.03-0.46-0.16-0.6c-0.2-0.15-0.45-0.4-0.48-0.73c-0.05-0.56,0.5-1.27,1.59-2.05c1.2-0.85,1.74-1.74,1.63-2.64
		c-0.13-1.09-1.22-1.81-1.86-2.15c-0.12-0.06-0.27-0.07-0.4-0.03c-0.12,0.05-0.22,0.14-0.28,0.26L13.92,3.9
		c-0.09,0.23,0.01,0.5,0.23,0.61c0.29,0.15,1.25,0.71,1.33,1.4c0.08,0.64-0.63,1.29-1.23,1.73c-1.41,1.01-2.08,2-1.99,2.94
		C12.32,11.26,12.77,11.73,13.13,12"/>
	<path class="st1" d="M28.89,5.6c-0.34-0.15-0.71-0.23-1.1-0.23h-7.62c-0.27,0-0.49,0.22-0.49,0.49c0,0.27,0.22,0.49,0.49,0.49h7.62
		c0.25,0,0.49,0.05,0.7,0.15c0.68,0.31,1.86,1.07,2.04,2.71c0.25,2.23-1.51,2.95-1.58,2.98l-0.32,0.12v15.12h-6.78
		c-0.27,0-0.49,0.22-0.49,0.49c0,0.27,0.22,0.49,0.49,0.49h7.76V12.96c1.06-0.58,2.11-1.88,1.89-3.86
		C31.27,6.97,29.76,5.99,28.89,5.6"/>
	<rect x="20.37" y="9.38" class="st1" width="1.03" height="0.98"/>
	<rect x="24.52" y="9.38" class="st1" width="1.03" height="0.98"/>
	<rect x="20.37" y="13.27" class="st1" width="1.03" height="0.98"/>
	<rect x="24.52" y="13.27" class="st1" width="1.03" height="0.98"/>
	<path class="st1" d="M18.4,18.47h-0.83c0.05-0.43,0.08-0.86,0.09-1.29c0-0.15,0.01-0.3,0.01-0.45c0-0.1,0-0.2-0.01-0.3l0-0.15H0.48
		l0,0.15c0,0.1-0.01,0.2-0.01,0.3c0,0.14,0.01,0.27,0.01,0.41l0,0.04c0.1,3.68,1.53,7.11,3.82,9.18c0,0,4.48,4.3,9.55,0
		c0.64-0.58,1.22-1.27,1.73-2.07h2.82c1.6,0,2.91-1.3,2.91-2.91C21.31,19.77,20,18.47,18.4,18.47 M9.07,27.34
		c-4.08,0-7.41-4.42-7.61-10.08h15.22C16.48,22.92,13.15,27.34,9.07,27.34 M18.4,23.31h-2.26c0.61-1.18,1.04-2.48,1.29-3.86h0.97
		c1.06,0,1.93,0.86,1.93,1.93C20.33,22.44,19.46,23.31,18.4,23.31"/>
</g>
</svg>
