<?xml version="1.0" encoding="utf-8"?>
<!-- Generator: Adobe Illustrator 23.0.2, SVG Export Plug-In . SVG Version: 6.00 Build 0)  -->
<svg version="1.1" id="Layer_1" xmlns="http://www.w3.org/2000/svg" xmlns:xlink="http://www.w3.org/1999/xlink" x="0px" y="0px"
	 width="32px" height="32px" viewBox="0 0 32 32" style="enable-background:new 0 0 32 32;" xml:space="preserve">
<style type="text/css">
	.st0{fill:none;}
	.st1{fill:#972726;}
</style>
<g>
	<rect y="0" class="st0" width="32" height="32"/>
</g>
<g>
	<path class="st1" d="M26.68,12.73L26.68,12.73L5.44,12.8c-0.27,0-0.5,0.19-0.5,0.43c0,5.27,4.99,9.56,11.12,9.56
		c6.13,0,11.12-4.29,11.12-9.63c0-0.11-0.05-0.22-0.15-0.31C26.94,12.77,26.82,12.73,26.68,12.73 M16.06,21.93
		c-5.41,0-9.85-3.67-10.11-8.27l20.23-0.07C25.96,18.22,21.5,21.93,16.06,21.93"/>
	<path class="st1" d="M5.32,10.65h11.72c0.18,0,0.34-0.08,0.43-0.21c0.09-0.13,0.09-0.29,0.01-0.42L12.93,2.8
		c-0.12-0.19-0.38-0.27-0.61-0.2c-0.3,0.09-7.33,2.39-7.5,7.61c0,0.12,0.05,0.23,0.14,0.31C5.05,10.61,5.18,10.65,5.32,10.65
		 M12.26,3.55l3.94,6.24H5.85C6.3,6.1,10.87,4.08,12.26,3.55"/>
	<path class="st1" d="M9.21,23.05c-2.05,0-3.71,1.43-3.71,3.19c0,1.76,1.66,3.19,3.71,3.19s3.71-1.43,3.71-3.19
		C12.92,24.48,11.26,23.05,9.21,23.05 M9.21,28.57c-1.49,0-2.71-1.04-2.71-2.33c0-1.28,1.22-2.33,2.71-2.33
		c1.49,0,2.71,1.04,2.71,2.33C11.92,27.52,10.71,28.57,9.21,28.57"/>
	<path class="st1" d="M22.91,23.05c-2.05,0-3.71,1.43-3.71,3.19c0,1.76,1.66,3.19,3.71,3.19c2.04,0,3.71-1.43,3.71-3.19
		C26.62,24.48,24.95,23.05,22.91,23.05 M22.91,28.57c-1.49,0-2.71-1.04-2.71-2.33c0-1.28,1.22-2.33,2.71-2.33s2.71,1.04,2.71,2.33
		C25.62,27.52,24.4,28.57,22.91,28.57"/>
</g>
</svg>
