<?xml version="1.0" encoding="utf-8"?>
<!-- Generator: Adobe Illustrator 23.0.2, SVG Export Plug-In . SVG Version: 6.00 Build 0)  -->
<svg version="1.1" id="Layer_1" xmlns="http://www.w3.org/2000/svg" xmlns:xlink="http://www.w3.org/1999/xlink" x="0px" y="0px"
	 width="32px" height="32px" viewBox="0 0 32 32" style="enable-background:new 0 0 32 32;" xml:space="preserve">
<style type="text/css">
	.st0{fill:none;}
	.st1{fill:#972726;}
</style>
<g>
	<rect y="0" class="st0" width="32" height="32"/>
</g>
<g>
	<path class="st1" d="M16.39,14.52c3.56,0,6.45-2.89,6.45-6.45s-2.9-6.45-6.45-6.45c-3.56,0-6.45,2.9-6.45,6.45
		S12.83,14.52,16.39,14.52 M16.39,2.61c3.01,0,5.45,2.45,5.45,5.45c0,3.01-2.45,5.45-5.45,5.45c-3.01,0-5.45-2.45-5.45-5.45
		C10.94,5.06,13.38,2.61,16.39,2.61"/>
	<path class="st1" d="M22.2,22.18h-3.13v-1.45c0-0.14-0.11-0.25-0.25-0.25h-5.65c-0.14,0-0.25,0.11-0.25,0.25v1.45H9.8
		c-0.14,0-0.25,0.11-0.25,0.25v7.71c0,0.14,0.11,0.25,0.25,0.25h12.4c0.14,0,0.25-0.11,0.25-0.25v-7.71
		C22.45,22.29,22.34,22.18,22.2,22.18 M21.95,29.89h-11.9v-7.21h3.12c0.14,0,0.25-0.11,0.25-0.25v-1.45h5.15v1.45
		c0,0.14,0.11,0.25,0.25,0.25h3.13V29.89z"/>
	<path class="st1" d="M16,23.57c-1.32,0-2.4,1.07-2.4,2.4c0,1.32,1.08,2.4,2.4,2.4s2.4-1.07,2.4-2.4
		C18.4,24.64,17.32,23.57,16,23.57 M16,27.86c-1.05,0-1.9-0.85-1.9-1.9s0.85-1.9,1.9-1.9s1.9,0.85,1.9,1.9S17.05,27.86,16,27.86"/>
	<path class="st1" d="M17.81,16.77h-3.62c-6.35,0-11.52,3.98-11.52,8.88c0,1.08,1.12,1.95,2.5,1.95h4.01v-1.02H5.17
		c-0.69,0-1.25-0.42-1.25-0.93c0-4.34,4.6-7.86,10.27-7.86h3.62c5.66,0,10.27,3.53,10.27,7.86c0,0.51-0.56,0.93-1.25,0.93h-4.01
		v1.02h4.01c1.38,0,2.5-0.88,2.5-1.95C29.33,20.75,24.16,16.77,17.81,16.77"/>
</g>
</svg>
