<?xml version="1.0" encoding="utf-8"?>
<!-- Generator: Adobe Illustrator 23.0.2, SVG Export Plug-In . SVG Version: 6.00 Build 0)  -->
<svg version="1.1" id="Layer_1" xmlns="http://www.w3.org/2000/svg" xmlns:xlink="http://www.w3.org/1999/xlink" x="0px" y="0px"
	 width="32px" height="32px" viewBox="0 0 32 32" style="enable-background:new 0 0 32 32;" xml:space="preserve">
<style type="text/css">
	.st0{fill:none;}
	.st1{fill:#952524;}
</style>
<rect class="st0" width="32" height="32"/>
<g>
	<path class="st1" d="M18.48,9.4c0-1.12-1.22-2.04-2.72-2.04c-1.5,0-2.73,0.91-2.73,2.04c0,1.12,1.22,2.03,2.73,2.03
		C17.25,11.43,18.48,10.52,18.48,9.4 M15.75,10.88c-1.2,0-2.17-0.67-2.17-1.48c0-0.82,0.98-1.49,2.17-1.49s2.17,0.67,2.17,1.49
		C17.93,10.22,16.95,10.88,15.75,10.88"/>
	<path class="st1" d="M25.62,9.4c0-1.12-1.22-2.04-2.73-2.04c-1.5,0-2.73,0.91-2.73,2.04c0,1.12,1.22,2.03,2.73,2.03
		C24.39,11.43,25.62,10.52,25.62,9.4 M22.89,10.88c-1.2,0-2.17-0.67-2.17-1.48c0-0.82,0.97-1.49,2.17-1.49
		c1.2,0,2.17,0.67,2.17,1.49C25.07,10.22,24.09,10.88,22.89,10.88"/>
	<path class="st1" d="M20.98,13.15L20.98,13.15c0,0.91-0.74,1.66-1.66,1.66c-0.91,0-1.66-0.74-1.66-1.66h-0.55
		c0,1.22,0.99,2.21,2.21,2.21c1.22,0,2.21-0.99,2.21-2.21H20.98z"/>
	<rect x="4.94" y="19.17" class="st1" width="6.63" height="0.52"/>
	<path class="st1" d="M13.13,26.64h3.8v-0.52h-3.86C13.07,26.12,13.12,26.48,13.13,26.64"/>
	<path class="st1" d="M17.26,23.21h-4.41l-0.01-0.08l-0.52-4.05c-0.03-0.24-0.24-0.43-0.49-0.43h-0.73v-1.71
		c0-0.27-0.22-0.49-0.49-0.49H5.89c-0.27,0-0.49,0.22-0.49,0.49v1.71H4.67c-0.25,0-0.45,0.18-0.49,0.43L3.28,26.1
		c-0.02,0.1-0.41,2.39,0.91,3.97c0.69,0.82,1.73,1.28,3.1,1.35c0.04,0,0.09,0.01,0.13,0.01c0.07,0,0.14,0.01,0.22,0.01h1.19
		c0.08,0,0.17-0.01,0.26-0.01l0.13-0.01c0.35-0.02,0.61-0.05,0.84-0.09l7.21,0c0.27,0,0.49-0.22,0.49-0.49V23.7
		C17.75,23.42,17.53,23.21,17.26,23.21 M9.94,30.34c-0.38,0.08-0.72,0.12-1.07,0.12H7.64c-1.22,0-2.12-0.34-2.69-1.02
		c-1.03-1.23-0.7-3.17-0.7-3.2l0.85-6.61h1.28v-2.2h3.75v2.2h1.28l0.86,6.63c0,0,0.02,0.16,0.04,0.39c0.04,0.66-0.01,1.91-0.74,2.78
		C11.19,29.88,10.64,30.18,9.94,30.34 M16.77,30.34h-4.73l0.13-0.14c0.02-0.02,0.05-0.05,0.07-0.07c0.02-0.02,0.05-0.04,0.07-0.06
		c0.94-1.12,1.01-2.6,0.97-3.39l-0.05-0.55l-0.25-1.94h3.79V30.34z"/>
	<path class="st1" d="M28.3,12.75h-0.91l0.42-3.96c0-4.53-3.7-8.23-8.24-8.23h-0.5c-2.2,0-4.27,0.86-5.82,2.42
		c-1.56,1.57-2.41,3.65-2.41,5.87l0.48,4.66c0.43,4.11,3.86,7.21,7.99,7.21c1.28,0,2.51-0.29,3.65-0.88l0.12-0.06v5.38h-3.43
		c-0.27,0-0.49,0.22-0.49,0.49v5.29c0,0.27,0.22,0.49,0.49,0.49h8.64c0.27,0,0.49-0.22,0.49-0.49V13.24
		C28.79,12.97,28.57,12.75,28.3,12.75 M23.05,18.67c-1.12,0.7-2.41,1.07-3.74,1.07c-3.63,0-6.64-2.72-7.02-6.33l-0.48-4.61
		c0-4.01,3.26-7.27,7.26-7.27h0.5c4,0,7.26,3.23,7.26,7.2l-0.43,4.01h-2.82c-0.27,0-0.49,0.22-0.49,0.49v5.41L23.05,18.67z
		 M25.22,30.46h-5.08v-4.31h5.08V30.46z M27.81,30.46h-1.6v-4.8c0-0.27-0.22-0.49-0.49-0.49h-1.64V13.73h3.74V30.46z"/>
	<rect x="19.92" y="27.38" class="st1" width="5.54" height="0.52"/>
	<polygon class="st1" points="25.68,15.47 24.02,15.47 24.02,16.02 25.39,16.02 26.77,16.02 27.86,16.02 27.86,15.47 27.01,15.47 	
		"/>
</g>
</svg>
