<?xml version="1.0" encoding="utf-8"?>
<!-- Generator: Adobe Illustrator 23.0.2, SVG Export Plug-In . SVG Version: 6.00 Build 0)  -->
<svg version="1.1" id="Layer_1" xmlns="http://www.w3.org/2000/svg" xmlns:xlink="http://www.w3.org/1999/xlink" x="0px" y="0px"
	 width="32px" height="32px" viewBox="0 0 32 32" style="enable-background:new 0 0 32 32;" xml:space="preserve">
<style type="text/css">
	.st0{fill:none;}
	.st1{fill:#952524;}
</style>
<g>
	<rect y="0" class="st0" width="32" height="32"/>
</g>
<g>
	<path class="st1" d="M13.48,12.31l-2.91-0.77c-0.12-0.03-0.26,0.05-0.29,0.17c-0.02,0.06-0.01,0.13,0.03,0.18
		c0.03,0.06,0.08,0.1,0.15,0.11l2.91,0.77c0.01,0,0.04,0.01,0.06,0.01c0.11,0,0.2-0.07,0.23-0.18c0.02-0.07,0.01-0.13-0.02-0.19
		S13.54,12.33,13.48,12.31z"/>
	<path class="st1" d="M3.58,1.69L3.45,1.66l-2.52,9.71c-0.14,0.54-0.06,1.1,0.22,1.58c0.28,0.48,0.73,0.82,1.27,0.96l6.53,1.71
		l0.24,0.06L7.9,22.76H5.07l-0.01-0.25c-0.2-2.26-2.12-4.02-4.38-4.02H0v11.86h0.68c2.2,0,4.07-1.64,4.36-3.83l0.01-0.25h5.48
		l2.08-9.68l0.24,0.06l6.55,1.71c1.51,0.39,2.95-0.53,3.32-1.96l0.03-0.09l2,1.89c0.12,0.11,0.28,0.15,0.43,0.1
		c0.15-0.04,0.27-0.16,0.31-0.32l1.59-5.98l0.49,0.13c0.29,0.08,0.59,0.11,0.89,0.11c1.6,0,3-1.08,3.4-2.63l0.11-0.43L32,9.13
		L3.58,1.69z M4.1,25.93c0,1.77-1.36,3.26-3.12,3.42v-9.86c1.75,0.16,3.12,1.65,3.12,3.42V25.93z M10.15,25.78H5.07l0.01-0.25v-2.04
		l-0.01-0.25H8.3l1.35-7.44l0.24,0.06l2.01,0.53l0.24,0.06L10.15,25.78z M21.78,16.15c-0.12,0.45-0.4,0.83-0.81,1.07
		c-0.4,0.24-0.87,0.3-1.32,0.18L2.66,12.96c-0.28-0.07-0.52-0.25-0.67-0.51C1.84,12.2,1.8,11.9,1.88,11.62l1.51-5.82l19.74,5.17
		L21.78,16.15z M24.78,16.86l-1.75-1.64l1.05-4.02l2.07,0.54L24.78,16.86z M27.84,11.17L3.64,4.84l0.52-1.98l26.6,6.96
		C30.24,10.89,28.99,11.47,27.84,11.17z"/>
</g>
</svg>
