<?xml version="1.0" encoding="utf-8"?>
<!-- Generator: Adobe Illustrator 23.0.2, SVG Export Plug-In . SVG Version: 6.00 Build 0)  -->
<svg version="1.1" id="Layer_1" xmlns="http://www.w3.org/2000/svg" xmlns:xlink="http://www.w3.org/1999/xlink" x="0px" y="0px"
	 width="32px" height="32px" viewBox="0 0 32 32" style="enable-background:new 0 0 32 32;" xml:space="preserve">
<style type="text/css">
	.st0{fill:none;}
	.st1{fill:#952524;}
</style>
<rect class="st0" width="32" height="32"/>
<g>
	<path class="st1" d="M31.07,7.08c-3.92-1.4-7.15-5.81-7.28-6l-0.16-0.23l-0.28,0.02C21.74,1,20.2,1.08,18.75,1.1
		C17.81,1.13,16.88,1.14,16,1.13l0-0.05v0.05c-0.74,0-1.4-0.01-2.02-0.02c-1.65,0-3.44-0.08-5.33-0.24L8.38,0.85L8.22,1.08
		c-0.03,0.04-3.3,4.58-7.28,6L0.61,7.19l0,0.34c0,0.19-0.02,19.13,15.29,23.6l0.1,0.02l0.11-0.02c15.2-4.44,15.28-23.4,15.28-23.6
		l0-0.34L31.07,7.08z M30.4,7.93c-0.1,3.01-1.29,18.21-14.38,22.19L16,30.13l-0.02-0.01C2.89,26.15,1.7,10.94,1.6,7.93l0-0.06
		l0.06-0.02c3.54-1.43,6.38-4.91,7.17-5.94l0.03-0.04l0.05,0c0.07,0.01,7.28,0.64,14.21,0l0.05,0l0.03,0.04
		c0.79,1.03,3.63,4.51,7.17,5.94l0.05,0.02L30.4,7.93z"/>
	<path class="st1" d="M10.02,16.47c1.42-1.37,2.42-2.44,2.42-3.78c0-1.03-0.67-2.06-2.17-2.06c-0.74,0-1.45,0.25-2,0.72l-0.02,0.01
		l0.33,0.72l0.03-0.02c0.32-0.27,0.83-0.59,1.47-0.59c0.88,0,1.36,0.48,1.36,1.34c-0.01,1.02-0.77,1.91-2.6,3.64l-0.75,0.73v0.62
		h4.53v-0.84H9.48L10.02,16.47z"/>
	<path class="st1" d="M17.49,10.75h-1.07l-3.14,4.49v0.66h3.25v1.91h0.95V15.9h0.98v-0.8h-0.98V10.75z M16.55,12.18
		c-0.01,0.2-0.01,0.41-0.01,0.61v2.31h-2.23l1.7-2.37c0.12-0.21,0.24-0.4,0.35-0.6l0.2-0.36L16.55,12.18z"/>
	<path class="st1" d="M22.08,12.43c-0.33,0-0.67,0.09-0.97,0.27c-0.18,0.1-0.34,0.23-0.48,0.39l-0.2,0.23v-3.2h-0.97v7.67h0.97
		v-3.16c0-0.19,0.01-0.32,0.07-0.46c0.15-0.46,0.6-0.93,1.26-0.93c0.77,0,1.19,0.55,1.19,1.54v3.01h0.97v-3.11
		C23.92,13.02,22.93,12.43,22.08,12.43"/>
</g>
</svg>
