<?xml version="1.0" encoding="utf-8"?>
<!-- Generator: Adobe Illustrator 23.0.2, SVG Export Plug-In . SVG Version: 6.00 Build 0)  -->
<svg version="1.1" id="Layer_1" xmlns="http://www.w3.org/2000/svg" xmlns:xlink="http://www.w3.org/1999/xlink" x="0px" y="0px"
	 width="32px" height="32px" viewBox="0 0 32 32" style="enable-background:new 0 0 32 32;" xml:space="preserve">
<style type="text/css">
	.st0{fill:none;}
	.st1{fill:#972726;}
</style>
<g>
	<rect y="0" class="st0" width="32" height="32"/>
</g>
<g>
	<path class="st1" d="M16,0.7c-5.5,0-9.97,4.47-9.97,9.97c0,5.06,3.79,9.24,8.68,9.88l-0.74,1.61c-0.04,0.08-0.37,0.77-0.09,1.23
		c0.1,0.16,0.31,0.35,0.75,0.35h1.11v5.13c0,0.01,0.01,0.87-0.55,1.44c-0.33,0.33-0.8,0.5-1.4,0.5h-1.87
		c-0.14,0-0.25,0.11-0.25,0.25c0,0.14,0.11,0.25,0.25,0.25h1.87c0.74,0,1.33-0.22,1.76-0.66c0.7-0.72,0.69-1.75,0.69-1.79v-5.12
		l1.37,0c0.01,0,0.04,0,0.07,0c0.14,0,0.44-0.03,0.62-0.28c0.19-0.27,0.17-0.67-0.06-1.19c-0.31-0.69-0.57-1.33-0.75-1.75
		c4.79-0.73,8.47-4.86,8.47-9.84C25.97,5.17,21.5,0.7,16,0.7 M17.8,22.46c0.22,0.49,0.14,0.66,0.11,0.69
		c-0.05,0.08-0.2,0.09-0.27,0.08h-3c-0.17,0-0.28-0.04-0.33-0.11c-0.11-0.18,0.03-0.58,0.11-0.75l0.81-1.78
		c0.25,0.02,0.51,0.04,0.77,0.04c0.33,0,0.66-0.02,0.99-0.05C17.16,21,17.46,21.7,17.8,22.46 M16,19.63c-4.94,0-8.97-4.02-8.97-8.97
		c0-4.94,4.02-8.97,8.97-8.97s8.97,4.02,8.97,8.97C24.97,15.61,20.94,19.63,16,19.63"/>
</g>
</svg>
