<?xml version="1.0" encoding="utf-8"?>
<!-- Generator: Adobe Illustrator 23.0.2, SVG Export Plug-In . SVG Version: 6.00 Build 0)  -->
<svg version="1.1" id="Layer_1" xmlns="http://www.w3.org/2000/svg" xmlns:xlink="http://www.w3.org/1999/xlink" x="0px" y="0px"
	 width="32px" height="32px" viewBox="0 0 32 32" style="enable-background:new 0 0 32 32;" xml:space="preserve">
<style type="text/css">
	.st0{fill:none;}
	.st1{fill:#952524;}
</style>
<rect class="st0" width="32" height="32"/>
<g>
	<path class="st1" d="M30.89,6.77H6.43c-0.13,0-0.25,0.05-0.35,0.14l-5.31,5.27c-0.09,0.09-0.14,0.22-0.14,0.35v12.21
		c0,0.27,0.22,0.49,0.49,0.49h29.78c0.27,0,0.49-0.22,0.49-0.49V7.26C31.38,6.99,31.16,6.77,30.89,6.77 M30.4,24.25H1.6V12.73
		l0.02-0.02l5-4.95H30.4V24.25z"/>
	<path class="st1" d="M11.78,10.69v10.69c0,0.6,0.49,1.09,1.09,1.09h13.98c0.6,0,1.09-0.49,1.09-1.09V10.69
		c0-0.6-0.49-1.09-1.09-1.09H12.87C12.27,9.6,11.78,10.09,11.78,10.69 M12.31,14.11h4.29v3.85h-4.29V14.11z M12.87,21.95
		c-0.31,0-0.57-0.25-0.57-0.57v-2.89h4.29v3.46H12.87z M27.42,18.49v2.89c0,0.31-0.25,0.57-0.57,0.57h-3.73v-3.46H27.42z
		 M27.42,17.97h-4.29v-3.85h4.29V17.97z M26.85,10.13c0.31,0,0.57,0.25,0.57,0.57v2.89h-4.29v-3.46H26.85z M22.6,21.95h-5.47V10.13
		h5.47V21.95z M16.6,10.13v3.46h-4.29v-2.89c0-0.31,0.25-0.57,0.57-0.57H16.6z"/>
</g>
</svg>
