<?xml version="1.0" encoding="utf-8"?>
<!-- Generator: Adobe Illustrator 23.0.2, SVG Export Plug-In . SVG Version: 6.00 Build 0)  -->
<svg version="1.1" id="Layer_1" xmlns="http://www.w3.org/2000/svg" xmlns:xlink="http://www.w3.org/1999/xlink" x="0px" y="0px"
	 width="32px" height="32px" viewBox="0 0 32 32" style="enable-background:new 0 0 32 32;" xml:space="preserve">
<style type="text/css">
	.st0{fill:none;}
	.st1{fill:#952524;}
</style>
<g>
	<rect y="0" class="st0" width="32" height="32"/>
</g>
<g>
	<path class="st1" d="M30.11,3.34H25.1V1.99c0-0.27-0.22-0.49-0.49-0.49c-0.27,0-0.49,0.22-0.49,0.49v1.35h-7.63V1.99
		c0-0.27-0.22-0.49-0.49-0.49c-0.27,0-0.49,0.22-0.49,0.49v1.35h-7.7V1.99c0-0.27-0.22-0.49-0.49-0.49c-0.27,0-0.49,0.22-0.49,0.49
		v1.35H1.89c-1.06,0-1.91,0.86-1.91,1.92v23.34c0,1.05,0.86,1.91,1.91,1.91h28.21c1.05,0,1.91-0.86,1.91-1.91V5.25
		C32.02,4.19,31.16,3.34,30.11,3.34z M0.96,10.53h27.47c0.24-0.03,0.42-0.23,0.43-0.48v-0.02c-0.01-0.24-0.2-0.45-0.44-0.47H0.96
		V5.25c0-0.52,0.42-0.94,0.94-0.94h4.94v1.34c0,0.27,0.22,0.49,0.49,0.49c0.27,0,0.49-0.22,0.49-0.49V4.31h7.7v1.34
		c0,0.27,0.22,0.49,0.49,0.49c0.27,0,0.49-0.22,0.49-0.49V4.31h7.63v1.34c0,0.27,0.22,0.49,0.49,0.49c0.27,0,0.49-0.22,0.49-0.49
		V4.31h5.01c0.52,0,0.94,0.42,0.94,0.94v23.34c0,0.52-0.42,0.94-0.94,0.94H1.89c-0.52,0-0.94-0.42-0.94-0.94V10.53z"/>
	<path class="st1" d="M8.7,27.25h14.6c0.16,0,0.29-0.13,0.29-0.29c0-0.16-0.13-0.28-0.29-0.28h-0.67v-5.61
		c0-0.74-0.6-1.35-1.35-1.35h-3.77v-2.51c0-0.38-0.16-0.75-0.44-1.02l-0.14-0.14l0.16-0.14c0.46-0.53,0.51-1.26,0.13-1.82
		l-0.86-1.25c-0.06-0.09-0.17-0.15-0.28-0.15c-0.11,0-0.21,0.06-0.27,0.14l-0.85,1.21c-0.38,0.54-0.35,1.28,0.08,1.79l0.22,0.19l0,0
		c0.01,0,0.02,0.01,0.03,0.02c-0.06,0.02-0.13,0.06-0.19,0.12c-0.29,0.27-0.45,0.65-0.45,1.03v2.51H10.9c-0.74,0-1.35,0.6-1.35,1.35
		v5.61H8.7c-0.16,0-0.28,0.13-0.28,0.28C8.42,27.12,8.55,27.25,8.7,27.25z M16.96,17.22v2.51h-1.72v-2.51
		c0-0.47,0.39-0.86,0.86-0.86C16.57,16.36,16.96,16.74,16.96,17.22z M16.7,15.52c-0.15,0.17-0.35,0.27-0.58,0.27
		c-0.24,0-0.45-0.1-0.6-0.28c-0.29-0.34-0.32-0.79-0.08-1.13l0.65-0.93l0.67,0.98C16.99,14.76,16.97,15.21,16.7,15.52z M22.07,23.44
		v3.24H10.12v-3.24H22.07z M10.9,20.3h10.39c0.43,0,0.78,0.35,0.78,0.78v1.8H10.12v-1.8C10.12,20.64,10.47,20.3,10.9,20.3z"/>
</g>
</svg>
