<?xml version="1.0" encoding="utf-8"?>
<!-- Generator: Adobe Illustrator 23.0.2, SVG Export Plug-In . SVG Version: 6.00 Build 0)  -->
<svg version="1.1" id="Layer_1" xmlns="http://www.w3.org/2000/svg" xmlns:xlink="http://www.w3.org/1999/xlink" x="0px" y="0px"
	 width="32px" height="32px" viewBox="0 0 32 32" style="enable-background:new 0 0 32 32;" xml:space="preserve">
<style type="text/css">
	.st0{fill:none;}
	.st1{fill:#952524;}
</style>
<rect class="st0" width="32" height="32"/>
<g>
	<path class="st1" d="M25.03,4.38c-1.29,0-2.52,0.42-3.56,1.2l-0.06,0.05l-0.05-0.05c-1.85-1.89-3.75-2.8-5.64-2.67
		c-2.19,0.14-3.89,1.6-4.92,2.79l-0.05,0.06L10.69,5.7C9.64,4.85,8.32,4.38,6.97,4.38c-3.25,0-5.9,2.65-5.9,5.9
		c0,0.46,0.06,0.94,0.18,1.43l0.02,0.08l0,0c0.01,0.03,0.02,0.06,0.03,0.1c0.07,0.22,0.19,0.57,0.4,1.01
		c0.01,0.03,0.02,0.05,0.03,0.06l0.07,0.14c0.57,1.16,1.68,2.84,3.75,4.3l1.46,1.13c0.05,0.05,0.43,0.46,0.43,1.6v8.99h16.95v-8.71
		c0-0.45,0.12-1.47,0.5-1.74c0.06-0.04,0.14-0.1,0.25-0.17l0.06-0.04c1.07-0.71,3.93-2.58,5.2-5.74c0.12-0.29,0.24-0.59,0.32-0.91
		l0.02-0.08c0.12-0.49,0.19-0.97,0.19-1.44C30.93,7.02,28.28,4.38,25.03,4.38 M8.42,28.13v-3.26h14.99l0,3.26H8.42z M29.68,11.82
		l-0.03,0.09c-0.04,0.12-0.08,0.25-0.13,0.37c-0.54,1.38-1.48,2.66-2.79,3.81c-0.84,0.74-1.66,1.28-2.06,1.54
		c-0.15,0.1-0.27,0.18-0.35,0.24c-0.86,0.63-0.9,2.22-0.9,2.53v3.92H20.1c0.05-7.72,3.88-9.53,3.92-9.55l-0.23-0.5
		c-0.17,0.08-4.21,1.94-4.25,10.05h-3.32v-9.52h-0.56v9.52h-3.32c-0.05-8.11-4.08-9.98-4.25-10.05l-0.23,0.5
		c0.04,0.02,3.87,1.79,3.92,9.55H8.42v-4.2c0-1.67-0.71-2.29-0.79-2.35l-1.5-1.16c-0.2-0.14-0.4-0.29-0.6-0.46
		c-1.66-1.33-2.54-2.79-2.98-3.78C2.48,12.24,2.42,12.11,2.38,12c-0.22-0.57-0.33-1.15-0.33-1.72c0-2.71,2.21-4.92,4.92-4.92
		c1.13,0,2.2,0.39,3.11,1.13c0.29,0.24,0.54,0.49,0.76,0.77c0.13-0.19,0.36-0.5,0.67-0.87c0.93-1.08,2.42-2.4,4.29-2.52
		c1.58-0.11,3.22,0.69,4.85,2.36c0.24,0.24,0.48,0.51,0.73,0.8c0.25-0.29,0.51-0.52,0.79-0.73C23,5.68,24,5.36,25.03,5.36
		c2.71,0,4.92,2.21,4.92,4.92C29.95,10.77,29.86,11.27,29.68,11.82"/>
</g>
</svg>
