<?xml version="1.0" encoding="utf-8"?>
<!-- Generator: Adobe Illustrator 23.0.2, SVG Export Plug-In . SVG Version: 6.00 Build 0)  -->
<svg version="1.1" id="Layer_1" xmlns="http://www.w3.org/2000/svg" xmlns:xlink="http://www.w3.org/1999/xlink" x="0px" y="0px"
	 width="32px" height="32px" viewBox="0 0 32 32" style="enable-background:new 0 0 32 32;" xml:space="preserve">
<style type="text/css">
	.st0{fill:none;}
	.st1{fill:#952524;}
</style>
<g>
	<rect y="0" class="st0" width="32" height="32"/>
</g>
<g>
	<path class="st1" d="M16,26.06c4.38,0,7.94-3.56,7.94-7.94c0-4.38-3.56-7.94-7.94-7.94c-4.38,0-7.94,3.56-7.94,7.94
		C8.06,22.5,11.62,26.06,16,26.06z M16,11.18c3.83,0,6.95,3.11,6.95,6.94c0,3.83-3.12,6.94-6.95,6.94c-3.83,0-6.94-3.11-6.94-6.94
		C9.06,14.29,12.17,11.18,16,11.18z"/>
	<path class="st1" d="M16,22.38c2.35,0,4.26-1.91,4.26-4.25c0-2.35-1.91-4.25-4.26-4.25c-2.34,0-4.25,1.91-4.25,4.25
		C11.75,20.47,13.65,22.38,16,22.38z M16,14.36c2.07,0,3.76,1.69,3.76,3.76s-1.69,3.76-3.76,3.76c-2.07,0-3.76-1.69-3.76-3.76
		S13.93,14.36,16,14.36z"/>
	<path class="st1" d="M6.88,3.18c-0.61,0-1.1,0.49-1.1,1.1c0,0.61,0.49,1.1,1.1,1.1c0.6,0,1.1-0.49,1.1-1.1
		C7.98,3.67,7.48,3.18,6.88,3.18z"/>
	<path class="st1" d="M26.84,1.4H5.16c-1.13,0-2.04,0.92-2.04,2.05v25.12c0,1.13,0.92,2.05,2.04,2.05h21.68
		c1.13,0,2.05-0.92,2.05-2.05V3.44C28.89,2.31,27.97,1.4,26.84,1.4z M27.89,7.48v21.08c0,0.58-0.47,1.05-1.05,1.05H5.16
		c-0.58,0-1.05-0.47-1.05-1.05V7.48V7.23h23.79V7.48z M27.89,6.49v0.25H4.11V6.49V3.44c0-0.58,0.47-1.05,1.05-1.05h21.68
		c0.58,0,1.05,0.47,1.05,1.05V6.49z"/>
</g>
</svg>
