<?xml version="1.0" encoding="utf-8"?>
<!-- Generator: Adobe Illustrator 23.0.2, SVG Export Plug-In . SVG Version: 6.00 Build 0)  -->
<svg version="1.1" id="Layer_1" xmlns="http://www.w3.org/2000/svg" xmlns:xlink="http://www.w3.org/1999/xlink" x="0px" y="0px"
	 width="32px" height="32px" viewBox="0 0 32 32" style="enable-background:new 0 0 32 32;" xml:space="preserve">
<style type="text/css">
	.st0{fill:none;}
	.st1{fill:#952624;}
</style>
<rect class="st0" width="32" height="32"/>
<g>
	<path class="st1" d="M28.09,29.07H3.91c-1.91,0-3.47-1.56-3.47-3.47V6.4c0-1.91,1.56-3.47,3.47-3.47h24.18
		c1.91,0,3.47,1.56,3.47,3.47v19.2C31.56,27.51,30,29.07,28.09,29.07 M3.91,3.93c-1.36,0-2.47,1.11-2.47,2.47v19.2
		c0,1.36,1.11,2.47,2.47,2.47h24.18c1.36,0,2.47-1.11,2.47-2.47V6.4c0-1.36-1.11-2.47-2.47-2.47H3.91z"/>
	<path class="st1" d="M13.92,22.12c-3.52,0-6.38-2.86-6.38-6.38c0-3.52,2.86-6.38,6.38-6.38s6.38,2.86,6.38,6.38
		C20.3,19.26,17.44,22.12,13.92,22.12 M13.92,10.05c-3.13,0-5.68,2.55-5.68,5.68c0,3.13,2.55,5.68,5.68,5.68s5.68-2.55,5.68-5.68
		C19.6,12.6,17.05,10.05,13.92,10.05"/>
	<path class="st1" d="M18.46,15.4h-1.01c-0.04-0.41-0.14-0.8-0.31-1.16l0.86-0.51c0.16-0.09,0.22-0.3,0.12-0.46
		c-0.1-0.16-0.3-0.21-0.46-0.12l-0.87,0.51c-0.23-0.32-0.52-0.61-0.85-0.84l0.49-0.87c0.09-0.16,0.03-0.37-0.13-0.46
		c-0.16-0.09-0.37-0.03-0.46,0.13l-0.49,0.87c-0.34-0.15-0.71-0.24-1.1-0.27v-1.01c0-0.19-0.15-0.34-0.34-0.34
		c-0.19,0-0.34,0.15-0.34,0.34v1.01c-0.4,0.04-0.79,0.14-1.14,0.3l-0.5-0.87c-0.09-0.16-0.3-0.22-0.46-0.13
		c-0.16,0.09-0.22,0.3-0.12,0.46l0.5,0.87c-0.33,0.23-0.61,0.52-0.84,0.84l-0.87-0.5c-0.16-0.09-0.37-0.04-0.46,0.13
		c-0.09,0.16-0.04,0.37,0.13,0.46l0.87,0.5c-0.16,0.35-0.25,0.73-0.29,1.12H9.37c-0.19,0-0.34,0.15-0.34,0.34
		c0,0.19,0.15,0.34,0.34,0.34h1.01c0.04,0.41,0.14,0.8,0.31,1.16l-0.87,0.51c-0.16,0.1-0.21,0.3-0.12,0.47
		c0.06,0.11,0.17,0.17,0.29,0.17c0.06,0,0.12-0.02,0.17-0.05l0.87-0.51c0.23,0.32,0.52,0.61,0.85,0.84l-0.49,0.87
		c-0.09,0.16-0.03,0.37,0.13,0.46c0.05,0.03,0.11,0.04,0.17,0.04c0.12,0,0.23-0.06,0.3-0.17L12.48,19c0.29,0.13,0.61,0.2,0.94,0.25
		c-0.01,0-0.03,0-0.04,0v1.01c0,0.19,0.15,0.34,0.34,0.34c0.19,0,0.34-0.15,0.34-0.34v-0.96c0.07-0.01,0.13-0.01,0.2-0.02
		c0.4-0.04,0.79-0.13,1.14-0.3l0.5,0.87c0.06,0.11,0.18,0.17,0.29,0.17c0.06,0,0.12-0.02,0.17-0.05c0.16-0.1,0.22-0.3,0.12-0.46
		l-0.5-0.87c0.33-0.23,0.61-0.52,0.84-0.85l0.87,0.5c0.05,0.03,0.11,0.04,0.17,0.04c0.12,0,0.23-0.06,0.29-0.17
		c0.09-0.16,0.04-0.37-0.13-0.46l-0.87-0.5c0.16-0.35,0.25-0.73,0.29-1.12h1.01c0.19,0,0.34-0.15,0.34-0.34
		C18.8,15.55,18.65,15.4,18.46,15.4 M16.77,16.08c-0.03,0.27-0.09,0.54-0.19,0.79c-0.09,0.21-0.21,0.4-0.35,0.59
		c-0.17,0.23-0.37,0.42-0.59,0.59c-0.18,0.14-0.37,0.26-0.58,0.35c-0.25,0.11-0.52,0.17-0.8,0.2c-0.11,0.01-0.22,0.03-0.34,0.03
		c-0.12,0-0.23-0.02-0.34-0.03c-0.27-0.03-0.53-0.09-0.77-0.19c-0.21-0.09-0.41-0.21-0.59-0.34C12,17.9,11.8,17.7,11.63,17.48
		c-0.14-0.18-0.26-0.37-0.35-0.58c-0.11-0.25-0.18-0.53-0.21-0.82c-0.01-0.11-0.03-0.22-0.03-0.34c0-0.12,0.02-0.23,0.03-0.34
		c0.03-0.27,0.09-0.54,0.19-0.79c0.09-0.21,0.21-0.4,0.35-0.59c0.17-0.22,0.36-0.42,0.59-0.59c0.18-0.14,0.37-0.26,0.58-0.35
		c0.25-0.11,0.52-0.17,0.8-0.2c0.11-0.01,0.22-0.03,0.34-0.03c0.12,0,0.23,0.02,0.34,0.03c0.27,0.03,0.53,0.09,0.77,0.19
		c0.21,0.09,0.41,0.21,0.59,0.34c0.23,0.17,0.43,0.36,0.6,0.59c0.14,0.18,0.26,0.37,0.35,0.58c0.11,0.26,0.18,0.53,0.21,0.82
		c0.01,0.11,0.03,0.22,0.03,0.34C16.81,15.85,16.79,15.96,16.77,16.08"/>
	<rect x="23.96" y="9.82" class="st1" width="0.5" height="11.42"/>
	<path class="st1" d="M26.3,25.86H5.78c-0.97,0-1.77-0.79-1.77-1.77V7.92c0-0.97,0.79-1.77,1.77-1.77H26.3
		c0.97,0,1.77,0.79,1.77,1.77v16.17C28.06,25.07,27.27,25.86,26.3,25.86 M5.78,6.65c-0.7,0-1.27,0.57-1.27,1.27v16.17
		c0,0.7,0.57,1.27,1.27,1.27H26.3c0.7,0,1.27-0.57,1.27-1.27V7.92c0-0.7-0.57-1.27-1.27-1.27H5.78z"/>
</g>
</svg>
