<?xml version="1.0" encoding="utf-8"?>
<!-- Generator: Adobe Illustrator 23.0.2, SVG Export Plug-In . SVG Version: 6.00 Build 0)  -->
<svg version="1.1" id="Layer_1" xmlns="http://www.w3.org/2000/svg" xmlns:xlink="http://www.w3.org/1999/xlink" x="0px" y="0px"
	 width="32px" height="32px" viewBox="0 0 32 32" style="enable-background:new 0 0 32 32;" xml:space="preserve">
<style type="text/css">
	.st0{fill:none;}
	.st1{fill:#952524;}
</style>
<rect class="st0" width="32" height="32"/>
<g>
	<path class="st1" d="M26.9,13.54l-0.13-0.03l-0.13,0.04c-0.21,0.06-1.27,0.35-2.08-0.12c-1.35-0.77-2.62,0.01-2.67,0.04
		c-0.12,0.09-0.81,0.52-1.78-0.43c-1.31-1.29-3-0.54-3.79,0.1c-0.08,0.08-0.9,0.83-2.26-0.39c-0.6-0.54-1.24-0.79-1.97-0.75
		c-1.32,0.07-2.29,1.17-2.3,1.17c-0.12,0.14-0.43,0.41-0.77,0.44c-0.22,0.02-0.44-0.07-0.66-0.26c-0.59-0.51-1.1-0.54-1.42-0.48
		c-0.7,0.14-1.03,0.78-1.07,0.85L5.83,13.9c-0.01,0.05-0.06,0.26-0.38,0.26c-0.02,0-0.03,0-0.05,0c-0.62,0-1.2,0.48-1.34,1.14
		c-0.07,0.32-0.18,1.4,1.43,2.09l0.08,0.03c0.02,0.01,3.23,0.8,4.68,2.9c1.13,1.64,2.27,2.61,2.85,3.05l0.06,0.04l-0.04,0.06
		c-0.39,0.69-1.1,2-1.42,2.94c-0.33,0.98-1.05,1.95-1.3,2.27l0,0l-0.04,0.04c-0.03,0.03-0.6,0.66-0.48,1.4
		c0.05,0.29,0.23,0.71,0.82,1.04c0.28,0.14,0.97,0.21,2.35-0.94c0.27-0.23,0.55-0.32,0.81-0.32c0.41,0,0.78,0.23,1.05,0.53
		c0.09,0.09,0.9,0.89,1.98,0.89c0.03,0,0.05,0,0.08,0c0.65-0.02,1.23-0.34,1.73-0.93c0,0,0.31-0.36,0.68-0.38
		c0.19-0.02,0.41,0.09,0.63,0.31c0.77,0.77,1.65,0.64,2.13,0.19c0.54-0.5,0.6-1.29,0.13-1.83c-0.67-0.78-2.43-3.61-2.65-5.29
		l-0.01-0.04l0.03-0.03c0.39-0.34,1.1-1.05,1.5-1.93c0.43-0.95,3.64-3.75,4.19-3.98c0.63-0.19,1.85-1.41,2.34-1.92l0.07-0.1
		c0.01-0.02,0.34-0.59,0.1-1.15C27.78,14,27.52,13.68,26.9,13.54 M21.56,29.32c0.14,0.17,0.06,0.36-0.05,0.47
		c-0.1,0.09-0.36,0.25-0.78-0.16c-0.56-0.55-1.11-0.61-1.38-0.59c-0.79,0.04-1.33,0.66-1.39,0.73c-0.31,0.37-0.64,0.56-1,0.57
		c-0.02,0-0.03,0-0.05,0c-0.57,0-1.07-0.4-1.24-0.55h-0.01l-0.03-0.03c-0.6-0.69-1.95-1.34-3.2-0.29c-0.75,0.63-1.16,0.75-1.3,0.78
		l-0.04,0.01l-0.03-0.02c-0.12-0.09-0.19-0.17-0.2-0.27c-0.03-0.2,0.13-0.47,0.25-0.61c0.01-0.01,1.06-1.29,1.52-2.64
		c0.36-1.06,1.3-2.7,1.58-3.18l0.07-0.11l4.37-0.1l0.01,0.08C18.89,25.53,21.03,28.7,21.56,29.32 M26.96,14.85l-0.02,0.03
		c-0.58,0.6-1.53,1.49-1.85,1.59c-0.75,0.23-4.26,3.31-4.8,4.51c-0.32,0.69-0.89,1.27-1.2,1.55l-0.02,0.02l-0.02,0
		c-0.24,0.04-0.57,0.04-0.81-0.18l-0.03-0.03l0.01-0.04c0.14-0.94,0.3-2.13,0.34-3.36c-0.32,1.21-0.75,2.35-1.14,3.33l-0.02,0.03
		c-0.35,0.32-0.68,0.42-0.97,0.42c-0.46,0-0.81-0.27-0.94-0.39l-0.02-0.03c-0.39-0.99-0.83-2.14-1.15-3.37
		c0.04,1.22,0.19,2.39,0.33,3.32l0.01,0.04l-0.02,0.03c-0.19,0.23-0.52,0.31-0.95,0.23l-0.04-0.02c-0.64-0.49-1.6-1.37-2.57-2.77
		c-1.59-2.3-4.85-3.19-5.22-3.28c-0.61-0.27-0.91-0.61-0.83-0.96c0.05-0.21,0.23-0.37,0.37-0.37c0.01,0,0.03,0,0.04,0
		c0.76,0,1.23-0.51,1.36-1l0.01-0.03c0.05-0.07,0.18-0.24,0.36-0.27c0.21-0.04,0.44,0.13,0.59,0.26c0.42,0.36,0.9,0.54,1.39,0.49
		c0.86-0.08,1.41-0.76,1.41-0.77c0.15-0.17,1.51-1.57,2.87-0.34c1.77,1.6,3.18,0.81,3.58,0.38c0.02-0.02,1.41-1.14,2.44-0.12
		c1.36,1.34,2.64,0.85,3.01,0.54c0.02-0.01,0.82-0.47,1.64,0c1.02,0.59,2.23,0.37,2.7,0.25l0.03-0.01l0.02,0.01
		c0.05,0.02,0.08,0.04,0.1,0.05h0.04l0.02,0.06C27.01,14.72,26.96,14.83,26.96,14.85"/>
	<path class="st1" d="M14.19,10.11c1.79,1.24,3.31,1.13,4.4-0.31c0.64-0.84,2.12-4.13,2.02-7.28c0-0.02-0.06-0.69-0.58-0.99
		c-0.35-0.2-0.79-0.19-1.3,0.04L18.46,1.7c-0.06,0.03-0.6,0.28-0.7,0.28h-0.02l-0.02-0.01c-0.05-0.02-0.15-0.1-0.43-0.49
		c-0.36-0.51-0.87-0.79-1.42-0.8c-0.5-0.02-1.01,0.22-1.31,0.61c-0.12,0.16-0.22,0.36-0.32,0.58c-0.2,0.4-0.38,0.76-0.57,0.81
		c-0.11,0.03-0.25-0.04-0.35-0.11c-0.25-0.16-1.02-0.66-1.57-0.32c-0.17,0.1-0.43,0.37-0.36,0.98C11.42,3.45,11.95,8.56,14.19,10.11
		 M12.22,3.13l0.06-0.01L12.22,3.13l-0.01-0.17l0.12,0.03c0.1,0.03,0.28,0.1,0.55,0.28c0.36,0.23,0.7,0.3,1.02,0.21
		c0.57-0.16,0.86-0.76,1.09-1.24c0.1-0.2,0.17-0.36,0.24-0.44c0.1-0.13,0.33-0.29,0.62-0.29l0.03,0c0.27,0,0.53,0.16,0.74,0.45
		c0.77,1.08,1.14,0.98,2.19,0.48l0.26-0.12c0.24-0.11,0.43-0.14,0.53-0.08c0.11,0.06,0.17,0.26,0.17,0.32
		c0.09,2.89-1.29,5.98-1.85,6.73c-0.33,0.43-0.76,0.84-1.45,0.84c-0.47,0-1.06-0.2-1.82-0.72c-1.6-1.11-2.3-4.91-2.43-6.28
		l0.06-0.02L12.22,3.13z"/>
	<path class="st1" d="M31.46,5.02c-0.22-0.34-0.62-0.52-1.18-0.54l-0.29-0.01c-0.46-0.01-0.68-0.03-0.76-0.07l-0.02-0.02
		c-0.04-0.04-0.09-0.15-0.16-0.63c-0.09-0.62-0.41-1.1-0.9-1.36c-0.45-0.24-1.01-0.25-1.44-0.04c-0.17,0.08-0.35,0.21-0.53,0.36
		l-0.02,0.02c-0.47,0.35-0.73,0.49-0.87,0.46c-0.1-0.02-0.2-0.15-0.26-0.25c-0.17-0.29-0.58-1-1.19-1c-0.02,0-0.05,0-0.07,0
		C23.56,1.96,23.2,2.08,23,2.65c-0.08,0.21-1.91,5.02-0.61,7.4c0.74,1.36,1.65,2.05,2.71,2.05c0.43,0,0.89-0.12,1.35-0.34
		c0.95-0.46,3.75-2.73,5.08-5.59C31.57,6.06,31.77,5.5,31.46,5.02 M30.77,5.83L30.77,5.83c-1.22,2.62-3.85,4.77-4.69,5.18
		c-0.28,0.14-0.61,0.26-0.97,0.26c-0.62,0-1.32-0.36-2-1.62c-0.93-1.71,0.16-5.42,0.66-6.7c0.01-0.03,0.02-0.05,0.02-0.06l0.05-0.11
		l0.09,0.08c0.11,0.11,0.24,0.28,0.37,0.5c0.21,0.36,0.49,0.58,0.82,0.64c0.59,0.11,1.1-0.29,1.52-0.61
		c0.18-0.14,0.32-0.25,0.42-0.29c0.16-0.08,0.44-0.1,0.7,0.03c0.25,0.13,0.42,0.39,0.47,0.75c0.2,1.31,0.58,1.38,1.74,1.42
		l0.29,0.01c0.26,0.01,0.44,0.07,0.51,0.16C30.83,5.57,30.79,5.78,30.77,5.83"/>
	<path class="st1" d="M6.91,12.1c1.06,0,1.97-0.69,2.71-2.05c1.3-2.39-0.53-7.19-0.61-7.39C8.8,2.08,8.44,1.96,8.25,1.94
		C7.6,1.89,7.19,2.59,7.01,2.89L6.99,2.93C6.94,3.02,6.84,3.16,6.72,3.18c-0.14,0.04-0.4-0.1-0.87-0.46
		C5.66,2.57,5.48,2.44,5.3,2.35C5.1,2.25,4.87,2.2,4.64,2.2c-0.27,0-0.54,0.06-0.78,0.19C3.37,2.65,3.05,3.13,2.95,3.75
		C2.87,4.28,2.82,4.35,2.8,4.37L2.78,4.39C2.7,4.44,2.47,4.45,2.01,4.46L1.72,4.47c-0.56,0.02-0.96,0.2-1.18,0.55
		C0.23,5.51,0.44,6.08,0.48,6.2c1.32,2.84,4.12,5.1,5.07,5.56C6.02,11.98,6.47,12.1,6.91,12.1 M1.25,5.87L1.25,5.87
		c-0.03-0.09-0.08-0.29,0-0.4C1.3,5.37,1.49,5.31,1.75,5.3l0.29-0.01C3.2,5.26,3.57,5.19,3.77,3.87c0.06-0.36,0.22-0.61,0.47-0.75
		c0.22-0.11,0.51-0.12,0.7-0.03c0.1,0.05,0.24,0.16,0.41,0.28C5.77,3.71,6.3,4.11,6.88,4c0.33-0.06,0.6-0.28,0.82-0.64
		c0.17-0.28,0.29-0.43,0.37-0.5l0.09-0.09l0.07,0.16c0.5,1.3,1.59,5.01,0.66,6.72c-0.68,1.25-1.37,1.62-1.99,1.62
		c-0.35,0-0.68-0.12-0.98-0.27C5.08,10.6,2.45,8.46,1.25,5.87"/>
</g>
</svg>
