<?xml version="1.0" encoding="utf-8"?>
<!-- Generator: Adobe Illustrator 23.0.2, SVG Export Plug-In . SVG Version: 6.00 Build 0)  -->
<svg version="1.1" id="Layer_1" xmlns="http://www.w3.org/2000/svg" xmlns:xlink="http://www.w3.org/1999/xlink" x="0px" y="0px"
	 width="32px" height="32px" viewBox="0 0 32 32" style="enable-background:new 0 0 32 32;" xml:space="preserve">
<style type="text/css">
	.st0{fill:none;}
	.st1{fill:#972726;}
</style>
<rect class="st0" width="32" height="32"/>
<g>
	<g>
		<path class="st1" d="M28.76,31.38H3.78c-1.04,0-1.88-0.84-1.88-1.88c0-5.67,4.61-10.28,10.28-10.28h7.66
			c5.67,0,10.28,4.61,10.28,10.28v0.54C30.11,30.78,29.5,31.38,28.76,31.38z M12.17,20.37c-5.03,0-9.13,4.09-9.13,9.13
			c0,0.4,0.33,0.73,0.73,0.73h24.99c0.11,0,0.2-0.09,0.2-0.2V29.5c0-5.03-4.09-9.13-9.13-9.13H12.17z"/>
	</g>
	<g>
		<path class="st1" d="M16,16.94c-4.5,0-8.16-3.66-8.16-8.16S11.5,0.62,16,0.62c4.5,0,8.16,3.66,8.16,8.16S20.5,16.94,16,16.94z
			 M16,1.77c-3.87,0-7.01,3.15-7.01,7.01s3.15,7.01,7.01,7.01s7.01-3.15,7.01-7.01S19.87,1.77,16,1.77z"/>
	</g>
	<g>
		<rect x="22.72" y="24.61" class="st1" width="1.15" height="4.46"/>
	</g>
	<g>
		<rect x="21.06" y="26.27" class="st1" width="4.46" height="1.15"/>
	</g>
	<g>
		<g>
			<path class="st1" d="M13.82,20.21h4.41l-1.28,1.28c0,0,0.7,2.47,2.06,3.02h-6.03c1.36-0.54,2.06-3.02,2.06-3.02l-1.28-1.28"/>
		</g>
	</g>
	<g>
		<polyline class="st1" points="12.99,24.5 15.93,27.51 19.01,24.5 		"/>
	</g>
	<g>
		<path class="st1" d="M15.94,28.57c-0.15,0-0.29-0.06-0.41-0.17l-7.48-7.48l0.81-0.81l7.08,7.08l6.95-6.95l0.81,0.81l-7.36,7.35
			C16.23,28.51,16.08,28.57,15.94,28.57z"/>
	</g>
</g>
</svg>
