<?xml version="1.0" encoding="utf-8"?>
<!-- Generator: Adobe Illustrator 23.0.2, SVG Export Plug-In . SVG Version: 6.00 Build 0)  -->
<svg version="1.1" id="Layer_1" xmlns="http://www.w3.org/2000/svg" xmlns:xlink="http://www.w3.org/1999/xlink" x="0px" y="0px"
	 width="32px" height="32px" viewBox="0 0 32 32" style="enable-background:new 0 0 32 32;" xml:space="preserve">
<style type="text/css">
	.st0{fill:none;}
	.st1{fill:#972726;}
</style>
<rect class="st0" width="32" height="32"/>
<g>
	<rect x="4.12" y="24.89" class="st1" width="23.77" height="0.55"/>
	<rect x="7.86" y="13.22" class="st1" width="0.98" height="6.12"/>
	<path class="st1" d="M21,11.18h-4.65v2.62h-2.78v4.65h2.78v2.62H21v-2.62h2.45v-4.65H21V11.18z M22.47,14.77v2.69h-2.45v2.62h-2.69
		v-2.62h-2.78v-2.69h2.78v-2.62h2.69v2.62H22.47z"/>
	<path class="st1" d="M27.07,0.84H4.93c-0.96,0-1.75,0.78-1.75,1.75v26.83c0,0.96,0.78,1.75,1.75,1.75h22.14
		c0.96,0,1.75-0.78,1.75-1.75V2.58C28.82,1.62,28.03,0.84,27.07,0.84 M27.84,29.42c0,0.42-0.34,0.77-0.77,0.77H4.93
		c-0.42,0-0.77-0.34-0.77-0.77V2.58c0-0.42,0.34-0.77,0.77-0.77h22.14c0.42,0,0.77,0.34,0.77,0.77V29.42z"/>
	<rect x="4.13" y="6.75" class="st1" width="23.73" height="0.55"/>
</g>
</svg>
