<?xml version="1.0" encoding="utf-8"?>
<!-- Generator: Adobe Illustrator 23.0.2, SVG Export Plug-In . SVG Version: 6.00 Build 0)  -->
<svg version="1.1" id="Layer_1" xmlns="http://www.w3.org/2000/svg" xmlns:xlink="http://www.w3.org/1999/xlink" x="0px" y="0px"
	 width="32px" height="32px" viewBox="0 0 32 32" style="enable-background:new 0 0 32 32;" xml:space="preserve">
<style type="text/css">
	.st0{fill:none;}
	.st1{fill:#952524;}
</style>
<g>
	<rect y="0" class="st0" width="32" height="32"/>
</g>
<g>
	<path class="st1" d="M16,16.04c3.32,0,6.03-2.71,6.03-6.03c0-3.33-2.71-6.03-6.03-6.03c-3.32,0-6.03,2.71-6.03,6.03
		C9.97,13.34,12.68,16.04,16,16.04z M16,4.97c2.78,0,5.05,2.26,5.05,5.04c0,2.78-2.26,5.05-5.05,5.05c-2.78,0-5.04-2.26-5.04-5.05
		C10.95,7.23,13.22,4.97,16,4.97z"/>
	<path class="st1" d="M16,18.36c-6.56,0-11.33,3.31-11.33,7.88c0,0.99,0.8,1.79,1.79,1.79h19.09c0.99,0,1.79-0.8,1.79-1.79
		C27.33,21.67,22.56,18.36,16,18.36z M25.54,27.04H6.46c-0.44,0-0.8-0.36-0.8-0.8c0-3.87,4.35-6.77,10.34-6.89
		c5.71,0,10.35,3.09,10.35,6.89C26.35,26.68,25.99,27.04,25.54,27.04z"/>
</g>
</svg>
