<?xml version="1.0" encoding="utf-8"?>
<!-- Generator: Adobe Illustrator 23.0.2, SVG Export Plug-In . SVG Version: 6.00 Build 0)  -->
<svg version="1.1" id="Layer_1" xmlns="http://www.w3.org/2000/svg" xmlns:xlink="http://www.w3.org/1999/xlink" x="0px" y="0px"
	 width="32px" height="32px" viewBox="0 0 32 32" style="enable-background:new 0 0 32 32;" xml:space="preserve">
<style type="text/css">
	.st0{fill:none;}
	.st1{fill:#952524;}
</style>
<rect class="st0" width="32" height="32"/>
<g>
	<path class="st1" d="M24.12,19.01h-5.58c-4.16,0-7.54,3.38-7.54,7.54c0,0.71,0.58,1.3,1.3,1.3h18.08c0.71,0,1.3-0.58,1.3-1.3
		C31.66,22.39,28.28,19.01,24.12,19.01 M30.36,26.8H12.29c-0.14,0-0.25-0.11-0.25-0.25c0-3.58,2.91-6.5,6.5-6.5h5.58
		c3.58,0,6.5,2.91,6.5,6.5C30.61,26.69,30.5,26.8,30.36,26.8"/>
	<path class="st1" d="M10.91,17.38c0.1-0.01,0.19-0.07,0.23-0.15c0.02-0.03,1.36-2.57-0.59-4.84c-0.35-0.4-0.69-0.69-1.02-0.92h3.26
		c0.16,0,0.29-0.13,0.29-0.29c0-1.62-1.32-2.94-2.94-2.94H9.36c-0.02,0-0.05,0.01-0.08,0.01l2.17-3.17
		c0.08-0.11,0.07-0.26-0.02-0.36C11.41,4.69,10.78,4,9.76,4.16C8.69,4.32,7.67,5.36,6.72,7.24C5.79,5.36,4.77,4.3,3.68,4.1
		C2.6,3.9,1.89,4.61,1.86,4.64c-0.1,0.1-0.11,0.26-0.03,0.38l2.39,3.23c-0.06,0-0.11-0.02-0.17-0.02H3.28
		c-1.62,0-2.94,1.32-2.94,2.94c0,0.16,0.13,0.29,0.29,0.29h3.09c-0.38,0.3-0.59,0.58-0.6,0.58c-2.41,3.3-0.92,5.27-0.86,5.35
		c0.06,0.07,0.14,0.11,0.23,0.11h0c0.09,0,0.18-0.04,0.23-0.11l3.7-4.88v15.41H7V12.51l3.65,4.76
		C10.71,17.35,10.81,17.4,10.91,17.38 M10.14,8.82c1.2,0,2.2,0.9,2.34,2.07H8.34c-0.54-0.15-0.99-0.14-1.3-0.09
		c0.18-1.12,1.15-1.98,2.32-1.98H10.14z M9.84,4.73c0.45-0.08,0.8,0.1,1,0.23L8.48,8.39C7.89,8.58,7.37,8.94,7,9.44V7.97
		C8.16,5.49,9.18,4.84,9.84,4.73 M2.47,4.9c0.22-0.14,0.62-0.32,1.11-0.23C4.26,4.8,5.3,5.48,6.42,7.97v1.47
		c-0.34-0.46-0.8-0.81-1.34-1.01L2.47,4.9z M0.94,10.89c0.15-1.17,1.14-2.07,2.34-2.07h0.78c1.17,0,2.15,0.87,2.33,1.99
		c-0.6-0.12-1.13-0.07-1.58,0.08H0.94z M2.53,16.69C2.27,16.05,2,14.57,3.58,12.4c0.03-0.04,0.49-0.63,1.27-0.93h1.57v0.09
		L2.53,16.69z M7,11.47h1.25c0.54,0.16,1.18,0.52,1.85,1.3c1.25,1.46,0.96,3.01,0.71,3.74L7,11.55V11.47z"/>
	<path class="st1" d="M21.33,5.62c-3.12,0-5.65,2.53-5.65,5.65c0,3.12,2.53,5.65,5.65,5.65c3.11,0,5.65-2.53,5.65-5.65
		C26.97,8.16,24.44,5.62,21.33,5.62 M21.33,15.87c-2.54,0-4.6-2.06-4.6-4.6c0-2.54,2.06-4.6,4.6-4.6c2.54,0,4.6,2.06,4.6,4.6
		C25.93,13.81,23.86,15.87,21.33,15.87"/>
</g>
</svg>
