<?xml version="1.0" encoding="utf-8"?>
<!-- Generator: Adobe Illustrator 23.0.2, SVG Export Plug-In . SVG Version: 6.00 Build 0)  -->
<svg version="1.1" id="Layer_1" xmlns="http://www.w3.org/2000/svg" xmlns:xlink="http://www.w3.org/1999/xlink" x="0px" y="0px"
	 width="32px" height="32px" viewBox="0 0 32 32" style="enable-background:new 0 0 32 32;" xml:space="preserve">
<style type="text/css">
	.st0{fill:none;}
	.st1{fill:#972726;}
</style>
<g>
	<rect y="0" class="st0" width="32" height="32"/>
</g>
<g>
	<path class="st1" d="M16,0.75C7.59,0.75,0.75,7.59,0.75,16c0,8.41,6.84,15.25,15.25,15.25c8.41,0,15.25-6.84,15.25-15.25
		C31.25,7.59,24.41,0.75,16,0.75 M16,30.25C8.14,30.25,1.75,23.86,1.75,16S8.14,1.75,16,1.75S30.25,8.14,30.25,16
		S23.86,30.25,16,30.25"/>
	<path class="st1" d="M16,6.4c0.28,0,0.5-0.22,0.5-0.5V2.83c0-0.28-0.22-0.5-0.5-0.5s-0.5,0.22-0.5,0.5V5.9
		C15.5,6.17,15.72,6.4,16,6.4"/>
	<path class="st1" d="M16,25.6c-0.28,0-0.5,0.22-0.5,0.5v3.06c0,0.28,0.22,0.5,0.5,0.5s0.5-0.22,0.5-0.5V26.1
		C16.5,25.83,16.28,25.6,16,25.6"/>
	<path class="st1" d="M25.6,16c0,0.28,0.22,0.5,0.5,0.5h3.06c0.28,0,0.5-0.22,0.5-0.5c0-0.28-0.22-0.5-0.5-0.5H26.1
		C25.83,15.5,25.6,15.72,25.6,16"/>
	<path class="st1" d="M6.4,16c0-0.28-0.22-0.5-0.5-0.5H2.83c-0.28,0-0.5,0.22-0.5,0.5c0,0.28,0.22,0.5,0.5,0.5H5.9
		C6.17,16.5,6.4,16.28,6.4,16"/>
	<path class="st1" d="M24.35,8.19c0.13,0,0.26-0.05,0.35-0.15l0.93-0.93c0.19-0.19,0.19-0.51,0-0.71c-0.2-0.19-0.51-0.19-0.71,0
		L24,7.33c-0.19,0.2-0.19,0.51,0,0.71C24.09,8.14,24.22,8.19,24.35,8.19"/>
	<path class="st1" d="M7.3,24.03l-0.93,0.93c-0.19,0.2-0.19,0.51,0,0.71c0.1,0.1,0.23,0.15,0.35,0.15c0.13,0,0.26-0.05,0.35-0.15
		L8,24.74c0.19-0.19,0.19-0.51,0-0.71C7.81,23.84,7.49,23.84,7.3,24.03"/>
	<path class="st1" d="M7.07,6.4c-0.2-0.19-0.51-0.19-0.71,0c-0.2,0.2-0.2,0.51,0,0.71L7.3,8.04c0.1,0.1,0.23,0.15,0.35,0.15
		c0.13,0,0.26-0.05,0.35-0.15C8.2,7.84,8.2,7.53,8,7.33L7.07,6.4z"/>
	<path class="st1" d="M24.7,24.03c-0.2-0.19-0.51-0.19-0.71,0c-0.2,0.2-0.2,0.51,0,0.71l0.93,0.94c0.1,0.1,0.23,0.15,0.35,0.15
		c0.13,0,0.26-0.05,0.35-0.15c0.19-0.2,0.19-0.51,0-0.71L24.7,24.03z"/>
	<path class="st1" d="M17.66,12.61c-0.25-0.12-0.55-0.02-0.67,0.22l-0.14,0.29l-1.02,2.04c-0.4,0.08-0.71,0.42-0.71,0.84
		c0,0.29,0.15,0.54,0.37,0.7v0.28v5.1v0.32c0,0.28,0.22,0.5,0.5,0.5c0.28,0,0.5-0.22,0.5-0.5v-0.32v-5.1v-0.27
		c0.23-0.16,0.38-0.41,0.38-0.71c0-0.16-0.06-0.31-0.13-0.44l1-2l0.15-0.29C18.01,13.03,17.91,12.73,17.66,12.61"/>
</g>
</svg>
