<?xml version="1.0" encoding="utf-8"?>
<!-- Generator: Adobe Illustrator 23.0.2, SVG Export Plug-In . SVG Version: 6.00 Build 0)  -->
<svg version="1.1" id="Layer_1" xmlns="http://www.w3.org/2000/svg" xmlns:xlink="http://www.w3.org/1999/xlink" x="0px" y="0px"
	 width="32px" height="32px" viewBox="0 0 32 32" style="enable-background:new 0 0 32 32;" xml:space="preserve">
<style type="text/css">
	.st0{fill:none;}
	.st1{fill:#952524;}
</style>
<rect class="st0" width="32" height="32"/>
<path class="st1" d="M26.22,4.89c-2.5-1.51-5.08-1.51-7.64,0.01c-0.63,0.37-1.23,0.81-1.82,1.23c-0.26,0.18-0.52,0.38-0.79,0.56
	c-0.16-0.12-0.32-0.25-0.48-0.38C15.09,6,14.69,5.68,14.27,5.38c-2.05-1.43-4.08-1.89-6.22-1.41c-4.08,0.91-6.57,4.92-5.67,9.11
	c0.47,2.19,1.53,4.24,3.35,6.46c2.45,2.99,5.54,5.72,9.44,8.35c0.36,0.24,0.6,0.36,0.83,0.36c0.23,0,0.47-0.12,0.82-0.35
	c2.1-1.39,4.12-2.97,5.99-4.71c1.74-1.61,3.93-3.8,5.45-6.57c1.03-1.86,1.51-3.47,1.52-5.05C29.81,8.58,28.61,6.33,26.22,4.89z
	 M27.49,16.01c-1.41,2.59-3.4,4.62-5.15,6.26c-1.79,1.68-3.79,3.27-5.96,4.73c-0.02,0.01-0.04,0.03-0.06,0.04
	c-0.17,0.12-0.3,0.21-0.53,0.05c-4.7-3.23-7.86-6.16-10.25-9.49c-1.29-1.79-2.03-3.51-2.26-5.25C2.78,8.75,5,5.54,8.45,4.89
	c0.39-0.07,0.78-0.11,1.17-0.11c1.52,0,2.99,0.57,4.56,1.75c0.44,0.33,0.84,0.71,1.27,1.1c0.19,0.18,0.39,0.36,0.59,0.54l0.04,0.04
	l0.03-0.04c0.75-0.93,1.77-1.76,3.13-2.53c1.85-1.05,4-1.14,5.91-0.24c1.9,0.9,3.2,2.61,3.57,4.7
	C29.03,12.01,28.64,13.89,27.49,16.01z"/>
</svg>
