<?xml version="1.0" encoding="utf-8"?>
<!-- Generator: Adobe Illustrator 23.0.2, SVG Export Plug-In . SVG Version: 6.00 Build 0)  -->
<svg version="1.1" id="Layer_1" xmlns="http://www.w3.org/2000/svg" xmlns:xlink="http://www.w3.org/1999/xlink" x="0px" y="0px"
	 width="32px" height="32px" viewBox="0 0 32 32" style="enable-background:new 0 0 32 32;" xml:space="preserve">
<style type="text/css">
	.st0{fill:none;}
	.st1{fill:#972726;}
</style>
<g>
	<rect y="0" class="st0" width="32" height="32"/>
</g>
<path class="st1" d="M27.49,6.82c-3.36-0.98-9.19-2.16-9.29-2.18c-0.01,0-4.17-0.08-4.37,5.19c-0.19,4.97-0.58,5.63-2.06,6.09
	c-0.62,0.19-1.19,0.46-1.7,0.7c-0.84,0.39-1.57,0.73-2.17,0.6c-0.33-0.07-0.58-0.37-0.82-0.66c-0.26-0.31-0.5-0.63-0.9-0.6
	c-0.3,0.03-0.57,0.26-0.87,0.77l-0.02,0.05c0,0.01-0.24,0.68-0.78,0.88c-0.32,0.12-0.7,0.06-1.12-0.19
	c-0.77-0.44-1.68-0.26-2.31,0.47c-0.69,0.79-0.95,2.15-0.12,3.22c1.12,1.45,1.19,2.25,1.19,2.39c-0.05,0.16-0.2,0.73,0.12,1.16
	c0.26,0.34,0.72,0.49,1.39,0.45c1.66-0.13,2.98,1.31,2.99,1.32l0.06,0.05c0.09,0.05,1.48,0.83,3.6,0.83c1.09,0,2.36-0.21,3.75-0.82
	c4.02-1.79,5.98-3.83,6.03-3.89c0.02-0.02,2.06-1.56,3.21-2.11c1.16-0.57,7.27-4.7,8.05-7.37C32.01,10.84,31.35,7.95,27.49,6.82
	 M30.85,13.02c-0.68,2.33-6.45,6.41-7.78,7.06c-1.19,0.58-3.2,2.1-3.32,2.19c-0.02,0.02-1.97,2.06-5.9,3.81
	c-3.65,1.62-6.54,0.2-6.86,0.03c-0.22-0.23-1.59-1.58-3.36-1.45c-0.33,0.02-0.77,0-0.95-0.24c-0.17-0.23-0.09-0.6-0.03-0.79
	c0.01-0.1,0.07-1.01-1.29-2.77C0.69,20,0.9,18.91,1.45,18.27c0.37-0.43,1.01-0.75,1.68-0.37c0.56,0.32,1.08,0.4,1.55,0.22
	c0.7-0.26,1.01-1.01,1.07-1.16c0.27-0.45,0.43-0.5,0.47-0.5c0.14,0.01,0.31,0.22,0.48,0.42c0.27,0.32,0.61,0.72,1.1,0.82
	c0.77,0.16,1.56-0.21,2.48-0.64c0.52-0.24,1.05-0.49,1.63-0.67c1.84-0.58,2.22-1.62,2.41-6.55c0.18-4.76,3.71-4.71,3.82-4.71
	c0.06,0.01,5.87,1.19,9.2,2.16C30.86,8.33,31.46,10.93,30.85,13.02"/>
</svg>
