<?xml version="1.0" encoding="utf-8"?>
<!-- Generator: Adobe Illustrator 23.0.2, SVG Export Plug-In . SVG Version: 6.00 Build 0)  -->
<svg version="1.1" id="Layer_1" xmlns="http://www.w3.org/2000/svg" xmlns:xlink="http://www.w3.org/1999/xlink" x="0px" y="0px"
	 width="32px" height="32px" viewBox="0 0 32 32" style="enable-background:new 0 0 32 32;" xml:space="preserve">
<style type="text/css">
	.st0{fill:none;}
	.st1{fill:#952624;}
</style>
<rect class="st0" width="32" height="32"/>
<g>
	<path class="st1" d="M31.29,30.4c-4.67-2.2-8.36-8.36-10.13-11.32c-0.4-0.67-0.69-1.16-0.88-1.4c-0.32-0.42-0.71-0.65-1.15-0.7
		c-0.79-0.09-1.45,0.47-1.44,0.47c-0.05,0.03-1.25,0.74-2.97-0.02c-2.06-0.91-3.19,0.58-3.22,0.63C8.21,23.84,0.72,30.37,0.65,30.44
		c-0.09,0.08-0.12,0.2-0.08,0.3c0.04,0.11,0.14,0.18,0.26,0.18h30.35c0.13,0,0.24-0.09,0.27-0.21
		C31.47,30.58,31.41,30.45,31.29,30.4 M11.96,18.36c0.01-0.01,0.88-1.15,2.54-0.42c1.99,0.88,3.42,0.02,3.51-0.04
		c0,0,0.51-0.43,1.06-0.37c0.29,0.03,0.55,0.19,0.77,0.49c0.17,0.22,0.46,0.71,0.84,1.34c0.57,0.95,1.33,2.21,2.25,3.58
		c-0.33,0.41-0.75,0.6-1.18,0.5c-0.37-0.09-0.65-0.37-0.7-0.71c-0.15-1.15-0.76-1.29-1.31-1.32c-0.39-0.03-0.74,0.11-0.98,0.35
		c-0.27,0.29-0.37,0.7-0.31,1.23c0.04,0.36-0.01,0.64-0.16,0.82c-0.16,0.2-0.39,0.24-0.48,0.24c-0.12,0.01-0.28-0.01-0.42-0.13
		c-0.18-0.17-0.28-0.49-0.28-0.95c0-0.66-0.06-1.33-0.49-1.68c-0.29-0.24-0.69-0.31-1.24-0.2c-0.33,0.06-0.59,0.24-0.76,0.51
		c-0.45,0.71-0.13,1.89-0.1,2c0.09,0.16,0.18,0.46,0.11,0.59c-0.05,0.08-0.19,0.11-0.3,0.12c-0.21,0.01-0.36-0.03-0.45-0.13
		c-0.13-0.13-0.15-0.36-0.15-0.47c0.05-0.18,0.06-0.56-0.57-1.13c-0.18-0.17-0.4-0.23-0.64-0.2c-0.65,0.1-1.19,1.02-1.22,1.08
		c0,0-0.41,0.46-0.85,0.48c-0.18,0.01-0.35-0.06-0.51-0.2c-0.48-0.44-1.15-0.42-1.71-0.28C9.67,21.82,10.99,20.06,11.96,18.36
		 M1.55,30.37c1.06-0.96,3.54-3.27,5.96-6.01c0.42-0.24,1.56-0.71,2.11-0.21c0.27,0.25,0.58,0.37,0.91,0.35
		c0.68-0.04,1.21-0.64,1.27-0.71c0.19-0.33,0.59-0.81,0.86-0.85c0.05-0.01,0.11-0.01,0.18,0.06c0.35,0.32,0.41,0.52,0.42,0.52
		c-0.02,0.03-0.03,0.07-0.03,0.11c0,0.06-0.04,0.58,0.3,0.93c0.19,0.2,0.45,0.3,0.78,0.3c0.04,0,0.07,0,0.11,0
		c0.45-0.03,0.65-0.23,0.74-0.4c0.25-0.45-0.07-1.05-0.08-1.06c-0.07-0.27-0.21-1.08,0.06-1.5c0.09-0.15,0.22-0.23,0.4-0.26
		c0.38-0.07,0.63-0.04,0.79,0.08c0.2,0.17,0.29,0.56,0.29,1.26c0,0.62,0.15,1.07,0.45,1.35c0.22,0.2,0.51,0.3,0.83,0.28
		c0.34-0.03,0.66-0.19,0.87-0.45c0.25-0.31,0.34-0.72,0.28-1.24c-0.04-0.35,0.01-0.63,0.16-0.78c0.17-0.18,0.44-0.19,0.54-0.18
		c0.4,0.03,0.69,0.04,0.8,0.85c0.08,0.56,0.52,1.04,1.12,1.17c0.58,0.14,1.16-0.09,1.62-0.58c1.78,2.55,4.11,5.35,6.82,6.97H1.55z"
		/>
	<path class="st1" d="M8.93,11.07h3.77v-0.55H8.93c-0.08,0-1.99-0.05-1.99-1.9c0-1.94,1.6-2.78,1.66-2.81
		c0.15-0.07,1.48-0.72,1.52-1.72c0.01-0.28,0.36-0.93,1.09-1.51c0.53-0.41,1.62-1.06,3.06-0.77c1.75,0.36,2.19,0.56,2.29,0.62
		c0.02,0.03,0.04,0.06,0.07,0.08c0.14,0.1,0.85,0.59,1.35,0.36c0.08-0.04,0.16-0.07,0.24-0.09c0.29-0.1,0.7-0.25,0.66-0.71
		c0.01-0.02,0.08-0.13,0.3-0.25c0.32-0.17,0.86-0.28,1.4-0.1c1.06,0.34,1.56,0.73,1.54,2.07c0.06,0.37,0.4,1.07,1.23,1.07
		c0.47,0,1.14,0.1,1.61,0.59c0.45,0.45,0.67,1.18,0.65,2.15c-0.03,1.94-0.66,2.93-1.85,2.93h-3.97v0.55h3.97
		c1.07,0,2.35-0.6,2.4-3.47c0.02-1.13-0.25-1.98-0.81-2.55c-0.48-0.49-1.18-0.75-2.01-0.75c-0.56,0-0.68-0.55-0.68-0.56
		c0.03-1.77-0.93-2.23-1.91-2.55c-0.82-0.27-1.65-0.03-2.09,0.3c-0.23,0.18-0.35,0.38-0.33,0.58c0,0.05,0,0.07-0.3,0.17
		c-0.09,0.03-0.18,0.07-0.28,0.11c-0.13,0.05-0.48-0.09-0.75-0.27c-0.09-0.14-0.42-0.37-2.63-0.83c-1.65-0.34-2.91,0.4-3.51,0.87
		c-0.75,0.59-1.28,1.38-1.3,1.92C9.54,4.63,8.69,5.16,8.36,5.31C8.28,5.36,6.39,6.34,6.39,8.62C6.39,10.53,8.05,11.06,8.93,11.07"/>
	<rect x="17.45" y="7.91" class="st1" width="0.52" height="8.17"/>
	<rect x="14.58" y="7.91" class="st1" width="0.52" height="8.17"/>
</g>
</svg>
