<?xml version="1.0" encoding="utf-8"?>
<!-- Generator: Adobe Illustrator 23.0.2, SVG Export Plug-In . SVG Version: 6.00 Build 0)  -->
<svg version="1.1" id="Layer_1" xmlns="http://www.w3.org/2000/svg" xmlns:xlink="http://www.w3.org/1999/xlink" x="0px" y="0px"
	 width="32px" height="32px" viewBox="0 0 32 32" style="enable-background:new 0 0 32 32;" xml:space="preserve">
<style type="text/css">
	.st0{fill:none;}
	.st1{fill:#952524;}
</style>
<rect class="st0" width="32" height="32"/>
<g>
	<path class="st1" d="M27.41,27.39l-6.69-4.28c-0.06-0.04-0.13-0.06-0.23-0.06l-0.08-0.01v-0.01h-0.23v-2.3h0.23h0.05h3.39
		c0.22,0,0.42-0.15,0.47-0.37c0.06-0.21-0.04-0.44-0.23-0.55l-4.71-2.66c-0.07-0.04-0.15-0.06-0.23-0.06l-0.08,0v-0.01l0,0.01h-0.24
		v-1.77h0.24h0h4.09c0.21,0,0.4-0.14,0.47-0.34c0.06-0.2-0.01-0.42-0.18-0.55l-4.3-3.06c0,0-0.02,0-0.04-0.01l-0.04-0.02l-0.24-0.06
		V9.43h0.24h3.88c0.2,0,0.39-0.13,0.46-0.32c0.07-0.19,0.02-0.41-0.14-0.54l-5.22-4.62l-1.48-3.03c-0.08-0.17-0.25-0.28-0.44-0.28
		c-0.19,0-0.36,0.11-0.44,0.28l-1.5,3.06l-5.2,4.59C8.83,8.7,8.77,8.92,8.84,9.11C8.91,9.3,9.1,9.43,9.3,9.43h3.88v0.02l0-0.02h0.24
		v1.84l-0.24,0.01l-0.08,0.01c-0.11,0.01-0.19,0.03-0.25,0.08l-4.3,3.06c-0.17,0.13-0.25,0.34-0.18,0.55
		c0.06,0.2,0.25,0.34,0.47,0.34h4.34h0h0.24v1.77h-0.24l0-0.02v0.02h-0.32c-0.08,0-0.17,0.02-0.24,0.06l-4.71,2.66
		c-0.19,0.11-0.29,0.34-0.23,0.55c0.06,0.22,0.25,0.37,0.47,0.37h3.44h0h0.24v2.3h-0.24v0.01l-0.08,0.01
		c-0.1,0.01-0.17,0.03-0.23,0.06l-6.69,4.28c-0.18,0.12-0.27,0.34-0.21,0.55c0.06,0.21,0.25,0.35,0.47,0.35h5.17h0.98h9.99h0.98
		h5.17c0.22,0,0.41-0.15,0.47-0.35C27.67,27.73,27.59,27.5,27.41,27.39 M10.6,8.45l4.32-3.81C14.96,4.6,15,4.54,15.03,4.48
		l1.09-2.23l1.09,2.23c0.03,0.06,0.07,0.11,0.12,0.15l4.32,3.81H10.6z M14.16,11.27h-0.22V9.43h0.22v0v0h3.93h0.22v1.84h-0.22H14.16
		L14.16,11.27L14.16,11.27z M10.37,14.34l2.92-2.08h5.41l2.92,2.08H10.37z M18.3,15.31v1.77h-0.22h0h-3.92h0h-0.22v-1.77h0.22h0
		h3.92h0H18.3z M10.01,19.75l2.98-1.68h6.02l2.98,1.68H10.01z M12.57,23.02h-0.22v-2.3h0.22l0,0.01v-0.01h6.85h0.01h0.23v2.3h-0.23
		h-0.01H12.57L12.57,23.02L12.57,23.02z M6.53,27.31l5.16-3.3h8.62l0.02,0.01l5.14,3.29H6.53z"/>
	<path class="st1" d="M10.78,28.29h-0.53v2.8c0,0.15,0.12,0.26,0.26,0.26h10.97c0.15,0,0.27-0.12,0.27-0.26v-2.8h-0.53v2.54H10.78
		V28.29z"/>
</g>
</svg>
