<?xml version="1.0" encoding="utf-8"?>
<!-- Generator: Adobe Illustrator 23.0.2, SVG Export Plug-In . SVG Version: 6.00 Build 0)  -->
<svg version="1.1" id="Layer_1" xmlns="http://www.w3.org/2000/svg" xmlns:xlink="http://www.w3.org/1999/xlink" x="0px" y="0px"
	 width="32px" height="32px" viewBox="0 0 32 32" style="enable-background:new 0 0 32 32;" xml:space="preserve">
<style type="text/css">
	.st0{fill:none;}
	.st1{fill:#952524;}
</style>
<rect class="st0" width="32" height="32"/>
<g>
	<path class="st1" d="M18.3,7.15c1.83,0,3.31-1.48,3.31-3.31c0-1.83-1.49-3.31-3.31-3.31c-1.83,0-3.31,1.49-3.31,3.31
		C14.99,5.66,16.47,7.15,18.3,7.15z M18.3,1.55c1.26,0,2.29,1.03,2.29,2.29c0,1.26-1.03,2.29-2.29,2.29c-1.26,0-2.29-1.03-2.29-2.29
		C16.01,2.58,17.03,1.55,18.3,1.55z"/>
	<path class="st1" d="M29.27,27.93c-0.15-0.3-4.34-6.71-5.41-8.4c-1.03-1.64-0.93-4.93-1.13-8.2c-0.22-3.54-3.22-3.46-5-3.41
		c-0.2,0.01-0.39,0.01-0.56,0.01c-1.89,0-3.8,0.75-5.24,2.07c-1.09,1-2.61,0.12-2.67,0.09l-0.06-0.03C8.84,9.9,8.53,9.8,8.23,9.72
		V8.38h3.88V5.4H9.97V3.22h1.8V2.67H7.78v0.55h1.64V5.4H6.1v0.61H2.28v0.55h1.39L3.64,8.38h4.04v1.23c-0.4-0.04-0.74,0-1.01,0.13
		c-0.37,0.18-0.61,0.5-0.72,0.96c-0.3,1.19,0.27,1.77,2.55,2.58c2.87,1.02,4.66-0.17,5.62-0.8c0.31-0.21,0.52-0.25,0.61-0.22
		c0.05,0.02,0.08,0.07,0.09,0.06l0.46,4.12c0.03,0.29-0.05,0.57-0.24,0.79c-1,1.15-3.27,3.79-3.66,4.55
		c-0.51,1.03-0.31,2.26-0.3,2.31c0,0,0.77,4.82,0.86,5.33c0.08,0.46,0.31,1.3,1,1.76c0.3,0.2,0.64,0.3,1.02,0.3
		c0.17,0,0.34-0.02,0.52-0.06c0.54-0.12,0.96-0.4,1.21-0.81c0.43-0.7,0.24-1.52,0.21-1.63c0-0.02-0.49-1.56-0.49-3.65
		c0-1.65,0.35-2.05,0.33-2.05h0l3.1-2.92c0.07-0.07,0.14-0.07,0.18-0.06c0.04,0,0.11,0.02,0.16,0.1c0.5,0.74,1.32,1.95,2.22,3.29
		c2.51,3.72,4.31,6.37,4.53,6.63c1.21,1.45,2.43,0.93,3.05,0.49C30.17,29.95,29.66,28.52,29.27,27.93z M4.22,6.56h2.43v-0.6h4.91
		v1.88H4.2L4.22,6.56z M28.41,30c-0.64,0.46-1.16,0.36-1.73-0.32c-0.22-0.26-2.67-3.9-4.47-6.55c-0.9-1.33-1.72-2.55-2.23-3.29
		c-0.2-0.29-0.52-0.48-0.87-0.52c-0.36-0.04-0.71,0.08-0.96,0.33l-2.94,2.79c-0.3,0.2-0.8,0.84-0.8,2.88c0,2.25,0.52,3.88,0.53,3.92
		c0,0,0.11,0.5-0.1,0.85c-0.11,0.18-0.31,0.31-0.59,0.37c-0.32,0.07-0.57,0.04-0.78-0.1c-0.28-0.19-0.49-0.59-0.58-1.11
		c-0.09-0.51-0.86-5.32-0.86-5.33c0-0.01-0.16-0.98,0.21-1.71c0.27-0.54,2.04-2.65,3.42-4.24h0c0.58-0.57,0.58-1.43,0.55-1.79
		l-0.47-4.09c-0.02-0.06-0.18-0.56-0.7-0.75c-0.13-0.05-0.26-0.07-0.4-0.07c-0.33,0-0.7,0.13-1.09,0.39
		c-1.19,0.79-2.53,1.49-4.75,0.7c-2.09-0.74-2.02-1.04-1.92-1.41c0.06-0.22,0.14-0.28,0.21-0.32c0.13-0.06,0.56-0.16,1.67,0.32
		c0.28,0.16,2.26,1.2,3.81-0.22c1.26-1.15,2.93-1.81,4.58-1.81c0.18,0,0.38,0,0.59-0.01c2.17-0.06,3.85,0.09,4,2.5
		c0.22,3.43,0.15,6.8,1.32,8.68c1.05,1.68,5.28,8.23,5.35,8.36C28.45,28.47,29.13,29.49,28.41,30z"/>
</g>
</svg>
