<?xml version="1.0" encoding="utf-8"?>
<!-- Generator: Adobe Illustrator 23.0.2, SVG Export Plug-In . SVG Version: 6.00 Build 0)  -->
<svg version="1.1" id="Layer_1" xmlns="http://www.w3.org/2000/svg" xmlns:xlink="http://www.w3.org/1999/xlink" x="0px" y="0px"
	 width="32px" height="32px" viewBox="0 0 32 32" style="enable-background:new 0 0 32 32;" xml:space="preserve">
<style type="text/css">
	.st0{fill:none;}
	.st1{fill:#952524;}
</style>
<rect y="0" class="st0" width="32" height="32"/>
<path class="st1" d="M24.26,3.92c-3.37-3.51-8.23-3.42-8.25-3.42c-0.05,0-4.88-0.1-8.27,3.42c-2.16,2.25-3.16,5.43-2.96,9.45
	c-0.03,0.65,0.04,6.64,10.83,17.95c0.04,0.04,0.19,0.17,0.4,0.17c0.09,0,0.24-0.03,0.37-0.18c10.79-11.3,10.86-17.29,10.83-17.92
	C27.42,9.36,26.42,6.18,24.26,3.92 M26.22,13.41c0,0.09,0.11,5.92-10.22,16.87C5.68,19.34,5.78,13.47,5.78,13.41l0-0.05
	C5.59,9.61,6.49,6.67,8.45,4.62c2.96-3.08,7.38-3.11,7.56-3.11c0.77,0.02,4.76,0.24,7.52,3.11c1.97,2.05,2.87,5,2.68,8.78
	L26.22,13.41z"/>
<path class="st1" d="M18.81,18.41c-0.72,0-1.18-0.07-1.36-0.2s-0.28-0.47-0.28-1.02l-0.01-0.38V8.65V7.6l-3.86,0.93v0.2V9.4
	l2.01-0.39v7.79v0.38c0,0.55-0.09,0.89-0.28,1.02s-0.64,0.2-1.36,0.2h-0.4v0.6h2.58h0.78h2.11h0.47v-0.6H18.81z"/>
</svg>
