<?xml version="1.0" encoding="utf-8"?>
<!-- Generator: Adobe Illustrator 23.0.2, SVG Export Plug-In . SVG Version: 6.00 Build 0)  -->
<svg version="1.1" id="Layer_1" xmlns="http://www.w3.org/2000/svg" xmlns:xlink="http://www.w3.org/1999/xlink" x="0px" y="0px"
	 width="32px" height="32px" viewBox="0 0 32 32" style="enable-background:new 0 0 32 32;" xml:space="preserve">
<style type="text/css">
	.st0{fill:none;}
	.st1{fill:#952624;}
</style>
<rect class="st0" width="32" height="32"/>
<g>
	<path class="st1" d="M21.15,7.61c1.42,0,2.58-1.16,2.58-2.58c0-1.42-1.16-2.57-2.58-2.57c-1.42,0-2.57,1.15-2.57,2.57
		C18.58,6.45,19.73,7.61,21.15,7.61z M21.15,3.01c1.12,0,2.02,0.91,2.02,2.02c0,1.12-0.91,2.03-2.02,2.03
		c-1.12,0-2.02-0.91-2.02-2.03C19.13,3.92,20.04,3.01,21.15,3.01z"/>
	<path class="st1" d="M25.84,17.34c-0.51,0-1.02,0.07-1.52,0.2l-0.82-2.06l2.03-2.65h2.27v-0.97h-2.75l-2.35,3.06l-4.3,0
		c-0.25-0.3-0.56-0.56-0.94-0.76l-0.15-0.08l-0.19,0.52c0.84,0.45,1.37,1.42,1.38,2.35c-0.83,4.6-1.12,5.22-1.11,5.23l-0.07,0.09
		c-0.16,0.36-0.19,0.42-0.82,0.27c-0.18-0.04-0.31-0.13-0.38-0.25c-0.15-0.27-0.05-0.7,0.01-0.88c0-0.02,0.35-1.79,0.76-3.2
		c0.16-0.56,0.08-1.08-0.24-1.5c-0.36-0.49-0.96-0.73-1.19-0.78c-1.41-0.43-3.42-1.25-4.07-1.9c-0.08-0.08-0.24-0.31-0.29-0.41
		c-0.29-0.51-0.59-1.31,0.65-2.94c1.42-1.88,4.83-3.3,4.87-3.31c0.01,0,0.66-0.28,1.15-0.07c0.25,0.11,0.42,0.33,0.53,0.67
		c0.1,0.31,0.18,0.64,0.25,0.97c0.29,1.24,0.61,2.64,2.25,2.67c1.51,0.03,1.51,0.34,1.51,0.67c0,0.32-0.07,0.48-0.63,0.55h-2.39
		c-0.34,0-0.66-0.17-0.85-0.44l-1.47-2.12c-0.14-0.21-0.38-0.33-0.63-0.34c0,0,0,0-0.01,0c-0.25,0-0.49,0.12-0.63,0.32l-1.45,2
		c-0.12,0.16-0.16,0.36-0.11,0.55c0.05,0.19,0.17,0.35,0.35,0.45l2.62,1.36l0.19-0.52l-2.56-1.32c-0.04-0.02-0.06-0.06-0.07-0.08
		c0-0.02-0.01-0.06,0.02-0.1l1.45-2c0.04-0.06,0.11-0.1,0.19-0.1h0c0.08,0,0.14,0.04,0.19,0.1l1.47,2.12
		c0.3,0.42,0.78,0.68,1.3,0.68l2.43,0c0.57-0.07,1.14-0.26,1.14-1.1c0-0.87-0.53-1.19-2.05-1.22c-1.16-0.02-1.41-0.87-1.73-2.24
		c-0.08-0.34-0.16-0.69-0.27-1.01c-0.16-0.49-0.44-0.83-0.83-1c-0.73-0.32-1.56,0.05-1.59,0.06c-0.15,0.06-3.64,1.45-5.09,3.49
		c-1.18,1.66-1.12,2.64-0.76,3.38c0.05,0.09,0.21,0.36,0.28,0.45c0.19,0.25,0.53,0.5,0.93,0.74h-0.91h-0.55l-0.46,0.83l-1.18,2.14
		c-0.8-0.36-1.64-0.55-2.51-0.55c-3.37,0-6.1,2.74-6.1,6.1c0,3.37,2.74,6.1,6.1,6.1c3.36,0,6.1-2.74,6.1-6.1
		c0-2.06-1.02-3.95-2.75-5.08l1.16-2.09l0.21-0.38h2.07l0.77-0.02c0.78,0.32,1.46,0.55,1.64,0.6c0.09,0.02,0.65,0.22,0.93,0.67
		c0.16,0.27,0.19,0.57,0.09,0.93c-0.41,1.42-0.76,3.21-0.76,3.21c-0.03,0.08-0.25,0.75,0.04,1.29c0.15,0.27,0.4,0.45,0.74,0.53
		c0.23,0.05,0.42,0.08,0.58,0.08c0.47,0,0.67-0.23,0.87-0.66l0,0c0.27-0.51,0.71-2.67,1.12-4.91c0.01-0.06,0.04-0.25,0.05-0.31
		c0.08-0.5,0.05-0.97-0.08-1.4h3.68l0.79,1.97c-2.23,0.97-3.66,3.15-3.66,5.59c0,3.36,2.74,6.1,6.1,6.1c3.36,0,6.1-2.74,6.1-6.1
		C31.94,20.07,29.21,17.34,25.84,17.34z M11.29,23.44c0,2.83-2.3,5.13-5.13,5.13c-2.83,0-5.13-2.3-5.13-5.13s2.3-5.13,5.13-5.13
		c0.69,0,1.37,0.15,2.03,0.44l-2.11,3.82c-0.01,0-0.01,0-0.02,0c-0.54,0-0.98,0.44-0.98,0.98s0.44,0.98,0.98,0.98
		c0.54,0,0.98-0.44,0.98-0.98c0-0.17-0.06-0.33-0.14-0.47l2.13-3.86C10.45,20.18,11.29,21.74,11.29,23.44z M23.76,18.76l1.58,3.96
		c-0.12,0.16-0.2,0.35-0.2,0.57c0,0.54,0.44,0.98,0.98,0.98c0.54,0,0.98-0.44,0.98-0.98c0-0.5-0.38-0.9-0.87-0.96l-1.54-3.87
		c0.42-0.1,0.79-0.15,1.16-0.15c2.83,0,5.13,2.3,5.13,5.13c0,2.83-2.3,5.13-5.13,5.13c-2.83,0-5.13-2.3-5.13-5.13
		C20.71,21.4,21.9,19.58,23.76,18.76z"/>
</g>
</svg>
