<?xml version="1.0" encoding="utf-8"?>
<!-- Generator: Adobe Illustrator 23.0.2, SVG Export Plug-In . SVG Version: 6.00 Build 0)  -->
<svg version="1.1" id="Layer_1" xmlns="http://www.w3.org/2000/svg" xmlns:xlink="http://www.w3.org/1999/xlink" x="0px" y="0px"
	 width="32px" height="32px" viewBox="0 0 32 32" style="enable-background:new 0 0 32 32;" xml:space="preserve">
<style type="text/css">
	.st0{fill:none;}
	.st1{fill:#952524;}
</style>
<rect class="st0" width="32" height="32"/>
<g>
	<g>
		<g>
			<path class="st1" d="M30.62,27.16c-0.4,0-0.58-0.16-0.89-0.47c-0.31-0.32-0.75-0.75-1.55-0.75s-1.24,0.43-1.55,0.75
				c-0.3,0.3-0.49,0.47-0.89,0.47c-0.4,0-0.58-0.16-0.89-0.47c-0.31-0.32-0.75-0.75-1.55-0.75c-0.8,0-1.24,0.43-1.55,0.75
				c-0.31,0.31-0.49,0.47-0.89,0.47c-0.4,0-0.58-0.16-0.89-0.47c-0.32-0.32-0.75-0.75-1.55-0.75s-1.24,0.43-1.55,0.75
				c-0.3,0.3-0.49,0.47-0.89,0.47c-0.4,0-0.58-0.16-0.89-0.47c-0.31-0.32-0.75-0.75-1.55-0.75s-1.24,0.43-1.55,0.75
				c-0.31,0.31-0.49,0.47-0.89,0.47c-0.4,0-0.58-0.16-0.89-0.48c-0.31-0.32-0.75-0.75-1.55-0.75s-1.24,0.43-1.55,0.75
				C6.83,27,6.65,27.16,6.25,27.16S5.68,27,5.37,26.69c-0.31-0.32-0.75-0.75-1.55-0.75c-0.8,0-1.23,0.43-1.55,0.75
				C1.96,27,1.78,27.16,1.38,27.16c-0.27,0-0.49,0.22-0.49,0.49s0.22,0.49,0.49,0.49c0.82,0,1.26-0.44,1.58-0.76
				c0.3-0.3,0.48-0.46,0.86-0.46c0.38,0,0.56,0.16,0.86,0.46c0.32,0.32,0.76,0.76,1.58,0.76s1.26-0.44,1.58-0.76
				c0.3-0.3,0.48-0.46,0.86-0.46c0.38,0,0.55,0.16,0.86,0.46c0.32,0.32,0.76,0.76,1.58,0.76s1.26-0.44,1.58-0.76
				c0.3-0.3,0.47-0.46,0.86-0.46s0.56,0.16,0.86,0.46c0.32,0.32,0.76,0.76,1.58,0.76c0.83,0,1.26-0.44,1.58-0.76
				c0.3-0.3,0.48-0.46,0.86-0.46c0.38,0,0.55,0.16,0.86,0.46c0.32,0.32,0.76,0.76,1.58,0.76c0.82,0,1.26-0.44,1.58-0.76
				c0.3-0.3,0.48-0.46,0.86-0.46c0.38,0,0.56,0.16,0.86,0.46c0.32,0.32,0.76,0.76,1.58,0.76c0.83,0,1.26-0.44,1.58-0.76
				c0.3-0.3,0.48-0.46,0.86-0.46s0.55,0.16,0.86,0.46c0.32,0.32,0.76,0.76,1.58,0.76c0.27,0,0.49-0.22,0.49-0.49
				S30.89,27.16,30.62,27.16z"/>
		</g>
	</g>
	<g>
		<path class="st1" d="M14.08,7.82c-0.08,0-0.15,0-0.23-0.01c-1.08-0.13-1.86-1.11-1.74-2.2c0.13-1.08,1.11-1.86,2.2-1.74
			c1.08,0.13,1.86,1.11,1.74,2.2C15.93,7.08,15.07,7.82,14.08,7.82z M14.07,4.41c-0.32,0-0.63,0.11-0.88,0.31
			c-0.3,0.24-0.49,0.58-0.53,0.96c-0.09,0.78,0.47,1.5,1.25,1.59c0.77,0.09,1.5-0.47,1.59-1.25c0.04-0.38-0.06-0.75-0.3-1.05
			c-0.24-0.3-0.58-0.49-0.96-0.53C14.19,4.41,14.13,4.41,14.07,4.41z"/>
	</g>
	<g>
		<path class="st1" d="M6.96,24.12c-1.26,0-2.13-0.28-2.64-0.84c-0.66-0.74-0.54-1.75-0.46-2.5l0.01-0.1
			c0.18-1.58,2.22-2.46,2.89-2.75c0.13-0.06,0.33-0.14,0.13-0.69c-0.29-0.15-0.55-0.41-0.55-1.06c0-0.89,0.84-1.24,1.41-1.25
			l2.58-0.38l0.14,0.97l-2.64,0.38c-0.07,0.01-0.51,0.03-0.51,0.28c0,0.17,0.03,0.22,0.03,0.22c0.18,0.12,0.37,0.24,0.46,0.5
			c0.48,1.32-0.39,1.81-0.66,1.92c-1.81,0.78-2.25,1.5-2.31,1.96l-0.01,0.1c-0.08,0.65-0.16,1.32,0.21,1.73
			c0.33,0.36,1.04,0.53,2.03,0.52c2.62-0.04,11.44-0.01,14.08,0c0.01,0,0.02,0,0.03,0c1.28,0,2.48-0.28,3.49-0.81
			c1.18-0.63,1.93-1.45,2.22-2.44c0.88-2.96-0.19-4.07-0.69-4.41c-0.83-0.56-3.92-3.03-4.72-3.82c-0.24-0.24-0.55-0.33-0.69-0.32
			c-0.09,0-0.14,0.03-0.14,0.04c0,0.01-0.01,0.08,0.04,0.21l0.06,0.15c0.25,0.64,0.44,1.15,0.22,1.62
			c-0.18,0.39-0.58,0.57-0.86,0.67c-0.87,0.3-3.11,1.42-3.14,1.43l-0.44-0.88c0.09-0.05,2.33-1.17,3.26-1.49
			c0.25-0.08,0.29-0.15,0.29-0.15c0.04-0.1-0.13-0.55-0.25-0.85l-0.06-0.15c-0.26-0.69,0.01-1.17,0.35-1.39
			c0.56-0.37,1.45-0.19,2.05,0.42c0.74,0.74,3.79,3.17,4.57,3.7c0.68,0.46,2.14,1.92,1.08,5.5c-0.37,1.26-1.28,2.28-2.7,3.03
			c-1.14,0.61-2.51,0.93-3.95,0.93c-0.01,0-0.02,0-0.03,0c-2.64-0.01-11.44-0.04-14.06,0C7.05,24.12,7.01,24.12,6.96,24.12z"/>
	</g>
	<g>
		<path class="st1" d="M10.42,21.91c-3.34,0-5.87-0.08-6.15-0.09l0.02-0.55c0.18,0.01,18.27,0.56,22.91-1.34l0.21,0.51
			C24.4,21.68,16.21,21.91,10.42,21.91z"/>
	</g>
	<g>
		<path class="st1" d="M15.61,20.72c-0.06,0-0.12,0-0.18-0.01c-0.34-0.04-0.6-0.18-0.77-0.4c-0.26-0.35-0.19-0.77-0.18-0.81
			l0.36-3.06l-3.47-0.41c-0.47-0.05-0.82-0.26-1.03-0.6c-0.48-0.75-0.1-1.92-0.08-1.96l1.52-4.65c0.1-0.29,0.56-0.95,1.54-0.63
			c0.06,0.02,0.81,0.35,1.11,0.56c0.21,0.14,1.02,0.64,2.81,1.17c0.07,0.02,0.54,0.21,0.74,0.63c0.1,0.23,0.11,0.48,0.02,0.73
			c-0.21,0.58-0.77,0.72-1.67,0.41L14.3,11.1l-0.67,2.45c0.46,0.11,1.42,0.35,2.38,0.6c0.52,0.14,0.88,0.39,1.05,0.74
			c0.19,0.39,0.08,0.79,0.04,0.92l-0.46,3.97c0,0.02-0.02,0.44-0.35,0.72C16.1,20.65,15.88,20.72,15.61,20.72z M12.81,8.65
			c-0.38,0-0.5,0.3-0.51,0.34l-1.52,4.65c-0.09,0.27-0.26,1.06,0.03,1.5c0.13,0.2,0.33,0.31,0.63,0.35l3.75,0.44
			c0.07,0.01,0.14,0.04,0.18,0.1c0.04,0.06,0.07,0.13,0.06,0.2l-0.39,3.35c0,0.02-0.04,0.25,0.08,0.41c0.07,0.1,0.2,0.16,0.39,0.18
			c0.18,0.02,0.32-0.01,0.42-0.09c0.15-0.12,0.16-0.35,0.16-0.35l0.47-4.02c0-0.03,0.01-0.05,0.02-0.08c0,0,0.11-0.26-0.01-0.5
			c-0.1-0.2-0.33-0.35-0.69-0.44c-1.31-0.34-2.65-0.67-2.65-0.67c-0.07-0.02-0.13-0.06-0.17-0.13c-0.04-0.06-0.05-0.14-0.03-0.21
			l0.72-2.69c0.08-0.31,0.39-0.49,0.71-0.42l2.04,0.61c0,0,0.01,0,0.01,0c0.85,0.29,0.94,0.03,0.98-0.08c0.04-0.12,0.04-0.22,0-0.31
			c-0.1-0.22-0.41-0.34-0.41-0.34c-1.8-0.54-2.66-1.05-2.94-1.24c-0.22-0.15-0.79-0.41-1-0.5C13,8.66,12.9,8.65,12.81,8.65z"/>
	</g>
</g>
</svg>
