<?xml version="1.0" encoding="utf-8"?>
<!-- Generator: Adobe Illustrator 23.0.2, SVG Export Plug-In . SVG Version: 6.00 Build 0)  -->
<svg version="1.1" id="Layer_1" xmlns="http://www.w3.org/2000/svg" xmlns:xlink="http://www.w3.org/1999/xlink" x="0px" y="0px"
	 width="32px" height="32px" viewBox="0 0 32 32" style="enable-background:new 0 0 32 32;" xml:space="preserve">
<style type="text/css">
	.st0{fill:none;}
	.st1{fill:#952524;}
</style>
<rect class="st0" width="32" height="32"/>
<g>
	<path class="st1" d="M30.17,23.87c-0.29,0.29-0.46,0.45-0.83,0.45c-0.36,0-0.52-0.15-0.83-0.45c-0.33-0.33-0.77-0.77-1.61-0.77
		c-0.84,0-1.29,0.45-1.61,0.77c-0.3,0.3-0.46,0.45-0.83,0.45s-0.52-0.15-0.83-0.45c-0.33-0.33-0.77-0.77-1.61-0.77
		c-0.84,0-1.28,0.45-1.61,0.77c-0.3,0.3-0.46,0.45-0.83,0.45c-0.36,0-0.52-0.15-0.83-0.45c-0.33-0.33-0.77-0.77-1.61-0.77
		c-0.84,0-1.29,0.45-1.61,0.77c-0.3,0.3-0.46,0.45-0.83,0.45c-0.32,0-0.58,0.26-0.58,0.58c0,0.32,0.26,0.58,0.58,0.58
		c0.86,0,1.31-0.45,1.64-0.79c0.29-0.29,0.45-0.44,0.8-0.44c0.35,0,0.5,0.14,0.8,0.44c0.33,0.33,0.78,0.79,1.64,0.79
		c0.86,0,1.31-0.45,1.64-0.79c0.29-0.29,0.45-0.44,0.8-0.44c0.34,0,0.5,0.14,0.8,0.44c0.33,0.33,0.78,0.79,1.64,0.79
		c0.86,0,1.31-0.45,1.64-0.79c0.29-0.29,0.45-0.44,0.79-0.44c0.35,0,0.5,0.14,0.8,0.44c0.33,0.33,0.78,0.79,1.64,0.79
		c0.86,0,1.31-0.46,1.64-0.79c0.28-0.28,0.44-0.41,0.74-0.43V23.1C30.93,23.12,30.49,23.55,30.17,23.87z"/>
	<rect x="0.27" y="22.92" class="st1" width="8" height="1.15"/>
	<path class="st1" d="M19.3,6.31c-0.08,2.71,0.17,10.75,5.23,16.33l0.41-0.37c-5.97-6.58-5.05-16.74-5.04-16.84
		c0.01-0.12-0.06-0.24-0.18-0.28C19.6,5.1,19.47,5.14,19.4,5.24l-6.65,9.09l-0.03-0.02l0,0c-0.22-0.14-0.47-0.27-0.75-0.42
		l-0.21-0.11C11.6,13.72,7.83,12,6.72,11.7c-0.4-0.11-0.74-0.07-1.04,0.13C5.13,12.18,5,12.96,5,12.98l-1.14,5.65
		c-0.01,0.06-0.31,1.54,0.38,2.39C4.55,21.4,5,21.6,5.57,21.6h4.15c0.19,0,0.34,0.15,0.34,0.34l0,3.62c0,0.06-0.03,0.56,0.32,0.94
		c0.23,0.25,0.55,0.37,0.97,0.37c0.42,0,0.74-0.13,0.97-0.37c0.34-0.38,0.31-0.87,0.31-0.91l0-5.06c0.05-0.55-0.2-1.65-1.54-1.83
		l-1.42-0.19c-0.65-0.09-1.22-0.16-1.59-0.21C8,18.29,7.94,18.22,7.95,18.13v0l0.36-2.82c0.01-0.05,0.04-0.1,0.09-0.13
		c0.03-0.02,0.08-0.04,0.15-0.01l2.73,1.13l0,0l0.02,0.01l-0.64,0.88l0.44,0.32l0.75-1.02c0.29,0.07,0.68,0.11,1-0.03
		c0.23-0.1,0.39-0.29,0.47-0.54c0.19-0.57,0.1-0.94-0.15-1.24L19.3,6.31z M12.8,15.75c-0.03,0.1-0.09,0.17-0.18,0.21
		c-0.11,0.05-0.26,0.05-0.41,0.04c-0.23-0.03-0.46-0.09-0.56-0.14l-0.02-0.01l0,0l-2.87-1.19c-0.21-0.09-0.44-0.07-0.64,0.04
		c-0.2,0.11-0.33,0.31-0.36,0.54l-0.36,2.82c-0.02,0.19,0.02,0.37,0.14,0.52c0.11,0.15,0.28,0.25,0.47,0.27
		c0.36,0.05,0.93,0.12,1.58,0.21l1.42,0.19c1.13,0.15,1.08,1.12,1.07,1.26v5.11c0,0,0.02,0.31-0.17,0.51
		c-0.24,0.26-0.88,0.26-1.13,0c-0.19-0.21-0.18-0.53-0.18-0.55v-3.64c0-0.49-0.4-0.89-0.89-0.89H5.57c-0.4,0-0.7-0.12-0.9-0.37
		c-0.53-0.65-0.27-1.92-0.27-1.94l1.14-5.67c0-0.01,0.09-0.57,0.44-0.79c0.1-0.06,0.21-0.09,0.33-0.09c0.08,0,0.17,0.01,0.26,0.04
		c1.07,0.29,4.92,2.04,4.94,2.06l0.21,0.1c0.3,0.15,0.52,0.27,0.7,0.38l0,0c0.2,0.13,0.34,0.25,0.4,0.38l0,0
		C12.9,15.31,12.88,15.49,12.8,15.75z"/>
	<path class="st1" d="M7.44,10.92c1.34,0,2.43-1.09,2.43-2.43c0-1.34-1.09-2.43-2.43-2.43c-1.34,0-2.43,1.09-2.43,2.43
		C5.01,9.83,6.1,10.92,7.44,10.92z M7.44,6.61c1.04,0,1.88,0.84,1.88,1.88c0,1.04-0.84,1.88-1.88,1.88c-1.04,0-1.88-0.84-1.88-1.88
		C5.56,7.45,6.4,6.61,7.44,6.61z"/>
</g>
</svg>
