<?xml version="1.0" encoding="utf-8"?>
<!-- Generator: Adobe Illustrator 23.0.2, SVG Export Plug-In . SVG Version: 6.00 Build 0)  -->
<svg version="1.1" id="Layer_1" xmlns="http://www.w3.org/2000/svg" xmlns:xlink="http://www.w3.org/1999/xlink" x="0px" y="0px"
	 width="32px" height="32px" viewBox="0 0 32 32" style="enable-background:new 0 0 32 32;" xml:space="preserve">
<style type="text/css">
	.st0{fill:none;}
	.st1{fill:#952524;}
	.st2{fill:none;stroke:#952524;stroke-width:0.55;stroke-miterlimit:10;}
</style>
<rect class="st0" width="32" height="32"/>
<g>
	<g>
		<g>
			<path class="st1" d="M13.53,10.82c1.09,0,1.98-0.89,1.98-1.98c0-1.09-0.89-1.98-1.98-1.98c-1.09,0-1.98,0.89-1.98,1.98
				C11.55,9.94,12.43,10.82,13.53,10.82 M13.53,7.41c0.79,0,1.43,0.64,1.43,1.43s-0.64,1.43-1.43,1.43c-0.79,0-1.43-0.64-1.43-1.43
				S12.74,7.41,13.53,7.41"/>
		</g>
		<g>
			<path class="st1" d="M10.87,20.21h0.56l-2.09-9.7c-0.03-0.15-0.18-0.24-0.33-0.21c-0.15,0.03-0.24,0.18-0.21,0.33l0.64,2.98
				l0.24,1.13L10.87,20.21z"/>
		</g>
		<g>
			<path class="st1" d="M19.15,12.94l0.98-1.7c0.07-0.13,0.03-0.3-0.1-0.38c-0.13-0.08-0.3-0.03-0.38,0.1l-1.88,3.29
				c-0.08,0.13-0.03,0.3,0.1,0.38c0.04,0.02,0.09,0.04,0.14,0.04c0.1,0,0.19-0.05,0.24-0.14l0.62-1.09l4.7,4.67
				c0.06-0.09,0.35-0.43,0.35-0.43L19.15,12.94z"/>
		</g>
		<g>
			<path class="st1" d="M27.09,16.26c-1.2,0-2.33,0.48-3.17,1.34l-0.35,0.42c-0.46,0.61-0.77,1.34-0.87,2.11l-0.01,0.07H9.3
				l-0.01-0.07c-0.24-1.89-1.66-3.42-3.51-3.79l-0.07-0.01v-2.2l0.11,0.02c0.84,0.2,2.43,0.53,3.85,0.41l-0.21-0.96
				c-1.75,0.09-3.85-0.51-4.08-0.58c-0.15-0.05-0.32-0.02-0.44,0.07c-0.13,0.09-0.2,0.24-0.2,0.4v2.79l-0.08,0
				c-2.35,0.14-4.18,2.08-4.18,4.41c0,2.45,1.99,4.44,4.44,4.44c2.21,0,4.1-1.67,4.38-3.88l0.01-0.07H22.7l0.01,0.07
				c0.29,2.21,2.17,3.88,4.38,3.88c2.45,0,4.44-1.99,4.44-4.44S29.54,16.26,27.09,16.26 M4.91,24.16c-1.91,0-3.46-1.55-3.46-3.46
				c0-1.91,1.55-3.46,3.46-3.46c1.91,0,3.46,1.55,3.46,3.46C8.37,22.61,6.82,24.16,4.91,24.16 M27.09,24.16
				c-1.91,0-3.46-1.55-3.46-3.46c0-1.91,1.55-3.46,3.46-3.46c1.91,0,3.46,1.55,3.46,3.46C30.55,22.61,29,24.16,27.09,24.16"/>
		</g>
		<g>
			<path class="st1" d="M23.51,17.97l0.35-0.43C23.86,17.54,23.57,17.88,23.51,17.97"/>
		</g>
	</g>
	<path class="st2" d="M13.37,11.49c0,0-1.61-0.19-1.61,1.47s0,3.97,0,3.97s-0.17,2.29,1.73,2.29c0,0,0.59,0,1.39-0.46
		c0.8-0.46,2.27-0.46,2.9-0.2c0.64,0.26,1.72,1.01,2.31,0.96c0.69-0.06,0.73-0.52,0.73-0.52s0.1-0.48-0.29-0.8
		c0,0-1.48-1.67-3.29-1.71c-1.81-0.04-2.34,0-2.34,0s-1.2,0.16-1.2-0.79c0-0.89,0-1.65,0-1.65s-0.05-0.94,1.07-0.94
		c0,0,0.62-0.03,1.14,0.07c0.57,0.11,1.01,0.18,1.31-0.08c0.3-0.26,0.24-0.7,0.08-1.01C17.06,11.68,15.66,11.53,13.37,11.49z"/>
</g>
</svg>
