<?xml version="1.0" encoding="utf-8"?>
<!-- Generator: Adobe Illustrator 23.0.2, SVG Export Plug-In . SVG Version: 6.00 Build 0)  -->
<svg version="1.1" id="Layer_1" xmlns="http://www.w3.org/2000/svg" xmlns:xlink="http://www.w3.org/1999/xlink" x="0px" y="0px"
	 width="32px" height="32px" viewBox="0 0 32 32" style="enable-background:new 0 0 32 32;" xml:space="preserve">
<style type="text/css">
	.st0{fill:none;}
	.st1{fill:#952524;}
</style>
<rect class="st0" width="32" height="32"/>
<g>
	<path class="st1" d="M30.62,11.17c-0.4,0-0.58-0.16-0.89-0.47c-0.32-0.32-0.75-0.75-1.55-0.75c-0.8,0-1.23,0.43-1.55,0.75
		c-0.3,0.31-0.49,0.48-0.89,0.48c-0.4,0-0.58-0.16-0.89-0.47c-0.32-0.32-0.75-0.75-1.55-0.75c-0.8,0-1.23,0.43-1.55,0.75
		c-0.31,0.31-0.49,0.47-0.89,0.47c-0.4,0-0.58-0.16-0.89-0.47c-0.32-0.32-0.75-0.75-1.55-0.75c-0.8,0-1.23,0.43-1.55,0.75
		c-0.3,0.31-0.49,0.48-0.89,0.48c-0.4,0-0.58-0.16-0.89-0.47c-0.32-0.32-0.75-0.75-1.55-0.75c-0.8,0-1.23,0.43-1.55,0.75
		c-0.31,0.31-0.49,0.47-0.89,0.47c-0.4,0-0.58-0.16-0.89-0.47c-0.32-0.32-0.75-0.75-1.55-0.75s-1.23,0.43-1.55,0.75
		C6.83,11,6.65,11.17,6.25,11.17c-0.4,0-0.59-0.17-0.89-0.47c-0.32-0.32-0.75-0.75-1.55-0.75s-1.23,0.43-1.55,0.75
		C1.96,11,1.78,11.17,1.38,11.17c-0.27,0-0.49,0.22-0.49,0.49c0,0.27,0.22,0.49,0.49,0.49c0.83,0,1.26-0.44,1.58-0.76
		c0.3-0.3,0.48-0.46,0.86-0.46s0.56,0.16,0.86,0.46c0.32,0.32,0.75,0.76,1.58,0.76c0.82,0,1.26-0.44,1.58-0.76
		c0.3-0.3,0.48-0.46,0.86-0.46c0.38,0,0.55,0.16,0.86,0.46c0.32,0.32,0.75,0.76,1.58,0.76c0.82,0,1.26-0.44,1.58-0.76
		c0.29-0.29,0.47-0.46,0.86-0.46c0.38,0,0.56,0.16,0.86,0.46c0.32,0.32,0.76,0.76,1.58,0.76c0.82,0,1.26-0.44,1.58-0.76
		c0.3-0.31,0.48-0.46,0.86-0.46c0.38,0,0.56,0.16,0.86,0.46c0.32,0.32,0.75,0.76,1.58,0.76c0.82,0,1.26-0.44,1.58-0.76
		c0.3-0.3,0.47-0.46,0.85-0.46c0.38,0,0.56,0.16,0.86,0.46c0.32,0.32,0.76,0.76,1.58,0.76c0.82,0,1.26-0.44,1.58-0.76
		c0.3-0.31,0.48-0.46,0.86-0.46s0.56,0.16,0.86,0.46c0.32,0.32,0.75,0.76,1.58,0.76c0.27,0,0.49-0.22,0.49-0.49
		C31.11,11.39,30.89,11.17,30.62,11.17z"/>
	<path class="st1" d="M27.81,24.02h-2.46c-0.43,0-0.85-0.15-1.17-0.43l-2.52-2.11c-0.46-0.38-1.01-0.58-1.63-0.55l-7.01,0.29
		c-0.57,0.02-1.11,0.25-1.53,0.64l-2.32,2.17c-0.34,0.32-0.78,0.5-1.25,0.5H7.65H4.39c-0.75,0-1.36,0.61-1.36,1.36
		s0.61,1.36,1.36,1.36h3.26h0.53h0.83c0.46,0,0.91-0.13,1.29-0.38l2.92-1.89c0.25-0.16,0.53-0.26,0.83-0.29l5.91-0.53
		c0.4-0.04,0.82,0.07,1.17,0.29l2.21,1.45c0.39,0.25,0.84,0.39,1.3,0.39h3.22c0.44-0.01,1.11-0.31,1.11-1.11
		C28.97,24.33,28.23,24.05,27.81,24.02z M27.86,25.74h-3.21c-0.36,0-0.7-0.1-1-0.3L21.43,24c-0.45-0.29-0.99-0.43-1.52-0.38
		l-5.91,0.53c-0.38,0.03-0.75,0.16-1.08,0.37l-2.92,1.89c-0.3,0.19-0.64,0.29-0.99,0.29H8.46H7.91H7.65H4.39
		c-0.45,0-0.81-0.36-0.81-0.81s0.36-0.81,0.81-0.81h3.26h0.24h0.03c0.18,0,0.36-0.03,0.54-0.07c0.4-0.09,0.78-0.29,1.09-0.57
		l2.32-2.17c0.32-0.3,0.74-0.48,1.17-0.49l7.01-0.29c0.46-0.02,0.9,0.13,1.25,0.43l2.52,2.11c0.43,0.36,0.97,0.56,1.53,0.56l2.44,0
		c0.06,0,0.63,0.06,0.63,0.61C28.42,25.69,27.99,25.74,27.86,25.74z"/>
	<g>
		<path class="st1" d="M24.01,20.39c-1.29,0-2.34-1.05-2.34-2.34s1.05-2.34,2.34-2.34s2.34,1.05,2.34,2.34S25.3,20.39,24.01,20.39z
			 M24.01,16.26c-0.99,0-1.79,0.8-1.79,1.79s0.8,1.79,1.79,1.79s1.79-0.8,1.79-1.79S25,16.26,24.01,16.26z"/>
	</g>
	<g>
		<rect x="22.95" y="4.75" class="st1" width="0.55" height="11.39"/>
	</g>
</g>
</svg>
