<?xml version="1.0" encoding="utf-8"?>
<!-- Generator: Adobe Illustrator 23.0.2, SVG Export Plug-In . SVG Version: 6.00 Build 0)  -->
<svg version="1.1" id="Layer_1" xmlns="http://www.w3.org/2000/svg" xmlns:xlink="http://www.w3.org/1999/xlink" x="0px" y="0px"
	 width="32px" height="32px" viewBox="0 0 32 32" style="enable-background:new 0 0 32 32;" xml:space="preserve">
<style type="text/css">
	.st0{fill:none;}
	.st1{fill:#952524;}
</style>
<rect class="st0" width="32" height="32"/>
<g>
	<path class="st1" d="M30.62,27.45c-0.4,0-0.58-0.16-0.89-0.48c-0.31-0.32-0.74-0.75-1.55-0.75c-0.8,0-1.23,0.43-1.55,0.75
		c-0.3,0.3-0.49,0.47-0.89,0.47c-0.4,0-0.58-0.16-0.88-0.47c-0.32-0.32-0.75-0.75-1.55-0.75s-1.24,0.43-1.55,0.75
		c-0.31,0.31-0.49,0.47-0.89,0.47c-0.4,0-0.58-0.16-0.89-0.47c-0.32-0.32-0.75-0.75-1.55-0.75c-0.8,0-1.23,0.43-1.55,0.74
		c-0.3,0.31-0.49,0.48-0.89,0.48c-0.4,0-0.58-0.16-0.89-0.47c-0.31-0.32-0.74-0.75-1.55-0.75c-0.8,0-1.23,0.43-1.55,0.75
		c-0.31,0.31-0.49,0.48-0.89,0.48c-0.4,0-0.58-0.16-0.89-0.48c-0.32-0.32-0.75-0.75-1.55-0.75s-1.23,0.43-1.55,0.75
		c-0.31,0.31-0.49,0.48-0.89,0.48s-0.58-0.16-0.88-0.47c-0.32-0.32-0.75-0.75-1.55-0.75c-0.8,0-1.23,0.43-1.55,0.75
		c-0.31,0.31-0.49,0.48-0.89,0.48c-0.27,0-0.49,0.22-0.49,0.49c0,0.27,0.22,0.49,0.49,0.49c0.83,0,1.26-0.44,1.58-0.76
		c0.3-0.3,0.48-0.46,0.86-0.46c0.38,0,0.55,0.16,0.86,0.46c0.32,0.32,0.76,0.76,1.58,0.76c0.82,0,1.26-0.44,1.58-0.76
		c0.3-0.3,0.48-0.46,0.86-0.46c0.38,0,0.55,0.16,0.86,0.46c0.32,0.32,0.76,0.76,1.58,0.76c0.82,0,1.26-0.44,1.58-0.76
		c0.3-0.3,0.48-0.46,0.86-0.46c0.38,0,0.56,0.16,0.86,0.46c0.32,0.32,0.76,0.76,1.58,0.76c0.82,0,1.26-0.44,1.58-0.76
		c0.3-0.31,0.48-0.46,0.86-0.46c0.38,0,0.55,0.16,0.86,0.46c0.32,0.32,0.76,0.76,1.58,0.76s1.26-0.44,1.58-0.76
		c0.3-0.3,0.48-0.46,0.85-0.46c0.38,0,0.55,0.16,0.86,0.46c0.32,0.32,0.76,0.76,1.58,0.76c0.83,0,1.26-0.44,1.58-0.76
		c0.3-0.3,0.48-0.46,0.86-0.46c0.38,0,0.55,0.16,0.86,0.46c0.32,0.32,0.76,0.76,1.58,0.76c0.27,0,0.49-0.22,0.49-0.49
		C31.11,27.67,30.89,27.45,30.62,27.45z"/>
	<g>
		<g>
			<path class="st1" d="M21.25,8.45c1.27,0,2.3-1.03,2.3-2.3c0-1.27-1.03-2.3-2.3-2.3c-1.27,0-2.3,1.03-2.3,2.3
				C18.95,7.42,19.98,8.45,21.25,8.45 M21.25,4.39c0.97,0,1.75,0.79,1.75,1.75c0,0.97-0.79,1.75-1.75,1.75
				c-0.97,0-1.75-0.79-1.75-1.75C19.5,5.18,20.29,4.39,21.25,4.39"/>
		</g>
		<g>
			<path class="st1" d="M17.29,21.51c-0.1,0-0.2-0.01-0.32-0.04c-0.84-0.22-1.19-0.86-0.98-1.81c0.12-0.54,0.57-2.3,0.72-2.88
				l-2.32-1.64v1.38l0,0c0,0,0.14,0.88-0.82,1.44c-0.81,0.47-3.96,2.01-4.1,2.08c-0.45,0.14-1.31,0.18-1.58-0.6
				c-0.28-0.8-0.09-1.31,0.6-1.71c0.46-0.26,2.6-1.3,3.19-1.59l0.08-3.2c0-0.01-0.08-1.03,0.69-1.7c0.51-0.44,1.97-1.64,2.66-2.21
				l-1.61-0.59c-0.7-0.25-1.32-0.69-1.79-1.26l-1.51-1.83c-0.03-0.04-0.3-0.38-0.26-0.81c0.03-0.27,0.17-0.51,0.41-0.71
				c0.25-0.21,0.51-0.29,0.8-0.26c0.41,0.05,0.66,0.37,0.69,0.41l1.2,1.5c0.46,0.58,1.08,0.99,1.79,1.21l2.76,0.83
				c0.48,0.15,0.93,0.38,1.32,0.69l5.72,4.56c0.03,0.02,0.43,0.3,0.5,0.76c0.03,0.18,0.01,0.46-0.22,0.75
				c-0.21,0.26-0.45,0.41-0.71,0.42c-0.4,0.02-0.66-0.23-0.69-0.26l-4.18-3.25l-2.71,2.5l2.24,1.84l0,0c0.01,0,0.67,0.42,0.33,1.67
				c-0.29,1.05-0.85,3.39-0.86,3.41c-0.01,0.04-0.12,0.51-0.51,0.75C17.68,21.44,17.51,21.51,17.29,21.51z M14.12,14.34
				c0.06,0,0.11,0.02,0.16,0.05l2.91,2.05c0.09,0.07,0.14,0.18,0.11,0.29c-0.01,0.02-0.62,2.42-0.76,3.04
				c-0.19,0.84,0.21,1.06,0.58,1.16c0.17,0.04,0.29,0.03,0.4-0.03c0.17-0.1,0.25-0.33,0.27-0.41c0.01-0.03,0.57-2.38,0.87-3.44
				c0.23-0.82-0.1-1.06-0.12-1.07l-2.51-2.06c-0.06-0.05-0.1-0.13-0.1-0.2c0-0.08,0.03-0.16,0.09-0.21l3.13-2.88
				c0.11-0.1,0.27-0.1,0.37,0l0.14,0.13l4.23,3.28c0.02,0.02,0.16,0.16,0.3,0.13c0.1-0.01,0.21-0.08,0.32-0.21
				c0.09-0.12,0.13-0.22,0.11-0.33c-0.03-0.22-0.28-0.4-0.28-0.4l-5.74-4.58c-0.34-0.27-0.72-0.47-1.13-0.6l0,0l-2.76-0.83
				c-0.81-0.25-1.53-0.73-2.06-1.39l-1.2-1.5c-0.01-0.01-0.14-0.18-0.32-0.2c-0.12-0.01-0.24,0.03-0.38,0.14
				c-0.38,0.31-0.16,0.65-0.08,0.75l1.51,1.83c0.41,0.5,0.95,0.88,1.56,1.1l2.07,0.75c0.09,0.03,0.16,0.11,0.18,0.21
				c0.02,0.1-0.02,0.2-0.1,0.26c0,0-2.34,1.92-3.02,2.51c-0.56,0.48-0.5,1.26-0.5,1.26l-0.08,3.39c0,0.1-0.06,0.2-0.16,0.24
				c-0.03,0.01-2.8,1.35-3.31,1.64c-0.41,0.23-0.56,0.44-0.36,1.05c0.17,0.48,0.83,0.28,0.86,0.27c-0.01,0,3.23-1.59,4.02-2.05
				c0.63-0.36,0.55-0.89,0.55-0.91l0-1.96c0-0.1,0.06-0.2,0.15-0.24C14.03,14.35,14.07,14.34,14.12,14.34z"/>
		</g>
		<g>
			<path class="st1" d="M24.39,23.98c0,0-0.01,0-0.01,0c-0.09,0-9.91-0.03-18.89-2.79v0c-0.01,0-0.28-0.06-0.43-0.31
				c-0.08-0.13-0.16-0.35-0.07-0.69c0.06-0.21,0.18-0.37,0.36-0.47c0.36-0.2,0.84-0.1,0.95-0.07l18.3,3.06
				c0.2,0.05,0.54,0.24,0.54,0.67c0,0.15-0.06,0.29-0.16,0.39C24.78,23.96,24.48,23.98,24.39,23.98z M5.87,20.15
				c-0.09,0-0.19,0.01-0.25,0.05c-0.05,0.03-0.08,0.07-0.1,0.13c-0.03,0.11-0.03,0.2,0,0.25c0.03,0.05,0.1,0.07,0.1,0.07
				c8.94,2.74,18.67,2.77,18.76,2.77c0.11,0.01,0.19-0.02,0.21-0.05c0-0.1-0.08-0.13-0.09-0.13l-0.51-0.07L6.19,20.19
				c-0.01,0-0.02,0-0.03-0.01C6.11,20.17,5.99,20.15,5.87,20.15z"/>
		</g>
		<g>
			<path class="st1" d="M5.25,23.98c-0.03,0-0.04,0-0.04,0C5.1,23.97,5,23.9,4.96,23.8c-0.04-0.1-0.01-0.22,0.06-0.29
				c1-1.01,1.02-2.35,1.02-2.36l0.55,0c0,0.05-0.01,1.15-0.73,2.2c0.6-0.15,1.47-0.58,1.92-1.83l0.52,0.19
				C7.51,23.89,5.57,23.98,5.25,23.98z"/>
		</g>
	</g>
</g>
</svg>
