<?xml version="1.0" encoding="utf-8"?>
<!-- Generator: Adobe Illustrator 23.0.2, SVG Export Plug-In . SVG Version: 6.00 Build 0)  -->
<svg version="1.1" id="Layer_1" xmlns="http://www.w3.org/2000/svg" xmlns:xlink="http://www.w3.org/1999/xlink" x="0px" y="0px"
	 width="32px" height="32px" viewBox="0 0 32 32" style="enable-background:new 0 0 32 32;" xml:space="preserve">
<style type="text/css">
	.st0{fill:none;}
	.st1{fill:#952524;}
</style>
<rect class="st0" width="32" height="32"/>
<g>
	<path class="st1" d="M13.14,6.58c1.72,0,3.12-1.4,3.12-3.12c0-1.72-1.4-3.12-3.12-3.12c-1.72,0-3.12,1.4-3.12,3.12
		C10.02,5.18,11.42,6.58,13.14,6.58 M13.14,1.34c1.17,0,2.12,0.95,2.12,2.12s-0.95,2.12-2.12,2.12s-2.12-0.95-2.12-2.12
		S11.97,1.34,13.14,1.34"/>
	<path class="st1" d="M24.61,28.72c-0.7-0.13-1.27-0.1-1.35-0.1h-0.61c-0.02,0.01-0.66,0-1.09,0.41c-0.04,0.03-0.05,0.08-0.08,0.12
		l-5.72-10.87c0.32-0.43,0.59-1.39-0.31-2.5c-0.94-1.16-2.77-4.08-2.99-5.03l-0.04-0.18c-0.25-1.17-0.72-3.34-2.61-3.72
		c-2.02-0.41-3.94,0.8-4.78,3C4.89,10.17,3.19,14,3.36,16.93c-0.01,0.07-0.21,1.8,1.46,2.79c1.32,0.78,1.93,1.31,1.93,1.31
		c0.02,0.02,0.72,0.78,0.63,1.68c-0.12,1.17-0.44,5.85-0.46,6.04c0,0.07-0.11,1.64,1.14,2.26c0.26,0.13,0.5,0.18,0.71,0.18
		c0.18,0,0.33-0.04,0.45-0.08c0.63-0.22,0.93-0.84,0.99-0.99c0.06-0.22,1.46-5.39,1.59-8.48c0.08-0.32,0.23-1.48-0.9-2.88
		c-1.03-1.26-1.87-2-2.08-2.18c-0.09-0.14-0.45-0.72-0.35-1.56c0.13-1.09,0.57-2.11,0.56-2.11c0.1-0.18,0.28-0.37,0.3-0.4
		c0,0,0.1,0.06,0.23,0.41c0.77,2.02,1.83,3.65,3.24,4.97c0.76,0.71,1.45,1.03,2.07,0.96c0.2-0.03,0.35-0.09,0.47-0.17l5.88,11.17
		c0,0.05-0.02,0.09-0.02,0.14c0,1.26,0.62,1.44,1.18,1.58l0.07,0.02c0.18,0.05,0.4,0.07,0.64,0.07c0.58,0,1.21-0.11,1.34-0.14
		c0.03-0.01,0.88-0.32,0.98-1.2l0.01-0.08C25.48,29.57,25.56,28.89,24.61,28.72 M14.91,17.76c-0.01,0.01-0.07,0.08-0.19,0.09
		c-0.14,0.01-0.53-0.04-1.23-0.69c-1.3-1.22-2.28-2.73-2.99-4.6c-0.25-0.66-0.61-1.01-1.06-1.04c-0.72-0.05-1.19,0.74-1.3,0.95
		c-0.02,0.05-0.51,1.18-0.66,2.44c-0.17,1.39,0.56,2.3,0.59,2.34l0.07,0.07c0.01,0.01,0.89,0.73,1.99,2.08
		c0.94,1.15,0.71,1.99,0.7,2.02l-0.03,0.14c-0.11,2.96-1.54,8.24-1.53,8.24c-0.03,0.06-0.18,0.31-0.38,0.39
		c-0.07,0.02-0.18,0.04-0.37-0.05c-0.64-0.32-0.59-1.28-0.59-1.29c0-0.05,0.34-4.86,0.45-6.02c0.14-1.39-0.86-2.44-0.93-2.51
		c-0.03-0.02-0.67-0.59-2.11-1.44c-1.1-0.65-0.98-1.76-0.98-1.9c-0.16-2.83,1.57-6.67,1.58-6.71l0.01-0.03
		c0.58-1.52,1.78-2.45,3.09-2.45c0.19,0,0.38,0.02,0.56,0.06c1.25,0.25,1.62,1.94,1.84,2.95l0.04,0.19
		c0.27,1.23,2.26,4.31,3.19,5.45C15.32,17.21,14.99,17.67,14.91,17.76 M24.86,30.17l-0.01,0.08c-0.06,0.53-0.59,0.73-0.57,0.73
		c-0.32,0.06-1.26,0.18-1.68,0.07l-0.07-0.02c-0.51-0.14-0.77-0.21-0.77-1.06c0-0.24,0.06-0.42,0.2-0.55
		c0.26-0.25,0.69-0.26,0.7-0.26h0.62h0.01c0.01,0,0.55-0.03,1.23,0.09C24.93,29.34,24.94,29.45,24.86,30.17"/>
	<path class="st1" d="M27.63,29.34c-0.56,0-1.02,0.46-1.02,1.02c0,0.56,0.46,1.02,1.02,1.02c0.56,0,1.02-0.46,1.02-1.02
		C28.65,29.8,28.19,29.34,27.63,29.34"/>
</g>
</svg>
