<?xml version="1.0" encoding="utf-8"?>
<!-- Generator: Adobe Illustrator 23.0.2, SVG Export Plug-In . SVG Version: 6.00 Build 0)  -->
<svg version="1.1" id="Layer_1" xmlns="http://www.w3.org/2000/svg" xmlns:xlink="http://www.w3.org/1999/xlink" x="0px" y="0px"
	 width="32px" height="32px" viewBox="0 0 32 32" style="enable-background:new 0 0 32 32;" xml:space="preserve">
<style type="text/css">
	.st0{fill:none;}
	.st1{fill:#962425;}
</style>
<rect class="st0" width="32" height="32"/>
<g>
	<path class="st1" d="M29.94,12.33c0,0-0.23-0.12-0.53-0.81c-0.44-1-6.11-4.79-9.46-5.16c-3.4-0.38-4.71,1.43-4.72,1.46
		c-0.12,0.1-2.91,2.57-6.98,0.85C7.64,8.35,4.55,6.8,3.66,7.61L3.62,7.66c0,0-0.08,0.11-0.19,0.19C3.35,7.91,3.29,7.93,3.23,7.92
		C3.15,7.9,3.05,7.81,2.95,7.67C2.6,7.13,1.8,6.85,1.21,6.88C0.84,6.91,0.57,7.06,0.45,7.3C0.31,7.59,0.39,7.94,0.67,8.35
		c0.15,0.22,0.24,0.37,0.29,0.48C0.83,8.76,0.52,8.62,0.32,8.83c-0.24,0.24-0.01,0.65,0.1,0.85c0.06,0.1,0.13,0.27,0.22,0.48
		c0.65,1.5,2.36,5.47,6.71,4.56c4.5-0.95,10,6.64,10.06,6.73c0.08,0.11,0.79,1.07-0.27,2.08c-0.23,0.21-0.43,0.39-0.6,0.54
		c-0.47,0.41-0.73,0.64-0.65,0.95c0.08,0.32,0.46,0.43,1.38,0.63c0.2,0.04,0.39,0.06,0.57,0.06c1.27,0,1.99-1.02,2.2-1.63l0.04-0.1
		l-0.04-0.1c-0.03-0.06-0.27-0.64-0.75-0.77c-0.13-0.03-0.31-0.04-0.52,0.05c0.11-0.14,0.28-0.28,0.52-0.34
		c1.03-0.26,1.95-1.82,2-1.9c0.01-0.02,0.83-1.57,3.67-2.04c2.9-0.48,4.78-2.12,5.05-2.37c0.26-0.14,1.79-1,1.78-2.17
		C31.78,13.6,31.17,12.92,29.94,12.33 M29.72,16.05l-0.06,0.05c-0.02,0.02-1.89,1.77-4.79,2.25c-3.12,0.51-4.04,2.26-4.07,2.32
		c-0.23,0.4-0.99,1.46-1.65,1.63c-0.66,0.16-1.03,0.75-1.08,1.11c-0.04,0.3,0.12,0.43,0.19,0.47c0.17,0.1,0.39,0.05,0.63-0.14
		c0.15-0.12,0.23-0.1,0.25-0.09c0.13,0.03,0.26,0.21,0.33,0.35c-0.15,0.34-0.75,1.41-2.09,1.11c-0.21-0.04-0.7-0.15-0.91-0.24
		c0.09-0.1,0.26-0.25,0.42-0.39c0.17-0.15,0.38-0.34,0.62-0.56c1.17-1.11,0.72-2.33,0.33-2.81c-0.23-0.33-5.75-7.96-10.61-6.93
		c-3.9,0.82-5.43-2.72-6.09-4.23C1.04,9.7,0.96,9.51,0.9,9.4c0,0,0,0,0,0c0.19,0.06,0.43,0.09,0.59-0.09
		c0.24-0.27,0.03-0.7-0.36-1.27c-0.18-0.27-0.21-0.44-0.18-0.5c0.03-0.06,0.15-0.1,0.3-0.11C1.65,7.4,2.26,7.62,2.49,7.97
		c0.18,0.28,0.4,0.45,0.64,0.5c0.2,0.04,0.42-0.02,0.62-0.15C3.9,8.2,4,8.07,4.05,8c0.44-0.33,2.37,0.33,3.96,1.16
		c4.41,1.87,7.55-0.92,7.62-0.99c0.01-0.02,1.17-1.62,4.25-1.27c3.26,0.36,8.7,4.13,9.02,4.84c0.41,0.92,0.76,1.09,0.83,1.1
		c0.69,0.33,1.5,0.87,1.51,1.52C31.24,15.11,30.15,15.83,29.72,16.05"/>
	<path class="st1" d="M26.47,21.05L26.47,21.05c-0.29,0.11-1.74,0.7-1.82,1.51c-0.02,0.23,0.05,0.56,0.53,0.87
		c1.22,0.78,2.2,1.19,2.47,1.29c0.08,0.08,0.24,0.2,0.46,0.2c0.01,0,0.02,0,0.03,0c0.33-0.01,0.63-0.28,0.91-0.8
		c0.39-0.72,0.22-1.85-0.39-2.56C28.1,20.94,27.31,20.75,26.47,21.05 M28.56,23.86c-0.27,0.49-0.43,0.52-0.45,0.52
		c-0.03,0.02-0.07-0.04-0.07-0.04l-0.05-0.08l-0.08-0.03c-0.01,0-1.08-0.4-2.43-1.27c-0.13-0.09-0.29-0.22-0.28-0.35
		c0.04-0.35,0.9-0.83,1.47-1.05c0.79-0.29,1.29,0.04,1.57,0.36C28.69,22.46,28.84,23.35,28.56,23.86"/>
	<path class="st1" d="M24.71,21.39l0.99-0.53c0.09-0.05,0.15-0.14,0.15-0.24c0-0.1-0.06-0.19-0.15-0.24l-0.27-0.14
		c-0.1-0.06-0.23-0.04-0.32,0.04l-0.72,0.67c-0.1,0.09-0.12,0.25-0.04,0.36c0.05,0.08,0.14,0.12,0.23,0.12
		C24.63,21.42,24.67,21.41,24.71,21.39"/>
	<path class="st1" d="M24.21,21.6c-0.09,0.07-0.4,0.13-0.64,0.13c-0.15,0.01-0.27,0.13-0.27,0.28c0,0.15,0.13,0.27,0.27,0.27h0.01
		c0.11,0,0.67-0.03,0.95-0.25c0.12-0.09,0.15-0.26,0.05-0.38C24.5,21.53,24.33,21.51,24.21,21.6"/>
</g>
</svg>
