<?xml version="1.0" encoding="utf-8"?>
<!-- Generator: Adobe Illustrator 23.0.2, SVG Export Plug-In . SVG Version: 6.00 Build 0)  -->
<svg version="1.1" id="Layer_1" xmlns="http://www.w3.org/2000/svg" xmlns:xlink="http://www.w3.org/1999/xlink" x="0px" y="0px"
	 width="32px" height="32px" viewBox="0 0 32 32" style="enable-background:new 0 0 32 32;" xml:space="preserve">
<style type="text/css">
	.st0{fill:none;}
	.st1{fill:#952524;}
</style>
<rect class="st0" width="32" height="32"/>
<g>
	<path class="st1" d="M30.62,5.7c-0.4,0-0.58-0.16-0.89-0.48c-0.32-0.32-0.75-0.75-1.55-0.75c-0.8,0-1.23,0.43-1.55,0.75
		c-0.3,0.31-0.49,0.48-0.89,0.48c-0.4,0-0.58-0.16-0.89-0.47c-0.32-0.32-0.75-0.75-1.55-0.75c-0.8,0-1.23,0.43-1.55,0.75
		c-0.31,0.31-0.49,0.47-0.89,0.47c-0.4,0-0.58-0.16-0.89-0.47c-0.32-0.32-0.75-0.75-1.55-0.75c-0.8,0-1.23,0.43-1.55,0.75
		C16.59,5.53,16.4,5.7,16,5.7c-0.4,0-0.58-0.16-0.89-0.47c-0.32-0.32-0.75-0.75-1.55-0.75c-0.8,0-1.23,0.43-1.55,0.75
		C11.7,5.54,11.52,5.7,11.13,5.7c-0.4,0-0.58-0.16-0.89-0.48C9.92,4.91,9.49,4.48,8.69,4.48c-0.8,0-1.23,0.43-1.55,0.75
		C6.83,5.54,6.65,5.7,6.25,5.7c-0.4,0-0.59-0.17-0.89-0.47C5.05,4.91,4.62,4.48,3.82,4.48S2.58,4.91,2.27,5.23
		C1.96,5.54,1.78,5.7,1.38,5.7c-0.27,0-0.49,0.22-0.49,0.49c0,0.27,0.22,0.49,0.49,0.49c0.82,0,1.26-0.44,1.58-0.76
		c0.3-0.3,0.48-0.46,0.86-0.46c0.38,0,0.56,0.16,0.86,0.46c0.32,0.32,0.75,0.76,1.58,0.76c0.82,0,1.26-0.44,1.58-0.76
		c0.3-0.3,0.48-0.46,0.86-0.46c0.38,0,0.55,0.16,0.86,0.46c0.32,0.32,0.75,0.76,1.58,0.76c0.82,0,1.26-0.44,1.58-0.76
		c0.29-0.29,0.47-0.46,0.86-0.46c0.38,0,0.56,0.16,0.86,0.46c0.32,0.32,0.76,0.76,1.58,0.76c0.82,0,1.26-0.44,1.58-0.76
		c0.3-0.3,0.48-0.46,0.86-0.46c0.38,0,0.56,0.16,0.86,0.46c0.32,0.32,0.75,0.76,1.58,0.76c0.82,0,1.26-0.44,1.58-0.76
		c0.3-0.3,0.47-0.46,0.85-0.46c0.38,0,0.56,0.16,0.86,0.46c0.32,0.32,0.75,0.76,1.58,0.76c0.82,0,1.26-0.44,1.58-0.76
		c0.3-0.3,0.48-0.46,0.86-0.46c0.38,0,0.56,0.16,0.86,0.46c0.32,0.32,0.75,0.76,1.58,0.76c0.27,0,0.49-0.22,0.49-0.49
		C31.11,5.92,30.89,5.7,30.62,5.7z"/>
	<path class="st1" d="M24.01,21.39c1.31,0,2.38-1.07,2.38-2.38s-1.07-2.38-2.38-2.38c-1.31,0-2.38,1.07-2.38,2.38
		S22.7,21.39,24.01,21.39 M24.01,17.18c1.01,0,1.83,0.82,1.83,1.83c0,1.01-0.82,1.83-1.83,1.83c-1.01,0-1.83-0.82-1.83-1.83
		C22.18,18,23,17.18,24.01,17.18"/>
	<path class="st1" d="M9.72,19.89L9.72,19.89l7.16-0.21c1.04-0.03,1.85-0.9,1.82-1.94c-0.01-0.5-0.22-0.97-0.59-1.31
		c-0.37-0.34-0.86-0.53-1.34-0.51l-7.15,0.21c-0.07,0-0.14,0.03-0.19,0.09c-0.05,0.05-0.08,0.13-0.07,0.2l0.1,3.21
		C9.45,19.78,9.58,19.89,9.72,19.89 M16.79,16.47c0.36,0,0.69,0.12,0.95,0.36c0.26,0.24,0.41,0.57,0.42,0.93
		c0.02,0.73-0.56,1.34-1.29,1.37l-6.88,0.21l-0.08-2.65L16.79,16.47z"/>
	<path class="st1" d="M26.99,24.29h-2.46c-0.43,0-0.85-0.15-1.17-0.43l-2.52-2.11c-0.46-0.38-1.01-0.58-1.63-0.55l-7.01,0.29
		c-0.57,0.02-1.11,0.25-1.53,0.64L8.35,24.3c-0.34,0.32-0.78,0.5-1.25,0.5H6.83H3.56c-0.75,0-1.36,0.61-1.36,1.36
		s0.61,1.36,1.36,1.36h3.26h0.53h0.83c0.46,0,0.91-0.13,1.29-0.38l2.92-1.89c0.25-0.16,0.53-0.26,0.83-0.29l5.91-0.53
		c0.4-0.04,0.82,0.07,1.17,0.29l2.21,1.45c0.39,0.25,0.84,0.39,1.3,0.39h3.22c0.44-0.01,1.11-0.31,1.11-1.11
		C28.15,24.6,27.4,24.32,26.99,24.29z M27.04,26.01h-3.21c-0.36,0-0.7-0.1-1-0.3l-2.21-1.45c-0.45-0.29-0.99-0.43-1.52-0.38
		l-5.91,0.53c-0.38,0.03-0.75,0.16-1.08,0.37l-2.92,1.89c-0.3,0.19-0.64,0.29-0.99,0.29H7.64H7.08H6.83H3.56
		c-0.45,0-0.81-0.36-0.81-0.81s0.36-0.81,0.81-0.81h3.26h0.24h0.03c0.18,0,0.36-0.03,0.54-0.07c0.4-0.09,0.78-0.29,1.09-0.57
		l2.32-2.17c0.32-0.3,0.74-0.48,1.17-0.49l7.01-0.29c0.46-0.02,0.9,0.13,1.25,0.43L23,24.28c0.43,0.36,0.97,0.56,1.53,0.56l2.44,0
		c0.06,0,0.63,0.06,0.63,0.61C27.6,25.95,27.17,26,27.04,26.01z"/>
</g>
</svg>
