<?xml version="1.0" encoding="utf-8"?>
<!-- Generator: Adobe Illustrator 23.0.2, SVG Export Plug-In . SVG Version: 6.00 Build 0)  -->
<svg version="1.1" id="Layer_1" xmlns="http://www.w3.org/2000/svg" xmlns:xlink="http://www.w3.org/1999/xlink" x="0px" y="0px"
	 width="32px" height="32px" viewBox="0 0 32 32" style="enable-background:new 0 0 32 32;" xml:space="preserve">
<style type="text/css">
	.st0{fill:none;}
	.st1{fill:#952524;}
</style>
<rect class="st0" width="32" height="32"/>
<g>
	<path class="st1" d="M31.5,15.22c-0.06-0.13-0.21-0.2-0.35-0.15c-3.83,1.43-5.78,4.28-6.76,7.1c0.72-4.46,2.28-6.65,2.3-6.68
		c0.06-0.09,0.07-0.21,0.02-0.3c-0.05-0.1-0.16-0.15-0.27-0.14c-1.74,0.18-2.86,1.05-3.54,1.87c0.94-3.9,2.07-5.22,2.09-5.24
		c0.08-0.09,0.09-0.22,0.03-0.32c-0.06-0.1-0.17-0.16-0.29-0.13c-2.79,0.58-4.5,2.76-5.53,5.43c0.83-7.13,4.68-11.86,4.73-11.91
		c0.08-0.1,0.09-0.23,0.01-0.34c-0.07-0.1-0.21-0.14-0.32-0.1c-3.04,1.16-4.97,3.86-6.21,6.74c-1.09-4.5-6.03-8.38-6.26-8.56
		c-0.11-0.08-0.26-0.07-0.36,0.02c-0.1,0.09-0.12,0.24-0.04,0.36c2.03,2.99,2.62,7.12,2.79,9.25c-1.17-2.12-2.87-3.69-5.33-4.1
		C8.11,7.99,8,8.04,7.94,8.14c-0.06,0.1-0.05,0.22,0.02,0.31c0.03,0.04,2.74,3.53,2.96,8.36c-0.84-1.55-2.04-2.78-3.78-3.33
		c-0.09-0.03-0.19-0.01-0.26,0.06c-0.07,0.06-0.11,0.16-0.09,0.25c0.01,0.03,0.45,2.55,0.14,4.98c-2.63-4.88-5.95-5.28-6.15-5.3
		c-0.1,0-0.21,0.04-0.26,0.14c-0.05,0.09-0.05,0.21,0.01,0.3c2.45,3.49,5.08,13.62,5.59,15.66h0.57C6.28,27.9,3.84,18.3,1.36,14.18
		c1.76,0.6,6.67,3.34,7.92,15.39h0.56c-0.45-4.42-1.38-7.63-2.48-9.96c0.43-2.13,0.19-4.47,0.05-5.44
		c5.67,2.32,4.75,13.56,4.56,15.41h0.56c0.16-1.45,0.64-7.25-1.04-11.55c0.18-4.47-1.77-7.97-2.67-9.31
		c7.79,2.22,6.68,18.56,6.48,20.86h0.55c0.1-1.15,0.38-4.93-0.04-9.02c0.09-1.41,0.98-11.99,7.05-15.28
		c-1.33,1.94-4.27,6.99-4.38,13.68c-1.08,4.42-0.82,9.31-0.72,10.62h0.55c-0.14-2.06-0.81-15.33,5.81-17.6
		c-0.94,1.57-2.99,6.31-3.03,17.6h0.55c0.02-4.78,0.4-8.38,0.91-11.04c0.11-0.29,0.97-2.31,3.35-2.83
		c-0.74,1.28-2.43,4.88-2.43,11.09h0.01c-0.08,1.28-0.02,2.28,0.02,2.78h0.55c-0.14-1.51-0.58-9.63,5.61-13.19
		c-1.4,1.71-3.24,5.48-2.75,13.19h0.55c-0.73-11.47,3.85-13.96,3.89-13.99C31.5,15.51,31.56,15.36,31.5,15.22 M15.51,18.2
		c-0.29-1.67-0.71-3.32-1.33-4.79c-0.01-0.79-0.15-5.49-2.1-9.39c1.7,1.59,4.57,4.73,4.96,7.98C16.19,14.26,15.74,16.54,15.51,18.2"
		/>
</g>
</svg>
