<?xml version="1.0" encoding="utf-8"?>
<!-- Generator: Adobe Illustrator 23.0.2, SVG Export Plug-In . SVG Version: 6.00 Build 0)  -->
<svg version="1.1" id="Layer_1" xmlns="http://www.w3.org/2000/svg" xmlns:xlink="http://www.w3.org/1999/xlink" x="0px" y="0px"
	 width="32px" height="32px" viewBox="0 0 32 32" style="enable-background:new 0 0 32 32;" xml:space="preserve">
<style type="text/css">
	.st0{fill:none;}
	.st1{fill:#972726;}
</style>
<g>
	<rect y="0" class="st0" width="32" height="32"/>
</g>
<path class="st1" d="M29.85,6.64C27.4,4.49,18.35,1.89,14.79,5.5c-3.24,3.31-4.27,3.59-4.3,3.6l-0.07,0.02
	c-0.07,0.03-1.64,0.84-2.11,2.31C8.08,12.2,8.18,13,8.62,13.81c1.43,2.62,0.37,6.54,0.36,6.58l-0.02,0.03l0.01,0.06
	c0,0-0.14,0.5-2.21,0.52l-0.02,0c-0.04,0-1.07,0.12-1.77,0.99c-0.37,0.46-0.68,0.69-0.93,0.69h0c-0.18,0-0.36-0.11-0.56-0.35
	c-0.41-0.49-1.32-1.08-1.99-0.79c-0.5,0.21-0.7,0.8-0.59,1.75c0.28,2.54,3.9,2.37,4.08,2.36c0.03,0,0.67-0.07,1.18,0.86
	c0.5,0.92,1.14,0.86,1.31,0.82c0.36-0.08,0.63-0.38,0.65-0.73c0.01-0.16,0.16-0.32,0.35-0.38c0.14-0.04,0.33-0.03,0.51,0.22
	c0.19,0.26,0.44,0.41,0.73,0.44c0.47,0.04,0.93-0.29,1.05-0.41c0.07-0.06,0.5-0.34,0.84-0.27c0.21,0.05,0.36,0.21,0.47,0.5
	c0.42,1.1,1.76,1.06,2.43,0.88c0.02-0.01,2.04-0.74,3.68,0.27c0.48,0.3,0.92,0.45,1.32,0.45c0.16,0,0.32-0.03,0.47-0.08
	c0.53-0.19,0.75-0.66,0.8-0.79c0.11-0.18,0.22-0.55-0.01-0.94c-0.1-0.17-0.2-0.41-0.13-0.62c0.06-0.17,0.22-0.31,0.49-0.43
	c0.66-0.28,1.09-0.28,1.18-0.19c0.04,0.05,0.04,0.21-0.08,0.46c-0.07,0.17-0.15,0.33-0.22,0.49c-0.34,0.71-0.6,1.28-0.36,1.64
	c0.12,0.18,0.32,0.27,0.66,0.26c0.48-0.02,2.92-0.15,3.96-1.15c0.44-0.43,0.47-1.08,0.06-1.64c-0.42-0.57-1.24-0.93-2.01-0.52
	c-0.22,0.12-0.3,0.1-0.3,0.1c-0.08-0.08-0.05-0.57,0.11-1.06c0.01-0.02,0.79-1.87,1.79-2.75c1.13-0.99,3.49-5.73,4-7.75
	c0.11-0.45,0.3-0.91,0.49-1.4C31.08,10.27,31.83,8.38,29.85,6.64 M29.95,11.75c-0.2,0.5-0.39,0.98-0.51,1.46
	c-0.52,2.03-2.89,6.66-3.85,7.5c-1.08,0.95-1.88,2.85-1.92,2.95c-0.1,0.29-0.38,1.27,0.04,1.62c0.21,0.17,0.49,0.16,0.86-0.04
	c0.52-0.28,1.08-0.02,1.37,0.37c0.2,0.28,0.31,0.68,0,0.98c-0.71,0.68-2.4,0.97-3.63,1.02c-0.16,0.01-0.22-0.03-0.23-0.04
	c-0.09-0.13,0.21-0.77,0.39-1.15c0.08-0.16,0.15-0.33,0.23-0.5c0.2-0.46,0.19-0.8-0.03-1.02c-0.41-0.42-1.35-0.08-1.74,0.08
	c-0.41,0.17-0.67,0.42-0.77,0.73c-0.1,0.31-0.04,0.66,0.17,1.03c0.13,0.23,0.02,0.42,0.01,0.43l-0.03,0.06c0,0-0.14,0.38-0.51,0.51
	c-0.34,0.12-0.81,0.01-1.35-0.32c-0.76-0.47-1.59-0.61-2.29-0.61c-0.99,0-1.76,0.27-1.8,0.29c-0.01,0-1.44,0.38-1.81-0.58
	c-0.21-0.57-0.57-0.75-0.83-0.81c-0.57-0.12-1.15,0.25-1.3,0.4c-0.07,0.07-0.39,0.28-0.66,0.26c-0.14-0.01-0.26-0.09-0.37-0.23
	c-0.26-0.37-0.66-0.52-1.05-0.41c-0.39,0.11-0.68,0.46-0.71,0.82c-0.01,0.12-0.12,0.24-0.26,0.27c-0.27,0.05-0.54-0.16-0.77-0.57
	c-0.68-1.26-1.65-1.13-1.67-1.12c-0.03,0-3.31,0.16-3.54-1.92C1.33,22.55,1.43,22.11,1.69,22c0.36-0.15,1.05,0.23,1.41,0.65
	c0.29,0.35,0.61,0.53,0.94,0.53h0.01c0.42,0,0.84-0.29,1.32-0.88c0.53-0.66,1.33-0.79,1.42-0.8c1.36-0.02,2.22-0.24,2.55-0.65
	c0.12-0.15,0.14-0.29,0.14-0.37c0.12-0.45,1.05-4.23-0.42-6.91c-0.38-0.68-0.46-1.35-0.27-1.98c0.37-1.19,1.65-1.91,1.83-2.01
	c0.25-0.07,1.42-0.56,4.52-3.73c3.3-3.36,12.09-0.85,14.37,1.16C31.23,8.52,30.61,10.09,29.95,11.75"/>
</svg>
