<?xml version="1.0" encoding="utf-8"?>
<!-- Generator: Adobe Illustrator 23.0.2, SVG Export Plug-In . SVG Version: 6.00 Build 0)  -->
<svg version="1.1" id="Layer_1" xmlns="http://www.w3.org/2000/svg" xmlns:xlink="http://www.w3.org/1999/xlink" x="0px" y="0px"
	 width="32px" height="32px" viewBox="0 0 32 32" style="enable-background:new 0 0 32 32;" xml:space="preserve">
<style type="text/css">
	.st0{fill:none;}
	.st1{fill:#952524;}
	.st2{fill:none;stroke:#952524;stroke-width:0.55;stroke-linejoin:round;stroke-miterlimit:10;}
</style>
<rect class="st0" width="32" height="32"/>
<g>
	<path class="st1" d="M19.92,8.74c-1.33,0-2.42-1.08-2.42-2.42s1.08-2.42,2.42-2.42c1.33,0,2.42,1.08,2.42,2.42
		S21.25,8.74,19.92,8.74 M19.92,4.46c-1.03,0-1.87,0.84-1.87,1.87c0,1.03,0.84,1.87,1.87,1.87c1.03,0,1.87-0.84,1.87-1.87
		C21.78,5.3,20.95,4.46,19.92,4.46"/>
	<path class="st1" d="M5.35,20.05c-2.22,0-4.02,1.8-4.02,4.02c0,2.22,1.8,4.02,4.02,4.02c2.22,0,4.02-1.8,4.02-4.02
		C9.37,21.85,7.57,20.05,5.35,20.05 M5.35,27.1c-1.67,0-3.03-1.36-3.03-3.03c0-1.67,1.36-3.03,3.03-3.03c1.67,0,3.03,1.36,3.03,3.03
		C8.39,25.74,7.02,27.1,5.35,27.1"/>
	<path class="st1" d="M27.16,20.05c-2.22,0-4.02,1.8-4.02,4.02c0,2.22,1.8,4.02,4.02,4.02c2.22,0,4.02-1.8,4.02-4.02
		C31.18,21.85,29.38,20.05,27.16,20.05 M27.16,27.1c-1.67,0-3.03-1.36-3.03-3.03c0-1.67,1.36-3.03,3.03-3.03
		c1.67,0,3.03,1.36,3.03,3.03C30.19,25.74,28.83,27.1,27.16,27.1"/>
	<path class="st1" d="M30.62,16.57c-0.57-0.55-1.16-0.89-1.84-1.12c-0.03-0.01-0.06-0.02-0.1-0.03c-0.03-0.01-0.06-0.02-0.09-0.03
		l-0.03-0.1l-0.03-0.09l-0.96-2.94c-0.07-0.21-0.25-0.34-0.47-0.34h-4.03c-0.27,0-0.5,0.22-0.5,0.5v2.35v0.08v0.08
		c-0.03,0.01-0.05,0.01-0.08,0.02c-0.03,0.01-0.05,0.01-0.08,0.02c-0.78,0.19-1.22,0.44-1.25,0.46c-0.6,0.35-1.21,0.66-1.81,0.92
		c-0.16-0.63-0.57-1.33-1.54-1.81c-0.11-0.05-0.23-0.12-0.35-0.19c-0.98-0.53-2.41-1.41-2.43-1.42c-0.02-0.01-0.05-0.01-0.07-0.02
		c0,0,0,0,0,0c0,0,0,0,0,0c0-0.01,0.02-0.1,0.2-0.29c0.36-0.38,0.88-0.75,1.19-0.96c0.16-0.1,0.26-0.17,0.27-0.18
		c0.02-0.02,0.61-0.4,1.56,0.11c0.4,0.21,0.68,0.37,0.88,0.48c0.33,0.19,0.43,0.26,0.44,0.27c0.01,0.01,0.03,0.02,0.04,0.03
		c0.78,0.38,1.24,0.1,1.47-0.16c0.03-0.03,0.05-0.06,0.08-0.09c0.02-0.03,0.03-0.06,0.05-0.09c0.16-0.27,0.18-0.51,0.15-0.67
		c0-0.01,0-0.02,0-0.03c-0.02-0.08-0.05-0.14-0.08-0.2c-0.02-0.03-0.02-0.07-0.04-0.1c-0.13-0.22-0.31-0.35-0.39-0.4
		c-0.02-0.01-0.04-0.03-0.05-0.03c-0.21-0.12-0.49-0.28-0.8-0.46c-0.86-0.49-1.98-1.12-2.58-1.45c-0.26-0.14-0.42-0.23-0.43-0.24
		c-0.07-0.03-1.68-0.75-3.23,0.52c-0.86,0.7-1.52,1.53-1.94,2.11c-0.29,0.4-0.46,0.69-0.48,0.72c-0.02,0.04-0.55,1.04-0.23,1.96
		c0.01,0.01,0.01,0.03,0.02,0.04c0.18,0.46,0.53,0.81,1.06,1.03l0.54,0.23c1.06,0.45,3.32,1.39,3.98,2.09
		c-1.79,0.27-3.07-0.08-3.68-0.52c-1.48-1.04-2.66-1.23-3.05-1.26c-0.03,0-0.06-0.01-0.08-0.01c-0.03,0-0.06,0-0.07,0H9.75v-0.08
		v-0.08v-4.23c0-0.27-0.22-0.5-0.5-0.5H2.36c-0.27,0-0.5,0.22-0.5,0.5v4.38v0.08v0.08c-0.02,0.01-0.06,0.01-0.08,0.03
		c-0.03,0.01-0.05,0.03-0.08,0.04c-0.7,0.35-0.89,1.01-0.89,1.33v1.48l5.09,0.06c4.28,0.05,5.42,2.36,5.42,3.72
		c0,1.5,1.23,2.05,2.05,2.05h5.79c1.31,0,1.91-1.25,2.05-1.91c1.21-3.68,4.63-3.83,4.77-3.83l3.61,0c0.37,0.03,1.24,0.03,1.51-0.56
		C31.38,17.31,30.81,16.75,30.62,16.57z M23.56,14.69v-0.08V12.9h3.17l0.67,2.04l0.03,0.09l0.03,0.09c-0.03,0-0.06-0.01-0.09-0.02
		c-0.03-0.01-0.06-0.01-0.09-0.02c-0.47-0.08-0.98-0.14-1.55-0.22l-0.39-0.05c-0.6-0.08-1.14-0.08-1.62-0.06c-0.02,0-0.05,0-0.08,0
		c-0.03,0-0.05,0-0.08,0.01V14.69z M18.33,19.98c-0.02,0.04-0.04,0.07-0.14,0.49c0,0-0.01,0.02-0.01,0.05
		c-0.03,0.1-0.11,0.34-0.31,0.47c-0.04,0.03-0.09,0.03-0.14,0.05c-0.11,0.03-0.22,0.04-0.37,0.01c-0.22-0.05-0.37-0.14-0.44-0.26
		c-0.04-0.08-0.05-0.17-0.05-0.24c0-0.06,0.01-0.11,0.02-0.15c0.01-0.03,0.01-0.05,0.02-0.06c0-0.01,0.16-0.85,0.31-1.69
		c0.06-0.37,0.12-0.75,0.16-1.05c0.1-0.75-0.98-1.46-2.55-2.2c-0.06-0.03-0.11-0.05-0.16-0.08c-0.01,0-0.02-0.01-0.03-0.01
		c-0.54-0.25-1.14-0.51-1.77-0.77l-0.42-0.17l-0.11-0.05c0,0,0,0,0,0c-0.2-0.09-0.36-0.19-0.49-0.31c0,0,0,0,0,0
		c-0.13-0.12-0.22-0.27-0.28-0.43c0,0,0,0,0,0c-0.06-0.17-0.08-0.35-0.07-0.53c0-0.01,0-0.03,0-0.04c0.03-0.5,0.26-0.94,0.26-0.95
		c0-0.01,0.17-0.28,0.44-0.67c0.39-0.55,1.03-1.35,1.84-2.01c0.6-0.49,1.22-0.63,1.7-0.63c0.54,0,0.92,0.17,0.94,0.17
		c0,0,0.04,0.02,0.1,0.06c0.25,0.14,0.92,0.51,1.65,0.93c0.75,0.42,1.56,0.88,2.02,1.15c0.07,0.04,0.26,0.19,0.3,0.37
		c0.02,0.11-0.01,0.23-0.1,0.36c-0.03,0.04-0.06,0.07-0.1,0.1c-0.12,0.11-0.32,0.15-0.67,0.01c-0.03-0.01-0.04-0.01-0.07-0.02
		c-0.09-0.06-0.41-0.27-1.36-0.77c0,0,0,0,0,0c0,0,0,0,0,0c-0.11-0.06-0.21-0.09-0.31-0.13c-0.05-0.02-0.1-0.05-0.14-0.06
		c-0.1-0.03-0.18-0.05-0.27-0.07c-0.84-0.18-1.38,0.17-1.4,0.18c-0.02,0.01-0.3,0.19-0.64,0.44c-0.3,0.22-0.64,0.49-0.92,0.78
		c-0.01,0.01-0.02,0.02-0.03,0.03c-0.27,0.29-0.37,0.54-0.31,0.78c0,0,0,0,0,0l0,0c0,0.01,0.01,0.01,0.01,0.02
		c0.06,0.18,0.2,0.3,0.33,0.35c0.19,0.12,1.33,0.82,2.23,1.31c0.2,0.11,0.4,0.22,0.56,0.3c1.79,0.9,1.26,2.64,1.23,2.74
		C18.43,19.49,18.33,19.95,18.33,19.98z M2.86,15.26v-0.08v-3.74h5.9v3.74v0.08v0.08H8.68H8.6H3.02H2.94H2.86V15.26z M29.93,17.47
		c-0.1,0-0.2,0-0.28,0h-3.66c-0.04,0-4.27,0.16-5.71,4.56c0,0-0.27,1.18-1.09,1.18h-5.79c-0.18,0-1.06-0.05-1.06-1.06
		c0-1.6-1.34-4.65-6.4-4.71l-4.11-0.05v-0.5c0-0.02,0.01-0.56,0.94-0.56h7.02c0.01,0,1.12,0.03,2.62,1.09
		c0.77,0.54,2.31,0.98,4.36,0.69c-0.03,0.2-0.07,0.4-0.1,0.61c-0.13,0.76-0.27,1.47-0.27,1.47c-0.01,0.04-0.1,0.34-0.01,0.67
		c0.02,0.06,0.03,0.13,0.07,0.19c0.08,0.14,0.2,0.26,0.34,0.35c0.13,0.08,0.28,0.15,0.46,0.19c0.11,0.02,0.22,0.04,0.32,0.04
		c0.11,0,0.22-0.01,0.32-0.04c0.01,0,0.01-0.01,0.01-0.01c0.09-0.03,0.19-0.07,0.27-0.12c0.26-0.17,0.39-0.41,0.47-0.6
		c0.06-0.13,0.08-0.25,0.09-0.26c0.03-0.12,0.05-0.21,0.06-0.26c0.01-0.05,0.02-0.08,0.02-0.08c0.01-0.03,0.02-0.04,0.05-0.18
		c0.05-0.22,0.16-0.76,0.46-2.18c0,0,0.03-0.11,0.06-0.28c0.01-0.07,0.02-0.16,0.03-0.25c0.75-0.3,1.5-0.66,2.25-1.1
		c0.01-0.01,1.3-0.76,3.54-0.46l0.39,0.05c2.19,0.28,3.3,0.42,4.32,1.42c0.02,0.02,0.04,0.04,0.06,0.05l0.12,0.13L29.93,17.47z"/>
	<path class="st2" d="M22.06,6.33c0,1.18-0.96,2.14-2.14,2.14c-1.18,0-2.14-0.96-2.14-2.14s0.96-2.14,2.14-2.14
		C21.1,4.18,22.06,5.14,22.06,6.33z"/>
</g>
</svg>
