<?xml version="1.0" encoding="utf-8"?>
<!-- Generator: Adobe Illustrator 23.0.2, SVG Export Plug-In . SVG Version: 6.00 Build 0)  -->
<svg version="1.1" id="Layer_1" xmlns="http://www.w3.org/2000/svg" xmlns:xlink="http://www.w3.org/1999/xlink" x="0px" y="0px"
	 width="32px" height="32px" viewBox="0 0 32 32" style="enable-background:new 0 0 32 32;" xml:space="preserve">
<style type="text/css">
	.st0{fill:none;}
	.st1{fill:#952524;}
</style>
<rect class="st0" width="32" height="32"/>
<g>
	<path class="st1" d="M18,12.43c-0.13,0.08-0.16,0.25-0.08,0.38c0.08,0.13,0.25,0.16,0.38,0.08c0.08-0.05,2.02-1.3,3.74,0.31
		c0.05,0.05,0.12,0.07,0.19,0.07c0.07,0,0.15-0.03,0.2-0.09c0.1-0.11,0.1-0.28-0.01-0.39C20.38,10.88,18.02,12.41,18,12.43z"/>
	<path class="st1" d="M20.02,14.96c-0.6,0-1.08,0.49-1.08,1.08c0,0.6,0.49,1.08,1.08,1.08s1.08-0.49,1.08-1.08
		C21.11,15.44,20.62,14.96,20.02,14.96z M20.02,16.58c-0.29,0-0.53-0.24-0.53-0.53c0-0.29,0.24-0.53,0.53-0.53s0.53,0.24,0.53,0.53
		C20.56,16.34,20.32,16.58,20.02,16.58z"/>
	<path class="st1" d="M24.86,14.8c-1.15-0.69-2.36-0.57-2.79-0.49c-0.49-0.58-1.22-0.96-2.04-0.96c-1.48,0-2.69,1.21-2.69,2.69
		s1.21,2.69,2.69,2.69s2.69-1.21,2.69-2.69c0-0.44-0.12-0.85-0.31-1.22c0.48-0.05,1.35-0.04,2.16,0.45c0.82,0.5,1.39,1.37,1.68,2.6
		c0.23,0.95,0.01,1.73-0.67,2.4c-1.34,1.31-4.01,1.71-4.96,1.72c1.96-0.97,2.01-3.14,2.01-3.3c0,0,0,0,0,0c0,0,0,0,0,0
		c0,0,0-0.01,0-0.01c0-0.01-0.01-0.01-0.01-0.02c-0.01-0.06-0.03-0.1-0.06-0.15c-0.01-0.01-0.02-0.02-0.04-0.04
		c-0.01-0.01-0.02-0.03-0.04-0.04c-0.03-0.02-0.07-0.02-0.1-0.02c-0.01,0-0.01-0.01-0.02-0.01c0,0,0,0,0,0c0,0,0,0-0.01,0
		c-0.05,0-0.11,0.02-0.15,0.05c-0.92,0.67-4.77,0.71-6.19,0.67c0,0-0.01,0-0.01,0c0,0,0,0-0.01,0c-1.45,0.04-5.23,0-6.13-0.67
		c-0.05-0.03-0.1-0.05-0.15-0.05c0,0,0,0-0.01,0c0,0,0,0,0,0c-0.01,0-0.02,0.01-0.02,0.01c-0.04,0-0.07,0-0.1,0.02
		c-0.02,0.01-0.02,0.03-0.04,0.04c-0.01,0.01-0.02,0.02-0.04,0.04c-0.04,0.04-0.06,0.09-0.06,0.15c0,0.01-0.01,0.01-0.01,0.02
		c0,0,0,0.01,0,0.01c0,0,0,0,0,0c0,0,0,0,0,0c0,0.16,0.05,2.33,2.01,3.3c-0.94-0.02-3.62-0.41-4.96-1.73
		c-0.68-0.67-0.9-1.45-0.67-2.4c0.3-1.22,0.86-2.1,1.68-2.59c0.81-0.49,1.68-0.5,2.17-0.45c-0.19,0.37-0.31,0.78-0.31,1.22
		c0,1.48,1.21,2.69,2.69,2.69s2.69-1.21,2.69-2.69s-1.21-2.69-2.69-2.69c-0.82,0-1.55,0.38-2.05,0.96c-0.42-0.07-1.64-0.2-2.79,0.49
		c-0.95,0.57-1.6,1.56-1.93,2.94c-0.4,1.63,0.36,2.97,2.19,3.85c1.18,0.57,2.97,0.94,3.95,0.94c-0.13,0.32-0.18,0.64,0,0.83
		c0.09,0.1,0.22,0.14,0.34,0.14c0.25,0,0.51-0.14,0.64-0.2c0.82-0.43,1.08-1.18,1.16-1.78c-0.06,0.73-0.11,1.72-0.01,2.25l0.02,0.12
		c0.17,0.92,0.38,1.48,2.45,1.49c0,0,0,0,0.01,0c0.01,0,0.02,0,0.03,0s0.02,0,0.03,0c0,0,0,0,0.01,0c2.06-0.01,2.28-0.58,2.45-1.49
		l0.02-0.12c0.09-0.5,0.05-1.4,0-2.11c0.11,0.57,0.4,1.24,1.15,1.64c0.13,0.07,0.39,0.2,0.64,0.2c0.13,0,0.25-0.04,0.34-0.14
		c0.19-0.2,0.13-0.52,0-0.83c0.98,0,2.77-0.37,3.95-0.95c1.83-0.89,2.58-2.22,2.19-3.85C26.46,16.37,25.81,15.38,24.86,14.8z
		 M20.02,18.18c-1.18,0-2.14-0.96-2.14-2.14s0.96-2.14,2.14-2.14s2.14,0.96,2.14,2.14S21.2,18.18,20.02,18.18z M12.03,13.9
		c1.18,0,2.14,0.96,2.14,2.14s-0.96,2.14-2.14,2.14c-1.18,0-2.14-0.96-2.14-2.14S10.85,13.9,12.03,13.9z M20.21,21.56
		c-0.08-0.32-0.11-0.68-0.12-0.94c0.83-0.22,1.39-0.49,1.76-0.77C21.61,20.47,21.13,21.16,20.21,21.56z M16.05,19.68
		c0.61,0.02,3.87,0.08,5.63-0.41c-0.59,0.53-2.05,1.23-5.66,1.25c-3.61-0.01-5.07-0.71-5.66-1.25
		C12.17,19.78,15.57,19.7,16.05,19.68z M10.2,19.85c0.38,0.28,0.94,0.56,1.77,0.78c-0.01,0.26-0.04,0.61-0.12,0.94
		C10.91,21.16,10.43,20.47,10.2,19.85z M12.13,22.81c-0.13,0.07-0.23,0.11-0.29,0.12c0.04-0.14,0.14-0.37,0.25-0.57c0,0,0,0,0-0.01
		c0.07-0.09,0.12-0.2,0.17-0.32c0,0,0.01-0.01,0.01-0.01c0,0,0,0,0-0.01c0.17-0.42,0.23-0.93,0.24-1.27
		c0.16,0.03,0.32,0.06,0.5,0.09C13.05,21.21,13.06,22.33,12.13,22.81z M13.57,20.92c0.01,0,0.02,0,0.02,0
		c-0.01,0.07-0.02,0.16-0.03,0.26C13.57,21.08,13.58,21,13.57,20.92z M17.99,23.67l-0.02,0.12c-0.13,0.71-0.19,1.04-1.94,1.04
		c-1.74,0-1.81-0.33-1.94-1.04l-0.02-0.12c-0.12-0.63,0.01-2.1,0.08-2.69c0.55,0.05,1.16,0.08,1.85,0.08c0,0,0,0,0,0h0
		c0.01,0,0.02,0,0.03,0c0.01,0,0.02,0,0.03,0h0c0,0,0,0,0,0c0.69,0,1.3-0.03,1.85-0.08C17.97,21.57,18.1,23.04,17.99,23.67z
		 M18.46,20.93c0,0,0.01,0,0.01,0c0,0.03,0,0.04,0,0.07C18.46,20.97,18.46,20.95,18.46,20.93z M19.93,22.81
		c-0.94-0.49-0.93-1.6-0.91-1.96c0.18-0.03,0.35-0.06,0.52-0.1c0.02,0.34,0.08,0.85,0.24,1.27c0,0,0,0,0,0.01c0,0,0,0.01,0.01,0.01
		c0.05,0.12,0.1,0.23,0.17,0.32c0,0,0,0,0,0c0.12,0.19,0.22,0.43,0.25,0.57C20.15,22.92,20.06,22.88,19.93,22.81z"/>
	<path class="st1" d="M29.09,14.54c0.56-0.69,1.33-2.11,0.44-4.13c0.6-0.37,1.8-1.7,1.04-6.24c-0.01-0.08-0.07-0.16-0.14-0.2
		c-0.07-0.04-0.16-0.04-0.24-0.01C30.1,4,28.12,4.91,26.86,7.07l-0.28-0.79c-0.03-0.08-0.1-0.15-0.18-0.17
		c-0.08-0.03-0.17-0.01-0.25,0.04l-0.87,0.66c-0.85,0.13-1.2-0.69-1.29-0.96c0.08-0.2,0.13-0.42,0.13-0.65
		c0-0.04-0.01-0.07-0.01-0.11c0.08-0.12,0.61-0.91,0.47-2.24c-0.07-0.63-0.53-1.08-1.23-1.23c-0.76-0.15-1.8,0.1-2.24,0.86
		c-0.61,1.07-1.02,2-1.03,2.01c-0.01,0.03-0.03,0.07-0.03,0.1C20.05,4.61,20,4.62,19.91,4.61L19.78,4.6c-0.04,0-0.09-0.01-0.13-0.01
		c0-0.05,0.02-0.14,0.07-0.3c0.2-0.68,0.55-2.37-0.45-3.23c-0.42-0.36-0.98-0.52-1.57-0.43c-0.55,0.08-1.06,0.36-1.28,0.69
		c-0.14,0.21-0.29,0.5-0.42,0.79c-0.13-0.3-0.28-0.58-0.42-0.79c-0.22-0.34-0.73-0.62-1.28-0.69c-0.59-0.08-1.15,0.07-1.57,0.43
		c-1,0.86-0.65,2.55-0.45,3.23c0.05,0.16,0.06,0.25,0.07,0.3c-0.04,0-0.09,0.01-0.12,0.01l-0.14,0.01c-0.04,0-0.15,0.01-0.16-0.03
		c0-0.03-0.01-0.06-0.02-0.09c0-0.01-0.42-0.93-1.03-2.01C10.44,1.72,9.4,1.47,8.64,1.62c-0.7,0.14-1.16,0.6-1.23,1.23
		C7.26,4.18,7.79,4.98,7.87,5.09c0,0.04-0.01,0.07-0.01,0.11c0,0.25,0.06,0.48,0.15,0.69c-0.1,0.3-0.45,1.03-1.25,0.92L5.89,6.15
		C5.82,6.1,5.73,6.08,5.64,6.11C5.56,6.13,5.49,6.2,5.46,6.28l-0.3,0.85C3.92,4.93,1.9,4,1.81,3.96C1.73,3.92,1.64,3.93,1.57,3.97
		c-0.07,0.04-0.13,0.11-0.14,0.2c-0.76,4.54,0.44,5.87,1.04,6.24c-0.88,2.02-0.12,3.44,0.44,4.13c-0.96,0.08-1.25,0.41-1.42,0.75
		c-0.17,0.37-0.47,1.47,0.28,2.13c0.52,0.46,0.46,1.14,0.45,1.17c-0.15,1.87,0.2,3.3,1.03,4.25c0.57,0.66,1.23,0.93,1.64,1.03
		c-0.88,2.09,0.59,3.23,0.6,3.24c0.08,0.06,0.19,0.07,0.28,0.03c0.09-0.04,0.15-0.13,0.16-0.24c0.05-1.02,0.72-1.3,1.11-1.38
		c0.08,1.01,0.36,1.71,0.81,2.09c0.38,0.32,0.75,0.29,0.79,0.29c0.08-0.01,0.15-0.05,0.19-0.11s0.06-0.14,0.05-0.22
		C8.79,27.14,9,26.67,9.4,26.43c0.37-0.23,0.82-0.2,1.28,0.05l-0.96,0.34c-0.12,0.04-0.2,0.16-0.18,0.29l0.26,2.19
		c0.02,0.14,0.13,0.24,0.27,0.24c0.01,0,0.01,0,0.02,0l2.2-0.14c0.14-0.01,0.24-0.12,0.26-0.25l0.14-1.66
		c0.72,0.22,1.47,0.36,2.08,0.44c0,0.01,0.01,0.02,0.01,0.02c-0.02,0.07-0.28,0.21-0.54,0.28c-0.44,0.1-1.25,0.57-1.2,1.66
		c0.04,0.7,0.54,1.52,2.65,1.52c0.07,0,0.15,0,0.23,0l0.09,0l0.09,0c0.08,0,0.16,0,0.23,0c2.11,0,2.61-0.82,2.65-1.52
		c0.06-1.09-0.76-1.57-1.19-1.66c-0.27-0.06-0.53-0.21-0.55-0.27c0,0,0-0.01,0.01-0.02c0.62-0.08,1.4-0.22,2.13-0.45l0.14,1.67
		c0.01,0.14,0.12,0.24,0.26,0.25l2.2,0.14c0.01,0,0.01,0,0.02,0c0.14,0,0.26-0.1,0.27-0.24l0.26-2.19c0.02-0.13-0.06-0.25-0.18-0.29
		l-0.99-0.35c0.45-0.24,0.89-0.26,1.26-0.04c0.4,0.24,0.61,0.7,0.52,1.15c-0.01,0.08,0,0.15,0.05,0.21s0.11,0.1,0.19,0.11
		c0.04,0,0.41,0.04,0.79-0.29c0.45-0.38,0.72-1.09,0.81-2.09c0.38,0.08,1.06,0.37,1.11,1.38c0,0.1,0.07,0.19,0.16,0.24
		c0.09,0.04,0.2,0.03,0.28-0.03c0.02-0.01,1.49-1.15,0.6-3.24c0.41-0.11,1.07-0.38,1.64-1.03c0.83-0.96,1.17-2.39,1.03-4.26
		c0-0.01-0.07-0.7,0.45-1.16c0.75-0.66,0.46-1.76,0.28-2.13C30.35,14.94,30.05,14.62,29.09,14.54z M26.19,6.82l0.35,1.01
		c0,0,0,0,0,0l0.59,1.69L23.7,8.7L26.19,6.82z M22.48,6.31c-0.61,0-1.11-0.5-1.11-1.11c0-0.61,0.5-1.11,1.11-1.11
		s1.11,0.5,1.11,1.11C23.59,5.81,23.09,6.31,22.48,6.31z M8.41,5.2c0-0.61,0.5-1.11,1.11-1.11s1.11,0.5,1.11,1.11
		c0,0.61-0.5,1.11-1.11,1.11c-0.42,0-0.77-0.24-0.96-0.58C8.55,5.7,8.53,5.67,8.51,5.65C8.45,5.51,8.41,5.36,8.41,5.2z M5.86,6.82
		l2.5,1.89L4.92,9.52L5.86,6.82z M12,28.86l-1.7,0.11l-0.2-1.71l1.15-0.4c0.26,0.17,0.57,0.32,0.89,0.44L12,28.86z M16.71,28.1
		c0.13,0.44,0.81,0.63,0.95,0.66c0.03,0.01,0.81,0.19,0.77,1.1c-0.04,0.7-0.82,1.04-2.32,1l-0.11,0l-0.11,0
		c-1.51,0.03-2.28-0.3-2.32-1c-0.05-0.88,0.68-1.08,0.77-1.1c0.14-0.03,0.82-0.21,0.95-0.66c0.01-0.03,0.02-0.07,0.02-0.11
		c0.38,0.04,0.64,0.05,0.68,0.05c0,0,0.01,0,0.01,0s0.01,0,0.01,0c0.04,0,0.29-0.01,0.68-0.05C16.69,28.03,16.7,28.06,16.71,28.1z
		 M21.75,28.97l-1.7-0.11l-0.14-1.58c0.31-0.12,0.6-0.27,0.86-0.44l1.18,0.42L21.75,28.97z M29.86,17.01
		c-0.73,0.65-0.64,1.59-0.64,1.63c0.13,1.71-0.16,3-0.89,3.84c-0.72,0.84-1.64,0.92-1.65,0.92c-0.09,0.01-0.17,0.06-0.22,0.14
		c-0.04,0.08-0.05,0.18,0,0.26c0.63,1.21,0.35,2.04,0.05,2.49c-0.31-1.04-1.28-1.34-1.82-1.35c0,0,0,0,0,0
		c-0.15,0-0.27,0.12-0.27,0.26c-0.06,1.23-0.37,1.75-0.62,1.98c-0.04,0.04-0.08,0.07-0.12,0.09c-0.03-0.53-0.33-1.03-0.8-1.32
		c-0.25-0.15-0.53-0.21-0.82-0.22c0.34-0.83,0.15-1.65,0.14-1.69c-0.04-0.15-0.19-0.24-0.33-0.2c-0.15,0.04-0.24,0.19-0.2,0.33
		c0,0.01,0.22,0.93-0.28,1.67c-0.25,0.09-0.49,0.21-0.73,0.4c-1.34,1.06-4.52,1.23-4.66,1.23c-0.14-0.01-3.32-0.17-4.66-1.23
		c-0.22-0.17-0.44-0.29-0.66-0.38c-0.52-0.75-0.3-1.68-0.29-1.69c0.04-0.15-0.05-0.3-0.2-0.33c-0.15-0.04-0.3,0.05-0.33,0.2
		c-0.01,0.04-0.21,0.86,0.14,1.69c-0.31,0-0.61,0.05-0.88,0.22c-0.47,0.29-0.77,0.79-0.8,1.32c-0.04-0.02-0.08-0.05-0.12-0.09
		c-0.25-0.22-0.56-0.75-0.61-1.98c-0.01-0.15-0.13-0.26-0.27-0.26c0,0,0,0,0,0c-0.54,0-1.5,0.31-1.82,1.35
		c-0.29-0.45-0.58-1.28,0.05-2.49c0.04-0.08,0.04-0.18,0-0.26c-0.04-0.08-0.13-0.13-0.22-0.14c-0.01,0-0.93-0.08-1.65-0.92
		c-0.72-0.84-1.02-2.13-0.89-3.83c0-0.04,0.1-0.98-0.64-1.63c-0.5-0.44-0.25-1.28-0.15-1.48c0.08-0.16,0.22-0.46,1.45-0.46
		c0.03,0,0.08,0.01,0.1,0c0.12,0,0.22-0.07,0.26-0.19c0.04-0.11,0-0.24-0.09-0.31c-0.08-0.06-1.94-1.52-0.63-4.17
		c0.04-0.07,0.04-0.16,0-0.24c-0.03-0.08-0.1-0.13-0.18-0.15c-0.02,0-1.72-0.52-0.99-5.38C2.57,5,4.07,6.01,4.93,7.82l-0.7,1.99
		c-0.03,0.1-0.01,0.2,0.06,0.27c0.05,0.06,0.13,0.09,0.2,0.09c0.02,0,0.04,0,0.06-0.01l4.5-1.06C9.16,9.08,9.24,9,9.26,8.89
		c0.02-0.1-0.02-0.21-0.1-0.28L7.41,7.3c0.46-0.16,0.79-0.52,0.98-0.89c0.3,0.28,0.7,0.46,1.14,0.46c0.92,0,1.66-0.75,1.66-1.66
		c0-0.92-0.75-1.66-1.66-1.66c-0.6,0-1.13,0.32-1.42,0.8c-0.12-0.32-0.22-0.8-0.15-1.43c0.06-0.52,0.52-0.69,0.8-0.75
		c0.58-0.12,1.35,0.07,1.65,0.6c0.53,0.95,0.92,1.77,0.99,1.93c0.02,0.08,0.07,0.21,0.2,0.32c0.1,0.08,0.28,0.17,0.55,0.14
		l0.13-0.01c0.11-0.01,0.22-0.02,0.32-0.05c0.26,0.59,0.84,1.01,1.53,1.01c0.92,0,1.66-0.75,1.66-1.66s-0.75-1.66-1.66-1.66
		c-0.61,0-1.14,0.33-1.43,0.82c-0.13-0.68-0.17-1.63,0.41-2.13c0.38-0.33,0.83-0.35,1.13-0.3c0.43,0.06,0.79,0.28,0.9,0.45
		c0.28,0.43,0.57,1.07,0.6,1.54c0,0.03,0.03,0.05,0.04,0.08c0.01,0.03,0.02,0.07,0.05,0.09c0.03,0.03,0.06,0.04,0.1,0.05
		c0.03,0.01,0.04,0.03,0.07,0.04c0.01,0,0.01-0.01,0.02-0.01c0.01,0,0.01,0.01,0.02,0.01c0.03,0,0.05-0.03,0.08-0.04
		c0.03-0.01,0.06-0.02,0.09-0.04c0.03-0.03,0.04-0.07,0.06-0.11c0.01-0.02,0.03-0.04,0.04-0.07c0.03-0.47,0.33-1.12,0.6-1.54
		c0.11-0.17,0.46-0.39,0.9-0.45c0.3-0.04,0.75-0.03,1.13,0.3c0.58,0.5,0.54,1.45,0.41,2.13c-0.29-0.49-0.82-0.82-1.43-0.82
		c-0.92,0-1.66,0.75-1.66,1.66s0.75,1.66,1.66,1.66c0.68,0,1.27-0.42,1.53-1.01c0.1,0.03,0.21,0.04,0.32,0.05l0.12,0.01
		c0.28,0.03,0.46-0.06,0.55-0.14c0.13-0.11,0.18-0.24,0.2-0.32c0.07-0.16,0.46-0.99,0.99-1.93c0.3-0.52,1.07-0.71,1.65-0.6
		c0.27,0.06,0.74,0.23,0.8,0.75c0.07,0.63-0.04,1.11-0.15,1.43c-0.29-0.48-0.82-0.8-1.42-0.8c-0.92,0-1.66,0.75-1.66,1.66
		c0,0.92,0.75,1.66,1.66,1.66c0.45,0,0.86-0.18,1.16-0.48c0.19,0.38,0.52,0.76,1,0.92L22.9,8.62c-0.08,0.06-0.13,0.17-0.1,0.28
		C22.82,9,22.9,9.08,23,9.11l4.5,1.06c0.02,0,0.04,0.01,0.06,0.01c0.08,0,0.15-0.03,0.2-0.09c0.07-0.07,0.09-0.18,0.06-0.27
		l-0.72-2.05c0.86-1.77,2.34-2.76,2.99-3.13c0.73,4.86-0.97,5.37-0.98,5.38c-0.08,0.02-0.15,0.07-0.19,0.15
		c-0.04,0.08-0.04,0.17,0,0.24c1.31,2.65-0.55,4.11-0.63,4.17c-0.09,0.07-0.13,0.2-0.09,0.31s0.17,0.21,0.26,0.19
		c1.31-0.03,1.47,0.29,1.55,0.46C30.11,15.73,30.36,16.57,29.86,17.01z M12.99,4.44c0-0.61,0.5-1.11,1.11-1.11
		c0.61,0,1.11,0.5,1.11,1.11s-0.5,1.11-1.11,1.11C13.49,5.55,12.99,5.05,12.99,4.44z M19,4.44c0,0.61-0.5,1.11-1.11,1.11
		c-0.61,0-1.11-0.5-1.11-1.11s0.5-1.11,1.11-1.11C18.51,3.33,19,3.82,19,4.44z"/>
	<path class="st1" d="M24.67,14.27c1.04,0,1.89-0.85,1.89-1.89s-0.85-1.89-1.89-1.89s-1.89,0.85-1.89,1.89S23.63,14.27,24.67,14.27z
		 M24.67,11.04c0.74,0,1.34,0.6,1.34,1.34s-0.6,1.34-1.34,1.34s-1.34-0.6-1.34-1.34S23.93,11.04,24.67,11.04z"/>
	<path class="st1" d="M10.01,8.9c0.06,0,0.13-0.02,0.18-0.07c1.59-1.35,3.67-0.04,3.75,0.02c0.07,0.05,0.16,0.06,0.24,0.03
		s0.14-0.09,0.17-0.16c0.81-2.14,1.62-2.21,1.68-2.21c0.05,0,0.87,0.06,1.68,2.21c0.03,0.08,0.09,0.14,0.17,0.16
		s0.17,0.01,0.24-0.03c0.09-0.06,2.16-1.38,3.75-0.02c0.05,0.04,0.12,0.07,0.18,0.07c0.08,0,0.15-0.03,0.21-0.1
		c0.1-0.12,0.08-0.29-0.03-0.39c-1.52-1.29-3.41-0.55-4.12-0.18c-0.82-1.97-1.69-2.24-2.01-2.26c0,0,0,0-0.01,0c0,0-0.02,0-0.02,0
		c-0.02,0-0.03,0-0.04,0c-0.01,0-0.01,0-0.03,0c-0.01,0-0.02,0-0.03,0c0,0-0.01,0-0.01,0c-0.32,0.03-1.2,0.3-2.01,2.26
		c-0.71-0.36-2.6-1.11-4.12,0.18C9.71,8.51,9.7,8.68,9.8,8.8C9.85,8.86,9.93,8.9,10.01,8.9z"/>
	<path class="st1" d="M9.82,13.27c0.07,0,0.13-0.02,0.19-0.07c1.73-1.61,3.66-0.36,3.74-0.31c0.13,0.08,0.3,0.05,0.38-0.08
		s0.05-0.3-0.08-0.38c-0.02-0.02-2.38-1.55-4.42,0.36c-0.11,0.1-0.12,0.28-0.01,0.39C9.67,13.24,9.74,13.27,9.82,13.27z"/>
	<path class="st1" d="M12.03,17.13c0.6,0,1.08-0.49,1.08-1.08c0-0.6-0.49-1.08-1.08-1.08s-1.08,0.49-1.08,1.08
		C10.95,16.64,11.43,17.13,12.03,17.13z M12.03,15.51c0.29,0,0.53,0.24,0.53,0.53c0,0.29-0.24,0.53-0.53,0.53
		c-0.29,0-0.53-0.24-0.53-0.53C11.5,15.75,11.74,15.51,12.03,15.51z"/>
	<path class="st1" d="M15.08,17.67c0,0.54,0.44,0.97,0.97,0.97c0.54,0,0.97-0.44,0.97-0.97c0-0.54-0.44-0.97-0.97-0.97
		C15.52,16.7,15.08,17.14,15.08,17.67z M16.05,17.25c0.23,0,0.42,0.19,0.42,0.42s-0.19,0.42-0.42,0.42s-0.42-0.19-0.42-0.42
		S15.82,17.25,16.05,17.25z"/>
	<path class="st1" d="M7.38,14.27c1.04,0,1.89-0.85,1.89-1.89s-0.85-1.89-1.89-1.89c-1.04,0-1.89,0.85-1.89,1.89
		S6.34,14.27,7.38,14.27z M7.38,11.04c0.74,0,1.34,0.6,1.34,1.34s-0.6,1.34-1.34,1.34c-0.74,0-1.34-0.6-1.34-1.34
		S6.65,11.04,7.38,11.04z"/>
	<path class="st1" d="M17.42,11.27c-0.01-0.22-0.08-0.42-0.18-0.6l-0.7-1.36h0c-0.11-0.21-0.19-0.37-0.19-0.37
		c-0.05-0.09-0.14-0.15-0.24-0.15c-0.11,0.01-0.19,0.05-0.24,0.14l-0.04,0.07h0h0l-0.02,0.03L15.65,9.3h0l-0.81,1.41
		c-0.1,0.2-0.16,0.41-0.15,0.63c0.01,0.36,0.16,0.7,0.43,0.95c0.25,0.24,0.58,0.37,0.93,0.37c0.01,0,0.03,0,0.04,0
		c0.36-0.01,0.7-0.16,0.95-0.43C17.29,11.97,17.43,11.63,17.42,11.27z M16.87,11.28c0.01,0.22-0.07,0.42-0.22,0.58
		c-0.15,0.16-0.35,0.25-0.57,0.25c-0.21,0.01-0.42-0.07-0.58-0.22c-0.16-0.15-0.25-0.35-0.25-0.57c0-0.12,0.03-0.24,0.07-0.34
		l0.58-1.02l0.2-0.34c0.05,0.1,0.11,0.21,0.17,0.33c0.23,0.45,0.47,0.92,0.49,0.96l0,0C16.82,11.03,16.86,11.15,16.87,11.28
		C16.87,11.28,16.87,11.28,16.87,11.28z"/>
	<path class="st1" d="M23.83,19.77c-0.12,0.09-0.14,0.27-0.05,0.39c0.05,0.07,0.14,0.11,0.22,0.11c0.06,0,0.12-0.02,0.17-0.06
		c0.63-0.49,0.98-1.07,1.02-1.71c0.07-1.13-0.82-2.04-0.86-2.08c-0.11-0.11-0.28-0.11-0.39,0s-0.11,0.28,0,0.39
		c0.01,0.01,0.76,0.77,0.7,1.66C24.6,18.94,24.33,19.38,23.83,19.77z"/>
	<path class="st1" d="M8.18,16.41c-0.11-0.11-0.28-0.11-0.39,0c-0.04,0.04-0.93,0.95-0.86,2.08c0.04,0.65,0.38,1.22,1.02,1.71
		c0.05,0.04,0.11,0.06,0.17,0.06c0.08,0,0.16-0.04,0.22-0.11c0.09-0.12,0.07-0.29-0.05-0.39c-0.5-0.39-0.77-0.83-0.8-1.31
		c-0.06-0.88,0.69-1.65,0.7-1.66C8.29,16.69,8.28,16.52,8.18,16.41z"/>
	<path class="st1" d="M20.07,23.92c-0.15,0-0.27,0.12-0.27,0.27l0.01,0.94c0,0.01-0.35,1.08-3.7,1.08c-0.03,0-0.09,0-0.1,0
		c-0.02,0-0.07,0-0.1,0c-3.27,0-3.67-1.02-3.69-1.02c0,0,0,0,0,0v-1c0-0.15-0.12-0.27-0.27-0.27s-0.27,0.12-0.27,0.27l0.01,1.06
		c0.03,0.16,0.42,1.51,4.23,1.51c0.03,0,0.07,0,0.1,0c0.03,0,0.07,0,0.1,0c3.81,0,4.2-1.36,4.24-1.57v-1.01
		C20.34,24.04,20.22,23.92,20.07,23.92z"/>
	<path class="st1" d="M4.65,16.88c0,0-0.25-0.02-0.58-0.44c-0.51-0.66-1.23-0.73-1.26-0.73c-0.15-0.02-0.28,0.1-0.3,0.25
		c-0.01,0.15,0.1,0.28,0.25,0.3c0.02,0,0.51,0.06,0.87,0.52c0.47,0.6,0.88,0.65,1.01,0.65c0.01,0,0.02,0,0.03,0
		c0.15-0.01,0.27-0.14,0.26-0.29S4.8,16.87,4.65,16.88z"/>
	<path class="st1" d="M29.19,15.71c-0.03,0-0.75,0.07-1.26,0.73c-0.33,0.42-0.57,0.44-0.56,0.44c-0.13,0-0.28,0.1-0.29,0.26
		c-0.01,0.15,0.1,0.28,0.26,0.29c0.01,0,0.02,0,0.03,0c0.13,0,0.54-0.05,1.01-0.65c0.36-0.46,0.85-0.51,0.87-0.52
		c0.15-0.01,0.26-0.15,0.25-0.3C29.47,15.81,29.33,15.7,29.19,15.71z"/>
	<path class="st1" d="M18.95,10.34c0.01-0.01,1.34-0.56,2.29-0.01c0.04,0.02,0.09,0.04,0.14,0.04c0.1,0,0.19-0.05,0.24-0.14
		c0.08-0.13,0.03-0.3-0.1-0.38c-1.19-0.68-2.72-0.04-2.78-0.01c-0.14,0.06-0.2,0.22-0.14,0.36C18.65,10.33,18.81,10.4,18.95,10.34z"
		/>
	<path class="st1" d="M10.48,9.84c-0.13,0.08-0.18,0.24-0.1,0.38c0.05,0.09,0.14,0.14,0.24,0.14c0.05,0,0.09-0.01,0.14-0.04
		c0.95-0.55,2.28,0.01,2.29,0.01c0.14,0.06,0.3-0.01,0.36-0.15c0.06-0.14,0-0.3-0.14-0.36C13.2,9.8,11.67,9.16,10.48,9.84z"/>
	<path class="st1" d="M16.37,15.29v-1.21c0-0.15-0.12-0.27-0.27-0.27s-0.27,0.12-0.27,0.27v1.21c0,0.15,0.12,0.27,0.27,0.27
		S16.37,15.44,16.37,15.29z"/>
</g>
</svg>
