<?xml version="1.0" encoding="utf-8"?>
<!-- Generator: Adobe Illustrator 23.0.2, SVG Export Plug-In . SVG Version: 6.00 Build 0)  -->
<svg version="1.1" id="Layer_1" xmlns="http://www.w3.org/2000/svg" xmlns:xlink="http://www.w3.org/1999/xlink" x="0px" y="0px"
	 width="32px" height="32px" viewBox="0 0 32 32" style="enable-background:new 0 0 32 32;" xml:space="preserve">
<style type="text/css">
	.st0{fill:none;}
	.st1{fill:#972726;}
</style>
<g>
	<rect y="0" class="st0" width="32" height="32"/>
</g>
<path class="st1" d="M26.45,4.05c0,0-0.46,0.47-0.84,0.43c-0.15-0.01-0.27-0.08-0.39-0.22c-0.28-0.36-0.65-0.5-1.04-0.41
	c-0.54,0.13-1.01,0.72-1.15,1.43c-0.12,0.59-2.84,2.63-4.76,3.91c-0.36,0.12-3.17,1.15-4.54,3.58c-1.33,2.35-4.76,2.84-4.79,2.84
	l-0.02,0c-0.21,0.04-5.04,1.07-5.34,4.86c0,0.01-0.11,1.27-1.62,2.5c-1.04,0.84-0.9,1.48-0.73,1.78c0.28,0.49,0.97,0.67,1.41,0.51
	c0.31-0.11,0.61-0.12,0.77,0c0.08,0.05,0.11,0.12,0.11,0.22c0,0.4,0,0.4-0.3,0.68c-0.3,0.28-0.24,0.75,0,1.04
	c0.26,0.32,0.65,0.37,0.99,0.14c0.4-0.28,0.82-0.03,0.84-0.01c0.06,0.04,0.25,0.19,0.08,0.54c-0.19,0.4-0.07,0.96,0.29,1.37
	c0.24,0.27,0.53,0.41,0.82,0.41c0.1,0,0.2-0.02,0.29-0.05c0.19-0.06,0.48-0.09,0.79-0.11c0.75-0.06,1.69-0.13,1.89-0.93
	c0.12-0.45,0.07-1.06,0.04-1.59c-0.02-0.32-0.05-0.78-0.01-0.94c0.08-0.01,0.15-0.03,0.21-0.04c0.06-0.01,0.14-0.03,0.14-0.04
	c0,0,0.03,0.04,0.06,0.18c0.09,0.39,0.43,0.86,0.9,0.96c0.22,0.05,0.63,0.04,1.03-0.48c0.56-0.74,1.2-0.78,1.22-0.79l0.11-0.03
	c0.05-0.03,1.17-0.62,1.09-2.08c-0.01-0.27,0.05-0.48,0.21-0.65c0.38-0.41,1.14-0.43,1.15-0.43l0.08-0.01
	c0.14-0.05,3.5-1.21,6.32-4.72l4.39-4.23c0.03-0.05,3.39-4.87,4.56-9.05c0.31-1.11,0.24-1.8-0.23-2.11
	C29.43,1.82,26.96,3.65,26.45,4.05 M30.22,4.49c-1.15,4.1-4.45,8.85-4.46,8.86l-4.38,4.21c-2.6,3.23-5.72,4.45-6.08,4.58
	c-0.2,0.01-0.99,0.08-1.46,0.58c-0.25,0.27-0.37,0.61-0.35,1.02c0.05,1.01-0.62,1.48-0.79,1.59c-0.22,0.03-0.93,0.17-1.53,0.98
	c-0.17,0.23-0.35,0.33-0.52,0.29c-0.24-0.05-0.46-0.34-0.51-0.58c-0.14-0.6-0.47-0.59-0.79-0.52c-0.07,0.01-0.14,0.03-0.22,0.04
	C8.65,25.59,8.7,26.21,8.75,27c0.04,0.5,0.07,1.06-0.02,1.43c-0.11,0.42-0.67,0.49-1.45,0.55c-0.34,0.03-0.66,0.05-0.91,0.13
	c-0.27,0.09-0.49-0.13-0.58-0.22c-0.23-0.25-0.32-0.61-0.22-0.82c0.31-0.64-0.05-1.06-0.27-1.18C5.29,26.88,5,26.7,4.61,26.7
	c-0.21,0-0.45,0.06-0.69,0.22c-0.04,0.03-0.18,0.12-0.31-0.04c-0.09-0.11-0.12-0.28-0.04-0.36c0.4-0.38,0.46-0.47,0.46-1.04
	c0-0.26-0.12-0.49-0.32-0.63c-0.3-0.21-0.76-0.23-1.23-0.05c-0.23,0.09-0.65-0.04-0.8-0.29c-0.16-0.28,0.06-0.7,0.61-1.15
	c1.69-1.37,1.8-2.79,1.81-2.85c0.26-3.34,4.73-4.36,4.93-4.4c0.25-0.03,3.73-0.56,5.15-3.09c1.34-2.37,4.27-3.35,4.3-3.36l0.06-0.03
	c0.8-0.53,4.8-3.24,5-4.24c0.1-0.51,0.44-0.96,0.78-1.04c0.19-0.04,0.37,0.03,0.53,0.24c0.2,0.26,0.46,0.4,0.76,0.41
	c0.59,0.02,1.16-0.52,1.19-0.56c1.09-0.84,2.87-1.86,3.41-1.49C30.44,3.1,30.45,3.65,30.22,4.49"/>
</svg>
