<?xml version="1.0" encoding="utf-8"?>
<!-- Generator: Adobe Illustrator 23.0.2, SVG Export Plug-In . SVG Version: 6.00 Build 0)  -->
<svg version="1.1" id="Layer_1" xmlns="http://www.w3.org/2000/svg" xmlns:xlink="http://www.w3.org/1999/xlink" x="0px" y="0px"
	 width="32px" height="32px" viewBox="0 0 32 32" style="enable-background:new 0 0 32 32;" xml:space="preserve">
<style type="text/css">
	.st0{fill:none;}
	.st1{fill:#952524;}
</style>
<rect class="st0" width="32" height="32"/>
<g>
	<path class="st1" d="M11.22,16.65c0.51,0,0.92-0.35,0.92-0.78c0-0.43-0.41-0.79-0.92-0.79c-0.51,0-0.92,0.35-0.92,0.79
		C10.29,16.3,10.71,16.65,11.22,16.65"/>
	<path class="st1" d="M20.76,16.65c0.51,0,0.92-0.35,0.92-0.78c0-0.43-0.41-0.79-0.92-0.79c-0.51,0-0.92,0.35-0.92,0.79
		C19.84,16.3,20.25,16.65,20.76,16.65"/>
	<path class="st1" d="M1.85,15.69c-0.38-1.43-0.3-3.33,1.16-4c0.28-0.13,0.56-0.14,0.83-0.04c0.48,0.18,0.86,0.68,1.09,1.05
		l0.17-0.71c-0.27-0.34-0.62-0.68-1.06-0.85C3.62,10.98,3.2,11,2.78,11.19c-1.77,0.81-1.89,3.01-1.46,4.64
		c0.43,1.6,1.68,3.02,3.37,3.02c0.08,0,0.16-0.03,0.24-0.03l-0.12-0.53C3.34,18.35,2.23,17.11,1.85,15.69"/>
	<path class="st1" d="M25.08,17.41c0.38-1.12,0.22-2.4-0.5-3.81c-0.02-0.03-1.77-2.94-6.1-1.5c-0.08,0.03-0.79,0.28-1.14,0.54
		c-0.15,0.11-0.82,0.19-1.36,0.2c-0.53-0.01-1.2-0.09-1.36-0.2c-0.35-0.26-1.06-0.51-1.14-0.54c-4.33-1.43-6.08,1.48-6.1,1.52
		c-0.71,1.4-0.88,2.67-0.49,3.8c0.37,1.07,1.14,1.72,1.6,2.02c-0.85,0.79-1.24,1.69-1.43,2.38c0.26,0.82,0.73,1.38,0.73,1.38
		c0.07,0.03,0.14,0.05,0.2,0.08c1.63,0.64,4.51,1.52,8,1.52c2.49,0,5.29-0.46,8.14-1.78c0,0,0.6-0.77,0.78-1.19
		c-0.18-0.69-0.57-1.59-1.43-2.39C23.94,19.13,24.72,18.49,25.08,17.41 M24.44,22.25c-0.17,0.08-0.34,0.15-0.51,0.23
		c-6.9,3.21-13.44,1.22-15.98,0.18c-0.17-0.07-0.32-0.13-0.45-0.19c0.08-0.53,0.32-1.43,1.04-2.27c0.17-0.2,0.37-0.4,0.6-0.58
		c0.07-0.06,0.11-0.15,0.1-0.25c-0.01-0.1-0.07-0.18-0.16-0.22c-0.01-0.01-1.21-0.58-1.67-1.9c-0.33-0.97-0.18-2.11,0.46-3.35
		c0.02-0.02,1.53-2.55,5.43-1.26c0.19,0.07,0.75,0.28,0.99,0.46c0.37,0.28,1.38,0.31,1.68,0.31v0h0.01v0c0.02,0,0.05,0,0.07,0h0.02
		c0.37-0.01,1.25-0.05,1.59-0.31c0.24-0.18,0.8-0.39,0.99-0.46c3.89-1.29,5.38,1.15,5.43,1.24c0.64,1.25,0.8,2.38,0.47,3.35
		c-0.45,1.32-1.66,1.91-1.67,1.91c-0.09,0.04-0.15,0.12-0.16,0.22c-0.01,0.1,0.03,0.19,0.1,0.25c0.23,0.19,0.43,0.38,0.6,0.58
		C24.06,20.92,24.33,21.71,24.44,22.25"/>
	<path class="st1" d="M27.07,12.75l-0.17-0.72c-1.49-5.29-5.88-8.85-10.91-8.85c-5.02,0-9.4,3.55-10.91,8.83l-0.17,0.71
		c-0.23,1.03-0.35,2.05-0.35,3.04c0,0.83,0.08,1.68,0.23,2.51l0.12,0.53c0.36,1.6,1,3.08,1.89,4.41l0.02,0.02l0,0.03
		c0,0.03-0.01,0.07-0.01,0.1c0,0.04-0.01,0.08-0.01,0.13c0,2.99,4.04,5.32,9.19,5.32c5.15,0,9.19-2.34,9.19-5.32
		c0-0.04,0-0.09-0.01-0.13c0-0.03-0.01-0.06-0.01-0.1l0-0.03l0.02-0.02c0.89-1.33,1.52-2.82,1.89-4.41l0.12-0.53
		c0.15-0.82,0.23-1.66,0.23-2.5C27.41,14.79,27.3,13.77,27.07,12.75 M24.88,21.82L24.88,21.82c-0.16,0.38-0.63,1-0.75,1.15
		c0.05,0.2,0.07,0.36,0.07,0.52c0,2.35-3.76,4.34-8.21,4.34c-4.45,0-8.21-1.99-8.21-4.34c0-0.1,0.01-0.21,0.03-0.34
		c-0.1-0.13-0.47-0.62-0.7-1.32L7.1,21.82c-1.01-1.83-1.55-3.93-1.55-6.06c0-6.4,4.69-11.6,10.44-11.6c5.76,0,10.44,5.21,10.44,11.6
		C26.43,17.89,25.9,19.99,24.88,21.82"/>
	<path class="st1" d="M29.22,11.19c-0.42-0.19-0.84-0.21-1.26-0.05c-0.41,0.15-0.74,0.46-1,0.78c-0.02,0.03-0.05,0.06-0.08,0.09
		l0.17,0.72c0.03-0.05,0.07-0.1,0.1-0.15c0.24-0.37,0.59-0.77,1.01-0.93c0.28-0.1,0.55-0.09,0.83,0.04c1.46,0.67,1.54,2.57,1.16,4
		c-0.37,1.39-1.45,2.6-2.88,2.59c-0.03,0-0.06,0.01-0.1,0.01l-0.12,0.53c0.02,0,0.05,0,0.07,0.01c0.06,0.01,0.13,0.02,0.19,0.02
		c1.69,0,2.94-1.41,3.37-3.02C31.12,14.2,31,12.01,29.22,11.19"/>
</g>
</svg>
