<?xml version="1.0" encoding="utf-8"?>
<!-- Generator: Adobe Illustrator 23.0.2, SVG Export Plug-In . SVG Version: 6.00 Build 0)  -->
<svg version="1.1" id="Layer_1" xmlns="http://www.w3.org/2000/svg" xmlns:xlink="http://www.w3.org/1999/xlink" x="0px" y="0px"
	 width="32px" height="32px" viewBox="0 0 32 32" style="enable-background:new 0 0 32 32;" xml:space="preserve">
<style type="text/css">
	.st0{fill:none;}
	.st1{fill:#952524;}
</style>
<rect class="st0" width="32" height="32"/>
<g>
	<rect x="2.37" y="11.17" class="st1" width="0.55" height="7.31"/>
	<rect x="27.04" y="11.17" class="st1" width="0.55" height="7.31"/>
	<path class="st1" d="M4.05,9.85c1.06,0,2.05-0.5,2.65-1.34l0.07-0.1l0.07,0.1c0.6,0.84,1.59,1.34,2.65,1.34
		c1.06,0,2.05-0.5,2.65-1.34l0.07-0.1l0.07,0.1c0.6,0.84,1.59,1.34,2.65,1.34c1.06,0,2.05-0.5,2.65-1.34l0.07-0.1l0.07,0.1
		c0.6,0.84,1.59,1.34,2.65,1.34c1.06,0,2.05-0.5,2.65-1.34l0.07-0.1l0.07,0.1c0.6,0.84,1.59,1.34,2.65,1.34
		c1.77,0,3.21-1.38,3.21-3.07c0-0.47-0.12-0.94-0.36-1.39l-0.04-0.07l0.01,0l-2.12-3.55H3.36L1.23,5.32L1.21,5.39
		C0.97,5.83,0.84,6.3,0.84,6.77C0.84,8.47,2.29,9.85,4.05,9.85 M2,5.95l0.03-0.06l1.87-3.15h22.04l1.74,2.91
		c0.05,0.07,0.09,0.15,0.14,0.24c0.14,0.29,0.21,0.58,0.21,0.88c0,1.15-1,2.09-2.23,2.09s-2.23-0.94-2.23-2.09V5.51H22.6v1.26
		c0,1.15-1,2.09-2.23,2.09c-1.23,0-2.23-0.94-2.23-2.09V5.51h-0.98v1.26c0,1.15-1,2.09-2.23,2.09c-1.23,0-2.23-0.94-2.23-2.09V5.51
		h-0.98v1.26c0,1.15-1,2.09-2.23,2.09c-1.23,0-2.23-0.94-2.23-2.09V5.51H6.28v1.26c0,1.15-1,2.09-2.23,2.09
		c-1.23,0-2.23-0.94-2.23-2.09C1.83,6.49,1.89,6.22,2,5.95L2,5.95z"/>
	<path class="st1" d="M29.02,18.47H0.85v8.26h3.3l0.01,0.07c0.28,1.96,1.98,3.44,3.94,3.44c1.97,0,3.66-1.48,3.94-3.44l0.01-0.07
		h18.12v3.22h0.98v-4.2h-2.14V18.47z M8.1,29.26c-1.67,0-3.02-1.35-3.02-3.02c0-1.67,1.35-3.02,3.02-3.02
		c1.67,0,3.02,1.36,3.02,3.02C11.12,27.91,9.77,29.26,8.1,29.26 M28.04,25.75H12.05l-0.01-0.07c-0.28-1.96-1.97-3.44-3.94-3.44
		c-1.97,0-3.66,1.48-3.94,3.44l-0.01,0.07H1.83v-6.3h26.21V25.75z"/>
	<path class="st1" d="M23.62,16.38h-0.91v-2.53h-4.54v2.53h-0.91v2.09h6.35V16.38z M18.72,14.4h3.44v1.98h-3.44V14.4z M23.07,18.47
		h-5.25v-1.54h5.25V18.47z"/>
	<path class="st1" d="M10.22,17.79c0.12,0.27,0.32,0.51,0.56,0.68h2.05c0.43-0.32,0.71-0.83,0.71-1.4c0-0.96-0.78-1.74-1.74-1.74
		c-0.17,0-0.33,0.03-0.48,0.08c0.39-0.32,0.64-0.8,0.64-1.34c0-0.96-0.78-1.74-1.74-1.74c-0.96,0-1.74,0.78-1.74,1.74
		c0,0.54,0.25,1.02,0.64,1.34c-0.15-0.04-0.32-0.08-0.49-0.08c-0.96,0-1.74,0.78-1.74,1.74c0,0.57,0.28,1.08,0.72,1.4h2.05
		C9.91,18.3,10.1,18.06,10.22,17.79 M10.22,16.36c-0.11-0.24-0.28-0.46-0.49-0.62c0.15,0.05,0.32,0.08,0.49,0.08
		c0.17,0,0.33-0.03,0.48-0.08C10.5,15.9,10.33,16.11,10.22,16.36 M11.81,15.88c0.66,0,1.19,0.53,1.19,1.19
		c0,0.66-0.53,1.19-1.19,1.19c-0.66,0-1.19-0.54-1.19-1.19C10.61,16.42,11.15,15.88,11.81,15.88 M9.03,14.07
		c0-0.66,0.53-1.19,1.19-1.19c0.66,0,1.19,0.53,1.19,1.19c0,0.66-0.53,1.19-1.19,1.19C9.57,15.26,9.03,14.73,9.03,14.07 M8.64,18.27
		c-0.66,0-1.19-0.54-1.19-1.19c0-0.66,0.54-1.19,1.19-1.19c0.66,0,1.19,0.53,1.19,1.19C9.83,17.73,9.3,18.27,8.64,18.27"/>
</g>
</svg>
