<?xml version="1.0" encoding="utf-8"?>
<!-- Generator: Adobe Illustrator 23.0.2, SVG Export Plug-In . SVG Version: 6.00 Build 0)  -->
<svg version="1.1" id="Layer_1" xmlns="http://www.w3.org/2000/svg" xmlns:xlink="http://www.w3.org/1999/xlink" x="0px" y="0px"
	 width="32px" height="32px" viewBox="0 0 32 32" style="enable-background:new 0 0 32 32;" xml:space="preserve">
<style type="text/css">
	.st0{fill:none;}
	.st1{fill:#972726;}
	.st2{fill:#952524;}
</style>
<rect class="st0" width="32" height="32"/>
<g>
	<g>
		<path class="st1" d="M24.51,7.19c0-0.03,0-0.06,0-0.09c0-0.14-0.02-0.28-0.04-0.41c-0.06-0.48-0.18-0.94-0.39-1.38
			c-0.08-0.17-0.17-0.33-0.26-0.48c-1.32-2.16-4.4-3.64-7.94-3.57c-2.26,0.05-4.37,0.71-5.95,1.86C8.45,4.19,7.61,5.59,7.51,7.07
			C7.5,7.19,7.49,7.32,7.49,7.45c0,0.08,0.02,0.17,0.02,0.25C7.55,8.22,7.68,8.72,7.9,9.19c0.07,0.15,0.15,0.3,0.24,0.45
			C8.17,9.7,8.2,9.77,8.24,9.83c1.35,2.11,4.39,3.54,7.88,3.47C20.77,13.2,24.51,10.47,24.51,7.19 M10.22,3.52
			c1.5-1.09,3.51-1.72,5.67-1.76c3.3-0.07,6.16,1.25,7.43,3.19c-0.54,0.17-1.03,0.46-1.19,0.55c-2.62,1.63-4.28,1.67-7.71,0.22
			C11.9,4.66,9.44,5.79,8.06,6.69C8.26,5.51,9.01,4.4,10.22,3.52 M7.99,7.44c0-0.03,0-0.06,0-0.1c1.22-0.85,3.73-2.21,6.23-1.16
			c3.58,1.51,5.41,1.45,8.17-0.26c0.33-0.2,0.78-0.41,1.18-0.53c0.23,0.45,0.37,0.93,0.41,1.42c-0.51,0.18-0.96,0.44-1.11,0.53
			c-2.62,1.63-4.28,1.67-7.71,0.22c-2.85-1.2-5.63,0.41-6.86,1.31C8.11,8.42,8,7.94,7.99,7.44 M16.11,12.8
			c-3.44,0.07-6.41-1.38-7.58-3.46c1.12-0.82,3.79-2.42,6.44-1.31c3.58,1.51,5.41,1.45,8.17-0.26c0.24-0.15,0.56-0.3,0.87-0.42
			C23.88,10.29,20.42,12.71,16.11,12.8"/>
	</g>
	<path class="st2" d="M17.76,28.78"/>
	<path class="st2" d="M31.19,23.4L31.19,23.4c-2.35-4.79-7.25-7.82-13.12-8.12c-0.13,0-3.07-0.28-4.68,0.56
		c-1.46,0.76-3.77,0.16-4.71-0.57c-0.64-0.5-2.24-1.59-3.34-1.72c-0.47-0.05-0.6-0.13-1.27-0.16c-0.18-0.01-0.5,0.02-0.82-0.19
		c-0.31-0.2-0.69-0.2-1-0.01c-0.31,0.19-0.47,0.54-0.43,0.9c0.1,0.82,0.1,1.76-0.69,2.61c-0.45,0.49-1.05,1.91-0.66,2.74
		c0.14,0.3,0.48,0.66,1.22,0.62c1.54-0.08,1.88,0.53,1.89,0.55c0.04,0.08,1.03,1.86,3.24,2.83c1.59,0.69,1.17,3.45,1,4.28
		c-0.02,0.11-0.1,0.19-0.21,0.2c-0.78,0.09-1.22,0.46-1.21,1.02c0.02,1.02,1.65,1.2,1.86,1.22H8.3c0.65,0,1.86-0.31,1.87-1.51
		c0.01-1.11,0.65-3.14,0.75-3.47c0.01-0.01,0.02-0.02,0.03-0.03c0,0.01,0.01,0.02,0.01,0.03c0.16,0.35,0.71,2.06,1.02,3.03
		c-0.01,0-0.02,0-0.03,0c-0.31,0.04-1.14,0.13-1.21,1.07c-0.02,0.23,0.06,0.44,0.21,0.61c0.45,0.49,1.5,0.49,1.56,0.48
		c0.08,0.02,0.82,0.16,1.31-0.23c0.17-0.14,0.37-0.39,0.38-0.86c0.04-1.07-0.33-4.13-0.6-4.76c-0.02-0.04-0.07-0.11,0-0.22
		c0.08-0.13,0.73,0.01,0.75,0.02l0.18,0.03c3.82,0.57,4.53,1.65,4.62,2.25c0,0.03,0.06,0.46-0.03,0.71c-0.08,0.26-0.24,0.6-0.6,0.76
		c-0.01,0-0.02,0-0.02,0.01c-0.06,0.03-0.13,0.04-0.2,0.06c-0.17,0.03-0.36,0.05-0.36,0.05l0,0c-0.32,0.03-0.64,0.12-0.85,0.31
		c-0.18,0.16-0.27,0.38-0.27,0.63c0,0.41,0.16,0.77,0.46,1.05c0.44,0.4,1.08,0.54,1.6,0.54c0.09,0,0.18,0,0.26-0.01
		c0.98-0.09,1.94-1.24,1.97-1.28c0.05-0.05,1.42-1.3,1.34-3.35c0-0.02,0-0.04,0-0.06c0.02,0.01,0.05,0.02,0.08,0.03
		c0.39,0.19,1.31,0.75,1.47,1.68c0.02,0.13,0.03,0.3-0.06,0.38c-0.11,0.1-0.29,0.06-0.52,0.06c-0.07,0-0.69-0.01-1.08,0.37
		c-0.2,0.19-0.3,0.45-0.3,0.76c0,1.12,2.01,1.21,2.23,1.21c0.56,0.03,1.62-0.18,1.84-1.18c0.17-0.77,0.26-0.83,0.3-0.97l0.03-0.06
		l0.03-0.1c0.02-0.06,0.4-1.41-0.27-2.48c-0.1-0.15-0.19-0.29-0.27-0.42c-0.47-0.72-0.61-0.97-0.35-1.33
		c0.34-0.48,1.17-0.67,1.96-0.17l0.18,0.12c0.76,0.47,1.26,0.78,1.37,2.24c0,0.03,0.05,0.64-0.54,0.86
		c-0.48,0.17-0.75,0.58-0.65,0.98c0.09,0.39,0.55,0.76,1.51,0.65c0.67-0.08,1.29-0.56,1.71-1.32C31.79,26.2,31.8,24.72,31.19,23.4z
		 M30.69,27.1c-0.33,0.6-0.82,0.99-1.32,1.05c-0.62,0.08-0.89-0.1-0.93-0.24c-0.03-0.11,0.07-0.27,0.32-0.36
		c0.78-0.28,0.93-1.04,0.89-1.4c-0.13-1.72-0.82-2.15-1.62-2.64l-0.18-0.11c-0.95-0.6-2.13-0.46-2.68,0.31
		c-0.48,0.67-0.14,1.2,0.34,1.93c0.08,0.13,0.17,0.27,0.26,0.41c0.47,0.76,0.29,1.75,0.22,1.99c-0.07,0.25-0.28,0.61-0.38,1.25
		c-0.13,0.79-1.24,0.74-1.29,0.73c-0.54-0.01-1.72-0.2-1.72-0.68c0-0.16,0.04-0.28,0.14-0.37c0.2-0.19,0.57-0.22,0.65-0.23
		c0.2-0.02,0.61,0.12,0.96-0.2c0.21-0.2,0.28-0.48,0.21-0.86c-0.2-1.17-1.29-1.83-1.75-2.06c-0.26-0.13-0.48-0.14-0.64-0.02
		c-0.25,0.18-0.21,0.52-0.2,0.56c0.07,1.79-1.14,2.88-1.15,2.89c-0.26,0.27-1.03,1.1-1.68,1.16c-0.56,0.05-1.14-0.11-1.46-0.4
		c-0.19-0.17-0.29-0.4-0.29-0.65c0-0.11,0.03-0.18,0.1-0.24c0.12-0.11,0.31-0.16,0.53-0.18c0,0,0.27-0.03,0.47-0.07
		c0.35-0.11,0.94-0.41,1.16-1.15c0.02-0.09,0.04-0.18,0.05-0.23c0.03-0.3,0.01-0.63,0.01-0.64c0-0.03-0.01-0.08-0.01-0.08
		c-0.17-1.32-1.88-2.23-5.07-2.71l-0.16-0.02c-0.26-0.04-0.96-0.15-1.3,0.11c-0.23,0.18-0.12,0.59-0.11,0.63
		c0.5,1.36,0.65,3.63,0.63,4.73c0,0.21-0.06,0.36-0.18,0.45c-0.25,0.2-0.71,0.16-0.93,0.12c-0.27-0.01-0.97-0.05-1.23-0.32
		c-0.06-0.06-0.08-0.12-0.07-0.21c0.04-0.47,0.34-0.54,0.75-0.59c0.05-0.01,0.1-0.01,0.14-0.02c0.15-0.03,0.27-0.11,0.33-0.23
		c0.1-0.2,0.01-0.42,0-0.43c-0.03-0.11-0.84-2.62-1.05-3.09c-0.12-0.28-0.3-0.35-0.43-0.37c-0.29-0.03-0.51,0.25-0.55,0.3
		l-0.04,0.07c-0.03,0.1-0.78,2.38-0.79,3.67c-0.01,0.98-1.3,0.98-1.34,0.99c-0.44-0.04-1.35-0.27-1.36-0.7
		c-0.01-0.33,0.4-0.44,0.74-0.48c0.33-0.04,0.6-0.29,0.67-0.62c0.24-1.19,0.59-4.04-1.31-4.87c-2.04-0.89-2.98-2.58-2.98-2.58
		c-0.04-0.1-0.48-0.93-2.39-0.84C1.12,19.59,1,19.33,0.96,19.24c-0.27-0.58,0.22-1.78,0.57-2.16c0.94-1.02,0.93-2.16,0.82-3.04
		c-0.02-0.16,0.05-0.3,0.18-0.38c0.13-0.08,0.29-0.08,0.43,0c0.29,0.19,0.64,0.26,0.71,0.27c0.1,0.01,0.76,0.01,1.38,0.1
		c1.27,0.18,2.55,1.11,3.37,1.77c0.85,0.68,3.98,1.4,5.29,0.55c1.24-0.8,4.31-0.54,4.33-0.54c5.66,0.28,10.4,3.2,12.66,7.81
		C31.25,24.8,31.24,26.09,30.69,27.1z"/>
</g>
</svg>
