<?xml version="1.0" encoding="utf-8"?>
<!-- Generator: Adobe Illustrator 23.0.2, SVG Export Plug-In . SVG Version: 6.00 Build 0)  -->
<svg version="1.1" id="Layer_1" xmlns="http://www.w3.org/2000/svg" xmlns:xlink="http://www.w3.org/1999/xlink" x="0px" y="0px"
	 width="32px" height="32px" viewBox="0 0 32 32" style="enable-background:new 0 0 32 32;" xml:space="preserve">
<style type="text/css">
	.st0{fill:none;}
	.st1{fill:none;stroke:#952524;stroke-width:0.55;stroke-miterlimit:10;}
	.st2{fill:#952524;}
</style>
<rect class="st0" width="32" height="32"/>
<g>
	<path class="st1" d="M0.92,31.55c0-0.1,13.96-5.43,13.96-5.43h4.77l6.95-8.56h4.47"/>
	<g>
		<g>
			<g>
				<path class="st2" d="M6.23,13.77c-0.42-0.31-0.65-0.73-0.72-1.3c-0.19-1.67,0.84-3.8,1.63-5.16l3.5,2.29l0.2-0.53L7.43,6.84
					C7.75,6.32,7.99,5.99,8,5.96C8.03,5.91,8.64,4.63,9.78,5.1c0.23,0.1,0.46,0.19,0.67,0.27c0.74,0.29,1.28,0.51,1.64,0.83
					l0.36-0.41c-0.43-0.38-1.03-0.63-1.8-0.93c-0.21-0.08-0.43-0.17-0.66-0.26C8.7,4.06,7.8,5.1,7.53,5.68
					c-0.12,0.16-2.88,4-2.56,6.85c0.08,0.71,0.4,1.28,0.94,1.68c0.74,0.54,1.75,0.67,2.55,0.67c0.29,0,0.54-0.02,0.74-0.04
					L9.17,14.3C8.48,14.37,7.09,14.41,6.23,13.77z"/>
			</g>
			<path class="st2" d="M17.85,6.5c1.67,0,3.02-1.36,3.02-3.02c0-1.67-1.36-3.02-3.02-3.02c-1.67,0-3.02,1.36-3.02,3.02
				C14.83,5.14,16.18,6.5,17.85,6.5z M17.85,1.45c1.12,0,2.02,0.91,2.02,2.02c0,1.12-0.91,2.02-2.02,2.02
				c-1.12,0-2.02-0.91-2.02-2.02C15.83,2.36,16.74,1.45,17.85,1.45z"/>
			<path class="st2" d="M21.98,10.13c-0.41-0.4-0.95-0.45-1.17-0.46h-2.81c-0.36-0.06-0.67-0.29-0.96-0.7l-2.27-3.12
				c-0.06-0.06-0.66-0.67-1.51-0.56c-0.37,0.04-0.73,0.23-1.07,0.56l-0.36,0.4c-0.1,0.14-0.22,0.31-0.34,0.52l-2.15,5.7
				c-0.04,0.09-0.37,0.84-0.4,1.85l0.02,0.55c0.04,0.43,0.14,0.85,0.3,1.26l0.01,0.02l-0.01,0.1c-0.16,1.48-0.67,4.21-1.54,5.06
				c-1.24,1.21-2.66,2.83-2.77,2.96l0,0.01l-0.02,0.01c-0.08,0.07-0.75,0.67-0.77,1.55c-0.01,0.36,0.1,0.91,0.67,1.45
				C5.06,27.5,5.47,27.77,6,27.77c0.53,0,1.1-0.28,1.68-0.82c1.4-1.32,4.71-4.79,5.31-8.55L13,18.34l0.06,0
				c0.23,0,0.44-0.01,0.68-0.03l1.29,0l0.01,0.06c0.01,0.06,0.02,0.14,0.02,0.24c0,0.96,0.41,3.88,0.42,3.91
				c0.01,0.1,0.11,0.93,0.79,1.39c0.19,0.13,0.5,0.27,0.94,0.27c0.21,0,0.43-0.03,0.65-0.1c0.61-0.12,1.67-0.88,1.36-2.87
				c-0.31-2-0.86-4.83-0.89-4.95c-0.02-0.05-0.56-1.46-2.51-1.46c-0.13,0-0.22,0-0.32-0.01l-0.04,0c-0.44-0.02-0.49-0.31-0.49-0.48
				c0.15-0.7,0.77-1.84,0.84-1.97l0.04-0.07l0.07,0.04c0.66,0.4,1.35,0.6,2.05,0.6l2.82,0c0,0,0,0,0,0c0.14,0,0.74-0.03,1.18-0.46
				c0.2-0.2,0.45-0.56,0.45-1.16C22.43,10.69,22.19,10.33,21.98,10.13z M11.98,18.37c-0.61,3.42-3.69,6.63-4.99,7.86
				c-0.45,0.42-0.77,0.55-0.99,0.55c-0.24,0-0.38-0.14-0.48-0.23c-0.25-0.24-0.36-0.46-0.36-0.7c0.01-0.41,0.37-0.77,0.48-0.88
				c0.01-0.01,1.53-1.75,2.78-2.97c0.91-0.89,1.41-2.9,1.66-4.43l0.02-0.11l0.12,0.09c0.1,0.13,0.54,0.57,1.7,0.74l0.08,0.01
				L11.98,18.37z M20.81,11.91h-2.83c-2.26,0-3.65-2.87-3.67-2.9c-0.06-0.12-0.16-0.21-0.29-0.26c-0.12-0.04-0.26-0.04-0.38,0.02
				c-0.25,0.12-0.36,0.42-0.24,0.66c0.02,0.05,0.57,1.19,1.57,2.15l0.04,0.04l-0.03,0.05c-0.31,0.57-0.99,2.06-1.08,3.03
				c0.01,0.2,0.1,0.91,0.82,1.03c0.29,0.05,0.64,0.07,1.09,0.07c1.09,0,1.47,0.59,1.56,0.77l0.01,0.02
				c0.06,0.29,0.55,2.89,0.85,4.77c0.23,1.45-0.47,1.71-0.61,1.74c-0.16,0.05-0.3,0.07-0.42,0.07c-0.15,0-0.27-0.03-0.37-0.1
				c-0.24-0.16-0.34-0.5-0.36-0.68c-0.07-0.5-0.41-2.98-0.41-3.79c0-0.5-0.14-0.88-0.42-1.1c-0.27-0.22-0.57-0.21-0.69-0.2l-1.26,0
				c-1.79,0.15-2.47-0.21-2.65-0.35h-0.01l-0.1-0.12c-1.65-1.65-0.78-3.76-0.68-4l2.13-5.66c0.32-0.56,0.66-0.87,0.98-0.92
				c0.19-0.02,0.35,0.04,0.46,0.1c0,0,0.21,0.17,0.36,0.36l0,0l2.04,2.82c0.5,0.7,1.12,1.1,1.71,1.12l0.07,0l2.8,0
				c0.4,0,0.61,0.22,0.61,0.62C21.43,11.69,21.21,11.91,20.81,11.91z"/>
		</g>
		<g>
			<rect x="20.74" y="12.34" class="st2" width="0.52" height="9.53"/>
		</g>
		<g>
			<rect x="20.74" y="8.37" class="st2" width="0.52" height="1.7"/>
		</g>
	</g>
</g>
</svg>
