<?xml version="1.0" encoding="utf-8"?>
<!-- Generator: Adobe Illustrator 23.0.2, SVG Export Plug-In . SVG Version: 6.00 Build 0)  -->
<svg version="1.1" id="Layer_1" xmlns="http://www.w3.org/2000/svg" xmlns:xlink="http://www.w3.org/1999/xlink" x="0px" y="0px"
	 width="32px" height="32px" viewBox="0 0 32 32" style="enable-background:new 0 0 32 32;" xml:space="preserve">
<style type="text/css">
	.st0{fill:none;}
	.st1{fill:#972726;}
</style>
<g>
	<rect y="0" class="st0" width="32" height="32"/>
</g>
<path class="st1" d="M28.89,16.93c-0.52-0.02-1.02,0.02-1.46,0.05c-1.19,0.1-1.77,0.11-2.02-0.65c-0.01-0.04-0.01-0.14,0.02-0.18
	c0.03-0.04,0.14-0.06,0.36-0.02c0.84,0.17,2.65,0.05,3.22-0.41c0.3-0.24,0.42-0.55,0.31-0.82c-0.11-0.29-0.44-0.44-0.9-0.42
	c-0.65,0.05-4.62-0.14-4.66-0.14c-1.34-0.08-3.63-0.41-4.03-0.93c-0.34-0.44-0.78-0.66-1.23-0.6c-0.47,0.05-0.88,0.4-1.11,0.91
	c-0.34,0.76-0.43,0.89-1.51,0.74c-0.42-0.06-1-0.08-1.61-0.1c-0.88-0.03-2.22-0.08-2.46-0.31c-0.11-0.11-0.23-0.27-0.36-0.46
	c-0.39-0.56-0.92-1.33-2.04-1.56c-1.46-0.3-3.62-0.56-5.64-0.67c-0.14-0.03-0.91-0.15-1.52,0.29c-0.4,0.29-0.64,0.75-0.7,1.37
	c-0.08,0.76,0.05,1.32,0.39,1.67c0.36,0.38,0.82,0.36,0.8,0.35c0.27,0.03,0.74,0.16,0.9,0.37c0.04,0.05,0.05,0.11,0.04,0.18
	c-0.04,0.23-0.06,0.51,0.11,0.73c0.23,0.29,0.66,0.34,1.53,0.4c1.19,0.09,1.72,0.31,2.93,0.89c1.25,0.6,2.45,0.65,2.71,0.12
	c0.14-0.13,1.09-0.18,2.33,0.02c0.57,0.1,1.59,0.5,2.41,0.82c0.6,0.24,1.12,0.44,1.42,0.52c0.15,0.04,3.8,0.91,5.9,0.72l0.69-0.06
	c1.43-0.14,2.21-0.21,2.91,0.24c0.52,0.34,1.46,0.7,2.24,0.7c0.24,0,0.46-0.03,0.66-0.11c0.34-0.14,0.56-0.39,0.64-0.74l0.07-0.29
	c0.18-0.75,0.37-1.52-0.04-2.06C29.96,17.13,29.53,16.96,28.89,16.93 M29.77,19.41l-0.07,0.3c-0.04,0.19-0.15,0.32-0.34,0.39
	c-0.58,0.23-1.75-0.1-2.44-0.55c-0.5-0.32-1.02-0.43-1.66-0.43c-0.45,0-0.96,0.05-1.57,0.11L23,19.3c-2,0.18-5.59-0.68-5.74-0.71
	c-0.26-0.06-0.8-0.27-1.36-0.49c-0.89-0.35-1.89-0.75-2.51-0.85c-0.59-0.1-2.55-0.37-2.85,0.23c-0.07,0.12-0.84,0.26-2.06-0.33
	c-1.25-0.6-1.83-0.83-3.11-0.93C4.85,16.17,4.3,16.13,4.2,16c-0.04-0.05-0.04-0.16-0.01-0.33c0.04-0.21-0.01-0.4-0.14-0.57
	c-0.34-0.45-1.15-0.55-1.29-0.56c0,0-0.25,0.01-0.45-0.2C2.09,14.1,2,13.66,2.06,13.07c0.05-0.47,0.22-0.81,0.5-1.01
	c0.47-0.35,1.13-0.21,1.14-0.21l0.04,0c2.01,0.11,4.15,0.37,5.59,0.67c0.92,0.19,1.37,0.84,1.73,1.36c0.15,0.22,0.28,0.4,0.43,0.54
	c0.36,0.34,1.29,0.39,2.79,0.45c0.6,0.02,1.17,0.04,1.56,0.1c1.29,0.18,1.61-0.07,2.04-1.03c0.16-0.35,0.42-0.59,0.71-0.62
	c0.26-0.03,0.55,0.11,0.77,0.41c0.67,0.88,4.02,1.1,4.4,1.13c0.17,0.01,4.04,0.19,4.72,0.14c0.27-0.02,0.38,0.06,0.4,0.1
	c0.01,0.03-0.02,0.13-0.16,0.25c-0.38,0.3-1.98,0.48-2.81,0.31c-0.37-0.07-0.64-0.02-0.81,0.16c-0.24,0.25-0.16,0.6-0.14,0.66
	c0.39,1.19,1.43,1.1,2.54,1.02c0.42-0.03,0.9-0.07,1.4-0.05c0.47,0.02,0.79,0.13,0.94,0.33C30.08,18.12,29.92,18.78,29.77,19.41"/>
</svg>
