<?xml version="1.0" encoding="utf-8"?>
<!-- Generator: Adobe Illustrator 23.0.2, SVG Export Plug-In . SVG Version: 6.00 Build 0)  -->
<svg version="1.1" id="Layer_1" xmlns="http://www.w3.org/2000/svg" xmlns:xlink="http://www.w3.org/1999/xlink" x="0px" y="0px"
	 width="32px" height="32px" viewBox="0 0 32 32" style="enable-background:new 0 0 32 32;" xml:space="preserve">
<style type="text/css">
	.st0{fill:none;}
	.st1{fill:#952524;}
</style>
<rect class="st0" width="32" height="32"/>
<g>
	<path class="st1" d="M30.62,22.42c-0.4,0-0.58-0.16-0.89-0.47c-0.31-0.32-0.74-0.75-1.55-0.75c-0.8,0-1.23,0.43-1.55,0.75
		c-0.3,0.3-0.49,0.47-0.89,0.47c-0.39,0-0.58-0.16-0.88-0.47c-0.32-0.32-0.75-0.75-1.55-0.75c-0.8,0-1.24,0.43-1.55,0.75
		c-0.31,0.31-0.49,0.47-0.89,0.47c-0.4,0-0.58-0.16-0.89-0.47c-0.32-0.32-0.75-0.75-1.55-0.75c-0.8,0-1.23,0.43-1.55,0.75
		c-0.3,0.31-0.49,0.48-0.89,0.48c-0.4,0-0.58-0.16-0.89-0.47c-0.31-0.32-0.74-0.75-1.55-0.75c-0.8,0-1.23,0.43-1.55,0.75
		c-0.31,0.31-0.49,0.47-0.89,0.47c-0.4,0-0.58-0.16-0.89-0.47c-0.32-0.32-0.75-0.75-1.55-0.75s-1.23,0.43-1.55,0.75
		c-0.31,0.31-0.49,0.48-0.89,0.48c-0.4,0-0.58-0.16-0.88-0.47c-0.32-0.32-0.75-0.75-1.55-0.75c-0.8,0-1.23,0.43-1.55,0.75
		c-0.31,0.31-0.49,0.48-0.89,0.48c-0.27,0-0.49,0.22-0.49,0.49c0,0.27,0.22,0.49,0.49,0.49c0.83,0,1.26-0.44,1.58-0.76
		c0.3-0.3,0.48-0.46,0.86-0.46c0.38,0,0.55,0.16,0.86,0.46c0.32,0.32,0.76,0.76,1.58,0.76c0.82,0,1.26-0.44,1.58-0.76
		c0.3-0.3,0.48-0.46,0.86-0.46s0.55,0.16,0.86,0.46c0.32,0.32,0.76,0.76,1.58,0.76c0.82,0,1.26-0.44,1.58-0.76
		c0.3-0.3,0.48-0.46,0.86-0.46c0.38,0,0.56,0.16,0.86,0.46c0.32,0.32,0.76,0.76,1.58,0.76c0.82,0,1.26-0.44,1.58-0.76
		c0.3-0.31,0.48-0.46,0.86-0.46c0.38,0,0.55,0.16,0.86,0.46c0.32,0.32,0.76,0.76,1.58,0.76c0.82,0,1.26-0.44,1.58-0.76
		c0.3-0.3,0.48-0.46,0.85-0.46c0.38,0,0.55,0.16,0.86,0.46c0.32,0.32,0.76,0.76,1.58,0.76c0.83,0,1.26-0.44,1.58-0.76
		c0.3-0.3,0.48-0.46,0.86-0.46c0.38,0,0.55,0.16,0.86,0.46c0.32,0.32,0.76,0.76,1.58,0.76c0.27,0,0.49-0.22,0.49-0.49
		C31.11,22.64,30.89,22.42,30.62,22.42z"/>
	<path class="st1" d="M3.53,18.95h23.11c0.08,0,0.15-0.03,0.2-0.09l4.09-4.44c0.07-0.08,0.09-0.2,0.05-0.3
		c-0.04-0.1-0.14-0.16-0.25-0.16H21.9c-0.53-1.01-3.73-6.12-13.6-3.57C8,9.92,7.3,8.84,6.71,8.62c-0.14-0.05-0.3,0.02-0.36,0.16
		C6.3,8.92,6.37,9.08,6.51,9.13c0.33,0.13,0.86,0.84,1.23,1.41c-0.9,0.25-1.85,0.56-2.87,0.95c-0.12,0.05-0.19,0.17-0.17,0.3
		c0.02,0.13,0.13,0.23,0.26,0.23c0.02,0,1.31,0.06,2.93,0.19C7.85,12.79,7.69,14.08,7,15.46c-1.62,0.56-2.57,1.21-3.11,1.81
		c-0.69,0.76-0.64,1.37-0.64,1.44C3.27,18.84,3.39,18.95,3.53,18.95 M19.89,12.3l-7,0.54l-0.22-1l5.44-0.69
		C18.84,11.49,19.43,11.9,19.89,12.3 M8.43,12.26c0.35,0.03,0.71,0.06,1.08,0.1c0.15,0.02,0.29-0.09,0.3-0.25
		c0.02-0.15-0.09-0.29-0.25-0.3c-1.19-0.12-2.38-0.21-3.24-0.26c4.99-1.7,8.42-1.58,10.73-0.83l-4.75,0.6
		c-0.08,0.01-0.15,0.05-0.19,0.11c-0.04,0.06-0.06,0.14-0.04,0.22l0.34,1.53c0.03,0.13,0.14,0.22,0.27,0.22c0.01,0,0.01,0,0.02,0
		l7.73-0.59c0.42,0.45,0.69,0.86,0.85,1.15H19.9c-5.89,0-9.71,0.54-12.19,1.27C8.26,13.96,8.4,12.83,8.43,12.26 M4.34,17.58
		c1.07-1.15,4.52-3.07,15.56-3.07H30.1l-3.58,3.89H3.84C3.9,18.21,4.03,17.92,4.34,17.58"/>
	<path class="st1" d="M21.94,15.97c-0.21,0-0.37,0.17-0.37,0.37c0,0.21,0.17,0.37,0.37,0.37c0.21,0,0.37-0.17,0.37-0.37
		C22.31,16.14,22.14,15.97,21.94,15.97"/>
	<path class="st1" d="M25.48,15.97c-0.21,0-0.37,0.17-0.37,0.37c0,0.21,0.17,0.37,0.37,0.37c0.21,0,0.37-0.17,0.37-0.37
		C25.85,16.14,25.68,15.97,25.48,15.97"/>
</g>
</svg>
