<?xml version="1.0" encoding="utf-8"?>
<!-- Generator: Adobe Illustrator 23.0.2, SVG Export Plug-In . SVG Version: 6.00 Build 0)  -->
<svg version="1.1" id="Layer_1" xmlns="http://www.w3.org/2000/svg" xmlns:xlink="http://www.w3.org/1999/xlink" x="0px" y="0px"
	 width="32px" height="32px" viewBox="0 0 32 32" style="enable-background:new 0 0 32 32;" xml:space="preserve">
<style type="text/css">
	.st0{fill:none;}
	.st1{fill:#952524;}
</style>
<rect class="st0" width="32" height="32"/>
<g>
	<path class="st1" d="M10.95,27.26L10.95,27.26c-3.9-0.82-4.44-1.72-4.5-2.07c-0.07-0.5,0.62-0.98,0.89-1.12
		c0.13-0.07,0.18-0.23,0.11-0.36c-0.05-0.09-0.14-0.14-0.23-0.14c-0.04,0-0.08,0.01-0.12,0.03c-0.05,0.03-1.3,0.68-1.17,1.66
		c0.14,1.03,1.75,1.85,4.91,2.52c0.18,0,0.28-0.08,0.31-0.2c0.01-0.07,0-0.14-0.04-0.2C11.08,27.32,11.02,27.28,10.95,27.26"/>
	<path class="st1" d="M27.04,25.93c-3.27,2.46-12.39,1.75-12.48,1.74c-0.01,0-0.01,0-0.02,0c-0.14,0-0.25,0.1-0.27,0.24
		c0,0.07,0.02,0.14,0.06,0.19c0.04,0.05,0.11,0.09,0.18,0.09c0.05,0,1.3,0.11,3.06,0.11c2.68,0,7.52-0.25,9.78-1.95
		c0.12-0.09,0.14-0.25,0.05-0.37C27.33,25.87,27.16,25.84,27.04,25.93"/>
	<path class="st1" d="M5.22,2.83l0.03,0c0.01,0,0.03,0.01,0.04,0.01c0.01,0,0.02,0.01,0.03,0.01h0.09c0.2,0.01,0.69,0.09,1.23,0.6
		c0.82,0.77,1.79,2.58,1.79,6.86l0,2.9c0.06,0.44,0.48,1.26,1.67,1.52c0.69,0.15,1.63,1.57,2.01,5.06l0.01,0.09l-0.09,0.01
		c-6.66,0.64-11.13,2.85-11.13,5.51c0,3.25,6.49,5.7,15.09,5.7s15.09-2.45,15.09-5.7c0-2.39-3.7-4.48-9.42-5.31l-0.07-0.01
		l-0.01-0.07c-0.49-5.19-2.13-6.1-2.81-6.24c-0.68-0.15-0.86-0.5-0.9-0.6l0.07-0.03l-0.07,0l-0.01-0.08l0.01,0V10.3
		c0-3.77-0.72-6.33-2.15-7.62c-0.1-0.09-0.2-0.17-0.32-0.26l-0.14-0.1l0.17-0.05c0.91-0.26,1.81-0.38,2.67-0.38h12.47
		c0.27,0,0.49-0.22,0.49-0.49c0-0.27-0.22-0.49-0.49-0.49H18.11c-2.19,0-3.94,0.73-4.43,0.95l-0.04,0.01H5.52L5.5,1.85
		c-1.27-1.07-3.9-0.94-3.93-0.94c-0.13,0-0.25,0.06-0.34,0.16C1.14,1.17,1.09,1.29,1.1,1.42c0.01,0.13,0.06,0.26,0.16,0.34
		c0.1,0.09,0.22,0.13,0.35,0.12c0.06,0,0.14,0,0.22,0c0.82,0,2.48,0.14,3.12,0.79L4.97,2.7c0.04,0.04,0.09,0.08,0.15,0.1
		C5.16,2.82,5.19,2.82,5.22,2.83 M13.77,2.85c-0.01,0,0,0,0.02,0l0.03,0c0.1,0,0.68,0.02,1.29,0.6c0.81,0.77,1.79,2.58,1.79,6.86
		l0,2.9c0.06,0.44,0.48,1.26,1.67,1.52c0.7,0.15,1.64,1.58,2.01,5.11c0.04,0.4,0.08,0.79,0.1,1.18c0.08,1.23,0.09,2.6,0.04,4.07
		c-0.01,0.27,0.2,0.5,0.47,0.51h0c0.28,0,0.5-0.21,0.51-0.47c0.05-1.41,0.04-2.7-0.02-3.94l0-0.1l0.1,0.02
		c4.91,0.77,8.33,2.54,8.33,4.29c0,2.23-5.79,4.72-14.11,4.72c-8.32,0-14.11-2.49-14.11-4.72c0-2,4.4-3.94,10.23-4.53l0.09-0.01
		l0.01,0.09c0.08,1.26,0.1,2.66,0.04,4.15c0,0.13,0.04,0.25,0.13,0.35c0.09,0.1,0.21,0.15,0.34,0.16h0c0.28,0,0.5-0.21,0.5-0.47
		c0.06-1.56,0.04-2.96-0.04-4.27c-0.02-0.39-0.06-0.76-0.1-1.15c-0.52-4.93-2.12-5.8-2.78-5.94c-0.69-0.15-0.86-0.5-0.9-0.61
		l0.06-0.02l-0.06,0L9.4,13.07l0.01,0V10.3c0-3.48-0.63-5.94-1.86-7.31L7.42,2.85H13.77z"/>
	<path class="st1" d="M17.24,20.78c-0.03-0.41-0.06-0.79-0.1-1.15c-0.51-4.75-1.99-5.57-2.6-5.71c-0.5-0.11-0.78-0.33-0.92-0.51
		c-0.14-0.21-0.16-0.55-0.16-0.55v-2.64c0-3.35-0.45-5.97-2.01-7.4l-0.81,0c0.01,0.01,0.43,0.34,0.44,0.35
		c0.85,0.8,1.85,2.68,1.85,7.06l0.01,2.91c0.05,0.35,0.42,1.07,1.5,1.31c0.38,0.08,1.66,0.7,2.17,5.1c0.04,0.37,0.08,0.76,0.11,1.17
		c0.09,1.32,0.11,2.8,0.06,4.38c-0.01,0.14,0.11,0.27,0.25,0.27h0c0.15,0,0.27-0.11,0.27-0.25C17.34,23.55,17.32,22.09,17.24,20.78"
		/>
</g>
</svg>
