<?xml version="1.0" encoding="utf-8"?>
<!-- Generator: Adobe Illustrator 23.0.2, SVG Export Plug-In . SVG Version: 6.00 Build 0)  -->
<svg version="1.1" id="Layer_1" xmlns="http://www.w3.org/2000/svg" xmlns:xlink="http://www.w3.org/1999/xlink" x="0px" y="0px"
	 width="32px" height="32px" viewBox="0 0 32 32" style="enable-background:new 0 0 32 32;" xml:space="preserve">
<style type="text/css">
	.st0{fill:none;}
	.st1{fill:#972726;}
</style>
<g>
	<rect y="0" class="st0" width="32" height="32"/>
</g>
<path class="st1" d="M30.43,16.77c-0.06-0.05-5.79-5.37-6.37-8.22C23.7,6.8,23.13,4.89,21.61,4c-1.12-0.66-2.57-0.7-4.45-0.11
	c-4.52,1.41-5.58,0.02-5.59,0.01l-0.07-0.07c-0.08-0.06-2.04-1.35-4.85,1.63c-0.2,0.2-4.06,4.05-5.43,6.37
	c-0.66,1.12-0.86,1.9-0.6,2.4c0.19,0.36,0.54,0.4,0.58,0.41c0,0,0.11,0.01,0.2,0.12c0.13,0.17,0.13,0.51,0.02,0.95
	c-0.13,0.49,0.03,0.79,0.18,0.95c0.52,0.55,1.73,0.33,1.87,0.3c0.04-0.01,1.09-0.2,2.02,0.97c0.66,0.82,3.22,2.59,5.48,4.16
	c1.39,0.96,2.7,1.87,3.16,2.29c0.94,0.84,6.35,4.17,9.71,4.17c0.14,0,0.27-0.01,0.4-0.02c0.8-0.07,1.41-0.36,1.81-0.87
	c0.83-1.06,1.58-2.12,2.24-3.06c1.01-1.44,1.87-2.68,2.64-3.32c1.46-1.21-0.38-4.31-0.45-4.44L30.43,16.77z M30.61,20.88
	c-0.82,0.68-1.71,1.95-2.73,3.41c-0.65,0.93-1.4,1.99-2.22,3.04c-0.31,0.39-0.8,0.62-1.46,0.68c-3.03,0.26-8.67-3.08-9.73-4.03
	c-0.49-0.44-1.75-1.31-3.21-2.32c-2.12-1.47-4.76-3.3-5.38-4.06c-0.82-1.02-1.73-1.17-2.2-1.17c-0.18,0-0.29,0.02-0.31,0.03
	c-0.41,0.08-1.16,0.11-1.41-0.16c-0.04-0.04-0.14-0.15-0.06-0.48c0.16-0.61,0.12-1.07-0.1-1.38c-0.22-0.3-0.54-0.32-0.56-0.32
	c-0.01,0-0.12-0.02-0.18-0.14c-0.07-0.15-0.16-0.63,0.59-1.91C2.99,9.8,6.97,5.84,7.01,5.8L7.01,5.8c2.36-2.5,3.95-1.72,4.18-1.58
	c0.24,0.28,1.6,1.55,6.12,0.15c1.74-0.54,3.06-0.52,4.05,0.06c1.35,0.8,1.87,2.58,2.21,4.22c0.6,2.94,6.01,8.02,6.5,8.47
	C30.54,17.93,31.53,20.11,30.61,20.88"/>
</svg>
