<?xml version="1.0" encoding="utf-8"?>
<!-- Generator: Adobe Illustrator 23.0.2, SVG Export Plug-In . SVG Version: 6.00 Build 0)  -->
<svg version="1.1" id="Layer_1" xmlns="http://www.w3.org/2000/svg" xmlns:xlink="http://www.w3.org/1999/xlink" x="0px" y="0px"
	 width="32px" height="32px" viewBox="0 0 32 32" style="enable-background:new 0 0 32 32;" xml:space="preserve">
<style type="text/css">
	.st0{fill:none;}
	.st1{fill:#952524;}
</style>
<rect class="st0" width="32" height="32"/>
<g>
	<path class="st1" d="M26.58,12.88c0.04-0.08,0.04-0.19-0.01-0.27s-0.14-0.13-0.23-0.13h-0.35c1.39-2.55-0.39-4.71-0.41-4.74
		c-0.08-0.09-0.2-0.12-0.31-0.08c-0.22,0.09-0.37,0.29-0.48,0.51c-0.53-0.9-1.05-0.92-1.17-0.91c-0.12,0.01-0.22,0.09-0.25,0.2
		C22.97,9,22.4,9.58,22,9.8c-0.07,0.04-0.14,0.07-0.21,0.09c0.86-1.23,0.23-3.08-0.05-3.76c0.4-0.23,0.54-0.54,0.55-0.58
		c0.03-0.08,0.03-0.16-0.01-0.23c-0.04-0.07-0.11-0.12-0.19-0.14c-1.23-0.23-1.86-0.51-2.15-0.69c0.15-0.11,0.24-0.27,0.27-0.37
		c0.03-0.08,0.02-0.17-0.03-0.24c-0.04-0.07-0.12-0.12-0.2-0.13c-0.05-0.01-1.26-0.17-2.21-2.01C17.75,1.7,17.09,0.52,16,0.52
		s-1.75,1.18-1.78,1.23c-0.95,1.84-2.15,2-2.2,2c-0.08,0.01-0.16,0.05-0.2,0.13c-0.04,0.07-0.06,0.16-0.03,0.24
		c0.04,0.1,0.12,0.25,0.27,0.37c-0.28,0.17-0.92,0.45-2.14,0.69C9.83,5.19,9.76,5.24,9.73,5.31C9.69,5.38,9.68,5.47,9.71,5.54
		c0.02,0.04,0.15,0.35,0.55,0.58C9.99,6.8,9.36,8.66,10.21,9.89C10.14,9.86,10.07,9.83,10,9.8C9.6,9.58,9.03,9,8.63,7.48
		C8.6,7.36,8.5,7.28,8.38,7.27c-0.11,0-0.64,0.01-1.17,0.91C7.11,7.97,6.96,7.76,6.74,7.67C6.63,7.63,6.51,7.66,6.43,7.75
		c-0.02,0.02-1.8,2.19-0.41,4.74H5.67c-0.09,0-0.18,0.05-0.23,0.13c-0.05,0.08-0.06,0.18-0.01,0.27c0.02,0.05,0.55,1.13,1.76,2.22
		c0.13,0.12,0.18,0.29,0.12,0.44c-0.38,1.02-1.41,4.5,1.31,6.12c0.31,0.18,0.7,0.2,1.05,0.05l0.16-0.07c0.36-0.15,0.71-0.3,1.01-0.5
		c-0.47,0.94-1.34,2.75-1.29,4.62H8.11c-0.15,0-0.27,0.12-0.27,0.27v1.55h-1.9c-0.15,0-0.27,0.12-0.27,0.27v3.34
		c0,0.15,0.12,0.27,0.27,0.27h20.12c0.15,0,0.27-0.12,0.27-0.27v-3.34c0-0.15-0.12-0.27-0.27-0.27h-1.9v-1.55
		c0-0.15-0.12-0.27-0.27-0.27h-1.43c0.05-1.87-0.82-3.68-1.29-4.62c0.3,0.21,0.65,0.35,1.01,0.5l0.16,0.07
		c0.35,0.15,0.74,0.13,1.05-0.05c2.72-1.62,1.69-5.09,1.31-6.12c-0.06-0.15-0.01-0.32,0.12-0.44
		C26.03,14.02,26.56,12.93,26.58,12.88z M25.78,30.93H6.22v-2.79h1.9h15.77h1.9V30.93z M23.61,27.6H8.39v-1.28h15.22V27.6z
		 M24.18,15.74c0.44,1.19,1.21,4.09-1.08,5.45c-0.16,0.09-0.36,0.1-0.55,0.02l-0.16-0.07c-0.43-0.18-0.8-0.34-1.09-0.58
		c-0.51-0.39-0.71-0.25-0.78-0.2c-0.08,0.06-0.2,0.19-0.11,0.48c0.03,0.09,0.11,0.26,0.23,0.49c0.44,0.88,1.32,2.66,1.27,4.45H10.1
		c-0.05-1.78,0.83-3.57,1.27-4.45c0.12-0.23,0.2-0.4,0.23-0.49c0.09-0.28-0.03-0.42-0.11-0.48c-0.07-0.05-0.27-0.19-0.79,0.21
		c-0.28,0.24-0.65,0.4-1.08,0.58l-0.16,0.07c-0.19,0.08-0.4,0.07-0.55-0.02c-2.29-1.36-1.52-4.27-1.08-5.45
		c0.13-0.36,0.03-0.77-0.27-1.04c-0.7-0.63-1.16-1.27-1.41-1.66h0.36c0.1,0,0.2-0.06,0.24-0.15c0.05-0.09,0.04-0.2-0.02-0.28
		c-1.32-1.94-0.46-3.66-0.06-4.27C6.77,8.5,6.86,8.75,6.89,8.97C6.92,9.09,7.01,9.18,7.14,9.2c0.12,0.01,0.24-0.06,0.28-0.17
		C7.71,8.3,8,8.01,8.18,7.9c0.37,1.23,0.9,2.04,1.59,2.39c0.64,0.33,1.17,0.14,1.2,0.13c0.09-0.03,0.16-0.12,0.18-0.22
		c0.01-0.1-0.03-0.2-0.11-0.26c-1.46-1.09-0.17-3.81-0.16-3.84c0.03-0.07,0.04-0.15,0.01-0.22c-0.03-0.07-0.09-0.13-0.16-0.16
		c-0.1-0.04-0.17-0.08-0.24-0.12c1.18-0.27,2.29-0.7,2.28-1.2c0-0.11-0.06-0.21-0.14-0.27c0.54-0.23,1.39-0.79,2.09-2.13
		c0-0.01,0.53-0.94,1.29-0.94c0.76,0,1.29,0.93,1.29,0.94c0.69,1.35,1.55,1.91,2.09,2.14c-0.09,0.06-0.14,0.16-0.14,0.27
		c0,0.5,1.11,0.93,2.28,1.2c-0.06,0.04-0.14,0.08-0.24,0.12c-0.07,0.03-0.13,0.08-0.16,0.16c-0.03,0.07-0.03,0.15,0.01,0.22
		c0.01,0.03,1.31,2.74-0.16,3.84c-0.08,0.06-0.12,0.16-0.11,0.26c0.01,0.1,0.08,0.18,0.18,0.22c0.02,0.01,0.56,0.2,1.2-0.13
		c0.69-0.36,1.22-1.16,1.59-2.39c0.18,0.12,0.46,0.41,0.75,1.13c0.05,0.11,0.16,0.18,0.28,0.17c0.12-0.01,0.22-0.11,0.24-0.23
		c0.04-0.22,0.12-0.46,0.21-0.63c0.39,0.62,1.25,2.35-0.05,4.27c-0.06,0.08-0.06,0.19-0.02,0.28c0.05,0.09,0.14,0.15,0.24,0.15h0.36
		c-0.25,0.39-0.71,1.03-1.41,1.66C24.15,14.97,24.04,15.38,24.18,15.74z"/>
	<path class="st1" d="M16.69,6.24c0.15,0,0.27-0.12,0.27-0.27c0-1.48,0.74-1.98,0.78-2c0.13-0.08,0.17-0.25,0.09-0.38
		c-0.08-0.13-0.25-0.17-0.38-0.09c-0.04,0.03-1.04,0.66-1.04,2.47C16.41,6.12,16.53,6.24,16.69,6.24z"/>
	<path class="st1" d="M18.21,7.38c0.15,0,0.27-0.12,0.27-0.27c0-0.69,0.62-1.32,0.63-1.32c0.11-0.11,0.11-0.28,0-0.39
		c-0.11-0.11-0.28-0.11-0.39,0c-0.03,0.03-0.79,0.79-0.79,1.72C17.93,7.26,18.05,7.38,18.21,7.38z"/>
	<path class="st1" d="M22.27,10.93c-0.11-0.1-0.28-0.09-0.39,0.02c-0.1,0.11-0.1,0.28,0.01,0.39c0.05,0.05,1.31,1.29-0.26,4.31
		c-0.04,0.06-0.97,1.38-0.97,2.37c0,0.15,0.12,0.27,0.27,0.27s0.27-0.12,0.27-0.27c0-0.68,0.63-1.71,0.89-2.09
		C23.9,12.48,22.34,11,22.27,10.93z"/>
	<path class="st1" d="M21.44,12.22c0.05-0.45-0.18-0.79-0.32-0.92c-0.11-0.1-0.28-0.09-0.38,0.02c-0.1,0.11-0.1,0.28,0.01,0.39
		c0.01,0.01,0.18,0.18,0.15,0.48c-0.04,0.3-0.29,0.79-1.32,1.41c-0.13,0.08-0.17,0.25-0.09,0.38c0.05,0.09,0.14,0.13,0.24,0.13
		c0.05,0,0.1-0.01,0.14-0.04C20.85,13.46,21.38,12.84,21.44,12.22z"/>
	<path class="st1" d="M15.04,5.97c0,0.15,0.12,0.27,0.27,0.27s0.27-0.12,0.27-0.27c0-1.81-1-2.45-1.04-2.47
		c-0.13-0.08-0.3-0.04-0.38,0.09c-0.08,0.13-0.04,0.3,0.09,0.38C14.29,3.98,15.04,4.48,15.04,5.97z"/>
	<path class="st1" d="M13.52,7.1c0,0.15,0.12,0.27,0.27,0.27s0.27-0.12,0.27-0.27c0-0.93-0.76-1.68-0.79-1.72
		c-0.11-0.11-0.28-0.11-0.39,0c-0.11,0.11-0.11,0.28,0,0.39C12.9,5.79,13.52,6.41,13.52,7.1z"/>
	<path class="st1" d="M10.1,11.34c0.11-0.1,0.12-0.28,0.02-0.39c-0.1-0.11-0.28-0.12-0.39-0.02C9.66,11,8.1,12.48,9.92,15.96
		c0.24,0.34,0.87,1.37,0.87,2.05c0,0.15,0.12,0.27,0.27,0.27s0.27-0.12,0.27-0.27c0-1-0.93-2.32-0.95-2.34
		C8.8,12.63,10.05,11.39,10.1,11.34z"/>
	<path class="st1" d="M12.28,14.09c0.09,0,0.18-0.05,0.24-0.13c0.08-0.13,0.04-0.3-0.09-0.38c-1.03-0.62-1.29-1.11-1.32-1.41
		c-0.03-0.29,0.14-0.46,0.15-0.47c0.11-0.1,0.12-0.28,0.01-0.39c-0.1-0.11-0.28-0.12-0.39-0.02c-0.14,0.13-0.37,0.47-0.32,0.92
		c0.06,0.62,0.6,1.24,1.59,1.84C12.19,14.08,12.24,14.09,12.28,14.09z"/>
	<path class="st1" d="M13.89,18.3c-0.08-0.13-0.24-0.17-0.38-0.1c0,0-0.32,0.18-0.83,0.21c-0.29,0.01-0.43-0.06-0.46-0.11
		c-0.02-0.03,0-0.13,0.09-0.26c0.27-0.4,0.21-1.04,0.15-1.72c-0.03-0.39-0.07-0.78-0.03-1.06c0.08-0.48,0.67-0.43,0.74-0.43
		c0.15,0.01,0.29-0.09,0.3-0.24c0.02-0.15-0.09-0.29-0.24-0.3c-0.41-0.05-1.22,0.08-1.34,0.89c-0.05,0.34-0.02,0.77,0.02,1.19
		c0.05,0.53,0.1,1.12-0.06,1.36c-0.27,0.41-0.18,0.7-0.1,0.84c0.14,0.25,0.45,0.38,0.86,0.38c0.04,0,0.08,0,0.11,0
		c0.66-0.04,1.07-0.28,1.08-0.29C13.93,18.6,13.97,18.43,13.89,18.3z"/>
	<path class="st1" d="M19.81,15.19c-0.13-0.81-0.93-0.93-1.34-0.89c-0.15,0.02-0.26,0.15-0.24,0.3c0.02,0.15,0.16,0.26,0.3,0.24
		c0.02,0,0.66-0.07,0.74,0.43c0.04,0.27,0.01,0.67-0.03,1.06c-0.06,0.68-0.12,1.32,0.15,1.72c0.09,0.13,0.11,0.22,0.09,0.26
		c-0.03,0.05-0.18,0.12-0.46,0.11c-0.52-0.03-0.83-0.21-0.83-0.21c-0.13-0.08-0.3-0.04-0.38,0.09c-0.08,0.13-0.04,0.3,0.09,0.38
		c0.02,0.01,0.42,0.25,1.08,0.29c0.04,0,0.08,0,0.12,0c0.41,0,0.71-0.14,0.86-0.38c0.08-0.14,0.17-0.43-0.1-0.84
		c-0.16-0.24-0.11-0.84-0.06-1.36C19.83,15.96,19.86,15.53,19.81,15.19z"/>
	<path class="st1" d="M13.07,19.74c0.01-0.15-0.1-0.28-0.26-0.29c-0.14-0.01-0.28,0.1-0.29,0.26c0,0.01-0.06,0.72-0.57,1.47
		c-0.31,0.45-0.4,0.82-0.28,1.14c0.11,0.3,0.38,0.51,0.84,0.64c0.03,0.01,0.05,0.01,0.08,0.01c0.12,0,0.23-0.08,0.26-0.2
		c0.04-0.15-0.04-0.3-0.19-0.34c-0.19-0.05-0.42-0.15-0.48-0.3c-0.05-0.14,0.03-0.36,0.22-0.65C13.01,20.6,13.07,19.77,13.07,19.74z
		"/>
	<path class="st1" d="M16.09,21.03c0.58,0,0.98-0.14,1.19-0.43c0.26-0.35,0.11-0.75,0.09-0.79c-0.06-0.14-0.21-0.21-0.35-0.15
		c-0.14,0.05-0.21,0.21-0.16,0.35c0,0,0.06,0.16-0.03,0.27c-0.05,0.07-0.26,0.24-0.97,0.19c-0.84-0.05-1.48-0.48-1.91-1.27
		l-0.03-0.05l0,0c-0.04-0.08-0.11-0.2-0.27-0.2c-0.15,0-0.27,0.12-0.27,0.27c0,0.06,0.03,0.11,0.06,0.15l-0.04-0.05l0.09,0.16
		l0.01,0c0.65,1.16,1.62,1.47,2.33,1.52C15.92,21.03,16.01,21.03,16.09,21.03z"/>
	<path class="st1" d="M13.93,20.38c-0.13-0.07-0.3-0.01-0.37,0.12c-0.16,0.31-0.51,1.09-0.33,1.48c0.06,0.13,0.16,0.21,0.29,0.25
		c0.26,0.07,0.42,0.09,0.52,0.09c0.09,0,0.13-0.02,0.15-0.02c0.14-0.05,0.24-0.22,0.18-0.36c-0.05-0.14-0.19-0.22-0.33-0.17
		c-0.01,0-0.08,0.01-0.32-0.05c0-0.17,0.14-0.6,0.33-0.97C14.12,20.62,14.06,20.45,13.93,20.38z"/>
	<path class="st1" d="M14.76,23.76c-0.14-0.06-0.3,0.01-0.36,0.16c-0.36,0.9-0.81,0.93-0.84,0.93c-0.57,0-1.29-0.05-1.6-0.07
		c-0.09-0.01-0.14-0.01-0.15-0.01c-0.1,0-0.42-0.06-0.51-0.2c-0.01-0.02-0.06-0.09,0.01-0.27c0.28-0.72,0.67-1.21,0.67-1.22
		c0.1-0.12,0.08-0.29-0.04-0.39c-0.12-0.1-0.29-0.08-0.39,0.04c-0.02,0.02-0.45,0.56-0.76,1.37c-0.14,0.37-0.05,0.63,0.05,0.78
		c0.29,0.42,0.94,0.43,0.95,0.43l0.12,0.01c0.31,0.02,1.05,0.07,1.63,0.07c0.01,0,0.01,0,0.02,0c0.14,0,0.86-0.06,1.34-1.28
		C14.98,23.98,14.91,23.82,14.76,23.76z"/>
	<path class="st1" d="M19.34,21.79c0.86-1.83-0.23-2.67-0.28-2.71c-0.12-0.09-0.29-0.06-0.38,0.06s-0.07,0.29,0.05,0.38
		c0.03,0.02,0.77,0.62,0.11,2.03c-0.02,0.03-0.36,0.76,0.62,1.62c0.19,0.17,0.18,0.32,0.15,0.43c-0.14,0.44-0.86,0.9-1.38,0.96
		c-0.48,0.09-1.83,0.21-2.33-0.28c-0.11-0.11-0.28-0.1-0.39,0.01c-0.1,0.11-0.1,0.28,0.01,0.39c0.43,0.41,1.16,0.51,1.76,0.51
		c0.52,0,0.95-0.07,1.03-0.09c0.69-0.09,1.62-0.68,1.82-1.34c0.11-0.37,0-0.73-0.31-1C19.19,22.19,19.34,21.8,19.34,21.79z"/>
	<path class="st1" d="M17.79,17.11c0.01-0.05-0.01-0.1-0.05-0.13l-0.62-0.45c0.18-0.01,0.38-0.01,0.51,0.03
		c0.22,0.07,0.31,0.01,0.36-0.06c0.08-0.13,0-0.3-0.11-0.42c-0.15-0.16-0.46-0.39-0.79-0.54c0.03-0.31,0.01-1.2-1.25-1.68
		c-0.04-0.01-0.08-0.01-0.12,0.01c-0.03,0.02-0.05,0.06-0.05,0.1v0.51h-0.24c-0.02,0-0.04,0-0.05,0.01
		c-0.02,0.01-0.52,0.26-1.06,1.26c-0.02,0.03-0.02,0.07,0,0.11c0.01,0.02,0.05,0.09,0.15,0.19c0,0,0,0.01,0.01,0.01
		c0.04,0.04,0.1,0.07,0.17,0.11c-0.03,0.02-0.07,0.03-0.1,0.05c-0.14,0.11-0.22,0.28-0.24,0.5c-0.02,0.24-0.04,0.44-0.06,0.59
		c-0.04,0.31-0.06,0.49,0.12,0.52c0.09,0.01,0.63,0.04,0.69,0.05c0,0,0.01,0,0.01,0c0.03,0.01,0.22,0.12,0.66,0.83
		c0.02,0.04,0.06,0.06,0.11,0.06c0.02,0,0.05-0.01,0.07-0.02c0.06-0.04,0.08-0.11,0.04-0.17c-0.4-0.64-0.7-0.96-0.88-0.95
		c-0.14-0.01-0.44-0.03-0.59-0.04c0-0.06,0.01-0.15,0.03-0.24c0.02-0.16,0.04-0.36,0.06-0.6c0.01-0.15,0.06-0.26,0.14-0.32
		c0.14-0.11,0.34-0.07,0.35-0.07c0.01,0,0.01,0,0.02,0c0.05,0.01,0.08,0.03,0.13,0.04c0.2,0.06,0.46,0.18,0.49,0.24
		c0.11,0.18,0.92,0.6,1.68,0.6c0.11,0,0.23-0.01,0.34-0.03C17.74,17.2,17.78,17.16,17.79,17.11z M15.46,14.74h0.33
		c0.07,0,0.13-0.06,0.13-0.13v-0.45c0.35,0.16,0.56,0.35,0.7,0.54c-0.23,0.05-0.71,0.19-1.02,0.61c-0.29,0.39-0.83,0.49-1.01,0.51
		c-0.01-0.01-0.02-0.02-0.02-0.02C14.99,15.06,15.37,14.8,15.46,14.74z M15.9,16.51c-0.1-0.18-0.51-0.32-0.64-0.36
		c-0.15-0.03-0.27-0.08-0.36-0.12c0.28-0.07,0.67-0.23,0.91-0.56c0.31-0.42,0.86-0.52,0.95-0.53c0.14,0.33,0.08,0.62,0.08,0.64
		c-0.02,0.06,0.02,0.12,0.07,0.15c0.36,0.15,0.68,0.4,0.79,0.52c0.03,0.03,0.05,0.07,0.06,0.09c-0.01,0-0.03-0.01-0.05-0.01
		c-0.33-0.11-0.92-0.01-0.94,0c-0.05,0.01-0.09,0.05-0.1,0.1c-0.01,0.05,0.01,0.1,0.05,0.13l0.6,0.44
		C16.66,16.98,15.97,16.61,15.9,16.51z"/>
	<path class="st1" d="M16.4,15.3l-0.28,0.23c-0.05,0.04-0.06,0.12-0.02,0.18c0.02,0.03,0.06,0.05,0.1,0.05
		c0.03,0,0.06-0.01,0.08-0.03l0.28-0.23c0.05-0.04,0.06-0.12,0.02-0.18C16.54,15.26,16.46,15.25,16.4,15.3z"/>
	<path class="st1" d="M19.43,9.83C19.43,9.83,19.43,9.83,19.43,9.83c0.16,0,0.28-0.13,0.27-0.28c-0.04-1.43,0.59-2.3,0.63-2.35
		c0.09-0.1,0.1-0.26,0.01-0.36c-0.1-0.12-0.27-0.13-0.39-0.04c-0.11,0.09-0.86,1.12-0.81,2.77C19.16,9.71,19.28,9.83,19.43,9.83z"/>
	<path class="st1" d="M12.26,9.55c0,0.15,0.11,0.28,0.27,0.28c0,0,0.01,0,0.01,0c0.15,0,0.27-0.12,0.27-0.27
		c0.05-1.63-0.7-2.69-0.81-2.77c-0.12-0.1-0.31-0.09-0.4,0.03c-0.1,0.12-0.09,0.28,0.03,0.37C11.64,7.2,12.31,8.09,12.26,9.55z"/>
	<path class="st1" d="M17.26,13.14c-0.06,0.04-0.07,0.11-0.04,0.17c0.02,0.04,0.06,0.06,0.1,0.06c0.02,0,0.05-0.01,0.07-0.02
		c0.55-0.35,0.54-0.96,0.46-1.23c-0.02-0.07-0.09-0.1-0.16-0.08c-0.07,0.02-0.1,0.09-0.08,0.16C17.62,12.22,17.78,12.8,17.26,13.14z
		"/>
	<path class="st1" d="M14.31,12.04c-0.06-0.02-0.14,0.02-0.16,0.08c-0.08,0.27-0.09,0.88,0.46,1.23c0.02,0.01,0.04,0.02,0.07,0.02
		c0.04,0,0.08-0.02,0.1-0.06c0.04-0.06,0.02-0.14-0.04-0.17c-0.52-0.34-0.36-0.92-0.35-0.95C14.41,12.13,14.37,12.06,14.31,12.04z"
		/>
	<path class="st1" d="M15.09,9.11c-0.04,0.08-0.08,0.17-0.08,0.29V10c0,0.03,0.01,0.06,0.01,0.09c-0.51,0.19-1.72,0.75-1.84,1.95
		c-0.11,0.92,0.16,1.46,0.4,1.74c0.26,0.31,0.64,0.5,1.03,0.52c0,0,0.01,0,0.01,0c0.15,0,0.27-0.11,0.27-0.26
		c0.01-0.15-0.11-0.28-0.26-0.29c-0.24-0.01-0.48-0.13-0.64-0.33c-0.24-0.28-0.33-0.71-0.28-1.27c0-0.01,0-0.02,0-0.02
		s0-0.02,0-0.02c0-0.01,0-0.03,0-0.04c0.05-0.42,0.31-0.74,0.6-0.97c0.24,0.15,0.91,0.51,1.74,0.51c0.49,0,1.04-0.14,1.59-0.51
		c0.3,0.24,0.56,0.58,0.62,1.02c0,0.01,0,0.01,0,0.02s0,0.01,0,0.02c0,0,0,0.01,0,0.01h0c0.05,0.55-0.04,0.98-0.28,1.26
		c-0.16,0.19-0.4,0.32-0.64,0.33c-0.15,0.01-0.27,0.14-0.26,0.29c0.01,0.15,0.13,0.26,0.27,0.26c0,0,0.01,0,0.01,0
		c0.39-0.02,0.77-0.21,1.03-0.52c0.24-0.29,0.51-0.82,0.4-1.74c-0.12-1.21-1.34-1.77-1.85-1.96c0-0.03,0.01-0.06,0.01-0.09V9.4
		c0-0.11-0.03-0.21-0.08-0.28c0.01-0.3-0.02-1.23-0.74-1.8C16.15,7.3,16.12,7.3,16.1,7.3c-0.03-0.01-0.06-0.03-0.1-0.03
		c-0.04,0-0.06,0.01-0.09,0.03c-0.02,0.01-0.05,0-0.07,0.02C15.11,7.88,15.08,8.8,15.09,9.11z M16.35,8.81
		c-0.27-0.06-0.51-0.04-0.7,0C15.67,8.55,15.76,8.2,16,7.92C16.24,8.2,16.32,8.55,16.35,8.81z M15.97,10.18c0,0-0.17,0.02-0.34-0.04
		c-0.05-0.02-0.06-0.12-0.06-0.14l0-0.6c0.13-0.05,0.47-0.16,0.88,0v0.59c0,0.02-0.01,0.12-0.06,0.14
		c-0.17,0.06-0.34,0.04-0.34,0.04C16.01,10.17,15.99,10.17,15.97,10.18z M14.55,10.94c0.3-0.2,0.61-0.32,0.75-0.37
		c0.04,0.03,0.08,0.06,0.14,0.08c0.25,0.08,0.47,0.08,0.56,0.07c0.02,0,0.06,0,0.1,0c0.11,0,0.28-0.01,0.46-0.07
		c0.06-0.02,0.1-0.05,0.14-0.08c0.14,0.05,0.44,0.17,0.74,0.36C16.19,11.73,14.99,11.2,14.55,10.94z"/>
</g>
</svg>
