<?xml version="1.0" encoding="utf-8"?>
<!-- Generator: Adobe Illustrator 23.0.2, SVG Export Plug-In . SVG Version: 6.00 Build 0)  -->
<svg version="1.1" id="Layer_1" xmlns="http://www.w3.org/2000/svg" xmlns:xlink="http://www.w3.org/1999/xlink" x="0px" y="0px"
	 width="32px" height="32px" viewBox="0 0 32 32" style="enable-background:new 0 0 32 32;" xml:space="preserve">
<style type="text/css">
	.st0{fill:none;}
	.st1{fill:#952524;}
</style>
<rect class="st0" width="32" height="32"/>
<g>
	<path class="st1" d="M15.25,5.67c1.22,0,2.22-1,2.22-2.22c0-1.23-1-2.22-2.22-2.22c-1.23,0-2.22,1-2.22,2.22
		C13.03,4.68,14.02,5.67,15.25,5.67z M15.25,1.78c0.92,0,1.67,0.75,1.67,1.67s-0.75,1.67-1.67,1.67c-0.92,0-1.67-0.75-1.67-1.67
		S14.33,1.78,15.25,1.78z"/>
	<path class="st1" d="M30.62,22.4c-0.4,0-0.58-0.16-0.89-0.47c-0.31-0.32-0.75-0.75-1.55-0.75c-0.8,0-1.24,0.43-1.55,0.75
		c-0.3,0.3-0.49,0.47-0.89,0.47c-0.4,0-0.58-0.16-0.89-0.47c-0.31-0.32-0.75-0.75-1.55-0.75c-0.8,0-1.23,0.43-1.55,0.75
		c-0.31,0.31-0.49,0.47-0.89,0.47c-0.4,0-0.58-0.16-0.89-0.47c-0.32-0.32-0.75-0.75-1.55-0.75c-0.8,0-1.23,0.43-1.55,0.75
		c-0.3,0.3-0.49,0.47-0.89,0.47c-0.4,0-0.58-0.16-0.89-0.47c-0.3-0.3-0.71-0.69-1.42-0.73l0.51-1.45c0.46,0.02,0.92,0.03,1.41,0.03
		c3.71,0,7.46-0.52,11.17-1.55c0.58-0.16,1.06-0.53,1.35-1.05c0.29-0.52,0.37-1.13,0.21-1.7c-0.16-0.58-0.53-1.06-1.05-1.35
		c-0.52-0.29-1.13-0.37-1.7-0.21c-1.72,0.48-3.36,0.79-4.92,1.01c-1.09-1.43-2.18-1.97-2.88-2.18l0.01,0
		c-0.01,0-0.02-0.01-0.04-0.01c-0.03-0.01-0.05-0.01-0.08-0.02c-0.1-0.03-0.18-0.05-0.27-0.06c-0.04-0.01-0.08-0.01-0.11-0.02
		c-0.04-0.01-0.07-0.01-0.1-0.01c-0.1-0.01-0.17-0.01-0.18-0.01v0h-0.32l1.1-3.17h0l0,0l0.17,0.03c0.09,0.02,0.87,0.24,1.42-0.11
		c0.25-0.16,0.42-0.42,0.47-0.74c0.06-0.36,0-0.67-0.18-0.91c-0.27-0.37-0.7-0.44-0.77-0.45c-0.12-0.02-0.22-0.04-0.33-0.06
		l0.45-1.28c0.05-0.14-0.03-0.3-0.17-0.35c-0.14-0.05-0.3,0.02-0.35,0.17L18.03,7.1c0,0,0,0,0,0l0,0c-0.97-0.17-1.32-0.25-1.93-0.37
		c-0.41-0.08-0.86-0.22-1.68-0.38c-2.09-0.43-2.57,0.96-2.57,0.96c-1.72,3.93-1.63,6.49-1.47,7.55c-2.34-0.38-3.72-0.87-3.75-0.89
		c-1.15-0.44-2.45,0.14-2.89,1.28c-0.45,1.15,0.13,2.45,1.28,2.9c0.15,0.06,3.41,1.3,8.62,1.56l-0.53,1.52
		c-0.52,0.13-0.84,0.44-1.09,0.69c-0.31,0.31-0.49,0.47-0.89,0.47c-0.4,0-0.58-0.16-0.89-0.47c-0.31-0.32-0.75-0.75-1.55-0.75
		s-1.24,0.43-1.55,0.75c-0.31,0.31-0.49,0.47-0.89,0.47c-0.4,0-0.58-0.16-0.89-0.47c-0.31-0.32-0.75-0.75-1.55-0.75
		c-0.8,0-1.23,0.43-1.55,0.75c-0.31,0.31-0.49,0.47-0.89,0.47c-0.27,0-0.49,0.22-0.49,0.49c0,0.27,0.22,0.49,0.49,0.49
		c0.82,0,1.26-0.44,1.58-0.76c0.3-0.3,0.48-0.46,0.86-0.46c0.38,0,0.56,0.16,0.86,0.46c0.32,0.32,0.76,0.76,1.58,0.76
		c0.82,0,1.26-0.44,1.58-0.76c0.3-0.3,0.48-0.46,0.86-0.46c0.38,0,0.55,0.16,0.86,0.46c0.32,0.32,0.76,0.76,1.58,0.76
		c0.72,0,1.14-0.34,1.45-0.64l-0.88,2.53c-0.21-0.05-0.58-0.08-1.06,0.12c-0.99,0.42-1.84,1.58-2.54,3.46L8,29.12l2.16,0.81
		c0.03,0.01,0.06,0.01,0.09,0.02c0.01,0.01,0.02,0.02,0.03,0.03l2.17,0.8l0.1-0.26c0.7-1.88,0.81-3.32,0.34-4.28
		c-0.21-0.43-0.49-0.65-0.68-0.76l1.15-3.29c0.07-0.01,0.13-0.03,0.22-0.03c0.38,0,0.56,0.16,0.86,0.46
		c0.32,0.32,0.76,0.76,1.58,0.76c0.83,0,1.26-0.44,1.58-0.76c0.3-0.3,0.48-0.46,0.86-0.46c0.38,0,0.55,0.16,0.86,0.46
		c0.32,0.32,0.76,0.76,1.58,0.76c0.82,0,1.26-0.44,1.58-0.76c0.3-0.3,0.48-0.46,0.85-0.46c0.38,0,0.56,0.16,0.86,0.46
		c0.32,0.32,0.76,0.76,1.58,0.76c0.83,0,1.26-0.44,1.58-0.76c0.3-0.3,0.48-0.46,0.86-0.46s0.55,0.16,0.86,0.46
		c0.32,0.32,0.76,0.76,1.58,0.76c0.27,0,0.49-0.22,0.49-0.49C31.11,22.62,30.89,22.4,30.62,22.4z M12.4,26.5
		c0.26,0.54,0.41,1.6-0.28,3.56l-1.65-0.61c-0.02-0.01-0.04,0-0.07,0c-0.02-0.01-0.03-0.04-0.05-0.05l-1.65-0.61
		c0.76-1.94,1.57-2.63,2.12-2.88c0.49-0.22,0.83-0.09,0.85-0.08c0.02,0.01,0.04,0,0.06,0c0.01,0,0.01,0.01,0.01,0.01
		c0.02,0.01,0.02,0.01,0.03,0.01c0.01,0.01,0.02,0.03,0.04,0.03C11.82,25.89,12.16,26.01,12.4,26.5z M25.84,14.85
		c0.32-0.09,0.66-0.05,0.96,0.12c0.29,0.17,0.5,0.44,0.59,0.76c0.09,0.33,0.05,0.66-0.12,0.96c-0.17,0.29-0.44,0.5-0.76,0.59
		c-3.62,1-7.29,1.51-10.91,1.51c-0.37,0-0.72-0.01-1.07-0.02l0.88-2.52C18.37,16.28,21.91,15.94,25.84,14.85z M17.01,13.16
		c0,0,0.01,0,0.02,0l0,0c0,0,0.38,0,0.81,0.19l-0.01,0c0.57,0.22,1.36,0.67,2.19,1.66c-1.52,0.18-2.94,0.26-4.26,0.26l0.74-2.11
		H17.01z M16.11,12.61h-2.13c-0.08,0-0.15-0.04-0.2-0.1c-0.05-0.06-0.06-0.14-0.04-0.21l0.72-2.72c0.03-0.12,0.25-0.7,1.17-0.52
		l1.62,0.29l0,0L16.11,12.61z M12.35,7.51c0.01-0.04,0.35-0.94,1.95-0.62c0.8,0.15,1.22,0.26,1.69,0.33
		c0.67,0.11,0.98,0.19,1.86,0.38l0,0c0.16,0.03,0.34,0.07,0.54,0.11c0.14,0.03,0.29,0.06,0.45,0.09c0,0,0.25,0.04,0.38,0.23
		c0.09,0.12,0.12,0.29,0.08,0.5c-0.03,0.17-0.1,0.29-0.22,0.37c-0.29,0.18-0.8,0.09-1,0.04l-0.11-0.02l-0.55-0.1l0,0l-1.7-0.3
		C14.56,8.3,14.05,9,13.93,9.43l0,0l-0.72,2.73c-0.06,0.24-0.01,0.49,0.14,0.69c0.15,0.2,0.38,0.31,0.63,0.31h1.94l-0.74,2.11
		c-1.61-0.02-3.03-0.15-4.24-0.32C10.8,14.12,10.58,11.56,12.35,7.51z M5.36,17.24c-0.65-0.25-0.97-0.98-0.72-1.63
		c0.19-0.5,0.67-0.81,1.18-0.81c0.15,0,0.3,0.03,0.45,0.08c0.05,0.02,3.31,1.25,8.57,1.37l-0.87,2.5
		C8.75,18.53,5.51,17.3,5.36,17.24z"/>
</g>
</svg>
