<?xml version="1.0" encoding="utf-8"?>
<!-- Generator: Adobe Illustrator 23.0.2, SVG Export Plug-In . SVG Version: 6.00 Build 0)  -->
<svg version="1.1" id="Layer_1" xmlns="http://www.w3.org/2000/svg" xmlns:xlink="http://www.w3.org/1999/xlink" x="0px" y="0px"
	 width="32px" height="32px" viewBox="0 0 32 32" style="enable-background:new 0 0 32 32;" xml:space="preserve">
<style type="text/css">
	.st0{fill:none;}
	.st1{fill:#952524;}
</style>
<rect class="st0" width="32" height="32"/>
<g>
	<path class="st1" d="M31.47,30.31c-0.01,0-0.01,0-0.02,0c-0.15-0.01-3.7-0.28-7.5-4.49c-2.58-2.86-3.42-3.8-3.63-4.16l-0.04,0.02
		c0,0-0.12-0.2-0.4-0.27c-0.37-0.09-0.87,0.08-1.45,0.47c-1.76,1.19-8.21,0.69-8.48,0.67c-0.1-0.02-7.19-1.36-9.22,0.6
		c-0.09,0.09-0.22,0.1-0.33,0.04c-0.11-0.06-0.16-0.19-0.12-0.31c0.04-0.15,1.06-3.67,6.18-9.68c0-0.01,1.04-1.32,1.02-2.77
		c-0.25-0.01-0.57-0.08-0.76-0.32C6.52,9.86,6.52,9.56,6.7,9.32C6.9,9.06,7.25,8.97,7.54,9.1C7.88,9.25,7.98,9.61,8,9.87
		c0.41,0.04,1.69,0.08,2.63-0.99c0.71-0.82,0.91-1.76,0.96-2.34c-0.25-0.11-0.5-0.26-0.6-0.42c-0.14-0.2-0.15-0.45-0.03-0.64
		c0.13-0.22,0.41-0.35,0.67-0.32c0.39,0.04,0.54,0.45,0.52,0.81c0,0,0.01,0.08,0.01,0.21c0.09,0.03,0.18,0.06,0.28,0.09
		c0.03,0.01,0.06,0.02,0.09,0.04c0.01,0.01,1.04,0.68,3.1-0.54l0.6-0.35c2.26-1.35,5.35-3.19,8.96-3.7
		c0.12-0.01,0.24,0.05,0.29,0.17c0.05,0.12,0.01,0.25-0.09,0.33c-0.02,0.01-1.85,1.45-2.06,5.8c-0.2,4.04-0.63,9.2-1.54,10.81
		c-0.85,1.51-1.26,1.57-2.53,1.52l-0.08,0c-1.54-0.06-5.96-1.21-9.06-4.24c-0.05-0.06-1.68-2.49,0.37-4.72
		c1.99-2.17,3.62-2.08,3.69-2.08c0.01-0.01,1.58-0.22,2.86,1.87c1.62,2.64,2.66,4.95,3.08,6.87c0.03,0.15-0.06,0.3-0.21,0.33
		c-0.15,0.03-0.29-0.06-0.33-0.21c-0.41-1.85-1.42-4.11-3.01-6.7c-1.08-1.76-2.32-1.61-2.37-1.61h-0.01c-0.16,0-1.56,0.02-3.29,1.9
		c-1.75,1.9-0.42,3.91-0.36,3.99c3.25,3.17,7.73,4.01,8.66,4.04l0.08,0c1.1,0.04,1.3,0.05,2.03-1.24c0.67-1.18,1.19-4.94,1.46-10.57
		c0.15-3.07,1.06-4.77,1.69-5.59c-3.16,0.63-5.91,2.27-7.96,3.49l-0.6,0.36c-2.17,1.28-3.4,0.69-3.65,0.54
		c-0.03-0.01-0.07-0.02-0.11-0.04c-0.07,0.66-0.32,1.63-1.08,2.5c-1.05,1.2-2.45,1.23-3.02,1.19c0.03,1.61-1.1,3.05-1.15,3.11
		c-3.66,4.29-5.2,7.33-5.78,8.68c2.77-1.39,8.64-0.27,8.92-0.22c1.78,0.14,6.77,0.32,8.1-0.58c0.73-0.49,1.38-0.68,1.91-0.54
		c0.47,0.12,0.68,0.44,0.73,0.52c0.07,0.09,0.53,0.63,3.61,4.05c3.63,4.04,7.09,4.31,7.12,4.31c0.15,0.01,0.27,0.14,0.25,0.29
		C31.73,30.19,31.61,30.31,31.47,30.31 M7.26,9.59c-0.05,0-0.1,0.03-0.12,0.06c-0.03,0.05-0.02,0.07,0,0.09
		c0.06,0.07,0.18,0.1,0.31,0.12C7.43,9.74,7.39,9.63,7.32,9.6C7.3,9.59,7.28,9.59,7.26,9.59 M11.55,5.68c-0.04,0-0.1,0.04-0.12,0.07
		c0.02,0.05,0.08,0.1,0.16,0.15C11.59,5.79,11.57,5.7,11.55,5.68"/>
</g>
</svg>
