<?xml version="1.0" encoding="utf-8"?>
<!-- Generator: Adobe Illustrator 23.0.2, SVG Export Plug-In . SVG Version: 6.00 Build 0)  -->
<svg version="1.1" id="Layer_1" xmlns="http://www.w3.org/2000/svg" xmlns:xlink="http://www.w3.org/1999/xlink" x="0px" y="0px"
	 width="32px" height="32px" viewBox="0 0 32 32" style="enable-background:new 0 0 32 32;" xml:space="preserve">
<style type="text/css">
	.st0{fill:none;}
	.st1{fill:#952524;}
</style>
<rect class="st0" width="32" height="32"/>
<g>
	<path class="st1" d="M18.44,5.71c-1.33,0-2.41-1.08-2.41-2.41s1.08-2.41,2.41-2.41c1.33,0,2.41,1.08,2.41,2.41
		S19.77,5.71,18.44,5.71 M18.44,1.43c-1.03,0-1.86,0.84-1.86,1.86c0,1.03,0.84,1.86,1.86,1.86c1.03,0,1.86-0.84,1.86-1.86
		C20.3,2.27,19.47,1.43,18.44,1.43"/>
	<path class="st1" d="M18.43,20.33c-0.05,0-0.09,0-0.14-0.01c-0.44-0.04-0.68-0.25-0.79-0.41c-0.27-0.38-0.17-0.86-0.16-0.92
		l0.19-1.37c0.08-0.55-0.31-1.06-0.85-1.14l-0.89-0.13c-2.98-0.26-2.94-2.72-2.94-2.75c-0.8-4.12,1.71-6.95,1.82-7.07l0.01-0.01
		c0.9-0.88,1.84-0.54,2.21-0.24l3.54,1.99c0.05,0.02,0.65,0.3,0.84,0.83c0.09,0.24,0.07,0.5-0.05,0.74
		c-0.17,0.35-0.41,0.48-0.59,0.52c-0.44,0.12-0.85-0.14-0.9-0.17l-1.73-0.83c-0.6-0.29-1.47-0.55-1.7,0.08
		c-0.5,1.36-0.71,3.05-0.37,3.78c0.47,1.02,1.55,1.09,1.56,1.09c1.62,0.36,2.48,1.91,2.26,3.5l-0.13,0.96
		C19.54,19.29,19.39,20.33,18.43,20.33 M15.06,6.91c-0.12,0.14-2.41,2.83-1.68,6.65c0,0.14-0.01,2.03,2.46,2.24l0.91,0.14
		c0.84,0.13,1.43,0.92,1.31,1.76l-0.19,1.4c-0.02,0.1-0.05,0.34,0.06,0.5c0.07,0.1,0.21,0.16,0.39,0.18
		c0.48,0.05,0.63-0.33,0.73-1.08l0.13-0.95c0.18-1.33-0.54-2.73-1.89-2.96c-0.07-0.01-1.23-0.11-1.84-1.21
		c-0.5-0.89-0.06-3.02,0.43-4.45c0.32-0.91,1.47-0.67,2.33-0.26L20,9.72c0.1,0.06,0.31,0.17,0.48,0.12c0.1-0.03,0.17-0.1,0.24-0.23
		c0.05-0.11,0.06-0.21,0.03-0.31c-0.09-0.26-0.45-0.47-0.58-0.53l-3.6-2.03C16.46,6.65,15.81,6.18,15.06,6.91"/>
	<path class="st1" d="M27.7,12.51c0.11,0.08,0.34,0.09,0.48,0.03c0.1-0.04,0.16-0.15,0.22-0.25l0.03-0.04l0-0.04
		c0-0.22-0.18-0.5-0.36-0.68c-0.15-0.15-0.29-0.23-0.41-0.23c-0.15,0-0.34,0.08-0.41,0.2c-0.08,0.13-0.1,0.35-0.02,0.49
		C27.35,12.19,27.52,12.38,27.7,12.51"/>
	<path class="st1" d="M30.89,8.63c-1.53-1.04-3.21-1.35-5-0.92c-1.02,0.25-1.98,0.69-2.92,1.34c-0.36,0.26-1.15,0.88-1.91,1.75
		c-1.03,1.17-2.72,1.9-2.72,1.9l0.01-0.01c-0.72,0.35-1.53,0.61-2.37,0.63l0.53,0.92c2.86-0.19,4.75-2.29,5.13-2.71l0,0l0.06-0.07
		c1.2-1.25,1.59-1.59,3.06-2.32c1.29-0.64,2.5-0.82,3.68-0.55c0.57,0.13,1.06,0.32,1.5,0.6l0.08,0.05l-0.12,0.16
		c-0.14,0.19-0.27,0.37-0.41,0.53c-0.21,0.25-0.26,0.5-0.14,0.81c0.37,0.98,0.3,1.77-0.22,2.49c-0.23,0.31-0.3,0.71-0.22,1.18
		c0.06,0.34,0.09,0.71,0.1,1.16c0.01,0.33-0.04,0.52-0.14,0.62c-0.11,0.1-0.31,0.14-0.65,0.13c-0.37-0.01-0.5-0.11-0.51-0.39
		c-0.01-0.16-0.08-0.31-0.14-0.41c-0.1-0.15-0.18-0.31-0.27-0.47c-0.23-0.43-0.47-0.85-0.81-1.16c-0.07-0.06-0.13-0.11-0.2-0.17
		l-0.02-0.02c-0.39-0.33-0.75-0.65-0.94-1.14c-0.05-0.13-0.14-0.22-0.26-0.26c-0.11-0.04-0.24-0.02-0.34,0.04
		c-0.15,0.09-0.27,0.32-0.27,0.49c0,0.24,0.15,0.47,0.21,0.56c0.18,0.26,0.38,0.5,0.57,0.74l0.19,0.24l-0.12,0.15
		c-0.13,0.17-0.28,0.35-0.41,0.54c-0.64,0.91-0.94,1.75-0.94,2.64c0,0.29,0.06,0.63,0.56,0.79c0.64,0.2,1.28,0.42,1.9,0.63
		l0.05,0.02c0.34,0.12,0.68,0.23,1.02,0.34c0.15,0.05,0.22,0.1,0.25,0.26c0.14,0.78,0.29,1.56,0.44,2.33c0.1,0.53,0.2,1.06,0.3,1.6
		c0,0.03,0.01,0.06,0.01,0.08c0,0.01,0,0.02,0,0.03l0,0.02c0,0,0,0.03,0,0.03l-0.01,0.04l-0.04,0.04h0
		c-0.23,0.21-0.47,0.42-0.72,0.63l-0.22,0.19l-0.51-0.63l0.14-0.09c0.14-0.1,0.28-0.18,0.41-0.27c0.28-0.17,0.36-0.43,0.23-0.73
		c-0.1-0.24-0.2-0.47-0.3-0.71l-0.03-0.08c-0.24-0.58-0.5-1.18-0.77-1.77c-0.08-0.17-0.31-0.35-0.5-0.38
		c-0.32-0.05-0.65-0.09-0.96-0.12c-0.4-0.04-0.78-0.09-1.16-0.15c-0.5-0.09-1.14-0.12-1.59,0.53c-0.02,0.02-0.04,0.04-0.09,0.08
		c-0.27,0.2-0.33,0.45-0.2,0.78c0.3,0.77,0.62,1.58,0.93,2.42c0.09,0.25,0.19,0.51,0.29,0.76l0.02,0.05
		c0.32,0.83,0.65,1.69,0.81,2.59c0.04,0.25,0.08,0.5,0.11,0.75c0.1,0.76,0.21,1.54,0.53,2.29l0.05,0.12l-0.13,0
		c-0.17,0-0.33,0-0.48,0l-0.1,0.01l-0.04-0.07c-0.01-0.03-0.01-0.06-0.02-0.11c-0.02-0.3-0.05-0.62-0.14-0.93
		c-0.21-0.69-0.44-1.39-0.66-2.07l-0.25-0.76c-0.04-0.13-0.08-0.26-0.15-0.38c-0.98-1.56-1.98-3.13-2.96-4.68
		c-0.02-0.03-0.18-0.27-0.37-0.28c-0.39-0.02-0.7,0-1.01,0.04l-0.08,0.01l0,0c-0.01,0-0.02,0-0.02,0l-0.01,0.01l-0.01,0
		c-3.17,0.57-4.9,1.05-4.91,1.05l-0.03,0.01c-0.31,0.08-0.62,0.16-0.94,0.22c-0.36,0.07-0.58,0.26-0.76,0.64
		c-0.61,1.28-1.35,1.97-2.4,2.23c-0.16,0.04-0.26,0.11-0.32,0.22C9,25.46,9,25.63,9.07,25.86c0.33,1.11,0.66,2.23,0.99,3.34
		c0.07,0.24,0.15,0.48,0.23,0.72l0.07,0.22H9.5l0.01-0.1c0.07-0.55-0.16-1.02-0.36-1.44c-0.07-0.14-0.13-0.27-0.19-0.4
		c-0.19-0.46-0.4-0.92-0.6-1.37l-0.01-0.02c-0.19-0.42-0.37-0.85-0.56-1.27c-0.04-0.1-0.04-0.26,0.01-0.35
		c0.4-0.84,0.84-1.75,1.4-2.87c0.12-0.25,0.13-0.48,0.02-0.77c-0.18-0.46-0.36-0.94-0.46-1.42c-0.33-1.69,0.17-3.03,1.5-3.97
		c0.87-0.62,1.73-0.98,2.64-1.12c0.37-0.05,0.56-0.24,0.54-0.54c0-0.14-0.07-0.26-0.17-0.33c-0.13-0.09-0.31-0.12-0.52-0.07
		l-0.31,0.08c-0.5,0.13-1.01,0.25-1.47,0.48c-0.51,0.25-0.98,0.56-1.48,0.89c-0.18,0.12-0.35,0.23-0.53,0.35l-0.05,0.03l-0.05-0.04
		c-0.8-0.61-1.58-0.99-2.37-1.18c-1.13-0.26-2.28,0-3.15,0.73c-0.85,0.71-1.31,1.77-1.25,2.89c0.02,0.38,0.15,0.75,0.28,1.11
		c0.04,0.11,0.07,0.2,0.1,0.3c0.32,0.97,0.02,1.65-0.89,2.03c-0.2,0.08-0.4,0.13-0.62,0.19c-0.17,0.04-0.35,0.09-0.53,0.15
		C0.27,22.15,0.03,22.32,0,22.5c-0.02,0.18,0.17,0.44,0.33,0.51c0.85,0.37,1.71,0.53,2.57,0.48c1.09-0.07,1.97-0.48,2.54-1.2
		c0.57-0.71,0.78-1.67,0.61-2.76L6.03,19.4c-0.03-0.15-0.05-0.29-0.05-0.42c-0.01-0.26,0.08-0.47,0.24-0.6
		c0.11-0.08,0.24-0.13,0.4-0.13c0.07,0,0.14,0.01,0.22,0.03c0.29,0.07,0.56,0.21,0.76,0.33c0.06,0.04,0.12,0.16,0.12,0.23
		c-0.04,0.97,0.14,1.92,0.54,2.91c0.04,0.1,0.02,0.26-0.03,0.36c-0.36,0.77-0.85,1.79-1.36,2.79c-0.16,0.3-0.16,0.58-0.01,0.9
		c0.2,0.44,0.39,0.88,0.58,1.31l0.01,0.02c0.26,0.6,0.53,1.22,0.82,1.82c0.25,0.52,0.33,1,0.25,1.51c-0.03,0.2,0,0.35,0.1,0.46
		c0.1,0.12,0.26,0.18,0.48,0.18c0.64,0.01,1.28,0.01,1.92,0c0.26,0,0.43-0.07,0.52-0.21c0.09-0.14,0.09-0.34-0.01-0.58l-0.13-0.33
		c-0.16-0.4-0.33-0.81-0.46-1.21c-0.21-0.66-0.41-1.34-0.6-1.99l-0.25-0.88l0.07-0.03c0.07-0.03,0.13-0.06,0.19-0.1
		c0.04-0.02,0.08-0.05,0.13-0.07l0.05-0.03l1.38,1.31c0.17,0.17,0.33,0.33,0.5,0.5l0.09,0.09c0.52,0.53,1.06,1.08,1.62,1.58
		c0.5,0.45,0.62,0.8,0.43,1.31c-0.06,0.15-0.04,0.31,0.04,0.43c0.09,0.13,0.25,0.21,0.43,0.21c0.72,0.01,1.43,0.01,2.15,0
		c0.17,0,0.32-0.07,0.41-0.17c0.07-0.08,0.1-0.18,0.08-0.29c-0.01-0.09-0.02-0.17-0.04-0.26c-0.06-0.44-0.12-0.89-0.43-1.26
		c-0.33-0.39-0.68-0.79-1.02-1.17l-0.03-0.04l-1.74-1.99l0.07-0.06c0.47-0.39,0.87-0.85,1.25-1.43l0.18-0.28
		c0.01-0.02,0.03-0.05,0.04-0.07c0.02-0.03,0.04-0.06,0.05-0.09c0.47-0.77,0.83-1.35,1.11-1.79l0.02-0.03l0.03-0.01
		c0.77-0.15,1.36-0.25,1.36-0.25l0.15-0.04l0-0.01l0.13-0.02c0.03,0,0.07-0.01,0.11-0.01c0.23-0.04,0.37,0.03,0.51,0.26
		c0.39,0.64,0.79,1.27,1.18,1.87c0.36,0.57,0.78,1.23,1.17,1.87c0.26,0.42,0.42,0.76,0.51,1.09c0.1,0.37,0.24,0.74,0.36,1.07
		c0.31,0.87,0.61,1.7,0.54,2.63c-0.01,0.12,0.03,0.23,0.11,0.32c0.09,0.1,0.24,0.16,0.4,0.16c0.69,0.01,1.39,0.01,2.08,0
		c0.16,0,0.3-0.06,0.38-0.15c0.08-0.09,0.13-0.22,0.11-0.36c-0.01-0.11-0.07-0.21-0.12-0.3l-0.05-0.08
		c-0.06-0.11-0.13-0.22-0.19-0.33c-0.15-0.25-0.29-0.48-0.36-0.72c-0.09-0.3-0.14-0.61-0.19-0.94c-0.03-0.18-0.06-0.39-0.1-0.59
		c-0.04-0.21-0.08-0.41-0.12-0.62c-0.11-0.59-0.22-1.19-0.42-1.76c-0.33-0.96-0.7-1.92-1.07-2.85l-0.05-0.12
		c-0.14-0.37-0.29-0.73-0.43-1.1c-0.04-0.1-0.01-0.23,0.07-0.34c0.07-0.09,0.17-0.15,0.26-0.13c0.72,0.08,1.46,0.16,2.19,0.26
		c0.06,0.01,0.12,0.05,0.14,0.06l0.02,0.03c0.25,0.55,0.49,1.12,0.7,1.63l0.17,0.39l-0.67,0.43c-0.16,0.1-0.25,0.23-0.28,0.36
		c-0.01,0.08-0.01,0.2,0.09,0.33c0.35,0.47,0.71,0.92,1.07,1.32c0.25,0.28,0.59,0.31,0.89,0.07c0.45-0.36,0.9-0.73,1.34-1.1
		c0.25-0.21,0.33-0.48,0.26-0.85c-0.3-1.51-0.58-3-0.83-4.4c-0.06-0.31-0.21-0.48-0.5-0.58c-0.55-0.18-1.09-0.36-1.64-0.54
		l-0.94-0.32c-0.7-0.24-0.73-0.28-0.5-0.99c0.2-0.62,0.54-1.19,1.05-1.75l0.07-0.08l0.06,0.09c0.34,0.47,0.52,0.85,0.6,1.25
		c0.08,0.41,0.33,0.69,0.73,0.83c0.51,0.18,1,0.11,1.42,0.01c0.55-0.13,0.88-0.48,0.92-0.98c0.06-0.63,0.05-1.23-0.01-1.77
		c-0.04-0.37,0.02-0.66,0.21-0.96c0.37-0.58,0.51-1.13,0.45-1.67c-0.02-0.18-0.06-0.36-0.09-0.53c-0.04-0.2-0.07-0.38-0.09-0.57
		c-0.02-0.14,0.01-0.29,0.07-0.39c0.11-0.18,0.24-0.35,0.38-0.52c0.08-0.11,0.17-0.21,0.25-0.32c0.08-0.1,0.17-0.27,0.14-0.44
		C31.15,8.83,31,8.71,30.89,8.63z M7.94,17.65l-0.21-0.08c-0.22-0.08-0.44-0.17-0.68-0.22c-0.61-0.12-1.16,0.02-1.55,0.39
		c-0.39,0.38-0.56,0.96-0.47,1.6c0.07,0.47,0.14,0.97,0.06,1.42c-0.17,1.03-1.02,1.72-2.22,1.78c-0.11,0.01-0.2,0.01-0.29,0.01
		c-0.04,0-0.08,0-0.11,0l-0.26-0.01l0.22-0.15c0.11-0.07,0.19-0.14,0.27-0.2c0.76-0.62,1.01-1.46,0.75-2.5
		c-0.05-0.21-0.12-0.46-0.24-0.69c-0.32-0.63-0.25-1.47,0.19-2.19c0.47-0.78,1.25-1.24,2.13-1.26c0.02,0,0.04,0,0.06,0
		c0.87,0,1.99,0.46,2.74,1.13l0.05,0.04L7.94,17.65z M15.62,22.63c-0.35,0.7-0.66,1.24-0.66,1.25c-0.42,0.66-0.85,1.12-1.36,1.46
		c-0.18,0.12-0.35,0.26-0.38,0.44c-0.02,0.18,0.11,0.37,0.25,0.53l0.88,1.01c0.66,0.75,1.34,1.53,1.99,2.3
		c0.09,0.11,0.15,0.25,0.21,0.39l0.05,0.12h-1.04l0.04-0.11c0.17-0.48-0.07-0.8-0.32-1.05c-0.62-0.6-1.21-1.18-1.91-1.88
		c-0.25-0.25-0.51-0.51-0.76-0.76l-0.15-0.14h0l-1.08-1.09l0.06-0.06c0.46-0.43,0.83-0.94,1.14-1.57c0.1-0.2,0.22-0.29,0.42-0.33
		c0.36-0.08,0.74-0.18,1.1-0.28l0.06-0.02l0,0c0.31-0.09,0.76-0.2,1.35-0.33l0.17-0.04L15.62,22.63z"/>
</g>
</svg>
