<?xml version="1.0" encoding="utf-8"?>
<!-- Generator: Adobe Illustrator 23.0.2, SVG Export Plug-In . SVG Version: 6.00 Build 0)  -->
<svg version="1.1" id="Layer_1" xmlns="http://www.w3.org/2000/svg" xmlns:xlink="http://www.w3.org/1999/xlink" x="0px" y="0px"
	 width="32px" height="32px" viewBox="0 0 32 32" style="enable-background:new 0 0 32 32;" xml:space="preserve">
<style type="text/css">
	.st0{fill:none;}
	.st1{fill:#952524;}
</style>
<rect class="st0" width="32" height="32"/>
<g>
	<g>
		
			<rect x="15.49" y="-9.61" transform="matrix(0.1801 -0.9837 0.9837 0.1801 8.4449 19.6346)" class="st1" width="1.02" height="28.72"/>
	</g>
	<g>
		<g>
			<rect x="15.74" y="4.45" class="st1" width="0.52" height="6.65"/>
		</g>
	</g>
	<g>
		<g>
			
				<rect x="12.44" y="17.82" transform="matrix(0.0142 -0.9999 0.9999 0.0142 -2.4959 33.633)" class="st1" width="6.75" height="0.52"/>
		</g>
	</g>
	<g>
		<path class="st1" d="M14.61,25.95c-0.76,0-1.59-0.27-2.36-1.02c-1.99-1.96-4.54-4.64-4.56-4.67c-0.01-0.01-0.78-0.76-0.8-1.87
			c-0.01-0.76,0.32-1.49,0.99-2.16c0,0,0,0,0,0l0.22-0.22c0.77-0.77,1.73-1.35,2.77-1.68l0.1-0.03c0.95-0.3,1.79-0.85,2.43-1.61
			l1.51-1.77c0.47-0.48,1.58-1.13,2.61-0.24c1.22,1.05,0.38,2.08,0.06,2.47c-0.29,0.36-1.71,1.84-2.52,2.7
			c-0.47,0.49-1.06,0.85-1.71,1.04l-0.39,0.17c-0.12,0.05-0.21,0.16-0.23,0.29c-0.02,0.13,0.02,0.26,0.11,0.35l2.92,2.9l4.71-2.51
			c0.09-0.04,1.79-0.82,3.37,0.14c1.37,0.83,4.91,3.25,5.06,3.35c0.63,0.48,1.22,1.59,0.34,2.76c-0.94,1.26-2.25,0.48-2.81,0.15
			c-0.63-0.37-3.93-2.38-4.26-2.58L17.09,25C16.61,25.43,15.67,25.95,14.61,25.95z M8.58,16.92c-0.47,0.48-0.71,0.96-0.71,1.45
			c0.01,0.69,0.51,1.2,0.51,1.2c0.04,0.04,2.57,2.71,4.55,4.66c1.66,1.64,3.5,0.05,3.58-0.02l5.4-3.31c0.16-0.1,0.36-0.09,0.52,0
			l0.22,0.14l0,0c0,0,3.6,2.19,4.23,2.56c0.81,0.48,1.21,0.6,1.57,0.13c0.56-0.75,0.04-1.25-0.13-1.38
			c-0.01-0.01-3.65-2.49-4.99-3.31c-1.12-0.68-2.41-0.1-2.42-0.1l-5,2.67c-0.19,0.1-0.42,0.07-0.58-0.08l-3.18-3.15
			c-0.32-0.32-0.47-0.78-0.38-1.23c0.08-0.45,0.38-0.82,0.8-1.01l0.44-0.2c0.55-0.17,0.99-0.44,1.34-0.8
			c1.35-1.41,2.28-2.4,2.47-2.64c0.48-0.59,0.44-0.78,0.06-1.11c-0.58-0.5-1.17,0.09-1.24,0.16l-1.49,1.75
			c-0.76,0.9-1.76,1.56-2.89,1.91l-0.1,0.03c-0.89,0.28-1.71,0.78-2.37,1.44L8.58,16.92z"/>
	</g>
	<g>
		<path class="st1" d="M26.27,30.34c-0.65,0-1.09-0.37-1.14-0.41l-3.81-2.62c-0.63-0.43-1.36-0.73-2.12-0.86l-3.79-0.65l0.17-0.97
			l3.79,0.65c0.89,0.15,1.76,0.51,2.5,1.02l3.85,2.65c0.19,0.15,0.73,0.49,1.41-0.3c0.18-0.2,0.25-0.39,0.24-0.58
			c-0.02-0.27-0.25-0.52-0.34-0.59l-4.29-3c-0.52-0.36-1.1-0.63-1.71-0.79l-1.71-0.44l0.25-0.95l1.71,0.44
			c0.73,0.19,1.41,0.5,2.03,0.93l4.31,3.02c0.09,0.07,0.66,0.54,0.73,1.27c0.03,0.32-0.03,0.8-0.47,1.32
			c-0.45,0.52-0.95,0.8-1.49,0.84C26.34,30.34,26.3,30.34,26.27,30.34z"/>
	</g>
	<g>
		<path class="st1" d="M5.65,16.19c-1.72,0-3.11-1.4-3.11-3.11s1.4-3.11,3.11-3.11s3.11,1.4,3.11,3.11S7.37,16.19,5.65,16.19z
			 M5.65,10.95c-1.18,0-2.13,0.96-2.13,2.13s0.96,2.13,2.13,2.13s2.13-0.96,2.13-2.13S6.83,10.95,5.65,10.95z"/>
	</g>
</g>
</svg>
