<?xml version="1.0" encoding="utf-8"?>
<!-- Generator: Adobe Illustrator 23.0.2, SVG Export Plug-In . SVG Version: 6.00 Build 0)  -->
<svg version="1.1" id="Layer_1" xmlns="http://www.w3.org/2000/svg" xmlns:xlink="http://www.w3.org/1999/xlink" x="0px" y="0px"
	 width="32px" height="32px" viewBox="0 0 32 32" style="enable-background:new 0 0 32 32;" xml:space="preserve">
<style type="text/css">
	.st0{fill:none;}
	.st1{fill:#952524;}
</style>
<rect class="st0" width="32" height="32"/>
<g>
	<path class="st1" d="M14.32,7.56l2.2,1.36c0,0,0,0,0,0c0.03,0.02,0.72,0.42,1.43,0.42c0.08,0,0.15,0,0.23-0.02
		c0.31-0.04,0.4-0.22,0.42-0.32c0.07-0.3-0.23-0.68-0.91-1.15c-0.61-0.4-1.27-1.02-1.24-1.26c0-0.04,0.1-0.08,0.12-0.09
		c0.81-0.32,1.47,0.03,2.16,0.39l0.27,0.14c0.37,0.19,0.67,0.22,0.89,0.08c0.27-0.17,0.27-0.49,0.27-0.53c0-0.05-0.02-0.1-0.04-0.14
		c-0.05-0.07-1.18-1.72-2.28-2.27c-1.1-0.55-3.21-0.99-4.15,0.81c-0.31,0.59-0.39,1.14-0.22,1.62C13.71,7.28,14.32,7.56,14.32,7.56z
		 M14.15,5.22c0.77-1.46,2.55-1.06,3.49-0.6c0.85,0.43,1.79,1.69,2.03,2.02c-0.01,0.01-0.01,0.03-0.02,0.03
		c-0.03,0.02-0.15,0.02-0.4-0.1l-0.26-0.14c-0.73-0.39-1.56-0.83-2.58-0.42c-0.33,0.13-0.42,0.36-0.44,0.52
		c-0.07,0.67,1.1,1.5,1.46,1.74c0.26,0.18,0.51,0.41,0.63,0.55c-0.58,0.04-1.24-0.32-1.28-0.35l-2.22-1.37c0,0-0.45-0.22-0.6-0.68
		C13.84,6.09,13.91,5.68,14.15,5.22z"/>
	<path class="st1" d="M31.75,22.76h-0.1c-0.05-0.86-0.31-1.66-0.76-2.34l0.07-0.05c0.11-0.09,0.13-0.24,0.05-0.36
		c-0.08-0.11-0.24-0.13-0.35-0.05l-0.08,0.06c-0.3-0.36-0.64-0.67-1.03-0.92l0.04-0.07c0.07-0.12,0.02-0.28-0.1-0.35
		c-0.12-0.07-0.27-0.02-0.34,0.1l-0.04,0.08c-0.53-0.27-1.12-0.43-1.75-0.46v-0.1c0-0.14-0.11-0.26-0.25-0.26
		c-0.14,0-0.25,0.11-0.25,0.26v0.1c-0.53,0.03-1.04,0.13-1.5,0.33l-1.88-3.25c0.14-0.08,0.28-0.16,0.43-0.23
		c3.37-0.64,4.68,1.02,4.74,1.09l0.73-0.56c-0.06-0.09-1.62-2.13-5.44-1.49c-0.7-0.78-1.5-1.22-2.32-1.45
		c-0.12-1.1-0.42-2.3-1.12-2.46c-0.65-0.14-1.96-0.02-2.11-0.01l0.09,0.92c0.36-0.04,1.39-0.1,1.77-0.03
		c0.14,0.12,0.31,0.72,0.42,1.4c-2.15-0.18-4.23,0.89-4.94,1.31l-0.2,0.12c-0.19-0.27-0.43-0.54-0.77-0.77
		c-0.74-0.49-2.21-1.41-2.27-1.41h0c0,0,0.01-0.07,0.16-0.23c0.46-0.46,1.21-0.92,1.23-0.93c0.02-0.01,0.51-0.31,1.27,0.12
		c0.82,0.46,0.99,0.6,1.01,0.62c0.01,0.01,0.03,0.02,0.04,0.03l0.09,0.05c0.36,0.22,1.32,0.8,1.82,0.05c0.35-0.54,0-1.07-0.33-1.29
		c-0.85-0.52-3.58-2.15-3.59-2.16c-0.06-0.03-1.4-0.67-2.72,0.38c-1.23,0.98-2.02,2.29-2.06,2.35c-0.02,0.04-0.56,0.98-0.31,1.94
		c0.13,0.52,0.47,0.95,0.99,1.26c0.44,0.26,1.03,0.43,1.59,0.59c0.63,0.18,1.15,0.34,1.52,0.56l-0.11,0.05l-4.42,1.68
		c-2.78-1.92-6.15-1.24-6.19-1.23l0.19,0.91c0.24-0.05,5.72-1.15,7.86,4.23l-1.47,0.51c-0.1-0.22-0.21-0.45-0.35-0.65l0.07-0.05
		c0.11-0.09,0.13-0.25,0.05-0.36c-0.09-0.11-0.24-0.13-0.35-0.05L8.4,20.36c-0.3-0.36-0.64-0.67-1.03-0.92l0.04-0.07
		c0.07-0.12,0.03-0.28-0.1-0.35c-0.12-0.07-0.27-0.02-0.34,0.1L6.93,19.2c-0.53-0.27-1.12-0.43-1.75-0.46v-0.1
		c0-0.14-0.11-0.26-0.25-0.26c-0.14,0-0.25,0.11-0.25,0.26v0.1c-0.85,0.05-1.64,0.32-2.31,0.77l-0.06-0.08
		c-0.08-0.11-0.24-0.13-0.35-0.05c-0.11,0.09-0.13,0.25-0.05,0.36l0.07,0.09c-0.35,0.3-0.66,0.65-0.91,1.05l-0.1-0.05
		c-0.12-0.07-0.27-0.02-0.34,0.1c-0.07,0.12-0.02,0.28,0.1,0.35l0.1,0.06c-0.26,0.54-0.41,1.13-0.45,1.75H0.25
		C0.11,23.08,0,23.2,0,23.34c0,0.14,0.11,0.26,0.25,0.26h0.13c0.05,0.87,0.32,1.69,0.78,2.37l-0.06,0.05
		c-0.11,0.09-0.13,0.25-0.05,0.36c0.05,0.07,0.13,0.1,0.2,0.1c0.05,0,0.11-0.02,0.15-0.05l0.08-0.06c0.3,0.35,0.64,0.66,1.03,0.91
		l-0.05,0.09c-0.07,0.12-0.02,0.28,0.1,0.35c0.04,0.02,0.08,0.03,0.12,0.03c0.09,0,0.17-0.05,0.22-0.13l0.05-0.09
		c0.53,0.26,1.11,0.42,1.73,0.45v0.1c0,0.14,0.11,0.25,0.25,0.25c0.14,0,0.25-0.11,0.25-0.25v-0.1c0.86-0.05,1.65-0.32,2.32-0.78
		l0.06,0.08c0.05,0.07,0.12,0.1,0.2,0.1c0.05,0,0.11-0.02,0.15-0.05c0.11-0.09,0.13-0.25,0.05-0.36l-0.07-0.1
		c0.35-0.3,0.65-0.64,0.9-1.03l0.09,0.05c0.04,0.02,0.08,0.03,0.12,0.03c0.09,0,0.17-0.05,0.22-0.13c0.07-0.12,0.02-0.28-0.1-0.35
		l-0.09-0.05c0.26-0.54,0.42-1.14,0.45-1.77h0.1c0.14,0,0.25-0.11,0.25-0.25c0-0.14-0.11-0.25-0.25-0.25h-0.1
		c-0.02-0.28-0.05-0.55-0.11-0.81l3.48-1.22l1.6,0.93c0.07,0.04,0.15,0.06,0.23,0.06h5.95c0.13,0,0.25-0.05,0.34-0.15
		c0.09-0.1,0.13-0.23,0.12-0.36c0-0.04-0.3-3.59,1.64-5.49l1.81,3.12l-0.06-0.08c-0.09-0.11-0.24-0.13-0.35-0.05
		c-0.11,0.09-0.13,0.25-0.05,0.36l0.07,0.09c-0.35,0.3-0.66,0.65-0.91,1.05l-0.1-0.05c-0.12-0.07-0.27-0.03-0.34,0.1
		c-0.07,0.12-0.02,0.28,0.1,0.35L23,21c-0.26,0.54-0.41,1.13-0.45,1.75h-0.13c-0.14,0-0.25,0.11-0.25,0.26
		c0,0.14,0.11,0.25,0.25,0.25h0.12c0.05,0.88,0.32,1.69,0.78,2.37l-0.06,0.05c-0.11,0.09-0.13,0.25-0.05,0.36
		c0.05,0.07,0.13,0.1,0.2,0.1c0.05,0,0.11-0.02,0.15-0.05l0.08-0.06c0.3,0.35,0.64,0.66,1.03,0.91l-0.05,0.09
		c-0.07,0.12-0.02,0.28,0.1,0.35c0.04,0.02,0.08,0.03,0.12,0.03c0.09,0,0.17-0.05,0.22-0.13l0.05-0.09
		c0.53,0.26,1.11,0.42,1.73,0.45v0.1c0,0.14,0.11,0.25,0.25,0.25c0.14,0,0.25-0.11,0.25-0.25v-0.1c0.85-0.05,1.65-0.32,2.32-0.78
		l0.06,0.08c0.05,0.07,0.12,0.1,0.2,0.1c0.05,0,0.11-0.02,0.15-0.05c0.11-0.09,0.13-0.25,0.05-0.36l-0.07-0.09
		c0.34-0.3,0.65-0.64,0.9-1.03l0.09,0.05c0.04,0.02,0.08,0.03,0.12,0.03c0.09,0,0.17-0.05,0.22-0.13c0.07-0.12,0.02-0.28-0.1-0.35
		l-0.09-0.05c0.26-0.54,0.42-1.14,0.45-1.77h0.1c0.14,0,0.25-0.11,0.25-0.25C32,22.88,31.89,22.76,31.75,22.76z M4.93,27.05
		c-2.02,0-3.66-1.66-3.66-3.71s1.64-3.71,3.66-3.71c1.44,0,2.67,0.85,3.27,2.07l-2.98,1.04c-0.13-0.1-0.28-0.16-0.46-0.16
		c-0.44,0-0.8,0.36-0.8,0.81c0,0.45,0.36,0.82,0.8,0.82c0.37,0,0.66-0.25,0.76-0.59l2.99-1.05c0.05,0.25,0.08,0.5,0.08,0.76
		C8.59,25.39,6.95,27.05,4.93,27.05z M10.35,13.67c-1.43-0.85-0.54-2.43-0.51-2.5c0.01-0.01,0.78-1.29,1.93-2.2
		c0.49-0.39,0.97-0.49,1.36-0.49c0.47,0,0.79,0.15,0.81,0.16c0,0,2.73,1.63,3.56,2.14c0.04,0.03,0.39,0.28,0.19,0.58
		c-0.2,0.31-0.69,0.07-1.14-0.2l-0.08-0.05c-0.08-0.06-0.33-0.24-1.07-0.66c-1.05-0.59-1.76-0.12-1.78-0.11
		c-0.03,0.02-0.82,0.49-1.32,1c-0.25,0.26-0.35,0.49-0.3,0.7c0.04,0.17,0.18,0.28,0.29,0.33c0.18,0.12,1.5,0.94,2.19,1.4
		c1.3,0.86,1.04,2.38,1.03,2.46c0,0.01-0.1,0.98-0.42,2.11c-0.02,0.1-0.1,0.39-0.29,0.51c-0.1,0.07-0.24,0.09-0.4,0.05
		c-0.18-0.04-0.31-0.12-0.38-0.23c-0.11-0.19-0.05-0.44-0.04-0.47c0,0,0.13-0.7,0.31-1.53c0.37-1.7-1.2-2.14-2.47-2.49
		C11.26,14.05,10.73,13.9,10.35,13.67z M20.16,21.13H14.8l-1.68-0.97c-0.12-0.07-0.25-0.08-0.38-0.04l-1.35,0.47
		c-0.5-1.27-1.16-2.22-1.9-2.93l3.78-1.44l0.53-0.16c0.02,0.16,0.03,0.33-0.02,0.53c-0.18,0.82-0.31,1.52-0.3,1.52
		c-0.01,0.05-0.12,0.47,0.1,0.84c0.14,0.24,0.38,0.4,0.7,0.47c0.09,0.02,0.18,0.03,0.26,0.03c0.2,0,0.38-0.05,0.53-0.16
		c0.4-0.28,0.49-0.8,0.49-0.82c0.32-1.15,0.43-2.13,0.43-2.15c0.01-0.04,0.1-0.66-0.1-1.37L16,14.9c0.34-0.22,4.36-2.69,6.99-0.21
		C20.32,16.26,20.13,19.8,20.16,21.13z M27.1,26.73c-2.02,0-3.66-1.66-3.66-3.71c0-1.25,0.62-2.36,1.57-3.03l1.42,2.44
		c-0.07,0.12-0.13,0.26-0.13,0.41c0,0.45,0.36,0.82,0.8,0.82c0.44,0,0.8-0.37,0.8-0.82c0-0.39-0.27-0.7-0.63-0.78l-1.45-2.5
		c0.4-0.15,0.83-0.25,1.28-0.25c2.02,0,3.66,1.66,3.66,3.71S29.12,26.73,27.1,26.73z"/>
</g>
</svg>
