<?xml version="1.0" encoding="utf-8"?>
<!-- Generator: Adobe Illustrator 23.0.2, SVG Export Plug-In . SVG Version: 6.00 Build 0)  -->
<svg version="1.1" id="Layer_1" xmlns="http://www.w3.org/2000/svg" xmlns:xlink="http://www.w3.org/1999/xlink" x="0px" y="0px"
	 width="32px" height="32px" viewBox="0 0 32 32" style="enable-background:new 0 0 32 32;" xml:space="preserve">
<style type="text/css">
	.st0{fill:none;}
	.st1{fill:#972726;}
</style>
<g>
	<rect y="0" class="st0" width="32" height="32"/>
</g>
<g>
	<path class="st1" d="M10.4,9.79c0.16-2.5-1.28-3.08-2.16-3.21c-0.46-0.06-1.5-0.12-3.37,0.27C4.78,6.87,2.53,7.36,1.17,9.47
		c-1,1.55-1.24,3.56-0.71,5.95c0.03,0.16,0.87,3.87,2.6,5.93c1.2,1.43,1.79,1.87,2.61,1.87c0.37,0,0.78-0.09,1.31-0.21l0.34-0.08
		c1.34-0.3,1.84-0.41,2.61-2.07c0.75-1.64,1.95-3.67,1.96-3.69c0.01-0.02,1.15-1.96-0.56-3.6C11.33,13.55,10.24,12.24,10.4,9.79
		 M11.47,16.91c-0.01,0.02-1.22,2.07-1.99,3.74c-0.66,1.43-0.97,1.5-2.26,1.79l-0.38,0.08c-1.53,0.35-1.81,0.41-3.4-1.5
		c-1.65-1.97-2.48-5.68-2.49-5.72c-0.5-2.26-0.29-4.13,0.63-5.57c1.23-1.92,3.35-2.39,3.39-2.4c1.86-0.39,2.85-0.31,3.19-0.27
		C9.4,7.25,10,8.18,9.9,9.76c-0.17,2.65,1.01,4.07,1.08,4.15C12.42,15.28,11.51,16.84,11.47,16.91"/>
	<path class="st1" d="M20.66,12.27c0.07-0.42,0.01-1.44-0.67-2.33c-0.63-0.81-1.6-1.29-2.9-1.42c-1.74-0.18-2.73,0.47-3.26,1.04
		c-0.69,0.75-0.95,1.77-0.84,2.37l0,0.02c0,0.01,0.24,0.95,0.17,1.7c-0.08,0.87,0.58,2.14,0.59,2.15c0.01,0.03,0.7,2.58,0.8,3.4
		c0.12,0.98,1.06,2.32,2.75,2.32c0.12,0,0.24-0.01,0.37-0.02c1.93-0.21,2.99-0.92,3.16-2.1c0.07-0.51,0.06-1.04,0.05-1.51
		c-0.01-0.5-0.02-0.98,0.08-1.21c0.26-0.6,0.3-1.82-0.02-2.34C20.7,13.96,20.56,12.88,20.66,12.27 M20.48,16.47
		c-0.14,0.33-0.13,0.84-0.12,1.42c0.01,0.45,0.02,0.97-0.05,1.43c-0.13,0.94-1.02,1.48-2.72,1.67c-1.73,0.2-2.48-1.2-2.56-1.86
		c-0.1-0.86-0.78-3.37-0.83-3.53c-0.17-0.33-0.61-1.32-0.55-1.92c0.08-0.8-0.15-1.74-0.18-1.86c-0.07-0.41,0.11-1.27,0.72-1.93
		c0.65-0.7,1.63-1,2.84-0.88c1.15,0.12,2.01,0.53,2.55,1.23c0.6,0.78,0.62,1.67,0.57,1.95c-0.11,0.67,0.02,1.89,0.34,2.4
		C20.73,14.96,20.68,16.01,20.48,16.47"/>
	<path class="st1" d="M31.66,19.76c0.17-1.49-0.23-4.03-1.42-4.93c-0.46-0.35-1.01-0.42-1.59-0.19c-0.29,0.07-3.1,0.8-5.45,3.57
		c-0.01,0.01-1.3,1.1-0.47,2.76c0.74,1.48,1.52,3.31,1.55,3.37c0.02,0.03,0.58,0.82,1.5,0.97c0.55,0.09,1.1-0.07,1.68-0.5
		c0.03-0.03,0.64-0.72,1.86,0.05c0.63,0.4,1.14,0.6,1.54,0.6c0.18,0,0.34-0.04,0.47-0.12c0.36-0.21,0.52-0.67,0.48-1.36
		c-0.02-0.42-0.07-0.8-0.11-1.17C31.6,21.95,31.5,21.14,31.66,19.76 M31.08,24.91c-0.15,0.09-0.53,0.14-1.49-0.47
		C29.06,24.11,28.62,24,28.25,24c-0.74,0-1.14,0.45-1.13,0.45c-0.42,0.31-0.84,0.44-1.26,0.37c-0.69-0.11-1.14-0.72-1.15-0.72
		c-0.03-0.06-0.8-1.87-1.54-3.35c-0.65-1.3,0.3-2.12,0.37-2.19c2.35-2.76,5.21-3.44,5.24-3.44l0.04-0.01
		c0.42-0.17,0.79-0.13,1.12,0.12c0.91,0.69,1.4,2.93,1.23,4.47c-0.16,1.43-0.06,2.31,0.04,3.17c0.04,0.37,0.08,0.73,0.11,1.14
		C31.33,24.35,31.3,24.78,31.08,24.91"/>
</g>
</svg>
