<?xml version="1.0" encoding="utf-8"?>
<!-- Generator: Adobe Illustrator 23.0.2, SVG Export Plug-In . SVG Version: 6.00 Build 0)  -->
<svg version="1.1" id="Layer_1" xmlns="http://www.w3.org/2000/svg" xmlns:xlink="http://www.w3.org/1999/xlink" x="0px" y="0px"
	 width="32px" height="32px" viewBox="0 0 32 32" style="enable-background:new 0 0 32 32;" xml:space="preserve">
<style type="text/css">
	.st0{fill:none;}
	.st1{fill:#952524;}
</style>
<rect class="st0" width="32" height="32"/>
<g>
	<path class="st1" d="M30.57,30.73c-0.02-0.01-1.76-1.36-2.28-2.79c-0.69-1.9-4.27-2.76-6.72-2.13c-1.41,0.36-3.1,0.13-4.12-0.56
		c-0.56-0.38-0.89-0.87-0.96-1.46c-0.33-2.59-3.12-3.09-3.24-3.11c-0.05-0.01-0.1-0.01-0.15,0c-0.09,0.01-2.13,0.27-2.76-2.39
		c-0.02-0.15-0.16-0.64-0.94-1.52c-0.22-0.23-0.54-0.52-0.91-0.82c0.06,0,0.12,0.02,0.18,0.02c2.86,0,5.19-2.33,5.19-5.19
		c0-0.64-0.13-1.24-0.34-1.8l1.37-0.69l0.08,0.23c0,0,0.24,0.53,0.11,1.38c-0.14,0.94-0.89,4.5-0.9,4.53
		c-0.02,0.08-0.15,0.78,0.22,1.27c0.14,0.18,0.4,0.4,0.87,0.43c0.05,0,0.1,0.01,0.15,0.01c1.01,0,1.17-0.7,1.3-1.26l0.01-0.03
		l6.65-1.74l0.42-0.11l0,0l0.09-0.02h0l0.04-0.01l0.05-0.01l-0.03,0.08l0,0l-0.02,0.06l-0.01,0.02l0,0l-0.39,1.28
		c-0.34-0.07-0.69-0.11-1.04-0.11c-2.86,0-5.19,2.33-5.19,5.19s2.33,5.19,5.19,5.19c2.86,0,5.19-2.33,5.19-5.19
		c0-2.16-1.32-4.01-3.19-4.79l1.14-3.69l2.54,0.35l0.14-0.99l-3.38-0.46l-0.49,1.6l-0.05,0.16l0,0l-0.03,0.08h0l-0.03,0.08
		l-0.87,0.23l0,0l-6.47,1.69c0.26-1.21,0.63-3.04,0.66-3.14c0.01-0.07,0.33-1.73-0.26-3.34l-0.13-0.49l3.84-0.26
		c0.22,0.53,0.88,2,1.9,2.85c0.05,0.04,1.18,0.85,1.92,0.17c0.69-0.64,0.25-1.49-0.08-1.85c0,0-0.01-0.01-0.01-0.01
		c-0.01-0.01-0.95-0.95-1.37-1.97c-0.5-1.24-0.6-1.94-0.61-1.96c-0.01-0.04-0.23-1.06-1.73-1.06c-1.3,0-5.47,0.58-5.64,0.6
		c-0.04,0-0.9,0.11-1.34,0.84c-0.34,0.57-0.32,1.32,0.05,2.24l0.39,1.08l-0.05-0.1l-1.46,0.73c-0.91-1.49-2.54-2.49-4.41-2.49
		c-2.86,0-5.19,2.33-5.19,5.19c0,0.67,0.14,1.31,0.37,1.9c-1-0.62-1.77-1.09-1.85-1.14c-0.15-0.09-0.35-0.09-0.5-0.01
		c-0.16,0.09-0.25,0.25-0.25,0.43v19.16c0,0.28,0.22,0.5,0.5,0.5h28.53c0.21,0,0.4-0.14,0.47-0.34
		C30.81,31.09,30.74,30.86,30.57,30.73z M26.69,19.47c0,2.31-1.88,4.19-4.19,4.19c-2.31,0-4.19-1.88-4.19-4.19
		c0-2.31,1.88-4.19,4.19-4.19c0.25,0,0.5,0.03,0.74,0.08l-0.98,3.18c-0.42,0.11-0.75,0.48-0.75,0.93c0,0.54,0.44,0.98,0.98,0.98
		s0.98-0.44,0.98-0.98c0-0.25-0.1-0.48-0.26-0.65l0.98-3.17C25.66,16.3,26.69,17.76,26.69,19.47z M14.61,4.4
		c0.3-0.5,0.93-0.58,0.94-0.58c0.04-0.01,4.31-0.6,5.57-0.6c1.03,0,1.19,0.6,1.19,0.6c0,0.03,0.1,0.76,0.64,2.08
		c0.44,1.09,1.39,2.06,1.48,2.15c0.07,0.08,0.55,0.66,0.11,1.07c-0.4,0.37-1.21-0.2-1.21-0.2c-1.11-0.92-1.79-2.78-1.8-2.8
		C21.49,6,21.38,5.92,21.26,5.94l-4.37,0.29c-0.08,0-0.16,0.05-0.2,0.11c-0.05,0.07-0.06,0.15-0.04,0.23l0.22,0.84
		c0.54,1.49,0.25,3.06,0.24,3.07c-0.01,0.03-0.69,3.39-0.86,4.05l-0.05,0.21c-0.13,0.58-0.2,0.87-0.88,0.83
		c-0.22-0.01-0.37-0.08-0.47-0.21c-0.19-0.25-0.15-0.68-0.12-0.83c0.03-0.15,0.76-3.61,0.9-4.56c0.15-1.03-0.15-1.67-0.15-1.67
		l-0.77-2.15C14.4,5.4,14.37,4.81,14.61,4.4z M8.66,6.58c1.48,0,2.78,0.78,3.52,1.94l-3.02,1.52c-0.15-0.09-0.32-0.16-0.5-0.16
		c-0.54,0-0.98,0.44-0.98,0.98s0.44,0.98,0.98,0.98c0.52,0,0.93-0.41,0.97-0.92l2.98-1.5c0.15,0.43,0.24,0.87,0.24,1.35
		c0,2.31-1.88,4.19-4.19,4.19c-2.31,0-4.19-1.88-4.19-4.19S6.35,6.58,8.66,6.58z M2.23,30.63V12.85c1.48,0.91,4.69,2.91,5.62,3.77
		c1.34,1.24,1.5,1.83,1.5,1.85c0.76,3.21,3.25,3.24,3.79,3.2c0.34,0.07,2.14,0.55,2.36,2.24c0.11,0.87,0.59,1.62,1.39,2.16
		c1.25,0.85,3.23,1.13,4.93,0.7c2.13-0.54,5.08,0.26,5.54,1.51c0.33,0.9,1.02,1.75,1.61,2.34H2.23z"/>
	<path class="st1" d="M26.21,5.52c1.42,0,2.57-1.16,2.57-2.57c0-1.42-1.15-2.57-2.57-2.57c-1.42,0-2.57,1.15-2.57,2.57
		C23.64,4.36,24.8,5.52,26.21,5.52z M26.21,0.92c1.11,0,2.02,0.91,2.02,2.02c0,1.12-0.91,2.02-2.02,2.02
		c-1.12,0-2.02-0.91-2.02-2.02C24.19,1.83,25.1,0.92,26.21,0.92z"/>
</g>
</svg>
