<?xml version="1.0" encoding="utf-8"?>
<!-- Generator: Adobe Illustrator 23.0.2, SVG Export Plug-In . SVG Version: 6.00 Build 0)  -->
<svg version="1.1" id="Layer_1" xmlns="http://www.w3.org/2000/svg" xmlns:xlink="http://www.w3.org/1999/xlink" x="0px" y="0px"
	 width="32px" height="32px" viewBox="0 0 32 32" style="enable-background:new 0 0 32 32;" xml:space="preserve">
<style type="text/css">
	.st0{fill:none;}
	.st1{fill:#962425;}
</style>
<rect class="st0" width="32" height="32"/>
<g>
	<path class="st1" d="M28.1,15.61c1.52-1.29,1.42-2.74,1.42-2.76c0.09-7.02-9.77-8.02-11.1-8.12l-4.26-2.99
		c-0.1-0.06-0.97-0.6-1.64-0.13c-0.62,0.44-0.58,1.24-0.57,1.35l0.33,3.15C1.62,12.5,5.1,21.94,6.07,24.09
		c-1.32,0.43-2.31,1.13-2.91,2.12c-1.13,1.84-0.53,3.93-0.5,4.02c0.06,0.2,0.24,0.35,0.45,0.36c0.01,0,0.02,0,0.03,0
		c0.2,0,0.38-0.12,0.46-0.31c0.04-0.11,1.11-2.59,3.88-2.59c2.79,0,4,2.39,4.05,2.49c0.1,0.21,0.34,0.32,0.56,0.27
		c0.23-0.05,0.39-0.25,0.39-0.49c0-2.27-0.61-3.96-1.8-5.02c-0.76-0.67-1.6-0.96-2.28-1.08c0.01-1.18,0.24-4.68,2.38-7.01
		c1.05-1.15,2.44-1.86,4.12-2.13c-0.31,0.42-0.52,1.13,0.04,1.69c0.25,0.25,0.53,0.34,0.81,0.34c0.45,0,0.89-0.23,1.13-0.43
		l2.36-1.62l0.02,0.01c4.81,1.33,6.4,4.63,6.4,4.63c0.07,0.21,0.48,1.25,1.28,1.41c0.28,0.06,0.72,0.02,1.17-0.47
		c0.94-1.04,0.49-2.19-0.01-2.66C28.01,17.49,27.17,16.4,28.1,15.61 M11.34,28.28c-0.8-0.79-2.06-1.59-3.86-1.59
		c-1.99,0-3.27,1.02-4,1.92c0.02-0.57,0.15-1.25,0.53-1.88c0.6-0.99,1.72-1.64,3.27-1.94c0,0,0.09-0.01,0.23-0.01
		c0.48,0,1.6,0.09,2.51,0.91C10.69,26.29,11.13,27.16,11.34,28.28 M27.37,19.6c-0.12,0.13-0.19,0.17-0.23,0.16
		c-0.14-0.03-0.4-0.4-0.55-0.8c-0.07-0.15-1.63-3.42-6.31-4.98l1.47-1.01c0.23-0.16,0.29-0.47,0.13-0.69
		c-0.16-0.23-0.47-0.29-0.7-0.13l-4.9,3.36c-0.1,0.08-0.5,0.32-0.64,0.19c-0.15-0.15,0.04-0.38,0.09-0.44l2.5-2.99
		c0.18-0.21,0.15-0.53-0.06-0.7c-0.21-0.18-0.53-0.15-0.7,0.06l-1.66,1.98c-2.4,0.13-4.35,0.99-5.78,2.55
		c-2.35,2.57-2.63,6.25-2.64,7.62c-0.14,0-0.24,0.01-0.27,0.02c-0.03,0-0.05,0.02-0.08,0.02C6.26,22.24,2.32,13.05,13.06,6.8
		c0.17-0.1,0.27-0.29,0.25-0.48l-0.36-3.46c0-0.05,0.01-0.34,0.15-0.44c0.05-0.03,0.31,0.03,0.5,0.14l4.36,3.06
		c0.08,0.05,0.17,0.08,0.26,0.09c0.1,0,10.39,0.59,10.3,7.16c0,0.04,0.04,1.03-1.07,1.97c-1.36,1.15-0.67,2.73-0.09,3.44
		C27.52,18.43,27.95,18.97,27.37,19.6"/>
	<path class="st1" d="M25.85,12.29c-0.34,0-0.62,0.28-0.62,0.62c0,0.34,0.28,0.62,0.62,0.62c0.34,0,0.62-0.28,0.62-0.62
		C26.48,12.57,26.2,12.29,25.85,12.29"/>
</g>
</svg>
