<?xml version="1.0" encoding="utf-8"?>
<!-- Generator: Adobe Illustrator 23.0.2, SVG Export Plug-In . SVG Version: 6.00 Build 0)  -->
<svg version="1.1" id="Layer_1" xmlns="http://www.w3.org/2000/svg" xmlns:xlink="http://www.w3.org/1999/xlink" x="0px" y="0px"
	 width="32px" height="32px" viewBox="0 0 32 32" style="enable-background:new 0 0 32 32;" xml:space="preserve">
<style type="text/css">
	.st0{fill:none;}
	.st1{fill:#972726;}
</style>
<g>
	<rect y="0" class="st0" width="32" height="32"/>
</g>
<g>
	<g>
		<path class="st1" d="M13.43,30.65H2.28c-0.4-0.03-1.11-0.3-1.11-1.11v-2.79c0.04-0.38,0.31-1.05,1.05-1.05h8.25
			c0.09,0,0.57-0.05,0.57-0.57v-2.15c0-0.06-0.01-0.19-0.08-0.27c-0.06-0.06-0.15-0.09-0.28-0.09h-6.1
			c-0.05,0.01-0.52,0.06-0.73-0.22c-0.09-0.12-0.15-0.32,0.01-0.64c0.02-0.04,1.86-3.7,3.11-3.7h3.74C10.75,18.04,11,18,11,17.74
			v-1.6c0-0.04-0.01-0.15-0.07-0.21c-0.02-0.02-0.06-0.06-0.2-0.06H6.6c-0.04,0-0.35-0.01-0.52-0.26c-0.12-0.18-0.12-0.41-0.01-0.68
			c0.02-0.04,1.69-3.68,3.16-3.68h1.35c0.03,0,0.53-0.08,0.53-0.53V9.14l0,0c-0.01,0-0.12-0.4-0.39-0.4H9.3
			C9.28,8.76,8.88,8.82,8.68,8.57c-0.09-0.11-0.17-0.3-0.05-0.61c0.22-0.56,2.95-5.59,3.06-5.8c0.02-0.04,0.41-0.66,1.04-0.79
			c0.32-0.07,0.64,0.01,0.94,0.22c0.23,0.11,0.32,0.51,0.32,1.31v27.18c0,0.01,0.02,0.22-0.13,0.39
			C13.79,30.55,13.66,30.65,13.43,30.65z M10.67,22.08c0.36,0,0.56,0.14,0.67,0.26c0.24,0.26,0.22,0.61,0.22,0.65l0,2.13
			c0,0.79-0.66,1.09-1.1,1.1H2.21c-0.46,0-0.52,0.53-0.52,0.55l0,2.76c0,0.52,0.54,0.58,0.61,0.58l11.13,0l0.04-27.21
			c0-0.61-0.06-0.82-0.09-0.87c-0.19-0.13-0.36-0.18-0.54-0.14c-0.4,0.08-0.68,0.53-0.68,0.53c-0.97,1.79-2.86,5.31-3.03,5.73
			C9.1,8.22,9.1,8.25,9.1,8.26c0-0.03,0.09-0.03,0.15-0.04l1.47-0.01c0.57,0,0.84,0.54,0.92,0.86l0.01,1.64
			c0,0.75-0.67,1.02-1.03,1.05l-1.38,0c-0.84,0-2.31,2.49-2.67,3.36c-0.05,0.11-0.04,0.17-0.04,0.18c0.01,0.01,0.06,0.02,0.08,0.02
			h4.13c0.3,0,0.48,0.12,0.58,0.23c0.23,0.23,0.22,0.55,0.22,0.59l0,1.59c0,0.6-0.53,0.81-0.81,0.84l-3.76,0
			c-0.63,0-2.03,2.18-2.64,3.4c-0.04,0.09-0.04,0.12-0.04,0.12c0.02-0.01,0.16,0,0.25-0.02L10.67,22.08z M13.47,2.09
			c0.01,0,0.01,0,0.02,0C13.49,2.09,13.48,2.09,13.47,2.09z"/>
	</g>
	<g>
		<path class="st1" d="M18.57,30.65c-0.23,0-0.37-0.1-0.44-0.18c-0.15-0.17-0.13-0.38-0.13-0.42l0-27.15c0-0.8,0.1-1.2,0.32-1.31
			c0.3-0.21,0.62-0.29,0.94-0.22c0.63,0.12,1.01,0.75,1.03,0.77c0.12,0.23,2.85,5.25,3.07,5.82c0.12,0.32,0.04,0.51-0.05,0.61
			c-0.21,0.25-0.6,0.18-0.68,0.17l-1.36,0.01c-0.28,0-0.4,0.45-0.4,0.45l0.01,1.52c0,0.45,0.5,0.52,0.56,0.53l1.32,0
			c1.46,0,3.14,3.65,3.16,3.68c0.11,0.27,0.11,0.5-0.01,0.68c-0.17,0.25-0.49,0.26-0.52,0.26h-4.13c-0.14,0-0.19,0.05-0.2,0.06
			C21,16,21,16.13,21,16.13l0,1.61c0,0.25,0.26,0.3,0.33,0.31l3.71,0c1.26,0,3.1,3.66,3.11,3.7c0.16,0.32,0.09,0.53,0.01,0.64
			c-0.21,0.29-0.68,0.24-0.77,0.22l-6.06,0c-0.13,0-0.23,0.03-0.28,0.09c-0.09,0.09-0.08,0.25-0.08,0.25l0,2.17
			c0,0.54,0.52,0.57,0.58,0.57h8.24c0.74,0,1.01,0.67,1.05,1.02l0,2.81c0,0.81-0.72,1.08-1.09,1.11L18.57,30.65z M18.63,2.03
			c-0.02,0.06-0.09,0.27-0.09,0.87v27.18l11.19,0.04c0.04,0,0.58-0.07,0.58-0.58v-2.79c0-0.03-0.08-0.52-0.52-0.52h-8.25
			c-0.45-0.01-1.1-0.31-1.1-1.1v-2.15c0-0.02-0.02-0.37,0.22-0.63c0.11-0.12,0.32-0.26,0.67-0.26h6.1c0.12,0.02,0.24,0.01,0.29-0.01
			c-0.01-0.01-0.02-0.04-0.04-0.09c-0.61-1.22-2.01-3.4-2.64-3.4H21.3c-0.31-0.03-0.84-0.23-0.84-0.84v-1.6c0-0.03,0-0.35,0.22-0.58
			c0.1-0.1,0.28-0.23,0.58-0.23h4.13c0.03,0,0.07-0.01,0.08-0.02c0-0.01,0.01-0.07-0.04-0.18c-0.36-0.86-1.83-3.36-2.67-3.36h-1.35
			c-0.38-0.04-1.06-0.31-1.06-1.06V9.14c0.08-0.38,0.36-0.92,0.92-0.92h1.41c0.09,0.01,0.16,0.02,0.2,0.01
			c-0.01-0.01-0.01-0.04-0.03-0.07c-0.17-0.43-2.06-3.94-3.03-5.75l0,0c0,0-0.28-0.44-0.68-0.52C18.99,1.86,18.81,1.9,18.63,2.03z
			 M18.51,2.09L18.51,2.09L18.51,2.09z M18.51,2.09C18.51,2.09,18.51,2.09,18.51,2.09C18.51,2.09,18.51,2.09,18.51,2.09z
			 M18.52,2.09c0,0-0.01,0-0.01,0C18.51,2.09,18.52,2.09,18.52,2.09z M18.52,2.09C18.52,2.09,18.52,2.09,18.52,2.09
			C18.52,2.09,18.52,2.09,18.52,2.09z"/>
	</g>
</g>
</svg>
