<?xml version="1.0" encoding="utf-8"?>
<!-- Generator: Adobe Illustrator 23.0.2, SVG Export Plug-In . SVG Version: 6.00 Build 0)  -->
<svg version="1.1" id="Layer_1" xmlns="http://www.w3.org/2000/svg" xmlns:xlink="http://www.w3.org/1999/xlink" x="0px" y="0px"
	 width="32px" height="32px" viewBox="0 0 32 32" style="enable-background:new 0 0 32 32;" xml:space="preserve">
<style type="text/css">
	.st0{fill:none;}
	.st1{fill:#952524;}
</style>
<rect class="st0" width="32" height="32"/>
<g>
	<path class="st1" d="M30.49,13.98l-1.33-0.29l-2.69-0.56l-0.02-0.03c-0.22-0.32-1.02-1.46-2.01-2.75
		c-1.22-1.57-2.63-1.52-3.04-1.47h-8.3c-2.03,0-2.94,1.05-3.16,1.37l-3.45,3.45H2.68c-0.81,0-1.47,0.25-1.94,0.74
		c-0.77,0.79-0.74,1.93-0.74,1.94v1.97c0,0.75,0.22,1.32,0.66,1.68c0.53,0.44,1.18,0.42,1.44,0.39l1.66,0l0.01,0.07
		c0.27,1.53,1.6,2.64,3.15,2.64c1.46,0,2.73-1,3.09-2.42l0.02-0.06h10.69l0.02,0.06c0.36,1.43,1.63,2.43,3.1,2.43
		c1.49,0,2.77-1.02,3.11-2.47l0.02-0.07h3.08c1.42,0,1.96-1.18,1.97-1.98v-2.71C32,14.81,31.06,14.18,30.49,13.98 M6.92,22.16
		c-1.23,0-2.22-1-2.22-2.22c0-1.22,1-2.22,2.22-2.22c1.22,0,2.22,1,2.22,2.22C9.14,21.16,8.14,22.16,6.92,22.16 M23.83,22.16
		c-1.23,0-2.22-1-2.22-2.22c0-1.22,1-2.22,2.22-2.22c1.22,0,2.22,1,2.22,2.22C26.05,21.16,25.05,22.16,23.83,22.16 M31.02,18.62
		c0,0.17-0.07,1-0.99,1H27l-0.01-0.07c-0.2-1.6-1.56-2.81-3.16-2.81c-1.63,0-2.99,1.23-3.17,2.86l-0.01,0.08H10.09l-0.01-0.08
		c-0.18-1.63-1.54-2.86-3.17-2.86c-1.55,0-2.87,1.11-3.15,2.64l-0.01,0.07l-1.79,0.01c-0.02,0-0.41,0.06-0.68-0.17
		c-0.25-0.21-0.31-0.62-0.31-0.93v-1.98c0-0.08,0.01-0.79,0.47-1.26c0.28-0.29,0.7-0.43,1.23-0.43H6.9l3.77-3.77l0.08-0.1
		c0.02-0.03,0.63-0.96,2.37-0.96h8.33l0.1-0.01c0.11-0.01,1.17-0.14,2.13,1.1c0.98,1.26,1.77,2.4,2.06,2.83l0.11,0.17l3.35,0.69
		l0.97,0.27c0.01,0,0.86,0.31,0.86,1.01V18.62z"/>
</g>
</svg>
