<?xml version="1.0" encoding="utf-8"?>
<!-- Generator: Adobe Illustrator 23.0.2, SVG Export Plug-In . SVG Version: 6.00 Build 0)  -->
<svg version="1.1" id="Layer_1" xmlns="http://www.w3.org/2000/svg" xmlns:xlink="http://www.w3.org/1999/xlink" x="0px" y="0px"
	 width="32px" height="32px" viewBox="0 0 32 32" style="enable-background:new 0 0 32 32;" xml:space="preserve">
<style type="text/css">
	.st0{fill:none;}
	.st1{fill:#972726;}
</style>
<g>
	<rect y="0" class="st0" width="32" height="32"/>
</g>
<g>
	<path class="st1" d="M5.75,7c0,0.18-0.15,0.34-0.34,0.34C5.23,7.34,5.08,7.19,5.08,7c0-0.19,0.15-0.34,0.34-0.34
		C5.6,6.67,5.75,6.82,5.75,7"/>
	<g>
		<path class="st1" d="M15.22,13.56c-0.06,0.07-1.34,1.63-1.7,2.11c-0.18,0.23-0.47,0.47-1.16,0.2c-0.05-0.02-0.08-0.04-0.08-0.05
			c-0.02-0.08,0.11-0.29,0.28-0.45l1.65-1.98c0.09-0.11,0.07-0.26-0.03-0.35c-0.1-0.09-0.26-0.07-0.35,0.03l-1.63,1.96
			c-0.08,0.08-0.49,0.49-0.41,0.89c0.03,0.13,0.11,0.31,0.38,0.42c0.27,0.1,0.51,0.16,0.74,0.16c0.41,0,0.75-0.17,1-0.52
			c0.35-0.47,1.68-2.08,1.69-2.09c0.09-0.11,0.07-0.26-0.03-0.35C15.46,13.43,15.31,13.45,15.22,13.56z"/>
		<path class="st1" d="M31.98,11.17c-0.19-0.85-2.4-1.25-3.13-1.36c-0.03,0-2.71,0.15-4.75-0.21c-2.09-0.37-3.76-0.29-3.84-0.29
			c-0.19,0.02-4.77,0.39-6.23,0.75c-0.57,0.14-1.09,0.07-1.51-0.21c-0.39-0.25-0.67-0.67-0.75-1.13c-0.17-0.97-0.96-2.24-1-2.29
			c-0.6-0.95-1.33-1.5-2.17-1.62C7.47,4.66,6.49,5.33,6.18,5.57C5.9,5.52,5.23,5.44,4.64,5.78C4.24,6,3.96,6.35,3.79,6.83
			C3.14,6.9,0.88,7.25,0.32,8.96c-0.6,1.84-0.3,2.25,0.5,2.64l0.64,0.72c0.05,0.06,0.12,0.09,0.21,0.08
			c0.08-0.01,0.15-0.06,0.19-0.13l0.28-0.5l0.54,0.27c0.06,0.03,0.13,0.03,0.2,0.01c0.06-0.02,0.12-0.07,0.14-0.13l0.17-0.38
			l0.61,0.29c0.06,0.03,0.14,0.03,0.2,0.01c0.06-0.02,0.12-0.08,0.14-0.14l0.24-0.63l0.48,0.13c0.14,0.04,0.27-0.04,0.31-0.17
			l0.18-0.6c0.21-0.01,0.62,0.02,0.73,0.38C6.2,11.23,6.06,11.4,6,11.44l-0.62,0.08c-0.09,0.01-0.16,0.06-0.2,0.14l-0.27,0.58
			l-0.39-0.12c-0.12-0.04-0.23,0.02-0.29,0.12l-0.3,0.52l-0.34-0.13c-0.07-0.03-0.15-0.02-0.22,0.02c-0.07,0.04-0.11,0.1-0.12,0.18
			l-0.07,0.51c-0.11,0.13-0.32,0.41-0.3,0.74c0.01,0.16,0.07,0.39,0.33,0.6c0.54,0.43,1.18,0.11,1.48-0.09l0,0
			c0.01-0.01,1.45-0.92,2.66-0.51c0.2,0.07,0.37,0.17,0.54,0.3c0.12,0.1,0.23,0.21,0.34,0.34l-1.41,1.69
			c-0.08,0.08-0.49,0.49-0.41,0.89c0.03,0.13,0.11,0.31,0.38,0.42c0.27,0.1,0.51,0.16,0.74,0.16c0.41,0,0.75-0.17,1-0.52
			c0.11-0.15,0.31-0.4,0.54-0.69c0.08,0.17,0.18,0.34,0.3,0.53c0.03,0.04,0.06,0.08,0.09,0.13c0.25,0.44,0.98,1.62,2.1,2.74
			c0.25,0.29,0.57,0.58,1,0.88c0.08,0.05,0.16,0.1,0.24,0.15c0.17,0.11,0.34,0.21,0.54,0.31c0.02,0.01,1.31,0.81,1.97,1.69L14.87,25
			c-0.42,0.2-1.53,0.79-1.66,1.42c-0.03,0.13-0.11,0.51,0.12,0.7c0.08,0.07,0.17,0.09,0.25,0.09c0.04,0,0.07,0,0.1-0.01h2.29
			c0.08,0,0.16-0.04,0.2-0.1c0.05-0.07,1.18-1.65,1.23-3.63c0.05-1.89-0.91-2.55-1.11-2.67c-0.1-0.09-0.6-0.6-0.67-1.16
			c0.04-0.02,0.08-0.04,0.12-0.07c0.77-0.53,1.21-0.83,1.47-1.03c0.5,0.55,1.09,1.1,1.78,1.54c2.21,1.41,3.82,2.18,3.84,2.19
			c0.02,0.01,0.53,0.25,0.36,0.83c-0.06,0.2-0.11,0.41-0.16,0.61c-0.13,0.56-0.26,1.08-0.58,1.29l-0.18,0.11
			c-0.43,0.27-0.71,0.45-0.94,0.99c-0.12,0.29-0.23,0.59-0.07,0.83c0.16,0.24,0.48,0.27,0.78,0.27h1.88c0.26,0,0.75-0.16,0.81-0.75
			c0.02-0.23,0.16-1.43,0.97-2.83c0.8-1.39,0.11-2.17,0.05-2.24c-0.02-0.02-0.58-0.45-1.43-0.51c-0.47-0.04-1.08-0.87-1.38-1.42
			c-0.03-0.04-0.66-0.86-1.16-1.41c0.55-0.3,1.7-1.04,2.44-2.25c0.88-1.45,3.04-2.25,3.05-2.25c2.79-0.83,4.11-1.44,4.2-1.48
			C31.87,11.77,32.05,11.48,31.98,11.17z M8.15,17.05c-0.18,0.23-0.47,0.47-1.16,0.2c-0.05-0.02-0.08-0.04-0.08-0.05
			c-0.02-0.08,0.11-0.29,0.28-0.45l1.33-1.6c0.07,0.13,0.14,0.26,0.19,0.41c0,0,0,0.01,0.01,0.01c0.01,0.08,0.05,0.29,0.14,0.56
			C8.58,16.5,8.29,16.86,8.15,17.05z M31.22,11.61c-0.01,0.01-1.35,0.63-4.11,1.44c-0.1,0.04-2.34,0.86-3.32,2.47
			c-0.59,0.96-1.48,1.61-2.04,1.95l-0.62,0.41c-0.02,0.06-0.01,0.11,0,0.17c0,0.01,0,0.02,0,0.02c0.01,0.02,0.02,0.02,0.03,0.04
			c0.01,0.01,0.01,0.03,0.02,0.04c0.49,0.47,1.32,1.57,1.33,1.57c0.09,0.16,0.87,1.57,1.76,1.65c0.67,0.05,1.12,0.38,1.13,0.38
			c0.03,0.04,0.46,0.59-0.14,1.62c-0.86,1.49-1.01,2.79-1.04,3.04c-0.02,0.26-0.23,0.3-0.31,0.3h-1.88c-0.28,0-0.35-0.03-0.36-0.03
			c0-0.03,0-0.11,0.11-0.37c0.17-0.39,0.34-0.5,0.75-0.76l0.18-0.11c0.49-0.32,0.64-0.94,0.8-1.6c0.05-0.19,0.1-0.39,0.15-0.58
			c0.24-0.8-0.31-1.28-0.63-1.43c-0.01-0.01-1.61-0.76-3.79-2.15c-0.69-0.44-1.29-1.02-1.79-1.59l0,0.01c-0.15-0.15-0.41,0-0.41,0
			l-0.16,0.1c-0.21,0.15-0.63,0.43-1.43,0.99c-0.14,0.1-0.3,0.16-0.45,0.22l0.14,0.49c0.17,0.73,0.82,1.3,0.89,1.36
			c0.04,0.02,0.91,0.5,0.87,2.23c-0.04,1.55-0.83,2.88-1.06,3.25h-2.17c0-0.04,0.01-0.09,0.02-0.18c0.07-0.33,0.91-0.85,1.49-1.12
			c0.07-0.03,0.12-0.09,0.14-0.17l0.53-2.14c0.02-0.07,0-0.14-0.04-0.2c-0.69-1-2.12-1.89-2.2-1.93c-0.29-0.15-0.53-0.3-0.75-0.45
			c-0.33-0.26-0.65-0.54-0.93-0.82c-0.05-0.05-0.1-0.09-0.14-0.14l-0.82-0.95c-0.52-0.66-0.87-1.24-1.04-1.52
			c-0.04-0.06-0.09-0.11-0.13-0.17c0,0,0,0,0,0c-0.27-0.41-0.42-0.78-0.49-1.05c-0.06-0.21-0.08-0.35-0.08-0.37l-0.01-0.06
			c-0.36-0.96-0.93-1.58-1.69-1.83c-0.12-0.04-0.25-0.06-0.37-0.08l-0.14-0.07l-0.07,0.03c-1.25-0.11-2.45,0.65-2.51,0.68
			c0,0,0.01,0,0.01-0.01l0,0c-0.19,0.13-0.61,0.35-0.91,0.12c-0.14-0.11-0.14-0.2-0.14-0.23c-0.01-0.17,0.15-0.37,0.21-0.42
			c0.04-0.04,0.07-0.09,0.07-0.14l0.04-0.27l0.24,0.1c0.11,0.05,0.25,0,0.31-0.11l0.31-0.54l0.41,0.12c0.12,0.04,0.25-0.02,0.3-0.14
			L5.59,12l0.53-0.07c0.03,0,0.05-0.01,0.08-0.02c0.22-0.11,0.59-0.5,0.36-1.24C6.32,9.94,5.5,9.89,5.11,9.97
			c-0.09,0.02-0.17,0.08-0.19,0.17l-0.16,0.52L4.3,10.53C4.17,10.5,4.04,10.56,4,10.68l-0.23,0.58l-0.59-0.29
			c-0.06-0.03-0.13-0.03-0.19-0.01c-0.06,0.02-0.12,0.07-0.14,0.13l-0.17,0.38l-0.52-0.26c-0.12-0.06-0.26-0.01-0.33,0.1l-0.22,0.4
			l-0.44-0.49c-0.02-0.02-0.05-0.04-0.08-0.06C0.51,10.9,0.25,10.78,0.8,9.12c0.54-1.64,3.17-1.8,3.2-1.8c0.11,0,0.2-0.08,0.23-0.18
			c0.4-1.46,1.89-1.07,1.95-1.05c0.08,0.02,0.17,0,0.23-0.05c0.01-0.01,1-0.88,2.13-0.72c0.69,0.1,1.3,0.57,1.82,1.39
			c0.01,0.01,0.78,1.24,0.93,2.11c0.1,0.58,0.46,1.13,0.97,1.46c0.38,0.25,1.01,0.49,1.9,0.27c1.42-0.35,6.11-0.73,6.15-0.74
			c0.02,0,1.68-0.07,3.72,0.29c2.09,0.37,4.75,0.22,4.81,0.21c1.22,0.19,2.58,0.62,2.66,0.97C31.51,11.36,31.39,11.49,31.22,11.61z"
			/>
	</g>
</g>
</svg>
