<?xml version="1.0" encoding="utf-8"?>
<!-- Generator: Adobe Illustrator 23.0.2, SVG Export Plug-In . SVG Version: 6.00 Build 0)  -->
<svg version="1.1" id="Layer_1" xmlns="http://www.w3.org/2000/svg" xmlns:xlink="http://www.w3.org/1999/xlink" x="0px" y="0px"
	 width="32px" height="32px" viewBox="0 0 32 32" style="enable-background:new 0 0 32 32;" xml:space="preserve">
<style type="text/css">
	.st0{fill:none;}
	.st1{fill:#952524;}
</style>
<rect class="st0" width="32" height="32"/>
<g>
	<g>
		<path class="st1" d="M27.72,20.68l-0.02-0.04l0.02-0.04c0.34-0.66,0.95-2.5-0.74-5.31c-1.71-2.83-4.63-2.81-5.81-2.68l-0.07,0.01
			l-0.02-0.06c-0.56-1.54-1.32-2.8-2.25-3.74c-1.93-1.93-3.32-4.99-3.47-5.33c-0.1-0.23-0.36-0.35-0.6-0.28
			c-0.56,0.17-1.11,0.46-1.66,0.87L13.06,4.1l-0.05-0.02c-1.15-0.58-2.89-2.53-3.47-3.24C9.38,0.64,9.09,0.6,8.88,0.75
			c-4.46,3.2-2.96,11.74-2.14,15.19l0.17,0.67l0.16,0.59c0,0-0.58,0.14-1.1,0.67l0,0.02l-0.02-0.01c-0.2,0.21-0.4,0.47-0.55,0.82
			l-0.02,0.06c-0.1,0.28-0.15,0.54-0.15,0.8c0,1.35,1.1,2.45,2.45,2.45c0.24,0,0.5-0.04,0.77-0.14l0.1-0.03l0.01,0.11
			c0.13,1.31,1.12,2.91,2.66,4.28c1.06,0.94,2.24,1.64,3.3,1.96l0.03,0.01l0.02,0.03c0.35,0.56,0.79,1.07,1.3,1.53
			c1.14,1.01,2.39,1.59,3.45,1.59c0.6,0,1.1-0.2,1.43-0.57c0.38-0.43,0.5-1.04,0.34-1.77l-0.01-0.06l0.06-0.03
			c0.38-0.19,1.3-0.49,3.2-0.36c0.12,0.01,0.23,0.01,0.35,0.01c2.57,0,3.72-2.15,3.97-3.34C28.68,25.13,29.08,23.07,27.72,20.68z
			 M21.5,13.55c1.16-0.1,3.31,0.06,4.63,2.24h0c1.04,1.73,1.09,2.96,0.94,3.69l-0.04,0.18l-0.18-0.23c-0.05-0.06-0.1-0.13-0.16-0.19
			c-1.77-2.03-3.75-1.6-4.78-1.17l-0.13,0.06l0.01-0.14c0.04-0.5,0.05-0.95,0.04-1.37l0-0.25c0-0.75-0.15-1.73-0.42-2.72l-0.03-0.1
			L21.5,13.55z M14.58,4.32l0.08-0.03l0.03,0.07c0.47,0.98,1.75,3.45,3.45,5.15c1.15,1.15,1.81,2.69,2.16,3.77l0,0.01
			c0.42,1.3,0.57,2.47,0.57,3.08l0,0.26c0.02,1.62,0.05,4.98-4.73,6.48l-0.05,0.02l-0.04-0.04c-0.35-0.41-0.7-0.77-1.05-1.09
			c-1.06-0.94-2.23-1.64-3.31-1.96c-0.52-0.16-1.01-0.21-1.47-0.17l-0.1,0.01l0.01-0.1c0-0.03,0.01-0.06,0.01-0.08
			c0.01-0.04,0.01-0.08,0.01-0.13c0-0.2-0.03-0.4-0.1-0.64l0-0.01l0-0.02c0.05-0.6,0.29-3.7,0.1-6.2
			C9.98,10.52,11.53,5.68,14.58,4.32z M7.7,21.04c-0.81,0-1.47-0.66-1.47-1.47c0-0.26,0.07-0.52,0.21-0.76
			c0.28-0.45,0.75-0.72,1.26-0.72c0.81,0,1.47,0.66,1.47,1.47C9.17,20.38,8.51,21.04,7.7,21.04z M9.16,17.45L9.16,17.6l-0.12-0.08
			c-0.27-0.18-0.58-0.3-0.91-0.36l-0.05-0.01L8.06,17.1C7.52,15.19,5.02,5.5,9.03,1.89l0.06-0.06L9.15,1.9
			c0.51,0.6,1.84,2.07,3.03,2.83l0.09,0.06L12.2,4.86C10.09,7.03,9,10.59,9.17,12.78C9.29,14.34,9.23,16.18,9.16,17.45z M15.75,27.4
			c-0.15,0-0.32-0.02-0.5-0.05c-0.41-0.08-0.9-0.25-1.41-0.51c-0.67-0.34-1.33-0.79-1.96-1.35c-2.19-1.95-2.68-3.84-2.18-4.41
			c0.27-0.31,0.91-0.35,1.7-0.11c0.94,0.28,1.98,0.91,2.94,1.76c0.55,0.49,1.04,1.03,1.44,1.6c0.31,0.44,0.55,0.87,0.7,1.27
			c0.27,0.7,0.28,1.26,0.04,1.54C16.37,27.32,16.11,27.4,15.75,27.4z M20.04,30.11c-0.14,0.16-0.39,0.24-0.7,0.24
			c-0.71,0-1.77-0.43-2.8-1.34c-0.18-0.16-0.34-0.32-0.52-0.52l-0.11-0.12l0.16-0.02c0.5-0.06,0.9-0.25,1.18-0.57
			c0.32-0.37,0.46-0.88,0.4-1.51l-0.02-0.18l0.15,0.1c0.3,0.2,0.54,0.38,0.75,0.57c0.75,0.67,1.32,1.47,1.55,2.2l0.01,0.02
			C20.26,29.49,20.24,29.89,20.04,30.11z M27.71,25.02L27.71,25.02c-0.02,0.11-0.63,2.75-3.28,2.55c-1.54-0.11-2.76,0.03-3.59,0.4
			l-0.07,0.03l-0.04-0.07c-0.35-0.66-0.88-1.32-1.53-1.89c-0.62-0.55-1.3-0.98-1.97-1.26l-0.03-0.01l-0.01-0.03
			c-0.11-0.23-0.25-0.46-0.4-0.69l-0.06-0.09l0.1-0.04c2.52-0.88,4.11-2.39,4.72-4.48l0.01-0.03l0.02-0.02
			c0.57-0.41,2.58-1.59,4.39,0.49C28.19,22.44,27.73,24.91,27.71,25.02z"/>
	</g>
	<g>
		<path class="st1" d="M6.67,18.11c-0.13,0-0.25-0.1-0.26-0.24c-0.01-0.09-0.22-2.23-2.89-2.3c-0.14,0-0.26-0.12-0.25-0.27
			c0-0.14,0.12-0.23,0.27-0.25c3.15,0.09,3.39,2.75,3.4,2.78c0.01,0.14-0.09,0.27-0.24,0.28C6.68,18.11,6.68,18.11,6.67,18.11z"/>
	</g>
	<g>
		<path class="st1" d="M6.03,19.04c-0.09,0-0.18-0.05-0.23-0.14l0,0c-0.02-0.04-0.66-1.09-2.27-1.05c0,0-0.01,0-0.01,0
			c-0.14,0-0.25-0.11-0.26-0.25c0-0.14,0.11-0.26,0.25-0.27c1.97-0.07,2.71,1.26,2.74,1.32c0.07,0.13,0.02,0.28-0.11,0.35
			C6.12,19.03,6.07,19.04,6.03,19.04z"/>
	</g>
</g>
</svg>
