<?xml version="1.0" encoding="utf-8"?>
<!-- Generator: Adobe Illustrator 23.0.2, SVG Export Plug-In . SVG Version: 6.00 Build 0)  -->
<svg version="1.1" id="Layer_1" xmlns="http://www.w3.org/2000/svg" xmlns:xlink="http://www.w3.org/1999/xlink" x="0px" y="0px"
	 width="32px" height="32px" viewBox="0 0 32 32" style="enable-background:new 0 0 32 32;" xml:space="preserve">
<style type="text/css">
	.st0{fill:none;}
	.st1{fill:#952524;}
</style>
<rect class="st0" width="32" height="32"/>
<g>
	<path class="st1" d="M16,0.07C9.48,0.07,4.17,5.37,4.17,11.9c0,1.94,0.48,3.77,1.31,5.39L5.47,17.3l0.05,0.07
		c0.3,0.58,0.66,1.13,1.05,1.65l7.63,11.93c0.39,0.62,1.06,0.99,1.79,0.99c0.73,0,1.4-0.37,1.79-0.98l7.62-11.92l1.07-1.68
		c0.01-0.02,0.02-0.04,0.03-0.07c0.83-1.62,1.31-3.45,1.31-5.39C27.83,5.37,22.52,0.07,16,0.07 M25.61,16.86
		c-0.3,0.57-0.64,1.11-1.03,1.61l-2.12,3.32l-5.51,8.62c-0.21,0.33-0.56,0.52-0.95,0.52c-0.39,0-0.74-0.19-0.95-0.52l-5.51-8.62
		l-2.13-3.33l-1.02-1.59c-0.78-1.49-1.22-3.18-1.22-4.98C5.17,5.92,10.03,1.07,16,1.07c5.97,0,10.83,4.86,10.83,10.83
		C26.83,13.69,26.38,15.37,25.61,16.86"/>
	<path class="st1" d="M12.7,5.69c-1.27,0-2.31,1.42-2.31,3.18c0,1.58,0.86,2.92,2.01,3.13l0.04,0.01v8.4h0.52v-8.4L13,12
		c1.14-0.21,2.01-1.56,2.01-3.13C15.01,7.12,13.97,5.69,12.7,5.69 M12.7,11.52c-0.99,0-1.79-1.19-1.79-2.65
		c0-1.46,0.8-2.66,1.79-2.66c0.99,0,1.79,1.19,1.79,2.66C14.48,10.33,13.68,11.52,12.7,11.52"/>
	<path class="st1" d="M20.76,9.65L20.76,9.65l0-3.95h-0.52l0,3.98c0,0.06,0.02,0.58-0.3,0.94c-0.22,0.25-0.57,0.37-1.02,0.37
		c-0.45,0-0.8-0.12-1.02-0.37c-0.32-0.35-0.31-0.87-0.3-0.97V5.69h-0.52l0,3.92c0,0.01-0.08,0.79,0.43,1.35
		c0.26,0.29,0.63,0.46,1.1,0.51l0.05,0.01v8.93h0.52V11.5l0.05-0.01c0.46-0.05,0.83-0.23,1.1-0.52
		C20.82,10.42,20.76,9.66,20.76,9.65L20.76,9.65z"/>
	<rect x="18.65" y="5.7" class="st1" width="0.52" height="3.85"/>
</g>
</svg>
