<?xml version="1.0" encoding="utf-8"?>
<!-- Generator: Adobe Illustrator 23.0.2, SVG Export Plug-In . SVG Version: 6.00 Build 0)  -->
<svg version="1.1" id="Layer_1" xmlns="http://www.w3.org/2000/svg" xmlns:xlink="http://www.w3.org/1999/xlink" x="0px" y="0px"
	 width="32px" height="32px" viewBox="0 0 32 32" style="enable-background:new 0 0 32 32;" xml:space="preserve">
<style type="text/css">
	.st0{fill:none;}
	.st1{fill:#952524;}
</style>
<g>
	<rect y="0" class="st0" width="32" height="32"/>
</g>
<path class="st1" d="M29.55,17.42l-10.56-6.34l0-5.02l0-0.05c-0.46-3.84-1.94-5.05-2.55-5.39L16.4,0.6c-0.25-0.12-0.56-0.11-0.81,0
	l-0.02,0.01c-0.61,0.34-2.09,1.55-2.55,5.41l0,5.05L2.45,17.42C1.52,17.97,0.94,19,0.94,20.08v2.38l12.15-4.21v1.41
	c-0.01,0.25,0.02,1.51,0.92,7.09l0,0l0,0l-2.66,2.06l0,2.67h9.3v-2.67l-2.66-2.06l0,0c0.9-5.56,0.93-6.83,0.92-7.08v-1.42l0.01,0
	l12.14,4.21v-2.38C31.06,19,30.48,17.97,29.55,17.42z M30.07,21.08L30.07,21.08l-12.15-4.21l0,2.85c0,0.04,0.04,1.03-0.96,7.17
	l-0.05,0.29l2.74,2.13l0,1.21h-7.33v-1.2l2.74-2.13l-0.05-0.29c-0.96-5.9-0.96-7.05-0.96-7.16l0-2.85L1.93,21.08v-1
	c0-0.74,0.4-1.44,1.03-1.82L14,11.63l0-5.35c0-0.13,0.01-0.25,0.02-0.37c0.36-2.64,1.21-3.75,1.69-4.19l0.01,0
	c0.01-0.01,0.05-0.04,0.1-0.07c0.1-0.06,0.25-0.11,0.4-0.01c0.04,0.02,0.06,0.04,0.09,0.08c0.48,0.43,1.33,1.55,1.69,4.19
	C17.99,6.03,18,6.15,18,6.28v5.35l11.03,6.62c0.64,0.38,1.04,1.08,1.04,1.82V21.08z"/>
</svg>
