<?xml version="1.0" encoding="utf-8"?>
<!-- Generator: Adobe Illustrator 23.0.2, SVG Export Plug-In . SVG Version: 6.00 Build 0)  -->
<svg version="1.1" id="Layer_1" xmlns="http://www.w3.org/2000/svg" xmlns:xlink="http://www.w3.org/1999/xlink" x="0px" y="0px"
	 width="32px" height="32px" viewBox="0 0 32 32" style="enable-background:new 0 0 32 32;" xml:space="preserve">
<style type="text/css">
	.st0{fill:none;}
	.st1{fill:#952524;}
</style>
<g>
	<rect y="0" class="st0" width="32" height="32"/>
</g>
<g>
	<path class="st1" d="M29.78,18.86l-1.87-0.35l-2.01-2.76l-0.03-0.03c-0.76-0.86-1.86-1.35-3.01-1.35h-7.92
		c-1.28,0-2.49,0.48-3.42,1.36l-3.67,3.46H4.73c-1.94,0-3.51,1.51-3.59,3.45l-0.02,0.52c-0.03,0.72,0.23,1.41,0.73,1.94
		c0.5,0.52,1.18,0.81,1.9,0.81h1.11c0.24,1.61,1.64,2.83,3.28,2.83c1.64,0,3.04-1.21,3.28-2.83h10.76c0.24,1.61,1.64,2.83,3.28,2.83
		c1.63,0,3.04-1.21,3.28-2.83h0.46c1.52,0,2.75-1.23,2.75-2.75v-1.62C31.95,20.27,31.09,19.22,29.78,18.86z M23.16,25.04
		L23.16,25.04c0.18-1.14,1.15-1.97,2.31-1.97s2.13,0.83,2.31,1.97c0.02,0.13,0.03,0.25,0.03,0.37c0,0.12-0.01,0.24-0.03,0.37
		c-0.18,1.14-1.15,1.97-2.31,1.97s-2.13-0.83-2.31-1.97c-0.02-0.13-0.03-0.25-0.03-0.37C23.12,25.3,23.13,25.18,23.16,25.04z
		 M5.84,25.04c0.18-1.14,1.15-1.97,2.31-1.97c1.16,0,2.13,0.83,2.31,1.97c0.02,0.13,0.03,0.25,0.03,0.37c0,0.12-0.01,0.24-0.03,0.37
		c-0.18,1.14-1.15,1.97-2.31,1.97c-1.15,0-2.13-0.83-2.31-1.97c-0.02-0.14-0.03-0.26-0.03-0.37C5.81,25.3,5.82,25.18,5.84,25.04z
		 M14.95,15.35h7.92c0.86,0,1.69,0.37,2.26,1l2.2,3.02l0.02,0.03l2.18,0.41c0.89,0.25,1.44,0.91,1.44,1.72v1.62
		c0,0.98-0.8,1.77-1.77,1.77h-0.46c-0.24-1.61-1.64-2.83-3.28-2.83c-1.63,0-3.04,1.21-3.28,2.83H11.42
		c-0.24-1.61-1.64-2.83-3.28-2.83c-1.63,0-3.04,1.21-3.28,2.83H3.76c-0.46,0-0.88-0.18-1.2-0.51c-0.32-0.33-0.48-0.76-0.46-1.22
		l0.02-0.52c0.06-1.41,1.21-2.51,2.62-2.51h3.51l3.95-3.72C12.94,15.74,13.92,15.35,14.95,15.35z"/>
	<polygon class="st0" points="7.38,6.48 7.41,6.46 7.41,6.46 7.38,6.35 	"/>
	<path class="st1" d="M0.05,16.27c0,0.28,0.23,0.51,0.51,0.51h5.67l0.52-0.51H0.55l0.02-0.25c0.13-1.74,1.6-3.11,3.35-3.11H6.1
		c1.06,0,2.07,0.51,2.7,1.37l0.36-0.35c-0.74-0.97-1.85-1.52-3.06-1.52H3.91C1.78,12.41,0.05,14.14,0.05,16.27z"/>
	<path class="st1" d="M7.75,7.14l0.14-0.1c0.21-0.16,0.34-0.42,0.34-0.68c0-1.7-1.38-3.08-3.08-3.08H4.52
		c-1.7,0-3.08,1.38-3.08,3.08c0,0.22,0.08,0.41,0.22,0.57l0.1,0.11L1.7,7.17C1.53,7.58,1.44,8.01,1.44,8.45
		c0,1.82,1.48,3.3,3.29,3.3c1.82,0,3.3-1.48,3.3-3.3c0-0.39-0.07-0.78-0.21-1.15L7.75,7.14z M4.73,11.25
		c-1.54,0-2.79-1.25-2.79-2.79c0-0.38,0.08-0.75,0.23-1.11l0.06-0.14h5.01l0.06,0.14C7.45,7.7,7.53,8.07,7.53,8.45
		C7.53,9.99,6.27,11.25,4.73,11.25z M7.49,6.68c0,0-0.03,0.02-0.11,0.02H2.29c-0.1,0-0.19-0.04-0.26-0.12
		c-0.06-0.06-0.1-0.15-0.1-0.24c0-0.05,0-0.1,0.01-0.17c0-0.05,0.01-0.11,0.01-0.16L1.95,6.02l0.02-0.11
		c0.04-0.19,0.11-0.42,0.11-0.42c0.38-1.04,1.33-1.71,2.43-1.71h0.63c1.1,0,2.06,0.68,2.44,1.74c0.04,0.05,0.07,0.19,0.1,0.4
		l0.02,0.15c0.01,0.06,0.01,0.11,0.01,0.15c0.01,0.05,0.01,0.1,0.01,0.15C7.73,6.5,7.64,6.63,7.49,6.68z"/>
</g>
</svg>
