<?xml version="1.0" encoding="utf-8"?>
<!-- Generator: Adobe Illustrator 23.0.2, SVG Export Plug-In . SVG Version: 6.00 Build 0)  -->
<svg version="1.1" id="Layer_1" xmlns="http://www.w3.org/2000/svg" xmlns:xlink="http://www.w3.org/1999/xlink" x="0px" y="0px"
	 width="32px" height="32px" viewBox="0 0 32 32" style="enable-background:new 0 0 32 32;" xml:space="preserve">
<style type="text/css">
	.st0{fill:none;}
	.st1{fill:#952625;}
</style>
<rect y="0" class="st0" width="32" height="32"/>
<g>
	<path class="st1" d="M13.82,6.26c0.52,0,0.8-0.28,1-0.48c0.2-0.2,0.33-0.32,0.61-0.32c0.27,0,0.4,0.12,0.61,0.32
		c0.2,0.2,0.48,0.48,1,0.48c0.14,0,0.26-0.12,0.26-0.26s-0.12-0.26-0.26-0.26c-0.29,0-0.42-0.12-0.63-0.33
		c-0.18-0.18-0.4-0.37-0.74-0.44l-0.05-0.01c-0.05-0.01-0.11-0.02-0.17-0.02l-0.02,0l-0.01,0c-0.49,0-0.76,0.28-0.96,0.48
		c-0.2,0.2-0.34,0.33-0.63,0.33c-0.28,0-0.42-0.12-0.63-0.33c-0.2-0.2-0.47-0.48-0.98-0.48l-0.02,0c-0.49,0-0.76,0.28-0.96,0.48
		c-0.11,0.11-0.19,0.19-0.28,0.24c-0.02,0.01-0.03,0.01-0.04,0.01c-0.1,0.05-0.19,0.07-0.3,0.07c-0.28,0-0.42-0.12-0.63-0.33
		c-0.2-0.2-0.47-0.47-0.97-0.48H8.99c-0.5,0-0.77,0.28-0.97,0.48c-0.2,0.2-0.34,0.33-0.63,0.33c-0.29,0-0.42-0.13-0.63-0.33
		C6.57,5.21,6.3,4.94,5.8,4.93H5.78c-0.5,0-0.77,0.28-0.97,0.48C4.6,5.62,4.47,5.74,4.18,5.74c-0.29,0-0.42-0.12-0.63-0.33
		c-0.2-0.2-0.47-0.48-0.98-0.48S1.8,5.21,1.6,5.41C1.39,5.62,1.26,5.74,0.97,5.74C0.83,5.74,0.71,5.86,0.71,6s0.12,0.26,0.26,0.26
		c0.52,0,0.79-0.28,1-0.48C2.17,5.57,2.3,5.45,2.58,5.45c0.27,0,0.4,0.12,0.61,0.32C3.2,5.79,3.21,5.8,3.22,5.81l0.04,0.04
		c0.02,0.02,0.05,0.04,0.07,0.07l0.03,0.03c0.05,0.04,0.11,0.09,0.18,0.13L3.58,6.1c0.06,0.04,0.14,0.07,0.23,0.1
		c0.01,0,0.02,0.01,0.02,0.01c0.12,0.04,0.23,0.05,0.35,0.05c0.52,0,0.8-0.28,1-0.48c0.2-0.2,0.33-0.32,0.61-0.32
		c0.27,0,0.4,0.12,0.61,0.32c0.2,0.2,0.48,0.48,1,0.48c0.52,0,0.8-0.28,1-0.48C8.6,5.57,8.73,5.46,9,5.45c0.27,0,0.4,0.12,0.61,0.32
		c0.2,0.2,0.48,0.48,1,0.48c0.52,0,0.8-0.28,1-0.48c0.21-0.21,0.33-0.32,0.61-0.32c0.27,0,0.4,0.12,0.61,0.32
		C13.03,5.98,13.31,6.26,13.82,6.26z"/>
	<path class="st1" d="M10.6,10.39c-0.29,0-0.42-0.12-0.63-0.33C9.8,9.88,9.58,9.68,9.23,9.62L9.18,9.61
		C9.13,9.59,9.08,9.58,9.02,9.58l-0.02,0l-0.01,0c-0.49,0-0.76,0.28-0.96,0.48c-0.2,0.2-0.34,0.33-0.62,0.33
		c-0.28,0-0.42-0.13-0.63-0.33C6.62,9.91,6.43,9.72,6.13,9.63c-0.02,0-0.04,0-0.05-0.01C5.99,9.6,5.9,9.58,5.8,9.58H5.79l-0.02,0
		c-0.02,0-0.04,0.01-0.06,0.01C5.59,9.6,5.49,9.62,5.39,9.65C5.36,9.67,5.32,9.68,5.29,9.7C5.21,9.74,5.13,9.78,5.07,9.83
		c-0.01,0-0.01,0.01-0.02,0.01v0c-0.09,0.07-0.17,0.15-0.24,0.22c-0.21,0.21-0.34,0.33-0.63,0.33c-0.29,0-0.42-0.12-0.63-0.33
		c-0.2-0.2-0.47-0.48-0.98-0.48S1.8,9.86,1.6,10.06c-0.21,0.21-0.34,0.33-0.63,0.33c-0.14,0-0.26,0.12-0.26,0.26
		s0.12,0.26,0.26,0.26c0.52,0,0.79-0.28,1-0.48c0.21-0.21,0.33-0.32,0.61-0.32c0.27,0,0.4,0.12,0.61,0.32
		c0.01,0.01,0.02,0.02,0.03,0.03l0.04,0.04c0.02,0.02,0.05,0.04,0.07,0.07l0.03,0.03c0.05,0.04,0.11,0.09,0.18,0.13l0.04,0.03
		c0.06,0.04,0.14,0.07,0.23,0.1c0.01,0,0.02,0.01,0.02,0.01c0.12,0.04,0.23,0.05,0.35,0.05c0.52,0,0.8-0.28,1-0.48
		c0.2-0.2,0.33-0.32,0.6-0.32c0.27,0,0.4,0.12,0.6,0.32c0.2,0.2,0.48,0.48,1,0.48c0,0,0,0,0,0s0,0,0,0c0.52,0,0.8-0.28,1-0.48
		c0,0,0.01-0.01,0.01-0.01v0C8.6,10.22,8.74,10.11,9,10.11c0.27,0,0.4,0.12,0.61,0.32c0.2,0.2,0.48,0.48,1,0.48
		c0.14,0,0.26-0.12,0.26-0.26S10.75,10.39,10.6,10.39z"/>
	<path class="st1" d="M10.6,14.31c-0.29,0-0.42-0.12-0.63-0.33c-0.18-0.18-0.4-0.37-0.74-0.44l-0.05-0.01
		c-0.05-0.01-0.11-0.02-0.17-0.02l-0.02,0l-0.01,0c-0.49,0-0.76,0.28-0.96,0.48c-0.2,0.2-0.34,0.33-0.62,0.33
		c-0.28,0-0.42-0.13-0.63-0.33c-0.15-0.15-0.34-0.34-0.64-0.43c-0.02,0-0.04,0-0.05-0.01C5.99,13.52,5.9,13.5,5.8,13.5H5.79l-0.02,0
		c-0.02,0-0.04,0.01-0.06,0.01c-0.12,0.01-0.22,0.03-0.32,0.06c-0.04,0.01-0.07,0.03-0.1,0.05c-0.08,0.04-0.16,0.08-0.22,0.13
		c-0.01,0-0.01,0.01-0.02,0.01v0c-0.09,0.07-0.17,0.15-0.24,0.22c-0.21,0.21-0.34,0.33-0.63,0.33c-0.29,0-0.42-0.12-0.63-0.33
		c-0.2-0.2-0.47-0.48-0.98-0.48S1.8,13.78,1.6,13.98c-0.21,0.21-0.34,0.33-0.63,0.33c-0.14,0-0.26,0.12-0.26,0.26
		s0.12,0.26,0.26,0.26c0.52,0,0.79-0.28,1-0.48c0.21-0.21,0.33-0.32,0.61-0.32c0.27,0,0.4,0.12,0.61,0.32
		c0.01,0.01,0.02,0.02,0.03,0.03l0.04,0.04c0.02,0.02,0.05,0.04,0.07,0.07l0.03,0.03c0.05,0.04,0.11,0.09,0.18,0.13l0.04,0.03
		c0.06,0.04,0.14,0.07,0.23,0.1c0.01,0,0.02,0.01,0.02,0.01c0.12,0.04,0.23,0.05,0.35,0.05c0.52,0,0.8-0.28,1-0.48
		c0.2-0.2,0.33-0.32,0.6-0.32c0.27,0,0.4,0.12,0.6,0.32c0.2,0.2,0.48,0.48,1,0.48c0,0,0,0,0,0s0,0,0,0c0.52,0,0.8-0.28,1-0.48
		c0,0,0.01-0.01,0.01-0.01v0C8.6,14.14,8.74,14.02,9,14.02c0.27,0,0.4,0.12,0.61,0.32c0.2,0.2,0.48,0.48,1,0.48
		c0.14,0,0.26-0.12,0.26-0.26S10.75,14.31,10.6,14.31z"/>
	<path class="st1" d="M10.6,18.22c-0.29,0-0.42-0.12-0.63-0.33c-0.18-0.18-0.4-0.37-0.74-0.44l-0.05-0.01
		c-0.05-0.01-0.11-0.02-0.17-0.02l-0.02,0l-0.01,0c-0.49,0-0.76,0.28-0.96,0.48c-0.2,0.2-0.34,0.33-0.62,0.33
		c-0.28,0-0.42-0.13-0.63-0.33c-0.15-0.15-0.34-0.34-0.64-0.43c-0.02,0-0.04,0-0.05-0.01c-0.08-0.02-0.17-0.04-0.27-0.04H5.79
		l-0.02,0c-0.02,0-0.04,0.01-0.06,0.01c-0.12,0.01-0.22,0.03-0.32,0.06c-0.04,0.01-0.07,0.03-0.1,0.05
		c-0.08,0.04-0.16,0.08-0.22,0.13c-0.01,0-0.01,0.01-0.02,0.01v0c-0.09,0.07-0.17,0.15-0.24,0.22c-0.21,0.21-0.34,0.33-0.63,0.33
		c-0.29,0-0.42-0.12-0.63-0.33c-0.2-0.2-0.47-0.48-0.98-0.48S1.8,17.69,1.6,17.89c-0.21,0.21-0.34,0.33-0.63,0.33
		c-0.14,0-0.26,0.12-0.26,0.26s0.12,0.26,0.26,0.26c0.52,0,0.79-0.28,1-0.48c0.21-0.21,0.33-0.32,0.61-0.32
		c0.27,0,0.4,0.12,0.61,0.32c0.01,0.01,0.02,0.02,0.03,0.03l0.04,0.04c0.02,0.02,0.05,0.04,0.07,0.07l0.03,0.03
		c0.05,0.04,0.11,0.09,0.18,0.13l0.04,0.03c0.06,0.04,0.14,0.07,0.23,0.1c0.01,0,0.02,0.01,0.02,0.01c0.12,0.04,0.23,0.05,0.35,0.05
		c0.52,0,0.8-0.28,1-0.48c0.2-0.2,0.33-0.32,0.6-0.32c0.27,0,0.4,0.12,0.6,0.32c0.2,0.2,0.48,0.48,1,0.48c0,0,0,0,0,0s0,0,0,0
		c0.52,0,0.8-0.28,1-0.48c0,0,0.01-0.01,0.01-0.01v0C8.6,18.05,8.74,17.94,9,17.94c0.27,0,0.4,0.12,0.61,0.32
		c0.2,0.2,0.48,0.48,1,0.48c0.14,0,0.26-0.12,0.26-0.26S10.75,18.22,10.6,18.22z"/>
	<path class="st1" d="M10.6,22.14c-0.29,0-0.42-0.12-0.63-0.33c-0.18-0.18-0.4-0.37-0.74-0.44l-0.05-0.01
		c-0.05-0.01-0.11-0.02-0.17-0.02l-0.02,0l-0.01,0c-0.49,0-0.76,0.28-0.96,0.48c-0.2,0.2-0.34,0.33-0.62,0.33
		c-0.28,0-0.42-0.13-0.63-0.33c-0.15-0.15-0.34-0.34-0.64-0.43c-0.02,0-0.04,0-0.05-0.01c-0.08-0.02-0.17-0.04-0.27-0.04H5.79
		l-0.02,0c-0.02,0-0.04,0.01-0.06,0.01c-0.12,0.01-0.22,0.03-0.32,0.06c-0.04,0.01-0.07,0.03-0.1,0.05
		c-0.08,0.04-0.16,0.08-0.22,0.13c-0.01,0-0.01,0.01-0.02,0.01v0c-0.09,0.07-0.17,0.15-0.24,0.22c-0.21,0.21-0.34,0.33-0.63,0.33
		c-0.29,0-0.42-0.12-0.63-0.33c-0.2-0.2-0.47-0.48-0.98-0.48S1.8,21.61,1.6,21.81c-0.21,0.21-0.34,0.33-0.63,0.33
		c-0.14,0-0.26,0.12-0.26,0.26s0.12,0.26,0.26,0.26c0.52,0,0.79-0.28,1-0.48c0.21-0.21,0.33-0.32,0.61-0.32
		c0.27,0,0.4,0.12,0.61,0.32c0.01,0.01,0.02,0.02,0.03,0.03l0.04,0.04c0.02,0.02,0.05,0.04,0.07,0.07l0.03,0.03
		c0.05,0.04,0.11,0.09,0.18,0.13l0.04,0.03c0.06,0.04,0.14,0.07,0.23,0.1c0.01,0,0.02,0.01,0.02,0.01c0.12,0.04,0.23,0.05,0.35,0.05
		c0.52,0,0.8-0.28,1-0.48c0.2-0.2,0.33-0.32,0.6-0.32c0.27,0,0.4,0.12,0.6,0.32c0.2,0.2,0.48,0.48,1,0.48c0,0,0,0,0,0s0,0,0,0
		c0.52,0,0.8-0.28,1-0.48c0,0,0.01-0.01,0.01-0.01v0C8.6,21.97,8.74,21.86,9,21.86c0.27,0,0.4,0.12,0.61,0.32
		c0.2,0.2,0.48,0.48,1,0.48c0.14,0,0.26-0.12,0.26-0.26S10.75,22.14,10.6,22.14z"/>
	<path class="st1" d="M10.6,26.06c-0.29,0-0.42-0.12-0.63-0.33c-0.18-0.18-0.4-0.37-0.74-0.44l-0.05-0.01
		c-0.05-0.01-0.11-0.02-0.17-0.02l-0.02,0l-0.01,0c-0.49,0-0.76,0.28-0.96,0.48c-0.2,0.2-0.34,0.33-0.62,0.33
		c-0.28,0-0.42-0.13-0.63-0.33c-0.15-0.15-0.34-0.34-0.64-0.43c-0.02,0-0.04,0-0.05-0.01c-0.08-0.02-0.17-0.04-0.27-0.04H5.79
		l-0.02,0c-0.02,0-0.04,0.01-0.06,0.01c-0.12,0.01-0.22,0.03-0.32,0.06c-0.04,0.01-0.07,0.03-0.1,0.05
		c-0.08,0.04-0.16,0.08-0.22,0.13c-0.01,0-0.01,0.01-0.02,0.01v0c-0.09,0.07-0.17,0.15-0.24,0.22c-0.21,0.21-0.34,0.33-0.63,0.33
		c-0.29,0-0.42-0.12-0.63-0.33c-0.2-0.2-0.47-0.48-0.98-0.48S1.8,25.53,1.6,25.73c-0.21,0.21-0.34,0.33-0.63,0.33
		c-0.14,0-0.26,0.12-0.26,0.26s0.12,0.26,0.26,0.26c0.52,0,0.79-0.28,1-0.48c0.21-0.21,0.33-0.32,0.61-0.32
		c0.27,0,0.4,0.12,0.61,0.32c0.01,0.01,0.02,0.02,0.03,0.03l0.04,0.04c0.02,0.02,0.05,0.04,0.07,0.07l0.03,0.03
		c0.05,0.04,0.11,0.09,0.18,0.13l0.04,0.03c0.06,0.04,0.14,0.07,0.23,0.1c0.01,0,0.02,0.01,0.02,0.01c0.12,0.04,0.23,0.05,0.35,0.05
		c0.52,0,0.8-0.28,1-0.48c0.2-0.2,0.33-0.32,0.6-0.32c0.27,0,0.4,0.12,0.6,0.32c0.2,0.2,0.48,0.48,1,0.48c0,0,0,0,0,0s0,0,0,0
		c0.52,0,0.8-0.28,1-0.48c0,0,0.01-0.01,0.01-0.01v0C8.6,25.89,8.74,25.77,9,25.77c0.27,0,0.4,0.12,0.61,0.32
		c0.2,0.2,0.48,0.48,1,0.48c0.14,0,0.26-0.12,0.26-0.26S10.75,26.06,10.6,26.06z"/>
	<path class="st1" d="M21.4,18.75c0.52,0,0.79-0.28,1-0.48c0.21-0.21,0.33-0.32,0.61-0.32c0.27,0,0.4,0.12,0.61,0.32
		c0.01,0.01,0.02,0.02,0.03,0.03l0.04,0.04c0.02,0.02,0.05,0.04,0.07,0.07l0.03,0.03c0.05,0.04,0.11,0.09,0.18,0.13L24,18.59
		c0.06,0.04,0.14,0.07,0.23,0.1c0.01,0,0.02,0.01,0.02,0.01c0.12,0.04,0.23,0.05,0.35,0.05c0.52,0,0.8-0.28,1-0.48
		c0.2-0.2,0.33-0.32,0.6-0.32c0.27,0,0.4,0.12,0.6,0.32c0.2,0.2,0.48,0.48,1,0.48c0,0,0,0,0,0s0,0,0,0c0.52,0,0.8-0.28,1-0.48
		c0,0,0.01-0.01,0.01-0.01v0c0.19-0.19,0.32-0.31,0.59-0.31c0.27,0,0.4,0.12,0.61,0.32c0.2,0.2,0.48,0.48,1,0.48
		c0.14,0,0.26-0.12,0.26-0.26s-0.12-0.26-0.26-0.26c-0.29,0-0.42-0.12-0.63-0.33c-0.18-0.18-0.4-0.37-0.74-0.44l-0.05-0.01
		c-0.05-0.01-0.11-0.02-0.17-0.02l-0.02,0l-0.01,0c-0.49,0-0.76,0.28-0.96,0.48c-0.2,0.2-0.34,0.33-0.62,0.33
		c-0.28,0-0.42-0.13-0.63-0.33c-0.15-0.15-0.34-0.34-0.64-0.43c-0.02,0-0.04,0-0.05-0.01c-0.08-0.02-0.17-0.04-0.27-0.04h-0.01
		l-0.02,0c-0.02,0-0.04,0.01-0.06,0.01c-0.12,0.01-0.22,0.03-0.32,0.06c-0.04,0.01-0.07,0.03-0.1,0.05
		c-0.08,0.04-0.16,0.08-0.22,0.13c-0.01,0-0.01,0.01-0.02,0.01v0c-0.09,0.07-0.17,0.15-0.24,0.22c-0.21,0.21-0.34,0.33-0.63,0.33
		c-0.29,0-0.42-0.12-0.63-0.33c-0.2-0.2-0.47-0.48-0.98-0.48s-0.78,0.27-0.98,0.48c-0.21,0.21-0.34,0.33-0.63,0.33
		c-0.14,0-0.26,0.12-0.26,0.26S21.25,18.75,21.4,18.75z"/>
	<path class="st1" d="M31.03,22.14c-0.29,0-0.42-0.12-0.63-0.33c-0.18-0.18-0.4-0.37-0.74-0.44l-0.05-0.01
		c-0.05-0.01-0.11-0.02-0.17-0.02l-0.02,0l-0.01,0c-0.49,0-0.76,0.28-0.96,0.48c-0.2,0.2-0.34,0.33-0.62,0.33
		c-0.28,0-0.42-0.13-0.63-0.33c-0.15-0.15-0.34-0.34-0.64-0.43c-0.02,0-0.04,0-0.05-0.01c-0.08-0.02-0.17-0.04-0.27-0.04h-0.01
		l-0.02,0c-0.02,0-0.04,0.01-0.06,0.01c-0.12,0.01-0.22,0.03-0.32,0.06c-0.04,0.01-0.07,0.03-0.1,0.05
		c-0.08,0.04-0.16,0.08-0.22,0.13c-0.01,0-0.01,0.01-0.02,0.01v0c-0.09,0.07-0.17,0.15-0.24,0.22c-0.21,0.21-0.34,0.33-0.63,0.33
		c-0.29,0-0.42-0.12-0.63-0.33c-0.2-0.2-0.47-0.48-0.98-0.48s-0.78,0.27-0.98,0.48c-0.21,0.21-0.34,0.33-0.63,0.33
		c-0.14,0-0.26,0.12-0.26,0.26s0.12,0.26,0.26,0.26c0.52,0,0.79-0.28,1-0.48c0.21-0.21,0.33-0.32,0.61-0.32
		c0.27,0,0.4,0.12,0.61,0.32c0.01,0.01,0.02,0.02,0.03,0.03l0.04,0.04c0.02,0.02,0.05,0.04,0.07,0.07l0.03,0.03
		c0.05,0.04,0.11,0.09,0.18,0.13L24,22.5c0.06,0.04,0.14,0.07,0.23,0.1c0.01,0,0.02,0.01,0.02,0.01c0.12,0.04,0.23,0.05,0.35,0.05
		c0.52,0,0.8-0.28,1-0.48c0.2-0.2,0.33-0.32,0.6-0.32c0.27,0,0.4,0.12,0.6,0.32c0.2,0.2,0.48,0.48,1,0.48c0,0,0,0,0,0s0,0,0,0
		c0.52,0,0.8-0.28,1-0.48c0,0,0.01-0.01,0.01-0.01v0c0.19-0.19,0.32-0.31,0.59-0.31c0.27,0,0.4,0.12,0.61,0.32
		c0.2,0.2,0.48,0.48,1,0.48c0.14,0,0.26-0.12,0.26-0.26S31.17,22.14,31.03,22.14z"/>
	<path class="st1" d="M31.03,26.06c-0.29,0-0.42-0.12-0.63-0.33c-0.18-0.18-0.4-0.37-0.74-0.44l-0.05-0.01
		c-0.05-0.01-0.11-0.02-0.17-0.02l-0.02,0l-0.01,0c-0.49,0-0.76,0.28-0.96,0.48c-0.2,0.2-0.34,0.33-0.62,0.33
		c-0.28,0-0.42-0.13-0.63-0.33c-0.15-0.15-0.34-0.34-0.64-0.43c-0.02,0-0.04,0-0.05-0.01c-0.08-0.02-0.17-0.04-0.27-0.04h-0.01
		l-0.02,0c-0.02,0-0.04,0.01-0.06,0.01c-0.12,0.01-0.22,0.03-0.32,0.06c-0.04,0.01-0.07,0.03-0.1,0.05
		c-0.08,0.04-0.16,0.08-0.22,0.13c-0.01,0-0.01,0.01-0.02,0.01v0c-0.09,0.07-0.17,0.15-0.24,0.22c-0.21,0.21-0.34,0.33-0.63,0.33
		c-0.29,0-0.42-0.12-0.63-0.33c-0.2-0.2-0.47-0.48-0.98-0.48s-0.78,0.27-0.98,0.48c-0.21,0.21-0.34,0.33-0.63,0.33
		c-0.14,0-0.26,0.12-0.26,0.26s0.12,0.26,0.26,0.26c0.52,0,0.79-0.28,1-0.48c0.21-0.21,0.33-0.32,0.61-0.32
		c0.27,0,0.4,0.12,0.61,0.32c0.01,0.01,0.02,0.02,0.03,0.03l0.04,0.04c0.02,0.02,0.05,0.04,0.07,0.07l0.03,0.03
		c0.05,0.04,0.11,0.09,0.18,0.13L24,26.42c0.06,0.04,0.14,0.07,0.23,0.1c0.01,0,0.02,0.01,0.02,0.01c0.12,0.04,0.23,0.05,0.35,0.05
		c0.52,0,0.8-0.28,1-0.48c0.2-0.2,0.33-0.32,0.6-0.32c0.27,0,0.4,0.12,0.6,0.32c0.2,0.2,0.48,0.48,1,0.48c0,0,0,0,0,0s0,0,0,0
		c0.52,0,0.8-0.28,1-0.48c0,0,0.01-0.01,0.01-0.01v0c0.19-0.19,0.32-0.31,0.59-0.31c0.27,0,0.4,0.12,0.61,0.32
		c0.2,0.2,0.48,0.48,1,0.48c0.14,0,0.26-0.12,0.26-0.26S31.17,26.06,31.03,26.06z"/>
	<path class="st1" d="M16.53,7.92h-3.49c-0.27,0-0.49,0.22-0.49,0.49v18.17c0,0.27,0.22,0.49,0.49,0.49h6.32
		c0.14,0,0.28-0.06,0.37-0.17c0.09-0.11,0.13-0.25,0.11-0.39L17.01,8.33C16.97,8.09,16.77,7.92,16.53,7.92z M13.53,26.09V8.9h2.58
		l2.68,17.19H13.53z"/>
</g>
</svg>
