<?xml version="1.0" encoding="utf-8"?>
<!-- Generator: Adobe Illustrator 23.0.2, SVG Export Plug-In . SVG Version: 6.00 Build 0)  -->
<svg version="1.1" id="Layer_1" xmlns="http://www.w3.org/2000/svg" xmlns:xlink="http://www.w3.org/1999/xlink" x="0px" y="0px"
	 width="32px" height="32px" viewBox="0 0 32 32" style="enable-background:new 0 0 32 32;" xml:space="preserve">
<style type="text/css">
	.st0{fill:none;}
	.st1{fill:#952625;}
</style>
<rect y="0" class="st0" width="32" height="32"/>
<g>
	<path class="st1" d="M1.23,17.37c-0.26-0.06-0.53,0.11-0.59,0.37C0.59,18,0.75,18.27,1.02,18.33c0.09,0.02,8.86,2.11,10.61,11.22
		c0.04,0.23,0.25,0.4,0.48,0.4c0.03,0,0.06,0,0.09-0.01c0.27-0.05,0.44-0.31,0.39-0.57C10.72,19.63,1.33,17.39,1.23,17.37z"/>
	<path class="st1" d="M8.23,13.91c-5.16-1.42-5.5-1.87-5.7-2.47c0.28-0.24,1.5-0.54,2.68-0.65c0.27-0.03,0.47-0.26,0.44-0.53
		C5.63,9.98,5.39,9.78,5.12,9.81c-0.86,0.08-2.93,0.35-3.45,1.13c-0.1,0.15-0.13,0.31-0.12,0.47c-0.01,0.03-0.02,0.06-0.02,0.1v3.18
		c0,0.23,0.16,0.43,0.38,0.48c12.46,2.85,13.36,11.87,13.39,12.25c0.02,0.26,0.24,0.45,0.49,0.45c0.01,0,0.03,0,0.04,0
		c0.27-0.02,0.47-0.26,0.45-0.53c-0.01-0.1-0.95-9.92-13.77-13.04v-1.38c0.8,0.53,2.32,1.08,5.46,1.94
		c5.46,1.5,9.58,7.54,10.77,11.35c0.07,0.21,0.26,0.34,0.47,0.34c0.05,0,0.1-0.01,0.15-0.02c0.26-0.08,0.4-0.35,0.32-0.61
		C18.43,21.9,14.05,15.51,8.23,13.91z"/>
	<path class="st1" d="M13.03,10.44c-0.59-0.2-1.28-0.37-2.02-0.55C9.64,9.55,7.35,8.98,7.4,8.36c0.05-0.63,1.9-0.99,3.22-1.01
		c0.27,0,0.49-0.23,0.48-0.5c0-0.27-0.22-0.48-0.49-0.48c0,0,0,0-0.01,0C9.94,6.38,6.58,6.51,6.43,8.28c0,0,0,0.01,0,0.01
		c0,0.01-0.01,0.02-0.01,0.03v2.7c0,0.27,0.22,0.49,0.49,0.49s0.49-0.22,0.49-0.49V9.72c0.83,0.47,2.07,0.79,3.38,1.12
		c0.72,0.18,1.39,0.34,2.03,0.56c2.1,0.71,6.48,2.18,11.11,12.45c0.08,0.18,0.26,0.29,0.45,0.29c0.07,0,0.14-0.01,0.2-0.04
		c0.25-0.11,0.36-0.4,0.25-0.65C20,12.78,15.35,11.22,13.03,10.44z"/>
	<path class="st1" d="M17.95,8.1l-0.32-0.12c-0.41-0.16-1.03-0.33-1.68-0.5c-0.89-0.24-2.98-0.79-3.13-1.19v0
		c0.08-0.42,1.26-0.56,2.03-0.49c0.29,0.03,0.51-0.18,0.53-0.45c0.02-0.27-0.18-0.51-0.45-0.53c-0.26-0.02-2.41-0.16-2.96,1
		c-0.08,0.09-0.14,0.21-0.14,0.34v2.49c0,0.27,0.22,0.49,0.49,0.49s0.49-0.22,0.49-0.49V7.46c0.75,0.39,1.81,0.68,2.87,0.96
		c0.62,0.16,1.21,0.32,1.57,0.46l0.33,0.13c1.8,0.67,6.58,2.45,11.47,9.88c0.09,0.14,0.25,0.22,0.41,0.22
		c0.09,0,0.19-0.03,0.27-0.08c0.23-0.15,0.29-0.45,0.14-0.68C24.83,10.66,19.65,8.73,17.95,8.1z"/>
	<path class="st1" d="M31.25,9.42c-0.17-0.19-4.17-4.74-11.38-5.23c-1.16-0.12-2.29-0.35-2.81-0.54c0.41-0.26,1.32-0.37,3.2-0.43
		c2.47-0.08,9.68-0.19,9.76-0.19c0.27,0,0.49-0.23,0.48-0.5c0-0.27-0.22-0.48-0.49-0.48c0,0,0,0-0.01,0c-0.07,0-7.29,0.11-9.77,0.19
		c-2.47,0.08-3.7,0.22-4.24,1.14c-0.03,0.06-0.04,0.12-0.05,0.18c0,0,0,0.01,0,0.01c-0.01,0.05-0.03,0.1-0.03,0.15
		c0,0.01-0.01,0.02-0.01,0.03v2.63c0,0.27,0.22,0.49,0.49,0.49s0.49-0.22,0.49-0.49V4.62c0.64,0.23,1.61,0.42,2.9,0.55
		c6.8,0.46,10.68,4.85,10.72,4.89c0.1,0.11,0.23,0.17,0.37,0.17c0.11,0,0.23-0.04,0.32-0.12C31.4,9.93,31.42,9.63,31.25,9.42z"/>
</g>
</svg>
