<?xml version="1.0" encoding="utf-8"?>
<!-- Generator: Adobe Illustrator 23.0.2, SVG Export Plug-In . SVG Version: 6.00 Build 0)  -->
<svg version="1.1" id="Layer_1" xmlns="http://www.w3.org/2000/svg" xmlns:xlink="http://www.w3.org/1999/xlink" x="0px" y="0px"
	 width="32px" height="32px" viewBox="0 0 32 32" style="enable-background:new 0 0 32 32;" xml:space="preserve">
<style type="text/css">
	.st0{fill:none;}
	.st1{fill:#972726;}
</style>
<g>
	<rect y="0" class="st0" width="32" height="32"/>
</g>
<g>
	<polygon class="st1" points="6.14,23.9 6.14,24.4 7.33,24.4 7.31,23.9 	"/>
	<path class="st1" d="M11.47,24.4c-0.02-0.08-0.03-0.13-0.04-0.19c-0.03-0.15-0.06-0.27-0.07-0.31H8.31l0.03,0.5H11.47z"/>
	<polygon class="st1" points="25.45,24.4 25.45,23.9 24.51,23.9 24.49,24.15 24.48,24.4 	"/>
	<path class="st1" d="M23.51,23.9h-3.74c-0.02,0.15-0.03,0.31-0.05,0.5h3.76h0L23.51,23.9z"/>
	<path class="st1" d="M7.84,24.4l0.03,0.52L7.84,24.4h-0.5l0.03,0.54c0.02,0.27,0.23,0.47,0.5,0.47c0.01,0,0.02,0,0.03,0
		c0.28-0.02,0.49-0.25,0.47-0.53L8.34,24.4h0H7.84z"/>
	<path class="st1" d="M8.31,23.9L7.6,11.5c-0.14-0.21-0.28-0.41-0.4-0.64l-0.04-0.06l-0.12-0.22l0.02,0.41L7.81,23.9H8.31z"/>
	<polygon class="st1" points="7.07,10.98 7.05,10.57 7.04,10.57 7.04,10.57 6.8,10.11 6.48,9.49 7.31,23.9 7.81,23.9 	"/>
	<polygon class="st1" points="7.07,10.98 7.81,23.9 7.81,23.9 	"/>
	<path class="st1" d="M6.37,6.28c0.15,0.02,0.3,0.07,0.43,0.14L6.52,1.47l0.28,4.95c0.2,0.11,0.37,0.25,0.5,0.39
		c0,0.01,0.01,0.01,0.02,0.02v0L7.02,1.44C7.01,1.17,6.81,0.96,6.5,0.97C6.22,0.99,6.01,1.22,6.03,1.5L6.3,6.26h0
		C6.32,6.26,6.35,6.27,6.37,6.28"/>
	<polygon class="st1" points="8.31,23.9 7.81,23.9 7.84,24.4 8.34,24.4 8.31,23.9 	"/>
	<path class="st1" d="M8.31,23.9h-0.5H8.31z"/>
	<polygon class="st1" points="7.81,23.9 7.81,23.9 7.31,23.9 7.33,24.4 7.84,24.4 	"/>
	<path class="st1" d="M7.81,23.9L7.81,23.9L7.81,23.9z"/>
	<path class="st1" d="M24.05,23.16l-0.04,0.74h0.5l0.78-14.22c-0.16,0.28-0.34,0.57-0.55,0.88L24.05,23.16z"/>
	<path class="st1" d="M24.05,23.16l0.69-12.6c-0.17,0.25-0.34,0.5-0.54,0.76v0l0,0L23.51,23.9h0.5h0v0L24.05,23.16z"/>
	<polygon class="st1" points="24.01,23.9 24.01,23.9 24.05,23.16 	"/>
	<path class="st1" d="M23.98,24.4l-0.03,0.52L23.98,24.4h-0.5h0l-0.03,0.49c-0.02,0.28,0.19,0.51,0.47,0.53c0.01,0,0.02,0,0.03,0
		c0.26,0,0.48-0.21,0.5-0.47l0.03-0.54H23.98z"/>
	<path class="st1" d="M24.98,6.3L24.98,6.3l0.27-4.83L24.98,6.3c0.06-0.05,0.12-0.09,0.19-0.13c0.04-0.02,0.08-0.04,0.13-0.06
		c0.06-0.02,0.13-0.05,0.2-0.07l0.25-4.55c0.01-0.28-0.2-0.51-0.47-0.53c-0.27-0.03-0.51,0.2-0.52,0.47l-0.31,5.64l0.31-0.51
		C24.79,6.49,24.87,6.39,24.98,6.3"/>
	<polygon class="st1" points="24.48,24.4 24.49,24.15 24.51,23.9 24.01,23.9 23.98,24.4 	"/>
	<path class="st1" d="M24.48,24.4l0.01-0.25L24.48,24.4z"/>
	<polygon class="st1" points="23.98,24.4 23.98,24.4 24.01,23.9 23.51,23.9 23.48,24.4 	"/>
	<path class="st1" d="M23.98,24.4l0.03-0.5L23.98,24.4z"/>
	<path class="st1" d="M24.2,11.32l0.05-0.95c-1.05,1.54-2.69,3.38-5.07,4.59l-0.12,0.06l-0.01,0.13c0,0.03-0.35,3.32-0.88,4.76
		L18,20.36l0.46-0.11c0.01,0,0.83-0.2,1.19,0.22c0.31,0.35,0.26,1.09-0.14,2.11c-0.02,0.05-0.14,0.35-0.25,1.32h0h0.5
		c0.1-0.84,0.2-1.1,0.21-1.13c0.49-1.24,0.5-2.13,0.06-2.64c-0.35-0.4-0.87-0.46-1.27-0.43c0.43-1.43,0.7-3.77,0.77-4.36
		C21.62,14.25,23.14,12.72,24.2,11.32L24.2,11.32z"/>
	<polyline class="st1" points="24.2,11.32 24.2,11.32 24.2,11.33 24.2,11.32 24.2,11.32 24.2,11.32 	"/>
	<path class="st1" d="M7.49,8.39c0.1,0.33,1.43,4.36,8.35,5.4v0c0.01,0,0.01,0,0.02,0c0.63,0.07,5.17,0.34,8.51-5.63l0.06-1.06
		l-0.41,0.68c-3.41,6.22-8.04,5.54-8.09,5.53l-0.03,0.14l0.02-0.14c-6.73-1.01-7.94-5.01-7.95-5.05L7.43,6.95L7.38,6.88
		C7.37,6.86,7.35,6.84,7.33,6.82l0.04,0.75l0.04,0.64L7.49,8.39z"/>
	<path class="st1" d="M26.09,6.13c-0.22-0.1-0.42-0.11-0.6-0.08L25.47,6.4l-0.01,0.17h0v0c0.11-0.05,0.26-0.06,0.43,0.01
		c0.09,0.04,0.12,0.09,0.13,0.14c0.07,0.22-0.14,0.63-0.27,0.84c-0.01,0.01-0.13,0.36-0.4,0.91l-0.07,1.2
		c0.61-1.06,0.89-1.83,0.91-1.89c0.05-0.07,0.46-0.7,0.31-1.21C26.45,6.37,26.3,6.22,26.09,6.13"/>
	<path class="st1" d="M6.41,8.28L6.41,8.28L6.17,7.82C6.08,7.65,5.8,6.99,6.09,6.8c0.07-0.04,0.15-0.05,0.24-0.04L6.3,6.26
		C6.14,6.25,5.97,6.28,5.81,6.39C5.23,6.76,5.49,7.61,5.73,8.05l0.75,1.44L6.45,8.87L6.41,8.28L6.41,8.28z"/>
	<path class="st1" d="M19.21,24.4L19.21,24.4c-0.05,0.58-0.09,1.32-0.1,2.29c0,0-0.11,0.52-0.46,0.73c-0.17,0.1-0.38,0.12-0.63,0.04
		c-0.91-0.28-0.64-1.57-0.62-1.68V24.4h-3.88l1.22,5.42c-0.02,0.12-0.12,0.5-0.4,0.65c-0.2,0.11-0.48,0.08-0.83-0.08
		c-0.07-0.17-0.25-0.61-0.43-1.22c-0.18-0.62-0.83-3.5-1.1-4.77h0h-0.51h0c0.27,1.23,0.94,4.25,1.14,4.91
		c0.24,0.82,0.48,1.34,0.49,1.36l0.04,0.08l0.08,0.04c0.31,0.16,0.6,0.24,0.86,0.24c0.19,0,0.35-0.04,0.51-0.12
		c0.57-0.3,0.66-1.03,0.67-1.06l0.01-0.04l-1.2-5.34l2.86-0.05l0.01,1.32c-0.14,0.62-0.12,1.88,0.96,2.21
		c0.39,0.12,0.74,0.09,1.03-0.09c0.54-0.32,0.68-1.03,0.7-1.1c0.02-1.01,0.06-1.77,0.11-2.34H19.21z"/>
	<polygon class="st1" points="17.41,23.89 17.15,23.9 17.41,23.9 	"/>
	<path class="st1" d="M7.6,11.5L7.6,11.5c1.41,2.09,3.7,3.02,4.3,3.23l0.95,5.41c-0.16,0-0.36,0-0.61,0c-0.45,0-0.8,0.13-1.02,0.4
		c-0.34,0.39-0.26,0.92-0.26,0.94l0.39,2.41c0,0,0,0.01,0,0.01h0.51c-0.01-0.06-0.02-0.1-0.02-0.11l-0.38-2.39
		c0,0-0.04-0.32,0.14-0.54c0.13-0.15,0.34-0.22,0.65-0.22c0.35,0,0.56,0,0.69,0l0.5-0.01l-0.07-0.43l-1.03-5.85L12.2,14.3
		c-0.03-0.01-3.16-0.99-4.56-3.68l-0.1-0.19l0.06,1.01L7.6,11.5z"/>
	<polygon class="st1" points="17.41,24.4 17.41,23.9 17.15,23.9 13.43,23.97 13.52,24.4 13.52,24.4 13.52,24.4 	"/>
	<polygon class="st1" points="13.52,24.4 13.52,24.4 17.41,24.4 	"/>
	<path class="st1" d="M11.36,23.9c0.01,0.04,0.04,0.16,0.07,0.31c0.01,0.06,0.02,0.11,0.04,0.19h0.51c-0.05-0.23-0.09-0.4-0.11-0.5
		H11.36z"/>
	<path class="st1" d="M11.36,23.9c0.01,0.04,0.03,0.16,0.07,0.31C11.39,24.05,11.37,23.94,11.36,23.9"/>
	<path class="st1" d="M11.47,24.4h0.51H11.47z"/>
	<path class="st1" d="M19.76,23.9L19.76,23.9h-0.5c-0.02,0.15-0.03,0.32-0.05,0.5h0.5h0C19.73,24.21,19.75,24.05,19.76,23.9"/>
	<path class="st1" d="M19.26,23.9h0.5H19.26z"/>
	<path class="st1" d="M19.21,24.4h0.5H19.21z"/>
	<path class="st1" d="M7.04,10.57l0.12,0.23l0.03,0.07c0.12,0.23,0.26,0.44,0.4,0.64l0-0.06l-0.06-1.01L6.98,9.36L7.04,10.57
		L7.04,10.57L7.04,10.57z"/>
	<polygon class="st1" points="7.04,10.57 7.16,10.79 7.04,10.57 	"/>
	<polygon class="st1" points="7.04,10.57 7.04,10.57 7.04,10.57 7.04,10.57 	"/>
	<path class="st1" d="M7.6,11.5l0-0.06L7.6,11.5z"/>
	<path class="st1" d="M6.81,6.42l0.04,0.63C6.9,7.1,6.95,7.14,6.98,7.18l0.43,1.03v0L7.37,7.57L7.33,6.82
		c0-0.01-0.01-0.01-0.02-0.02C7.18,6.67,7.01,6.53,6.81,6.42"/>
	<path class="st1" d="M7.31,6.81c0,0.01,0.01,0.01,0.02,0.02C7.33,6.82,7.32,6.81,7.31,6.81"/>
	<polygon class="st1" points="7.41,8.21 7.37,7.57 7.41,8.21 	"/>
	<polygon class="st1" points="6.98,9.36 6.41,8.28 6.45,8.87 6.48,9.49 6.8,10.11 7.04,10.57 	"/>
	<polygon class="st1" points="7.04,10.57 6.8,10.11 7.04,10.57 	"/>
	<polygon class="st1" points="6.41,8.28 6.45,8.87 6.41,8.28 	"/>
	<path class="st1" d="M6.98,9.36l0.07,1.21L6.98,9.36z"/>
	<polygon class="st1" points="7.04,10.57 7.04,10.57 7.04,10.57 	"/>
	<path class="st1" d="M6.81,6.42C6.67,6.34,6.52,6.3,6.37,6.28c-0.02,0-0.05-0.01-0.07-0.01l0.03,0.5C6.51,6.8,6.7,6.93,6.84,7.05
		L6.81,6.42z"/>
	<path class="st1" d="M6.37,6.28c-0.02,0-0.05-0.01-0.08-0.01C6.32,6.26,6.35,6.27,6.37,6.28"/>
	<polygon class="st1" points="6.3,6.26 6.3,6.26 6.33,6.76 	"/>
	<path class="st1" d="M24.92,7.24L24.92,7.24l0-0.05l0.05-0.89c-0.1,0.09-0.19,0.19-0.24,0.28l-0.31,0.51v0l0,0l-0.06,1.06
		c0.02-0.05,0.05-0.08,0.08-0.13L24.92,7.24z"/>
	<path class="st1" d="M24.74,6.58c0.05-0.08,0.13-0.18,0.24-0.28C24.87,6.39,24.79,6.49,24.74,6.58l-0.31,0.51v0L24.74,6.58z"/>
	<path class="st1" d="M24.25,10.37L24.25,10.37l-0.05,0.95c0.2-0.26,0.38-0.52,0.54-0.76l0.05-0.99l0-0.07
		C24.64,9.77,24.46,10.06,24.25,10.37"/>
	<polygon class="st1" points="24.74,10.56 24.74,10.56 24.74,10.56 	"/>
	<path class="st1" d="M24.2,11.32L24.2,11.32c0.2-0.26,0.38-0.52,0.54-0.76C24.58,10.81,24.4,11.06,24.2,11.32"/>
	<polyline class="st1" points="24.2,11.32 24.25,10.37 24.25,10.37 24.2,11.32 24.2,11.32 	"/>
	<polyline class="st1" points="24.2,11.32 24.2,11.32 24.2,11.32 24.2,11.32 	"/>
	<path class="st1" d="M25.29,6.12c-0.04,0.02-0.09,0.03-0.13,0.06c-0.07,0.04-0.13,0.08-0.19,0.13l-0.05,0.89l0,0.05l0.25-0.4
		c0.01-0.01,0.11-0.18,0.29-0.26l0.01-0.17l0.02-0.35C25.42,6.06,25.36,6.09,25.29,6.12"/>
	<path class="st1" d="M25.17,6.17c0.04-0.02,0.08-0.04,0.13-0.06C25.25,6.13,25.21,6.15,25.17,6.17"/>
	<path class="st1" d="M25.46,6.57l0.01-0.17L25.46,6.57z"/>
	<polygon class="st1" points="24.92,7.24 24.92,7.24 24.93,7.19 	"/>
	<path class="st1" d="M25.36,8.47c-0.14,0.29-0.33,0.64-0.56,1.03l0,0.07l-0.06,0.99c0.21-0.31,0.39-0.61,0.55-0.88v0c0,0,0,0,0,0
		L25.36,8.47z"/>
	<polygon class="st1" points="25.29,9.68 25.29,9.67 25.36,8.47 	"/>
	<polygon class="st1" points="24.74,10.56 24.8,9.57 24.74,10.56 	"/>
	<path class="st1" d="M16,11.54c1.67,0,3.03-1.36,3.03-3.03c0-1.67-1.36-3.03-3.03-3.03c-1.67,0-3.03,1.36-3.03,3.03
		C12.97,10.18,14.33,11.54,16,11.54 M16,5.98c1.39,0,2.53,1.13,2.53,2.53s-1.13,2.53-2.53,2.53c-1.39,0-2.53-1.13-2.53-2.53
		S14.61,5.98,16,5.98"/>
</g>
</svg>
