<?xml version="1.0" encoding="utf-8"?>
<!-- Generator: Adobe Illustrator 23.0.2, SVG Export Plug-In . SVG Version: 6.00 Build 0)  -->
<svg version="1.1" id="Layer_1" xmlns="http://www.w3.org/2000/svg" xmlns:xlink="http://www.w3.org/1999/xlink" x="0px" y="0px"
	 width="32px" height="32px" viewBox="0 0 32 32" style="enable-background:new 0 0 32 32;" xml:space="preserve">
<style type="text/css">
	.st0{fill:none;}
	.st1{fill:#962425;}
</style>
<rect class="st0" width="32" height="32"/>
<g>
	<path class="st1" d="M28.76,10.19l-2.15-2.15l0.26-0.25c0.83-0.81,1.98-1.92,0.8-3.36c-1.01-1.23-2.26-0.87-2.85-0.45L24.7,4.1
		c-0.08-0.32-0.25-0.65-0.54-0.98c-1.08-1.2-2.39-0.85-2.94-0.49l-0.01,0.01l-1.73-1.73c-0.1-0.1-0.29-0.1-0.39,0l-1.27,1.27
		l-0.41,0.4c0.19,0.06,0.34,0.19,0.41,0.37c0.03,0.08,0.05,0.16,0.05,0.25c0,0.36-0.29,0.66-0.66,0.66c-0.09,0-0.17-0.02-0.25-0.05
		c-0.18-0.07-0.31-0.22-0.37-0.41l-0.4,0.4l-1.33,1.33c-0.11,0.11-0.11,0.28,0,0.39l1.68,1.68l-4.26,4.18
		c-0.51-0.1-1.73-0.35-3.02-0.65c-1.67-0.39-2.71,0.97-3.03,1.76c-0.08,0.23-2.09,5.57-2.89,8.35c-0.88,3.08,1.49,4.96,1.55,5
		l4.04,4.04c0.85,0.85,1.79,1.29,2.78,1.29c0.07,0,0.14,0,0.21-0.01c1.99-0.12,3.42-1.94,3.44-1.97l8.17-8.17l0.28-0.28
		c0.93-0.91,2.21-2.16,1.03-3.59c-0.49-0.6-1.04-0.81-1.54-0.84c0.15-0.52,0.09-1.08-0.4-1.67c-0.36-0.43-0.74-0.66-1.12-0.77
		l0.7-0.7c0,0,0,0,0,0l1.63,1.63c0.05,0.05,0.12,0.08,0.19,0.08c0.07,0,0.14-0.03,0.19-0.08l1.41-1.41l0.4-0.4
		c-0.18-0.07-0.32-0.21-0.39-0.39c-0.03-0.07-0.04-0.14-0.04-0.22c0-0.36,0.29-0.66,0.66-0.66c0.08,0,0.15,0.02,0.22,0.04
		c0.18,0.07,0.32,0.21,0.39,0.39l0.4-0.4l1.18-1.18c0.05-0.05,0.08-0.12,0.08-0.19C28.84,10.31,28.81,10.24,28.76,10.19 M25.45,4.75
		c0.13-0.08,0.8-0.47,1.44,0.32c0.55,0.67,0.27,1.04-0.72,2.01L25.9,7.34l-1.52-1.52L25.45,4.75z M15.45,5.33l1.13-1.13
		c0.19,0.12,0.4,0.21,0.64,0.21c0.67,0,1.21-0.54,1.21-1.21c0-0.24-0.09-0.45-0.21-0.64l1.07-1.07l1.53,1.53l-3.87,3.8L15.45,5.33z
		 M22.16,15.27c0.46,0.57,0.2,1.06-0.56,1.85l-0.41,0.41l-0.28,0.27c-0.2,0.19-0.2,0.51,0,0.71c0.05,0.05,0.11,0.09,0.17,0.11
		c0.18,0.07,0.4,0.04,0.54-0.11l0.16-0.16l0.12-0.12c0.2-0.2,0.42-0.41,0.63-0.64l0.12-0.12c0.13-0.08,0.8-0.47,1.44,0.31
		c0.54,0.65,0.1,1.21-0.96,2.24l-8.5,8.5c-0.01,0.02-1.22,1.54-2.75,1.63c-0.77,0.05-1.52-0.29-2.22-0.99l-4.08-4.08
		c-0.02-0.02-1.94-1.54-1.25-3.97c0.78-2.74,2.84-8.22,2.85-8.26c0.03-0.06,0.62-1.44,1.87-1.15c0.9,0.21,1.76,0.39,2.38,0.52
		L8.81,14.8c-0.2,0.19-0.2,0.51-0.01,0.71c0.1,0.1,0.23,0.15,0.36,0.15c0.13,0,0.25-0.05,0.35-0.14l7.74-7.6l0.39-0.39l3.87-3.8
		l0.43-0.35c0.29-0.12,0.89-0.23,1.47,0.41c0.48,0.53,0.38,0.99,0.22,1.28L23.29,5.5l-0.56,0.58l-3.23,3.3l-0.38,0.39l-3.2,3.27
		c-0.19,0.2-0.19,0.52,0.01,0.71c0.2,0.19,0.51,0.19,0.71-0.01l3.19-3.26l1.99,1.99c0,0,0,0,0,0l-2.84,2.84
		c-0.19,0.2-0.19,0.51,0,0.71c0.1,0.1,0.23,0.15,0.35,0.15c0.13,0,0.25-0.05,0.35-0.15L19.68,16c0,0,0.01,0,0.01-0.01l0.27-0.27
		l0.78-0.78C20.9,14.84,21.54,14.52,22.16,15.27 M27.19,11.37c-0.19-0.11-0.39-0.2-0.62-0.2c-0.67,0-1.21,0.54-1.21,1.21
		c0,0.23,0.08,0.44,0.2,0.62l-1.22,1.22l-4.14-4.14l3.24-3.31L24,6.21l4.17,4.17L27.19,11.37z"/>
</g>
</svg>
