<?xml version="1.0" encoding="utf-8"?>
<!-- Generator: Adobe Illustrator 23.0.2, SVG Export Plug-In . SVG Version: 6.00 Build 0)  -->
<svg version="1.1" id="Layer_1" xmlns="http://www.w3.org/2000/svg" xmlns:xlink="http://www.w3.org/1999/xlink" x="0px" y="0px"
	 width="32px" height="32px" viewBox="0 0 32 32" style="enable-background:new 0 0 32 32;" xml:space="preserve">
<style type="text/css">
	.st0{fill:none;}
	.st1{fill:#952524;}
</style>
<rect class="st0" width="32" height="32"/>
<g>
	<path class="st1" d="M11.89,5.73c0.48,0,0.86-0.39,0.86-0.86c0-0.48-0.39-0.86-0.86-0.86c-0.48,0-0.86,0.39-0.86,0.86
		C11.03,5.34,11.42,5.73,11.89,5.73"/>
	<path class="st1" d="M13.95,1.79c-0.32,0.03-0.63,0.08-0.9,0.12c0.52,0.29,1.16,0.79,1.63,1.59c0.73,1.25,0.43,2.58-0.89,3.97
		c-0.77,0.81-2.61,0.92-4.12,0.3V8.4c1.53,0.55,3.54,0.55,4.55-0.52c1.9-2,1.57-3.65,0.97-4.68C14.87,2.65,14.45,2.18,13.95,1.79"/>
	<path class="st1" d="M26.4,27.68c-0.06-0.2-5.7-20.56-6.41-23.49c-0.64-2.65-2.69-3.35-3.67-3.35h0c-1.47-0.07-2.81,0.03-4.02,0.3
		c-0.13,0.03-0.22,0.03-0.36,0.09c-1.54,0.39-2.84,1.07-3.89,2.03C5.57,5.52,5.41,8.51,5.41,8.64c-0.01,0.2,0.1,0.38,0.28,0.47
		c0.18,0.09,0.4,0.06,0.55-0.07c0.43-0.38,1.59-1.18,2.5-1.13v9.52c0,0.09,0.24,8.98,8.82,9.27c0.27,1.33,1.03,3.11,2.51,3.11
		c0.09,0,0.18-0.01,0.27-0.02c0.83-0.12,1.39-0.3,1.76-0.59c0.01,0.05,0.03,0.1,0.04,0.14c0.27,0.88,0.67,1.43,1.22,1.68
		c0.23,0.11,0.48,0.16,0.75,0.16c0.36,0,0.76-0.1,1.2-0.28C26.86,30.22,26.69,28.47,26.4,27.68 M8.73,6.91
		c-0.02,0-0.04-0.01-0.06-0.01c-0.75,0-1.5,0.33-2.08,0.67c0.23-0.9,0.74-2.2,1.87-3.33c0.11,0.12,0.27,0.4,0.27,1V6.91z
		 M9.73,17.42V8.26V7.17V5.24c0-0.86-0.26-1.36-0.52-1.66C10,2.99,11,2.48,12.29,2.17c0,0,0.77-0.21,1.6-0.27
		c0.73-0.08,1.53-0.1,2.4-0.06c0.09,0,2.11,0.06,2.72,2.59c0.11,0.46,0.34,1.35,0.66,2.52c-0.96,0.47-6.17,3.38-6.03,10.69
		c-0.01,0.22-0.27,4.9,2.82,7.99C9.94,24.69,9.74,17.73,9.73,17.42 M24.9,29.98c-0.48,0.21-0.86,0.26-1.13,0.13
		c-0.28-0.13-0.51-0.48-0.68-1.07c-0.32-1.05-0.56-2.55-0.56-2.57c-0.04-0.27-0.3-0.45-0.57-0.42c-0.27,0.04-0.46,0.3-0.42,0.57
		c0,0.02,0.04,0.25,0.1,0.58c0.1,0.56,0.08,0.89-0.05,1.08c-0.17,0.23-0.62,0.39-1.39,0.5c-1.07,0.15-1.63-1.91-1.73-2.64
		c-0.02-0.14-0.1-0.26-0.22-0.34c-3.92-2.63-3.61-8.07-3.61-8.16c-0.12-6.49,4.13-9.13,5.29-9.73c1.81,6.71,5.46,19.87,5.51,20.06
		C25.47,28.04,25.99,29.51,24.9,29.98"/>
</g>
</svg>
