<?xml version="1.0" encoding="utf-8"?>
<!-- Generator: Adobe Illustrator 23.0.2, SVG Export Plug-In . SVG Version: 6.00 Build 0)  -->
<svg version="1.1" id="Layer_1" xmlns="http://www.w3.org/2000/svg" xmlns:xlink="http://www.w3.org/1999/xlink" x="0px" y="0px"
	 width="32px" height="32px" viewBox="0 0 32 32" style="enable-background:new 0 0 32 32;" xml:space="preserve">
<style type="text/css">
	.st0{fill:none;}
	.st1{fill:#952524;}
</style>
<rect class="st0" width="32" height="32"/>
<g>
	<path class="st1" d="M16,0.07C9.48,0.07,4.17,5.37,4.17,11.9c0,1.94,0.48,3.77,1.31,5.39L5.47,17.3l0.05,0.07
		c0.3,0.58,0.66,1.13,1.05,1.65l7.63,11.93c0.39,0.62,1.06,0.99,1.79,0.99c0.73,0,1.4-0.37,1.79-0.98l7.62-11.92l1.07-1.68
		c0.01-0.02,0.02-0.04,0.03-0.07c0.83-1.62,1.31-3.45,1.31-5.39C27.83,5.37,22.52,0.07,16,0.07 M25.61,16.86
		c-0.3,0.57-0.64,1.11-1.03,1.61l-2.12,3.32l-5.51,8.62c-0.21,0.33-0.56,0.52-0.95,0.52c-0.39,0-0.74-0.19-0.95-0.52l-5.51-8.62
		l-2.13-3.33l-1.02-1.59c-0.78-1.49-1.22-3.18-1.22-4.98C5.17,5.92,10.03,1.07,16,1.07c5.97,0,10.83,4.86,10.83,10.83
		C26.83,13.69,26.38,15.37,25.61,16.86"/>
	<path class="st1" d="M22.71,5.66c0,0-0.01,0-0.01,0l-4.19,0.4l-1.27,5.68H13.3l0-0.01c-0.12-0.21-0.82-1.61-1.21-2.41l-0.01-0.01
		l0.01-0.01l2.53-1.29c0.13-0.07,0.18-0.22,0.12-0.35c-0.37-0.72-1-1.26-1.77-1.51c-0.77-0.25-1.6-0.19-2.32,0.18l-0.59,0.3
		C9.33,7,8.79,7.63,8.54,8.4C8.29,9.17,8.36,10,8.72,10.72c0.05,0.09,0.13,0.14,0.23,0.14c0.04,0,0.08-0.01,0.12-0.03l2.53-1.29
		l0,0.01c0.59,1.2,0.89,1.81,1.08,2.16l0.01,0.02h-2.29c-0.07,0.19-0.12,0.37-0.16,0.54c-0.15,0.59-0.22,1.18-0.22,1.77
		c0,3.53,2.55,6.4,5.69,6.4s5.69-2.87,5.69-6.4c0-0.59-0.08-1.18-0.23-1.77c-0.04-0.17-0.1-0.35-0.16-0.54h-3.23l0-0.02l1.15-5.17
		h0.01l3.8-0.37c0.07-0.01,0.13-0.04,0.18-0.09c0.04-0.06,0.07-0.12,0.06-0.19C22.96,5.76,22.84,5.66,22.71,5.66 M9.08,10.24l0-0.01
		c-0.2-0.54-0.22-1.12-0.04-1.66c0.21-0.64,0.65-1.16,1.25-1.46l0.59-0.3c0.36-0.18,0.74-0.28,1.14-0.28c0.26,0,0.53,0.04,0.78,0.13
		c0.55,0.18,1.01,0.53,1.33,1.01l0.01,0.01l-0.01,0.01L9.08,10.24z M20.63,12.26L20.63,12.26c0.16,0.58,0.24,1.18,0.24,1.78
		c0,3.24-2.32,5.88-5.16,5.88c-2.85,0-5.16-2.64-5.16-5.88c0-0.61,0.08-1.2,0.24-1.78l0-0.01H20.63z"/>
</g>
</svg>
