<?xml version="1.0" encoding="utf-8"?>
<!-- Generator: Adobe Illustrator 23.0.2, SVG Export Plug-In . SVG Version: 6.00 Build 0)  -->
<svg version="1.1" id="Layer_1" xmlns="http://www.w3.org/2000/svg" xmlns:xlink="http://www.w3.org/1999/xlink" x="0px" y="0px"
	 width="32px" height="32px" viewBox="0 0 32 32" style="enable-background:new 0 0 32 32;" xml:space="preserve">
<style type="text/css">
	.st0{fill:none;}
	.st1{fill:#952524;}
</style>
<rect class="st0" width="32" height="32"/>
<g>
	<path class="st1" d="M25.32,13.71c-0.57,0-1.14,0.08-1.68,0.25l-0.07,0.02l-2.27-5.52l2.01-0.87c0.25-0.11,0.36-0.4,0.26-0.64
		c-0.11-0.25-0.4-0.36-0.64-0.26l-2.9,1.25l1.6,3.88l-0.04,0.04l-6.6,6.78l-4.03-9.77h2c0.27,0,0.49-0.22,0.49-0.49
		c0-0.27-0.22-0.49-0.49-0.49H8.97c-0.27,0-0.49,0.22-0.49,0.49c0,0.27,0.22,0.49,0.49,0.49h0.92l0.02,0.05l4.17,10.1h-1.59
		l-0.01-0.08c-0.29-2.99-2.78-5.25-5.79-5.25c-3.21,0-5.82,2.61-5.82,5.82c0,3.21,2.61,5.82,5.82,5.82c3.01,0,5.5-2.26,5.79-5.25
		l0.01-0.08h2.53l7-7.2l0.63,1.54l-0.07,0.04c-1.91,1.02-3.09,2.99-3.09,5.14c0,3.21,2.61,5.82,5.82,5.82s5.82-2.61,5.82-5.82
		C31.14,16.32,28.53,13.71,25.32,13.71 M7.08,20.02h4.4l-0.01,0.1c-0.3,2.42-2.35,4.25-4.78,4.25c-2.67,0-4.84-2.17-4.84-4.84
		c0-2.67,2.17-4.84,4.84-4.84c2.43,0,4.48,1.83,4.78,4.25l0.01,0.09h-4.4c-0.27,0-0.49,0.22-0.49,0.49S6.81,20.02,7.08,20.02
		 M25.32,24.37c-2.67,0-4.84-2.17-4.84-4.84c0-1.73,0.95-3.33,2.48-4.2l0.08-0.05l1.83,4.43c0.1,0.24,0.39,0.37,0.64,0.27
		c0.25-0.1,0.37-0.39,0.27-0.64l-1.83-4.43l0.09-0.03c0.48-0.13,0.89-0.19,1.28-0.19c2.67,0,4.84,2.17,4.84,4.84
		C30.16,22.2,27.99,24.37,25.32,24.37"/>
</g>
</svg>
