<?xml version="1.0" encoding="utf-8"?>
<!-- Generator: Adobe Illustrator 23.0.2, SVG Export Plug-In . SVG Version: 6.00 Build 0)  -->
<svg version="1.1" id="Layer_1" xmlns="http://www.w3.org/2000/svg" xmlns:xlink="http://www.w3.org/1999/xlink" x="0px" y="0px"
	 width="32px" height="32px" viewBox="0 0 32 32" style="enable-background:new 0 0 32 32;" xml:space="preserve">
<style type="text/css">
	.st0{fill:none;}
	.st1{fill:#962425;}
</style>
<rect class="st0" width="32" height="32"/>
<g>
	<path class="st1" d="M9.11,16.93c-0.63-0.81-1.67-0.96-2.52-0.36c-0.8,0.56-0.77,1.48-0.63,1.95c0.01,0.03,0.02,0.06,0.04,0.09
		l0.97,1.74c0.18,0.28,0.3,0.69,0.02,0.89c-0.29,0.21-0.6,0.06-0.78-0.15l-2.23-2.82l0-5.4c-0.05-0.6-0.49-1.73-1.78-1.73
		c-1.27,0-1.75,0.95-1.83,1.51l0,8.52c0,0.13,0.05,0.26,0.14,0.35l6.02,6.02v2.94h0.98v-3.15c0-0.13-0.05-0.25-0.14-0.35l-6.02-6.02
		l-0.01-8.23c0.03-0.16,0.17-0.61,0.86-0.61c0.52,0,0.76,0.43,0.8,0.79v5.53c0,0.11,0.04,0.22,0.11,0.31l2.34,2.96
		c0.39,0.47,1.27,0.94,2.12,0.33c0.96-0.69,0.5-1.82,0.24-2.19l-0.92-1.66c-0.03-0.16-0.07-0.57,0.27-0.8
		c0.64-0.45,1.07,0.01,1.19,0.16c0.28,0.36,2.02,2.64,3.06,4l0.69,0.9v8.03h0.98v-8.2c0-0.11-0.04-0.21-0.1-0.3
		C12.93,21.93,9.51,17.45,9.11,16.93"/>
	<path class="st1" d="M29.81,11.13c-1.29,0-1.73,1.13-1.78,1.79l0,5.34l-0.02,0.02l-2.2,2.78c-0.19,0.23-0.49,0.39-0.79,0.17
		c-0.23-0.17-0.22-0.51,0.04-0.93l0.95-1.7c0.02-0.03,0.03-0.06,0.04-0.1c0.14-0.46,0.17-1.39-0.63-1.94
		c-0.85-0.6-1.89-0.45-2.52,0.37c-0.4,0.52-3.82,4.99-3.85,5.04c-0.06,0.09-0.1,0.19-0.1,0.3v8.2h0.98v-8.03l1.1-1.44
		c1.04-1.36,2.4-3.14,2.65-3.46c0.24-0.31,0.68-0.52,1.19-0.16c0.35,0.25,0.29,0.67,0.27,0.8l-0.01,0.02l-0.88,1.59
		c-0.33,0.49-0.71,1.58,0.21,2.25c0.84,0.61,1.74,0.13,2.13-0.35l2.33-2.95c0.07-0.09,0.11-0.19,0.11-0.3l0-5.47
		c0.01-0.09,0.1-0.85,0.8-0.85c0.4,0,0.7,0.17,0.83,0.47l0.01,0.02l0,0.03v8.33l-6.02,6.02c-0.09,0.09-0.14,0.22-0.14,0.35v3.15
		h0.98v-2.94l6.02-6.02c0.09-0.09,0.14-0.22,0.14-0.35l-0.01-8.62C31.55,12.05,31.08,11.13,29.81,11.13"/>
	<path class="st1" d="M21.3,14.82H10.07c-0.48,0-0.87-0.39-0.87-0.87c0-2.63,2.14-4.77,4.77-4.77h3.42c2.63,0,4.78,2.14,4.78,4.77
		C22.17,14.43,21.78,14.82,21.3,14.82 M13.97,9.72c-2.33,0-4.23,1.9-4.23,4.23c0,0.18,0.15,0.32,0.32,0.32H21.3
		c0.18,0,0.32-0.15,0.32-0.32c0-2.33-1.9-4.23-4.23-4.23H13.97z"/>
	<path class="st1" d="M15.68,8.31c-1.87,0-3.39-1.52-3.39-3.39c0-1.87,1.52-3.39,3.39-3.39c1.87,0,3.39,1.52,3.39,3.39
		C19.07,6.79,17.55,8.31,15.68,8.31 M15.68,2.09c-1.56,0-2.84,1.27-2.84,2.84c0,1.56,1.27,2.84,2.84,2.84
		c1.56,0,2.84-1.27,2.84-2.84C18.52,3.36,17.25,2.09,15.68,2.09"/>
</g>
</svg>
