<?xml version="1.0" encoding="utf-8"?>
<!-- Generator: Adobe Illustrator 23.0.2, SVG Export Plug-In . SVG Version: 6.00 Build 0)  -->
<svg version="1.1" id="Layer_1" xmlns="http://www.w3.org/2000/svg" xmlns:xlink="http://www.w3.org/1999/xlink" x="0px" y="0px"
	 width="32px" height="32px" viewBox="0 0 32 32" style="enable-background:new 0 0 32 32;" xml:space="preserve">
<style type="text/css">
	.st0{fill:none;}
	.st1{fill:#962626;}
</style>
<g>
	<rect y="0" class="st0" width="32" height="32"/>
</g>
<g>
	<path class="st1" d="M12.51,31.3c-2.57,0-5.98-1.57-7.06-2.4c-0.47-0.36-0.66-0.69-0.58-1.01c0.11-0.47,0.76-0.6,0.84-0.61
		c0.02,0,0.75-0.11,2.17-0.8c1.46-0.72,6.08-1.79,6.42-1.87c0.71-0.25,1.61-0.47,1.91-0.15c0.07,0.07,0.17,0.23,0.06,0.49
		c-0.13,0.32-0.12,0.34,0.15,0.65c0.13,0.15,0.31,0.36,0.52,0.67c0.74,1.07,0.03,1.74-0.53,2.28l-0.1,0.1
		c-0.07,0.07-0.08,0.1-0.08,0.1c0.04,0.1,0.49,0.28,0.7,0.36c0.21,0.08,0.41,0.16,0.56,0.25c0.2,0.12,0.31,0.34,0.3,0.6
		c-0.01,0.34-0.23,0.67-0.54,0.82c-0.18,0.09-0.54,0.19-0.99-0.13c-0.4-0.28-0.4-0.28-0.7-0.14c-0.3,0.14-0.8,0.37-1.8,0.65
		C13.38,31.25,12.96,31.3,12.51,31.3 M15.72,24.79c-0.25,0-0.79,0.12-1.29,0.29l-0.03,0.01c-0.05,0.01-4.88,1.13-6.32,1.84
		c-1.5,0.74-2.28,0.85-2.31,0.85c-0.16,0.03-0.41,0.14-0.43,0.24c-0.01,0.06,0.05,0.23,0.4,0.49c1.28,0.98,5.57,2.82,7.87,2.16
		c0.95-0.27,1.44-0.49,1.72-0.63c0.53-0.25,0.63-0.21,1.15,0.15c0.23,0.16,0.39,0.19,0.53,0.12c0.16-0.08,0.25-0.26,0.26-0.4
		c0-0.07-0.02-0.12-0.06-0.15c-0.11-0.07-0.29-0.14-0.48-0.21c-0.46-0.18-0.94-0.37-1.01-0.73c-0.04-0.19,0.04-0.37,0.22-0.55
		l0.1-0.1c0.63-0.6,0.94-0.95,0.47-1.64c-0.2-0.29-0.36-0.47-0.49-0.62c-0.32-0.37-0.47-0.57-0.26-1.12
		C15.76,24.79,15.74,24.79,15.72,24.79"/>
	<path class="st1" d="M24.44,25.47c-0.75,0-1.67-0.49-2.51-1.36c-1.3-1.35-1.98-4.02-2.06-4.37c-0.19-0.37-0.16-0.76,0.09-1.09
		c0.74-0.98,3.32-1.43,5.41-0.95c0.86,0.2,1.44,0.61,1.7,1.2c0.44,1.01-0.2,2.17-0.23,2.22c0,0-0.61,1.68-1.03,3.2
		c-0.21,0.75-0.66,1.01-1,1.1C24.69,25.46,24.57,25.47,24.44,25.47 M23.59,18.01c-1.48,0-2.82,0.41-3.22,0.95
		c-0.14,0.19-0.15,0.37-0.04,0.58l0.02,0.07c0.01,0.03,0.68,2.86,1.94,4.17c0.83,0.86,1.79,1.33,2.39,1.18
		c0.31-0.08,0.53-0.33,0.64-0.75c0.42-1.55,1.05-3.26,1.06-3.28c0.02-0.05,0.57-1.03,0.22-1.81c-0.19-0.44-0.65-0.75-1.35-0.91
		C24.71,18.06,24.14,18.01,23.59,18.01"/>
	<path class="st1" d="M16.92,18.02c-0.28,0-0.5-0.02-0.62-0.05c-0.22-0.06-0.38-0.2-0.47-0.4c-0.25-0.53,0.09-1.35,0.15-1.49
		c0.22-0.68,1.26-0.48,2.26-0.29c0.25,0.05,0.5,0.1,0.71,0.13c0.56,0.07,1.96-0.2,2.99-0.4c0.7-0.14,1.25-0.24,1.53-0.25
		c0.47-0.02,0.64,0.27,0.68,0.39c0.13,0.4-0.19,0.93-0.78,1.32C22.64,17.46,18.6,18.02,16.92,18.02 M16.87,16.11
		c-0.21,0-0.37,0.04-0.4,0.13l-0.01,0.03c-0.13,0.29-0.28,0.84-0.16,1.09c0.03,0.07,0.08,0.1,0.16,0.13
		c0.69,0.2,5.94-0.46,6.66-0.93c0.47-0.31,0.61-0.65,0.58-0.75c-0.01-0.03-0.08-0.05-0.19-0.05c-0.24,0.01-0.83,0.12-1.45,0.24
		c-1.18,0.23-2.51,0.49-3.15,0.41c-0.22-0.03-0.48-0.08-0.75-0.13C17.8,16.22,17.24,16.11,16.87,16.11"/>
	<path class="st1" d="M8.89,20.73c-0.17,0-0.32-0.09-0.37-0.25c-0.07-0.06-0.5-0.08-0.87-0.01c-0.28,0.08-1.86,0.48-2.33-0.26
		c-0.11-0.17-0.13-0.36-0.05-0.52c0.24-0.5,1.35-0.65,1.68-0.69c2.18-0.27,2.53-0.08,2.86,0.26c0.04,0.04,0.07,0.08,0.12,0.11
		c0.15,0.1,0.21,0.28,0.16,0.46c-0.12,0.4-0.81,0.89-1.18,0.9H8.89z M8.14,19.93c0.33,0,0.66,0.06,0.81,0.29
		c0.19-0.05,0.54-0.32,0.64-0.48c-0.06-0.04-0.1-0.09-0.14-0.13c-0.16-0.16-0.35-0.36-2.44-0.11l0,0c-0.67,0.07-1.25,0.28-1.29,0.41
		c0.22,0.35,1.22,0.25,1.82,0.08C7.69,19.96,7.91,19.93,8.14,19.93"/>
	<path class="st1" d="M8.21,13.6c-0.16,0-0.39-0.07-0.6-0.37c-0.47-0.66,0-1.27,0.31-1.5l0.06-0.03c0.77-0.28,1.24-0.25,1.39,0.09
		c0.12,0.25-0.04,0.56-0.27,0.68c-0.07,0.04-0.15,0.31-0.16,0.54l0,0.06l-0.03,0.06c-0.03,0.05-0.29,0.45-0.68,0.47H8.21
		 M8.19,12.16c-0.12,0.1-0.44,0.41-0.17,0.79c0.07,0.1,0.13,0.18,0.2,0.16c0.07,0,0.17-0.09,0.24-0.18c0.01-0.21,0.09-0.7,0.41-0.89
		c0.01,0,0.02-0.01,0.03-0.02C8.8,12,8.6,12.01,8.19,12.16"/>
	<path class="st1" d="M4.66,9.63c-0.38,0-0.81-0.25-0.9-0.7c-0.1-0.5-0.7-1.05-1-1.26C2.63,7.57,2.31,7.3,1.92,6.96
		c-0.58-0.5-1.29-1.12-1.56-1.29c-0.38-0.25-0.29-0.48-0.24-0.57C0.27,4.84,0.76,4.86,1,5.01c0.09,0.05,1.68,0.96,2.31,1.82
		C3.56,7.15,3.95,7.4,4.32,7.65C4.87,8,5.39,8.33,5.39,8.88c0,0.42-0.26,0.71-0.65,0.75C4.71,9.63,4.68,9.63,4.66,9.63 M3.65,7.8
		c0.26,0.28,0.52,0.64,0.59,1.03c0.04,0.2,0.27,0.31,0.44,0.3c0.14-0.01,0.2-0.09,0.2-0.25c0-0.28-0.41-0.54-0.83-0.81
		C3.92,7.98,3.79,7.9,3.65,7.8 M1.33,5.79c0.29,0.24,0.61,0.52,0.91,0.79c0.3,0.26,0.59,0.51,0.73,0.63
		C2.96,7.18,2.93,7.15,2.91,7.12C2.56,6.65,1.84,6.13,1.33,5.79"/>
	<path class="st1" d="M18.26,11.18c-0.09,0-0.17-0.02-0.26-0.06c-0.2-0.1-0.34-0.32-0.46-0.7c-0.23-0.74-0.25-0.91-0.03-1.14
		c0.05-0.05,0.1-0.11,0.16-0.27c0.2-0.52-0.1-2.4-0.35-2.61c-0.04,0.01-0.33,0.11-0.55,0.18c-0.74,0.25-1.76,0.6-2.37,0.04
		c-0.14-0.13-0.28-0.24-0.4-0.35c-0.53-0.44-1.03-0.85-0.54-1.66c0.67-1.11,1.42-1.67,2.3-1.72c0.98-0.05,2.64-0.52,2.93-0.66
		c0.36-0.16,3.52-1.02,3.86-1.02c0.46,0,2.01,0.04,2.64,0.61c0.23,0.21,0.83,0.14,1.3,0.09c0.55-0.06,1.02-0.12,1.3,0.12
		c0.09,0.08,0.41,0.2,0.72,0.31c0.87,0.32,2.19,0.81,2.65,1.84c0.45,1,1.02,2.24,0.63,3.14c-0.17,0.39-0.5,0.67-0.99,0.84
		c-0.92,0.32-1.48-0.04-1.92-0.32c-0.42-0.27-0.76-0.48-1.38-0.24c-0.88,0.35-2.25,0.31-2.86-0.07c-0.27-0.17-0.34-0.37-0.35-0.51
		c-0.03-0.44-1.69-2.09-3.28-3.44c-0.27-0.17-0.81-0.39-1.02-0.26c-0.13,0.08-0.13,0.35-0.12,0.5c0.09,1.21,1.96,2.41,2.33,2.64
		c0.3-0.02,1.29-0.02,1.87,0.69c0.35,0.43,0.48,0.9,0.37,1.33c-0.09,0.34-0.32,0.6-0.63,0.72c-0.34,0.13-1.54,0.52-2.49,0.07
		C20.9,9.05,20.6,8.69,20.43,8.2c-0.21-0.62-0.18-1.05-0.17-1.29c-0.02,0-0.04,0.01-0.06,0.02c-0.18,0.05-0.37,0.08-0.54,0.1
		c-0.58,0.09-0.79,0.15-0.82,0.47c-0.01,0.13-0.03,0.25-0.05,0.37c-0.03,0.21-0.08,0.51-0.03,0.58c0,0,0.04,0.01,0.11,0.01
		c0.19-0.04,1.22-0.23,1.62,0.37c0.24,0.36,0.36,0.99,0.11,1.47c-0.18,0.36-0.54,0.56-1,0.57c-0.33,0.01-0.59,0.11-0.82,0.19
		C18.6,11.11,18.43,11.18,18.26,11.18 M17.36,5.9c0.04,0,0.07,0,0.1,0.01c0.14,0.03,0.25,0.13,0.35,0.3
		c0.33,0.59,0.57,2.34,0.33,2.96c-0.1,0.26-0.2,0.37-0.27,0.44c-0.03,0.09,0.09,0.5,0.14,0.66c0.1,0.33,0.18,0.39,0.21,0.4
		c0.06,0.03,0.22-0.03,0.38-0.09c0.25-0.09,0.57-0.21,0.98-0.22c0.28-0.01,0.47-0.1,0.57-0.3c0.15-0.29,0.07-0.73-0.08-0.96
		c-0.18-0.27-0.83-0.22-1.11-0.16l-0.03,0c-0.24,0.02-0.41-0.03-0.53-0.16c-0.21-0.23-0.16-0.58-0.1-1
		c0.02-0.11,0.04-0.23,0.05-0.35c0.08-0.73,0.7-0.82,1.24-0.91c0.16-0.02,0.33-0.05,0.5-0.09c0.2-0.05,0.42-0.1,0.57,0.03
		c0.14,0.12,0.13,0.28,0.12,0.46c-0.02,0.21-0.04,0.57,0.14,1.12c0.12,0.36,0.33,0.61,0.66,0.77c0.62,0.29,1.48,0.15,2.09-0.08
		c0.16-0.06,0.28-0.2,0.33-0.38c0.07-0.27-0.02-0.59-0.27-0.89c-0.51-0.62-1.5-0.5-1.51-0.5l-0.08,0.01l-0.07-0.04
		c-0.1-0.06-2.54-1.47-2.65-3.08c-0.03-0.47,0.09-0.8,0.36-0.96c0.55-0.32,1.4,0.18,1.57,0.29c0.82,0.69,3.42,2.96,3.48,3.8
		c0,0.02,0.03,0.07,0.11,0.12c0.43,0.27,1.6,0.35,2.41,0.03c0.85-0.34,1.37-0.01,1.83,0.28c0.43,0.27,0.8,0.5,1.49,0.27
		c0.35-0.12,0.58-0.31,0.69-0.57c0.3-0.69-0.21-1.82-0.63-2.73c-0.38-0.83-1.58-1.28-2.37-1.57c-0.41-0.15-0.71-0.27-0.88-0.41
		c-0.11-0.1-0.57-0.04-0.91,0c-0.61,0.07-1.3,0.15-1.7-0.21c-0.42-0.38-1.65-0.49-2.3-0.49c-0.28,0.01-3.33,0.82-3.65,0.97
		c-0.37,0.17-2.11,0.65-3.11,0.7c-0.71,0.04-1.32,0.51-1.9,1.48c-0.26,0.43-0.14,0.56,0.43,1.02c0.13,0.11,0.27,0.23,0.42,0.37
		c0.39,0.36,1.28,0.06,1.87-0.14C16.97,5.97,17.19,5.9,17.36,5.9"/>
	<path class="st1" d="M29.22,21.62c-0.07,0-0.14,0-0.2-0.01c-0.32-0.02-0.63-0.36-0.73-0.76c-0.11-0.48,0.13-0.93,0.62-1.21
		c0.76-0.43,1.08-0.22,1.21-0.05c0.16,0.21,0.12,0.52-0.09,0.73c-0.14,0.14-0.09,0.36-0.08,0.37l0.01,0.06
		c0.01,0.33-0.05,0.55-0.2,0.7C29.6,21.59,29.4,21.62,29.22,21.62 M29.72,19.88c-0.02,0-0.2-0.01-0.56,0.2
		c-0.38,0.21-0.42,0.48-0.38,0.66c0.05,0.22,0.21,0.37,0.27,0.37c0.11,0.01,0.3,0.02,0.35-0.03c0.03-0.03,0.06-0.12,0.05-0.29
		c-0.05-0.2-0.05-0.56,0.22-0.83C29.71,19.92,29.72,19.88,29.72,19.88"/>
	<path class="st1" d="M3.03,26.77H3.02c-0.14-0.01-0.24-0.13-0.23-0.27c0.02-0.38,0-0.73,0-0.73c-0.01-0.14,0.09-0.26,0.23-0.27
		c0.13-0.02,0.26,0.09,0.27,0.23c0,0.02,0.03,0.39,0,0.8C3.27,26.67,3.17,26.77,3.03,26.77"/>
	<path class="st1" d="M6.57,25.05H6.56c-0.38-0.03-0.73,0-0.73,0c-0.16,0-0.26-0.09-0.27-0.23c-0.01-0.14,0.09-0.26,0.23-0.27
		c0.01,0,0.38-0.03,0.8,0c0.14,0.01,0.24,0.13,0.23,0.27C6.81,24.95,6.71,25.05,6.57,25.05"/>
	<path class="st1" d="M0.62,17.73c-0.13,0-0.24-0.1-0.25-0.23c-0.01-0.14,0.09-0.26,0.23-0.27c0.01,0,0.38-0.03,0.8,0
		c0.14,0.01,0.24,0.13,0.23,0.27c-0.01,0.14-0.1,0.24-0.27,0.23c-0.38-0.03-0.73,0-0.73,0H0.62"/>
	<path class="st1" d="M8.32,24.03c-0.07,0-0.13-0.03-0.18-0.08c-0.09-0.1-0.09-0.26,0.02-0.35c0.01-0.01,0.28-0.26,0.63-0.49
		c0.12-0.08,0.27-0.05,0.35,0.06c0.08,0.11,0.05,0.27-0.06,0.35c-0.31,0.22-0.57,0.45-0.57,0.45C8.44,24,8.38,24.03,8.32,24.03"/>
	<path class="st1" d="M12.45,22.1c-0.07,0-0.15-0.03-0.2-0.09c-0.09-0.11-0.07-0.26,0.04-0.35c0.01-0.01,0.3-0.24,0.66-0.45
		c0.12-0.07,0.27-0.03,0.34,0.09c0.07,0.12,0.03,0.27-0.09,0.34c-0.33,0.19-0.6,0.41-0.6,0.41C12.56,22.08,12.5,22.1,12.45,22.1"/>
	<path class="st1" d="M2.89,17.75c-0.06,0-0.11-0.02-0.16-0.05l-0.09-0.07c-0.11-0.09-0.13-0.24-0.04-0.35
		c0.09-0.11,0.24-0.13,0.35-0.04l0.09,0.07c0.11,0.09,0.13,0.24,0.04,0.35C3.04,17.72,2.97,17.75,2.89,17.75"/>
	<path class="st1" d="M10.67,14.4c-0.12,0-0.22-0.03-0.29-0.06c-0.13-0.05-0.19-0.2-0.13-0.33c0.05-0.13,0.2-0.19,0.32-0.13
		c0.07,0.03,0.19,0.05,0.27-0.08c0.07-0.12,0.22-0.16,0.34-0.09c0.12,0.07,0.16,0.22,0.09,0.34C11.11,14.32,10.88,14.4,10.67,14.4"
		/>
	<path class="st1" d="M14.04,13.54c-0.13,0-0.24-0.03-0.31-0.07c-0.12-0.07-0.16-0.22-0.1-0.34c0.07-0.12,0.21-0.16,0.34-0.1
		c0.04,0.02,0.2,0.06,0.37-0.17c0.08-0.11,0.24-0.13,0.35-0.05c0.11,0.08,0.13,0.24,0.05,0.35C14.52,13.45,14.26,13.54,14.04,13.54"
		/>
	<path class="st1" d="M19.32,12.6c-0.2,0-0.32-0.07-0.35-0.1c-0.11-0.09-0.13-0.24-0.04-0.35c0.08-0.1,0.23-0.12,0.33-0.05
		c0.07,0.03,0.37,0.01,0.89-0.4c0.1-0.08,0.26-0.07,0.35,0.04c0.08,0.11,0.06,0.27-0.05,0.35C19.93,12.5,19.56,12.6,19.32,12.6"/>
	<path class="st1" d="M10.64,8.38c-0.05,0-0.1-0.02-0.15-0.05L9.99,7.98C9.88,7.9,9.85,7.74,9.93,7.63
		c0.08-0.11,0.23-0.14,0.35-0.06l0.51,0.36c0.11,0.08,0.14,0.24,0.06,0.35C10.8,8.35,10.72,8.38,10.64,8.38"/>
	<path class="st1" d="M13.15,7.35c-0.5,0-0.97-0.5-1.02-0.56c-0.09-0.1-0.09-0.26,0.02-0.35c0.1-0.09,0.26-0.09,0.35,0.02
		c0.12,0.14,0.48,0.41,0.67,0.39c0.16-0.02,0.26,0.09,0.27,0.23c0.01,0.14-0.09,0.26-0.23,0.27C13.19,7.35,13.17,7.35,13.15,7.35"/>
	<path class="st1" d="M10.32,3.01c-0.09,0-0.18-0.02-0.25-0.07c-0.13-0.09-0.21-0.23-0.2-0.38C9.86,2.52,9.72,2.38,9.6,2.3
		C9.4,2.11,8.84,1.54,9,1.09C9.08,0.86,9.3,0.73,9.66,0.7c0.38-0.02,0.7,0.07,0.92,0.29c0.37,0.35,0.37,0.89,0.36,0.96
		c0,0.65-0.21,0.9-0.39,1C10.48,2.99,10.4,3.01,10.32,3.01 M10.37,2.59L10.37,2.59L10.37,2.59z M9.78,1.2c-0.03,0-0.06,0-0.09,0
		C9.51,1.22,9.47,1.26,9.47,1.26c-0.02,0.09,0.2,0.42,0.44,0.65c0.08,0.05,0.39,0.27,0.45,0.56c0.03-0.07,0.08-0.22,0.08-0.53V1.94
		c0-0.01,0-0.38-0.21-0.59C10.13,1.25,9.98,1.2,9.78,1.2"/>
</g>
</svg>
