<?xml version="1.0" encoding="utf-8"?>
<!-- Generator: Adobe Illustrator 23.0.2, SVG Export Plug-In . SVG Version: 6.00 Build 0)  -->
<svg version="1.1" id="Layer_1" xmlns="http://www.w3.org/2000/svg" xmlns:xlink="http://www.w3.org/1999/xlink" x="0px" y="0px"
	 width="32px" height="32px" viewBox="0 0 32 32" style="enable-background:new 0 0 32 32;" xml:space="preserve">
<style type="text/css">
	.st0{fill:none;}
	.st1{fill:#952524;}
</style>
<rect class="st0" width="32" height="32"/>
<g>
	<path class="st1" d="M27.26,11.4c-0.32,0-0.58,0.19-0.58,0.43c0,0.24,0.26,0.43,0.58,0.43c0.32,0,0.58-0.19,0.58-0.43
		C27.83,11.59,27.58,11.4,27.26,11.4"/>
	<path class="st1" d="M29.09,8.84c-1.4-1.91-2.72-2.81-6.03-2.38c-0.69-0.37-3.45-1.75-5.29-0.84c-0.86,0.42-1.39,1.25-1.56,2.47
		c-0.11,0.22-0.68,1.18-2.43,1.18H7.94C7.9,9.3,6.63,9.28,5.69,10.21C5.3,10.6,5.03,11.1,4.88,11.68c-0.35-0.01-0.82,0.04-1.25,0.36
		C3,12.51,2.68,13.38,2.68,14.62c0,0.77-0.08,1.36-0.2,1.82c-0.44,0.17-1.74,0.79-2.06,2.28c-0.02,0.08,0,0.15,0.04,0.22
		c0.04,0.06,0.11,0.1,0.19,0.11c0.01,0,0.09,0.01,0.21,0.01c0.32,0,0.95-0.06,1.44-0.51c0.46-0.41,0.69-1.04,0.68-1.86
		c0.15-0.53,0.24-1.2,0.24-2.07c0-1.05,0.24-1.77,0.72-2.13c0.26-0.2,0.57-0.25,0.81-0.26c-0.03,0.23-0.05,0.46-0.05,0.71l0,0.67
		C4.7,15.91,4.7,16,5.58,17.46l0.25,0.41c0.04,0.07,0.09,0.13,0.13,0.19c-0.07,0.49-0.31,2.11-0.94,4.53
		c-0.52,2.02-0.7,3.37-0.51,3.79c0.08,0.18,0.26,0.29,0.46,0.29h2.87c0.23,0,0.44-0.16,0.49-0.39c0.06-0.28,0.21-0.81,0.4-1.35v1.24
		c0,0.28,0.22,0.5,0.5,0.5h3.3c0.27,0,0.5-0.22,0.5-0.49c0.03-1.91,0.19-4.16,0.36-4.73h2.05c-0.26,1.11-0.76,3.42-0.76,4.72
		c0,0.28,0.22,0.5,0.5,0.5h2.97c0.24,0,0.44-0.17,0.49-0.4c0-0.02,0.27-1.27,0.64-2.39l1.71,2.56c0.09,0.14,0.25,0.22,0.41,0.22
		h2.99c0.18,0,0.35-0.1,0.43-0.25c0.09-0.16,0.09-0.35-0.01-0.5c-0.02-0.04-2.37-4.03-2.44-8.21c0.12-0.08,0.23-0.17,0.33-0.29
		c0.28-0.33,0.45-0.79,0.55-1.31c0.38,0.34,0.9,0.6,1.58,0.6c0.17,0,0.35,0,0.54-0.01c0.95-0.02,2.03-0.05,2.61,0.5
		c0.32,0.31,0.48,0.78,0.49,1.45c0.04,2.55-0.91,3.52-0.95,3.57l-0.83,0.95c-0.33,0.41-0.49,1.06-0.04,1.51
		c0.42,0.42,0.99,0.43,1.4,0.23l0,0c0,0,0.04-0.02,0.09-0.06c0.01-0.01,0.02-0.01,0.03-0.02c0.21-0.13,0.63-0.38,0.89-0.61h0
		c0.88-0.68,2.17-2.14,2.43-5.44C31.95,13.39,29.96,10.03,29.09,8.84 M7.45,25.68H5.44c0.03-0.41,0.14-1.25,0.55-2.84
		c0.41-1.57,0.65-2.8,0.8-3.64c0.01,0.01,0.02,0.03,0.03,0.04c0.79,1,1.54,1.98,1.8,3.71C8.03,23.71,7.62,25.01,7.45,25.68
		 M17.75,25.68H15.7c0.11-1.35,0.57-3.39,0.76-4.22h1.18l0.94,1.41C18.21,23.81,17.89,25.05,17.75,25.68 M23.56,25.68h-1.88l-3.35-5
		c-0.09-0.14-0.25-0.22-0.41-0.22h-4.79c-0.11,0-0.21,0.03-0.29,0.1c-0.17,0.13-0.69,0.5-0.8,5.12H9.73v-1.07
		c0.01-0.55-0.02-1.03-0.07-1.48c0-0.06-0.01-0.11-0.02-0.17c-0.28-2.1-1.19-3.28-2.02-4.33c-0.34-0.43-0.65-0.83-0.92-1.28
		l-0.25-0.42C5.7,15.72,5.7,15.72,5.7,13.62l0-0.68c0-2.58,2-2.67,2.23-2.67h5.84c1.17,0,1.95-0.35,2.47-0.75
		c0.48,7.82,4.72,8.41,5.16,8.45C21.52,21.26,22.86,24.31,23.56,25.68 M30.53,18.72c-0.24,3.1-1.46,4.32-2.2,4.83l0,0
		c-0.25,0.19-0.64,0.42-0.68,0.44c0,0,0,0-0.01,0c0,0,0,0,0,0c-0.06,0.03-0.16,0.08-0.25,0.01c0-0.04,0.05-0.14,0.08-0.19l0.78-0.9
		c0.05-0.05,1.29-1.24,1.24-4.27c-0.02-0.94-0.29-1.67-0.8-2.16c-0.88-0.85-2.24-0.81-3.33-0.78c-0.18,0-0.35,0.01-0.51,0.01
		c-1.03,0-1.38-0.95-1.45-1.16c0-1.48-0.28-2.94-0.34-3.21c-0.06-0.27-0.32-0.44-0.59-0.39c-0.27,0.05-0.45,0.32-0.39,0.59
		c0.32,1.58,0.57,4.41-0.14,5.23c-0.13,0.15-0.26,0.21-0.46,0.2c-0.04,0-4.24-0.37-4.3-8.72c0.12-0.89,0.45-1.47,1.01-1.74
		c1.32-0.65,3.7,0.42,4.5,0.89c0.1,0.05,0.21,0.08,0.32,0.06c2.98-0.42,3.99,0.23,5.25,1.96C29.09,10.54,30.93,13.65,30.53,18.72"/>
</g>
</svg>
