<?xml version="1.0" encoding="utf-8"?>
<!-- Generator: Adobe Illustrator 23.0.2, SVG Export Plug-In . SVG Version: 6.00 Build 0)  -->
<svg version="1.1" id="Layer_1" xmlns="http://www.w3.org/2000/svg" xmlns:xlink="http://www.w3.org/1999/xlink" x="0px" y="0px"
	 width="32px" height="32px" viewBox="0 0 32 32" style="enable-background:new 0 0 32 32;" xml:space="preserve">
<style type="text/css">
	.st0{fill:none;}
	.st1{fill:#952625;}
</style>
<rect y="0" class="st0" width="32" height="32"/>
<g>
	<g>
		<g>
			<path class="st1" d="M17.93,20.88h-0.98v-2.33c0-1.46,1.22-2.11,1.87-2.25c6.87-1.59,12.02,2.95,12.23,3.14
				c0.1,0.09,0.16,0.23,0.16,0.36v0.84h-0.98v-0.61c-0.91-0.73-5.48-4.1-11.2-2.78c-0.11,0.03-1.1,0.29-1.1,1.3V20.88z"/>
		</g>
		<g>
			<path class="st1" d="M21.75,25.8c-0.93,0-1.91-0.1-2.93-0.34c-0.64-0.14-1.86-0.8-1.86-2.25v-2.34h0.98v2.34
				c0,1.01,0.99,1.27,1.1,1.3c5.74,1.32,10.3-2.05,11.2-2.78v-1.27h0.98v1.5c0,0.14-0.06,0.27-0.16,0.36
				C30.87,22.49,27.1,25.8,21.75,25.8z"/>
		</g>
	</g>
	<g>
		<rect x="19.3" y="16.77" class="st1" width="0.52" height="8.18"/>
	</g>
	<g>
		<rect x="27.77" y="17.91" class="st1" width="0.52" height="5.81"/>
	</g>
	<g>
		<path class="st1" d="M8.14,11.98c-1.21,0-2.53-0.08-2.91-0.42l0.34-0.39c0.33,0.29,2.46,0.35,4.4,0.24v-1.37
			C7.27,10.1,6.5,9.77,6.46,9.75l0.2-0.48c0.01,0,0.81,0.31,3.56,0.24c0.07,0,0.14,0.02,0.19,0.07c0.05,0.05,0.08,0.12,0.08,0.19
			v1.88c0,0.14-0.11,0.25-0.24,0.26C9.94,11.93,9.08,11.98,8.14,11.98z"/>
	</g>
	<g>
		<path class="st1" d="M15.25,16.71h-1.44c-0.55,0-0.99-0.44-0.99-0.99V9.85c0-0.55,0.44-0.99,0.99-0.99h1.44
			c0.55,0,0.99,0.44,0.99,0.99v5.87C16.24,16.26,15.8,16.71,15.25,16.71z M13.81,9.38c-0.26,0-0.47,0.21-0.47,0.47v5.87
			c0,0.26,0.21,0.47,0.47,0.47h1.44c0.26,0,0.47-0.21,0.47-0.47V9.85c0-0.26-0.21-0.47-0.47-0.47H13.81z"/>
	</g>
	<g>
		<path class="st1" d="M19.45,11.58c-0.43,0-0.77-0.35-0.77-0.77V9.95c0-0.43,0.35-0.77,0.77-0.77s0.77,0.35,0.77,0.77v0.86
			C20.23,11.24,19.88,11.58,19.45,11.58z M19.45,9.69c-0.14,0-0.25,0.11-0.25,0.25v0.86c0,0.14,0.11,0.25,0.25,0.25
			s0.25-0.11,0.25-0.25V9.95C19.71,9.81,19.59,9.69,19.45,9.69z"/>
	</g>
	<g>
		<path class="st1" d="M22.68,11.58c-0.43,0-0.77-0.35-0.77-0.77V9.95c0-0.43,0.35-0.77,0.77-0.77s0.77,0.35,0.77,0.77v0.86
			C23.45,11.24,23.11,11.58,22.68,11.58z M22.68,9.69c-0.14,0-0.25,0.11-0.25,0.25v0.86c0,0.14,0.11,0.25,0.25,0.25
			s0.25-0.11,0.25-0.25V9.95C22.93,9.81,22.82,9.69,22.68,9.69z"/>
	</g>
	<g>
		<path class="st1" d="M25.91,11.58c-0.43,0-0.77-0.35-0.77-0.77V9.95c0-0.43,0.35-0.77,0.77-0.77s0.77,0.35,0.77,0.77v0.86
			C26.68,11.24,26.33,11.58,25.91,11.58z M25.91,9.69c-0.14,0-0.25,0.11-0.25,0.25v0.86c0,0.14,0.11,0.25,0.25,0.25
			s0.25-0.11,0.25-0.25V9.95C26.16,9.81,26.05,9.69,25.91,9.69z"/>
	</g>
	<g>
		<path class="st1" d="M29.13,11.58c-0.43,0-0.77-0.35-0.77-0.77V9.95c0-0.43,0.35-0.77,0.77-0.77s0.77,0.35,0.77,0.77v0.86
			C29.91,11.24,29.56,11.58,29.13,11.58z M29.13,9.69c-0.14,0-0.25,0.11-0.25,0.25v0.86c0,0.14,0.11,0.25,0.25,0.25
			s0.25-0.11,0.25-0.25V9.95C29.39,9.81,29.27,9.69,29.13,9.69z"/>
	</g>
	<path class="st1" d="M5.72,11.59c0.11-0.06,0.2-0.16,0.24-0.28c1.25-3.75,6.31-4.13,6.33-4.13h19.09V6.2l-19.12,0
		c-0.23,0.01-5.61,0.41-7.16,4.61c-0.9,0.49-4.83,2.78-4.45,5.4c0.29,2.04,2.97,3.57,8.23,4.67c0.22,0.04,1.38,0.24,2.46,0.24h6.16
		v-0.98l-6.29,0.01c-0.46,0-1.34-0.08-1.51-0.09c-6.36-1.24-7.92-2.84-8.08-3.98C1.35,14.25,4.49,12.22,5.72,11.59z"/>
</g>
</svg>
