<?xml version="1.0" encoding="utf-8"?>
<!-- Generator: Adobe Illustrator 23.0.2, SVG Export Plug-In . SVG Version: 6.00 Build 0)  -->
<svg version="1.1" id="Layer_1" xmlns="http://www.w3.org/2000/svg" xmlns:xlink="http://www.w3.org/1999/xlink" x="0px" y="0px"
	 width="32px" height="32px" viewBox="0 0 32 32" style="enable-background:new 0 0 32 32;" xml:space="preserve">
<style type="text/css">
	.st0{fill:none;}
	.st1{fill:#952524;}
</style>
<g>
	<rect y="0" class="st0" width="32" height="32"/>
</g>
<g>
	<path class="st1" d="M32,17.56l-0.26-0.34c-1.79-2.36-4.73-2.26-5.94-2.11c-0.97-3.46-3.77-7.17-4.63-8.26l1.14-0.94l0.02-0.02
		l-0.51-0.62l-0.02-0.02l-4.96,4.11l-0.08,0.07l0.51,0.62l0.02,0.02l1.6-1.32l1.92,3.05c0.82,1.31,0.55,3.27,0.55,3.29
		c-0.6,4-4.75,3.57-5.22,3.51c-1.28-0.32-2.08-0.85-2.36-1.57c-0.41-1.05,0.32-2.35,0.66-2.86c0.28-0.42,0.38-0.92,0.28-1.4
		c-0.49-2.43-2.99-2.72-3.02-2.72l-3.91,0c-6.53,0-7.66,9.97-7.71,10.4L0,20.99h3.74c-0.1,0.38-0.15,0.77-0.15,1.16
		c0,2.53,2.06,4.59,4.59,4.59c2.33,0,4.33-1.81,4.56-4.13h9.58c0.23,2.32,2.23,4.13,4.56,4.13c2.53,0,4.59-2.06,4.59-4.59
		c0-1.07-0.38-2.12-1.08-2.95l1.59-1.62L32,17.56z M8.18,18.53c1.99,0,3.61,1.62,3.61,3.61c0,1.99-1.62,3.61-3.61,3.61
		s-3.61-1.62-3.61-3.61C4.57,20.15,6.19,18.53,8.18,18.53z M13.6,13.63c-0.52,0.79-1.3,2.34-0.75,3.76
		c0.41,1.04,1.43,1.77,3.06,2.17l0.04,0.01c0.23,0.03,5.6,0.68,6.36-4.34c0.03-0.24,0.29-2.38-0.69-3.95l-1.99-3.16l0.77-0.63
		c0.89,1.13,3.77,4.95,4.55,8.3l0.1,0.45l0.01,0.02l0.47-0.1c0.03-0.01,3.26-0.67,5.15,1.34l-1,1.02c-0.8-0.62-1.79-0.96-2.8-0.96
		c-2.3,0-4.3,1.79-4.56,4.07h-9.58c-0.26-2.29-2.26-4.07-4.56-4.07c-1.7,0-3.26,0.94-4.06,2.45H1.11c0.35-2.15,1.83-8.98,6.66-8.98
		h3.83l0.01,0c0.27,0,1.8,0.36,2.12,1.94C13.78,13.18,13.73,13.43,13.6,13.63z M26.88,25.75c-1.99,0-3.61-1.62-3.61-3.61
		c0-1.99,1.62-3.61,3.61-3.61c1.99,0,3.61,1.62,3.61,3.61C30.49,24.13,28.87,25.75,26.88,25.75z"/>
</g>
</svg>
