<?xml version="1.0" encoding="utf-8"?>
<!-- Generator: Adobe Illustrator 23.0.2, SVG Export Plug-In . SVG Version: 6.00 Build 0)  -->
<svg version="1.1" id="Layer_1" xmlns="http://www.w3.org/2000/svg" xmlns:xlink="http://www.w3.org/1999/xlink" x="0px" y="0px"
	 width="32px" height="32px" viewBox="0 0 32 32" style="enable-background:new 0 0 32 32;" xml:space="preserve">
<style type="text/css">
	.st0{fill:none;}
	.st1{fill:#952624;}
</style>
<rect class="st0" width="32" height="32"/>
<g>
	<path class="st1" d="M25.91,0.86H6.09c-2.88,0-5.23,2.35-5.23,5.23v19.81c0,2.88,2.35,5.23,5.23,5.23h19.81
		c2.88,0,5.23-2.35,5.23-5.23V6.09C31.14,3.21,28.79,0.86,25.91,0.86z M30.16,25.91c0,2.34-1.91,4.25-4.25,4.25H6.09
		c-2.34,0-4.25-1.91-4.25-4.25V6.09c0-2.34,1.91-4.25,4.25-4.25h19.81c2.34,0,4.25,1.91,4.25,4.25V25.91z"/>
	<g>
		<path class="st1" d="M13.95,19.42c-0.1-0.24-0.3-0.43-0.54-0.53c-0.25-0.1-0.52-0.09-0.76,0.01l-4.11,1.76
			c-0.5,0.21-0.73,0.8-0.52,1.3l1.76,4.11c0.16,0.36,0.51,0.6,0.91,0.6c0.14,0,0.27-0.03,0.39-0.08l4.11-1.76
			c0.24-0.1,0.43-0.3,0.53-0.54c0.1-0.25,0.1-0.52-0.01-0.76L13.95,19.42z M10.25,25.87l-1.76-4.11c-0.05-0.12-0.05-0.25,0-0.38
			c0.05-0.12,0.14-0.22,0.26-0.27l4.1-1.76c0.06-0.03,0.13-0.04,0.19-0.04c0.2,0,0.37,0.12,0.45,0.3l1.76,4.11
			c0.05,0.12,0.05,0.25,0.01,0.37c-0.05,0.12-0.14,0.22-0.26,0.27l-4.1,1.76C10.64,26.23,10.35,26.12,10.25,25.87z"/>
		<path class="st1" d="M25.11,19.06c-0.1-0.25-0.3-0.43-0.54-0.53l-4.15-1.66c-0.51-0.2-1.08,0.05-1.29,0.55l-1.66,4.15
			c-0.1,0.25-0.09,0.52,0.01,0.76c0.1,0.24,0.3,0.43,0.54,0.53l4.15,1.66c0.12,0.05,0.25,0.07,0.37,0.07c0.13,0,0.27-0.03,0.39-0.08
			c0.24-0.11,0.43-0.3,0.53-0.54l1.66-4.15C25.22,19.57,25.21,19.3,25.11,19.06z M24.65,19.63l-1.66,4.15
			c-0.05,0.12-0.14,0.22-0.26,0.27c-0.12,0.05-0.25,0.05-0.38,0.01l-4.15-1.66c-0.25-0.1-0.37-0.39-0.27-0.64l1.66-4.15
			c0.08-0.19,0.26-0.31,0.46-0.31c0.06,0,0.12,0.01,0.18,0.03L24.38,19c0.12,0.05,0.22,0.14,0.27,0.26
			C24.7,19.38,24.7,19.51,24.65,19.63z"/>
		<path class="st1" d="M25.19,6.19H6.81v8.74h18.38V6.19z M7.28,14.43V6.69h17.44v7.74H7.28z"/>
	</g>
</g>
</svg>
