<?xml version="1.0" encoding="utf-8"?>
<!-- Generator: Adobe Illustrator 23.0.2, SVG Export Plug-In . SVG Version: 6.00 Build 0)  -->
<svg version="1.1" id="Layer_1" xmlns="http://www.w3.org/2000/svg" xmlns:xlink="http://www.w3.org/1999/xlink" x="0px" y="0px"
	 width="32px" height="32px" viewBox="0 0 32 32" style="enable-background:new 0 0 32 32;" xml:space="preserve">
<style type="text/css">
	.st0{fill:none;}
	.st1{fill:#952524;}
</style>
<rect class="st0" width="32" height="32"/>
<g>
	<path class="st1" d="M22.87,0.22H9.13c-1.39,0-2.52,1.13-2.52,2.52v26.5c0,1.39,1.13,2.52,2.52,2.52h13.74
		c1.39,0,2.52-1.13,2.52-2.52V2.75C25.39,1.36,24.26,0.22,22.87,0.22 M24.41,29.25c0,0.85-0.69,1.54-1.54,1.54H9.13
		c-0.85,0-1.54-0.69-1.54-1.54V12.7h16.83V29.25z M24.41,11.72H7.59V2.75c0-0.85,0.69-1.54,1.54-1.54h13.74
		c0.85,0,1.54,0.69,1.54,1.54V11.72z"/>
	<rect x="10.53" y="3.67" class="st1" width="0.52" height="5.31"/>
	<rect x="10.54" y="14.85" class="st1" width="0.52" height="6.87"/>
</g>
</svg>
