<?xml version="1.0" encoding="utf-8"?>
<!-- Generator: Adobe Illustrator 23.0.2, SVG Export Plug-In . SVG Version: 6.00 Build 0)  -->
<svg version="1.1" id="Layer_1" xmlns="http://www.w3.org/2000/svg" xmlns:xlink="http://www.w3.org/1999/xlink" x="0px" y="0px"
	 width="32px" height="32px" viewBox="0 0 32 32" style="enable-background:new 0 0 32 32;" xml:space="preserve">
<style type="text/css">
	.st0{fill:none;}
	.st1{fill:#952524;}
</style>
<rect class="st0" width="32" height="32"/>
<g>
	<path class="st1" d="M26.93,26.45H8.2V5.21h2.5v0.35c0,1.75,1.42,3.17,3.17,3.17h8.79c1.75,0,3.17-1.42,3.17-3.17V2.72
		c0-1.33-1.08-2.41-2.41-2.41H12.06h-0.43H8.2h-1H4.83c-1.28,0-2.31,1.04-2.31,2.32v29.06H7.2h1h21.29v-2.68
		C29.49,27.6,28.34,26.45,26.93,26.45 M28.49,30.69H9.32H8.2h-1H6.79H3.51V2.63c0-0.72,0.59-1.32,1.31-1.32h2.16H7.2h1h2.5h1h0.35
		h11.36c0.78,0,1.41,0.63,1.41,1.41v2.84c0,1.2-0.97,2.17-2.17,2.17h-8.79c-1.2,0-2.17-0.97-2.17-2.17V4.21h-0.5h-0.5H8.2h-1v1
		v21.24v1h1h1.11h17.61c0.86,0,1.56,0.7,1.56,1.56V30.69z"/>
	<path class="st1" d="M25.16,11.14L25.16,11.14c-0.02-0.01-0.03-0.01-0.05-0.02c-0.6-0.18-1.06-0.2-1.08-0.2H24h-0.27H12.57v2.67
		c-0.76,0.19-1.33,0.87-1.33,1.69v6.68c0,0.96,0.78,1.75,1.75,1.75h10.58c0.96,0,1.75-0.78,1.75-1.75v-6.68
		c0-0.81-0.56-1.49-1.31-1.69v-1.42v-0.71c0,0,0.48,0.02,1.04,0.2l0,0c0.03,0.01,0.06,0.02,0.09,0.03c0.03,0.01,0.06,0.02,0.1,0.03
		l-0.01,0c0.99,0.34,2.21,1.16,2.21,3.15v5.31h0.55v-5.31C27.99,12.42,26.33,11.49,25.16,11.14z M13.12,11.47h10.34v2.07H13.12
		V11.47z M24.76,15.28v6.68c0,0.66-0.54,1.2-1.2,1.2H12.99c-0.66,0-1.2-0.54-1.2-1.2v-6.68c0-0.64,0.51-1.16,1.15-1.19h10.68
		C24.25,14.12,24.76,14.64,24.76,15.28z"/>
</g>
</svg>
