<?xml version="1.0" encoding="utf-8"?>
<!-- Generator: Adobe Illustrator 23.0.2, SVG Export Plug-In . SVG Version: 6.00 Build 0)  -->
<svg version="1.1" id="Layer_1" xmlns="http://www.w3.org/2000/svg" xmlns:xlink="http://www.w3.org/1999/xlink" x="0px" y="0px"
	 width="32px" height="32px" viewBox="0 0 32 32" style="enable-background:new 0 0 32 32;" xml:space="preserve">
<style type="text/css">
	.st0{fill:none;}
	.st1{fill:#952624;}
</style>
<rect class="st0" width="32" height="32"/>
<g>
	<path class="st1" d="M27.94,0.55H4.06c-1.53,0-2.77,1.24-2.77,2.77v23.87c0,1.53,1.24,2.77,2.77,2.77h23.87
		c1.53,0,2.77-1.24,2.77-2.77V3.32C30.71,1.79,29.46,0.55,27.94,0.55 M29.73,27.19c0,0.99-0.8,1.79-1.79,1.79H4.06
		c-0.99,0-1.79-0.8-1.79-1.79V3.32c0-0.99,0.8-1.79,1.79-1.79h23.87c0.99,0,1.79,0.8,1.79,1.79V27.19z"/>
	<path class="st1" d="M8.4,30.47H6.76c-0.27,0-0.49,0.22-0.49,0.49c0,0.27,0.22,0.49,0.49,0.49H8.4c0.27,0,0.49-0.22,0.49-0.49
		C8.89,30.69,8.67,30.47,8.4,30.47"/>
	<path class="st1" d="M25.24,30.47H23.6c-0.27,0-0.49,0.22-0.49,0.49c0,0.27,0.22,0.49,0.49,0.49h1.64c0.27,0,0.49-0.22,0.49-0.49
		C25.73,30.69,25.51,30.47,25.24,30.47"/>
	<g>
		<path class="st1" d="M9.15,6.64c-1.39,0-2.52,1.13-2.52,2.52c0,1.39,1.13,2.52,2.52,2.52c1.39,0,2.52-1.13,2.52-2.52
			C11.67,7.77,10.54,6.64,9.15,6.64z M9.15,11.14c-1.1,0-1.99-0.89-1.99-1.99c0-1.1,0.89-1.99,1.99-1.99c1.1,0,1.99,0.89,1.99,1.99
			C11.14,10.25,10.25,11.14,9.15,11.14z"/>
		<path class="st1" d="M22.61,6.64c-1.39,0-2.52,1.13-2.52,2.52c0,1.39,1.13,2.52,2.52,2.52c1.39,0,2.52-1.13,2.52-2.52
			C25.13,7.77,24,6.64,22.61,6.64z M22.61,11.14c-1.1,0-1.99-0.89-1.99-1.99c0-1.1,0.89-1.99,1.99-1.99c1.1,0,1.99,0.89,1.99,1.99
			C24.6,10.25,23.71,11.14,22.61,11.14z"/>
		<path class="st1" d="M11.24,11.48c0.01-0.01,0.02-0.01,0.02-0.02C11.26,11.46,11.25,11.47,11.24,11.48
			C11.24,11.47,11.24,11.48,11.24,11.48z"/>
		<path class="st1" d="M9.15,19.04c-1.39,0-2.52,1.13-2.52,2.52c0,1.39,1.13,2.51,2.52,2.51c1.39,0,2.52-1.13,2.52-2.51
			C11.67,20.17,10.54,19.04,9.15,19.04z M9.15,23.54c-1.1,0-1.99-0.89-1.99-1.99c0-1.1,0.89-1.99,1.99-1.99
			c1.1,0,1.99,0.89,1.99,1.99C11.14,22.65,10.25,23.54,9.15,23.54z"/>
		<path class="st1" d="M11.24,23.69c0.01-0.01,0.02-0.01,0.03-0.02C11.26,23.67,11.25,23.67,11.24,23.69
			C11.24,23.68,11.24,23.68,11.24,23.69z"/>
		<path class="st1" d="M22.61,19.04c-1.39,0-2.52,1.13-2.52,2.52c0,1.39,1.13,2.51,2.52,2.51s2.52-1.13,2.52-2.51
			C25.13,20.17,24,19.04,22.61,19.04z M22.61,23.54c-1.1,0-1.99-0.89-1.99-1.99c0-1.1,0.89-1.99,1.99-1.99
			c1.1,0,1.99,0.89,1.99,1.99C24.6,22.65,23.71,23.54,22.61,23.54z"/>
		<path class="st1" d="M24.94,23.69c0.01-0.01,0.02-0.02,0.03-0.03C24.96,23.67,24.95,23.67,24.94,23.69
			C24.94,23.68,24.94,23.69,24.94,23.69z"/>
		<path class="st1" d="M24.94,11.48c0.01-0.01,0.02-0.02,0.03-0.02C24.96,11.46,24.95,11.46,24.94,11.48
			C24.94,11.47,24.94,11.48,24.94,11.48z"/>
		<path class="st1" d="M25.73,4.37h-6.24c-0.92,0-1.67,0.75-1.67,1.67v6.24c0,0.92,0.75,1.67,1.67,1.67h6.24
			c0.92,0,1.67-0.75,1.67-1.67V6.04C27.4,5.12,26.65,4.37,25.73,4.37z M19.49,13.41c-0.21,0-0.4-0.07-0.56-0.17L20,12.17
			c0.1-0.1,0.1-0.27,0-0.38s-0.27-0.1-0.38,0l-1.07,1.07c-0.11-0.18-0.19-0.37-0.19-0.59V6.04c0-0.22,0.08-0.42,0.19-0.59l1.07,1.07
			c0.05,0.05,0.12,0.08,0.19,0.08S19.95,6.57,20,6.52c0.1-0.1,0.1-0.27,0-0.38l-1.07-1.07c0.17-0.1,0.35-0.17,0.56-0.17h6.24
			c0.21,0,0.4,0.07,0.57,0.17l-1.07,1.07c-0.1,0.1-0.1,0.27,0,0.38c0.05,0.05,0.12,0.08,0.19,0.08s0.14-0.03,0.19-0.08l1.07-1.07
			c0.11,0.18,0.19,0.37,0.19,0.59v6.24c0,0.22-0.08,0.42-0.19,0.59l-1.07-1.07c-0.1-0.1-0.27-0.1-0.38,0s-0.1,0.27,0,0.38l1.07,1.07
			c-0.17,0.1-0.36,0.17-0.57,0.17H19.49z"/>
		<path class="st1" d="M11.48,11.48c0.01-0.01,0.02-0.02,0.03-0.02C11.5,11.46,11.49,11.46,11.48,11.48
			C11.48,11.47,11.48,11.48,11.48,11.48z"/>
		<path class="st1" d="M12.27,4.37H6.03c-0.92,0-1.67,0.75-1.67,1.67v6.24c0,0.92,0.75,1.67,1.67,1.67h6.24
			c0.92,0,1.67-0.75,1.67-1.67V6.04C13.94,5.12,13.19,4.37,12.27,4.37z M6.03,13.41c-0.21,0-0.4-0.07-0.56-0.17l1.07-1.07
			c0.1-0.1,0.1-0.27,0-0.38s-0.27-0.1-0.38,0l-1.07,1.07C4.98,12.69,4.9,12.5,4.9,12.27V6.04c0-0.22,0.08-0.42,0.19-0.59l1.07,1.07
			c0.05,0.05,0.12,0.08,0.19,0.08s0.14-0.03,0.19-0.08c0.1-0.1,0.1-0.27,0-0.38L5.47,5.07C5.64,4.97,5.82,4.9,6.03,4.9h6.24
			c0.21,0,0.4,0.07,0.56,0.17l-1.07,1.07c-0.1,0.1-0.1,0.27,0,0.38c0.05,0.05,0.12,0.08,0.19,0.08s0.14-0.03,0.19-0.08l1.07-1.07
			c0.11,0.18,0.19,0.37,0.19,0.59v6.24c0,0.22-0.08,0.42-0.19,0.59l-1.07-1.07c-0.1-0.1-0.27-0.1-0.38,0s-0.1,0.27,0,0.38l1.07,1.07
			c-0.17,0.1-0.35,0.17-0.56,0.17H6.03z"/>
		<path class="st1" d="M24.94,23.88c0.01-0.01,0.02-0.02,0.03-0.02C24.96,23.86,24.95,23.86,24.94,23.88
			C24.94,23.87,24.94,23.88,24.94,23.88z"/>
		<path class="st1" d="M25.73,16.77h-6.24c-0.92,0-1.67,0.75-1.67,1.67v6.24c0,0.92,0.75,1.67,1.67,1.67h6.24
			c0.92,0,1.67-0.75,1.67-1.67v-6.24C27.4,17.52,26.65,16.77,25.73,16.77z M19.49,25.81c-0.21,0-0.4-0.07-0.56-0.17L20,24.57
			c0.1-0.1,0.1-0.27,0-0.38s-0.27-0.1-0.38,0l-1.07,1.07c-0.11-0.18-0.19-0.37-0.19-0.59v-6.24c0-0.22,0.08-0.42,0.19-0.59
			l1.07,1.07c0.05,0.05,0.12,0.08,0.19,0.08s0.14-0.03,0.19-0.08c0.1-0.1,0.1-0.27,0-0.38l-1.07-1.07c0.17-0.1,0.35-0.17,0.56-0.17
			h6.24c0.21,0,0.4,0.07,0.57,0.17l-1.07,1.07c-0.1,0.1-0.1,0.27,0,0.38c0.05,0.05,0.12,0.08,0.19,0.08s0.14-0.03,0.19-0.08
			l1.07-1.07c0.11,0.18,0.19,0.37,0.19,0.59v6.24c0,0.22-0.08,0.42-0.19,0.59l-1.07-1.07c-0.1-0.1-0.27-0.1-0.38,0s-0.1,0.27,0,0.38
			l1.07,1.07c-0.17,0.1-0.36,0.17-0.57,0.17H19.49z"/>
		<path class="st1" d="M11.48,23.88c0.01-0.01,0.02-0.02,0.03-0.02C11.5,23.86,11.49,23.86,11.48,23.88
			C11.48,23.87,11.48,23.88,11.48,23.88z"/>
		<path class="st1" d="M12.27,16.77H6.03c-0.92,0-1.67,0.75-1.67,1.67v6.24c0,0.92,0.75,1.67,1.67,1.67h6.24
			c0.92,0,1.67-0.75,1.67-1.67v-6.24C13.94,17.52,13.19,16.77,12.27,16.77z M6.03,25.81c-0.21,0-0.4-0.07-0.56-0.17l1.07-1.07
			c0.1-0.1,0.1-0.27,0-0.38s-0.27-0.1-0.38,0l-1.07,1.07c-0.11-0.18-0.19-0.37-0.19-0.59v-6.24c0-0.22,0.08-0.42,0.19-0.59
			l1.07,1.07c0.05,0.05,0.12,0.08,0.19,0.08s0.14-0.03,0.19-0.08c0.1-0.1,0.1-0.27,0-0.38l-1.07-1.07c0.17-0.1,0.35-0.17,0.56-0.17
			h6.24c0.21,0,0.4,0.07,0.56,0.17l-1.07,1.07c-0.1,0.1-0.1,0.27,0,0.38c0.05,0.05,0.12,0.08,0.19,0.08s0.14-0.03,0.19-0.08
			l1.07-1.07c0.11,0.18,0.19,0.37,0.19,0.59v6.24c0,0.22-0.08,0.42-0.19,0.59l-1.07-1.07c-0.1-0.1-0.27-0.1-0.38,0s-0.1,0.27,0,0.38
			l1.07,1.07c-0.17,0.1-0.35,0.17-0.56,0.17H6.03z"/>
	</g>
</g>
</svg>
