<?xml version="1.0" encoding="utf-8"?>
<!-- Generator: Adobe Illustrator 23.0.2, SVG Export Plug-In . SVG Version: 6.00 Build 0)  -->
<svg version="1.1" id="Layer_1" xmlns="http://www.w3.org/2000/svg" xmlns:xlink="http://www.w3.org/1999/xlink" x="0px" y="0px"
	 width="32px" height="32px" viewBox="0 0 32 32" style="enable-background:new 0 0 32 32;" xml:space="preserve">
<style type="text/css">
	.st0{fill:none;}
	.st1{fill:#952524;}
</style>
<rect class="st0" width="32" height="32"/>
<g>
	<path class="st1" d="M17.94,24.46h-3.88c-0.15,0-0.27,0.12-0.27,0.27c0,0.15,0.12,0.27,0.27,0.27h3.88c0.15,0,0.27-0.12,0.27-0.27
		C18.21,24.59,18.09,24.46,17.94,24.46"/>
	<path class="st1" d="M17.94,27.5h-3.88c-0.15,0-0.27,0.12-0.27,0.27c0,0.15,0.12,0.28,0.27,0.28h3.88c0.15,0,0.27-0.12,0.27-0.28
		C18.21,27.63,18.09,27.5,17.94,27.5"/>
	<path class="st1" d="M29.74,11.08V8.36c0-3.09-2.52-5.61-5.61-5.61h-5.31h-0.1h-0.09V0.91c0-0.15-0.12-0.27-0.26-0.27h-5
		c-0.15,0-0.26,0.12-0.26,0.27v1.84h-0.08H12.9H7.75c-3.09,0-5.61,2.52-5.61,5.61v2.72H0.51v0.98h1.63v13.68
		c0,3.09,2.52,5.61,5.61,5.61h16.38c3.09,0,5.61-2.52,5.61-5.61V12.06h1.75v-0.98H29.74z M13.64,1.17h4.48v1.58h-0.08h-0.1h-4.08
		h-0.13h-0.08V1.17z M19.89,30.37h-7.84v-7.76c0-0.46,0.38-0.84,0.84-0.84h6.16c0.46,0,0.84,0.38,0.84,0.84V30.37z M28.76,25.75
		c0,2.55-2.08,4.63-4.63,4.63h-3.69v-7.76c0-0.77-0.63-1.39-1.39-1.39h-6.16c-0.77,0-1.39,0.62-1.39,1.39v7.76H7.75
		c-2.55,0-4.63-2.08-4.63-4.63V10.32h25.64V25.75z M28.76,9.77H3.12v-1.4c0-2.55,2.08-4.63,4.63-4.63h16.38
		c2.55,0,4.63,2.08,4.63,4.63V9.77z"/>
</g>
</svg>
