<?xml version="1.0" encoding="utf-8"?>
<!-- Generator: Adobe Illustrator 23.0.2, SVG Export Plug-In . SVG Version: 6.00 Build 0)  -->
<svg version="1.1" id="Layer_1" xmlns="http://www.w3.org/2000/svg" xmlns:xlink="http://www.w3.org/1999/xlink" x="0px" y="0px"
	 width="32px" height="32px" viewBox="0 0 32 32" style="enable-background:new 0 0 32 32;" xml:space="preserve">
<style type="text/css">
	.st0{fill:none;}
	.st1{fill:#952524;}
</style>
<rect class="st0" width="32" height="32"/>
<g>
	<rect x="11.54" y="9.75" class="st1" width="0.52" height="14.05"/>
	<rect x="16.52" y="9.75" class="st1" width="0.52" height="14.05"/>
	<path class="st1" d="M23.42,14.29h-3.52c-0.23,0-0.42,0.19-0.42,0.42v4.62c0,0.23,0.19,0.42,0.42,0.42h3.52
		c0.23,0,0.42-0.19,0.42-0.42v-4.62C23.84,14.48,23.65,14.29,23.42,14.29 M23.31,19.23h-3.32v-2.73h3.32V19.23z M23.31,15.98h-3.32
		v-1.17h3.32V15.98z"/>
	<path class="st1" d="M26.34,0.13H5.66c-0.56,0-1.01,0.46-1.01,1.01v29.72c0,0.56,0.45,1.01,1.01,1.01h20.69
		c0.56,0,1.01-0.45,1.01-1.01V1.14C27.35,0.58,26.9,0.13,26.34,0.13 M13.84,30.93h-0.09l-8.13,0.02v-0.09L5.57,1.1h0.09l8.18-0.02
		V30.93z M26.38,30.9h-0.09l-11.48,0.03V1.08h0.09l11.48-0.03V30.9z"/>
</g>
</svg>
