<?xml version="1.0" encoding="utf-8"?>
<!-- Generator: Adobe Illustrator 23.0.2, SVG Export Plug-In . SVG Version: 6.00 Build 0)  -->
<svg version="1.1" id="Layer_1" xmlns="http://www.w3.org/2000/svg" xmlns:xlink="http://www.w3.org/1999/xlink" x="0px" y="0px"
	 width="32px" height="32px" viewBox="0 0 32 32" style="enable-background:new 0 0 32 32;" xml:space="preserve">
<style type="text/css">
	.st0{fill:none;}
	.st1{fill:#952524;}
</style>
<rect class="st0" width="32" height="32"/>
<g>
	<path class="st1" d="M15.16,23.77c-1.33,0-2.41,1.08-2.41,2.41c0,1.33,1.08,2.41,2.41,2.41c1.33,0,2.4-1.08,2.4-2.41
		C17.57,24.85,16.49,23.77,15.16,23.77z M15.16,28.03c-1.02,0-1.85-0.83-1.85-1.85c0-1.02,0.83-1.86,1.85-1.86
		c1.02,0,1.86,0.83,1.86,1.86C17.02,27.2,16.19,28.03,15.16,28.03z"/>
	<path class="st1" d="M21.13,18.1h0.6c1.28,0,2.27-0.38,2.95-1.11c0.94-1.02,0.97-2.37,0.96-2.71h0V8.42c0-1.07-0.87-1.45-1.45-1.45
		h-1.94l0.3-3.01c0.06-0.63-0.14-1.25-0.57-1.72c-0.42-0.47-1.02-0.73-1.65-0.73h-2.39V1.3c0-0.59-0.48-1.08-1.08-1.08h-3.31
		c-0.59,0-1.08,0.48-1.08,1.08v0.2H10c-0.63,0-1.23,0.27-1.65,0.73C7.93,2.7,7.72,3.33,7.79,3.95l1.63,16.34l-0.15,0.06v0
		c0,0,0,0,0,0l-0.02,0.01l0,0c-0.58,0.23-1.03,0.72-1.17,1.33L6.4,29.52c-0.11,0.54,0.02,1.09,0.37,1.53
		c0.37,0.46,0.93,0.72,1.53,0.72h13.73c0.6,0,1.16-0.26,1.53-0.72c0.35-0.43,0.48-0.99,0.37-1.53l-1.68-7.84
		c-0.13-0.61-0.59-1.1-1.19-1.33l0,0c-0.01-0.01-0.03-0.01-0.04-0.01l0,0l-0.11-0.04l0.04-0.44L21.13,18.1z M22.16,7.76h2.02
		c0.32,0,0.65,0.17,0.65,0.65l0,5.81c0,0.01,0.09,1.32-0.74,2.21c-0.53,0.57-1.32,0.86-2.37,0.86h-0.52L22.16,7.76z M8.62,4.25
		L8.58,3.88c-0.04-0.4,0.09-0.8,0.36-1.1C9.21,2.48,9.6,2.3,10,2.3h3.26v-1c0-0.15,0.12-0.28,0.28-0.28h3.31
		c0.15,0,0.28,0.12,0.28,0.28v1h3.2c0.4,0,0.79,0.17,1.06,0.47c0.27,0.3,0.4,0.7,0.36,1.1l-0.04,0.37l-0.01,0.14H8.63L8.62,4.25z
		 M21.29,21.89l1.68,7.84c0.05,0.25-0.01,0.5-0.17,0.71c-0.18,0.23-0.46,0.36-0.77,0.36H8.3c-0.31,0-0.58-0.13-0.77-0.36
		c-0.17-0.21-0.23-0.46-0.17-0.71l1.68-7.84c0.09-0.42,0.49-0.72,0.94-0.72h10.36C20.8,21.18,21.2,21.48,21.29,21.89z M20.15,19.85
		l-0.04,0.4h-0.1h0h-0.08h-0.39h0l-9.14,0h-0.09h-0.1l0,0h0l0,0h0L8.7,5.05l-0.01-0.1h12.95l-0.01,0.1L20.15,19.85z"/>
</g>
</svg>
