<?xml version="1.0" encoding="utf-8"?>
<!-- Generator: Adobe Illustrator 23.0.2, SVG Export Plug-In . SVG Version: 6.00 Build 0)  -->
<svg version="1.1" id="Layer_1" xmlns="http://www.w3.org/2000/svg" xmlns:xlink="http://www.w3.org/1999/xlink" x="0px" y="0px"
	 width="32px" height="32px" viewBox="0 0 32 32" style="enable-background:new 0 0 32 32;" xml:space="preserve">
<style type="text/css">
	.st0{fill:none;}
	.st1{fill:#972726;}
</style>
<g>
	<rect y="0" class="st0" width="32" height="32"/>
</g>
<g>
	<path class="st1" d="M3.32,31.34h25.37V0.66H3.32V31.34z M4.32,8.46h1.23v-1H4.32v-5.8h23.37v5.8h-1.23v1h1.23v21.88H4.32V8.46z"/>
	<path class="st1" d="M6.81,27.39h18.37V4.61H6.81V27.39z M7.31,5.11h17.37v21.78H7.31V5.11z"/>
	<path class="st1" d="M14.26,13.42c0.59,0,1.08,0.12,1.43,0.28l0.22-0.71c-0.24-0.12-0.8-0.3-1.68-0.3c-2.2,0-3.7,1.42-3.7,3.51
		c0,2.19,1.5,3.38,3.5,3.38c0.86,0,1.53-0.16,1.87-0.32l-0.19-0.69c-0.37,0.17-0.93,0.28-1.49,0.28c-1.72,0-2.72-1.05-2.72-2.69
		C11.5,14.42,12.6,13.42,14.26,13.42"/>
	<path class="st1" d="M20.06,16.31v-0.03c0.75-0.24,1.33-0.82,1.33-1.71c0-0.52-0.2-0.97-0.56-1.27c-0.44-0.38-1.07-0.55-2.05-0.55
		c-0.63,0-1.29,0.05-1.75,0.14v6.6h0.91v-2.9h0.86c0.83,0.03,1.21,0.38,1.42,1.3c0.2,0.83,0.36,1.41,0.47,1.6h0.94
		c-0.15-0.26-0.32-0.9-0.55-1.83C20.94,16.96,20.61,16.49,20.06,16.31 M18.89,15.94h-0.94V13.5c0.15-0.04,0.46-0.08,0.9-0.08
		c0.97,0.01,1.63,0.39,1.63,1.25C20.48,15.43,19.87,15.94,18.89,15.94"/>
</g>
</svg>
