<?xml version="1.0" encoding="utf-8"?>
<!-- Generator: Adobe Illustrator 23.0.2, SVG Export Plug-In . SVG Version: 6.00 Build 0)  -->
<svg version="1.1" id="Layer_1" xmlns="http://www.w3.org/2000/svg" xmlns:xlink="http://www.w3.org/1999/xlink" x="0px" y="0px"
	 width="32px" height="32px" viewBox="0 0 32 32" style="enable-background:new 0 0 32 32;" xml:space="preserve">
<style type="text/css">
	.st0{fill:none;}
	.st1{fill:#972726;}
</style>
<g>
	<rect y="0" class="st0" width="32" height="32"/>
</g>
<g>
	<path class="st1" d="M10.9,5.35c-2.18,0-3.95,1.77-3.95,3.95c0,2.18,1.77,3.95,3.95,3.95c2.18,0,3.95-1.77,3.95-3.95
		C14.86,7.12,13.08,5.35,10.9,5.35 M10.9,12.76c-1.9,0-3.45-1.55-3.45-3.45c0-1.9,1.55-3.45,3.45-3.45c1.9,0,3.45,1.55,3.45,3.45
		C14.36,11.21,12.8,12.76,10.9,12.76"/>
	<path class="st1" d="M26.98,2.46L26.98,2.46L11.85,0.82v0c-0.31-0.04-0.63-0.06-0.95-0.06C6.2,0.77,2.37,4.6,2.37,9.3
		c0,2.89,1.45,5.45,3.65,6.99c0.23,1.58,1.63,11.2,1.9,12.83c0.28,1.68,1.47,2.1,2.1,2.1c0.03,0,0.05,0,0.07,0h2.8
		c0.81,0,1.46-0.25,1.93-0.73c0.76-0.79,0.74-1.9,0.74-1.94V17.04l11.42-2.34c0.91-0.08,2.64-0.79,2.64-2.9V9.3V7.67v-2.5
		C29.63,3.03,27.86,2.46,26.98,2.46 M14.57,28.57c0,0.01,0.01,0.75-0.46,1.22c-0.28,0.28-0.69,0.43-1.21,0.43l-2.82,0
		c-0.18-0.01-0.96-0.04-1.17-1.27c-0.24-1.43-1.38-9.22-1.79-12.02c1.14,0.57,2.42,0.89,3.77,0.89c0.74,0,1.45-0.1,2.13-0.28l0,0.01
		l1.54-0.31V28.57z M23.65,14.38l-7.31,1.49l-3.88,0.8c-0.03,0.01-0.06,0.01-0.09,0.02L12.3,16.7l0,0c-0.45,0.09-0.92,0.14-1.4,0.14
		c-4.15,0-7.53-3.38-7.53-7.53c0-4.15,3.38-7.53,7.53-7.53c0.22,0,0.44,0.01,0.66,0.03L11.5,1.77l4.18,0.47l7.96,0.86V14.38z
		 M28.63,7.67V9.3v2.51c0,1.69-1.55,1.89-1.78,1.91l-2.7,0.55V3.15l2.77,0.3c0.18,0,1.71,0.05,1.71,1.71V7.67z"/>
</g>
</svg>
