<?xml version="1.0" encoding="utf-8"?>
<!-- Generator: Adobe Illustrator 23.0.2, SVG Export Plug-In . SVG Version: 6.00 Build 0)  -->
<svg version="1.1" id="Layer_1" xmlns="http://www.w3.org/2000/svg" xmlns:xlink="http://www.w3.org/1999/xlink" x="0px" y="0px"
	 width="32px" height="32px" viewBox="0 0 32 32" style="enable-background:new 0 0 32 32;" xml:space="preserve">
<style type="text/css">
	.st0{fill:none;}
	.st1{fill:#972726;}
</style>
<g>
	<rect y="0" class="st0" width="32" height="32"/>
</g>
<g>
	<path class="st1" d="M2.82,21.79c0.03-0.54,0.83-0.89,1.15-0.99c0.26-0.09,2.5-0.94,2.44-2.12c-0.04-0.79-1.06-1.44-3.14-1.98
		c-1.6-0.41-2.49-0.99-2.57-1.65c-0.13-1.1,1.85-2.42,2.63-2.83L3.1,11.77c-0.13,0.07-3.09,1.67-2.89,3.33
		c0.11,0.91,1.07,1.59,2.94,2.08c2.37,0.61,2.75,1.21,2.76,1.52c0.03,0.62-1.28,1.33-2.1,1.62c-0.06,0.02-1.44,0.44-1.49,1.44
		c-0.06,1.08,1.45,2.25,4.62,3.58l0.19-0.46C3.33,23.28,2.8,22.25,2.82,21.79"/>
	<path class="st1" d="M4.7,11.88c0.38,0,0.69-0.31,0.69-0.69c0-0.38-0.31-0.69-0.69-0.69c-0.38,0-0.69,0.31-0.69,0.69
		C4.01,11.57,4.32,11.88,4.7,11.88"/>
	<path class="st1" d="M28.57,11.06l-0.34,0.37c3.05,2.79,3.2,3.93,3.02,4.37c-0.21,0.5-1.08,0.56-1.42,0.54
		c-0.27,0-2.67,0.04-3.02,1.17c-0.23,0.76,0.52,1.72,2.29,2.92c1.37,0.93,2.01,1.77,1.86,2.42c-0.25,1.08-2.56,1.65-3.43,1.78
		l0.07,0.49c0.14-0.02,3.47-0.53,3.84-2.16c0.2-0.89-0.47-1.86-2.07-2.95c-2.02-1.38-2.18-2.07-2.09-2.36
		c0.18-0.59,1.65-0.82,2.53-0.82c0.06,0,1.5,0.07,1.89-0.85C32.13,14.99,31.1,13.37,28.57,11.06"/>
	<path class="st1" d="M25.87,24.66c-0.38,0-0.69,0.31-0.69,0.69c0,0.38,0.31,0.69,0.69,0.69c0.38,0,0.69-0.31,0.69-0.69
		C26.55,24.97,26.25,24.66,25.87,24.66"/>
	<path class="st1" d="M20.84,3.08V1.86h-4.5h0h-4.5v1.22C10.93,3.16,7.79,3.6,7.79,5.91v1.51h1.38v19.53h1.18v3.2h11.65v-3.2h1.5
		V7.42h1.38V5.91C24.89,3.6,21.75,3.16,20.84,3.08 M21.51,29.64H10.85v-2.7h10.65V29.64z M22.51,25.95h-3.12h-0.18h-1H17.4h-0.5
		h-1.06h-0.5h-0.81h-1h-0.57h-2.78v-1.67h2.78v0h6.44v0h3.12V25.95z M22.51,23.78h-3.29v0h-1v0H17.4v0h-0.5v0h-1.06v0h-0.5v0h-0.81
		v0h-1v0h-3.36v-1.54h3.36h1h0.81h0.5h1.06h0.5h0.81h1h3.29V23.78z M22.51,21.74h-3.29v0h-1v0H17.4v0h-0.5v0h-1.06v0h-0.5v0h-0.81v0
		h-1v0h-3.36V20.2h2.78v0h1.58h0.81h4.05v0h3.12V21.74z M22.51,19.7h-3.29v0h-1v0H17.4v0h-0.5v0h-1.06v0h-0.5v0h-0.81v0h-1v0h-3.36
		v-1.54h2.78v0h6.44v0h3.12V19.7z M22.51,17.66h-3.12h-0.18h-1H17.4h-0.5h-1.06h-0.5h-0.81h-1h-0.57h-2.78v-1.54h3.36v0h1v0h0.81v0
		h0.5v0h1.06v0h0.5v0h0.81v0h1v0h3.29V17.66z M22.51,15.62h-3.29h-1H17.4h-0.5h-1.06h-2.31h-3.36v-1.54h3.36v0h1v0h0.81v0h0.5v0
		h1.06v0h0.5v0h0.81v0h1v0h3.29V15.62z M22.51,13.57h-3.29v0h-1v0H17.4v0h-0.5v0h-1.06v0h-0.5v0h-0.81v0h-1v0h-3.36v-1.54h3.36h1
		h0.81h0.5h1.06h0.5h0.81h1h3.29V13.57z M22.51,11.53h-3.29v0h-1v0H17.4v0h-0.5h-1.06h-0.5h-0.81h-1v0h-3.36V9.99h2.78h0.57h1v0
		h0.81v0h0.5v0h1.06v0h0.5h0.81h1h0.18h3.12V11.53z M22.51,9.49h-3.12h-0.18h-1H17.4h-0.5h-1.06h-0.5h-0.81h-1h-0.58h-2.78V7.92
		h2.78h0.58h1h0.81h0.5h1.06h0.5h0.81h1h0.18h3.12V9.49z M24.39,6.92h-1.38v0H9.67v0H8.29V5.91c0-2.17,3.77-2.35,3.81-2.35
		l0.24-0.01v-1.2h4h0h4v1.2l0.24,0.01c0.04,0,3.81,0.18,3.81,2.35V6.92z"/>
</g>
</svg>
