<?xml version="1.0" encoding="utf-8"?>
<!-- Generator: Adobe Illustrator 23.0.2, SVG Export Plug-In . SVG Version: 6.00 Build 0)  -->
<svg version="1.1" id="Layer_1" xmlns="http://www.w3.org/2000/svg" xmlns:xlink="http://www.w3.org/1999/xlink" x="0px" y="0px"
	 width="32px" height="32px" viewBox="0 0 32 32" style="enable-background:new 0 0 32 32;" xml:space="preserve">
<style type="text/css">
	.st0{fill:none;}
	.st1{fill:#972726;}
</style>
<g>
	<rect y="0" class="st0" width="32" height="32"/>
</g>
<g>
	<path class="st1" d="M30.88,2.48c-0.43-0.39-1-0.36-1.02-0.36H24.4l-5.42,0c-0.07-0.01-0.63-0.04-1.06,0.35
		c-0.2,0.18-0.43,0.52-0.43,1.09c0,1.04,1.6,19.29,1.67,20.02v3.56c0,0.68,0.45,1.69,1.69,1.69h3.55h3.55
		c1.24,0,1.69-1.01,1.69-1.69l0-3.51c0.07-0.78,1.67-19.02,1.67-20.06C31.31,3,31.07,2.66,30.88,2.48 M28.64,23.59v3.56
		c0,0.16-0.05,0.69-0.69,0.69H24.4h-3.55c-0.61,0-0.69-0.48-0.69-0.69l0-3.6c0-0.01,0-0.03,0-0.04h8.49
		C28.65,23.54,28.64,23.57,28.64,23.59 M28.69,23.01h-8.58c-0.59-6.69-1.62-18.66-1.62-19.43c0-0.17,0.04-0.29,0.1-0.35
		c0.09-0.09,0.25-0.1,0.35-0.09h5.46l5.49,0c0.05-0.01,0.22,0.01,0.31,0.1c0.07,0.07,0.1,0.18,0.1,0.35
		C30.31,4.35,29.28,16.27,28.69,23.01"/>
	<rect x="2.35" y="3.75" class="st1" width="10.6" height="0.5"/>
	<path class="st1" d="M13.92,1.99H1.29c-0.33,0-0.59,0.27-0.59,0.59v2.83C0.69,5.74,0.96,6,1.29,6h12.64c0.33,0,0.59-0.27,0.59-0.59
		V2.59C14.52,2.26,14.25,1.99,13.92,1.99 M14.02,5.5H1.19V2.49h12.82V5.5z"/>
	<path class="st1" d="M9.74,9.02L11.12,6h-1.1l-1.23,2.7L8.76,22.49h0v5.11v0.29c0,0.61-0.5,1.11-1.11,1.11H7.47
		c-0.61,0-1.11-0.5-1.11-1.11v-0.29v-4.1v-1.01V8.91L5.08,6H3.98l1.37,3.02v13.47v1.01v4.39c0,0.75,0.4,1.41,1,1.79
		c0.33,0.2,0.7,0.32,1.11,0.32h0.17c0.41,0,0.79-0.12,1.11-0.32c0.6-0.37,1-1.03,1-1.79v-5.4H9.74V9.02z"/>
</g>
</svg>
