<?xml version="1.0" encoding="utf-8"?>
<!-- Generator: Adobe Illustrator 23.0.2, SVG Export Plug-In . SVG Version: 6.00 Build 0)  -->
<svg version="1.1" id="Layer_1" xmlns="http://www.w3.org/2000/svg" xmlns:xlink="http://www.w3.org/1999/xlink" x="0px" y="0px"
	 width="32px" height="32px" viewBox="0 0 32 32" style="enable-background:new 0 0 32 32;" xml:space="preserve">
<style type="text/css">
	.st0{fill:none;}
	.st1{fill:#972726;}
</style>
<g>
	<rect y="0" class="st0" width="32" height="32"/>
</g>
<g>
	<path class="st1" d="M3.32,31.34h25.37V0.66H3.32V31.34z M4.32,8.46h1.23v-1H4.32v-5.8h23.37v5.8h-1.23v1h1.23v21.88H4.32V8.46z"/>
	<path class="st1" d="M6.81,27.39h18.37V4.61H6.81V27.39z M7.31,5.11h17.37v21.78H7.31V5.11z"/>
	<path class="st1" d="M15.4,15.6c0,1.04,0.02,1.85,0.1,2.75l-0.02,0.01c-0.34-0.68-0.75-1.39-1.27-2.17l-2.27-3.38h-1v6.69h0.86
		v-2.86c0-1.11-0.02-1.91-0.07-2.76l0.03-0.01c0.36,0.72,0.83,1.49,1.32,2.23l2.25,3.39h0.92v-6.69H15.4V15.6z"/>
	<path class="st1" d="M19.98,15.7c-0.98-0.36-1.41-0.66-1.41-1.29c0-0.46,0.37-1,1.33-1c0.64,0,1.11,0.2,1.34,0.32l0.25-0.7
		c-0.31-0.17-0.84-0.33-1.56-0.33c-1.38,0-2.29,0.77-2.29,1.81c0,0.94,0.71,1.51,1.87,1.89c0.96,0.35,1.33,0.7,1.33,1.33
		c0,0.67-0.55,1.14-1.48,1.14c-0.63,0-1.23-0.2-1.64-0.44l-0.23,0.72c0.38,0.24,1.13,0.43,1.81,0.43c1.67,0,2.48-0.89,2.48-1.93
		C21.79,16.68,21.18,16.14,19.98,15.7"/>
</g>
</svg>
