<?xml version="1.0" encoding="utf-8"?>
<!-- Generator: Adobe Illustrator 23.0.2, SVG Export Plug-In . SVG Version: 6.00 Build 0)  -->
<svg version="1.1" id="Layer_1" xmlns="http://www.w3.org/2000/svg" xmlns:xlink="http://www.w3.org/1999/xlink" x="0px" y="0px"
	 width="32px" height="32px" viewBox="0 0 32 32" style="enable-background:new 0 0 32 32;" xml:space="preserve">
<style type="text/css">
	.st0{fill:none;}
	.st1{fill:#972726;}
</style>
<g>
	<rect y="0" class="st0" width="32" height="32"/>
</g>
<g>
	<path class="st1" d="M3.32,31.34h25.37V0.66H3.32V31.34z M4.32,8.46h1.23v-1H4.32v-5.8h23.37v5.8h-1.23v1h1.23v21.88H4.32V8.46z"/>
	<path class="st1" d="M6.81,27.39h18.37V4.61H6.81V27.39z M7.31,5.11h17.37v21.78H7.31V5.11z"/>
	<path class="st1" d="M15.7,12.76c-0.73,0-1.31,0.06-1.75,0.13v6.61h0.91v-2.68c0.21,0.05,0.46,0.06,0.73,0.06
		c0.89,0,1.68-0.25,2.16-0.73c0.36-0.35,0.55-0.82,0.55-1.43c0-0.6-0.23-1.08-0.62-1.4C17.27,12.95,16.61,12.76,15.7,12.76
		 M15.62,16.18c-0.3,0-0.56-0.02-0.76-0.07v-2.6c0.16-0.04,0.46-0.07,0.86-0.07c1.01,0,1.67,0.43,1.67,1.31
		C17.39,15.67,16.72,16.18,15.62,16.18"/>
</g>
</svg>
