<?xml version="1.0" encoding="utf-8"?>
<!-- Generator: Adobe Illustrator 23.0.2, SVG Export Plug-In . SVG Version: 6.00 Build 0)  -->
<svg version="1.1" id="Layer_1" xmlns="http://www.w3.org/2000/svg" xmlns:xlink="http://www.w3.org/1999/xlink" x="0px" y="0px"
	 width="32px" height="32px" viewBox="0 0 32 32" style="enable-background:new 0 0 32 32;" xml:space="preserve">
<style type="text/css">
	.st0{fill:none;}
	.st1{fill:#972726;}
</style>
<g>
	<rect y="0" class="st0" width="32" height="32"/>
</g>
<g>
	<path class="st1" d="M26.41,1.55v-0.5h-3.45h-0.92v0h-0.08V11.6c0,0.05,0.01,0.09,0.02,0.14l1.47,5.21v14.11h1V16.88
		c0-0.05,0-0.09-0.02-0.14l-1.47-5.21v-0.91v-0.56h3.45v-0.5h-3.45V9.4V8.9V8.64h3.45v-0.5h-3.45V7.86V7.31V7.22h3.45v-0.5h-3.45
		V6.28V5.81h3.45v-0.5h-3.45V5.24v-0.5V4.39h3.45v-0.5h-3.45V3.7V3.16V2.97h3.45v-0.5h-3.45V1.55H26.41z"/>
	<path class="st1" d="M16.61,10.87c0-1.5-0.99-2.38-1-2.38v0l-1.75-2.08V2.14c0-0.66-0.54-1.2-1.2-1.2h-2.5
		c-0.66,0-1.19,0.54-1.19,1.2v4.28L7.28,8.43c-0.04,0.04-1.05,0.92-1.05,2.44c0,1.28-0.63,18-0.64,18.19v1.44
		c0,0.28,0.22,0.5,0.5,0.5h5.33h5.33c0.28,0,0.5-0.22,0.5-0.5v-1.45C17.24,28.87,16.61,12.15,16.61,10.87 M9.97,6.11V5.86V5.75V2.14
		c0-0.11,0.09-0.2,0.19-0.2h2.5c0.11,0,0.2,0.09,0.2,0.2v3.62v0.12v0.38H9.97V6.11z M16.25,30h-4.83H6.59v-0.92
		c0.02-0.69,0.64-16.91,0.64-18.21c0-1.05,0.68-1.66,0.76-1.74L9.79,7l0.18-0.24h2.89l0.11,0.16l1.93,2.28
		c0.01,0.01,0.7,0.63,0.7,1.68c0,1.3,0.61,17.52,0.64,18.19V30z"/>
</g>
</svg>
