<?xml version="1.0" encoding="utf-8"?>
<!-- Generator: Adobe Illustrator 21.0.0, SVG Export Plug-In . SVG Version: 6.00 Build 0)  -->
<svg version="1.1" id="Layer_1" xmlns="http://www.w3.org/2000/svg" xmlns:xlink="http://www.w3.org/1999/xlink" x="0px" y="0px"
	 width="32px" height="32px" viewBox="0 0 32 32" style="enable-background:new 0 0 32 32;" xml:space="preserve">
<style type="text/css">
	.st0{fill:#972726;}
</style>
<g>
	<path class="st0" d="M24.1,0.6H7.9C7.1,0.6,6.5,1.2,6.5,2v28c0,0.8,0.6,1.4,1.4,1.4h16.2c0.8,0,1.4-0.6,1.4-1.4V2
		C25.5,1.2,24.9,0.6,24.1,0.6 M24.5,30c0,0.2-0.2,0.4-0.4,0.4H7.9c-0.2,0-0.4-0.2-0.4-0.4V2c0-0.2,0.2-0.4,0.4-0.4h16.2
		c0.2,0,0.4,0.2,0.4,0.4V30z"/>
	<path class="st0" d="M11.3,23.8v-0.2c-0.6,0.2-1,0.9-1,1.9c0,1.1,0.6,1.9,1.3,1.9s1.3-0.8,1.3-1.9c0-0.9-0.4-1.7-1-1.9v0.2H11.3z
		 M12.3,25.4c0,0.8-0.4,1.4-0.8,1.4c-0.4,0-0.8-0.6-0.8-1.4c0-0.8,0.4-1.4,0.8-1.4C11.9,24,12.3,24.6,12.3,25.4"/>
	<path class="st0" d="M11.8,8.7v0.2c0.6-0.2,1-0.9,1-1.9c0-1.1-0.6-1.9-1.3-1.9S10.2,6,10.2,7.1c0,0.9,0.4,1.7,1,1.9V8.7H11.8z
		 M10.7,7.1c0-0.8,0.4-1.4,0.8-1.4c0.4,0,0.8,0.6,0.8,1.4c0,0.8-0.4,1.4-0.8,1.4C11.2,8.5,10.7,7.9,10.7,7.1"/>
	<path class="st0" d="M11.5,9c-0.1,0-0.2,0-0.3,0v14.6c0.1,0,0.2,0,0.3,0c0.1,0,0.2,0,0.3,0V8.9C11.7,9,11.6,9,11.5,9"/>
	<path class="st0" d="M11.3,23.6v0.2h0.5v-0.2c-0.1,0-0.2,0-0.3,0C11.4,23.5,11.3,23.5,11.3,23.6"/>
	<path class="st0" d="M11.8,8.9V8.7h-0.5v0.2c0.1,0,0.2,0,0.3,0C11.6,9,11.7,9,11.8,8.9"/>
	<path class="st0" d="M15.7,23.8v-0.2c-0.6,0.2-1,0.9-1,1.9c0,1.1,0.6,1.9,1.3,1.9s1.3-0.8,1.3-1.9c0-0.9-0.4-1.7-1-1.9v0.2H15.7z
		 M16.8,25.4c0,0.8-0.4,1.4-0.8,1.4c-0.4,0-0.8-0.6-0.8-1.4c0-0.8,0.4-1.4,0.8-1.4C16.4,24,16.8,24.6,16.8,25.4"/>
	<path class="st0" d="M16.3,8.7v0.2c0.6-0.2,1-0.9,1-1.9c0-1.1-0.6-1.9-1.3-1.9S14.7,6,14.7,7.1c0,0.9,0.4,1.7,1,1.9V8.7H16.3z
		 M15.2,7.1c0-0.8,0.4-1.4,0.8-1.4c0.4,0,0.8,0.6,0.8,1.4c0,0.8-0.4,1.4-0.8,1.4C15.6,8.5,15.2,7.9,15.2,7.1"/>
	<path class="st0" d="M16,9c-0.1,0-0.2,0-0.3,0v14.6c0.1,0,0.2,0,0.3,0c0.1,0,0.2,0,0.3,0V8.9C16.2,9,16.1,9,16,9"/>
	<path class="st0" d="M15.7,23.6v0.2h0.5v-0.2c-0.1,0-0.2,0-0.3,0C15.9,23.5,15.8,23.5,15.7,23.6"/>
	<path class="st0" d="M16.3,8.9V8.7h-0.5v0.2c0.1,0,0.2,0,0.3,0C16.1,9,16.2,9,16.3,8.9"/>
	<path class="st0" d="M20.2,23.8v-0.2c-0.6,0.2-1,0.9-1,1.9c0,1.1,0.6,1.9,1.3,1.9c0.7,0,1.3-0.8,1.3-1.9c0-0.9-0.4-1.7-1-1.9v0.2
		H20.2z M21.3,25.4c0,0.8-0.4,1.4-0.8,1.4c-0.4,0-0.8-0.6-0.8-1.4c0-0.8,0.4-1.4,0.8-1.4C20.9,24,21.3,24.6,21.3,25.4"/>
	<path class="st0" d="M20.7,8.7v0.2c0.6-0.2,1-0.9,1-1.9c0-1.1-0.6-1.9-1.3-1.9c-0.7,0-1.3,0.8-1.3,1.9c0,0.9,0.4,1.7,1,1.9V8.7
		H20.7z M19.7,7.1c0-0.8,0.4-1.4,0.8-1.4c0.4,0,0.8,0.6,0.8,1.4c0,0.8-0.4,1.4-0.8,1.4C20.1,8.5,19.7,7.9,19.7,7.1"/>
	<path class="st0" d="M20.5,9c-0.1,0-0.2,0-0.3,0v14.6c0.1,0,0.2,0,0.3,0c0.1,0,0.2,0,0.3,0V8.9C20.7,9,20.6,9,20.5,9"/>
	<path class="st0" d="M20.2,23.6v0.2h0.5v-0.2c-0.1,0-0.2,0-0.3,0C20.4,23.5,20.3,23.5,20.2,23.6"/>
	<path class="st0" d="M20.7,8.9V8.7h-0.5v0.2c0.1,0,0.2,0,0.3,0C20.6,9,20.7,9,20.7,8.9"/>
</g>
</svg>
