<?xml version="1.0" encoding="utf-8"?>
<!-- Generator: Adobe Illustrator 23.0.2, SVG Export Plug-In . SVG Version: 6.00 Build 0)  -->
<svg version="1.1" id="Layer_1" xmlns="http://www.w3.org/2000/svg" xmlns:xlink="http://www.w3.org/1999/xlink" x="0px" y="0px"
	 width="32px" height="32px" viewBox="0 0 32 32" style="enable-background:new 0 0 32 32;" xml:space="preserve">
<style type="text/css">
	.st0{fill:none;}
	.st1{fill:#972726;}
</style>
<g>
	<rect y="0" class="st0" width="32" height="32"/>
</g>
<g>
	<path class="st1" d="M10.51,29.99c-0.34,0-0.59-0.08-0.74-0.25c-0.24-0.26-0.21-0.67-0.21-0.71V23.6h-0.5v-0.5h0.5v-8.79h-0.5v-0.5
		h0.5v-1.35c0-1.95,0.58-3.32,1.69-3.97c1.45-0.85,1.83-1.93,1.93-2.51H12.7v-0.5h0.51V2.01H16v-1h-3.29c-0.28,0-0.5,0.22-0.5,0.5
		V5.6c0,0.05,0.01,1.17-1.48,2.04c-1,0.58-2.19,1.9-2.19,4.83l0,16.52c-0.01,0.08-0.06,0.85,0.47,1.42
		c0.35,0.38,0.85,0.58,1.48,0.58H16v-1H10.51z"/>
	<path class="st1" d="M23.45,12.47c0-2.94-1.19-4.25-2.19-4.83c-1.49-0.87-1.48-1.99-1.48-2.06V1.51c0-0.28-0.22-0.5-0.5-0.5H16v1
		h2.79l0,3.48h0.5v0.5h-0.46c0.1,0.59,0.49,1.67,1.93,2.51c1.11,0.65,1.69,2.02,1.69,3.97v1.35h0.5v0.5h-0.5l0,8.79h0.5v0.5h-0.5
		l0,5.47c0,0,0.02,0.41-0.22,0.67c-0.15,0.16-0.4,0.25-0.74,0.25H16v1h5.49c0.64,0,1.13-0.19,1.48-0.58
		c0.53-0.58,0.48-1.34,0.47-1.38V12.47z"/>
	<path class="st1" d="M13.21,5.58c0,0.01,0,0.17-0.04,0.41h5.66c-0.04-0.24-0.04-0.41-0.04-0.43V5.49h-5.58V5.58z"/>
	<path class="st1" d="M13.21,5.49H12.7v0.5h0.47c0.04-0.23,0.04-0.39,0.04-0.41V5.49z"/>
	<path class="st1" d="M18.83,5.99h0.46v-0.5h-0.5v0.07C18.79,5.57,18.79,5.74,18.83,5.99"/>
	<rect x="9.55" y="13.82" class="st1" width="12.9" height="0.5"/>
	<rect x="9.05" y="13.82" class="st1" width="0.5" height="0.5"/>
	<rect x="22.45" y="13.82" class="st1" width="0.5" height="0.5"/>
	<rect x="9.55" y="23.1" class="st1" width="12.9" height="0.5"/>
	<rect x="9.05" y="23.1" class="st1" width="0.5" height="0.5"/>
	<rect x="22.45" y="23.1" class="st1" width="0.5" height="0.5"/>
</g>
</svg>
