<?xml version="1.0" encoding="utf-8"?>
<!-- Generator: Adobe Illustrator 23.0.2, SVG Export Plug-In . SVG Version: 6.00 Build 0)  -->
<svg version="1.1" id="Layer_1" xmlns="http://www.w3.org/2000/svg" xmlns:xlink="http://www.w3.org/1999/xlink" x="0px" y="0px"
	 width="32px" height="32px" viewBox="0 0 32 32" style="enable-background:new 0 0 32 32;" xml:space="preserve">
<style type="text/css">
	.st0{fill:none;}
	.st1{fill:#972726;}
</style>
<g>
	<rect y="0" class="st0" width="32" height="32"/>
</g>
<g>
	<path class="st1" d="M3.32,31.34h25.37V0.66H3.32V31.34z M4.32,8.46h1.23v-1H4.32v-5.8h23.37v5.8h-1.23v1h1.23v21.88H4.32V8.46z"/>
	<path class="st1" d="M25.19,4.61H6.81v22.78h18.37V4.61z M24.69,26.89H7.31V5.11h17.37V26.89z"/>
	<path class="st1" d="M12.97,18.88c-0.63,0-1.23-0.2-1.64-0.44l-0.23,0.72c0.38,0.24,1.12,0.43,1.81,0.43
		c1.67,0,2.48-0.89,2.48-1.92c0-0.98-0.61-1.53-1.81-1.96c-0.97-0.36-1.41-0.66-1.41-1.29c0-0.46,0.37-1,1.33-1
		c0.64,0,1.11,0.2,1.34,0.32l0.25-0.71c-0.32-0.17-0.84-0.33-1.57-0.33c-1.38,0-2.29,0.77-2.29,1.82c0,0.94,0.71,1.51,1.87,1.89
		c0.96,0.35,1.33,0.7,1.33,1.33C14.45,18.41,13.91,18.88,12.97,18.88"/>
	<path class="st1" d="M17.55,16.81c0.21,0.05,0.46,0.06,0.73,0.06c0.89,0,1.68-0.25,2.16-0.73c0.36-0.35,0.55-0.82,0.55-1.43
		c0-0.6-0.23-1.08-0.62-1.4c-0.42-0.36-1.08-0.55-1.98-0.55c-0.73,0-1.31,0.06-1.75,0.13v6.6h0.91V16.81z M17.55,13.51
		c0.16-0.04,0.46-0.07,0.86-0.07c1.01,0,1.67,0.43,1.67,1.31c0,0.92-0.67,1.43-1.77,1.43c-0.3,0-0.56-0.02-0.76-0.07V13.51z"/>
</g>
</svg>
