<?xml version="1.0" encoding="utf-8"?>
<!-- Generator: Adobe Illustrator 23.0.2, SVG Export Plug-In . SVG Version: 6.00 Build 0)  -->
<svg version="1.1" id="Layer_1" xmlns="http://www.w3.org/2000/svg" xmlns:xlink="http://www.w3.org/1999/xlink" x="0px" y="0px"
	 width="32px" height="32px" viewBox="0 0 32 32" style="enable-background:new 0 0 32 32;" xml:space="preserve">
<style type="text/css">
	.st0{fill:none;}
	.st1{fill:#972726;}
</style>
<g>
	<rect y="0" class="st0" width="32" height="32"/>
</g>
<g>
	<path class="st1" d="M31.05,5.3H0.95c-0.28,0-0.5,0.22-0.5,0.5V26.2c0,0.28,0.22,0.5,0.5,0.5h30.1c0.28,0,0.5-0.22,0.5-0.5V5.8
		C31.55,5.53,31.32,5.3,31.05,5.3 M30.55,25.7H1.45V6.3h29.1V25.7z"/>
	<path class="st1" d="M4.88,14.94h5.28c0.14,0,0.25-0.11,0.25-0.25V9.41c0-0.14-0.11-0.25-0.25-0.25H4.88
		c-0.14,0-0.25,0.11-0.25,0.25v5.28C4.63,14.83,4.74,14.94,4.88,14.94 M5.13,9.66h4.78v4.78H5.13V9.66z"/>
	<path class="st1" d="M13.3,14.94h5.28c0.14,0,0.25-0.11,0.25-0.25V9.41c0-0.14-0.11-0.25-0.25-0.25H13.3
		c-0.14,0-0.25,0.11-0.25,0.25v5.28C13.05,14.83,13.16,14.94,13.3,14.94 M13.55,9.66h4.78v4.78h-4.78V9.66z"/>
	<path class="st1" d="M21.71,14.94H27c0.14,0,0.25-0.11,0.25-0.25V9.41c0-0.14-0.11-0.25-0.25-0.25h-5.28
		c-0.14,0-0.25,0.11-0.25,0.25v5.28C21.46,14.83,21.57,14.94,21.71,14.94 M21.96,9.66h4.78v4.78h-4.78V9.66z"/>
	<path class="st1" d="M4.88,22.98h5.28c0.14,0,0.25-0.11,0.25-0.25v-5.28c0-0.14-0.11-0.25-0.25-0.25H4.88
		c-0.14,0-0.25,0.11-0.25,0.25v5.28C4.63,22.87,4.74,22.98,4.88,22.98 M5.13,17.7h4.78v4.78H5.13V17.7z"/>
	<path class="st1" d="M13.3,22.98h5.28c0.14,0,0.25-0.11,0.25-0.25v-5.28c0-0.14-0.11-0.25-0.25-0.25H13.3
		c-0.14,0-0.25,0.11-0.25,0.25v5.28C13.05,22.87,13.16,22.98,13.3,22.98 M13.55,17.7h4.78v4.78h-4.78V17.7z"/>
	<path class="st1" d="M21.71,22.98H27c0.14,0,0.25-0.11,0.25-0.25v-5.28c0-0.14-0.11-0.25-0.25-0.25h-5.28
		c-0.14,0-0.25,0.11-0.25,0.25v5.28C21.46,22.87,21.57,22.98,21.71,22.98 M21.96,17.7h4.78v4.78h-4.78V17.7z"/>
</g>
</svg>
