<?xml version="1.0" encoding="utf-8"?>
<!-- Generator: Adobe Illustrator 23.0.2, SVG Export Plug-In . SVG Version: 6.00 Build 0)  -->
<svg version="1.1" id="Layer_1" xmlns="http://www.w3.org/2000/svg" xmlns:xlink="http://www.w3.org/1999/xlink" x="0px" y="0px"
	 width="32px" height="32px" viewBox="0 0 32 32" style="enable-background:new 0 0 32 32;" xml:space="preserve">
<style type="text/css">
	.st0{fill:none;}
	.st1{fill:#952524;}
	.st2{fill:none;stroke:#952524;stroke-width:0.55;stroke-miterlimit:10;}
</style>
<rect class="st0" width="32" height="32"/>
<g>
	<path class="st1" d="M6,11.61V9.76C6.32,9.7,6.62,9.55,6.85,9.31c0.28-0.29,0.42-0.67,0.41-1.07L7.06,3.6
		C7.03,2.9,6.45,2.36,5.73,2.36c-0.71,0-1.3,0.54-1.33,1.23L4.18,8.24c-0.02,0.4,0.13,0.78,0.41,1.08C4.82,9.55,5.12,9.7,5.45,9.76
		v1.85c-2.79,0.15-5.03,2.44-5.03,5.27c0,2.92,2.38,5.3,5.3,5.3c2.92,0,5.3-2.38,5.3-5.3C11.02,14.05,8.79,11.75,6,11.61 M4.74,8.26
		l0.22-4.65c0.02-0.4,0.36-0.71,0.78-0.71c0.42,0,0.76,0.31,0.78,0.71l0.19,4.65c0.01,0.25-0.08,0.48-0.26,0.67
		c-0.37,0.39-1.09,0.39-1.46,0C4.81,8.75,4.72,8.51,4.74,8.26 M5.72,21.63c-2.62,0-4.75-2.13-4.75-4.75s2.13-4.75,4.75-4.75
		s4.75,2.13,4.75,4.75S8.34,21.63,5.72,21.63"/>
	<path class="st1" d="M6.02,4.24c0-0.17-0.13-0.3-0.3-0.3s-0.3,0.13-0.3,0.3c0,0.17,0.13,0.3,0.3,0.3S6.02,4.4,6.02,4.24"/>
	<path class="st1" d="M27.97,4.24c0-0.17-0.13-0.3-0.3-0.3c-0.17,0-0.3,0.13-0.3,0.3c0,0.17,0.13,0.3,0.3,0.3
		C27.83,4.54,27.97,4.4,27.97,4.24"/>
	
		<rect x="25.53" y="18.37" transform="matrix(0.1349 -0.9909 0.9909 0.1349 4.4177 42.358)" class="st1" width="1.88" height="0.55"/>
	
		<rect x="28.62" y="17.71" transform="matrix(0.991 -0.1339 0.1339 0.991 -2.2366 4.0366)" class="st1" width="0.55" height="1.88"/>
	<path class="st1" d="M30.72,19.94l-0.24-2.48c-0.01-0.08-0.12-0.76-1.12-1.49c-0.72-0.53-1.24-1.16-1.41-1.37v-5.3
		c0.58-0.11,1.03-0.55,1.05-1.12l0.19-4.31c0.02-0.36-0.12-0.71-0.38-0.98c-0.59-0.61-1.74-0.61-2.32,0
		c-0.26,0.27-0.39,0.62-0.37,0.98l0.22,4.31c0.03,0.56,0.48,1,1.05,1.11v5.26c-0.14,0.19-0.68,0.85-1.43,1.41
		c-0.99,0.73-1.1,1.42-1.11,1.5l-0.24,2.46c-0.01,0.06-0.08,0.61,0.25,0.99c0.13,0.15,0.38,0.33,0.8,0.33h2h1.99
		c0.43,0,0.67-0.18,0.8-0.33C30.79,20.54,30.72,19.99,30.72,19.94 M26.9,8.16l-0.22-4.31c-0.01-0.21,0.07-0.41,0.22-0.57
		c0.19-0.2,0.47-0.31,0.76-0.31c0.3,0,0.57,0.11,0.76,0.31c0.15,0.16,0.23,0.36,0.22,0.57l-0.19,4.31
		c-0.02,0.36-0.36,0.64-0.78,0.64C27.26,8.79,26.92,8.51,26.9,8.16 M30.05,20.56c-0.08,0.09-0.21,0.14-0.38,0.14h-1.72h-0.55h-1.72
		c-0.18,0-0.3-0.04-0.38-0.14c-0.14-0.16-0.14-0.46-0.13-0.57l0.24-2.46c0,0,0.1-0.53,0.9-1.13c0.45-0.33,0.82-0.69,1.09-0.99
		c0,0,0.26-0.4,0.55,0c0.27,0.29,0.65,0.65,1.09,0.99c0.8,0.59,0.89,1.11,0.89,1.11l0.24,2.49C30.17,20.01,30.21,20.36,30.05,20.56"
		/>
	<path class="st1" d="M20.55,15.75h-1.56V7.79c0-0.79-0.64-1.44-1.44-1.44c-0.79,0-1.44,0.64-1.44,1.44v7.96h-1.5
		c-0.7,0-1.27,0.57-1.27,1.27v12.35c0,0.15,0.12,0.28,0.27,0.28h7.91c0.15,0,0.27-0.12,0.27-0.28V17.02
		C21.81,16.32,21.25,15.75,20.55,15.75 M21.26,29.09H13.9V17.02c0-0.4,0.32-0.72,0.72-0.72h1.78h0.27v-0.55v-0.27V7.79
		c0-0.49,0.4-0.89,0.89-0.89c0.49,0,0.88,0.4,0.88,0.89v7.69v0.27v0.55h0.27h1.84c0.39,0,0.71,0.32,0.71,0.72V29.09z"/>
	<path class="st1" d="M31.56,25.45c-0.02-0.13-0.13-0.24-0.27-0.24h-3.62h-3.62c-0.14,0-0.25,0.1-0.27,0.24
		c-0.01,0.1-0.32,2.47,2.03,4.14c0.05,0.03,0.1,0.05,0.16,0.05h1.71h1.71c0.06,0,0.11-0.02,0.16-0.05
		C31.88,27.92,31.58,25.55,31.56,25.45 M29.28,29.09h-1.1h-0.25h-0.55h-0.08h-1.26c-1.61-1.19-1.76-2.74-1.75-3.33h3.01h0.08h0.55
		h0.25h2.84C31.03,26.35,30.88,27.91,29.28,29.09"/>
	<path class="st1" d="M10.72,24.9c-0.18-0.23-0.49-0.25-0.56-0.25H5.72H1.26c-0.06,0-0.37,0.02-0.55,0.25
		c-0.07,0.09-0.15,0.24-0.1,0.48c0.08,0.4,0.28,1.48,1.78,2.65c0.36,0.21,0.77,0.56,0.77,0.75v0.45c0,0.15,0.12,0.27,0.27,0.27h2.28
		H8c0.15,0,0.27-0.12,0.27-0.27v-0.45c0-0.19,0.41-0.54,0.81-0.77c1.47-1.15,1.67-2.23,1.75-2.65C10.87,25.15,10.8,24.99,10.72,24.9
		 M8.77,27.56c-0.17,0.1-1.05,0.62-1.05,1.23v0.18H6.31H6H5.45H4.89H3.72v-0.18c0-0.61-0.87-1.13-1.01-1.21
		c-1.31-1.02-1.48-1.95-1.56-2.34c0.02-0.02,0.09-0.04,0.13-0.04h3.62h0.55H6h0.31h3.85c0.04,0,0.12,0.02,0.13,0.08
		C10.22,25.63,10.04,26.56,8.77,27.56"/>
	<line class="st2" x1="27.67" y1="17.74" x2="27.67" y2="19.62"/>
</g>
</svg>
