<?xml version="1.0" encoding="utf-8"?>
<!-- Generator: Adobe Illustrator 23.0.2, SVG Export Plug-In . SVG Version: 6.00 Build 0)  -->
<svg version="1.1" id="Layer_1" xmlns="http://www.w3.org/2000/svg" xmlns:xlink="http://www.w3.org/1999/xlink" x="0px" y="0px"
	 width="32px" height="32px" viewBox="0 0 32 32" style="enable-background:new 0 0 32 32;" xml:space="preserve">
<style type="text/css">
	.st0{fill:none;}
	.st1{fill:#952524;}
</style>
<rect class="st0" width="32" height="32"/>
<g>
	<path class="st1" d="M18.64,13.17l-0.08,0V3.4c0-1.41-1.15-2.56-2.56-2.56c-1.41,0-2.56,1.15-2.56,2.56v9.77l-0.08,0
		c-4.75,0.31-8.48,4.29-8.48,9.05v7.61c0,0.73,0.6,1.33,1.33,1.33h19.58c0.73,0,1.33-0.6,1.33-1.33v-7.61
		C27.12,17.46,23.39,13.49,18.64,13.17 M26.14,29.83c0,0.19-0.16,0.35-0.35,0.35H6.21c-0.19,0-0.35-0.16-0.35-0.35V27.6h1.46h17.39
		h1.43V29.83z M7.88,27.05V25.9c0-4.45,3.65-8.07,8.14-8.07c4.49,0,8.14,3.62,8.14,8.07v1.15H7.88z M26.14,27.05h-1.43V25.9
		c0-4.75-3.9-8.62-8.69-8.62c-4.79,0-8.69,3.87-8.69,8.62v1.15H5.86v-4.82c0-4.52,3.63-8.2,8.1-8.2l0.45,0V3.4
		c0-0.87,0.71-1.58,1.58-1.58c0.87,0,1.58,0.71,1.58,1.58v10.61l0.46,0.01c4.47,0,8.1,3.68,8.1,8.21V27.05z"/>
</g>
</svg>
