<?xml version="1.0" encoding="utf-8"?>
<!-- Generator: Adobe Illustrator 23.0.2, SVG Export Plug-In . SVG Version: 6.00 Build 0)  -->
<svg version="1.1" id="Layer_1" xmlns="http://www.w3.org/2000/svg" xmlns:xlink="http://www.w3.org/1999/xlink" x="0px" y="0px"
	 width="32px" height="32px" viewBox="0 0 32 32" style="enable-background:new 0 0 32 32;" xml:space="preserve">
<style type="text/css">
	.st0{fill:none;}
	.st1{fill:#952524;}
</style>
<rect class="st0" width="32" height="32"/>
<g>
	<path class="st1" d="M31.26,15.12c0.03-3.17-1.18-5.88-2.01-6.71c-1.35-1.35-2.92-1.46-3-1.47h-4.01
		c-0.64-0.97-1.25-1.79-1.85-2.49c-1.43-1.64-3.3-2.63-5.26-2.78c-0.19-0.01-0.39-0.02-0.59-0.02c-0.2,0-0.4,0.01-0.59,0.02
		c-1.97,0.15-3.84,1.14-5.26,2.78c-0.61,0.7-1.21,1.51-1.85,2.49H2.26c-0.51-0.02-1.41,0.13-1.5,0.83c-0.1,0.71,0.4,1.13,0.66,1.25
		c0.02,0.01,1.39,0.81,1.42,3.99l0-0.02l0,0.2c0,0.04,0,0.09,0,0.14l-0.03,3.67l-0.04,0.11c-0.6,2.96-0.89,6.23-0.85,9.71l0,0.48
		c0,2.35,1.98,3.01,3.03,3.03h19.16c1.04-0.02,3.02-0.68,3.02-3.03l0-0.48c0.01-0.62-0.01-1.23-0.03-1.82l-0.01-0.43l0-0.04
		l0.19-0.22c0.28-0.29,0.54-0.58,0.78-0.87l0.07-0.08l0,0C30.63,20.31,31.23,17.26,31.26,15.12 M8.85,5.82
		C9.03,5.58,9.22,5.33,9.42,5.1c1.26-1.45,2.89-2.32,4.6-2.45c0.35-0.03,0.67-0.03,1.02,0c1.71,0.13,3.34,1,4.6,2.45
		c0.2,0.23,0.38,0.48,0.56,0.72c0.08,0.11,0.16,0.22,0.25,0.33l0.04,0.05H8.57l0.04-0.05C8.69,6.04,8.77,5.93,8.85,5.82 M1.65,8.53
		c0,0-0.42-0.2-0.36-0.68c0.04-0.3,0.66-0.36,0.9-0.36c0.02,0,0.03,0,0.05,0h3.43H6.5L6.48,7.54L6.15,8.06
		c-0.86,1.47-1.6,3.09-2.2,4.83l-0.57,2.34l0-2.62C3.23,9.4,1.74,8.58,1.65,8.53 M26.15,27.32c0,1.93-1.83,2.04-2.04,2.05H4.97
		c-0.21,0-2.06-0.1-2.06-2.05l0-0.49C2.81,18.49,4.58,11.74,8.15,6.75h12.76c0.75,1.05,1.45,2.23,2.06,3.5l0.25,0.53
		c2.02,4.43,3.01,9.83,2.94,16.05L26.15,27.32z M27.71,23.01c-0.08,0.2-0.54,0.72-0.67,0.86l0-0.87
		c-0.35-5.73-1.68-10.66-3.96-14.67l-0.53-0.78l-0.02-0.05h0.83l2.88,0c0.02,0,1.43,0.11,2.63,1.3c0.66,0.66,1.88,3.19,1.84,6.31
		C30.69,17.16,30.11,20.07,27.71,23.01"/>
</g>
</svg>
