<?xml version="1.0" encoding="utf-8"?>
<!-- Generator: Adobe Illustrator 23.0.2, SVG Export Plug-In . SVG Version: 6.00 Build 0)  -->
<svg version="1.1" id="Layer_1" xmlns="http://www.w3.org/2000/svg" xmlns:xlink="http://www.w3.org/1999/xlink" x="0px" y="0px"
	 width="32px" height="32px" viewBox="0 0 32 32" style="enable-background:new 0 0 32 32;" xml:space="preserve">
<style type="text/css">
	.st0{fill:none;}
	.st1{fill:#972726;}
</style>
<g>
	<rect y="0" class="st0" width="32" height="32"/>
</g>
<g>
	<path class="st1" d="M19.63,9.76V5.41c0-0.28-0.22-0.5-0.5-0.5h-2.64V1.76c0-0.38-0.16-0.62-0.29-0.75
		c-0.29-0.28-0.67-0.28-0.74-0.29H9.58v1l5.91,0.04v3.15h-2.66c-0.28,0-0.5,0.22-0.5,0.5v4.36c-3.33,0.61-5.87,3.53-5.87,7.04v14.47
		h19.1V16.81C25.55,13.28,22.99,10.35,19.63,9.76 M13.32,5.91h5.3v3.75c-0.08,0-0.16-0.01-0.24-0.01h-4.77
		c-0.1,0-0.19,0.01-0.29,0.01V5.91z M24.55,30.28H7.45V16.81c0-3.4,2.76-6.16,6.16-6.16h4.77c3.4,0,6.16,2.76,6.16,6.16V30.28z"/>
	<path class="st1" d="M16.57,19.81c-1.01-0.46-1.62-1.01-1.78-1.58c-0.05-0.2-0.04-0.37-0.01-0.53c0.05-0.18,0.19-0.54,0.56-0.79
		c0.29-0.19,0.58-0.28,0.88-0.26c0.87,0.06,1.58,0.95,1.58,0.96l0.86-0.59c-0.04-0.05-0.99-1.28-2.36-1.37
		c-0.69-0.05-1.34,0.21-1.97,0.77c-0.24,0.24-0.38,0.48-0.4,0.51c-0.16,0.34-0.33,0.88-0.17,1.51c0.23,0.89,1.02,1.65,2.32,2.25
		c0.02,0.01,2.16,1.18,1.65,2.67c-0.03,0.1-0.32,0.94-1.67,0.91c-0.17-0.01-0.3-0.03-0.36-0.05c-0.4-0.12-1.22-0.45-1.56-1.34
		l-1,0.33c0.48,1.28,1.59,1.77,2.23,1.95c0.16,0.04,0.52,0.11,0.93,0.1c1.6-0.08,2.31-1.08,2.45-1.62
		C19.51,21.41,16.72,19.89,16.57,19.81"/>
</g>
</svg>
