<?xml version="1.0" encoding="utf-8"?>
<!-- Generator: Adobe Illustrator 23.0.2, SVG Export Plug-In . SVG Version: 6.00 Build 0)  -->
<svg version="1.1" id="Layer_1" xmlns="http://www.w3.org/2000/svg" xmlns:xlink="http://www.w3.org/1999/xlink" x="0px" y="0px"
	 width="32px" height="32px" viewBox="0 0 32 32" style="enable-background:new 0 0 32 32;" xml:space="preserve">
<style type="text/css">
	.st0{fill:none;}
	.st1{fill:#972726;}
</style>
<g>
	<rect y="0" class="st0" width="32" height="32"/>
</g>
<g>
	<path class="st1" d="M16,29.48l-0.01-0.51c-6.21,0.18-11.28-1.13-12.39-1.44C-0.9,15.99,3.07,5.86,3.61,4.58
		C5.57,3.49,13.16,3.08,16,3.02h-0.01L16,2.53l-0.01-0.51C14.9,2.04,5.25,2.3,2.94,3.82L2.82,3.9L2.76,4.03
		c-0.05,0.11-5.1,11.31-0.01,24.09l0.09,0.22l0.23,0.07c0.22,0.07,5.18,1.57,11.79,1.57c0.37,0,0.76,0,1.14-0.01h-0.01L16,29.48z"/>
	<path class="st1" d="M29.18,3.9l-0.12-0.08c-2.3-1.52-11.95-1.78-13.05-1.81L16,2.53l0.01,0.49c0,0-0.01,0-0.01,0
		c2.84,0.06,10.43,0.47,12.39,1.57c0.54,1.28,4.51,11.41,0.02,22.94c-1.12,0.31-6.2,1.62-12.39,1.44L16,29.48l0.01,0.49H16
		c0.38,0.01,0.76,0.02,1.14,0.02c6.61,0,11.57-1.5,11.79-1.57l0.23-0.07l0.09-0.22c5.1-12.79,0.04-23.98-0.01-24.09L29.18,3.9z"/>
	<polygon class="st1" points="16,3.02 16.01,3.02 16,2.53 15.99,3.02 	"/>
	<path class="st1" d="M16,21.44c4.28,0,7.77-2.63,7.77-5.85S20.28,9.73,16,9.73s-7.77,2.63-7.77,5.85S11.72,21.44,16,21.44
		 M8.73,15.59c0-2.95,3.26-5.35,7.27-5.35s7.27,2.4,7.27,5.35s-3.26,5.35-7.27,5.35S8.73,18.54,8.73,15.59"/>
</g>
</svg>
