<?xml version="1.0" encoding="utf-8"?>
<!-- Generator: Adobe Illustrator 23.0.2, SVG Export Plug-In . SVG Version: 6.00 Build 0)  -->
<svg version="1.1" id="Layer_1" xmlns="http://www.w3.org/2000/svg" xmlns:xlink="http://www.w3.org/1999/xlink" x="0px" y="0px"
	 width="32px" height="32px" viewBox="0 0 32 32" style="enable-background:new 0 0 32 32;" xml:space="preserve">
<style type="text/css">
	.st0{fill:none;}
	.st1{fill:#952524;}
</style>
<rect class="st0" width="32" height="32"/>
<g>
	<path class="st1" d="M21.95,5.87c-2.41,0-4.74,0.88-6.57,2.49h-3.44V8.14c0-0.87-0.69-1.57-1.54-1.57c-0.85,0-1.54,0.7-1.54,1.57
		v0.21H3.95c-1.32,0-2.39,1.09-2.39,2.43v12.28c0,1.34,1.07,2.43,2.39,2.43h12.99c0.36,0,0.7-0.1,1.02-0.26
		c-0.01,0.01-0.03,0.02-0.04,0.03c1.28,0.57,2.64,0.87,4.03,0.87C27.49,26.13,32,21.59,32,16C32,10.41,27.49,5.87,21.95,5.87z
		 M9.44,8.14c0-0.54,0.43-0.97,0.95-0.97c0.53,0,0.95,0.44,0.95,0.97v0.17H9.44V8.14z M16.94,24.51H3.95
		c-0.78,0-1.41-0.65-1.41-1.44V10.79c0-0.79,0.63-1.44,1.41-1.44h12.99c0.69,0,1.28,0.54,1.38,1.26l0,0.02
		c0,0.01,0.01,0.02,0.01,0.03c0.01,0.03,0.02,0.08,0.02,0.13v12.28c0,0.2-0.04,0.39-0.12,0.57c-0.21,0.49-0.67,0.81-1.2,0.85
		C17,24.5,16.97,24.51,16.94,24.51z M19.3,10.49l-0.01-0.06c0.84-0.44,1.79-0.7,2.8-0.7c3.43,0,6.23,2.85,6.23,6.35
		c0,3.5-2.79,6.35-6.23,6.35c-1,0-1.93-0.25-2.77-0.68V10.79C19.33,10.69,19.31,10.6,19.3,10.49z M21.95,25.15
		c-1.09,0-2.15-0.21-3.16-0.59c0.05-0.06,0.09-0.11,0.13-0.17c0.01-0.01,0.01-0.02,0.02-0.03c0.01-0.01,0.01-0.02,0.02-0.03
		c0.05-0.07,0.1-0.14,0.13-0.21l0-0.01c0.16-0.34,0.24-0.69,0.24-1.04v-0.65c0.85,0.39,1.78,0.61,2.77,0.61
		c3.76,0,6.81-3.12,6.81-6.95c0-3.83-3.06-6.95-6.81-6.95c-1.06,0-2.06,0.26-2.95,0.71c-0.28-0.68-0.87-1.21-1.58-1.4
		c-0.04,0-0.16-0.02-0.35-0.03c-0.02,0-0.04,0-0.06,0c-0.06-0.01-0.14-0.01-0.21-0.02c1.5-1.01,3.22-1.55,5.01-1.55
		c5.01,0,9.08,4.11,9.08,9.15C31.03,21.05,26.95,25.15,21.95,25.15z"/>
	<polygon class="st1" points="18.56,13.05 15.49,13.05 13.79,13.05 0,13.05 0,13.58 13.59,13.58 15.28,13.58 18.27,13.58 
		19.1,13.58 20.89,13.58 20.89,13.05 19.43,13.05 	"/>
</g>
</svg>
