<?xml version="1.0" encoding="utf-8"?>
<!-- Generator: Adobe Illustrator 23.0.2, SVG Export Plug-In . SVG Version: 6.00 Build 0)  -->
<svg version="1.1" id="Layer_1" xmlns="http://www.w3.org/2000/svg" xmlns:xlink="http://www.w3.org/1999/xlink" x="0px" y="0px"
	 width="32px" height="32px" viewBox="0 0 32 32" style="enable-background:new 0 0 32 32;" xml:space="preserve">
<style type="text/css">
	.st0{fill:none;}
	.st1{fill:#972726;}
</style>
<g>
	<rect y="0" class="st0" width="32" height="32"/>
</g>
<g>
	<path class="st1" d="M27.96,1.14c0-0.28-0.22-0.5-0.5-0.5h-3.69c-0.28,0-0.5,0.22-0.5,0.5v5.48c0,0.72-0.2,1.26-0.59,1.62
		c-0.48,0.43-1.14,0.5-1.53,0.51v0H10.93h-0.03h-0.05v0C10.48,8.74,9.8,8.67,9.31,8.23C8.92,7.88,8.73,7.34,8.73,6.62V1.14
		c0-0.28-0.22-0.5-0.5-0.5H4.53c-0.28,0-0.5,0.22-0.5,0.5l0,25.96c-0.01,0.07-0.15,1.8,0.99,3.04c0.74,0.81,1.82,1.22,3.22,1.22
		h7.74h0.03h7.74c1.4,0,2.48-0.41,3.22-1.22c1.14-1.25,1-2.97,0.99-3V1.14z M26.23,29.47c-0.54,0.59-1.38,0.89-2.48,0.89h-7.74
		h-0.03H8.25c-1.1,0-1.94-0.3-2.48-0.89c-0.84-0.92-0.74-2.27-0.74-2.33V1.64h2.69v4.98c0,1.02,0.31,1.82,0.93,2.37
		c0.74,0.66,1.71,0.76,2.19,0.76v0c0.02,0,0.03,0,0.05,0h0h0.01h0.02h10.23v0c0.51,0,1.46-0.11,2.19-0.76
		c0.62-0.55,0.93-1.35,0.93-2.37V1.64h2.69l0,25.55C26.97,27.2,27.08,28.54,26.23,29.47"/>
	<path class="st1" d="M10.89,8.75c-0.02,0-0.03,0-0.05,0v0H10.89z"/>
</g>
</svg>
