<?xml version="1.0" encoding="utf-8"?>
<!-- Generator: Adobe Illustrator 23.0.2, SVG Export Plug-In . SVG Version: 6.00 Build 0)  -->
<svg version="1.1" id="Layer_1" xmlns="http://www.w3.org/2000/svg" xmlns:xlink="http://www.w3.org/1999/xlink" x="0px" y="0px"
	 width="32px" height="32px" viewBox="0 0 32 32" style="enable-background:new 0 0 32 32;" xml:space="preserve">
<style type="text/css">
	.st0{fill:none;}
	.st1{fill:#972726;}
</style>
<g>
	<rect y="0" class="st0" width="32" height="32"/>
</g>
<g>
	<path class="st1" d="M19.63,9.76V5.41c0-0.28-0.22-0.5-0.5-0.5h-2.64V1.76c0-0.38-0.16-0.62-0.29-0.75
		c-0.29-0.28-0.67-0.28-0.74-0.29H9.58v1l5.91,0.04v3.15h-2.66c-0.28,0-0.5,0.22-0.5,0.5v4.36c-3.34,0.61-5.87,3.53-5.87,7.04v14.47
		h19.1V16.81C25.55,13.28,22.99,10.35,19.63,9.76 M13.32,5.91h5.3v3.75c-0.08,0-0.16-0.01-0.24-0.01h-4.77
		c-0.1,0-0.19,0.01-0.29,0.01V5.91z M24.55,30.28H7.45V16.81c0-3.4,2.77-6.16,6.16-6.16h4.77c3.4,0,6.16,2.76,6.16,6.16V30.28z"/>
	<path class="st1" d="M16.98,16.62c0.86,0,1.65,0.29,2.29,0.77l0.6-0.8c-0.81-0.6-1.8-0.98-2.89-0.98c-2.67,0-4.85,2.17-4.85,4.85
		s2.17,4.85,4.85,4.85c1.09,0,2.08-0.37,2.89-0.98l-0.6-0.8c-0.64,0.48-1.43,0.77-2.29,0.77c-2.12,0-3.85-1.72-3.85-3.85
		C13.13,18.34,14.86,16.62,16.98,16.62"/>
</g>
</svg>
