<?xml version="1.0" encoding="utf-8"?>
<!-- Generator: Adobe Illustrator 23.0.2, SVG Export Plug-In . SVG Version: 6.00 Build 0)  -->
<svg version="1.1" id="Layer_1" xmlns="http://www.w3.org/2000/svg" xmlns:xlink="http://www.w3.org/1999/xlink" x="0px" y="0px"
	 width="32px" height="32px" viewBox="0 0 32 32" style="enable-background:new 0 0 32 32;" xml:space="preserve">
<style type="text/css">
	.st0{fill:none;}
	.st1{fill:#952524;}
</style>
<rect class="st0" width="32" height="32"/>
<g>
	<path class="st1" d="M24.9,6.38H5.47c-3.06,0-4.68,1.58-4.68,4.55c0,1.07,0.39,2.01,1.12,2.72c1.27,1.23,3.18,1.32,3.73,1.32
		l18.62,0c0.06,0,0.12,0.01,0.22,0.01c0.68,0,3.02-0.13,4.81-1.85c1.28-1.23,1.93-2.91,1.93-5.02c0-2.12-0.65-3.81-1.94-5.03
		c-1.66-1.56-3.78-1.75-4.54-1.77v0H2.79c-0.97,0-1.76,0.79-1.76,1.76c0,0.97,0.79,1.76,1.76,1.76l21.74,0
		c-0.01,0,1.42-0.06,2.33,0.8c0.55,0.52,0.83,1.35,0.83,2.46c0,1.1-0.28,1.93-0.83,2.46c-0.97,0.94-2.53,0.87-2.55,0.87l-18.6,0
		c-0.47,0-0.99-0.11-1.24-0.25L4.31,11.1v-0.18c0-0.6,0.07-0.73,0.09-0.77l0.1-0.11c0.09-0.06,0.25-0.13,0.96-0.13H24.9
		c0.97,0,1.76-0.79,1.76-1.76C26.67,7.17,25.88,6.38,24.9,6.38 M24.9,9.38H5.47c-1.38,0-1.68,0.28-1.68,1.55
		c0,0.36,0.14,0.49,0.2,0.55l0,0c0.39,0.38,1.27,0.48,1.72,0.48l18.61,0c0.04,0,1.79,0.07,2.91-1.02c0.65-0.64,0.99-1.59,0.99-2.84
		c0-1.26-0.34-2.22-1-2.85c-0.62-0.59-1.55-0.91-2.7-0.95l-21.73,0c-0.68,0-1.24-0.55-1.24-1.24c0-0.68,0.55-1.24,1.24-1.24l21.69,0
		c-0.03,0,2.56-0.15,4.44,1.62c1.17,1.11,1.77,2.67,1.77,4.64c0,1.95-0.59,3.51-1.76,4.64c-1.9,1.82-4.54,1.7-4.65,1.7l-18.63,0
		c-0.36,0-2.21-0.06-3.37-1.18c-0.63-0.6-0.96-1.41-0.96-2.34c0-2.67,1.4-4.03,4.16-4.03H24.9c0.68,0,1.24,0.55,1.24,1.24
		C26.14,8.83,25.59,9.38,24.9,9.38"/>
	<path class="st1" d="M24.73,17.02L24.73,17.02L2.79,17.03c-0.97,0-1.76,0.79-1.76,1.76c0,0.97,0.79,1.76,1.76,1.76l21.73,0
		c0.18-0.02,1.49,0,2.34,0.8c0.55,0.52,0.83,1.35,0.83,2.46c0,1.1-0.28,1.92-0.83,2.46c-0.96,0.94-2.53,0.88-2.54,0.87l-18.61,0
		c-0.46,0-0.99-0.11-1.24-0.25l-0.16-0.09v-0.18c0-0.53,0.05-0.69,0.09-0.77l0.04-0.07l0.07-0.04c0.09-0.06,0.25-0.13,0.96-0.13
		H24.9c0.97,0,1.77-0.79,1.77-1.76c0-0.97-0.79-1.76-1.77-1.76H5.47c-3.07,0-4.68,1.57-4.68,4.55c0,1.07,0.39,2.01,1.12,2.72
		c1.27,1.23,3.18,1.32,3.73,1.32l18.62,0c0.05,0,0.12,0,0.22,0c0.68,0,3.02-0.13,4.81-1.85c1.28-1.23,1.93-2.91,1.93-5.02
		c0-2.12-0.65-3.81-1.94-5.03C27.6,17.21,25.48,17.03,24.73,17.02 M28.92,28.45L28.92,28.45c-1.9,1.82-4.54,1.71-4.65,1.7l-18.63,0
		c-0.36,0-2.21-0.06-3.37-1.18c-0.63-0.6-0.96-1.41-0.96-2.34c0-2.67,1.4-4.03,4.16-4.03H24.9c0.68,0,1.24,0.55,1.24,1.24
		c0,0.68-0.55,1.24-1.24,1.24H5.47c-1.39,0-1.68,0.28-1.68,1.55c0,0.32,0.1,0.46,0.2,0.55c0.48,0.46,1.6,0.49,1.73,0.49l18.61,0
		c0.04,0,1.78,0.08,2.91-1.02c0.66-0.64,0.99-1.59,0.99-2.84c0-1.26-0.34-2.22-1-2.85c-0.92-0.87-2.31-0.94-2.71-0.95l-21.72,0
		c-0.68,0-1.24-0.55-1.24-1.24c0-0.68,0.55-1.24,1.24-1.24l21.68,0c0.25-0.01,2.64-0.08,4.44,1.62c1.18,1.11,1.77,2.67,1.77,4.64
		C30.69,25.77,30.09,27.33,28.92,28.45"/>
</g>
</svg>
