<?xml version="1.0" encoding="utf-8"?>
<!-- Generator: Adobe Illustrator 23.0.2, SVG Export Plug-In . SVG Version: 6.00 Build 0)  -->
<svg version="1.1" id="Layer_1" xmlns="http://www.w3.org/2000/svg" xmlns:xlink="http://www.w3.org/1999/xlink" x="0px" y="0px"
	 width="32px" height="32px" viewBox="0 0 32 32" style="enable-background:new 0 0 32 32;" xml:space="preserve">
<style type="text/css">
	.st0{fill:none;}
	.st1{fill:#972726;}
</style>
<g>
	<rect y="0" class="st0" width="32" height="32"/>
</g>
<path class="st1" d="M29.43,13.97c1-2.22,1.07-4.05,0.21-5.43c-1.31-2.12-4.31-2.38-4.76-2.41C18.33,4.41,16.33,4.42,16,4.44
	c-0.32-0.02-2.3-0.04-8.88,1.69C6.67,6.16,3.67,6.42,2.36,8.54c-0.86,1.38-0.78,3.21,0.21,5.43c2.2,4.9,4.12,7.05,5.11,7.91
	c-0.99,0.42-2.47,1.24-2.87,2.47c-0.23,0.71-0.07,1.43,0.48,2.14c0.66,0.87,1.38,1.02,1.88,0.98c1.37-0.1,2.59-1.62,3.21-2.54
	c0.65,0.97,1.99,2.63,3.5,2.63c0.05,0,0.1,0,0.16,0c0.98-0.08,1.82-0.85,2.47-2.3c1.04,0.92,3.4,2.75,4.92,2.1
	c0.63-0.27,1.02-0.88,1.17-1.84c0.81,0.73,2.09,1.7,3.02,1.62c0.35-0.03,0.64-0.21,0.84-0.5c0.3-0.45,0.4-0.93,0.3-1.4
	c-0.17-0.74-0.79-1.2-1-1.34l-1.69-1.8C24.91,21.44,27,19.39,29.43,13.97 M25.11,24.59c0.03,0.03,0.06,0.06,0.1,0.08
	c0.15,0.09,0.55,0.4,0.64,0.79c0.05,0.22-0.01,0.44-0.17,0.68c-0.04,0.06-0.08,0.08-0.15,0.09c-0.63,0.08-2.14-1.16-2.99-2.04
	c-0.13-0.13-0.33-0.18-0.51-0.11c-0.17,0.07-0.29,0.24-0.29,0.43c0,0.78-0.11,1.76-0.68,2c-1,0.42-3.24-1.23-4.41-2.37
	c-0.11-0.11-0.27-0.16-0.42-0.12c-0.15,0.03-0.28,0.14-0.33,0.29c-0.38,1.03-1.03,2.26-1.94,2.33c-1.24,0.08-2.74-1.99-3.19-2.8
	c-0.16-0.29-0.64-0.29-0.8,0c-0.41,0.73-1.72,2.63-2.87,2.71c-0.39,0.03-0.75-0.18-1.09-0.62c-0.35-0.46-0.46-0.89-0.33-1.3
	c0.12-0.38,0.43-0.72,0.82-1.02l-0.01,0c0,0,1.38-1.14,2.65-1.38h4.59h4.42h4.59c0.23,0.04,0.37,0.22,0.37,0.22L25.11,24.59z
	 M23.47,21.4L23.47,21.4c-0.13,0.18-0.55,0.38-0.55,0.38h-4.83h-4.18H9.08c0,0-0.71-0.2-1.25-1.01h0c-0.98-1-2.6-3.09-4.43-7.17
	c-0.86-1.92-0.95-3.46-0.27-4.57C4.27,7.2,7.18,7.05,7.21,7.05l0.1-0.01c6.88-1.8,8.6-1.69,8.68-1.69c0.07,0,1.83-0.12,8.71,1.69
	l0.1,0.01c0.03,0,2.95,0.15,4.07,1.98c0.68,1.11,0.59,2.64-0.27,4.57C26.2,18.92,24.18,20.84,23.47,21.4"/>
</svg>
