<?xml version="1.0" encoding="utf-8"?>
<!-- Generator: Adobe Illustrator 23.0.2, SVG Export Plug-In . SVG Version: 6.00 Build 0)  -->
<svg version="1.1" id="Layer_1" xmlns="http://www.w3.org/2000/svg" xmlns:xlink="http://www.w3.org/1999/xlink" x="0px" y="0px"
	 width="32px" height="32px" viewBox="0 0 32 32" style="enable-background:new 0 0 32 32;" xml:space="preserve">
<style type="text/css">
	.st0{fill:none;}
	.st1{fill:#972726;}
</style>
<g>
	<rect y="0" class="st0" width="32" height="32"/>
</g>
<g>
	<path class="st1" d="M3.32,31.34h25.37V0.66H3.32V31.34z M4.32,8.46h1.23v-1H4.32v-5.8h23.37v5.8h-1.23v1h1.23v21.88H4.32V8.46z"/>
	<path class="st1" d="M6.81,27.39h18.37V4.61H6.81V27.39z M7.31,5.11h17.37v21.78H7.31V5.11z"/>
	<path class="st1" d="M14.37,15.91v-0.02c0.75-0.26,1.2-0.82,1.2-1.47c0-0.52-0.22-0.92-0.59-1.18c-0.44-0.34-1.03-0.49-1.94-0.49
		c-0.64,0-1.27,0.06-1.67,0.14v6.58c0.3,0.04,0.79,0.08,1.42,0.08c1.16,0,1.95-0.2,2.45-0.63c0.36-0.33,0.6-0.76,0.6-1.34
		C15.83,16.6,15.04,16.07,14.37,15.91 M12.28,13.48c0.15-0.03,0.39-0.06,0.81-0.06c0.92,0,1.55,0.31,1.55,1.09
		c0,0.64-0.57,1.12-1.53,1.12h-0.83V13.48z M13.05,18.88c-0.33,0-0.59-0.01-0.77-0.04v-2.55h0.76c1,0,1.83,0.38,1.83,1.29
		C14.86,18.55,13.99,18.88,13.05,18.88"/>
	<path class="st1" d="M19.18,15.7c-0.98-0.36-1.41-0.66-1.41-1.29c0-0.46,0.37-1,1.33-1c0.64,0,1.11,0.2,1.34,0.32l0.25-0.7
		c-0.31-0.17-0.84-0.33-1.56-0.33c-1.38,0-2.29,0.77-2.29,1.81c0,0.94,0.71,1.51,1.87,1.89c0.96,0.35,1.33,0.7,1.33,1.33
		c0,0.67-0.55,1.14-1.48,1.14c-0.63,0-1.23-0.2-1.64-0.44l-0.23,0.72c0.38,0.24,1.12,0.43,1.8,0.43c1.67,0,2.48-0.89,2.48-1.93
		C20.98,16.68,20.37,16.14,19.18,15.7"/>
</g>
</svg>
