<?xml version="1.0" encoding="utf-8"?>
<!-- Generator: Adobe Illustrator 23.0.2, SVG Export Plug-In . SVG Version: 6.00 Build 0)  -->
<svg version="1.1" id="Layer_1" xmlns="http://www.w3.org/2000/svg" xmlns:xlink="http://www.w3.org/1999/xlink" x="0px" y="0px"
	 width="32px" height="32px" viewBox="0 0 32 32" style="enable-background:new 0 0 32 32;" xml:space="preserve">
<style type="text/css">
	.st0{fill:none;}
	.st1{fill:#972726;}
</style>
<g>
	<rect y="0" class="st0" width="32" height="32"/>
</g>
<g>
	<path class="st1" d="M30.24,22.75l-0.02-0.01c-0.46-0.36-11.26-8.83-12.44-9.63c-0.53-0.36-0.97-0.58-1.32-0.7
		c-0.08-1.27,0.83-1.98,0.87-2.02l0.93-1.02c0.03-0.05,0.83-1.26,0.42-2.45c-0.25-0.73-0.87-1.27-1.84-1.6
		c-0.94-0.32-1.74-0.27-2.4,0.15c-1.14,0.72-1.32,2.29-1.33,2.35c-0.03,0.27,0.17,0.52,0.44,0.55c0.28,0.03,0.52-0.17,0.55-0.44
		c0-0.01,0.15-1.16,0.87-1.62c0.39-0.25,0.91-0.26,1.54-0.05c0.66,0.22,1.07,0.55,1.21,0.97c0.24,0.7-0.27,1.52-0.26,1.52h0
		L16.7,9.62c-0.24,0.2-1.31,1.17-1.24,2.8c-0.34,0.12-0.74,0.34-1.25,0.69c-1.18,0.8-11.98,9.27-12.46,9.64
		c-0.07,0.06-0.72,0.64-0.74,1.39c-0.01,0.4,0.15,0.77,0.47,1.07c0.63,0.61,1.61,0.73,2.25,0.73c0.35,0,0.6-0.03,0.65-0.04h0.04v0.5
		c0,0.28,0.22,0.5,0.5,0.5c0.28,0,0.5-0.22,0.5-0.5v-0.5l20.99,0v0.51c0,0.28,0.22,0.5,0.5,0.5c0.28,0,0.5-0.22,0.5-0.5v-0.51h0.13
		c0.2,0.03,1.99,0.26,2.97-0.68c0.32-0.3,0.48-0.67,0.46-1.07C30.96,23.38,30.31,22.81,30.24,22.75 M29.82,24.49
		c-0.53,0.51-1.72,0.47-2.21,0.4L4.31,24.9c-0.38,0.06-1.6,0.1-2.13-0.41c-0.15-0.14-0.16-0.25-0.16-0.32
		c0.01-0.27,0.29-0.58,0.38-0.65c0.11-0.09,11.23-8.81,12.39-9.59c0.73-0.49,1.06-0.6,1.16-0.62L16,13.33l0.06-0.02
		c0.1,0.02,0.43,0.13,1.16,0.62c1.14,0.77,12,9.28,12.38,9.58c0.12,0.11,0.38,0.41,0.38,0.66C29.99,24.24,29.97,24.35,29.82,24.49"
		/>
</g>
</svg>
