<?xml version="1.0" encoding="utf-8"?>
<!-- Generator: Adobe Illustrator 23.0.2, SVG Export Plug-In . SVG Version: 6.00 Build 0)  -->
<svg version="1.1" id="Layer_1" xmlns="http://www.w3.org/2000/svg" xmlns:xlink="http://www.w3.org/1999/xlink" x="0px" y="0px"
	 width="32px" height="32px" viewBox="0 0 32 32" style="enable-background:new 0 0 32 32;" xml:space="preserve">
<style type="text/css">
	.st0{fill:none;}
	.st1{fill:#952624;}
</style>
<rect class="st0" width="32" height="32"/>
<g>
	<path class="st1" d="M30.73,10.54V7.76c0-3.82-3.11-6.92-6.92-6.92H8.19c-3.82,0-6.92,3.11-6.92,6.92v2.78h2.49v15.27H1.27v2.06
		c0,1.82,1.48,3.29,3.29,3.29h22.88c1.82,0,3.29-1.48,3.29-3.29v-2.06h-2.49V10.54H30.73z M29.73,26.81v1.06
		c0,1.26-1.03,2.29-2.29,2.29H4.56c-1.26,0-2.29-1.03-2.29-2.29v-1.06H29.73z M4.76,25.81V10.54h22.48v15.27H4.76z M2.27,9.54V7.76
		c0-3.26,2.66-5.92,5.92-5.92h15.62c3.27,0,5.92,2.66,5.92,5.92v1.78H2.27z"/>
	<path class="st1" d="M13.15,4.61c-0.86,0-1.56,0.7-1.56,1.56c0,0.86,0.7,1.56,1.56,1.56c0.86,0,1.56-0.7,1.56-1.56
		C14.71,5.31,14.01,4.61,13.15,4.61 M13.15,7.23c-0.58,0-1.06-0.48-1.06-1.06c0-0.58,0.48-1.06,1.06-1.06
		c0.58,0,1.06,0.48,1.06,1.06C14.21,6.75,13.73,7.23,13.15,7.23"/>
	<path class="st1" d="M18.85,4.61c-0.86,0-1.56,0.7-1.56,1.56c0,0.86,0.7,1.56,1.56,1.56c0.86,0,1.56-0.7,1.56-1.56
		C20.41,5.31,19.71,4.61,18.85,4.61 M18.85,7.23c-0.58,0-1.06-0.48-1.06-1.06c0-0.58,0.48-1.06,1.06-1.06
		c0.58,0,1.06,0.48,1.06,1.06C19.91,6.75,19.43,7.23,18.85,7.23"/>
	<path class="st0" d="M23.31,21.93c0-0.77-0.63-1.39-1.39-1.39h-0.17v0.19c0,0.84-0.17,1.65-0.52,2.42l-0.08,0.18h0.77
		C22.68,23.32,23.31,22.69,23.31,21.93z"/>
	<path class="st1" d="M13.11,14.71h5.77c0.96,0,1.75-0.79,1.75-1.75v-2.38h-0.5v2.38c0,0.69-0.56,1.25-1.25,1.25h-5.77
		c-0.69,0-1.25-0.56-1.25-1.25v-2.38h-0.5v2.38C11.37,13.92,12.15,14.71,13.11,14.71z"/>
	<path class="st1" d="M20.82,23.88l0.04-0.06h1.05c1.04,0,1.9-0.85,1.9-1.9c0-1.04-0.85-1.89-1.9-1.89h-0.17v-1.81H9.81v2.5
		c0,2.06,1.05,3.95,2.81,5.05h1.11c-2.05-0.82-3.42-2.8-3.42-5.05v-2h10.93v2c0,0.76-0.16,1.5-0.48,2.22
		c-0.16,0.36-0.38,0.71-0.66,1.08c-0.6,0.78-1.39,1.39-2.29,1.75h1.12C19.69,25.3,20.35,24.64,20.82,23.88z M21.22,23.14
		c0.34-0.77,0.52-1.59,0.52-2.42v-0.19h0.17c0.77,0,1.39,0.63,1.39,1.39c0,0.77-0.63,1.39-1.39,1.39h-0.77L21.22,23.14z"/>
</g>
</svg>
