<?xml version="1.0" encoding="utf-8"?>
<!-- Generator: Adobe Illustrator 23.0.2, SVG Export Plug-In . SVG Version: 6.00 Build 0)  -->
<svg version="1.1" id="Layer_1" xmlns="http://www.w3.org/2000/svg" xmlns:xlink="http://www.w3.org/1999/xlink" x="0px" y="0px"
	 width="32px" height="32px" viewBox="0 0 32 32" style="enable-background:new 0 0 32 32;" xml:space="preserve">
<style type="text/css">
	.st0{fill:none;}
	.st1{fill:#972726;}
</style>
<g>
	<rect y="0" class="st0" width="32" height="32"/>
</g>
<g>
	<path class="st1" d="M17.47,14.63c-0.17-0.01-0.34-0.05-0.51-0.09c-0.1,0.14-0.2,0.28-0.32,0.42c0.25,0.08,0.52,0.14,0.79,0.16
		c0.03,0,0.07,0,0.1,0c0.17-0.17,0.32-0.34,0.46-0.51C17.82,14.64,17.65,14.65,17.47,14.63"/>
	<path class="st1" d="M21.54,3.6c0.77,1.32,1.12,3.03,0.97,4.8c-0.14,1.78-0.75,3.41-1.73,4.59c-0.61,0.74-1.31,1.24-2.05,1.48
		c-0.14,0.21-0.31,0.42-0.49,0.63c1.06-0.15,2.08-0.77,2.92-1.79c1.03-1.26,1.69-2.99,1.84-4.86c0.15-1.88-0.22-3.69-1.04-5.09
		c-0.51-0.87-1.16-1.53-1.89-1.93c-0.05,0.14-0.11,0.3-0.19,0.47C20.52,2.25,21.09,2.83,21.54,3.6"/>
	<path class="st1" d="M18.53,1.45c0.32,0.02,0.62,0.1,0.92,0.22c0.08-0.18,0.14-0.34,0.18-0.47c-0.34-0.13-0.7-0.22-1.06-0.25
		c-0.02,0-0.04,0-0.06,0c-0.03,0.14-0.08,0.31-0.15,0.49C18.42,1.45,18.47,1.45,18.53,1.45"/>
	<path class="st1" d="M16.47,14.38c-1.94-0.84-3.23-3.57-2.98-6.69c0.26-3.28,2.13-5.88,4.33-6.2c0.09-0.23,0.14-0.4,0.18-0.52
		c-2.52,0.2-4.71,3.05-5,6.68c-0.26,3.27,1.09,6.15,3.16,7.13C16.26,14.64,16.37,14.51,16.47,14.38"/>
	<path class="st1" d="M7.33,23.31c-1.34-0.91-2.42-2.38-3.07-4.13c-0.65-1.75-0.77-3.58-0.34-5.14c0.38-1.39,1.15-2.4,2.19-2.91
		c-0.02-0.33-0.07-0.46-0.09-0.51c-1.24,0.55-2.15,1.7-2.58,3.29c-0.45,1.66-0.32,3.59,0.36,5.44c0.68,1.85,1.84,3.4,3.26,4.37
		c0.83,0.57,1.7,0.88,2.54,0.96c0.06-0.16,0.13-0.32,0.17-0.48C8.96,24.17,8.13,23.86,7.33,23.31"/>
	<path class="st1" d="M7.65,10.77c0.11,0,0.22,0.02,0.34,0.03c-0.03-0.37-0.09-0.47-0.1-0.47c0.01,0.01,0.05,0.05,0.12,0.05
		l0.01-0.09c-0.52-0.04-1.04,0.01-1.53,0.16c0.05,0.12,0.08,0.29,0.11,0.49C6.93,10.83,7.28,10.77,7.65,10.77"/>
	<path class="st1" d="M6.13,10.57c-0.03,0.01-0.07,0.03-0.1,0.04c0.02,0.02,0.04,0.04,0.09,0.04L6.13,10.57z"/>
	<path class="st1" d="M10.61,11.27c-0.72-0.49-1.46-0.8-2.19-0.93c0.04,0.14,0.06,0.32,0.07,0.54c0.61,0.13,1.23,0.4,1.84,0.81
		c1.33,0.91,2.42,2.38,3.07,4.13c0.65,1.75,0.77,3.58,0.34,5.14c-0.28,1.03-0.78,1.85-1.44,2.42c-0.04,0.25-0.11,0.5-0.19,0.75
		c1-0.62,1.74-1.66,2.11-3.04c0.45-1.66,0.32-3.59-0.36-5.44C13.18,13.79,12.03,12.24,10.61,11.27"/>
	<path class="st1" d="M11.23,24.01c-0.3,0.11-0.62,0.18-0.95,0.2c-0.05,0.17-0.1,0.33-0.17,0.5c0.44-0.01,0.87-0.08,1.29-0.24
		c0.02-0.01,0.04-0.02,0.06-0.03c0.09-0.22,0.16-0.44,0.22-0.65C11.53,23.88,11.38,23.95,11.23,24.01"/>
	<path class="st1" d="M7.88,13.06c-0.32,2.9,2.35,4.94,2.69,5.18c0.2,0.27,1.93,2.66,1.11,5.56c0.22-0.12,0.43-0.27,0.62-0.44
		c0.56-3.05-1.34-5.44-1.36-5.47l-0.05-0.05c-0.03-0.02-2.81-2-2.51-4.74c0.11-0.96,0.14-1.71,0.11-2.24
		c-0.17-0.04-0.34-0.06-0.5-0.07C8.02,11.18,8.02,11.86,7.88,13.06"/>
	<path class="st1" d="M7.89,10.32c0,0.01,0.07,0.1,0.1,0.48c0.17,0.02,0.33,0.04,0.5,0.07c-0.01-0.21-0.04-0.39-0.07-0.53
		c-0.13-0.02-0.27-0.04-0.4-0.05L8,10.38C7.93,10.37,7.89,10.34,7.89,10.32"/>
	<path class="st1" d="M11.68,23.8c-0.06,0.21-0.13,0.43-0.22,0.65c0.23-0.09,0.45-0.2,0.66-0.33c0.08-0.25,0.14-0.5,0.19-0.75
		C12.11,23.54,11.9,23.68,11.68,23.8"/>
	<path class="st1" d="M9.06,18.18l-0.05-0.05c-0.03-0.02-2.81-2.01-2.51-4.74c0.12-1.1,0.15-1.91,0.09-2.45
		c-0.05,0.02-0.11,0.02-0.16,0.04c-0.11,0.04-0.22,0.09-0.32,0.14c0.03,0.39,0.02,1.06-0.1,2.21c-0.32,2.9,2.35,4.93,2.69,5.18
		c0.21,0.27,1.99,2.73,1.07,5.7c0.17,0.01,0.35,0.01,0.52,0C11.21,20.9,9.08,18.21,9.06,18.18"/>
	<path class="st1" d="M9.76,24.22c-0.05,0.16-0.11,0.32-0.17,0.48c0.14,0.01,0.28,0.04,0.41,0.04c0.04,0,0.07-0.01,0.11-0.01
		c0.06-0.17,0.12-0.34,0.17-0.5C10.11,24.23,9.94,24.23,9.76,24.22"/>
	<path class="st1" d="M6.43,10.99c0.05-0.02,0.11-0.03,0.16-0.04c-0.02-0.21-0.06-0.37-0.11-0.49c-0.08,0.02-0.15,0.04-0.23,0.07
		c-0.04,0.02-0.08,0.04-0.12,0.05l-0.01,0.08c-0.05,0-0.07-0.02-0.09-0.04c0,0-0.01,0.01-0.02,0.01c0.02,0.04,0.07,0.17,0.09,0.51
		C6.21,11.08,6.32,11.03,6.43,10.99"/>
	<path class="st1" d="M19.16,9.01c0.09,0.33,0.77,3.24-1.16,5.61c0.25-0.02,0.5-0.07,0.74-0.15c1.75-2.61,0.9-5.59,0.89-5.63
		l-0.03-0.06c-0.02-0.03-1.82-2.93-0.48-5.34c0.34-0.62,0.58-1.12,0.77-1.55c-0.14-0.08-0.29-0.16-0.44-0.22
		c-0.16,0.37-0.39,0.85-0.76,1.53C17.27,5.74,18.94,8.65,19.16,9.01"/>
	<path class="st1" d="M19.89,1.89c0.07-0.17,0.14-0.33,0.19-0.47c-0.15-0.08-0.29-0.15-0.45-0.21c-0.04,0.12-0.1,0.28-0.18,0.47
		C19.6,1.73,19.75,1.8,19.89,1.89"/>
	<path class="st1" d="M18,14.62c-0.14,0.17-0.29,0.35-0.47,0.51c0.06,0,0.13,0.01,0.19,0.01c0.17,0,0.35-0.02,0.52-0.04
		c0.18-0.21,0.35-0.42,0.49-0.63C18.5,14.55,18.25,14.6,18,14.62"/>
	<path class="st1" d="M17.93,8.82L17.9,8.75c-0.02-0.03-1.82-2.94-0.49-5.34c0.46-0.82,0.76-1.47,0.94-1.97c-0.03,0-0.05,0-0.08,0
		c-0.16,0-0.31,0.01-0.46,0.04c-0.15,0.38-0.41,0.92-0.84,1.69c-1.41,2.55,0.26,5.46,0.48,5.82c0.08,0.32,0.72,3.06-0.99,5.39
		c0.16,0.07,0.32,0.13,0.49,0.17C18.8,11.91,17.94,8.85,17.93,8.82"/>
	<path class="st1" d="M16.47,14.38c-0.1,0.13-0.2,0.27-0.32,0.4c0.16,0.08,0.33,0.14,0.5,0.2c0.12-0.14,0.22-0.28,0.32-0.42
		C16.79,14.5,16.63,14.45,16.47,14.38"/>
	<path class="st1" d="M18.28,1.44c0.03,0,0.05,0,0.08,0c0.07-0.18,0.12-0.35,0.15-0.49c-0.17-0.01-0.34-0.01-0.51,0
		c-0.03,0.12-0.08,0.29-0.18,0.52C17.97,1.45,18.12,1.44,18.28,1.44"/>
	<path class="st1" d="M26.57,15.95c-0.02-0.02-0.05-0.03-0.07-0.05c-0.12-0.07-0.25-0.13-0.37-0.19c-0.43-0.21-0.89-0.35-1.37-0.42
		c-0.18-0.02-0.36-0.04-0.55-0.04c-2.53-0.06-5.44,1.72-7.3,4.75c-1.18,1.92-1.77,4.06-1.66,6.01c0.11,1.83,0.82,3.29,2.02,4.18
		c0.1,0.07,0.2,0.15,0.31,0.22c0.07,0.04,0.15,0.08,0.22,0.12c0.46,0.25,0.95,0.41,1.46,0.48c0.17,0.02,0.34,0.04,0.51,0.04
		c0.07,0,0.14,0.01,0.21,0.01c2.5,0,5.35-1.78,7.18-4.75C29.61,22.34,29.33,17.72,26.57,15.95 M15.76,25.97
		c-0.11-1.85,0.45-3.88,1.58-5.72c1.73-2.81,4.39-4.5,6.7-4.52c-0.14,0.55-0.17,1.12-0.18,1.3c-0.05,3.08-0.91,4.5-3.99,6.61
		c-2.25,1.54-2.63,4.22-2.63,5.87C16.37,28.7,15.84,27.47,15.76,25.97 M17.85,29.97c-0.03-0.02-0.05-0.04-0.08-0.06
		c-0.05-1.48,0.16-4.33,2.39-5.86c3.21-2.19,4.15-3.77,4.2-7.01c0.01-0.38,0.08-0.88,0.19-1.28c0.5,0.05,0.98,0.19,1.42,0.42
		c-0.13,0.52-0.15,1.05-0.16,1.22c-0.05,3.08-0.91,4.5-3.98,6.61c-2.55,1.75-2.7,4.95-2.61,6.47C18.74,30.4,18.27,30.23,17.85,29.97
		 M26.75,26.04c-1.8,2.93-4.63,4.64-7.01,4.5c-0.08-1.38,0.01-4.5,2.38-6.12c3.21-2.2,4.15-3.77,4.2-7.01
		c0.01-0.28,0.05-0.63,0.11-0.96C28.84,18.15,29,22.37,26.75,26.04"/>
</g>
</svg>
