<?xml version="1.0" encoding="utf-8"?>
<!-- Generator: Adobe Illustrator 23.0.2, SVG Export Plug-In . SVG Version: 6.00 Build 0)  -->
<svg version="1.1" id="Layer_1" xmlns="http://www.w3.org/2000/svg" xmlns:xlink="http://www.w3.org/1999/xlink" x="0px" y="0px"
	 width="32px" height="32px" viewBox="0 0 32 32" style="enable-background:new 0 0 32 32;" xml:space="preserve">
<style type="text/css">
	.st0{fill:none;}
	.st1{fill:#952524;}
</style>
<rect class="st0" width="32" height="32"/>
<g>
	<rect x="19.34" y="4.29" class="st1" width="6.83" height="0.55"/>
	<rect x="9.83" y="17.15" class="st1" width="0.55" height="4.92"/>
	<path class="st1" d="M25.14,11.89H6.82c-0.15,0-0.27,0.12-0.27,0.28v15c0,0.15,0.12,0.27,0.27,0.27h18.32
		c0.15,0,0.27-0.12,0.27-0.27v-15C25.41,12.02,25.29,11.89,25.14,11.89z M24.86,26.89H7.09V12.44h17.77V26.89z"/>
	<path class="st1" d="M7.85,6.21c0.91,0,1.65-0.74,1.65-1.65c0-0.91-0.74-1.65-1.65-1.65c-0.91,0-1.65,0.74-1.65,1.65
		C6.21,5.47,6.94,6.21,7.85,6.21z M7.85,3.47c0.6,0,1.1,0.49,1.1,1.1c0,0.6-0.49,1.1-1.1,1.1s-1.1-0.49-1.1-1.1
		C6.76,3.96,7.25,3.47,7.85,3.47z"/>
	<path class="st1" d="M13.94,6.21c0.91,0,1.65-0.74,1.65-1.65c0-0.91-0.74-1.65-1.65-1.65c-0.91,0-1.65,0.74-1.65,1.65
		C12.29,5.47,13.03,6.21,13.94,6.21z M13.94,3.47c0.61,0,1.1,0.49,1.1,1.1c0,0.6-0.49,1.1-1.1,1.1c-0.6,0-1.1-0.49-1.1-1.1
		C12.84,3.96,13.33,3.47,13.94,3.47z"/>
	<path class="st1" d="M27.85,0.38H4.15c-1.09,0-1.97,0.89-1.97,1.97v27.29c0,1.09,0.89,1.97,1.97,1.97h23.7
		c1.09,0,1.97-0.89,1.97-1.97V2.36C29.82,1.27,28.94,0.38,27.85,0.38z M4.15,1.36h23.7c0.55,0,0.99,0.45,0.99,0.99v5.33H3.16V2.36
		C3.16,1.81,3.6,1.36,4.15,1.36z M27.85,30.64H4.15c-0.55,0-0.99-0.45-0.99-0.99V8.23h25.69v21.41
		C28.84,30.19,28.4,30.64,27.85,30.64z"/>
</g>
</svg>
