<?xml version="1.0" encoding="utf-8"?>
<!-- Generator: Adobe Illustrator 23.0.2, SVG Export Plug-In . SVG Version: 6.00 Build 0)  -->
<svg version="1.1" id="Layer_1" xmlns="http://www.w3.org/2000/svg" xmlns:xlink="http://www.w3.org/1999/xlink" x="0px" y="0px"
	 width="32px" height="32px" viewBox="0 0 32 32" style="enable-background:new 0 0 32 32;" xml:space="preserve">
<style type="text/css">
	.st0{fill:none;}
	.st1{fill:#972726;}
</style>
<g>
	<rect y="0" class="st0" width="32" height="32"/>
</g>
<g>
	<path class="st1" d="M27.43,22.09c-0.08,0.87-0.41,1.47-0.98,1.78c-0.86,0.48-2.3,0.3-3.85-0.48c-0.98-0.49-1.78-0.54-2.38-0.15
		c-0.78,0.51-1.14,1.74-1.05,3.56c0.13,2.46-1.73,3.23-1.79,3.26c-0.12,0.04-3.02,1.01-5.57-1.41c-2.49-2.37-0.36-4.94-0.25-5.07
		c0.09-0.13,2.13-3.14,2.69-7.05c0.17-1.2-0.04-2.13-0.6-2.8c-0.06,0.06-0.12,0.11-0.17,0.16c-0.08,0.06-0.14,0.11-0.2,0.17
		c0.47,0.55,0.64,1.35,0.49,2.4c-0.54,3.79-2.59,6.81-2.59,6.81c-0.02,0.03-2.53,3.04,0.31,5.74c1.51,1.44,3.14,1.78,4.34,1.78
		c1,0,1.69-0.24,1.75-0.26c0.02-0.01,2.27-0.93,2.12-3.76c-0.09-1.61,0.2-2.72,0.82-3.12c0.44-0.29,1.08-0.23,1.88,0.18
		c1.72,0.87,3.29,1.04,4.31,0.47c0.72-0.4,1.14-1.13,1.23-2.16c0.01-0.07,0.21-1.58-0.52-2.77c-0.12,0.12-0.25,0.23-0.38,0.34
		C27.61,20.75,27.43,22.07,27.43,22.09"/>
	<path class="st1" d="M12.87,13.11c-0.95-0.5-2.01-0.43-2.05-0.42c-1.92,0.05-3.37-0.4-4.26-1.31c-1.29-1.32-1.2-3.37-1.15-4.48
		c0.01-0.19,0.02-0.36,0.02-0.49c0-1.33-1.17-1.77-1.81-1.81H2.99v0.5h0.6c0.06,0,1.33,0.12,1.33,1.31c0,0.13-0.01,0.29-0.02,0.47
		c-0.05,1.18-0.15,3.38,1.29,4.85c0.99,1.01,2.56,1.51,4.65,1.46c0.02,0,0.96-0.07,1.77,0.36c0.1-0.21,0.19-0.36,0.19-0.36
		C12.83,13.17,12.85,13.14,12.87,13.11"/>
	<path class="st1" d="M29.01,15.51c0-3.02-2.46-5.48-5.48-5.48s-5.48,2.46-5.48,5.48c0,3.02,2.46,5.48,5.48,5.48
		c1.33,0,2.55-0.48,3.5-1.27c-0.06-0.1-0.11-0.2-0.19-0.3l0.4-0.31c0.07,0.08,0.11,0.18,0.17,0.26
		C28.4,18.39,29.01,17.02,29.01,15.51 M23.53,20.5c-2.75,0-4.98-2.24-4.98-4.98c0-2.75,2.24-4.98,4.98-4.98s4.98,2.24,4.98,4.98
		C28.51,18.26,26.27,20.5,23.53,20.5"/>
	<path class="st1" d="M26.84,19.43c0.07,0.09,0.13,0.2,0.19,0.3c0.13-0.11,0.25-0.22,0.38-0.34c-0.06-0.09-0.1-0.18-0.17-0.26
		L26.84,19.43z"/>
	<path class="st1" d="M22.79,14.42c-0.04,0.08-0.08,0.15-0.14,0.21c-0.06,0.06-0.14,0.1-0.21,0.14l0.73,0.73l0.35-0.35L22.79,14.42z
		"/>
	<path class="st1" d="M23.53,15.86l0.73,0.74c0.04-0.07,0.08-0.15,0.14-0.21c0.06-0.06,0.14-0.1,0.21-0.14l-0.73-0.73L23.53,15.86z"
		/>
	<path class="st1" d="M22.44,16.25c0.08,0.04,0.15,0.08,0.21,0.14c0.06,0.06,0.1,0.14,0.14,0.21l0.73-0.73l-0.35-0.35L22.44,16.25z"
		/>
	<path class="st1" d="M24.61,14.78c-0.07-0.04-0.15-0.08-0.21-0.14s-0.1-0.14-0.14-0.21l-0.73,0.74l0.35,0.35L24.61,14.78z"/>
	
		<rect x="23.28" y="15.26" transform="matrix(0.7071 -0.7071 0.7071 0.7071 -4.0771 21.1791)" class="st1" width="0.5" height="0.5"/>
	<path class="st1" d="M25.18,14.21l-0.56,0.56c0.32,0.17,0.72,0.13,0.98-0.14c0.33-0.33,0.33-0.87,0-1.2c-0.33-0.33-0.87-0.33-1.2,0
		c-0.27,0.27-0.31,0.67-0.14,0.98l0.56-0.56L25.18,14.21z"/>
	<path class="st1" d="M24.61,14.78l0.56-0.56l-0.35-0.35l-0.56,0.56c0.04,0.08,0.08,0.15,0.14,0.21S24.54,14.74,24.61,14.78"/>
	<path class="st1" d="M21.87,16.81l0.56-0.56c-0.32-0.17-0.72-0.13-0.99,0.14c-0.33,0.33-0.33,0.87,0,1.2c0.33,0.33,0.87,0.33,1.2,0
		c0.27-0.27,0.31-0.67,0.14-0.99l-0.56,0.56L21.87,16.81z"/>
	<path class="st1" d="M22.44,16.25l-0.56,0.56l0.35,0.35l0.56-0.56c-0.04-0.08-0.08-0.15-0.14-0.21
		C22.59,16.32,22.51,16.28,22.44,16.25"/>
	<path class="st1" d="M22.23,13.86l0.56,0.56c0.17-0.32,0.13-0.72-0.14-0.98c-0.33-0.33-0.87-0.33-1.2,0c-0.33,0.33-0.33,0.87,0,1.2
		c0.27,0.27,0.67,0.31,0.99,0.14l-0.56-0.56L22.23,13.86z"/>
	<path class="st1" d="M22.79,14.42l-0.56-0.56l-0.35,0.35l0.56,0.56c0.07-0.04,0.15-0.08,0.21-0.14
		C22.71,14.57,22.75,14.5,22.79,14.42"/>
	<path class="st1" d="M24.82,17.16l-0.56-0.56c-0.17,0.32-0.13,0.72,0.14,0.99c0.33,0.33,0.87,0.33,1.2,0c0.33-0.33,0.33-0.87,0-1.2
		c-0.27-0.27-0.67-0.31-0.98-0.14l0.56,0.56L24.82,17.16z"/>
	<path class="st1" d="M24.26,16.6l0.56,0.56l0.35-0.35l-0.56-0.56c-0.08,0.04-0.15,0.08-0.21,0.14
		C24.34,16.45,24.3,16.52,24.26,16.6"/>
	<path class="st1" d="M12.62,13.55c-0.3,0.6-0.71,1.62,0.65,0.52c-0.02-0.03-0.04-0.07-0.07-0.09
		C13.03,13.79,12.82,13.66,12.62,13.55"/>
	<path class="st1" d="M13.64,13.74c2.37-2.21,9.88-12.54,9.88-12.54s-7.84,7.9-10.66,11.91c0.24,0.13,0.48,0.29,0.69,0.51
		C13.59,13.66,13.61,13.7,13.64,13.74"/>
	<path class="st1" d="M13.64,13.74c-0.03-0.04-0.05-0.08-0.08-0.12c-0.21-0.22-0.45-0.38-0.69-0.51c-0.02,0.02-0.04,0.05-0.06,0.08
		c0,0-0.09,0.15-0.19,0.36c0.21,0.11,0.41,0.24,0.58,0.42c0.03,0.03,0.04,0.06,0.07,0.09c0.07-0.05,0.13-0.1,0.2-0.17
		C13.52,13.85,13.58,13.8,13.64,13.74"/>
</g>
</svg>
