<?xml version="1.0" encoding="utf-8"?>
<!-- Generator: Adobe Illustrator 23.0.2, SVG Export Plug-In . SVG Version: 6.00 Build 0)  -->
<svg version="1.1" id="Layer_1" xmlns="http://www.w3.org/2000/svg" xmlns:xlink="http://www.w3.org/1999/xlink" x="0px" y="0px"
	 width="32px" height="32px" viewBox="0 0 32 32" style="enable-background:new 0 0 32 32;" xml:space="preserve">
<style type="text/css">
	.st0{fill:none;}
	.st1{fill:#952524;}
</style>
<rect class="st0" width="32" height="32"/>
<g>
	<path class="st1" d="M30.67,26.14h-0.44V13.98c0-2.23-1.81-4.04-4.04-4.04h-2.45V2.75c0-1.32-1.08-2.4-2.4-2.4h-8.9
		c-1.32,0-2.4,1.08-2.4,2.4v7.19H7.6c-2.23,0-4.04,1.81-4.04,4.04v0.3H0.14v0.98h3.42v10.89H3.12c-0.66,0-1.19,0.54-1.19,1.19v3.12
		c0,0.66,0.53,1.19,1.19,1.19h27.55c0.66,0,1.19-0.54,1.19-1.19v-3.12C31.86,26.68,31.33,26.14,30.67,26.14 M11.02,2.75
		c0-0.78,0.64-1.42,1.42-1.42h8.9c0.78,0,1.42,0.64,1.42,1.42v7.19H11.02V2.75z M4.54,13.98c0-1.69,1.37-3.06,3.06-3.06h18.59
		c1.69,0,3.06,1.37,3.06,3.06v12.16H4.54V13.98z M30.89,30.46c0,0.12-0.1,0.21-0.21,0.21H3.12c-0.12,0-0.21-0.1-0.21-0.21v-3.12
		c0-0.12,0.1-0.21,0.21-0.21h27.55c0.12,0,0.21,0.1,0.21,0.21V30.46z"/>
	<path class="st1" d="M8.61,15.97c0.4,0,0.72-0.32,0.72-0.72c0-0.4-0.32-0.72-0.72-0.72c-0.4,0-0.72,0.32-0.72,0.72
		C7.9,15.65,8.22,15.97,8.61,15.97"/>
	<path class="st1" d="M8.61,18.18c-0.4,0-0.72,0.32-0.72,0.72s0.32,0.72,0.72,0.72c0.4,0,0.72-0.32,0.72-0.72S9.01,18.18,8.61,18.18
		"/>
	<path class="st1" d="M8.61,21.83c-0.4,0-0.72,0.32-0.72,0.72c0,0.4,0.32,0.72,0.72,0.72c0.4,0,0.72-0.32,0.72-0.72
		C9.34,22.15,9.01,21.83,8.61,21.83"/>
</g>
</svg>
