<?xml version="1.0" encoding="utf-8"?>
<!-- Generator: Adobe Illustrator 23.0.2, SVG Export Plug-In . SVG Version: 6.00 Build 0)  -->
<svg version="1.1" id="Layer_1" xmlns="http://www.w3.org/2000/svg" xmlns:xlink="http://www.w3.org/1999/xlink" x="0px" y="0px"
	 width="32px" height="32px" viewBox="0 0 32 32" style="enable-background:new 0 0 32 32;" xml:space="preserve">
<style type="text/css">
	.st0{fill:none;}
	.st1{fill:#972726;}
</style>
<g>
	<rect y="0" class="st0" width="32" height="32"/>
</g>
<g>
	<rect x="11.52" y="1.72" class="st1" width="8.86" height="0"/>
	<rect x="10.52" y="0.72" class="st1" width="10.86" height="0"/>
	<polygon class="st1" points="11.52,1.72 11.52,1.72 20.38,1.72 20.38,1.72 21.38,1.72 21.38,0.72 10.52,0.72 10.52,1.72 	"/>
	<rect x="15.5" y="30.28" class="st1" width="1" height="0.5"/>
	<g>
		<path class="st1" d="M9.36,23.89c-1.65,0-1.74-1.58-1.75-1.75v-8.65l0.92-3.82l0.01-6.84c0-0.39,0.1-0.68,0.29-0.86
			c0.3-0.28,0.77-0.25,0.82-0.25l0.87,0v-1H9.7C9.6,0.72,8.78,0.66,8.16,1.23C7.75,1.6,7.55,2.14,7.55,2.83v6.67l-0.92,3.82
			l-0.01,8.84c0.02,0.95,0.62,2.74,2.75,2.74h0.39v-1H9.36z"/>
		<path class="st1" d="M24.45,2.82c0-0.69-0.21-1.23-0.62-1.6c-0.62-0.56-1.44-0.51-1.49-0.5h-0.97v1h1.01c0,0,0.48-0.03,0.78,0.25
			c0.19,0.18,0.29,0.47,0.29,0.86v6.73l0.93,3.94v8.64c-0.01,0.18-0.1,1.76-1.75,1.76h-0.38v1h0.38c2.13,0,2.73-1.79,2.75-2.75
			v-8.71l-0.93-3.94V2.82z"/>
		<path class="st1" d="M16.02,19.31h-0.13c-2.55,0-4.62-2.07-4.62-4.62V1.47h-0.5v13.22c0,2.82,2.29,5.12,5.12,5.12h0.13
			c2.82,0,5.12-2.29,5.12-5.12V1.61l-0.5-0.02v13.1C20.63,17.24,18.56,19.31,16.02,19.31"/>
		<path class="st1" d="M21.26,29.5c0,0.43-0.35,0.78-0.78,0.78H16.5v0.5h-1v-0.5h-3.97c-0.43,0-0.78-0.35-0.78-0.78v-4.61h-1v4.61
			c0,0.98,0.8,1.78,1.78,1.78h8.95c0.98,0,1.78-0.8,1.78-1.78v-4.61h-1V29.5z"/>
		<polygon class="st1" points="9.75,23.89 9.75,24.89 10.75,24.89 15.5,24.89 15.5,24.39 16.5,24.39 16.5,24.89 21.26,24.89 
			22.26,24.89 22.26,23.89 		"/>
		<rect x="15.75" y="24.89" class="st1" width="0.5" height="5.39"/>
		<rect x="15.5" y="24.39" class="st1" width="1" height="0.5"/>
		<path class="st1" d="M15.91,8.5c0.03,0.01,0.06,0.02,0.09,0.02c0.03,0,0.06-0.01,0.09-0.02c2.2-0.86,2.21-3.93,2.21-4.06
			c0-0.14-0.11-0.25-0.25-0.25h-4.09c-0.14,0-0.25,0.11-0.25,0.25C13.71,4.57,13.72,7.65,15.91,8.5 M17.79,4.69
			C17.74,5.39,17.48,7.36,16,8c-1.47-0.64-1.74-2.61-1.78-3.31H17.79z"/>
		<path class="st1" d="M16.01,10.66c-1.27,0-2.3,1.03-2.3,2.3v0.84c0,1.27,1.03,2.3,2.3,2.3c1.27,0,2.3-1.03,2.3-2.3v-0.84
			C18.3,11.69,17.27,10.66,16.01,10.66 M17.8,13.79c0,0.99-0.81,1.8-1.8,1.8c-0.99,0-1.8-0.81-1.8-1.8v-0.84
			c0-0.99,0.81-1.8,1.8-1.8c0.99,0,1.8,0.81,1.8,1.8V13.79z"/>
	</g>
</g>
</svg>
