<?xml version="1.0" encoding="utf-8"?>
<!-- Generator: Adobe Illustrator 23.0.2, SVG Export Plug-In . SVG Version: 6.00 Build 0)  -->
<svg version="1.1" id="Layer_1" xmlns="http://www.w3.org/2000/svg" xmlns:xlink="http://www.w3.org/1999/xlink" x="0px" y="0px"
	 width="32px" height="32px" viewBox="0 0 32 32" style="enable-background:new 0 0 32 32;" xml:space="preserve">
<style type="text/css">
	.st0{fill:none;}
	.st1{fill:#952625;}
</style>
<rect y="0" class="st0" width="32" height="32"/>
<g>
	<path class="st1" d="M3.63,15.57h9.03c0.41,0,0.75-0.34,0.75-0.75V5.79c0-0.41-0.34-0.75-0.75-0.75H3.63
		c-0.41,0-0.75,0.34-0.75,0.75v9.03C2.88,15.23,3.22,15.57,3.63,15.57z M3.39,5.79c0-0.13,0.11-0.24,0.24-0.24h9.03
		c0.13,0,0.24,0.11,0.24,0.24v9.03c0,0.13-0.11,0.24-0.24,0.24H3.63c-0.13,0-0.24-0.11-0.24-0.24V5.79z"/>
	<path class="st1" d="M19.34,15.57h9.03c0.41,0,0.75-0.34,0.75-0.75V5.79c0-0.41-0.34-0.75-0.75-0.75h-9.03
		c-0.41,0-0.75,0.34-0.75,0.75v9.03C18.59,15.23,18.92,15.57,19.34,15.57z M19.1,5.79c0-0.13,0.11-0.24,0.24-0.24h9.03
		c0.13,0,0.24,0.11,0.24,0.24v9.03c0,0.13-0.11,0.24-0.24,0.24h-9.03c-0.13,0-0.24-0.11-0.24-0.24V5.79z"/>
	<path class="st1" d="M14.52,20.93H9.69H9.18H7.53v-2.39c0-0.45,0.37-0.82,0.82-0.82c0.43,0,0.78,0.34,0.81,0.76h0.51
		c-0.03-0.71-0.61-1.27-1.32-1.27c-0.73,0-1.33,0.6-1.33,1.33v2.39H1.78c-0.38,0-0.68,0.31-0.68,0.68v4.67
		c0,0.38,0.31,0.68,0.68,0.68h12.74c0.38,0,0.68-0.31,0.68-0.68v-4.67C15.2,21.24,14.9,20.93,14.52,20.93z M14.69,26.28
		c0,0.1-0.08,0.17-0.17,0.17H1.78c-0.1,0-0.17-0.08-0.17-0.17v-4.67c0-0.1,0.08-0.17,0.17-0.17h5.25h2.66h4.83
		c0.1,0,0.17,0.08,0.17,0.17V26.28z"/>
	<path class="st1" d="M30.22,20.93h-4.83h-0.01v-2.39c0-0.73-0.6-1.33-1.33-1.33c-0.71,0-1.29,0.57-1.32,1.27h0.51
		c0.03-0.42,0.38-0.76,0.81-0.76c0.45,0,0.82,0.37,0.82,0.82v2.39h-1.63h-0.51h-5.25c-0.38,0-0.68,0.31-0.68,0.68v4.67
		c0,0.38,0.31,0.68,0.68,0.68h12.74c0.38,0,0.68-0.31,0.68-0.68v-4.67C30.9,21.24,30.6,20.93,30.22,20.93z M30.39,26.28
		c0,0.1-0.08,0.17-0.17,0.17H17.48c-0.1,0-0.17-0.08-0.17-0.17v-4.67c0-0.1,0.08-0.17,0.17-0.17h5.25h2.66h4.83
		c0.1,0,0.17,0.08,0.17,0.17V26.28z"/>
</g>
</svg>
