<?xml version="1.0" encoding="utf-8"?>
<!-- Generator: Adobe Illustrator 23.0.2, SVG Export Plug-In . SVG Version: 6.00 Build 0)  -->
<svg version="1.1" id="Layer_1" xmlns="http://www.w3.org/2000/svg" xmlns:xlink="http://www.w3.org/1999/xlink" x="0px" y="0px"
	 width="32px" height="32px" viewBox="0 0 32 32" style="enable-background:new 0 0 32 32;" xml:space="preserve">
<style type="text/css">
	.st0{fill:none;}
	.st1{fill:#952624;}
</style>
<rect class="st0" width="32" height="32"/>
<g>
	<path class="st1" d="M25.93,8.34c0.02-0.06,0.04-0.13,0.04-0.19c0-0.06-0.02-0.13-0.04-0.19c0,0,0-0.01,0-0.01
		c0-0.01-0.01-0.01-0.01-0.02c-0.02-0.05-0.05-0.09-0.08-0.13l-3.67-3.89l-0.73,0.68l2.88,3.05h-2.39H10.08H7.69l2.87-3.05
		L9.84,3.91L6.17,7.8C6.13,7.84,6.11,7.89,6.09,7.93c0,0.01-0.01,0.01-0.01,0.02c0,0,0,0,0,0.01C6.05,8.02,6.03,8.08,6.03,8.15
		c0,0.06,0.01,0.13,0.04,0.19c0,0,0,0.01,0,0.01c0,0.01,0.01,0.01,0.01,0.02c0.02,0.05,0.04,0.09,0.08,0.13l3.67,3.89l0.73-0.68
		L7.69,8.65h2.39h11.83h2.39l-2.88,3.05l0.73,0.68l3.67-3.89c0.04-0.04,0.06-0.08,0.08-0.13C25.92,8.35,25.92,8.35,25.93,8.34
		C25.93,8.34,25.93,8.34,25.93,8.34"/>
	<path class="st1" d="M29.57,10.99v16.1H2.43v-16.1h-1v16.49c0,0.34,0.27,0.61,0.61,0.61h27.93c0.34,0,0.61-0.27,0.61-0.61V10.99
		H29.57z"/>
</g>
</svg>
