<?xml version="1.0" encoding="utf-8"?>
<!-- Generator: Adobe Illustrator 23.0.2, SVG Export Plug-In . SVG Version: 6.00 Build 0)  -->
<svg version="1.1" id="Layer_1" xmlns="http://www.w3.org/2000/svg" xmlns:xlink="http://www.w3.org/1999/xlink" x="0px" y="0px"
	 width="32px" height="32px" viewBox="0 0 32 32" style="enable-background:new 0 0 32 32;" xml:space="preserve">
<style type="text/css">
	.st0{fill:none;}
	.st1{fill:#952524;}
</style>
<g>
	<rect y="0" class="st0" width="32" height="32"/>
</g>
<g>
	<path class="st1" d="M29.4,19.96l-1.49,1.19c-0.74,0.59-1.82,0.54-2.5-0.11l-0.69-0.65c-0.67-0.52-1.47-0.86-2.3-1.01l-0.01,0
		l-0.01-0.01l-6.64-8.1l0.04-0.01l6.39-1.73c0.49-0.13,0.89-0.45,1.14-0.89c0.25-0.44,0.3-0.95,0.15-1.44
		c-0.34-1.14-1.51-1.78-2.66-1.46l-9.34,2.58C10.83,8.51,10.33,9,10.14,9.63c-0.19,0.63-0.06,1.32,0.37,1.82l3.68,4.39l-0.02,0.02
		l-4.38,3.6c-0.61,0.15-1.19,0.4-1.71,0.76l-1.6,1.1c-0.43,0.19-0.94,0.14-1.32-0.13l-1.95-1.37c-0.48-0.33-1.03-0.51-1.61-0.51
		H0.03v0.99H1.6c0.38,0,0.73,0.11,1.04,0.33L4.6,22c0.68,0.48,1.58,0.56,2.34,0.2l1.71-1.16c0.71-0.49,1.53-0.73,2.35-0.73
		c0.8,0,1.6,0.23,2.29,0.7l1.12,0.95c0.53,0.45,1.21,0.69,1.9,0.69c0.49,0,0.98-0.13,1.42-0.37l1-0.89c1.5-1.36,3.76-1.46,5.36-0.23
		l0.64,0.6c1.04,0.99,2.67,1.06,3.79,0.16l1.49-1.19c0.36-0.28,0.81-0.44,1.27-0.44h0.69v-0.99h-0.69
		C30.6,19.31,29.93,19.54,29.4,19.96z M21.04,19.34c-1.1,0.11-2.16,0.58-2.98,1.31l-0.88,0.79c-0.28,0.14-0.58,0.21-0.88,0.21
		c-0.45,0-0.9-0.16-1.26-0.46l-1.18-0.99c-0.69-0.47-1.49-0.76-2.31-0.85l-0.06-0.01l0.05-0.04l4.05-3.34l-4.32-5.15
		c-0.21-0.25-0.28-0.58-0.19-0.9c0.1-0.32,0.34-0.55,0.65-0.64l9.34-2.58c0.62-0.17,1.26,0.18,1.45,0.8
		c0.07,0.23,0.04,0.47-0.07,0.67c-0.12,0.21-0.3,0.36-0.53,0.42l-6.81,1.85c-0.24,0.06-0.43,0.24-0.5,0.48
		c-0.08,0.24-0.03,0.49,0.13,0.68l6.34,7.74L21.04,19.34z"/>
	<path class="st1" d="M25.4,24.74l-0.69-0.65c-1.99-1.53-4.79-1.42-6.65,0.26l-0.88,0.79c-0.7,0.35-1.54,0.25-2.14-0.25l-1.14-0.96
		l-0.04-0.02c-1.75-1.19-4.02-1.18-5.77,0.01l-1.6,1.1c-0.43,0.19-0.93,0.14-1.32-0.13l-1.95-1.37C2.73,23.17,2.18,23,1.6,23H0.03
		v0.99H1.6c0.38,0,0.74,0.11,1.04,0.33l1.95,1.37c0.68,0.48,1.58,0.56,2.34,0.2l1.71-1.16C9.35,24.24,10.17,24,10.99,24
		c0.8,0,1.6,0.23,2.29,0.7l1.12,0.94c0.53,0.45,1.21,0.7,1.9,0.7c0.49,0,0.98-0.13,1.42-0.37l1-0.89c1.5-1.36,3.76-1.46,5.36-0.23
		l0.64,0.6c1.04,0.99,2.67,1.06,3.79,0.17l1.5-1.19c0.36-0.29,0.81-0.44,1.27-0.44h0.69V23h-0.69c-0.68,0-1.35,0.23-1.88,0.66
		l-1.49,1.19C27.16,25.43,26.09,25.39,25.4,24.74z"/>
	<path class="st1" d="M24.26,17.93c2.02,0,3.66-1.64,3.66-3.66s-1.64-3.66-3.66-3.66c-2.02,0-3.66,1.64-3.66,3.66
		S22.24,17.93,24.26,17.93z M24.26,11.6c1.47,0,2.67,1.2,2.67,2.67c0,1.47-1.2,2.67-2.67,2.67c-1.47,0-2.67-1.2-2.67-2.67
		C21.59,12.8,22.79,11.6,24.26,11.6z"/>
</g>
</svg>
