<?xml version="1.0" encoding="utf-8"?>
<!-- Generator: Adobe Illustrator 23.0.2, SVG Export Plug-In . SVG Version: 6.00 Build 0)  -->
<svg version="1.1" id="Layer_1" xmlns="http://www.w3.org/2000/svg" xmlns:xlink="http://www.w3.org/1999/xlink" x="0px" y="0px"
	 width="32px" height="32px" viewBox="0 0 32 32" style="enable-background:new 0 0 32 32;" xml:space="preserve">
<style type="text/css">
	.st0{fill:none;}
	.st1{fill:#952524;}
</style>
<g>
	<rect y="0" class="st0" width="32" height="32"/>
</g>
<g>
	<path class="st1" d="M31.81,20.7l-2.87-7.62V5.17c0-1.63-1.33-2.96-2.96-2.96H6.02c-1.63,0-2.96,1.33-2.96,2.96l-0.01,7.94
		l-2.86,7.56c-0.05,0.13-0.07,0.27-0.07,0.4l0,6.21c0,0.55,0.44,0.99,0.99,0.99h1.63v1.39c0,0.06,0.05,0.12,0.11,0.12H3.7
		c0.06,0,0.12-0.05,0.12-0.12v-1.39h24.37v1.39c0,0.06,0.05,0.12,0.12,0.12h0.84c0.06,0,0.12-0.05,0.12-0.12v-1.39h1.63
		c0.54,0,0.99-0.44,0.99-0.99v-6.18C31.88,20.97,31.86,20.83,31.81,20.7L31.81,20.7z M4.06,5.17c0-1.08,0.88-1.95,1.95-1.95h19.97
		c1.08,0,1.95,0.88,1.95,1.95v7.52h-1.91v-2.43c0-0.94-0.77-1.71-1.71-1.71h-5.35c-0.94,0-1.71,0.77-1.71,1.71v2.43h-2.52v-2.43
		c0-0.94-0.77-1.71-1.71-1.71H7.69c-0.94,0-1.71,0.77-1.71,1.71v2.43H4.06V5.17z M25.02,10.26v3c0,0.12-0.03,0.24-0.1,0.36
		c-0.13,0.22-0.36,0.35-0.61,0.35h-5.35c-0.25,0-0.48-0.13-0.61-0.35c-0.07-0.12-0.1-0.23-0.1-0.36v-3c0-0.39,0.32-0.71,0.7-0.71
		h5.35C24.7,9.55,25.02,9.87,25.02,10.26z M13.74,10.26v3c0,0.13-0.03,0.25-0.1,0.36c-0.13,0.22-0.36,0.35-0.61,0.35H7.69
		c-0.25,0-0.48-0.13-0.61-0.35c-0.07-0.11-0.1-0.23-0.1-0.36v-3c0-0.39,0.32-0.71,0.7-0.71h5.35C13.42,9.55,13.74,9.87,13.74,10.26z
		 M1.39,20.34l2.51-6.64h2.13l0.02,0.07c0.22,0.71,0.89,1.2,1.63,1.2h5.35c0.74,0,1.41-0.5,1.63-1.2l0.02-0.07h2.63l0.02,0.07
		c0.22,0.71,0.89,1.21,1.63,1.21h5.35c0.74,0,1.41-0.5,1.63-1.2l0.02-0.07h2.13l0.02,0.06l2.54,6.71H1.34L1.39,20.34z M30.88,27.28
		H1.12v-5.8h29.76V27.28z"/>
</g>
</svg>
