<?xml version="1.0" encoding="utf-8"?>
<!-- Generator: Adobe Illustrator 23.0.2, SVG Export Plug-In . SVG Version: 6.00 Build 0)  -->
<svg version="1.1" id="Layer_1" xmlns="http://www.w3.org/2000/svg" xmlns:xlink="http://www.w3.org/1999/xlink" x="0px" y="0px"
	 width="32px" height="32px" viewBox="0 0 32 32" style="enable-background:new 0 0 32 32;" xml:space="preserve">
<style type="text/css">
	.st0{fill:none;}
	.st1{fill:#952524;}
</style>
<g>
	<rect y="0" class="st0" width="32" height="32"/>
</g>
<g>
	<path class="st1" d="M26.91,20.91c0-0.92-0.71-1.66-1.58-1.66c-0.87,0-1.58,0.74-1.58,1.66s0.71,1.66,1.58,1.66
		C26.2,22.57,26.91,21.83,26.91,20.91z M26.4,20.91c0,0.64-0.48,1.15-1.07,1.15c-0.59,0-1.07-0.52-1.07-1.15
		c0-0.64,0.48-1.15,1.07-1.15C25.92,19.76,26.4,20.28,26.4,20.91z"/>
	<polygon class="st1" points="28.56,13.76 23.63,13.76 22.86,10.23 22.84,10.16 21.34,10.16 21.34,10.67 22.43,10.67 23.11,13.76 
		19.25,13.76 19.25,14.27 28.56,14.27 	"/>
	<path class="st1" d="M8.21,23.38c0.06,0.01,0.12,0.01,0.18,0.01c0.14,0,0.28-0.04,0.42-0.06c0.04-0.01,0.07-0.01,0.11-0.02
		c0.21-0.05,0.42-0.14,0.64-0.25c0.01,0,0.02-0.01,0.02-0.01c0.45-0.25,0.9-0.64,1.34-1.18c0.84-1.03,1.38-1.71,1.72-2.13v0.07
		l0.41-0.6c0.01-0.01,0.02-0.03,0.03-0.04c0.16-0.23,0.42-0.45,0.53-0.45c0,0,0.07,0.02,0.19,0.24c0.04,0.08,0.1,0.19,0.17,0.29
		l2.44,3.64c0.19,0.28,0.47,0.46,0.8,0.52c0.08,0.01,0.15,0.02,0.22,0.02c0.25,0,0.5-0.08,0.71-0.23l0.52-0.38l0.07-0.07
		c0.3-0.38,0.68-1.38-0.06-2.44c-0.54-0.76-2.36-3.22-3.4-4.61l-0.29-0.39l-0.04-0.89c-0.02-0.53-0.45-0.94-0.97-0.94H9.69
		c-0.06,0-1.46-0.07-2.09-1.81c-0.25-0.7-0.59-1.14-1.03-1.32c-0.35-0.15-0.74-0.13-1.16,0.05c-0.67,0.3-1.15,0.93-1.29,1.69
		c-0.28,1.44-0.65,5.28,1.92,9.71C6.12,21.95,6.87,23.26,8.21,23.38z M6.69,12c0.87,2.42,2.97,2.45,2.99,2.45h4.29
		c0,0,0.01,0,0.01,0.01l0.04,0.94c0.01,0.17,0.07,0.32,0.17,0.46c0.44,0.58,3.04,4.07,3.7,5.01c0.41,0.59,0.22,1.07,0.12,1.24
		l-0.42,0.31c-0.05,0.04-0.13,0.06-0.2,0.05c-0.07-0.01-0.13-0.05-0.17-0.11l-2.44-3.64c-0.04-0.06-0.07-0.12-0.12-0.22l-0.01-0.01
		c-0.25-0.46-0.58-0.71-0.98-0.73l-0.05,0c-0.67,0-1.19,0.68-1.34,0.89l-0.01,0.02c-0.15,0.2-0.77,0.98-2.08,2.6
		c-0.63,0.77-1.22,1.16-1.77,1.16c-0.03,0-0.05,0-0.08,0l-0.02,0c-0.79-0.07-1.36-0.99-1.42-1.1c-2.4-4.15-2.07-7.71-1.82-9.05
		c0.09-0.45,0.36-0.82,0.74-0.98c0.16-0.07,0.28-0.09,0.38-0.05C6.37,11.31,6.54,11.58,6.69,12z M8.39,23.37c-0.03,0-0.07,0-0.1,0
		c0.08,0,0.17-0.01,0.25-0.02C8.49,23.35,8.44,23.37,8.39,23.37z M9,23.28c0.05-0.01,0.1-0.04,0.14-0.06
		C9.1,23.24,9.05,23.26,9,23.28z"/>
	<path class="st1" d="M7.01,10.04c1.5,0,2.72-1.25,2.72-2.79c0-1.54-1.22-2.79-2.72-2.79c-1.5,0-2.72,1.25-2.72,2.79
		C4.3,8.79,5.51,10.04,7.01,10.04z M5.26,7.25c0-1,0.79-1.82,1.75-1.82c0.97,0,1.75,0.82,1.75,1.82c0,1-0.79,1.82-1.75,1.82
		C6.05,9.07,5.26,8.25,5.26,7.25z"/>
	<path class="st1" d="M8.77,19.3h0.02c0.19,0,0.38-0.08,0.51-0.22l2.33-2.39c0.17-0.17,0.22-0.43,0.13-0.65
		c-0.09-0.22-0.3-0.38-0.54-0.38c-0.45-0.02-2.7-0.12-3.41-0.47c-0.2-0.1-0.45-0.09-0.64,0.04c-0.19,0.13-0.29,0.35-0.27,0.58
		c0.07,0.7,0.33,2.05,1.34,3.25C8.38,19.2,8.57,19.29,8.77,19.3z M10.43,16.57l-1.62,1.67c-0.55-0.73-0.79-1.53-0.88-2.01
		C8.63,16.42,9.64,16.52,10.43,16.57z"/>
	<path class="st1" d="M31.04,12.5v3.2H19.25v0.51h11.79v7.12c0,1.78-1.44,3.22-3.21,3.22H4.17c-1.77,0-3.21-1.45-3.21-3.22V12.5
		h-0.98v10.83c0,2.32,1.88,4.21,4.19,4.21h23.65c2.31,0,4.19-1.89,4.19-4.21V12.5H31.04z"/>
</g>
</svg>
