<?xml version="1.0" encoding="utf-8"?>
<!-- Generator: Adobe Illustrator 23.0.2, SVG Export Plug-In . SVG Version: 6.00 Build 0)  -->
<svg version="1.1" id="Layer_1" xmlns="http://www.w3.org/2000/svg" xmlns:xlink="http://www.w3.org/1999/xlink" x="0px" y="0px"
	 width="32px" height="32px" viewBox="0 0 32 32" style="enable-background:new 0 0 32 32;" xml:space="preserve">
<style type="text/css">
	.st0{fill:none;}
	.st1{fill:#972726;}
	.st2{fill:#28B24B;}
	.st3{fill:none;stroke:#972726;stroke-width:0.5;stroke-miterlimit:10;}
</style>
<g>
	<rect y="0" class="st0" width="32" height="32"/>
</g>
<g>
	<path class="st1" d="M14.15,10.37c-0.21,0-0.38,0.17-0.38,0.38c0,0.21,0.17,0.38,0.38,0.38c0.21,0,0.38-0.17,0.38-0.38
		C14.53,10.54,14.36,10.37,14.15,10.37"/>
	<path class="st1" d="M17.85,11.12c0.21,0,0.38-0.17,0.38-0.38c0-0.21-0.17-0.38-0.38-0.38s-0.38,0.17-0.38,0.38
		C17.47,10.96,17.64,11.12,17.85,11.12"/>
	<path class="st1" d="M10.43,23.09c0.21,0,0.38-0.17,0.38-0.38c0-0.21-0.17-0.38-0.38-0.38s-0.38,0.17-0.38,0.38
		C10.05,22.92,10.22,23.09,10.43,23.09"/>
	<path class="st1" d="M21.57,23.09c0.21,0,0.38-0.17,0.38-0.38c0-0.21-0.17-0.38-0.38-0.38s-0.38,0.17-0.38,0.38
		C21.2,22.92,21.36,23.09,21.57,23.09"/>
	<path class="st1" d="M10.43,27.83c0.21,0,0.38-0.17,0.38-0.38c0-0.21-0.17-0.38-0.38-0.38s-0.38,0.17-0.38,0.38
		C10.05,27.66,10.22,27.83,10.43,27.83"/>
	<path class="st1" d="M21.57,27.83c0.21,0,0.38-0.17,0.38-0.38c0-0.21-0.17-0.38-0.38-0.38s-0.38,0.17-0.38,0.38
		C21.2,27.66,21.36,27.83,21.57,27.83"/>
	<path class="st1" d="M25.57,0.79H6.43c-0.28,0-0.5,0.22-0.5,0.5v28.53c0,0.28,0.22,0.5,0.5,0.5h1.15v0.65
		c0,0.14,0.11,0.25,0.25,0.25c0.14,0,0.25-0.11,0.25-0.25v-0.65h15.9v0.65c0,0.14,0.11,0.25,0.25,0.25c0.14,0,0.25-0.11,0.25-0.25
		v-0.65h1.11c0.28,0,0.5-0.22,0.5-0.5V1.29C26.07,1.01,25.85,0.79,25.57,0.79 M25.07,24.59v1v0.27v3.46H6.93v-3.46v-0.27v-1v-3.75
		h18.15V24.59z M25.07,19.84H16.5h-1h-0.14H6.93V1.79h8.43h0.14h1h0.2h8.38V19.84z"/>
	<line class="st2" x1="6.93" y1="25.08" x2="25.16" y2="25.08"/>
	<line class="st3" x1="6.93" y1="25.08" x2="25.16" y2="25.08"/>
	<line class="st2" x1="16.04" y1="1.7" x2="16.04" y2="19.93"/>
	<line class="st3" x1="16.04" y1="1.7" x2="16.04" y2="19.93"/>
</g>
</svg>
