<?xml version="1.0" encoding="utf-8"?>
<!-- Generator: Adobe Illustrator 23.0.2, SVG Export Plug-In . SVG Version: 6.00 Build 0)  -->
<svg version="1.1" id="Layer_1" xmlns="http://www.w3.org/2000/svg" xmlns:xlink="http://www.w3.org/1999/xlink" x="0px" y="0px"
	 width="32px" height="32px" viewBox="0 0 32 32" style="enable-background:new 0 0 32 32;" xml:space="preserve">
<style type="text/css">
	.st0{fill:none;}
	.st1{fill:#952524;}
</style>
<g>
	<rect y="0" class="st0" width="32" height="32"/>
</g>
<g>
	<path class="st1" d="M5.12,5.51H0.7C0.31,5.51,0,5.82,0,6.2v19.6c0,0.38,0.31,0.7,0.7,0.7h4.42c0.38,0,0.7-0.31,0.7-0.7V6.2
		C5.81,5.82,5.5,5.51,5.12,5.51 M0.92,6.42H4.9v19.15H0.92V6.42z"/>
	<path class="st1" d="M31.3,5.51h-4.42c-0.38,0-0.7,0.31-0.7,0.7v19.6c0,0.38,0.31,0.7,0.7,0.7h4.42c0.38,0,0.7-0.31,0.7-0.7V6.2
		C32,5.82,31.69,5.51,31.3,5.51 M31.08,25.58h-3.98V6.42h3.98V25.58z"/>
	<path class="st1" d="M22.45,14.07H9.55c-0.31,0-0.57,0.25-0.57,0.57v8.92c0,0.31,0.25,0.57,0.57,0.57h6.29v1.62h-4.1v0.75h8.51
		v-0.75h-3.67v-1.62h5.86c0.31,0,0.57-0.25,0.57-0.57v-8.92C23.02,14.33,22.76,14.07,22.45,14.07 M22.27,23.38H9.73v-8.56h12.54
		V23.38z"/>
	<path class="st1" d="M2.91,7.33c-0.54,0-0.97,0.44-0.97,0.97c0,0.54,0.44,0.97,0.97,0.97c0.54,0,0.97-0.43,0.97-0.97
		C3.88,7.77,3.44,7.33,2.91,7.33"/>
	<path class="st1" d="M2.91,11.2c-0.54,0-0.97,0.44-0.97,0.97c0,0.53,0.44,0.97,0.97,0.97c0.54,0,0.97-0.44,0.97-0.97
		C3.88,11.63,3.44,11.2,2.91,11.2"/>
	<path class="st1" d="M2.91,15.03c-0.54,0-0.97,0.44-0.97,0.97c0,0.53,0.44,0.97,0.97,0.97c0.54,0,0.97-0.44,0.97-0.97
		C3.88,15.46,3.44,15.03,2.91,15.03"/>
	<path class="st1" d="M29.1,9.28c0.53,0,0.97-0.43,0.97-0.97c0-0.54-0.44-0.97-0.97-0.97c-0.54,0-0.97,0.44-0.97,0.97
		C28.12,8.84,28.56,9.28,29.1,9.28"/>
	<path class="st1" d="M29.1,13.14c0.53,0,0.97-0.43,0.97-0.97c0-0.54-0.44-0.97-0.97-0.97c-0.54,0-0.97,0.44-0.97,0.97
		C28.12,12.71,28.56,13.14,29.1,13.14"/>
	<path class="st1" d="M29.1,16.97c0.53,0,0.97-0.43,0.97-0.97c0-0.54-0.44-0.97-0.97-0.97c-0.54,0-0.97,0.44-0.97,0.97
		C28.12,16.54,28.56,16.97,29.1,16.97"/>
</g>
</svg>
