<?xml version="1.0" encoding="utf-8"?>
<!-- Generator: Adobe Illustrator 23.0.2, SVG Export Plug-In . SVG Version: 6.00 Build 0)  -->
<svg version="1.1" id="Layer_1" xmlns="http://www.w3.org/2000/svg" xmlns:xlink="http://www.w3.org/1999/xlink" x="0px" y="0px"
	 width="32px" height="32px" viewBox="0 0 32 32" style="enable-background:new 0 0 32 32;" xml:space="preserve">
<style type="text/css">
	.st0{fill:none;}
	.st1{fill:#952625;}
</style>
<rect class="st0" width="32" height="32"/>
<g>
	<g>
		<g>
			<path class="st1" d="M16,31.05C7.7,31.05,0.95,24.3,0.95,16S7.7,0.95,16,0.95S31.05,7.7,31.05,16S24.3,31.05,16,31.05z M16,1.93
				C8.24,1.93,1.93,8.24,1.93,16c0,7.76,6.31,14.07,14.07,14.07S30.07,23.76,30.07,16C30.07,8.24,23.76,1.93,16,1.93z"/>
		</g>
		<g>
			
				<rect x="1.42" y="15.4" transform="matrix(0.5121 -0.8589 0.8589 0.5121 -6.0346 21.1471)" class="st1" width="28.36" height="0.98"/>
		</g>
	</g>
	<g>
		<g>
			<path class="st1" d="M27.71,17.41H4.69v-3.18h23.02V17.41z M5.21,16.89h21.98v-2.14H5.21V16.89z"/>
		</g>
		<g>
			<rect x="6.42" y="14.5" class="st1" width="0.52" height="2.66"/>
		</g>
		<g>
			<rect x="8.28" y="14.5" class="st1" width="0.52" height="2.66"/>
		</g>
	</g>
	<g>
		<path class="st1" d="M5.9,13.68c-0.24-0.32-0.41-0.69-0.54-1.08C5.25,12.2,5.2,11.77,5.3,11.34c0.1-0.44,0.43-0.84,0.82-1.04
			c0.39-0.23,0.81-0.31,1.22-0.37l-0.22,0.22C7.18,9.8,7.29,9.49,7.45,9.19C7.6,8.89,7.81,8.61,8.09,8.4
			C8.36,8.19,8.7,8.05,9.04,8.04c0.34-0.02,0.66,0.06,0.95,0.18C9.67,8.21,9.36,8.18,9.07,8.27c-0.29,0.07-0.55,0.2-0.74,0.41
			c-0.39,0.4-0.61,0.99-0.7,1.54c-0.02,0.11-0.11,0.2-0.22,0.22l-0.01,0c-0.36,0.07-0.73,0.13-1.03,0.3
			c-0.31,0.15-0.55,0.4-0.66,0.73C5.47,12.12,5.65,12.94,5.9,13.68z"/>
	</g>
	<g>
		<path class="st1" d="M7.35,13.68c-0.06-0.74,0.38-1.5,1.05-1.87c0.34-0.18,0.7-0.3,1.07-0.37c0.37-0.07,0.75-0.09,1.07-0.15
			c0.68-0.13,1.13-0.6,1.2-1.23c0.06-0.31,0.03-0.65-0.04-0.99c-0.08-0.33-0.17-0.69-0.42-0.92l-0.01-0.01
			c-0.01-0.01-0.01-0.02,0-0.03C11.28,8.1,11.29,8.1,11.3,8.1c0.39,0.14,0.58,0.52,0.74,0.86c0.16,0.35,0.23,0.75,0.21,1.16
			c-0.03,0.41-0.21,0.84-0.54,1.12c-0.32,0.3-0.74,0.4-1.11,0.46c-0.4,0.04-0.75,0.04-1.09,0.07c-0.35,0.04-0.68,0.13-1,0.27
			c-0.63,0.27-1.1,0.91-1.12,1.64c0,0.01-0.01,0.03-0.02,0.03C7.36,13.71,7.35,13.69,7.35,13.68z"/>
	</g>
</g>
</svg>
