<?xml version="1.0" encoding="utf-8"?>
<!-- Generator: Adobe Illustrator 23.0.2, SVG Export Plug-In . SVG Version: 6.00 Build 0)  -->
<svg version="1.1" id="Layer_1" xmlns="http://www.w3.org/2000/svg" xmlns:xlink="http://www.w3.org/1999/xlink" x="0px" y="0px"
	 width="32px" height="32px" viewBox="0 0 32 32" style="enable-background:new 0 0 32 32;" xml:space="preserve">
<style type="text/css">
	.st0{fill:none;}
	.st1{fill:#952624;}
</style>
<rect class="st0" width="32" height="32"/>
<g>
	<path class="st1" d="M31.37,12.64v-0.43c0-0.28-0.23-0.51-0.51-0.51c-0.28,0-0.51,0.23-0.51,0.51v0.19v0.98v1.75H11.79h-0.24
		c0-0.27-0.02-0.53-0.07-0.77c-0.02-0.16-0.06-0.31-0.11-0.46c-0.02-0.07-0.04-0.13-0.06-0.19c-0.04-0.11-0.1-0.21-0.15-0.31
		c-0.15-0.29-0.32-0.56-0.55-0.78c-0.28-0.28-0.6-0.47-0.91-0.61c-0.06-0.03-0.11-0.05-0.17-0.07c-0.77-0.3-1.47-0.28-1.51-0.27
		l-6.36,0.02v-0.22V9.33v-0.4V5.42c0-0.28-0.23-0.51-0.51-0.51c-0.28,0-0.51,0.23-0.51,0.51v2.56v1.36v16.74v0.51
		c0,0.28,0.23,0.51,0.51,0.51c0.28,0,0.51-0.23,0.51-0.51v-0.07v-0.44v-0.26v-3.94h28.71v4.19v0.51c0,0.28,0.23,0.51,0.51,0.51
		c0.28,0,0.51-0.23,0.51-0.51h0L31.37,12.64L31.37,12.64z M1.65,12.18l2.84-0.01h3.83c0.45,0.03,1.31,0.18,1.94,0.8
		c0.52,0.5,0.77,1.23,0.78,2.15h-9.4V12.18z M30.35,19.48v1.02v0.33H1.65V20.5v-1.02v-3.34h28.71V19.48z"/>
</g>
</svg>
