<?xml version="1.0" encoding="utf-8"?>
<!-- Generator: Adobe Illustrator 23.0.2, SVG Export Plug-In . SVG Version: 6.00 Build 0)  -->
<svg version="1.1" id="Layer_1" xmlns="http://www.w3.org/2000/svg" xmlns:xlink="http://www.w3.org/1999/xlink" x="0px" y="0px"
	 width="32px" height="32px" viewBox="0 0 32 32" style="enable-background:new 0 0 32 32;" xml:space="preserve">
<style type="text/css">
	.st0{fill:none;}
	.st1{fill:#952624;}
</style>
<rect class="st0" width="32" height="32"/>
<g>
	<path class="st1" d="M30.79,4.76h-3.74V4.67c0-1.21-0.99-2.2-2.2-2.2h-1.94h-2.23H7.16c-1.35,0-2.46,1.04-2.57,2.37H1.21
		c-0.28,0-0.5,0.22-0.5,0.5c0,0.28,0.22,0.5,0.5,0.5h3.35v18.65c0,0.41,0.33,0.74,0.74,0.74h2.56v4.31h15.79h0.33h2.45
		c0.34,0,0.61-0.27,0.61-0.61V5.76h3.74c0.28,0,0.5-0.22,0.5-0.5C31.29,4.99,31.07,4.76,30.79,4.76 M5.56,5.34V5.07
		c0-0.88,0.72-1.6,1.6-1.6h13.53h1.97h0.36c-0.23,0.35-0.36,0.76-0.36,1.2v14.59v0.28H5.56v-0.28V5.34z M5.56,24.22v-3.96v-0.22
		h17.1v0.22v3.96H7.86H5.56z M26.05,4.76h-0.83c-0.28,0-0.5,0.22-0.5,0.5c0,0.28,0.22,0.5,0.5,0.5h0.83v22.77h-2.28h-0.12H8.86
		v-3.31h13.79h0.26c0.41,0,0.74-0.33,0.74-0.74v-0.26V4.67c0-0.66,0.54-1.2,1.2-1.2c0.66,0,1.2,0.54,1.2,1.2V4.76z"/>
</g>
</svg>
