<?xml version="1.0" encoding="utf-8"?>
<!-- Generator: Adobe Illustrator 23.0.2, SVG Export Plug-In . SVG Version: 6.00 Build 0)  -->
<svg version="1.1" id="Layer_1" xmlns="http://www.w3.org/2000/svg" xmlns:xlink="http://www.w3.org/1999/xlink" x="0px" y="0px"
	 width="32px" height="32px" viewBox="0 0 32 32" style="enable-background:new 0 0 32 32;" xml:space="preserve">
<style type="text/css">
	.st0{fill:none;}
	.st1{fill:#952624;}
</style>
<rect class="st0" width="32" height="32"/>
<g>
	<path class="st1" d="M25.03,8.3c1.51,0,2.75-1.23,2.75-2.75c0-1.51-1.23-2.75-2.75-2.75c-1.52,0-2.75,1.23-2.75,2.75
		C22.28,7.06,23.52,8.3,25.03,8.3 M25.03,3.79c0.97,0,1.76,0.79,1.76,1.76c0,0.97-0.79,1.76-1.76,1.76c-0.97,0-1.76-0.79-1.76-1.76
		C23.27,4.58,24.06,3.79,25.03,3.79"/>
	<path class="st1" d="M18.13,19.55l-1.09,5.22c-0.23,1.13,0.45,2.24,1.56,2.54c0.17,0.05,0.34,0.07,0.5,0.07
		c0.34,0,0.68-0.09,0.98-0.27c0.45-0.27,0.77-0.69,0.89-1.2l0.89-3.63h3.78c0.64,0,1.25-0.28,1.67-0.75
		c0.42-0.48,0.63-1.12,0.55-1.75l-0.47-3.87l-0.22,0.06c-0.17,0.05-0.35,0.08-0.53,0.09l-0.21,0.01l0.47,3.83
		c0.04,0.36-0.07,0.71-0.31,0.98c-0.24,0.27-0.58,0.42-0.94,0.42H21.1l-1.07,4.38c-0.06,0.25-0.22,0.46-0.44,0.59
		c-0.22,0.13-0.48,0.17-0.73,0.1c-0.61-0.16-0.98-0.77-0.85-1.39l1.09-5.21c0.11-0.52,0.56-0.89,1.09-0.91l4.27-0.09l-0.3-2.67
		l-0.1-0.05c-0.16-0.08-0.31-0.08-0.44-0.07c-0.07,0-0.14,0-0.2-0.01l-0.27-0.05l0.22,1.9l-3.19,0.07
		C19.16,17.89,18.33,18.58,18.13,19.55"/>
	<path class="st1" d="M24.05,10.93c0.21-0.26,0.5-0.42,0.83-0.45c0.57-0.05,1.05,0.34,1.12,0.9l0.16,1.33l0.18,0
		c0.05,0,0.11,0,0.16,0.01c0.15,0.01,0.31,0.02,0.48-0.02l0.16-0.05l-0.17-1.38c-0.13-1.09-1.1-1.85-2.19-1.76
		c-0.59,0.06-1.13,0.34-1.5,0.81c-0.38,0.46-0.54,1.04-0.47,1.64l0.07,0.58l0.16,0.02c0.19,0.02,0.38,0.06,0.56,0.12l0.3,0.1
		l-0.11-0.93v0C23.74,11.51,23.84,11.18,24.05,10.93"/>
	<path class="st1" d="M6.29,14.98l0.98-0.54c0.37-0.2,0.82-0.31,1.25-0.29c0.13,0,0.25,0.01,0.42,0.04c0.1,0.02,0.2,0.04,0.29,0.07
		c0.13,0.04,0.25,0.08,0.35,0.15l1.07,0.61c0.66,0.38,1.5,0.5,2.3,0.34c0.44-0.06,0.8-0.17,1.1-0.33l0.99-0.54
		c0.35-0.19,0.77-0.3,1.2-0.3h0.05c0.13,0,0.25,0.01,0.42,0.04c0.1,0.02,0.2,0.04,0.29,0.07c0.13,0.04,0.25,0.09,0.35,0.15
		l0.92,0.54c0.98,0.63,2.35,0.67,3.42,0.06l0.97-0.56c0.79-0.46,1.83-0.44,2.6,0.05l0.78,0.5c0.51,0.33,1.12,0.5,1.75,0.5
		c0.22,0,0.43-0.04,0.66-0.08l0.16-0.03v-1.1l-0.25,0.07c-0.56,0.16-1.17,0.08-1.63-0.21l-0.78-0.5c-1.16-0.74-2.74-0.77-3.94-0.07
		l-0.97,0.56c-0.59,0.34-1.39,0.35-1.98,0.01l-0.88-0.54c-1.16-0.74-2.74-0.77-3.94-0.07l-0.97,0.56c-0.14,0.08-0.31,0.15-0.49,0.19
		c-0.5,0.13-1.07,0.06-1.5-0.19l-1.07-0.61c-0.03-0.02-0.07-0.04-0.11-0.06l-0.05-0.02c-0.57-0.28-1.22-0.4-1.86-0.33
		c-0.56,0.04-1.1,0.19-1.57,0.44l-0.98,0.54c-0.57,0.31-1.31,0.31-1.9-0.01l-0.29-0.16v1.2l0.13,0.05
		C4.51,15.48,5.51,15.41,6.29,14.98"/>
	<path class="st1" d="M31.24,11.79h-1.67c-0.27,0-0.49,0.22-0.49,0.49v10.75h-4.37c-0.28,0-0.52,0.23-0.52,0.52v4.66H7.81v-4.66
		c0-0.29-0.23-0.52-0.52-0.52H2.92V12.28c0-0.27-0.22-0.49-0.49-0.49H0.76c-0.27,0-0.49,0.22-0.49,0.49c0,0.27,0.22,0.49,0.49,0.49
		h1.18v10.71c0,0.3,0.24,0.54,0.54,0.54h4.35v4.63c0,0.3,0.24,0.54,0.54,0.54h17.26c0.3,0,0.54-0.24,0.54-0.54v-4.63h4.35
		c0.3,0,0.54-0.24,0.54-0.54V12.77h1.18c0.27,0,0.49-0.22,0.49-0.49C31.73,12.01,31.51,11.79,31.24,11.79"/>
	<path class="st1" d="M6.97,8.3c1.52,0,2.75-1.23,2.75-2.75c0-1.51-1.23-2.75-2.75-2.75c-1.52,0-2.75,1.23-2.75,2.75
		C4.22,7.06,5.45,8.3,6.97,8.3 M6.97,3.79c0.97,0,1.76,0.79,1.76,1.76c0,0.97-0.79,1.76-1.76,1.76c-0.97,0-1.76-0.79-1.76-1.76
		C5.2,4.58,5.99,3.79,6.97,3.79"/>
	<path class="st1" d="M5.56,16.06l-0.22-0.01c-0.18-0.01-0.36-0.04-0.53-0.09L4.59,15.9l-0.47,3.87c-0.08,0.63,0.12,1.27,0.55,1.75
		c0.42,0.48,1.04,0.75,1.68,0.75h3.78l0.89,3.63c0.12,0.51,0.44,0.94,0.89,1.2c0.3,0.18,0.64,0.27,0.98,0.27
		c0.17,0,0.34-0.02,0.51-0.07c1.11-0.3,1.8-1.41,1.56-2.54l-1.09-5.21c-0.2-0.97-1.04-1.67-2.03-1.69L8.65,17.8l0.21-1.81
		l-0.27,0.06c-0.05,0.01-0.13,0-0.21-0.01c-0.14-0.02-0.3-0.04-0.47,0.04l-0.1,0.05l-0.26,2.64l4.27,0.09
		c0.53,0.01,0.98,0.38,1.09,0.91L14,24.97c0.13,0.61-0.25,1.23-0.85,1.39c-0.25,0.07-0.51,0.03-0.73-0.1
		c-0.22-0.13-0.38-0.34-0.44-0.59l-1.07-4.38H6.34c-0.36,0-0.7-0.15-0.94-0.42c-0.24-0.27-0.35-0.63-0.31-0.98L5.56,16.06z"/>
	<path class="st1" d="M8.41,12.67c0.18-0.06,0.37-0.1,0.56-0.12l0.16-0.02l0.07-0.58c0.07-0.59-0.1-1.18-0.48-1.64
		C8.34,9.85,7.81,9.56,7.21,9.5c-1.09-0.1-2.06,0.66-2.19,1.76l-0.13,1.35l0.16,0.05c0.17,0.05,0.36,0.04,0.51,0.04l0.31-0.01
		L6,11.38c0.07-0.56,0.54-0.96,1.12-0.9c0.33,0.03,0.63,0.19,0.84,0.45c0.21,0.26,0.3,0.58,0.27,0.91l-0.11,0.93L8.41,12.67z"/>
</g>
</svg>
