<?xml version="1.0" encoding="utf-8"?>
<!-- Generator: Adobe Illustrator 23.0.2, SVG Export Plug-In . SVG Version: 6.00 Build 0)  -->
<svg version="1.1" id="Layer_1" xmlns="http://www.w3.org/2000/svg" xmlns:xlink="http://www.w3.org/1999/xlink" x="0px" y="0px"
	 width="32px" height="32px" viewBox="0 0 32 32" style="enable-background:new 0 0 32 32;" xml:space="preserve">
<style type="text/css">
	.st0{fill:none;}
	.st1{fill:#952624;}
</style>
<rect class="st0" width="32" height="32"/>
<g>
	<path class="st1" d="M9.18,8.57h-5.8c-1.81,0-3.28,1.47-3.28,3.28v5.77c0,0.95,0.77,1.72,1.72,1.72c0.24,0,0.47-0.05,0.7-0.15
		l0.04-0.02v9.67c0,1.17,0.95,2.13,2.13,2.13c0.61,0,1.2-0.27,1.61-0.75L6.3,30.2l0.02,0.02c0.4,0.47,0.98,0.75,1.59,0.75
		c1.15,0,2.09-0.94,2.09-2.09v-9.7l0.03,0.02c0.22,0.1,0.46,0.15,0.7,0.15c0.95,0,1.72-0.77,1.72-1.72v-5.77
		C12.46,10.04,10.98,8.57,9.18,8.57 M11.47,14.63l0,0.03v2.96c0,0.4-0.33,0.73-0.73,0.73c-0.4,0-0.73-0.33-0.73-0.73v-2.96
		c0-0.03,0-0.05,0-0.07c0-0.01,0-0.03,0-0.04v-1.72c0-0.27-0.22-0.5-0.49-0.5c-0.27,0-0.5,0.22-0.5,0.5v16.06
		c0,0.61-0.5,1.1-1.1,1.1c-0.61,0-1.1-0.5-1.1-1.1v-9.52c0-0.27-0.22-0.49-0.49-0.49c-0.27,0-0.49,0.22-0.49,0.49v9.48
		c0,0.63-0.51,1.14-1.14,1.14c-0.63,0-1.14-0.51-1.14-1.14V12.82c0-0.27-0.22-0.5-0.49-0.5c-0.27,0-0.49,0.22-0.49,0.5v1.72
		c0,0.02,0,0.03,0,0.04c0,0.02,0,0.05,0,0.07v2.97c0,0.4-0.33,0.73-0.73,0.73c-0.4,0-0.73-0.33-0.73-0.73l0-2.99
		c0-0.03-0.01-0.06-0.01-0.09l0.01-0.92v-1.77c0-1.26,1.03-2.29,2.29-2.29h5.8c1.26,0,2.29,1.03,2.29,2.29v1.77l0.01,0.92
		C11.48,14.57,11.47,14.6,11.47,14.63"/>
	<path class="st1" d="M6.28,7.95c1.84,0,3.34-1.54,3.34-3.43c0-1.89-1.5-3.43-3.34-3.43c-1.84,0-3.34,1.54-3.34,3.43
		C2.94,6.42,4.44,7.95,6.28,7.95 M6.28,2.09c1.3,0,2.35,1.09,2.35,2.44c0,1.35-1.06,2.44-2.35,2.44c-1.3,0-2.35-1.09-2.35-2.44
		C3.93,3.18,4.98,2.09,6.28,2.09"/>
	<path class="st1" d="M24.32,7.95c1.69,0,3.06-1.54,3.06-3.43c0-1.89-1.37-3.43-3.06-3.43s-3.06,1.54-3.06,3.43
		C21.26,6.42,22.63,7.95,24.32,7.95 M24.32,2.09c1.19,0,2.16,1.09,2.16,2.44c0,1.35-0.97,2.44-2.16,2.44
		c-1.19,0-2.16-1.09-2.16-2.44C22.16,3.18,23.13,2.09,24.32,2.09"/>
	<path class="st1" d="M31.68,15.91L31.68,15.91l-2.02-4.99c-0.58-1.42-1.94-2.34-3.48-2.34h-4.06c-1.61,0-3.04,1.03-3.55,2.56
		l-1.55,4.64c-0.3,0.56-0.36,1.24-0.14,1.83c0.2,0.55,0.61,0.96,1.13,1.16c0.13,0.05,0.26,0.09,0.42,0.11l0.03,0l-0.01,0.03
		l-0.58,1.58c-0.16,0.43-0.09,0.92,0.17,1.29c0.27,0.38,0.7,0.6,1.16,0.6h1.58v6.66c0,1.06,0.86,1.93,1.93,1.93
		c0.54,0,1.04-0.22,1.42-0.63l0.02-0.02l0.02,0.02c0.37,0.41,0.88,0.63,1.41,0.63c1.06,0,1.93-0.86,1.93-1.93v-6.66h1.58
		c0.46,0,0.89-0.22,1.16-0.6c0.26-0.38,0.33-0.86,0.17-1.29l-0.58-1.59l0.04,0c0.51-0.01,0.99-0.2,1.38-0.52
		C31.91,17.81,32.1,16.74,31.68,15.91 M30.59,17.63c-0.22,0.19-0.5,0.29-0.79,0.29h-0.33l-0.01-0.02l-2.07-5.7
		c-0.09-0.26-0.37-0.39-0.63-0.3c-0.12,0.04-0.22,0.14-0.28,0.25c-0.06,0.12-0.06,0.25-0.02,0.38l3.01,8.29
		c0.05,0.13,0.03,0.27-0.05,0.39c-0.08,0.12-0.21,0.18-0.35,0.18H26.5v7.64c0,0.52-0.42,0.94-0.94,0.94c-0.52,0-0.94-0.42-0.94-0.94
		v-7.15c0-0.27-0.22-0.49-0.49-0.49c-0.27,0-0.5,0.22-0.5,0.49v7.15c0,0.52-0.42,0.94-0.94,0.94c-0.52,0-0.94-0.42-0.94-0.94V21.4
		h-2.57c-0.14,0-0.27-0.07-0.35-0.18c-0.08-0.11-0.1-0.26-0.05-0.39l3.03-8.29c0.04-0.12,0.04-0.26-0.02-0.38
		c-0.06-0.12-0.15-0.21-0.28-0.26c-0.26-0.09-0.54,0.04-0.63,0.29l-2.09,5.71h-0.02c-0.15,0-0.29-0.03-0.43-0.08
		c-0.26-0.1-0.46-0.3-0.56-0.58c-0.12-0.34-0.08-0.71,0.12-1.09l1.58-4.72c0.38-1.13,1.43-1.88,2.62-1.88h4.06
		c1.13,0,2.14,0.68,2.56,1.73l2.04,5.03C31.01,16.78,30.94,17.33,30.59,17.63"/>
	<rect x="14.78" y="0.83" class="st1" width="0.5" height="30.34"/>
</g>
</svg>
