<?xml version="1.0" encoding="utf-8"?>
<!-- Generator: Adobe Illustrator 23.0.2, SVG Export Plug-In . SVG Version: 6.00 Build 0)  -->
<svg version="1.1" id="Layer_1" xmlns="http://www.w3.org/2000/svg" xmlns:xlink="http://www.w3.org/1999/xlink" x="0px" y="0px"
	 width="32px" height="32px" viewBox="0 0 32 32" style="enable-background:new 0 0 32 32;" xml:space="preserve">
<style type="text/css">
	.st0{fill:none;}
	.st1{fill:#952624;}
</style>
<rect class="st0" width="32" height="32"/>
<g>
	<path class="st1" d="M16,31.12C7.66,31.12,0.88,24.34,0.88,16C0.88,7.66,7.66,0.88,16,0.88c8.34,0,15.12,6.78,15.12,15.12
		C31.12,24.34,24.34,31.12,16,31.12 M16,1.88C8.21,1.88,1.88,8.21,1.88,16c0,7.79,6.34,14.12,14.12,14.12
		c7.79,0,14.12-6.33,14.12-14.12C30.12,8.21,23.79,1.88,16,1.88"/>
	<path class="st1" d="M23.37,25.16H8.63c-0.99,0-1.79-0.8-1.79-1.79V8.63c0-0.99,0.8-1.79,1.79-1.79h14.74
		c0.99,0,1.79,0.8,1.79,1.79v14.74C25.16,24.36,24.36,25.16,23.37,25.16 M8.63,7.34c-0.71,0-1.29,0.58-1.29,1.29v14.74
		c0,0.71,0.58,1.29,1.29,1.29h14.74c0.71,0,1.29-0.58,1.29-1.29V8.63c0-0.71-0.58-1.29-1.29-1.29H8.63z"/>
	<path class="st1" d="M14.77,12.67H9.6c-0.34,0-0.62-0.28-0.62-0.62V9.66c0-0.34,0.28-0.62,0.62-0.62h5.17
		c0.34,0,0.62,0.28,0.62,0.62v2.39C15.39,12.4,15.11,12.67,14.77,12.67 M9.6,9.54c-0.07,0-0.12,0.06-0.12,0.12v2.39
		c0,0.07,0.06,0.12,0.12,0.12h5.17c0.07,0,0.12-0.05,0.12-0.12V9.66c0-0.07-0.06-0.12-0.12-0.12H9.6z"/>
	<path class="st1" d="M22.4,12.67h-5.17c-0.34,0-0.62-0.28-0.62-0.62V9.66c0-0.34,0.28-0.62,0.62-0.62h5.17
		c0.34,0,0.62,0.28,0.62,0.62v2.39C23.02,12.4,22.74,12.67,22.4,12.67 M17.23,9.54c-0.07,0-0.12,0.06-0.12,0.12v2.39
		c0,0.07,0.06,0.12,0.12,0.12h5.17c0.07,0,0.12-0.05,0.12-0.12V9.66c0-0.07-0.06-0.12-0.12-0.12H17.23z"/>
</g>
</svg>
