<?xml version="1.0" encoding="utf-8"?>
<!-- Generator: Adobe Illustrator 23.0.2, SVG Export Plug-In . SVG Version: 6.00 Build 0)  -->
<svg version="1.1" id="Layer_1" xmlns="http://www.w3.org/2000/svg" xmlns:xlink="http://www.w3.org/1999/xlink" x="0px" y="0px"
	 width="32px" height="32px" viewBox="0 0 32 32" style="enable-background:new 0 0 32 32;" xml:space="preserve">
<style type="text/css">
	.st0{fill:none;}
	.st1{fill:#952624;}
</style>
<rect class="st0" width="32" height="32"/>
<g>
	<path class="st1" d="M20.24,15.99l-0.69-0.73l-3.05,2.88V3.91h-1v14.22l-3.05-2.88l-0.69,0.73l3.89,3.67
		c0.04,0.04,0.08,0.06,0.13,0.08c0.01,0,0.01,0.01,0.02,0.01c0,0,0,0,0.01,0c0.06,0.02,0.13,0.04,0.19,0.04
		c0.07,0,0.13-0.02,0.19-0.04c0,0,0.01,0,0.01,0c0.01,0,0.01-0.01,0.02-0.02c0.04-0.02,0.09-0.04,0.13-0.08L20.24,15.99z"/>
	<path class="st1" d="M29.57,10.99v16.1H2.43v-16.1h-1v16.49c0,0.34,0.27,0.61,0.61,0.61h27.93c0.34,0,0.61-0.27,0.61-0.61V10.99
		H29.57z"/>
</g>
</svg>
