<?xml version="1.0" encoding="utf-8"?>
<!-- Generator: Adobe Illustrator 23.0.2, SVG Export Plug-In . SVG Version: 6.00 Build 0)  -->
<svg version="1.1" id="Layer_1" xmlns="http://www.w3.org/2000/svg" xmlns:xlink="http://www.w3.org/1999/xlink" x="0px" y="0px"
	 width="32px" height="32px" viewBox="0 0 32 32" style="enable-background:new 0 0 32 32;" xml:space="preserve">
<style type="text/css">
	.st0{fill:none;}
	.st1{fill:#952625;}
</style>
<rect y="0" class="st0" width="32" height="32"/>
<g>
	<g>
		<path class="st1" d="M11.5,17.04H1.75c-0.68,0-1.24-0.56-1.24-1.24V6.04c0-0.68,0.56-1.24,1.24-1.24h9.75
			c0.68,0,1.24,0.56,1.24,1.24v9.75C12.74,16.48,12.18,17.04,11.5,17.04z M1.75,5.79c-0.14,0-0.26,0.12-0.26,0.26v9.75
			c0,0.14,0.12,0.26,0.26,0.26h9.75c0.14,0,0.26-0.12,0.26-0.26V6.04c0-0.14-0.12-0.26-0.26-0.26H1.75z"/>
	</g>
	<g>
		<path class="st1" d="M30.52,27.2H1.48c-0.53,0-0.97-0.43-0.97-0.97v-3.72c0-0.53,0.43-0.97,0.97-0.97h29.04
			c0.53,0,0.97,0.43,0.97,0.97v3.72C31.49,26.76,31.06,27.2,30.52,27.2z M30.51,22.51L1.48,22.52l0.01,3.71l29.02-0.01V22.51z"/>
	</g>
	<g>
		<path class="st1" d="M30.25,17.04H20.5c-0.68,0-1.24-0.56-1.24-1.24V6.04c0-0.68,0.56-1.24,1.24-1.24h9.75
			c0.68,0,1.24,0.56,1.24,1.24v9.75C31.49,16.48,30.93,17.04,30.25,17.04z M20.5,5.79c-0.14,0-0.26,0.12-0.26,0.26v9.75
			c0,0.14,0.12,0.26,0.26,0.26h9.75c0.14,0,0.26-0.12,0.26-0.26V6.04c0-0.14-0.12-0.26-0.26-0.26H20.5z"/>
	</g>
</g>
</svg>
