<?xml version="1.0" encoding="utf-8"?>
<!-- Generator: Adobe Illustrator 23.0.2, SVG Export Plug-In . SVG Version: 6.00 Build 0)  -->
<svg version="1.1" id="Layer_1" xmlns="http://www.w3.org/2000/svg" xmlns:xlink="http://www.w3.org/1999/xlink" x="0px" y="0px"
	 width="32px" height="32px" viewBox="0 0 32 32" style="enable-background:new 0 0 32 32;" xml:space="preserve">
<style type="text/css">
	.st0{fill:none;}
	.st1{fill:#952625;}
</style>
<rect y="0" class="st0" width="32" height="32"/>
<g>
	<path class="st1" d="M8.21,10.36c-0.14,0-0.26,0.12-0.26,0.26v1.17c0,0.14,0.12,0.26,0.26,0.26s0.26-0.12,0.26-0.26v-1.17
		C8.47,10.48,8.35,10.36,8.21,10.36z"/>
	<path class="st1" d="M9.92,10.36c-0.14,0-0.26,0.12-0.26,0.26v1.17c0,0.14,0.12,0.26,0.26,0.26s0.26-0.12,0.26-0.26v-1.17
		C10.18,10.48,10.07,10.36,9.92,10.36z"/>
	<path class="st1" d="M11.64,10.36c-0.14,0-0.26,0.12-0.26,0.26v1.17c0,0.14,0.12,0.26,0.26,0.26c0.14,0,0.26-0.12,0.26-0.26v-1.17
		C11.9,10.48,11.78,10.36,11.64,10.36z"/>
	<path class="st1" d="M13.35,10.36c-0.14,0-0.26,0.12-0.26,0.26v1.17c0,0.14,0.12,0.26,0.26,0.26s0.26-0.12,0.26-0.26v-1.17
		C13.61,10.48,13.49,10.36,13.35,10.36z"/>
	<path class="st1" d="M8.21,12.48c-0.14,0-0.26,0.12-0.26,0.26v1.17c0,0.14,0.12,0.26,0.26,0.26s0.26-0.12,0.26-0.26v-1.17
		C8.47,12.6,8.35,12.48,8.21,12.48z"/>
	<path class="st1" d="M9.92,12.48c-0.14,0-0.26,0.12-0.26,0.26v1.17c0,0.14,0.12,0.26,0.26,0.26s0.26-0.12,0.26-0.26v-1.17
		C10.18,12.6,10.07,12.48,9.92,12.48z"/>
	<path class="st1" d="M11.64,12.48c-0.14,0-0.26,0.12-0.26,0.26v1.17c0,0.14,0.12,0.26,0.26,0.26c0.14,0,0.26-0.12,0.26-0.26v-1.17
		C11.9,12.6,11.78,12.48,11.64,12.48z"/>
	<path class="st1" d="M13.35,12.48c-0.14,0-0.26,0.12-0.26,0.26v1.17c0,0.14,0.12,0.26,0.26,0.26s0.26-0.12,0.26-0.26v-1.17
		C13.61,12.6,13.49,12.48,13.35,12.48z"/>
	<path class="st1" d="M8.21,14.6c-0.14,0-0.26,0.12-0.26,0.26v1.17c0,0.14,0.12,0.26,0.26,0.26s0.26-0.12,0.26-0.26v-1.17
		C8.47,14.71,8.35,14.6,8.21,14.6z"/>
	<path class="st1" d="M9.92,14.6c-0.14,0-0.26,0.12-0.26,0.26v1.17c0,0.14,0.12,0.26,0.26,0.26s0.26-0.12,0.26-0.26v-1.17
		C10.18,14.71,10.07,14.6,9.92,14.6z"/>
	<path class="st1" d="M11.64,14.6c-0.14,0-0.26,0.12-0.26,0.26v1.17c0,0.14,0.12,0.26,0.26,0.26c0.14,0,0.26-0.12,0.26-0.26v-1.17
		C11.9,14.71,11.78,14.6,11.64,14.6z"/>
	<path class="st1" d="M13.35,14.6c-0.14,0-0.26,0.12-0.26,0.26v1.17c0,0.14,0.12,0.26,0.26,0.26s0.26-0.12,0.26-0.26v-1.17
		C13.61,14.71,13.49,14.6,13.35,14.6z"/>
	<path class="st1" d="M8.21,16.71c-0.14,0-0.26,0.12-0.26,0.26v1.17c0,0.14,0.12,0.26,0.26,0.26s0.26-0.12,0.26-0.26v-1.17
		C8.47,16.83,8.35,16.71,8.21,16.71z"/>
	<path class="st1" d="M9.92,16.71c-0.14,0-0.26,0.12-0.26,0.26v1.17c0,0.14,0.12,0.26,0.26,0.26s0.26-0.12,0.26-0.26v-1.17
		C10.18,16.83,10.07,16.71,9.92,16.71z"/>
	<path class="st1" d="M11.64,16.71c-0.14,0-0.26,0.12-0.26,0.26v1.17c0,0.14,0.12,0.26,0.26,0.26c0.14,0,0.26-0.12,0.26-0.26v-1.17
		C11.9,16.83,11.78,16.71,11.64,16.71z"/>
	<path class="st1" d="M13.35,16.71c-0.14,0-0.26,0.12-0.26,0.26v1.17c0,0.14,0.12,0.26,0.26,0.26s0.26-0.12,0.26-0.26v-1.17
		C13.61,16.83,13.49,16.71,13.35,16.71z"/>
	<path class="st1" d="M18.63,10.36c-0.14,0-0.26,0.12-0.26,0.26v1.17c0,0.14,0.12,0.26,0.26,0.26s0.26-0.12,0.26-0.26v-1.17
		C18.89,10.48,18.77,10.36,18.63,10.36z"/>
	<path class="st1" d="M20.34,10.36c-0.14,0-0.26,0.12-0.26,0.26v1.17c0,0.14,0.12,0.26,0.26,0.26s0.26-0.12,0.26-0.26v-1.17
		C20.6,10.48,20.49,10.36,20.34,10.36z"/>
	<path class="st1" d="M22.06,10.36c-0.14,0-0.26,0.12-0.26,0.26v1.17c0,0.14,0.12,0.26,0.26,0.26s0.26-0.12,0.26-0.26v-1.17
		C22.32,10.48,22.2,10.36,22.06,10.36z"/>
	<path class="st1" d="M23.77,10.36c-0.14,0-0.26,0.12-0.26,0.26v1.17c0,0.14,0.12,0.26,0.26,0.26s0.26-0.12,0.26-0.26v-1.17
		C24.03,10.48,23.92,10.36,23.77,10.36z"/>
	<path class="st1" d="M18.63,12.48c-0.14,0-0.26,0.12-0.26,0.26v1.17c0,0.14,0.12,0.26,0.26,0.26s0.26-0.12,0.26-0.26v-1.17
		C18.89,12.6,18.77,12.48,18.63,12.48z"/>
	<path class="st1" d="M20.34,12.48c-0.14,0-0.26,0.12-0.26,0.26v1.17c0,0.14,0.12,0.26,0.26,0.26s0.26-0.12,0.26-0.26v-1.17
		C20.6,12.6,20.49,12.48,20.34,12.48z"/>
	<path class="st1" d="M22.06,12.48c-0.14,0-0.26,0.12-0.26,0.26v1.17c0,0.14,0.12,0.26,0.26,0.26s0.26-0.12,0.26-0.26v-1.17
		C22.32,12.6,22.2,12.48,22.06,12.48z"/>
	<path class="st1" d="M23.77,12.48c-0.14,0-0.26,0.12-0.26,0.26v1.17c0,0.14,0.12,0.26,0.26,0.26s0.26-0.12,0.26-0.26v-1.17
		C24.03,12.6,23.92,12.48,23.77,12.48z"/>
	<path class="st1" d="M18.63,14.6c-0.14,0-0.26,0.12-0.26,0.26v1.17c0,0.14,0.12,0.26,0.26,0.26s0.26-0.12,0.26-0.26v-1.17
		C18.89,14.71,18.77,14.6,18.63,14.6z"/>
	<path class="st1" d="M20.34,14.6c-0.14,0-0.26,0.12-0.26,0.26v1.17c0,0.14,0.12,0.26,0.26,0.26s0.26-0.12,0.26-0.26v-1.17
		C20.6,14.71,20.49,14.6,20.34,14.6z"/>
	<path class="st1" d="M22.06,14.6c-0.14,0-0.26,0.12-0.26,0.26v1.17c0,0.14,0.12,0.26,0.26,0.26s0.26-0.12,0.26-0.26v-1.17
		C22.32,14.71,22.2,14.6,22.06,14.6z"/>
	<path class="st1" d="M23.77,14.6c-0.14,0-0.26,0.12-0.26,0.26v1.17c0,0.14,0.12,0.26,0.26,0.26s0.26-0.12,0.26-0.26v-1.17
		C24.03,14.71,23.92,14.6,23.77,14.6z"/>
	<path class="st1" d="M18.63,16.71c-0.14,0-0.26,0.12-0.26,0.26v1.17c0,0.14,0.12,0.26,0.26,0.26s0.26-0.12,0.26-0.26v-1.17
		C18.89,16.83,18.77,16.71,18.63,16.71z"/>
	<path class="st1" d="M20.34,16.71c-0.14,0-0.26,0.12-0.26,0.26v1.17c0,0.14,0.12,0.26,0.26,0.26s0.26-0.12,0.26-0.26v-1.17
		C20.6,16.83,20.49,16.71,20.34,16.71z"/>
	<path class="st1" d="M22.06,16.71c-0.14,0-0.26,0.12-0.26,0.26v1.17c0,0.14,0.12,0.26,0.26,0.26s0.26-0.12,0.26-0.26v-1.17
		C22.32,16.83,22.2,16.71,22.06,16.71z"/>
	<path class="st1" d="M23.77,16.71c-0.14,0-0.26,0.12-0.26,0.26v1.17c0,0.14,0.12,0.26,0.26,0.26s0.26-0.12,0.26-0.26v-1.17
		C24.03,16.83,23.92,16.71,23.77,16.71z"/>
	<path class="st1" d="M29.81,28.67h-0.92V2.83c0-0.27-0.22-0.49-0.49-0.49H3.6c-0.27,0-0.49,0.22-0.49,0.49v25.84H2.19H1.21
		c0,0.54,0.44,0.98,0.98,0.98H3.6h24.8h1.41c0.54,0,0.98-0.44,0.98-0.98H29.81z M21.21,6.33c1.43,0,2.59,1.16,2.59,2.59l0,0.29
		l-5.18,0v-0.3C18.62,7.5,19.78,6.33,21.21,6.33z M10.79,6.33c1.43,0,2.59,1.16,2.59,2.59l0,0.29l-5.18,0v-0.3
		C8.2,7.5,9.36,6.33,10.79,6.33z M4.09,28.67V3.33h6.44v2.52C8.94,5.98,7.68,7.3,7.68,8.92v0.3c0,0.28,0.23,0.52,0.52,0.52h5.19
		c0.28,0,0.51-0.23,0.51-0.52v-0.3c0-1.62-1.26-2.95-2.85-3.08V3.33h9.9v2.52C19.36,5.98,18.1,7.3,18.1,8.92v0.3
		c0,0.28,0.23,0.52,0.51,0.52h5.19c0.28,0,0.51-0.23,0.51-0.52v-0.3c0-1.62-1.26-2.95-2.85-3.08V3.33h6.44v25.35H4.09z"/>
</g>
</svg>
