<?xml version="1.0" encoding="utf-8"?>
<!-- Generator: Adobe Illustrator 23.0.2, SVG Export Plug-In . SVG Version: 6.00 Build 0)  -->
<svg version="1.1" id="Layer_1" xmlns="http://www.w3.org/2000/svg" xmlns:xlink="http://www.w3.org/1999/xlink" x="0px" y="0px"
	 width="32px" height="32px" viewBox="0 0 32 32" style="enable-background:new 0 0 32 32;" xml:space="preserve">
<style type="text/css">
	.st0{fill:none;}
	.st1{fill:#952624;}
</style>
<rect class="st0" width="32" height="32"/>
<g>
	<path class="st1" d="M26.64,17.91c1.46,0,2.66-1.19,2.66-2.66c0-1.47-1.19-2.66-2.66-2.66c-1.46,0-2.66,1.19-2.66,2.66
		C23.98,16.72,25.17,17.91,26.64,17.91 M26.64,13.59c0.91,0,1.66,0.74,1.66,1.66c0,0.91-0.74,1.66-1.66,1.66
		c-0.91,0-1.66-0.74-1.66-1.66C24.98,14.34,25.72,13.59,26.64,13.59"/>
	<path class="st1" d="M2.76,30.66c-0.18,0-0.35-0.09-0.44-0.26c-0.13-0.24-0.04-0.55,0.2-0.68l8.29-4.44
		c1.67-0.87,3.12-0.03,3.19,0.01c0,0,1.55,0.73,2.93,1.36c1.07,0.48,1.71-0.17,1.71-0.18l0.11-0.08l10.61-6.38
		c0.24-0.14,0.54-0.07,0.69,0.17c0.14,0.24,0.07,0.54-0.17,0.69l-10.56,6.35c-0.25,0.23-1.29,1.03-2.79,0.34
		c-1.41-0.64-2.99-1.39-2.99-1.39c-0.08-0.05-1.08-0.62-2.25-0.01l-1.45,0.76L2.99,30.6C2.92,30.64,2.83,30.66,2.76,30.66"/>
	<path class="st1" d="M22.86,17.69l-0.15-0.24c-0.3-0.47-0.76-0.79-1.3-0.92c-0.54-0.12-1.1-0.03-1.56,0.27l-2.42,1.53
		c-0.29,0.13-0.75,0.21-1.34-0.06c-1.38-0.63-2.93-1.36-2.93-1.36c-0.07-0.04-1.51-0.89-3.19-0.01l-1.01,0.53l-0.01-0.01l-0.43,0.24
		h0l-5.45,2.98c-0.54,0.29-0.93,0.78-1.1,1.37c-0.17,0.59-0.11,1.21,0.19,1.75c0.29,0.54,0.78,0.93,1.37,1.1
		c0.21,0.06,0.43,0.09,0.65,0.09c0.38,0,0.76-0.1,1.1-0.28l5.75-3.15c1.04-0.38,1.88,0.09,1.95,0.13c0,0,1.21,0.57,2.46,1.15
		c0.18,0.08,0.36,0.16,0.53,0.24c0.43,0.2,0.83,0.27,1.18,0.27c0.45,0,0.81-0.12,1.09-0.26c0.19-0.1,0.34-0.2,0.44-0.27l3.53-2.23
		C23.18,19.94,23.47,18.66,22.86,17.69 M8.56,18.79L8.53,18.8L8.56,18.79z M21.68,19.71l-3.57,2.25l0,0c0,0-0.01,0.01-0.01,0.01
		l-0.35,0.22c-0.29,0.13-0.75,0.22-1.36-0.05c-0.09-0.04-0.17-0.08-0.26-0.12c-0.59-0.27-1.19-0.55-1.67-0.77
		c-0.59-0.27-1-0.47-1-0.47c-0.07-0.04-1.28-0.74-2.77-0.19c-0.14,0.05-0.28,0.1-0.41,0.17l-0.49,0.26l-1.68,0.97l0.75-0.41
		L4.81,23.8C4.5,23.96,4.16,24,3.82,23.9c-0.33-0.1-0.61-0.32-0.77-0.62c-0.34-0.63-0.11-1.41,0.51-1.76l4.88-2.67l1-0.54l1-0.52
		c1.17-0.61,2.17-0.04,2.25,0.01c0,0,1.58,0.75,2.99,1.39c0.09,0.04,0.17,0.06,0.26,0.09c0.33,0.12,0.64,0.18,0.92,0.18
		c0.43,0,0.79-0.11,1.06-0.25c0.21-0.1,0.38-0.22,0.48-0.3l1.98-1.25c0.24-0.15,0.53-0.2,0.81-0.14c0.28,0.06,0.52,0.23,0.67,0.47
		l0.15,0.23C22.33,18.73,22.18,19.39,21.68,19.71"/>
	<path class="st1" d="M8.41,11.1c-1.84,0-3.33-1.49-3.33-3.33c0-1.84,1.49-3.33,3.33-3.33c1.84,0,3.33,1.49,3.33,3.33
		C11.74,9.61,10.25,11.1,8.41,11.1 M8.41,5.44c-1.28,0-2.33,1.05-2.33,2.33c0,1.29,1.04,2.33,2.33,2.33s2.33-1.04,2.33-2.33
		C10.74,6.49,9.69,5.44,8.41,5.44"/>
	<path class="st1" d="M8.41,3.62c-0.28,0-0.5-0.22-0.5-0.5V1.88c0-0.28,0.22-0.54,0.5-0.54s0.5,0.18,0.5,0.46v1.32
		C8.91,3.4,8.68,3.62,8.41,3.62"/>
	<path class="st1" d="M8.41,14.27c-0.28,0-0.5-0.22-0.5-0.5v-1.24c0-0.28,0.22-0.54,0.5-0.54s0.5,0.18,0.5,0.46v1.32
		C8.91,14.05,8.68,14.27,8.41,14.27"/>
	<path class="st1" d="M14.4,8.28h-1.33c-0.28,0-0.5-0.22-0.5-0.5c0-0.28,0.22-0.5,0.5-0.5h1.24c0.28,0,0.54,0.22,0.54,0.5
		C14.86,8.06,14.67,8.28,14.4,8.28"/>
	<path class="st1" d="M3.75,8.28H2.42c-0.28,0-0.5-0.22-0.5-0.5c0-0.28,0.22-0.5,0.5-0.5h1.24c0.28,0,0.54,0.22,0.54,0.5
		C4.21,8.06,4.02,8.28,3.75,8.28"/>
	<path class="st1" d="M11.71,4.97c-0.13,0-0.25-0.05-0.35-0.15c-0.19-0.19-0.19-0.51,0-0.71l0.88-0.88c0.2-0.2,0.54-0.22,0.74-0.03
		c0.19,0.19,0.23,0.48,0.03,0.68l-0.94,0.94C11.96,4.92,11.83,4.97,11.71,4.97"/>
	<path class="st1" d="M4.18,12.5c-0.13,0-0.25-0.05-0.35-0.15c-0.19-0.2-0.19-0.51,0-0.71l0.88-0.88c0.2-0.19,0.54-0.22,0.74-0.03
		c0.19,0.2,0.23,0.48,0.03,0.68l-0.94,0.94C4.43,12.45,4.3,12.5,4.18,12.5"/>
	<path class="st1" d="M12.61,12.5c-0.11,0-0.22-0.04-0.31-0.13l-0.94-0.94c-0.2-0.2-0.2-0.51,0-0.71c0.2-0.2,0.51-0.2,0.71,0
		l0.88,0.88c0.2,0.19,0.23,0.54,0.03,0.73C12.87,12.44,12.74,12.5,12.61,12.5"/>
	<path class="st1" d="M5.47,4.13L4.54,3.19l0,0C4.34,3,4.03,3,3.83,3.19c-0.2,0.19-0.2,0.51,0,0.71l0.94,0.94
		c0.1,0.1,0.23,0.15,0.35,0.15c0.13,0,0.26-0.05,0.35-0.15C5.67,4.64,5.67,4.32,5.47,4.13"/>
</g>
</svg>
