<?xml version="1.0" encoding="utf-8"?>
<!-- Generator: Adobe Illustrator 21.0.0, SVG Export Plug-In . SVG Version: 6.00 Build 0)  -->
<svg version="1.1" id="Layer_1" xmlns="http://www.w3.org/2000/svg" xmlns:xlink="http://www.w3.org/1999/xlink" x="0px" y="0px"
	 width="32px" height="32px" viewBox="0 0 32 32" style="enable-background:new 0 0 32 32;" xml:space="preserve">
<style type="text/css">
	.st0{fill:#952624;}
</style>
<g>
	<path class="st0" d="M9,16.2l7.5-6c0.1-0.1,0.2-0.2,0.2-0.4c0-0.2-0.1-0.3-0.2-0.4L8.2,2.8C8.1,2.7,7.9,2.7,7.7,2.8
		C7.5,2.9,7.4,3,7.4,3.2L7.5,15l-4.4-3.5c-0.2-0.2-0.5-0.1-0.7,0.1c-0.2,0.2-0.1,0.5,0.1,0.7l4.9,3.9l-4.9,3.9
		c-0.2,0.2-0.3,0.5-0.1,0.7c0.1,0.1,0.2,0.2,0.4,0.2c0.1,0,0.2,0,0.3-0.1l4.4-3.5L7.4,29.2c0,0.2,0.1,0.4,0.3,0.5c0.1,0,0.1,0,0.2,0
		c0.1,0,0.2,0,0.3-0.1l8.3-6.6c0.1-0.1,0.2-0.2,0.2-0.4c0-0.2-0.1-0.3-0.2-0.4L9,16.2z M15.4,9.8l-6.9,5.5L8.4,4.3L15.4,9.8z
		 M8.4,28.2l0.1-11.1l6.9,5.5L8.4,28.2z"/>
	<rect x="24.9" y="2.5" class="st0" width="1" height="3.2"/>
	<path class="st0" d="M25.9,7.5h-1v4.4h-3.3v8.3c0,1.6,1,3,2.4,3.5c0,0,0.4,0.1,0.9,0.2v6.1h1v-6c0.3,0,0.6-0.1,0.9-0.2
		c1.4-0.6,2.4-1.9,2.4-3.5v-8.3h-3.3V7.5z M28.2,12.9v7.3c0,0.2,0,0.5-0.1,0.7c0,0.1,0,0.1,0,0.2c-0.1,0.2-0.1,0.3-0.2,0.5
		c0,0,0,0.1,0,0.1c-0.4,0.7-1.1,1.2-2,1.3c0,0-0.5,0.1-0.9,0c-0.8-0.1-1.6-0.6-2-1.3c0,0,0-0.1-0.1-0.1c-0.1-0.2-0.2-0.3-0.2-0.5
		c0-0.1,0-0.1,0-0.2c-0.1-0.2-0.1-0.4-0.1-0.7v-7.3H28.2z"/>
</g>
</svg>
