<?xml version="1.0" encoding="utf-8"?>
<!-- Generator: Adobe Illustrator 23.0.2, SVG Export Plug-In . SVG Version: 6.00 Build 0)  -->
<svg version="1.1" id="Layer_1" xmlns="http://www.w3.org/2000/svg" xmlns:xlink="http://www.w3.org/1999/xlink" x="0px" y="0px"
	 width="32px" height="32px" viewBox="0 0 32 32" style="enable-background:new 0 0 32 32;" xml:space="preserve">
<style type="text/css">
	.st0{fill:none;}
	.st1{fill:#952624;}
</style>
<rect class="st0" width="32" height="32"/>
<path class="st1" d="M16,1.09C7.78,1.09,1.09,7.78,1.09,16c0,8.22,6.69,14.9,14.91,14.9c8.22,0,14.9-6.69,14.9-14.9
	C30.91,7.78,24.22,1.09,16,1.09 M28.54,10.03l-7.64,4.93c-0.4-1.91-1.89-3.41-3.79-3.84l4.75-7.71
	C24.79,4.78,27.15,7.13,28.54,10.03 M11.98,16c0-2.22,1.8-4.02,4.02-4.02c2.21,0,4.02,1.8,4.02,4.02c0,2.21-1.8,4.02-4.02,4.02
	C13.79,20.02,11.98,18.22,11.98,16 M16,2.09c1.92,0,3.75,0.39,5.41,1.1l-4.84,7.85c-0.19-0.02-0.38-0.06-0.58-0.06
	c-2.77,0-5.02,2.25-5.02,5.02c0,0.17,0.03,0.34,0.05,0.51L3.2,21.43C2.49,19.76,2.09,17.93,2.09,16C2.09,8.33,8.33,2.09,16,2.09
	 M3.42,21.89l7.68-4.83c0.4,1.86,1.85,3.33,3.69,3.79l-4.77,7.68C7.12,27.15,4.79,24.79,3.42,21.89 M16,29.91
	c-1.96,0-3.83-0.42-5.53-1.15l4.84-7.8c0.23,0.03,0.45,0.07,0.68,0.07c2.77,0,5.02-2.25,5.02-5.02c0-0.17-0.03-0.32-0.05-0.49
	l7.79-5.03c0.73,1.69,1.15,3.55,1.15,5.51C29.91,23.67,23.67,29.91,16,29.91"/>
</svg>
