<?xml version="1.0" encoding="utf-8"?>
<!-- Generator: Adobe Illustrator 23.0.2, SVG Export Plug-In . SVG Version: 6.00 Build 0)  -->
<svg version="1.1" id="Layer_1" xmlns="http://www.w3.org/2000/svg" xmlns:xlink="http://www.w3.org/1999/xlink" x="0px" y="0px"
	 width="32px" height="32px" viewBox="0 0 32 32" style="enable-background:new 0 0 32 32;" xml:space="preserve">
<style type="text/css">
	.st0{fill:none;}
	.st1{fill:#952624;}
</style>
<rect class="st0" width="32" height="32"/>
<g>
	<path class="st1" d="M31.39,19.82c0.16-0.24,0.09-0.56-0.14-0.71c-0.24-0.16-0.56-0.09-0.71,0.15l-4.03,6.09H10.95V10.72h9.92
		v-0.25c0-4.03-3.85-7.37-8.95-7.76c-0.08-0.01-0.16,0-0.25-0.01l-0.04,0c-0.23-0.01-0.46-0.03-0.69-0.03V1.8
		c0-0.14-0.12-0.26-0.26-0.26s-0.26,0.11-0.26,0.26v0.87c-0.14,0-0.28,0.01-0.42,0.02L9.86,2.69c-0.03,0-0.06,0-0.09,0
		c-0.05,0-0.09,0-0.14,0.01c-5.11,0.33-9.11,3.74-9.11,7.77v0.25h9.92v14.62H3.31h0H1.94c-0.28,0-0.51,0.23-0.51,0.51
		c0,0.29,0.23,0.52,0.51,0.52h0.54l-1.21,2.62c-0.12,0.26-0.01,0.57,0.25,0.69c0.07,0.03,0.15,0.05,0.22,0.05
		c0.19,0,0.38-0.11,0.47-0.3l1.42-3.05h6.82v4.09h0.52v-4.09h13.93l1.42,3.05c0.09,0.19,0.27,0.3,0.47,0.3
		c0.07,0,0.15-0.02,0.22-0.05c0.26-0.12,0.37-0.43,0.25-0.69l-1.21-2.62h1.04L31.39,19.82z M12.78,3.32
		c4.18,0.67,7.23,3.48,7.41,6.84l0,0.05h-5.38l0-0.05c0.1-3.69-1.07-5.71-2.07-6.76l-0.1-0.11L12.78,3.32z M1.2,10.21l0-0.05
		C1.38,6.79,4.57,3.9,8.78,3.3l0.14-0.02l-0.1,0.1c-1.01,1.05-2.2,3.07-2.09,6.78l0,0.05H1.2z M7.4,10.16
		c-0.15-5.1,2.3-6.72,2.68-6.94l-0.02-0.04l0.08,0c0.04,0,0.08,0,0.12-0.01c0.06,0,0.12-0.01,0.19-0.01h0.49
		c0.11,0,0.21,0.01,0.32,0.01c0.05,0,0.09,0.01,0.14,0.01l0.07,0l-0.01,0.03c0.36,0.2,2.84,1.8,2.68,6.94l0,0.05H7.41L7.4,10.16z"/>
</g>
</svg>
