<?xml version="1.0" encoding="utf-8"?>
<!-- Generator: Adobe Illustrator 23.0.2, SVG Export Plug-In . SVG Version: 6.00 Build 0)  -->
<svg version="1.1" id="Layer_1" xmlns="http://www.w3.org/2000/svg" xmlns:xlink="http://www.w3.org/1999/xlink" x="0px" y="0px"
	 width="32px" height="32px" viewBox="0 0 32 32" style="enable-background:new 0 0 32 32;" xml:space="preserve">
<style type="text/css">
	.st0{fill:none;}
	.st1{fill:#952524;}
</style>
<g>
	<rect y="0" class="st0" width="32" height="32"/>
</g>
<g>
	<path class="st1" d="M31.32,12.02H4.18V8.23H7.8V7.24H3.68c-0.26,0-0.48,0.21-0.48,0.48v4.3H0.68c-0.4,0-0.72,0.32-0.72,0.72v0.4
		c0,6.4,5.21,11.61,11.61,11.61h8.87c6.4,0,11.6-5.21,11.6-11.61v-0.4C32.04,12.35,31.72,12.02,31.32,12.02z M31.06,13.15
		c0,5.86-4.76,10.62-10.62,10.62h-8.87c-5.86,0-10.62-4.76-10.62-10.62v-0.14h30.11V13.15z"/>
</g>
</svg>
