<?xml version="1.0" encoding="utf-8"?>
<!-- Generator: Adobe Illustrator 23.0.2, SVG Export Plug-In . SVG Version: 6.00 Build 0)  -->
<svg version="1.1" id="Layer_1" xmlns="http://www.w3.org/2000/svg" xmlns:xlink="http://www.w3.org/1999/xlink" x="0px" y="0px"
	 width="32px" height="32px" viewBox="0 0 32 32" style="enable-background:new 0 0 32 32;" xml:space="preserve">
<style type="text/css">
	.st0{fill:none;}
	.st1{fill:#952524;}
</style>
<rect class="st0" width="32" height="32"/>
<g>
	<path class="st1" d="M28.87,18.5c-9.6-2.9-12.36-16.62-12.39-16.76c0,0,0,0,0,0c-0.03-0.14-0.12-0.26-0.24-0.32
		c-0.04-0.03-0.09-0.05-0.14-0.06c0,0,0,0,0,0c-0.01,0-0.02,0-0.03,0c-0.05-0.01-0.1-0.01-0.15,0c0,0,0,0-0.01,0c0,0,0,0-0.01,0
		c-0.19,0.04-0.34,0.19-0.37,0.38c0,0,0,0,0,0C15.49,1.87,12.73,15.6,3.13,18.5c-0.21,0.06-0.35,0.25-0.35,0.47v11.2
		c0,0.27,0.22,0.49,0.49,0.49s0.49-0.22,0.49-0.49V19.33C11.52,16.76,14.87,7.86,16,3.87c1.13,3.99,4.48,12.89,12.24,15.46v10.84
		c0,0.27,0.22,0.49,0.49,0.49s0.49-0.22,0.49-0.49v-11.2C29.22,18.75,29.08,18.56,28.87,18.5z"/>
	<path class="st1" d="M23.83,25.92l-1.39-3.73v-3.94c-0.02-0.49-0.35-1.43-1.44-1.43h-4.93h-4.93c-1.09,0-1.42,0.94-1.44,1.44v3.93
		l-1.39,3.69l0,3.08c0,0.03-0.04,0.28,0.12,0.47c0.08,0.09,0.23,0.21,0.51,0.21h0.6v0.6h0.52v-0.6h6.08h5.94v0.6h0.52v-0.6h0.6
		c0.27,0,0.43-0.11,0.51-0.21c0.16-0.19,0.13-0.43,0.13-0.43V25.92z M10.22,18.28c0-0.04,0.05-0.93,0.92-0.93h4.93H21
		c0.85,0,0.92,0.84,0.92,0.92v3.71h-0.93v-1.37c0-0.37-0.3-0.67-0.67-0.67h-2.96c-0.37,0-0.67,0.3-0.67,0.67v1.37h-0.62h-0.62v-1.37
		c0-0.37-0.3-0.67-0.67-0.67h-2.96c-0.37,0-0.67,0.3-0.67,0.67v1.37H10.2L10.22,18.28z M20.47,20.61v1.78
		c0,0.08-0.07,0.15-0.15,0.15h-2.96c-0.08,0-0.15-0.07-0.15-0.15v-1.78c0-0.08,0.07-0.15,0.15-0.15h2.96
		C20.4,20.46,20.47,20.53,20.47,20.61z M14.93,20.61v1.78c0,0.08-0.07,0.15-0.15,0.15h-2.96c-0.08,0-0.15-0.07-0.15-0.15v-1.78
		c0-0.08,0.07-0.15,0.15-0.15h2.96C14.86,20.46,14.93,20.53,14.93,20.61z M10.14,22.5h1.03c0.05,0.32,0.32,0.57,0.65,0.57h2.96
		c0.34,0,0.6-0.25,0.65-0.57h0.64h0.64c0.05,0.32,0.32,0.57,0.65,0.57h2.96c0.34,0,0.6-0.25,0.65-0.57h1.05l1.18,3.17H16h-0.04H8.95
		L10.14,22.5z M23.3,29.1c0,0.01-0.04,0.02-0.11,0.02h-7.06H8.94c-0.07,0-0.1-0.02-0.11-0.02l-0.01-2.91h7.13H16h7.31V29l-0.01,0.07
		L23.3,29.1z"/>
</g>
</svg>
