<?xml version="1.0" encoding="utf-8"?>
<!-- Generator: Adobe Illustrator 23.0.2, SVG Export Plug-In . SVG Version: 6.00 Build 0)  -->
<svg version="1.1" id="Layer_1" xmlns="http://www.w3.org/2000/svg" xmlns:xlink="http://www.w3.org/1999/xlink" x="0px" y="0px"
	 width="32px" height="32px" viewBox="0 0 32 32" style="enable-background:new 0 0 32 32;" xml:space="preserve">
<style type="text/css">
	.st0{fill:none;}
	.st1{fill:#952624;}
</style>
<rect class="st0" width="32" height="32"/>
<g>
	<path class="st1" d="M31.51,22.39V14.7c0-2.48-2.68-4.99-5.52-7.65l-0.97-0.91c-3.23-3.06-5.58-2.99-5.65-2.99H16h-3.35
		c-0.1,0-2.44-0.07-5.68,2.99L6.01,7.06c-2.84,2.66-5.52,5.16-5.52,7.64l0,7.65c-0.01,0.11-0.13,2.76,1.66,4.65
		c1.15,1.21,2.8,1.83,4.91,1.83H16h8.93c2.11,0,3.76-0.62,4.91-1.83C31.64,25.11,31.51,22.47,31.51,22.39 M29.09,26.3
		c-0.95,1-2.34,1.5-4.15,1.5H16H7.07c-1.81,0-3.21-0.5-4.15-1.5c-1.49-1.57-1.39-3.87-1.39-3.92V14.7c0-2.03,2.52-4.39,5.19-6.89
		L7.69,6.9c2.87-2.72,4.9-2.71,4.94-2.71H16l3.39,0c0.03,0.01,2.05-0.01,4.92,2.71l0.97,0.91c2.67,2.5,5.19,4.86,5.19,6.89v7.71
		C30.47,22.44,30.57,24.74,29.09,26.3"/>
	<path class="st1" d="M7.57,20.95c-2.6,0-3.76-0.79-4.14-1.14L3,20.08c0.42,0.44,1.64,1.36,4.57,1.36h17.55
		c2.96,0,4.17-0.92,4.57-1.36l-0.43-0.27c-0.42,0.4-1.55,1.14-4.15,1.14H7.57z"/>
	<path class="st1" d="M9.57,15.54L9.57,15.54l0.07,0.26l-0.26,0.08c-0.64,0.19-1.09,0.35-1.34,0.44l0.19,0.45
		c0.87-0.33,4.04-1.39,8.24-1.39c2.8,0,5.51,0.47,8.05,1.4l0.17-0.46c-0.39-0.14-0.82-0.28-1.3-0.43l-0.25-0.07l0.06-0.26
		c0.5-1.92,2.29-2.65,3.02-2.87l-0.1-0.48c-0.81,0.24-2.82,1.04-3.39,3.22l-0.07,0.27l-0.27-0.07c-4.91-1.25-9.25-0.7-12.03-0.02
		l-0.26,0.06l-0.07-0.26c-0.58-2.18-2.58-2.97-3.39-3.2l-0.1,0.48C7.28,12.92,9.06,13.65,9.57,15.54z"/>
</g>
</svg>
