<?xml version="1.0" encoding="utf-8"?>
<!-- Generator: Adobe Illustrator 23.0.2, SVG Export Plug-In . SVG Version: 6.00 Build 0)  -->
<svg version="1.1" id="Layer_1" xmlns="http://www.w3.org/2000/svg" xmlns:xlink="http://www.w3.org/1999/xlink" x="0px" y="0px"
	 width="32px" height="32px" viewBox="0 0 32 32" style="enable-background:new 0 0 32 32;" xml:space="preserve">
<style type="text/css">
	.st0{fill:none;}
	.st1{fill:#952624;}
</style>
<rect class="st0" width="32" height="32"/>
<g>
	<path class="st1" d="M7.81,11.24c-1.84,0-3.33-1.49-3.33-3.33c0-1.84,1.49-3.33,3.33-3.33c1.84,0,3.33,1.49,3.33,3.33
		C11.14,9.75,9.65,11.24,7.81,11.24 M7.81,5.58c-1.28,0-2.33,1.05-2.33,2.33c0,1.29,1.04,2.33,2.33,2.33s2.33-1.04,2.33-2.33
		C10.14,6.63,9.1,5.58,7.81,5.58"/>
	<path class="st1" d="M7.81,3.76c-0.28,0-0.5-0.22-0.5-0.5V2.02c0-0.28,0.22-0.54,0.5-0.54c0.28,0,0.5,0.18,0.5,0.46v1.32
		C8.31,3.54,8.09,3.76,7.81,3.76"/>
	<path class="st1" d="M7.81,14.41c-0.28,0-0.5-0.22-0.5-0.5v-1.24c0-0.28,0.22-0.54,0.5-0.54c0.28,0,0.5,0.18,0.5,0.46v1.32
		C8.31,14.19,8.09,14.41,7.81,14.41"/>
	<path class="st1" d="M13.8,8.42h-1.33c-0.28,0-0.5-0.22-0.5-0.5s0.22-0.5,0.5-0.5h1.24c0.28,0,0.54,0.22,0.54,0.5
		S14.07,8.42,13.8,8.42"/>
	<path class="st1" d="M3.15,8.42H1.83c-0.28,0-0.5-0.22-0.5-0.5s0.22-0.5,0.5-0.5h1.24c0.28,0,0.54,0.22,0.54,0.5
		S3.42,8.42,3.15,8.42"/>
	<path class="st1" d="M11.11,5.11c-0.13,0-0.25-0.05-0.35-0.15c-0.19-0.19-0.19-0.51,0-0.71l0.88-0.88c0.2-0.2,0.54-0.22,0.74-0.03
		c0.19,0.19,0.23,0.48,0.03,0.68l-0.94,0.94C11.36,5.07,11.24,5.11,11.11,5.11"/>
	<path class="st1" d="M3.58,12.64c-0.13,0-0.25-0.05-0.35-0.15c-0.19-0.2-0.19-0.51,0-0.71l0.88-0.88c0.2-0.19,0.54-0.22,0.74-0.03
		c0.19,0.2,0.23,0.48,0.03,0.68L3.93,12.5C3.83,12.59,3.71,12.64,3.58,12.64"/>
	<path class="st1" d="M12.01,12.64c-0.11,0-0.22-0.04-0.31-0.13l-0.94-0.94c-0.2-0.2-0.2-0.51,0-0.71c0.2-0.2,0.51-0.2,0.71,0
		l0.88,0.88c0.2,0.19,0.23,0.54,0.03,0.73C12.27,12.58,12.14,12.64,12.01,12.64"/>
	<path class="st1" d="M4.87,4.27L3.94,3.33l0,0c-0.19-0.19-0.51-0.19-0.71,0c-0.2,0.19-0.2,0.51,0,0.71l0.94,0.94
		c0.1,0.1,0.23,0.15,0.35,0.15c0.13,0,0.26-0.05,0.35-0.15C5.07,4.78,5.07,4.46,4.87,4.27"/>
	<path class="st1" d="M30.59,20.92c0.15-0.23,0.09-0.54-0.14-0.69c-0.23-0.15-0.54-0.09-0.69,0.14l-3.9,5.91H11.02h-0.26h-0.5H9.9
		H3.35h0H2.03c-0.28,0-0.5,0.22-0.5,0.5c0,0.28,0.22,0.5,0.5,0.5h0.52l-1.18,2.54c-0.12,0.25-0.01,0.55,0.24,0.66
		c0.07,0.03,0.14,0.05,0.21,0.05c0.19,0,0.37-0.11,0.45-0.29l1.37-2.96H9.9v0h1.12v0h13.25l1.37,2.96c0.08,0.18,0.27,0.29,0.45,0.29
		c0.07,0,0.14-0.02,0.21-0.05c0.25-0.12,0.36-0.41,0.24-0.66l-1.18-2.54h1.01L30.59,20.92z"/>
</g>
</svg>
