<?xml version="1.0" encoding="utf-8"?>
<!-- Generator: Adobe Illustrator 23.0.2, SVG Export Plug-In . SVG Version: 6.00 Build 0)  -->
<svg version="1.1" id="Layer_1" xmlns="http://www.w3.org/2000/svg" xmlns:xlink="http://www.w3.org/1999/xlink" x="0px" y="0px"
	 width="32px" height="32px" viewBox="0 0 32 32" style="enable-background:new 0 0 32 32;" xml:space="preserve">
<style type="text/css">
	.st0{fill:none;}
	.st1{fill:#952624;}
</style>
<rect class="st0" width="31.99" height="31.99"/>
<path class="st1" d="M27.77,12.23c-0.25,0-0.48,0.04-0.68,0.07l-0.05,0.01v-5.5c0-2.56-2.08-4.65-4.65-4.65H9.59
	c-2.56,0-4.65,2.08-4.65,4.65v5.5L4.9,12.3c-0.2-0.03-0.43-0.07-0.68-0.07c-2.19,0-3.98,1.79-3.98,3.98c0,1.4,0.72,2.66,1.94,3.4
	l0.02,0.01v7.11c0,0.85,0.69,1.54,1.54,1.54h1.9v1.55h0.98v-1.55h18.75v1.55h0.98v-1.55h1.9c0.85,0,1.54-0.69,1.54-1.54v-7.11
	l0.02-0.01c1.21-0.73,1.94-2,1.94-3.4C31.75,14.02,29.96,12.23,27.77,12.23 M5.93,6.81c0-2.02,1.64-3.66,3.66-3.66h12.8
	c2.02,0,3.66,1.64,3.66,3.66v5.82l-0.02,0.01c-0.96,0.47-1.7,1.32-2.03,2.34c0,0.01-0.01,0.03-0.01,0.04
	c-0.01,0.04-0.11,0.53-0.09,0.86l0,0l0,1.22v4.44c0,0.37-0.3,0.68-0.68,0.68H8.77c-0.37,0-0.68-0.3-0.68-0.68v-5.66
	c0.02-0.32-0.08-0.78-0.09-0.85C7.99,15.02,7.99,15,7.98,14.98c-0.33-1.02-1.07-1.87-2.03-2.34l-0.02-0.01V6.81z M29.56,18.6
	c-0.22,0.17-0.48,0.31-0.75,0.41v7.72c0,0.31-0.25,0.55-0.55,0.55H3.73c-0.31,0-0.55-0.25-0.55-0.55v-7.72
	c-0.27-0.1-0.52-0.24-0.75-0.41c-0.77-0.58-1.21-1.45-1.21-2.39c0-1.65,1.34-3,3-3c0.22,0,0.44,0.03,0.7,0.09
	c0.39,0.09,0.75,0.26,1.08,0.5c0.54,0.4,0.94,0.99,1.11,1.64l0,0.01v6.08c0,0.92,0.74,1.66,1.66,1.66h14.45
	c0.91,0,1.66-0.74,1.66-1.66l0-6.09c0.17-0.66,0.57-1.24,1.11-1.64c0.33-0.24,0.69-0.41,1.08-0.5c0.25-0.06,0.48-0.09,0.7-0.09
	c1.65,0,3,1.34,3,3C30.76,17.15,30.32,18.02,29.56,18.6"/>
</svg>
