<?xml version="1.0" encoding="utf-8"?>
<!-- Generator: Adobe Illustrator 23.0.2, SVG Export Plug-In . SVG Version: 6.00 Build 0)  -->
<svg version="1.1" id="Layer_1" xmlns="http://www.w3.org/2000/svg" xmlns:xlink="http://www.w3.org/1999/xlink" x="0px" y="0px"
	 width="32px" height="32px" viewBox="0 0 32 32" style="enable-background:new 0 0 32 32;" xml:space="preserve">
<style type="text/css">
	.st0{fill:none;}
	.st1{fill:#952624;}
</style>
<rect class="st0" width="32" height="32"/>
<g>
	<path class="st1" d="M7.45,11.88c-1.84,0-3.33-1.49-3.33-3.33c0-1.84,1.5-3.33,3.33-3.33c1.84,0,3.33,1.49,3.33,3.33
		C10.78,10.38,9.29,11.88,7.45,11.88 M7.45,6.22c-1.29,0-2.33,1.05-2.33,2.33c0,1.29,1.04,2.33,2.33,2.33
		c1.28,0,2.33-1.04,2.33-2.33C9.78,7.26,8.74,6.22,7.45,6.22"/>
	<path class="st1" d="M7.45,4.4c-0.28,0-0.5-0.22-0.5-0.5V2.66c0-0.28,0.22-0.54,0.5-0.54c0.27,0,0.5,0.18,0.5,0.46V3.9
		C7.95,4.17,7.73,4.4,7.45,4.4"/>
	<path class="st1" d="M7.45,15.05c-0.28,0-0.5-0.22-0.5-0.5v-1.24c0-0.28,0.22-0.54,0.5-0.54c0.27,0,0.5,0.18,0.5,0.46v1.32
		C7.95,14.82,7.73,15.05,7.45,15.05"/>
	<path class="st1" d="M13.44,9.06h-1.32c-0.28,0-0.5-0.22-0.5-0.5s0.22-0.5,0.5-0.5h1.24c0.28,0,0.54,0.22,0.54,0.5
		S13.71,9.06,13.44,9.06"/>
	<path class="st1" d="M2.79,9.06H1.47c-0.28,0-0.5-0.22-0.5-0.5s0.22-0.5,0.5-0.5h1.24c0.27,0,0.54,0.22,0.54,0.5
		S3.07,9.06,2.79,9.06"/>
	<path class="st1" d="M10.75,5.75c-0.13,0-0.26-0.05-0.35-0.15c-0.2-0.19-0.2-0.51,0-0.71l0.88-0.88c0.2-0.2,0.54-0.22,0.74-0.03
		c0.2,0.19,0.22,0.48,0.03,0.68L11.1,5.6C11,5.7,10.88,5.75,10.75,5.75"/>
	<path class="st1" d="M3.22,13.28c-0.13,0-0.26-0.05-0.35-0.15c-0.2-0.2-0.2-0.51,0-0.71l0.88-0.88c0.2-0.19,0.54-0.22,0.74-0.03
		c0.2,0.2,0.22,0.48,0.03,0.68l-0.94,0.94C3.48,13.23,3.35,13.28,3.22,13.28"/>
	<path class="st1" d="M11.65,13.27c-0.11,0-0.22-0.04-0.31-0.13L10.4,12.2c-0.2-0.2-0.2-0.51,0-0.71c0.2-0.2,0.51-0.2,0.71,0
		l0.88,0.88c0.19,0.19,0.22,0.54,0.03,0.73C11.91,13.21,11.78,13.27,11.65,13.27"/>
	<path class="st1" d="M4.52,4.9L3.58,3.97l0,0c-0.2-0.19-0.51-0.19-0.71,0c-0.19,0.19-0.19,0.51,0,0.71l0.94,0.94h0
		c0.1,0.1,0.23,0.15,0.35,0.15c0.13,0,0.26-0.05,0.35-0.15C4.71,5.41,4.71,5.1,4.52,4.9"/>
	<rect x="0.97" y="28.89" class="st1" width="30.07" height="1"/>
</g>
</svg>
