<?xml version="1.0" encoding="utf-8"?>
<!-- Generator: Adobe Illustrator 21.0.0, SVG Export Plug-In . SVG Version: 6.00 Build 0)  -->
<svg version="1.1" id="Layer_1" xmlns="http://www.w3.org/2000/svg" xmlns:xlink="http://www.w3.org/1999/xlink" x="0px" y="0px"
	 width="32px" height="32px" viewBox="0 0 32 32" style="enable-background:new 0 0 32 32;" xml:space="preserve">
<style type="text/css">
	.st0{fill:#952524;}
</style>
<g>
	<path class="st0" d="M22.4,3.1H9.6c-0.8,0-1.4,0.6-1.4,1.4v23c0,0.8,0.6,1.4,1.4,1.4h12.8c0.8,0,1.4-0.6,1.4-1.4v-23
		C23.8,3.7,23.1,3.1,22.4,3.1 M9.2,4.5c0-0.2,0.2-0.4,0.4-0.4h12.8c0.2,0,0.4,0.2,0.4,0.4v23c0,0.2-0.2,0.4-0.4,0.4H9.6
		c-0.2,0-0.4-0.2-0.4-0.4V4.5z"/>
	<g>
		<rect x="14.2" y="7.5" class="st0" width="3.6" height="0.6"/>
		<rect x="14.2" y="10.8" class="st0" width="3.6" height="0.6"/>
		<rect x="14.2" y="14.1" class="st0" width="3.6" height="0.6"/>
		<rect x="14.2" y="17.4" class="st0" width="3.6" height="0.6"/>
		<rect x="14.2" y="20.6" class="st0" width="3.6" height="0.6"/>
		<rect x="14.2" y="23.9" class="st0" width="3.6" height="0.6"/>
	</g>
</g>
</svg>
