<?xml version="1.0" encoding="utf-8"?>
<!-- Generator: Adobe Illustrator 23.0.2, SVG Export Plug-In . SVG Version: 6.00 Build 0)  -->
<svg version="1.1" id="Layer_1" xmlns="http://www.w3.org/2000/svg" xmlns:xlink="http://www.w3.org/1999/xlink" x="0px" y="0px"
	 width="32px" height="32px" viewBox="0 0 32 32" style="enable-background:new 0 0 32 32;" xml:space="preserve">
<style type="text/css">
	.st0{fill:none;}
	.st1{fill:#952624;}
</style>
<rect class="st0" width="32" height="32"/>
<path class="st1" d="M30.71,3.94c-0.49,0.02-0.89,0.41-0.89,0.9v2.63H11.94h-0.26c0-0.01,0-0.02,0-0.03V7.18
	c0-0.38-0.08-0.73-0.2-1.06c-0.15-0.45-0.38-0.85-0.71-1.16c-0.9-0.87-2.11-0.84-2.16-0.83H2.18V3.94V1.51
	c0-0.51-0.42-0.93-0.93-0.93H1.2v30.83h0.06c0.5,0,0.9-0.39,0.92-0.89v-4.07h27.63v4.05c0.01,0.5,0.42,0.91,0.92,0.91h0.06V3.94
	H30.71z M2.18,4.63h6.43c0.02,0,1.06-0.03,1.8,0.69c0.51,0.49,0.76,1.21,0.76,2.15h-9V4.63z M2.18,17.75v-5.11H21.6h0.74v8.64h-0.03
	h-0.93h-9.31h-0.12h-0.26v-0.03c0-0.01,0-0.02,0-0.03v-0.22c0-0.32-0.06-0.62-0.16-0.91c-0.15-0.54-0.39-0.99-0.76-1.35
	c-0.9-0.87-2.11-0.83-2.16-0.83H2.18V17.75z M26.52,15.92v2.48h-3.67v-2.48H26.52z M22.85,18.9h3.67v2.38h-0.1h-3.44h-0.13V18.9z
	 M26.52,15.42h-3.67v-2.78l3.67,0V15.42z M2.18,18.43H8.7c0.68,0,1.29,0.27,1.75,0.7c0.48,0.49,0.73,1.2,0.73,2.11v0.03h-9V18.43z
	 M29.82,25.48H2.18v-3.21h27.63V25.48z M29.82,21.28h-1.79h-0.94h-0.07v-8.64h0.07h0.62h2.11V21.28z M29.82,11.66H2.18V8.45h27.63
	V11.66z"/>
</svg>
