<?xml version="1.0" encoding="utf-8"?>
<!-- Generator: Adobe Illustrator 23.0.2, SVG Export Plug-In . SVG Version: 6.00 Build 0)  -->
<svg version="1.1" id="Layer_1" xmlns="http://www.w3.org/2000/svg" xmlns:xlink="http://www.w3.org/1999/xlink" x="0px" y="0px"
	 width="32px" height="32px" viewBox="0 0 32 32" style="enable-background:new 0 0 32 32;" xml:space="preserve">
<style type="text/css">
	.st0{fill:none;}
	.st1{fill:#952524;}
</style>
<g>
	<rect y="0" class="st0" width="32" height="32"/>
</g>
<g>
	<polygon class="st1" points="28.72,26.82 31.65,19.52 30.72,19.14 28.05,25.82 21.33,25.82 21.33,26.82 22.19,26.82 20.83,30.31 
		21.9,30.31 23.26,26.82 26.66,26.82 28.19,30.27 29.38,30.27 27.76,26.82 	"/>
	<polygon class="st1" points="3.28,26.82 0.35,19.52 1.28,19.14 3.95,25.82 10.67,25.82 10.67,26.82 9.81,26.82 11.17,30.31 
		10.1,30.31 8.74,26.82 5.34,26.82 3.81,30.27 2.62,30.27 4.24,26.82 	"/>
	<path class="st1" d="M11.65,24.7h2.21c-0.34,1.08-0.97,3.29-1.18,5.52l1-0.03c0.22-2.34,0.95-4.63,1.23-5.49h1.97
		c0.28,0.86,1.01,3.18,1.24,5.52l1,0c-0.21-2.22-0.84-4.44-1.18-5.52h2.21v-1h-8.49V24.7z"/>
	<path class="st1" d="M20.78,12.32l2.3-0.8c0.06-0.02,0.11-0.06,0.14-0.13c0.03-0.06,0.03-0.13,0.01-0.19
		c-0.02-0.06-0.07-0.11-0.13-0.14c-0.06-0.03-0.13-0.03-0.19-0.01l-2.77,0.96l-0.01,0l-3.78-1.8l0.04-0.02l3.48-2.22l0.01,0
		l2.87,0.62c0.07,0.02,0.13,0,0.19-0.03C23,8.52,23.04,8.46,23.05,8.4c0.01-0.06,0-0.13-0.03-0.19c-0.04-0.06-0.09-0.09-0.16-0.11
		l-2.4-0.52l0.05-0.03l2.47-1.58c0.11-0.07,0.15-0.23,0.07-0.34c-0.04-0.05-0.09-0.09-0.16-0.11c-0.06-0.01-0.13,0-0.18,0.03
		L20.2,7.17l0.01-0.06l0.53-2.33c0.01-0.06,0-0.13-0.03-0.19c-0.04-0.05-0.09-0.09-0.15-0.11c-0.06-0.01-0.13,0-0.19,0.03
		c-0.06,0.03-0.09,0.09-0.11,0.15l-0.65,2.88L19.6,7.56L16.09,9.8l0-0.04l-0.05-4.13l0.01-0.01l2.04-2.11
		c0.05-0.05,0.08-0.12,0.07-0.17c0-0.07-0.03-0.13-0.08-0.17c-0.05-0.05-0.11-0.07-0.17-0.07c-0.07,0-0.13,0.03-0.18,0.07l-1.7,1.76
		l0-0.06L16,1.94c0-0.07-0.03-0.13-0.07-0.17c-0.04-0.04-0.11-0.07-0.17-0.07c-0.14,0-0.25,0.11-0.25,0.25l0.03,3L15.5,4.9
		l-1.71-1.69c-0.05-0.04-0.11-0.07-0.17-0.07c-0.07,0-0.13,0.03-0.18,0.07c-0.09,0.1-0.09,0.25,0,0.35l2.1,2.08l0,0.01l0.05,4.2
		l-0.04-0.02l-3.75-1.79l0-0.01l-0.99-2.75c-0.05-0.13-0.19-0.2-0.32-0.15c-0.13,0.05-0.19,0.19-0.15,0.32l0.82,2.29l-0.05-0.03
		L8.46,6.45C8.4,6.42,8.33,6.42,8.27,6.44C8.21,6.46,8.16,6.5,8.13,6.56C8.11,6.6,8.11,6.63,8.11,6.67c0,0.09,0.05,0.18,0.14,0.22
		L11,8.2L8.66,9.02C8.53,9.06,8.47,9.2,8.51,9.33c0.02,0.06,0.07,0.11,0.13,0.14C8.69,9.5,8.76,9.51,8.82,9.48l2.81-0.98l0.01,0
		l3.7,1.77l-0.04,0.02l-3.45,2.2l-0.01,0l-2.87-0.62c-0.07-0.02-0.13,0-0.19,0.03c-0.06,0.04-0.09,0.09-0.11,0.16
		c-0.01,0.06,0,0.13,0.03,0.19c0.04,0.06,0.09,0.09,0.16,0.11l2.4,0.52l-0.05,0.03l-2.5,1.59c-0.11,0.07-0.15,0.23-0.07,0.34
		S8.87,15,8.98,14.92l2.55-1.63l-0.01,0.06l-0.53,2.33c-0.02,0.06,0,0.13,0.03,0.19c0.04,0.06,0.09,0.09,0.15,0.11
		c0.06,0.02,0.13,0,0.18-0.03c0.06-0.04,0.1-0.09,0.11-0.15l0.65-2.88l0.01-0.01l3.48-2.22l0,0.04l0.04,4.09l-0.01,0.01l-2.05,2.12
		c-0.04,0.04-0.06,0.1-0.07,0.18c0,0.06,0.03,0.13,0.08,0.17c0.05,0.05,0.11,0.07,0.17,0.07c0.07,0,0.13-0.03,0.18-0.07l1.71-1.77
		l0,0.06l0.03,2.96c0,0.13,0.11,0.24,0.25,0.24c0.14,0,0.25-0.11,0.25-0.25l-0.03-3.01l0.04,0.04l1.69,1.67
		c0.1,0.09,0.25,0.09,0.35,0l0.01-0.01c0.04-0.04,0.06-0.1,0.06-0.16c0-0.07-0.03-0.13-0.07-0.17l-2.09-2.07l0-0.01l-0.05-4.19
		l0.04,0.02l3.77,1.8l0,0.01l1,2.79c0.02,0.06,0.07,0.11,0.13,0.14c0.06,0.03,0.13,0.03,0.18,0.01c0.06-0.02,0.11-0.07,0.14-0.13
		c0.03-0.06,0.03-0.13,0.01-0.19l-0.84-2.33l0.05,0.03l2.65,1.26c0.13,0.06,0.27,0.01,0.33-0.12c0.03-0.06,0.03-0.13,0.01-0.19
		c-0.02-0.06-0.07-0.11-0.13-0.14L20.78,12.32z"/>
</g>
</svg>
