<?xml version="1.0" encoding="utf-8"?>
<!-- Generator: Adobe Illustrator 23.0.2, SVG Export Plug-In . SVG Version: 6.00 Build 0)  -->
<svg version="1.1" id="Layer_1" xmlns="http://www.w3.org/2000/svg" xmlns:xlink="http://www.w3.org/1999/xlink" x="0px" y="0px"
	 width="32px" height="32px" viewBox="0 0 32 32" style="enable-background:new 0 0 32 32;" xml:space="preserve">
<style type="text/css">
	.st0{fill:none;}
	.st1{fill:#952624;}
</style>
<rect class="st0" width="32" height="32"/>
<g>
	<polygon class="st1" points="1.94,27.85 0.91,27.85 0.91,23.45 3.09,11.52 4.11,11.71 1.93,23.55 	"/>
	<g>
		<polygon class="st1" points="20.09,27.36 16.26,27.36 16.26,7.36 23.86,7.36 23.86,6.32 8.14,6.32 8.14,7.36 15.74,7.36 
			15.74,27.36 11.9,27.36 11.9,27.9 20.09,27.9 		"/>
		<path class="st1" d="M2.64,10.05L1.62,4.1L0.6,4.27l1.02,5.96c0.12,0.66,0.69,1.9,1.99,1.9h5.31v6.69H2.23v0.52h6.68v8.51h1.04
			V12.13h0.61V11.1H3.6C2.85,11.1,2.64,10.09,2.64,10.05"/>
		<path class="st1" d="M29,12.02c0.87-0.31,1.28-1.24,1.39-1.79l1.02-5.95L30.38,4.1l-1.02,5.95c0,0.01-0.2,1.05-0.97,1.05h-6.96
			v1.04h0.61v15.72h1.04v-8.51h6.21l0.76,4.11v4.4h1.04l-0.01-4.49L29,12.02z M23.09,18.82v-6.69h4.88l1.24,6.69H23.09z"/>
	</g>
</g>
</svg>
