<?xml version="1.0" encoding="utf-8"?>
<!-- Generator: Adobe Illustrator 23.0.2, SVG Export Plug-In . SVG Version: 6.00 Build 0)  -->
<svg version="1.1" id="Layer_1" xmlns="http://www.w3.org/2000/svg" xmlns:xlink="http://www.w3.org/1999/xlink" x="0px" y="0px"
	 width="32px" height="32px" viewBox="0 0 32 32" style="enable-background:new 0 0 32 32;" xml:space="preserve">
<style type="text/css">
	.st0{fill:none;}
	.st1{fill:#952625;}
</style>
<rect y="0" class="st0" width="32" height="32"/>
<g>
	<g>
		<path class="st1" d="M30.06,3.84H1.94c-0.27,0-0.49-0.22-0.49-0.49s0.22-0.49,0.49-0.49h28.12c0.27,0,0.49,0.22,0.49,0.49
			S30.33,3.84,30.06,3.84z"/>
	</g>
	<g>
		<g>
			<g>
				<path class="st1" d="M4.17,29.14c-0.14,0-0.25-0.11-0.25-0.25V6.89c0-0.14,0.11-0.25,0.25-0.25s0.25,0.11,0.25,0.25v21.99
					C4.43,29.02,4.31,29.14,4.17,29.14z"/>
			</g>
			<g>
				<path class="st1" d="M6.52,29.14c-0.14,0-0.25-0.11-0.25-0.25V6.89c0-0.14,0.11-0.25,0.25-0.25s0.25,0.11,0.25,0.25v21.99
					C6.78,29.02,6.66,29.14,6.52,29.14z"/>
			</g>
			<g>
				<path class="st1" d="M8.87,29.14c-0.14,0-0.25-0.11-0.25-0.25V6.89c0-0.14,0.11-0.25,0.25-0.25s0.25,0.11,0.25,0.25v21.99
					C9.12,29.02,9.01,29.14,8.87,29.14z"/>
			</g>
		</g>
		<g>
			<g>
				<path class="st1" d="M23.13,29.14c-0.14,0-0.25-0.11-0.25-0.25V6.89c0-0.14,0.11-0.25,0.25-0.25s0.25,0.11,0.25,0.25v21.99
					C23.39,29.02,23.27,29.14,23.13,29.14z"/>
			</g>
			<g>
				<path class="st1" d="M25.48,29.14c-0.14,0-0.25-0.11-0.25-0.25V6.89c0-0.14,0.11-0.25,0.25-0.25s0.25,0.11,0.25,0.25v21.99
					C25.73,29.02,25.62,29.14,25.48,29.14z"/>
			</g>
			<g>
				<path class="st1" d="M27.83,29.14c-0.14,0-0.25-0.11-0.25-0.25V6.89c0-0.14,0.11-0.25,0.25-0.25s0.25,0.11,0.25,0.25v21.99
					C28.08,29.02,27.97,29.14,27.83,29.14z"/>
			</g>
		</g>
	</g>
</g>
</svg>
