<?xml version="1.0" encoding="utf-8"?>
<!-- Generator: Adobe Illustrator 23.0.2, SVG Export Plug-In . SVG Version: 6.00 Build 0)  -->
<svg version="1.1" id="Layer_1" xmlns="http://www.w3.org/2000/svg" xmlns:xlink="http://www.w3.org/1999/xlink" x="0px" y="0px"
	 width="32px" height="32px" viewBox="0 0 32 32" style="enable-background:new 0 0 32 32;" xml:space="preserve">
<style type="text/css">
	.st0{fill:none;}
	.st1{fill:#952624;}
</style>
<rect class="st0" width="32" height="32"/>
<g>
	<path class="st1" d="M31.39,7.45c-0.25-0.13-0.55-0.03-0.68,0.22c-0.78,1.53-1.57,2.93-2.35,4.23c-2.15,1.56-4.23,2.66-6.21,3.38
		c-0.17-0.44-0.51-0.64-1.59-0.79c-1.36-0.19-4.56,1.6-5.23,1.98c-2.23-0.03-4.24-0.46-5.97-1.06c0.76-0.45,1.28-1.27,1.28-2.21
		c0-1.42-1.15-2.57-2.57-2.57c-1.42,0-2.57,1.15-2.57,2.57c0,0.15,0.02,0.29,0.04,0.43c-1.09-0.65-1.9-1.26-2.39-1.66
		C1.98,9.61,1.34,7.79,1.32,7.74c-0.09-0.26-0.37-0.4-0.64-0.31C0.41,7.51,0.27,7.8,0.37,8.07c0.22,0.63,5.39,15.39,14.27,16.03
		c0.2,0.01,0.39,0.02,0.59,0.02c1.99,0,3.99-0.73,6-2.17c0.25,0.83,0.5,1.56,0.75,1.94c0.4,0.59,0.76,0.73,1.01,0.73
		c0.08,0,0.15-0.01,0.2-0.03c0.42-0.13,0.65-0.64,0.63-1.4c-0.01-0.54-0.24-1.71-0.52-2.98c2.77-2.67,5.55-6.69,8.31-12.06
		C31.73,7.89,31.64,7.58,31.39,7.45 M8.06,11.13c1.14,0,2.07,0.93,2.07,2.07c0,0.93-0.62,1.7-1.45,1.96
		c-0.94-0.37-1.79-0.77-2.53-1.18c-0.1-0.24-0.16-0.5-0.16-0.78C5.99,12.06,6.92,11.13,8.06,11.13 M14.71,23.09
		c-4.94-0.35-8.75-5.77-11.03-10.07c0.55,0.4,1.25,0.86,2.09,1.33c0.45,0.25,0.94,0.5,1.46,0.74c0.02,0.01,0.03,0.01,0.04,0.02
		c0.44,0.2,0.9,0.4,1.39,0.58c1.86,0.71,4.07,1.23,6.55,1.28c0.08,0,0.16,0.01,0.24,0.01c0.04,0,0.08,0,0.12,0
		c0.57,0,1.16-0.03,1.75-0.09v0c0.03-0.01,0.06-0.01,0.09-0.01c0.06-0.01,0.13-0.01,0.19-0.02c0,0,0.03,0,0.01,0c0,0,0.01,0,0.01,0
		c0,0-0.01,0-0.01,0l0,0c0.02,0,0.05-0.01,0.07-0.01c0.01,0,0.01,0,0.02,0c-0.03,0-0.05,0.01-0.08,0.01
		c0.85-0.07,1.07,0.09,1.75,0.75l0.29,0.27c0.45,0.42,0.87,1.76,1.25,3.02C18.82,22.5,16.75,23.24,14.71,23.09 M23.31,23.18
		c0.01,0.56-0.13,0.86-0.28,0.91c-0.13,0.04-0.37-0.1-0.64-0.5c-0.23-0.35-0.48-1.12-0.74-1.98l-0.31-1.02
		c-0.39-1.31-0.81-2.57-1.33-3.06l-0.28-0.27c-0.25-0.24-0.46-0.46-0.67-0.6c0,0,0,0,0,0h0l-0.04-0.03
		c-0.36-0.3-0.96-0.33-0.96-0.33h-0.04c-0.56,0.08-1.09,0.13-1.63,0.15c1.31-0.69,3.24-1.57,4.08-1.47c0.8,0.11,1.05,0.2,1.18,0.46
		c0.06,0.12,0.09,0.26,0.13,0.47l0.01,0.03l0.02,0.13c0.04,0.22,0.16,0.73,0.32,1.37c0.14,0.59,0.31,1.3,0.48,2.03l0.25,1.12
		C23.11,21.71,23.31,22.72,23.31,23.18 M23.04,19.05c-0.14-0.6-0.28-1.2-0.41-1.72c-0.15-0.64-0.27-1.14-0.32-1.36l-0.03-0.15
		c0-0.01-0.01-0.03-0.01-0.04c1.74-0.63,3.55-1.54,5.42-2.79C26.14,15.46,24.58,17.48,23.04,19.05"/>
</g>
</svg>
