<?xml version="1.0" encoding="utf-8"?>
<!-- Generator: Adobe Illustrator 23.0.2, SVG Export Plug-In . SVG Version: 6.00 Build 0)  -->
<svg version="1.1" id="Layer_1" xmlns="http://www.w3.org/2000/svg" xmlns:xlink="http://www.w3.org/1999/xlink" x="0px" y="0px"
	 width="32px" height="32px" viewBox="0 0 32 32" style="enable-background:new 0 0 32 32;" xml:space="preserve">
<style type="text/css">
	.st0{fill:none;}
	.st1{fill:#952624;}
</style>
<rect class="st0" width="32" height="32"/>
<path class="st1" d="M29.98,4.22H2.02c-0.87,0-1.59,0.71-1.59,1.59V22.7c0,0.88,0.71,1.59,1.59,1.59h13.51v0.08v0.07v2.2v0.08v0.08
	h-0.08h-0.07H7.29v0.99h17.43v-0.99h-8.04h-0.08h-0.08v-0.08v-0.08v-2.2v-0.07v-0.08h13.46c0.88,0,1.59-0.71,1.59-1.59V5.81
	C31.56,4.93,30.85,4.22,29.98,4.22 M30.57,22.7c0,0.33-0.27,0.6-0.6,0.6H2.02c-0.33,0-0.6-0.27-0.6-0.6V5.81
	c0-0.33,0.27-0.6,0.6-0.6h27.95c0.33,0,0.6,0.27,0.6,0.6V22.7z"/>
</svg>
