<?xml version="1.0" encoding="utf-8"?>
<!-- Generator: Adobe Illustrator 23.0.2, SVG Export Plug-In . SVG Version: 6.00 Build 0)  -->
<svg version="1.1" id="Layer_1" xmlns="http://www.w3.org/2000/svg" xmlns:xlink="http://www.w3.org/1999/xlink" x="0px" y="0px"
	 width="32px" height="32px" viewBox="0 0 32 32" style="enable-background:new 0 0 32 32;" xml:space="preserve">
<style type="text/css">
	.st0{fill:none;}
	.st1{fill:#952624;}
</style>
<rect class="st0" width="32" height="32"/>
<g>
	<path class="st1" d="M30.7,5.74H1.3c-0.28,0-0.5,0.22-0.5,0.5c0,0.28,0.22,0.5,0.5,0.5h3.31v19.02c0,0.28,0.22,0.5,0.5,0.5
		c0.28,0,0.5-0.22,0.5-0.5v-6.71h20.78v6.71c0,0.28,0.22,0.5,0.5,0.5c0.28,0,0.5-0.22,0.5-0.5V6.74h3.31c0.28,0,0.5-0.22,0.5-0.5
		C31.2,5.96,30.97,5.74,30.7,5.74 M26.39,18.54H5.61V6.74h20.78V18.54z"/>
</g>
</svg>
