<?xml version="1.0" encoding="utf-8"?>
<!-- Generator: Adobe Illustrator 23.0.2, SVG Export Plug-In . SVG Version: 6.00 Build 0)  -->
<svg version="1.1" id="Layer_1" xmlns="http://www.w3.org/2000/svg" xmlns:xlink="http://www.w3.org/1999/xlink" x="0px" y="0px"
	 width="32px" height="32px" viewBox="0 0 32 32" style="enable-background:new 0 0 32 32;" xml:space="preserve">
<style type="text/css">
	.st0{fill:none;}
	.st1{fill:#952624;}
</style>
<rect class="st0" width="32" height="32"/>
<path class="st1" d="M28.78,12.56c-0.69,0-1.31,0.26-1.8,0.67V8.4c0-1.1-0.9-1.99-1.99-1.99H7.01c-1.1,0-1.99,0.89-1.99,1.99v4.83
	c-0.49-0.41-1.11-0.67-1.8-0.67c-1.55,0-2.82,1.26-2.82,2.82v7.01c0,0.55,0.45,0.99,0.99,0.99h0.52v1.55c0,0.36,0.29,0.66,0.66,0.66
	c0.36,0,0.65-0.29,0.65-0.66v-1.55h1.8h1.02h19.92h1.02h1.8v1.55c0,0.36,0.29,0.66,0.66,0.66c0.36,0,0.65-0.29,0.65-0.66v-1.55h0.52
	c0.55,0,0.99-0.45,0.99-0.99v-7.01C31.6,13.83,30.33,12.56,28.78,12.56 M6.04,8.4c0-0.54,0.44-0.98,0.98-0.98h17.97
	c0.54,0,0.98,0.44,0.98,0.98v6.98v1.75H6.04v-1.75V8.4z M5.02,22.37l-3.6,0.02v-7.01c0-0.99,0.81-1.8,1.8-1.8
	c0.99,0,1.8,0.81,1.8,1.8V22.37z M6.04,17.64h19.92v4.73H6.04V17.64z M26.98,22.37v-6.99c0-0.99,0.81-1.8,1.8-1.8
	c0.99,0,1.8,0.81,1.8,1.8l0.03,6.99H26.98z"/>
</svg>
