<?xml version="1.0" encoding="utf-8"?>
<!-- Generator: Adobe Illustrator 23.0.2, SVG Export Plug-In . SVG Version: 6.00 Build 0)  -->
<svg version="1.1" id="Layer_1" xmlns="http://www.w3.org/2000/svg" xmlns:xlink="http://www.w3.org/1999/xlink" x="0px" y="0px"
	 width="32px" height="32px" viewBox="0 0 32 32" style="enable-background:new 0 0 32 32;" xml:space="preserve">
<style type="text/css">
	.st0{fill:none;}
	.st1{fill:#952624;}
</style>
<rect class="st0" width="32" height="32"/>
<g>
	<path class="st1" d="M29.91,12.53H3.38V5.88c0-2.2,1.85-2.42,2.02-2.44c2.51,0,2.62,2.19,2.63,2.44c0,0.27,0.23,0.49,0.5,0.49h0.01
		c0.27,0,0.5-0.23,0.49-0.51C9.02,4.69,8.25,2.45,5.37,2.45h0c-1.03,0.08-2.98,0.9-2.98,3.44v6.65h-0.3c-0.89,0-1.62,0.73-1.62,1.62
		v13.79c0,0.89,0.73,1.62,1.62,1.62h27.83c0.89,0,1.62-0.73,1.62-1.62V14.15C31.53,13.26,30.81,12.53,29.91,12.53 M30.53,14.15v5.37
		H14.18v-5.98h15.74C30.25,13.53,30.53,13.81,30.53,14.15 M1.47,27.94V14.15c0-0.34,0.28-0.62,0.62-0.62h11.59v15.02H2.08
		C1.75,28.55,1.47,28.28,1.47,27.94 M29.91,28.55H14.18v-8.54h16.36v7.92C30.53,28.28,30.25,28.55,29.91,28.55"/>
	<path class="st1" d="M10.11,14.82c-0.89,0-1.61,0.72-1.61,1.61c0,0.89,0.72,1.61,1.61,1.61c0.89,0,1.61-0.72,1.61-1.61
		C11.72,15.54,11,14.82,10.11,14.82 M10.11,17.54C9.5,17.54,9,17.04,9,16.43c0-0.61,0.5-1.11,1.11-1.11c0.61,0,1.11,0.5,1.11,1.11
		C11.22,17.04,10.72,17.54,10.11,17.54"/>
	<path class="st1" d="M22.35,18.04c0.89,0,1.61-0.72,1.61-1.61c0-0.89-0.72-1.61-1.61-1.61c-0.89,0-1.61,0.72-1.61,1.61
		C20.74,17.32,21.46,18.04,22.35,18.04 M22.35,15.32c0.61,0,1.11,0.5,1.11,1.11c0,0.61-0.5,1.11-1.11,1.11
		c-0.61,0-1.11-0.5-1.11-1.11C21.24,15.82,21.74,15.32,22.35,15.32"/>
	<path class="st1" d="M17.14,18.04c0.89,0,1.61-0.72,1.61-1.61c0-0.89-0.72-1.61-1.61-1.61c-0.89,0-1.61,0.72-1.61,1.61
		C15.53,17.32,16.25,18.04,17.14,18.04 M17.14,15.32c0.61,0,1.11,0.5,1.11,1.11c0,0.61-0.5,1.11-1.11,1.11
		c-0.61,0-1.11-0.5-1.11-1.11C16.03,15.82,16.53,15.32,17.14,15.32"/>
	<path class="st1" d="M27.56,18.04c0.89,0,1.61-0.72,1.61-1.61c0-0.89-0.72-1.61-1.61-1.61c-0.89,0-1.61,0.72-1.61,1.61
		C25.95,17.32,26.67,18.04,27.56,18.04 M27.56,15.32c0.61,0,1.11,0.5,1.11,1.11c0,0.61-0.5,1.11-1.11,1.11
		c-0.61,0-1.11-0.5-1.11-1.11C26.45,15.82,26.95,15.32,27.56,15.32"/>
	<path class="st1" d="M15.48,10.28h4.82c0.23,0,0.42-0.19,0.42-0.42v-0.1h-5.66v0.1C15.06,10.09,15.25,10.28,15.48,10.28"/>
	<path class="st1" d="M24.35,10.28h4.82c0.23,0,0.42-0.19,0.42-0.42v-0.1h-5.66v0.1C23.93,10.09,24.12,10.28,24.35,10.28"/>
</g>
</svg>
