<?xml version="1.0" encoding="utf-8"?>
<!-- Generator: Adobe Illustrator 23.0.2, SVG Export Plug-In . SVG Version: 6.00 Build 0)  -->
<svg version="1.1" id="Layer_1" xmlns="http://www.w3.org/2000/svg" xmlns:xlink="http://www.w3.org/1999/xlink" x="0px" y="0px"
	 width="32px" height="32px" viewBox="0 0 32 32" style="enable-background:new 0 0 32 32;" xml:space="preserve">
<style type="text/css">
	.st0{fill:none;}
	.st1{fill:#952624;}
</style>
<rect class="st0" width="32" height="32"/>
<g>
	<path class="st1" d="M18.53,17.64c-0.46-0.39-1.05-0.33-1.08-0.32l-1.98,0.12v0l-0.98,0.06h0c-0.08,0-0.66,0.02-1.07,0.45
		c-0.19,0.2-0.4,0.55-0.37,1.14c0.06,1.07,1.3,8.88,1.36,9.25c0.09,0.42,0.49,1.18,1.31,1.22l0,0.02l1.74-0.1l0.15-0.01l0-0.02
		c0.81-0.14,1.11-0.94,1.16-1.4c0.01-0.34,0.32-8.24,0.26-9.31C19,18.14,18.74,17.81,18.53,17.64 M17.78,27.96
		c0,0-0.06,0.48-0.37,0.5l-1.58,0.09c-0.35,0.02-0.42-0.42-0.42-0.42c-0.44-2.8-1.3-8.3-1.35-9.12c-0.01-0.18,0.02-0.31,0.09-0.39
		c0.1-0.11,0.29-0.14,0.37-0.14l1.97-0.12l1.03-0.06c0.06-0.01,0.25,0,0.36,0.1c0.08,0.07,0.13,0.2,0.14,0.37
		C18.08,19.6,17.89,25.17,17.78,27.96"/>
	<path class="st1" d="M31.03,4.54l0.02-0.01l-0.57-0.92l-0.43-0.69l-0.02,0.01c-0.51-0.64-1.35-0.53-1.78-0.35
		c-0.3,0.15-7.4,3.65-8.31,4.21c-0.5,0.31-0.66,0.69-0.72,0.96c-0.12,0.59,0.21,1.08,0.23,1.11L20,9.71l0.09,0.15l0.42,0.67v0
		l0.52,0.83c0.03,0.06,0.32,0.57,0.9,0.73c0.09,0.02,0.21,0.04,0.33,0.04c0.23,0,0.52-0.06,0.84-0.26c0.91-0.57,7.19-5.38,7.48-5.61
		C30.91,5.98,31.38,5.28,31.03,4.54 M29.95,5.49c-2.25,1.72-6.68,5.1-7.37,5.53c-0.15,0.09-0.28,0.13-0.38,0.1
		c-0.14-0.04-0.26-0.18-0.3-0.26l-1.04-1.68h0L20.3,8.3c0,0-0.12-0.19-0.09-0.36c0.02-0.11,0.11-0.21,0.26-0.3
		c0.7-0.43,5.68-2.91,8.19-4.15c0,0,0.45-0.18,0.61,0.09l0.48,0.77l0.35,0.57C30.28,5.18,29.95,5.49,29.95,5.49"/>
	<path class="st1" d="M12.11,7.32c-0.93-0.53-8.16-3.75-8.5-3.9c-0.4-0.15-1.25-0.23-1.73,0.43L1.87,3.84L1.01,5.35c0,0,0,0,0,0
		L0.93,5.49L0.95,5.5C0.62,6.25,1.13,6.94,1.49,7.23c0.27,0.19,6.73,4.76,7.67,5.29c0.3,0.17,0.57,0.23,0.8,0.23
		c0.15,0,0.28-0.03,0.38-0.06c0.58-0.18,0.85-0.7,0.86-0.73l0.98-1.72l0.48-0.85c0.04-0.05,0.35-0.55,0.21-1.14
		C12.8,7.98,12.62,7.61,12.11,7.32 M11.8,8.87l-0.5,0.88l-0.02,0.03l-0.46,0.81l0,0l-0.51,0.9c-0.03,0.06-0.14,0.21-0.28,0.25
		c-0.1,0.03-0.23,0-0.39-0.09c-0.71-0.41-5.27-3.6-7.56-5.22c0,0-0.37-0.31-0.21-0.58l0.36-0.64l0.42-0.74
		c0.15-0.27,0.58-0.13,0.58-0.13v0c2.59,1.15,7.67,3.44,8.38,3.84c0.15,0.09,0.25,0.19,0.27,0.29C11.93,8.62,11.85,8.79,11.8,8.87"
		/>
	<path class="st1" d="M16.08,15.76c1.54,0,2.79-1.25,2.79-2.79c0-1.54-1.25-2.79-2.79-2.79c-1.54,0-2.79,1.25-2.79,2.79
		C13.3,14.51,14.55,15.76,16.08,15.76 M16.08,11.19c0.98,0,1.79,0.8,1.79,1.79s-0.8,1.79-1.79,1.79c-0.98,0-1.79-0.8-1.79-1.79
		S15.1,11.19,16.08,11.19"/>
</g>
</svg>
