<?xml version="1.0" encoding="utf-8"?>
<!-- Generator: Adobe Illustrator 23.0.2, SVG Export Plug-In . SVG Version: 6.00 Build 0)  -->
<svg version="1.1" id="Layer_1" xmlns="http://www.w3.org/2000/svg" xmlns:xlink="http://www.w3.org/1999/xlink" x="0px" y="0px"
	 width="32px" height="32px" viewBox="0 0 32 32" style="enable-background:new 0 0 32 32;" xml:space="preserve">
<style type="text/css">
	.st0{fill:none;}
	.st1{fill:#952624;}
</style>
<rect class="st0" width="32" height="32"/>
<g>
	<polygon class="st1" points="31.74,29.29 16.5,29.29 16.5,1.71 15.5,1.71 15.5,29.29 0.26,29.29 0.26,30.29 31.74,30.29 	"/>
	<path class="st1" d="M4.18,26.33h2.46h0.7h2.47c0.73,0,1.29-0.22,1.68-0.65c0.58-0.65,0.51-1.49,0.5-1.56
		c-0.02-0.38-0.41-9.28-0.63-11.61c-0.1-1.09-0.39-1.76-0.72-2.18c0.51-0.34,0.84-0.92,0.84-1.57v-1.4c0-2.48-2.02-4.5-4.5-4.5
		c-2.48,0-4.5,2.02-4.5,4.5v1.4c0,0.65,0.33,1.23,0.84,1.57c-0.32,0.42-0.62,1.09-0.72,2.18C2.41,14.85,2.01,23.75,2,24.09
		c-0.01,0.09-0.08,0.94,0.5,1.59C2.89,26.11,3.45,26.33,4.18,26.33 M3.5,7.37c0-1.93,1.57-3.5,3.5-3.5c1.93,0,3.5,1.57,3.5,3.5v1.4
		c0,0.49-0.4,0.89-0.89,0.89H9.51H6.09h-1.7c-0.49,0-0.89-0.4-0.89-0.89V7.37z M3,24.17c0-0.09,0.41-9.25,0.62-11.56
		c0.17-1.8,0.89-1.94,0.87-1.95H7.9h1.57c0.05,0.01,0.74,0.19,0.9,1.95c0.21,2.31,0.62,11.47,0.62,11.59c0,0.01,0.04,0.5-0.25,0.81
		c-0.19,0.21-0.51,0.32-0.94,0.32H7.34h-0.7H4.18c-0.43,0-0.75-0.11-0.94-0.31C2.95,24.7,2.99,24.2,3,24.17"/>
	<path class="st1" d="M22.19,26.33h2.46h0.7h2.47c0.73,0,1.29-0.22,1.68-0.65c0.58-0.65,0.51-1.49,0.5-1.56
		c-0.02-0.38-0.41-9.28-0.63-11.61c-0.1-1.09-0.39-1.76-0.72-2.18C29.17,10,29.5,9.42,29.5,8.77v-1.4c0-2.31-1.75-4.19-4-4.45V2.26
		c0-0.28-0.22-0.5-0.5-0.5s-0.5,0.22-0.5,0.5v0.66c-2.24,0.25-4,2.14-4,4.45v1.4c0,0.65,0.33,1.23,0.84,1.57
		c-0.32,0.42-0.62,1.09-0.72,2.18c-0.21,2.33-0.61,11.23-0.62,11.58c-0.01,0.09-0.08,0.94,0.5,1.59
		C20.9,26.11,21.46,26.33,22.19,26.33 M21.51,7.37c0-1.93,1.57-3.5,3.5-3.5c1.93,0,3.5,1.57,3.5,3.5v1.4c0,0.49-0.4,0.89-0.89,0.89
		h-0.09H24.1h-1.7c-0.49,0-0.89-0.4-0.89-0.89V7.37z M21.01,24.17c0-0.09,0.41-9.25,0.62-11.56c0.17-1.8,0.89-1.94,0.87-1.95h3.42
		h1.57c0.05,0.01,0.74,0.19,0.9,1.95C28.6,14.91,29,24.07,29.01,24.2c0,0.01,0.04,0.5-0.25,0.81c-0.19,0.21-0.51,0.32-0.94,0.32
		h-2.47h-0.7h-2.46c-0.43,0-0.75-0.11-0.94-0.31C20.96,24.7,21,24.2,21.01,24.17"/>
</g>
</svg>
