<?xml version="1.0" encoding="utf-8"?>
<!-- Generator: Adobe Illustrator 23.0.2, SVG Export Plug-In . SVG Version: 6.00 Build 0)  -->
<svg version="1.1" id="Layer_1" xmlns="http://www.w3.org/2000/svg" xmlns:xlink="http://www.w3.org/1999/xlink" x="0px" y="0px"
	 width="32px" height="32px" viewBox="0 0 32 32" style="enable-background:new 0 0 32 32;" xml:space="preserve">
<style type="text/css">
	.st0{fill:none;}
	.st1{fill:#952524;}
</style>
<rect class="st0" width="32" height="32"/>
<g>
	<rect x="7.12" y="6.31" class="st1" width="3.16" height="0.55"/>
	<rect x="21.72" y="6.31" class="st1" width="3.16" height="0.55"/>
	<path class="st1" d="M30.59,1.26H1.41c-0.27,0-0.49,0.22-0.49,0.49v9.67c0,0.27,0.22,0.49,0.49,0.49h29.18
		c0.27,0,0.49-0.22,0.49-0.49V1.75C31.08,1.48,30.86,1.26,30.59,1.26 M1.9,10.93V2.24h13.82v8.69H1.9z M30.1,10.93l-13.82,0V2.24
		l13.82,0V10.93z"/>
	<path class="st1" d="M30.59,20.09h-3.38v-3.65c0-1.19-0.97-2.16-2.16-2.16c-1.12,0-2.03,0.86-2.14,1.95h0.55
		c0.1-0.79,0.77-1.4,1.59-1.4c0.89,0,1.61,0.72,1.61,1.61v3.65H1.41c-0.27,0-0.49,0.22-0.49,0.49v9.67c0,0.27,0.22,0.49,0.49,0.49
		h29.18c0.27,0,0.49-0.22,0.49-0.49v-9.67C31.08,20.31,30.86,20.09,30.59,20.09 M1.9,21.07h13.82v8.69H1.9V21.07z M30.1,29.76H16.28
		v-8.69H30.1V29.76z"/>
</g>
</svg>
