<?xml version="1.0" encoding="utf-8"?>
<!-- Generator: Adobe Illustrator 23.0.2, SVG Export Plug-In . SVG Version: 6.00 Build 0)  -->
<svg version="1.1" id="Layer_1" xmlns="http://www.w3.org/2000/svg" xmlns:xlink="http://www.w3.org/1999/xlink" x="0px" y="0px"
	 width="32px" height="32px" viewBox="0 0 32 32" style="enable-background:new 0 0 32 32;" xml:space="preserve">
<style type="text/css">
	.st0{fill:none;}
	.st1{fill:#952624;}
</style>
<rect class="st0" width="32" height="32"/>
<path class="st1" d="M26.29,13.94v-3.12c0-1.67-2.2-2.4-2.33-2.43c-3.32-0.83-4.8-2.26-5.28-2.84c0.1-0.16,0.18-0.35,0.18-0.56V2.2
	c0-0.59-0.48-1.06-1.06-1.06h-3.62c-0.59,0-1.06,0.48-1.06,1.06v2.79c0,0.21,0.08,0.39,0.18,0.56C12.83,6.12,11.35,7.55,8,8.39
	c-0.09,0.03-2.3,0.75-2.3,2.43l0,3.2c0.08,0.54,0.49,1.46,1.45,1.83c-0.26,0.34-0.42,0.77-0.42,1.24v1.13
	c0,0.63,0.29,1.18,0.73,1.56c-0.44,0.38-0.73,0.93-0.73,1.56v1.12c0,0.49,0.18,0.93,0.46,1.29c-0.87,0.4-1.49,1.27-1.49,2.29v2.31
	c0,1.39,1.13,2.52,2.52,2.52h15.18c1.39,0,2.52-1.13,2.52-2.52v-2.31c0-1.02-0.61-1.9-1.49-2.29c0.29-0.35,0.46-0.8,0.46-1.29v-1.12
	c0-0.63-0.29-1.18-0.73-1.56c0.44-0.38,0.73-0.93,0.73-1.56v-1.13c0-0.43-0.13-0.82-0.35-1.15C25.73,15.63,26.2,14.59,26.29,13.94
	 M14.19,2.14l3.68,0.06v2.79c0,0.03-0.03,0.06-0.06,0.06l-3.68-0.06L14.19,2.14z M16.5,5.05l-1,0v0H16.5z M7.74,18.21v-1.13
	c0-0.58,0.48-1.06,1.06-1.06h6.7h1h6.36c0.58,0,1.06,0.48,1.06,1.06v1.13c0,0.58-0.48,1.06-1.06,1.06H8.8
	C8.22,19.27,7.74,18.79,7.74,18.21 M24.94,26.03v2.31c0,0.84-0.68,1.52-1.52,1.52H8.24c-0.84,0-1.52-0.68-1.52-1.52v-2.31
	c0-0.84,0.68-1.52,1.52-1.52H8.8h14.06h0.56C24.26,24.51,24.94,25.19,24.94,26.03 M23.92,21.33v1.12c0,0.58-0.48,1.06-1.06,1.06H8.8
	c-0.58,0-1.06-0.48-1.06-1.06v-1.12c0-0.59,0.48-1.06,1.06-1.06h14.06C23.44,20.27,23.92,20.74,23.92,21.33 M23.89,15.02h-1.03H16.5
	h-1H8.8H8.11c-1.19,0-1.39-1.04-1.4-1.08v-3.12c0-0.93,1.58-1.46,1.57-1.46c3.81-0.95,5.43-2.66,5.92-3.3h1.31h1h1.31
	c0.49,0.64,2.1,2.35,5.88,3.29c0.42,0.13,1.6,0.69,1.6,1.47l0.01,3.05C25.28,13.98,25.08,15.02,23.89,15.02"/>
</svg>
