<?xml version="1.0" encoding="utf-8"?>
<!-- Generator: Adobe Illustrator 23.0.2, SVG Export Plug-In . SVG Version: 6.00 Build 0)  -->
<svg version="1.1" id="Layer_1" xmlns="http://www.w3.org/2000/svg" xmlns:xlink="http://www.w3.org/1999/xlink" x="0px" y="0px"
	 width="32px" height="32px" viewBox="0 0 32 32" style="enable-background:new 0 0 32 32;" xml:space="preserve">
<style type="text/css">
	.st0{fill:none;}
	.st1{fill:#962425;}
</style>
<rect class="st0" width="32" height="32"/>
<g>
	<path class="st1" d="M26.11,15.43h-1.46c-1.2,0-2.1-0.32-2.68-0.96c-0.88-0.97-0.76-2.38-0.75-2.45V6.07c0-0.28-0.22-0.5-0.5-0.5
		h-1.53V3.29c0-1.77-1.44-3.2-3.2-3.2h-0.07c-1.77,0-3.2,1.44-3.2,3.2v2.28h-1.42c-0.28,0-0.5,0.22-0.5,0.5l0,6.01
		c0,0.01,0.13,1.41-0.75,2.39c-0.58,0.64-1.48,0.97-2.69,0.97H5.89c-0.84,0.01-2.44,0.54-2.44,2.43V28.1c0,0.28,0.22,0.5,0.5,0.5
		c0.28,0,0.5-0.22,0.5-0.5V17.86c0-1.32,1.21-1.42,1.44-1.43h0.96l0,14.11c-0.01,0.06-0.06,0.57,0.3,0.96
		c0.17,0.19,0.47,0.4,1.02,0.4h7.8h7.79c0.54,0,0.85-0.22,1.02-0.4c0.35-0.4,0.3-0.91,0.3-0.91V16.43h1.02
		c0.15,0,1.45,0.06,1.45,1.43V28.1c0,0.28,0.22,0.5,0.5,0.5c0.28,0,0.5-0.22,0.5-0.5V17.86C28.55,15.97,26.96,15.45,26.11,15.43
		 M13.86,3.29c0-1.13,0.92-2.05,2.05-2.05h0.07c1.13,0,2.05,0.92,2.05,2.05v2.09h-4.18V3.29z M24.03,30.84
		c-0.04,0.04-0.14,0.07-0.27,0.07h-7.79h-7.8c-0.13,0-0.23-0.02-0.27-0.07c-0.05-0.05-0.05-0.15-0.05-0.24V16.39
		c1.25-0.09,2.24-0.5,2.93-1.26c1.18-1.3,1.01-3.09,1-3.11V6.57h4.18c0.01,0,0.02-0.01,0.03-0.01c0.01,0,0.02,0.01,0.03,0.01h4.18
		l0,5.41c-0.01,0.08-0.17,1.86,1,3.16c0.67,0.74,1.64,1.15,2.86,1.25l0,14.27C24.08,30.66,24.08,30.78,24.03,30.84"/>
	<path class="st1" d="M18.4,8.93h-4.52c-0.15,0-0.27,0.12-0.27,0.27v4.85c0,0.15,0.12,0.27,0.27,0.27h4.52
		c0.15,0,0.27-0.12,0.27-0.27V9.21C18.68,9.05,18.56,8.93,18.4,8.93 M18.13,13.78h-3.97v-4.3h3.97V13.78z"/>
</g>
</svg>
