<?xml version="1.0" encoding="utf-8"?>
<!-- Generator: Adobe Illustrator 23.0.2, SVG Export Plug-In . SVG Version: 6.00 Build 0)  -->
<svg version="1.1" id="Layer_1" xmlns="http://www.w3.org/2000/svg" xmlns:xlink="http://www.w3.org/1999/xlink" x="0px" y="0px"
	 width="32px" height="32px" viewBox="0 0 32 32" style="enable-background:new 0 0 32 32;" xml:space="preserve">
<style type="text/css">
	.st0{fill:none;}
	.st1{fill:#952624;}
</style>
<rect class="st0" width="32" height="32"/>
<g>
	<rect x="24.2" y="17" class="st1" width="3.25" height="0.5"/>
	<rect x="24.2" y="10.45" class="st1" width="3.25" height="0.5"/>
	<path class="st1" d="M30.98,6.94H1.02c-0.33,0-0.6,0.27-0.6,0.59v17.52h1V7.94h18.54h0.06h0.22h0.09v17.12h0.5v-4.34h9.75v0.1v4.24
		h1V7.54C31.58,7.21,31.31,6.94,30.98,6.94 M30.58,14.38v5.74v0.1h-9.75v-5.95h9.75V14.38z M30.58,13.68v0.09h-9.75V7.94h0.11h9.64
		V13.68z"/>
</g>
</svg>
