<?xml version="1.0" encoding="utf-8"?>
<!-- Generator: Adobe Illustrator 23.0.2, SVG Export Plug-In . SVG Version: 6.00 Build 0)  -->
<svg version="1.1" id="Layer_1" xmlns="http://www.w3.org/2000/svg" xmlns:xlink="http://www.w3.org/1999/xlink" x="0px" y="0px"
	 width="32px" height="32px" viewBox="0 0 32 32" style="enable-background:new 0 0 32 32;" xml:space="preserve">
<style type="text/css">
	.st0{fill:none;}
	.st1{fill:#952524;}
</style>
<rect class="st0" width="32" height="32"/>
<g>
	<polygon class="st1" points="24.31,18.27 24.27,17.71 16.28,17.71 16.28,15.62 15.72,15.62 15.72,17.71 7.72,17.71 7.69,18.27 	"/>
	<polygon class="st1" points="15.72,27.85 9.03,29.94 9.03,31.25 9.58,31.25 9.58,30.35 15.72,28.43 15.72,31.25 16.27,31.25 
		16.27,28.43 22.42,30.35 22.42,31.25 22.97,31.25 22.97,29.94 16.27,27.85 16.27,22.5 15.72,22.5 	"/>
	<path class="st1" d="M12.42,15.62h7.16c0.62,0,1.19-0.24,1.62-0.68c0.43-0.44,0.66-1.02,0.65-1.63L21.64,2.98
		c-0.02-1.23-1.04-2.23-2.27-2.23H12.6c-1.23,0-2.25,1-2.27,2.23l-0.18,10.32c-0.01,0.61,0.22,1.19,0.65,1.63
		C11.23,15.38,11.81,15.62,12.42,15.62 M11.31,3c0.01-0.7,0.59-1.27,1.29-1.27h6.77c0.7,0,1.28,0.57,1.29,1.27l0.2,10.32
		c0.01,0.35-0.12,0.68-0.37,0.93c-0.25,0.25-0.57,0.39-0.92,0.39h-7.16c-0.35,0-0.68-0.14-0.92-0.39c-0.24-0.25-0.38-0.58-0.37-0.93
		L11.31,3z"/>
	<path class="st1" d="M28.43,13.44h-2.31c-0.78,0-1.95,0.52-1.95,1.95c0,0.76,0.04,1.67,0.07,2.31l0.03,0.55
		c0.03,0.46,0.05,0.79,0.05,0.83c0,0,0.08,0.73,0.17,1.18c0.07,0.34,0.15,0.83-0.05,1.07c-0.11,0.14-0.33,0.21-0.66,0.21H8.21
		c-0.32,0-0.55-0.07-0.66-0.21c-0.22-0.26-0.1-0.84-0.05-1.08c0.09-0.45,0.17-1.18,0.17-1.19c0-0.03,0.02-0.35,0.05-0.81l0.03-0.55
		c0.05-0.96,0.07-1.72,0.07-2.31c0-1.43-1.17-1.95-1.95-1.95H3.57c-0.27,0-0.49,0.22-0.49,0.49c0,0.27,0.22,0.49,0.49,0.49h2.31
		c0.23,0,0.98,0.09,0.98,0.97c0,1.31-0.12,3.2-0.15,3.57c0,0.04-0.07,0.68-0.16,1.1c-0.08,0.38-0.26,1.26,0.25,1.88
		c0.31,0.38,0.78,0.57,1.42,0.57h15.58c0.63,0,1.11-0.19,1.42-0.57c0.51-0.63,0.33-1.49,0.24-1.9c-0.08-0.39-0.15-1.02-0.15-1.05
		c-0.02-0.24-0.15-2.25-0.15-3.6c0-0.88,0.74-0.97,0.97-0.97h2.32c0.27,0,0.49-0.22,0.49-0.49C28.92,13.66,28.7,13.44,28.43,13.44"
		/>
</g>
</svg>
