<?xml version="1.0" encoding="utf-8"?>
<!-- Generator: Adobe Illustrator 23.0.2, SVG Export Plug-In . SVG Version: 6.00 Build 0)  -->
<svg version="1.1" id="Layer_1" xmlns="http://www.w3.org/2000/svg" xmlns:xlink="http://www.w3.org/1999/xlink" x="0px" y="0px"
	 width="32px" height="32px" viewBox="0 0 32 32" style="enable-background:new 0 0 32 32;" xml:space="preserve">
<style type="text/css">
	.st0{fill:none;}
	.st1{fill:#952524;}
</style>
<g>
	<rect y="0" class="st0" width="32" height="32"/>
</g>
<path class="st1" d="M29.74,22.01l-4.73-2.25l4.04-1.41c0.12-0.04,0.22-0.13,0.28-0.25c0.06-0.12,0.07-0.25,0.02-0.38
	c-0.09-0.25-0.37-0.39-0.63-0.3l-4.98,1.74l-6.75-3.22l6.26-4l5.19,1.11c0.13,0.03,0.26,0.01,0.37-0.07
	c0.11-0.07,0.19-0.18,0.21-0.31c0.03-0.13,0-0.26-0.07-0.37c-0.07-0.11-0.18-0.19-0.31-0.21l-4.22-0.91l4.45-2.84
	c0.22-0.15,0.29-0.45,0.15-0.68c-0.07-0.11-0.18-0.19-0.31-0.21c-0.13-0.03-0.26-0.01-0.37,0.07l-4.45,2.84l0.95-4.21
	c0.03-0.12,0-0.26-0.07-0.37c-0.07-0.11-0.18-0.19-0.31-0.22c-0.13-0.03-0.26-0.01-0.37,0.06c-0.11,0.07-0.19,0.18-0.22,0.31
	l-1.17,5.18l-6.26,4L16.4,7.68l3.68-3.8c0.1-0.1,0.15-0.24,0.14-0.35c0-0.13-0.06-0.25-0.15-0.34c-0.09-0.09-0.21-0.14-0.34-0.14
	h-0.01c-0.13,0-0.25,0.06-0.35,0.15l-2.99,3.09L16.32,1c0-0.13-0.05-0.25-0.15-0.35c-0.09-0.09-0.21-0.14-0.34-0.14h-0.01
	c-0.27,0-0.49,0.22-0.49,0.49l0.06,5.3l-3.08-3.04c-0.09-0.09-0.22-0.14-0.34-0.14h0c-0.13,0-0.25,0.05-0.34,0.15
	c-0.19,0.19-0.19,0.5,0,0.69l3.78,3.74l0.08,7.51L8.75,12L6.97,7.04C6.87,6.79,6.59,6.66,6.34,6.75C6.09,6.84,5.96,7.12,6.05,7.38
	l1.45,4.02L2.68,9.1C2.56,9.05,2.43,9.04,2.31,9.08C2.18,9.13,2.08,9.22,2.03,9.33C1.99,9.4,1.98,9.47,1.98,9.55
	c0,0.19,0.11,0.36,0.28,0.44l4.86,2.32l-4.11,1.43c-0.25,0.09-0.39,0.37-0.3,0.63c0.04,0.12,0.13,0.22,0.25,0.28
	c0.12,0.06,0.25,0.06,0.38,0.02l5.05-1.76l6.61,3.15l-6.21,3.97l-5.19-1.12c-0.13-0.03-0.26-0.01-0.37,0.07
	c-0.11,0.07-0.18,0.18-0.21,0.31c-0.03,0.13,0,0.26,0.07,0.37c0.07,0.11,0.18,0.19,0.31,0.21l4.22,0.91L3.1,23.66
	c-0.23,0.15-0.29,0.45-0.15,0.68c0.15,0.23,0.45,0.29,0.68,0.15l4.5-2.88l-0.95,4.21c-0.03,0.13-0.01,0.26,0.06,0.37
	c0.07,0.11,0.18,0.19,0.31,0.22c0.13,0.03,0.26,0.01,0.37-0.07c0.11-0.07,0.19-0.18,0.22-0.3l1.17-5.18l6.21-3.97l0.08,7.36
	l-3.71,3.82c-0.08,0.08-0.13,0.2-0.14,0.35c0,0.13,0.05,0.25,0.15,0.34c0.09,0.09,0.21,0.14,0.34,0.14h0.01
	c0.13,0,0.25-0.06,0.34-0.15l3.02-3.11L15.68,31c0,0.27,0.22,0.48,0.49,0.48h0.01c0.27,0,0.49-0.22,0.49-0.49l-0.06-5.33l3.06,3.02
	c0.19,0.19,0.5,0.19,0.69,0l0.02-0.02v0c0.08-0.09,0.12-0.2,0.12-0.32c0-0.13-0.05-0.25-0.14-0.34l-3.76-3.72l-0.08-7.49l6.79,3.24
	l1.81,5.03c0.09,0.25,0.37,0.39,0.63,0.29c0.12-0.04,0.22-0.13,0.28-0.25c0.06-0.12,0.06-0.25,0.02-0.37l-1.47-4.09l4.78,2.28
	c0.25,0.12,0.54,0.01,0.65-0.23c0.06-0.12,0.06-0.25,0.02-0.37C29.95,22.17,29.86,22.07,29.74,22.01"/>
</svg>
