<?xml version="1.0" encoding="utf-8"?>
<!-- Generator: Adobe Illustrator 23.0.2, SVG Export Plug-In . SVG Version: 6.00 Build 0)  -->
<svg version="1.1" id="Layer_1" xmlns="http://www.w3.org/2000/svg" xmlns:xlink="http://www.w3.org/1999/xlink" x="0px" y="0px"
	 width="32px" height="32px" viewBox="0 0 32 32" style="enable-background:new 0 0 32 32;" xml:space="preserve">
<style type="text/css">
	.st0{fill:none;}
	.st1{fill:#952524;}
</style>
<g>
	<rect y="0" class="st0" width="32" height="32"/>
</g>
<g>
	<path class="st1" d="M30.65,9.93h-2.98c-1.07-1.87-3.06-3.03-5.21-3.03c-2.14,0-4.13,1.16-5.2,3.03H1.35
		c-0.76,0-1.38,0.62-1.38,1.38v12.41c0,0.76,0.62,1.37,1.38,1.37h29.3c0.76,0,1.37-0.62,1.37-1.37V11.31
		C32.03,10.55,31.41,9.93,30.65,9.93 M22.47,17.93c-2.77,0-5.02-2.25-5.02-5.03c0-0.71,0.15-1.4,0.45-2.06
		c0.11-0.26,0.25-0.51,0.41-0.75c0.94-1.39,2.5-2.21,4.16-2.21c1.67,0,3.23,0.83,4.17,2.21c0.15,0.22,0.29,0.48,0.42,0.75
		c0.29,0.65,0.44,1.35,0.44,2.06C27.5,15.68,25.24,17.93,22.47,17.93 M31.05,23.72c0,0.22-0.18,0.4-0.4,0.4H1.35
		c-0.22,0-0.4-0.18-0.4-0.4V11.31c0-0.22,0.18-0.41,0.4-0.41h15.47c-0.23,0.65-0.35,1.32-0.35,2c0,3.31,2.69,6,6,6
		c3.31,0,6-2.69,6-6c0-0.68-0.12-1.35-0.35-2h2.53c0.22,0,0.4,0.18,0.4,0.41V23.72z"/>
	<path class="st1" d="M22.47,10.53c1.31,0,2.37,1.06,2.37,2.37c0,1.31-1.06,2.37-2.37,2.37c-1.31,0-2.37-1.06-2.37-2.37
		C20.1,11.6,21.16,10.53,22.47,10.53 M22.47,10.02c-1.59,0-2.89,1.3-2.89,2.89c0,1.59,1.3,2.89,2.89,2.89
		c1.59,0,2.89-1.29,2.89-2.89C25.36,11.31,24.06,10.02,22.47,10.02"/>
	<rect x="3.31" y="14.38" class="st1" width="10.2" height="0.52"/>
	<rect x="3.31" y="17.56" class="st1" width="10.2" height="0.52"/>
	<rect x="3.31" y="20.74" class="st1" width="10.2" height="0.52"/>
</g>
</svg>
