<?xml version="1.0" encoding="utf-8"?>
<!-- Generator: Adobe Illustrator 23.0.2, SVG Export Plug-In . SVG Version: 6.00 Build 0)  -->
<svg version="1.1" id="Layer_1" xmlns="http://www.w3.org/2000/svg" xmlns:xlink="http://www.w3.org/1999/xlink" x="0px" y="0px"
	 width="32px" height="32px" viewBox="0 0 32 32" style="enable-background:new 0 0 32 32;" xml:space="preserve">
<style type="text/css">
	.st0{fill:none;}
	.st1{fill:#952624;}
</style>
<rect class="st0" width="32" height="32"/>
<g>
	<path class="st1" d="M30.02,10.1l-0.52-0.01l-1.92-0.03l0.07-4.64c0.04-2.32-1.83-4.24-4.15-4.27l-0.07,0l-0.34,0
		c-0.22,0-0.4,0.17-0.4,0.39l-0.01,0.35l-0.02,1.08L2.89,2.65L2.46,2.65c-0.32,0-0.58,0.25-0.58,0.57L1.87,3.64L1.52,27.72
		l-0.01,0.42c0,0.32,0.25,0.58,0.57,0.58l0.43,0.01l19.77,0.29l-0.02,1.08l-0.01,0.34c0,0.22,0.17,0.4,0.39,0.4l0.34,0.01l0.07,0
		c2.32,0.03,4.24-1.82,4.27-4.15l0.07-4.65l1.92,0.03l0.52,0.01c0.26,0,0.48-0.21,0.49-0.47l0.01-0.52l0.15-10.01l0.01-0.52
		C30.5,10.32,30.28,10.1,30.02,10.1 M22.29,28.03L2.52,27.74L2.87,3.65l19.77,0.3L22.29,28.03z M26.58,10.05L26.4,22.06l-0.07,4.65
		c-0.03,1.71-1.39,3.09-3.07,3.16l0.01-0.81l0.39-26.08l0.01-0.81c1.68,0.12,3,1.54,2.97,3.25L26.58,10.05z M27.56,11.06l1.92,0.03
		L29.34,21.1l-1.92-0.03L27.56,11.06z"/>
	<g>
		<path class="st1" d="M18.81,15.24c-0.04,0-0.07-0.03-0.07-0.07v-2.77H18.1h-1.55H15.9v2.77c0,0.04-0.03,0.07-0.07,0.07
			c-0.87,0-1.58,0.71-1.58,1.57v7.68c0,0.38,0.31,0.7,0.7,0.7h1.59h1.55h1.59c0.38,0,0.7-0.31,0.7-0.7v-7.68
			C20.38,15.95,19.67,15.24,18.81,15.24 M19.88,24.49c0,0.11-0.09,0.2-0.2,0.2H18.1h-0.5h-0.55h-0.5h-1.59c-0.11,0-0.2-0.09-0.2-0.2
			v-7.68c0-0.59,0.48-1.07,1.08-1.07c0.31,0,0.57-0.25,0.57-0.57v-2.27h0.14h0.5h0.55h0.5h0.14v2.27c0,0.31,0.26,0.57,0.57,0.57
			c0.59,0,1.08,0.48,1.08,1.07V24.49z"/>
		<path class="st1" d="M11.45,15l-0.76-3.74c-0.13-0.65-0.2-1.31-0.2-1.96V7.53c0,0,0,0,0,0V6.81H9.92h0H9H8.94H7.45H6.88v0.57v0.15
			V9.3c0,0.66-0.07,1.32-0.2,1.96L5.92,15c-0.24,1.18-0.36,2.38-0.36,3.59v5.92c0,0.38,0.31,0.69,0.68,0.69h2.04h0.16h2.69
			c0.38,0,0.69-0.31,0.69-0.69v-5.92C11.82,17.38,11.69,16.18,11.45,15 M11.32,24.5c0,0.1-0.08,0.19-0.19,0.19H8.44H8.27H6.24
			c-0.1,0-0.18-0.08-0.18-0.19v-5.92c0-1.17,0.12-2.34,0.35-3.49l0.76-3.74c0.14-0.68,0.21-1.37,0.21-2.06V7.38
			c0-0.04,0.03-0.07,0.07-0.07h1.49h0.17h0.82c0.04,0,0.07,0.03,0.07,0.07V9.3c0,0.69,0.07,1.39,0.21,2.06l0.76,3.74
			c0.23,1.15,0.35,2.32,0.35,3.49V24.5z"/>
	</g>
</g>
</svg>
