<?xml version="1.0" encoding="utf-8"?>
<!-- Generator: Adobe Illustrator 23.0.2, SVG Export Plug-In . SVG Version: 6.00 Build 0)  -->
<svg version="1.1" id="Layer_1" xmlns="http://www.w3.org/2000/svg" xmlns:xlink="http://www.w3.org/1999/xlink" x="0px" y="0px"
	 width="32px" height="32px" viewBox="0 0 32 32" style="enable-background:new 0 0 32 32;" xml:space="preserve">
<style type="text/css">
	.st0{fill:none;}
	.st1{fill:#952624;}
</style>
<rect class="st0" width="32" height="32"/>
<g>
	<path class="st1" d="M31.24,21.89l-3.05-4.31c0.47-0.41,0.78-1.01,0.78-1.68c0-1.24-1.02-2.26-2.27-2.26
		c-0.48,0-0.92,0.15-1.29,0.4l-1.43-1.71c0.52-0.41,0.85-1.04,0.85-1.74c0-1.24-1.02-2.25-2.27-2.25c-1.25,0-2.28,1.01-2.28,2.25
		c0,0.25,0.05,0.48,0.13,0.71l-2.74,1.43l-0.53-0.91c-0.11-0.18-0.28-0.31-0.48-0.37c-0.21-0.06-0.42-0.03-0.61,0.08L1.12,20.07
		c-0.19,0.11-0.32,0.28-0.37,0.48c-0.05,0.21-0.03,0.42,0.08,0.6l1.24,2.13c0.11,0.18,0.28,0.31,0.48,0.37
		c0.07,0.02,0.14,0.03,0.21,0.03c0.14,0,0.27-0.03,0.4-0.11l14.92-8.54v0c0.19-0.1,0.32-0.28,0.37-0.48c0.06-0.2,0.03-0.42-0.08-0.6
		l-0.46-0.79l2.7-1.41c0.4,0.65,1.12,1.09,1.94,1.09c0.36,0,0.7-0.09,1-0.24l1.48,1.77c-0.38,0.4-0.61,0.94-0.61,1.53
		c0,1.24,1.02,2.25,2.28,2.25c0.4,0,0.76-0.11,1.09-0.29l3.05,4.32c0.05,0.07,0.13,0.11,0.2,0.11c0.05,0,0.1-0.02,0.14-0.05
		C31.29,22.16,31.32,22,31.24,21.89 M2.84,22.57l-1.01-1.73l14.52-8.31l1.01,1.73L2.84,22.57z M21.3,10.58
		c0-0.68,0.56-1.23,1.25-1.23s1.25,0.55,1.25,1.23c0,0.68-0.56,1.23-1.25,1.23S21.3,11.27,21.3,10.58 M25.45,15.9
		c0-0.68,0.56-1.24,1.25-1.24c0.69,0,1.25,0.55,1.25,1.24c0,0.68-0.56,1.24-1.25,1.24C26.01,17.13,25.45,16.58,25.45,15.9"/>
</g>
</svg>
