<?xml version="1.0" encoding="utf-8"?>
<!-- Generator: Adobe Illustrator 23.0.2, SVG Export Plug-In . SVG Version: 6.00 Build 0)  -->
<svg version="1.1" id="Layer_1" xmlns="http://www.w3.org/2000/svg" xmlns:xlink="http://www.w3.org/1999/xlink" x="0px" y="0px"
	 width="32px" height="32px" viewBox="0 0 32 32" style="enable-background:new 0 0 32 32;" xml:space="preserve">
<style type="text/css">
	.st0{fill:none;}
	.st1{fill:#952624;}
</style>
<rect class="st0" width="32" height="32"/>
<g>
	<path class="st1" d="M11.93,10.88c-0.15-2.92-2.56-5.24-5.51-5.24c-2.95,0-5.37,2.33-5.52,5.24c0,0.09-0.01,0.19-0.01,0.28v9.68
		c0,3.05,2.48,5.53,5.53,5.53h24.7V10.88H11.93z M1.89,11.16c0-2.5,2.03-4.53,4.53-4.53c2.5,0,4.53,2.03,4.53,4.53v6.52
		c-1-1.43-2.65-2.37-4.53-2.37c-1.87,0-3.53,0.94-4.53,2.37V11.16z M1.89,20.84c0-2.5,2.03-4.53,4.53-4.53
		c2.5,0,4.53,2.03,4.53,4.53s-2.03,4.53-4.53,4.53C3.92,25.37,1.89,23.34,1.89,20.84 M30.11,25.37H9.57c1.43-1,2.37-2.65,2.37-4.53
		v-8.96h18.17V25.37z"/>
	<path class="st1" d="M6.41,23.38c-1.4,0-2.54-1.14-2.54-2.54c0-1.4,1.14-2.54,2.54-2.54c1.4,0,2.54,1.14,2.54,2.54
		C8.95,22.24,7.81,23.38,6.41,23.38 M6.41,18.8c-1.12,0-2.04,0.91-2.04,2.04c0,1.12,0.91,2.04,2.04,2.04c1.12,0,2.04-0.91,2.04-2.04
		C8.45,19.72,7.54,18.8,6.41,18.8"/>
</g>
</svg>
