<?xml version="1.0" encoding="utf-8"?>
<!-- Generator: Adobe Illustrator 23.0.2, SVG Export Plug-In . SVG Version: 6.00 Build 0)  -->
<svg version="1.1" id="Layer_1" xmlns="http://www.w3.org/2000/svg" xmlns:xlink="http://www.w3.org/1999/xlink" x="0px" y="0px"
	 width="32px" height="32px" viewBox="0 0 32 32" style="enable-background:new 0 0 32 32;" xml:space="preserve">
<style type="text/css">
	.st0{fill:none;}
	.st1{fill:#952625;}
</style>
<rect y="0" class="st0" width="32" height="32"/>
<g>
	<path class="st1" d="M14.83,16.8c-0.04-0.38-0.12-0.95-0.31-1.64c-0.47-1.72-1.59-4.23-4.27-6.72V1.6c0-0.27-0.22-0.49-0.49-0.49
		S9.27,1.33,9.27,1.6v6.57H7.98H6.64V1.6c0-0.27-0.22-0.49-0.49-0.49S5.66,1.33,5.66,1.6v6.9c-2.64,2.46-3.75,4.95-4.21,6.66
		c-0.19,0.69-0.27,1.26-0.31,1.64c-0.01,0.18-0.03,0.36-0.03,0.55c0,0,0,0.01,0,0.01c0.01,3.93,3.09,7.12,6.87,7.12
		s6.87-3.19,6.87-7.12c0,0,0-0.01,0-0.01C14.85,17.16,14.84,16.98,14.83,16.8z M13.87,17.35c0,0.22-0.01,0.44-0.03,0.65H2.12
		c-0.02-0.21-0.03-0.43-0.03-0.65c0-0.11,0.01-0.22,0.02-0.33c0.01-0.14,0.03-0.27,0.05-0.41c0.02-0.14,0.05-0.31,0.08-0.49h11.5
		c0.04,0.18,0.06,0.34,0.08,0.49c0.01,0.14,0.04,0.27,0.05,0.41C13.86,17.13,13.87,17.24,13.87,17.35z M6.38,9.15h1.6h1.6
		c0.74,0.68,1.34,1.36,1.84,2.03c1.18,1.55,1.79,3.01,2.11,4.12c0.03,0.11,0.05,0.2,0.08,0.3H2.35c0.03-0.1,0.05-0.2,0.08-0.3
		c0.32-1.11,0.94-2.57,2.11-4.12C5.05,10.51,5.65,9.83,6.38,9.15z M7.98,23.5c-2.87,0-5.26-2.15-5.78-4.99h11.57
		C13.24,21.35,10.85,23.5,7.98,23.5z"/>
	<path class="st1" d="M30.87,23.21c-0.04-0.38-0.12-0.95-0.31-1.64c-0.47-1.72-1.59-4.23-4.27-6.72V8.01c0-0.27-0.22-0.49-0.49-0.49
		s-0.49,0.22-0.49,0.49v6.57h-1.29h-1.34V8.01c0-0.27-0.22-0.49-0.49-0.49s-0.49,0.22-0.49,0.49v6.9c-2.64,2.46-3.75,4.95-4.21,6.66
		c-0.19,0.69-0.27,1.26-0.31,1.64c-0.01,0.18-0.03,0.36-0.03,0.55c0,0,0,0.01,0,0.01c0.01,3.93,3.09,7.12,6.87,7.12
		s6.87-3.19,6.87-7.12c0,0,0-0.01,0-0.01C30.89,23.57,30.88,23.39,30.87,23.21z M29.91,23.76c0,0.22-0.01,0.44-0.03,0.65H18.16
		c-0.02-0.21-0.03-0.43-0.03-0.65c0-0.11,0.01-0.22,0.02-0.33c0.01-0.14,0.03-0.27,0.05-0.41c0.02-0.14,0.05-0.31,0.08-0.49h11.5
		c0.04,0.18,0.06,0.34,0.08,0.49c0.01,0.14,0.04,0.27,0.05,0.41C29.9,23.54,29.91,23.64,29.91,23.76z M22.42,15.56h1.6h1.6
		c0.74,0.68,1.34,1.36,1.84,2.03c1.18,1.55,1.79,3.01,2.11,4.12c0.03,0.11,0.05,0.2,0.08,0.3H18.39c0.03-0.1,0.05-0.2,0.08-0.3
		c0.32-1.11,0.94-2.57,2.11-4.12C21.08,16.92,21.69,16.24,22.42,15.56z M24.02,29.91c-2.87,0-5.26-2.15-5.78-4.99H29.8
		C29.28,27.76,26.89,29.91,24.02,29.91z"/>
</g>
</svg>
