<?xml version="1.0" encoding="utf-8"?>
<!-- Generator: Adobe Illustrator 23.0.2, SVG Export Plug-In . SVG Version: 6.00 Build 0)  -->
<svg version="1.1" id="Layer_1" xmlns="http://www.w3.org/2000/svg" xmlns:xlink="http://www.w3.org/1999/xlink" x="0px" y="0px"
	 width="32px" height="32px" viewBox="0 0 32 32" style="enable-background:new 0 0 32 32;" xml:space="preserve">
<style type="text/css">
	.st0{fill:none;}
	.st1{fill:#952624;}
</style>
<rect class="st0" width="32" height="32"/>
<g>
	<path class="st1" d="M17.37,4.45c-0.63-0.36-1.45,0.1-1.66,0.23l-9.06,7.14H2.6c-1.03,0-1.41,0.89-1.41,1.49V16v2.69
		c0,0.6,0.38,1.49,1.41,1.49h4.06l9.1,7.17c0.11,0.07,0.57,0.33,1.06,0.33c0.18,0,0.37-0.04,0.55-0.14
		c0.26-0.15,0.56-0.47,0.56-1.19V16V5.64C17.94,4.92,17.63,4.6,17.37,4.45 M16.94,26.35c0,0.25-0.05,0.32-0.05,0.32
		c-0.08,0.04-0.37-0.04-0.55-0.14l-9.33-7.35H2.6c-0.35,0-0.41-0.31-0.41-0.49V16v-2.69c0-0.11,0.03-0.49,0.41-0.49h4.41l9.28-7.32
		c0.23-0.13,0.53-0.21,0.59-0.18c0,0,0.06,0.07,0.06,0.32V16V26.35z"/>
	<path class="st1" d="M20.48,10.9c-0.07-0.06-0.16-0.09-0.25-0.09c-0.11,0-0.21,0.04-0.28,0.13c-0.13,0.16-0.12,0.39,0.04,0.53
		c0.02,0.02,2.13,1.91,2.22,4.53c0.06,1.66-0.7,3.28-2.24,4.82c-0.14,0.15-0.14,0.39,0,0.53c0.14,0.14,0.39,0.14,0.53,0
		c1.69-1.69,2.52-3.5,2.46-5.38C22.85,13.03,20.58,10.99,20.48,10.9"/>
	<path class="st1" d="M23.18,7.53L23.18,7.53c-0.07-0.07-0.16-0.1-0.26-0.1h-0.01c-0.1,0-0.2,0.04-0.27,0.12
		c-0.14,0.15-0.14,0.39,0.01,0.53c0.32,0.31,7.75,7.65-0.02,16.14c-0.14,0.15-0.13,0.39,0.02,0.53c0.15,0.13,0.39,0.12,0.53-0.02
		C31.52,15.62,23.27,7.61,23.18,7.53"/>
	<path class="st1" d="M25.78,5.35c-0.07-0.06-0.16-0.09-0.25-0.09c-0.01,0-0.02,0-0.02,0c-0.1,0.01-0.19,0.05-0.25,0.13
		c-0.07,0.07-0.1,0.17-0.09,0.27c0.01,0.1,0.05,0.19,0.13,0.26c0.05,0.04,4.58,4.15,4.77,9.91c0.12,3.65-1.49,7.2-4.79,10.55
		c-0.07,0.07-0.11,0.17-0.11,0.27c0,0.1,0.04,0.19,0.11,0.27c0.14,0.14,0.39,0.14,0.53-0.01c3.45-3.51,5.14-7.24,5.01-11.1
		C30.6,9.7,25.98,5.53,25.78,5.35"/>
</g>
</svg>
