<?xml version="1.0" encoding="utf-8"?>
<!-- Generator: Adobe Illustrator 23.0.2, SVG Export Plug-In . SVG Version: 6.00 Build 0)  -->
<svg version="1.1" id="Layer_1" xmlns="http://www.w3.org/2000/svg" xmlns:xlink="http://www.w3.org/1999/xlink" x="0px" y="0px"
	 width="32px" height="32px" viewBox="0 0 32 32" style="enable-background:new 0 0 32 32;" xml:space="preserve">
<style type="text/css">
	.st0{fill:none;}
	.st1{fill:#952624;}
</style>
<rect class="st0" width="32" height="32"/>
<g>
	<path class="st1" d="M29.79,28.36c1.2-1.49,1.65-3.42,1.23-5.29c-0.42-1.87-1.64-3.42-3.36-4.27c-1.72-0.84-3.7-0.86-5.43-0.05
		L3.41,27.57l10.05-12.77V3.99c0-0.28-0.22-0.5-0.5-0.5c-0.28,0-0.5,0.22-0.5,0.5v10.47L2.81,26.73l5.24-14.95L4.5,1.62
		c-0.09-0.26-0.38-0.4-0.64-0.31C3.6,1.41,3.46,1.69,3.55,1.95l3.43,9.82L1.29,27.9l-0.36,1.15c-0.02,0.05-0.04,0.11-0.05,0.17
		l-0.02,0.07c0,0.01,0,0.01,0,0.02c0,0.02-0.01,0.03-0.01,0.05c-0.05,0.34,0.06,0.7,0.28,0.96c0.22,0.25,0.54,0.4,0.89,0.4h22.89
		C26.81,30.71,28.59,29.86,29.79,28.36 M2.01,29.71c-0.08,0-0.11-0.03-0.13-0.05c-0.03-0.04-0.05-0.09-0.04-0.15l0.01-0.03
		c0.01-0.04,0.03-0.08,0.08-0.1l0,0h0l20.72-9.72c0.71-0.34,1.48-0.5,2.24-0.5c0.8,0,1.59,0.18,2.33,0.54
		c1.44,0.71,2.48,2.02,2.83,3.59c0.35,1.57-0.03,3.19-1.03,4.45c-1.01,1.26-2.51,1.98-4.12,1.98H2.01z"/>
	<path class="st1" d="M25.13,26.59c1.19,0,2.15-0.97,2.15-2.16c0-1.19-0.97-2.15-2.15-2.15c-1.19,0-2.15,0.97-2.15,2.15
		C22.97,25.62,23.94,26.59,25.13,26.59 M25.13,22.78c0.91,0,1.65,0.74,1.65,1.65c0,0.91-0.74,1.66-1.65,1.66
		c-0.91,0-1.65-0.74-1.65-1.66C23.47,23.52,24.21,22.78,25.13,22.78"/>
</g>
</svg>
