<?xml version="1.0" encoding="utf-8"?>
<!-- Generator: Adobe Illustrator 23.0.2, SVG Export Plug-In . SVG Version: 6.00 Build 0)  -->
<svg version="1.1" id="Layer_1" xmlns="http://www.w3.org/2000/svg" xmlns:xlink="http://www.w3.org/1999/xlink" x="0px" y="0px"
	 width="32px" height="32px" viewBox="0 0 32 32" style="enable-background:new 0 0 32 32;" xml:space="preserve">
<style type="text/css">
	.st0{fill:none;}
	.st1{fill:#952624;}
</style>
<rect class="st0" width="32" height="32"/>
<path class="st1" d="M27.53,10.99h-1.79V5.06c0-2.28-1.95-2.96-3-3H20.7V1.38c-0.01-0.31-0.26-0.56-0.57-0.57h-4.62
	c-0.3,0.01-0.54,0.25-0.55,0.55v0.7H9.14C8.85,2.08,8.63,2.31,8.6,2.59v1.8H7.32c-0.3,0.02-0.53,0.25-0.54,0.55v4.49
	c0.01,0.3,0.25,0.54,0.55,0.55h3.48c0.3-0.01,0.55-0.25,0.56-0.56V4.96C11.36,4.65,11.11,4.4,10.8,4.4H9.6V3.07h5.36v15.68H4.99H4.6
	c-0.24,0.02-0.7,0.19-0.7,1.08v0.2v10.17c0,0.55,0.45,1,1,1V19.74h11.06V1.81h3.74v29.37c0.55,0,1-0.45,1-1V3.07l2.02,0
	c0.08,0,2.02,0.1,2.02,2v5.92h-1.69c-0.31,0.01-0.55,0.26-0.56,0.57v7.48c0,0.31,0.24,0.56,0.54,0.58h4.49
	c0.31,0,0.56-0.25,0.58-0.56v-7.49C28.09,11.25,27.84,11,27.53,10.99 M10.37,8.99H7.77V5.4h2.59V8.99z M27.09,18.61h-3.6v-6.62h3.6
	V18.61z"/>
</svg>
