<?xml version="1.0" encoding="utf-8"?>
<!-- Generator: Adobe Illustrator 23.0.2, SVG Export Plug-In . SVG Version: 6.00 Build 0)  -->
<svg version="1.1" id="Layer_1" xmlns="http://www.w3.org/2000/svg" xmlns:xlink="http://www.w3.org/1999/xlink" x="0px" y="0px"
	 width="32px" height="32px" viewBox="0 0 32 32" style="enable-background:new 0 0 32 32;" xml:space="preserve">
<style type="text/css">
	.st0{fill:none;}
	.st1{fill:#952524;}
</style>
<g>
	<rect y="0" class="st0" width="32" height="32"/>
</g>
<g>
	<path class="st1" d="M9.42,8.5h0.06h3.9c1.14,0,2.07-0.93,2.07-2.07V6.16c0-1.14-0.93-2.07-2.07-2.07h-0.15
		c0.21-0.33,0.32-0.7,0.32-1.09V2.74c0-1.14-0.93-2.07-2.07-2.07H4.31c-1.14,0-2.07,0.93-2.07,2.07V3c0,0.39,0.11,0.76,0.32,1.09
		H2.41c-1.14,0-2.07,0.93-2.07,2.07v0.26c0,1.14,0.93,2.07,2.07,2.07h3.9h0.06h0.2v8.51h-0.2H6.31h-3.9c-1.14,0-2.07,0.93-2.07,2.07
		v0.26c0,1.14,0.93,2.07,2.07,2.07h0.15c-0.21,0.33-0.32,0.7-0.32,1.09v0.26c0,1.14,0.93,2.07,2.07,2.07h7.15
		c1.14,0,2.07-0.93,2.07-2.07V22.5c0-0.39-0.11-0.76-0.32-1.09h0.15c1.14,0,2.07-0.93,2.07-2.07v-0.26c0-1.14-0.93-2.07-2.07-2.07
		h-3.9H9.42h-0.2V8.5H9.42z M3.22,2.74c0-0.6,0.49-1.09,1.09-1.09h7.15c0.6,0,1.09,0.49,1.09,1.09V3c0,0.6-0.49,1.09-1.09,1.09H4.31
		C3.71,4.09,3.22,3.6,3.22,3V2.74z M2.41,7.51c-0.6,0-1.09-0.49-1.09-1.09V6.16c0-0.6,0.49-1.09,1.09-1.09h10.96
		c0.6,0,1.09,0.49,1.09,1.09v0.26c0,0.6-0.49,1.09-1.09,1.09H2.41z M8.69,17.01H8.44H7.35H7.09V8.5h0.26h1.09h0.26V17.01z
		 M12.56,22.76c0,0.6-0.49,1.09-1.09,1.09H4.31c-0.6,0-1.09-0.49-1.09-1.09V22.5c0-0.6,0.49-1.09,1.09-1.09h7.15
		c0.6,0,1.09,0.49,1.09,1.09V22.76z M13.37,17.99c0.6,0,1.09,0.49,1.09,1.09v0.26c0,0.6-0.49,1.09-1.09,1.09H2.41
		c-0.6,0-1.09-0.49-1.09-1.09v-0.26c0-0.6,0.49-1.09,1.09-1.09H13.37z"/>
	<path class="st1" d="M25.63,14.99h0.06h3.9c1.14,0,2.07-0.93,2.07-2.07v-0.26c0-1.14-0.93-2.07-2.07-2.07h-0.15
		c0.21-0.33,0.32-0.7,0.32-1.09V9.23c0-1.14-0.93-2.07-2.07-2.07h-7.15c-1.14,0-2.07,0.93-2.07,2.07V9.5c0,0.39,0.11,0.76,0.32,1.09
		h-0.15c-1.14,0-2.07,0.93-2.07,2.07v0.26c0,1.14,0.93,2.07,2.07,2.07h3.9h0.06h0.2v8.51h-0.2h-0.06h-3.9
		c-1.14,0-2.07,0.93-2.07,2.07v0.26c0,1.14,0.93,2.07,2.07,2.07h0.15c-0.21,0.33-0.32,0.7-0.32,1.09v0.26
		c0,1.14,0.93,2.07,2.07,2.07h7.15c1.14,0,2.07-0.93,2.07-2.07V29c0-0.39-0.11-0.76-0.32-1.09h0.15c1.14,0,2.07-0.93,2.07-2.07
		v-0.26c0-1.14-0.93-2.07-2.07-2.07h-3.9h-0.06h-0.2v-8.51H25.63z M19.44,9.23c0-0.6,0.49-1.09,1.09-1.09h7.15
		c0.6,0,1.09,0.49,1.09,1.09V9.5c0,0.6-0.49,1.09-1.09,1.09h-7.15c-0.6,0-1.09-0.49-1.09-1.09V9.23z M18.63,14.01
		c-0.6,0-1.09-0.49-1.09-1.09v-0.26c0-0.6,0.49-1.09,1.09-1.09h10.96c0.6,0,1.09,0.49,1.09,1.09v0.26c0,0.6-0.49,1.09-1.09,1.09
		H18.63z M24.91,23.5h-0.26h-1.09h-0.26v-8.51h0.26h1.09h0.26V23.5z M28.78,29.26c0,0.6-0.49,1.09-1.09,1.09h-7.15
		c-0.6,0-1.09-0.49-1.09-1.09V29c0-0.6,0.49-1.09,1.09-1.09h7.15c0.6,0,1.09,0.49,1.09,1.09V29.26z M29.59,24.48
		c0.6,0,1.09,0.49,1.09,1.09v0.26c0,0.6-0.49,1.09-1.09,1.09H18.63c-0.6,0-1.09-0.49-1.09-1.09v-0.26c0-0.6,0.49-1.09,1.09-1.09
		H29.59z"/>
</g>
</svg>
