<?xml version="1.0" encoding="utf-8"?>
<!-- Generator: Adobe Illustrator 23.0.2, SVG Export Plug-In . SVG Version: 6.00 Build 0)  -->
<svg version="1.1" id="Layer_1" xmlns="http://www.w3.org/2000/svg" xmlns:xlink="http://www.w3.org/1999/xlink" x="0px" y="0px"
	 width="32px" height="32px" viewBox="0 0 32 32" style="enable-background:new 0 0 32 32;" xml:space="preserve">
<style type="text/css">
	.st0{fill:none;}
	.st1{fill:#952624;}
</style>
<rect class="st0" width="32" height="32"/>
<g>
	<path class="st1" d="M25.65,7.89l0.71-0.87l0.81,0.66c0.1,0.08,0.22,0.12,0.35,0.11c0.13-0.01,0.24-0.07,0.32-0.17
		c0.08-0.1,0.12-0.22,0.11-0.35c-0.01-0.13-0.07-0.24-0.17-0.32l-2.35-1.92c-0.21-0.17-0.5-0.13-0.67,0.07
		c-0.17,0.2-0.14,0.5,0.07,0.67l0.81,0.66l-0.67,0.82C22.6,5.19,19.59,4,16.47,3.9V1.76h1.89c0.26,0,0.48-0.21,0.48-0.48
		c0-0.26-0.21-0.48-0.48-0.48h-4.73c-0.26,0-0.47,0.21-0.47,0.48c0,0.26,0.21,0.48,0.47,0.48h1.89V3.9C12,4.02,8.69,5.48,6.22,8.02
		c-2.5,2.57-3.87,5.94-3.87,9.51c0,7.53,6.13,13.65,13.65,13.65c7.53,0,13.65-6.13,13.65-13.65C29.65,13.9,28.23,10.48,25.65,7.89
		 M28.7,17.53c0,7-5.7,12.7-12.7,12.7c-7,0-12.7-5.7-12.7-12.7c0-7,5.7-12.7,12.7-12.7C23,4.83,28.7,10.53,28.7,17.53"/>
	<path class="st1" d="M17.62,18.63c0.19-0.3,0.28-0.65,0.28-1c0-1.05-0.85-1.91-1.91-1.91c-1.05,0-1.9,0.85-1.9,1.91
		c0,1.05,0.85,1.9,1.9,1.9c0.31,0,0.62-0.08,0.89-0.22l3.37,3.37c0.1,0.1,0.22,0.15,0.35,0.15c0.13,0,0.25-0.05,0.35-0.15
		c0.19-0.2,0.19-0.51,0-0.71L17.62,18.63z"/>
</g>
</svg>
