<?xml version="1.0" encoding="utf-8"?>
<!-- Generator: Adobe Illustrator 23.0.2, SVG Export Plug-In . SVG Version: 6.00 Build 0)  -->
<svg version="1.1" id="Layer_1" xmlns="http://www.w3.org/2000/svg" xmlns:xlink="http://www.w3.org/1999/xlink" x="0px" y="0px"
	 width="32px" height="32px" viewBox="0 0 32 32" style="enable-background:new 0 0 32 32;" xml:space="preserve">
<style type="text/css">
	.st0{fill:none;}
	.st1{fill:#952624;}
</style>
<rect class="st0" width="32" height="32"/>
<g>
	<line class="st1" x1="16.42" y1="27.46" x2="18.06" y2="29.11"/>
	<path class="st1" d="M18.07,29.65c-0.14,0-0.28-0.05-0.38-0.16l-1.65-1.65c-0.21-0.21-0.21-0.56,0-0.77c0.21-0.21,0.56-0.21,0.77,0
		l1.65,1.65c0.21,0.21,0.21,0.56,0,0.77C18.34,29.6,18.21,29.65,18.07,29.65"/>
	<line class="st1" x1="19.43" y1="26.12" x2="22.08" y2="28.77"/>
	<path class="st1" d="M22.08,29.32c-0.14,0-0.28-0.05-0.38-0.16l-2.65-2.65c-0.21-0.21-0.21-0.56,0-0.77c0.21-0.21,0.56-0.21,0.77,0
		l2.65,2.65c0.21,0.21,0.21,0.56,0,0.77C22.36,29.26,22.22,29.32,22.08,29.32"/>
	<line class="st1" x1="20.74" y1="23.15" x2="22.39" y2="24.79"/>
	<path class="st1" d="M22.39,25.34c-0.14,0-0.28-0.05-0.39-0.16l-1.65-1.65c-0.21-0.21-0.21-0.56,0-0.77c0.21-0.21,0.56-0.21,0.77,0
		l1.65,1.65c0.21,0.21,0.21,0.56,0,0.77C22.67,25.28,22.53,25.34,22.39,25.34"/>
	<line class="st1" x1="23.75" y1="21.81" x2="26.4" y2="24.46"/>
	<path class="st1" d="M26.4,25c-0.14,0-0.28-0.05-0.38-0.16l-2.65-2.65c-0.21-0.21-0.21-0.56,0-0.77c0.21-0.21,0.56-0.21,0.77,0
		l2.65,2.65c0.21,0.21,0.21,0.56,0,0.77C26.68,24.95,26.54,25,26.4,25"/>
	<line class="st1" x1="25.07" y1="18.74" x2="26.72" y2="20.38"/>
	<path class="st1" d="M26.72,20.93c-0.14,0-0.28-0.05-0.39-0.16l-1.65-1.65c-0.21-0.21-0.21-0.56,0-0.77c0.21-0.21,0.56-0.21,0.77,0
		L27.11,20c0.21,0.21,0.21,0.56,0,0.77C27,20.87,26.86,20.93,26.72,20.93"/>
	<line class="st1" x1="29.45" y1="14.46" x2="31.1" y2="16.11"/>
	<path class="st1" d="M31.1,16.65c-0.14,0-0.28-0.05-0.39-0.16l-1.65-1.65c-0.21-0.21-0.21-0.56,0-0.77c0.21-0.21,0.56-0.21,0.77,0
		l1.65,1.65c0.21,0.21,0.21,0.56,0,0.77C31.37,16.6,31.24,16.65,31.1,16.65"/>
	<line class="st1" x1="28.08" y1="17.39" x2="30.73" y2="20.05"/>
	<path class="st1" d="M30.73,20.59c-0.14,0-0.28-0.05-0.38-0.16l-2.65-2.65c-0.21-0.21-0.21-0.56,0-0.77c0.21-0.21,0.56-0.21,0.77,0
		l2.65,2.65c0.21,0.21,0.21,0.56,0,0.77C31.01,20.54,30.87,20.59,30.73,20.59"/>
	<path class="st1" d="M29.01,10.97l-1.6-1.6c-4.12-4.12-10.66-4.4-15.11-0.84L8.11,4.34L8.09,4.35L6.73,3.07
		C6.62,2.95,5.97,2.35,4.21,2.35H1.45H0.9c-0.3,0-0.54,0.24-0.54,0.54c0,0.3,0.24,0.54,0.54,0.54h0.54h2.76
		c1.3,0,1.73,0.38,1.75,0.4l1.37,1.29l0.78,0.76l3.38,3.38c0.8,0.68,1.41,0.19,1.41,0.19c1.88-1.54,4.18-2.3,6.49-2.3
		c2.63,0,5.26,1,7.26,3l1.6,1.6c0.17,0.17,0.17,0.44,0,0.6L14.33,26.25c-0.16,0.16-0.44,0.16-0.6,0l-1.6-1.6
		c-1.94-1.94-3.01-4.52-3.01-7.26c0-1.96,0.55-3.83,1.57-5.44c0.3-0.8-0.25-1.3-0.25-1.3l-0.1-0.1L6.89,7.1L6.08,6.37l-0.53-0.5
		C5.44,5.75,4.79,5.15,3.03,5.15H1.45H0.9c-0.3,0-0.54,0.24-0.54,0.54c0,0.3,0.24,0.54,0.54,0.54h0.54h1.59
		c1.3,0,1.73,0.38,1.75,0.4L6.56,8.3l0,0l3.12,3.12c0.01,0.02,0.03,0.02,0.05,0.04c-1.09,1.77-1.69,3.81-1.69,5.94
		c0,3.03,1.18,5.88,3.32,8.02l1.6,1.6c0.29,0.29,0.66,0.44,1.07,0.44s0.78-0.16,1.07-0.44l13.91-13.91
		C29.6,12.52,29.6,11.56,29.01,10.97"/>
</g>
</svg>
