<?xml version="1.0" encoding="utf-8"?>
<!-- Generator: Adobe Illustrator 23.0.2, SVG Export Plug-In . SVG Version: 6.00 Build 0)  -->
<svg version="1.1" id="Layer_1" xmlns="http://www.w3.org/2000/svg" xmlns:xlink="http://www.w3.org/1999/xlink" x="0px" y="0px"
	 width="32px" height="32px" viewBox="0 0 32 32" style="enable-background:new 0 0 32 32;" xml:space="preserve">
<style type="text/css">
	.st0{fill:none;}
	.st1{fill:#952524;}
</style>
<g>
	<rect y="0" class="st0" width="32" height="32"/>
</g>
<g>
	<path class="st1" d="M23.65,8.91c1.73,0,3.15-1.41,3.15-3.15c0-1.74-1.41-3.15-3.15-3.15c-1.74,0-3.15,1.41-3.15,3.15
		C20.5,7.5,21.91,8.91,23.65,8.91z M21.43,5.77c0-1.22,1-2.22,2.22-2.22c1.22,0,2.22,1,2.22,2.22c0,1.22-0.99,2.22-2.22,2.22
		C22.43,7.98,21.43,6.99,21.43,5.77z"/>
	<path class="st1" d="M16.11,28.64c0.08,0.02,0.16,0.02,0.25,0.03c0.07,0.01,0.14,0.02,0.21,0.03c0.03,0,0.07,0.01,0.1,0.01
		c0.06,0,0.12-0.02,0.18-0.02c0.07-0.01,0.14-0.01,0.21-0.03c0.09-0.02,0.18-0.04,0.27-0.07c0.07-0.02,0.14-0.06,0.21-0.09
		c0.07-0.03,0.14-0.05,0.21-0.09c0.5-0.29,0.85-0.77,0.99-1.33l1.07-4.39h4.56c0.72,0,1.4-0.31,1.87-0.84
		c0.47-0.54,0.69-1.25,0.61-1.96l-1.06-8.74c-0.14-1.12-1.09-1.96-2.22-1.96c-0.07,0-0.14,0-0.21,0.01
		c-0.66,0.06-1.26,0.39-1.68,0.9c-0.42,0.52-0.61,1.17-0.53,1.83l0.66,5.76l-3.91,0.09c-1.11,0.02-2.03,0.8-2.26,1.88l-1.28,6.15
		C14.12,27.06,14.88,28.3,16.11,28.64z M15.28,26l1.28-6.15c0.14-0.65,0.7-1.12,1.37-1.14l4.92-0.11h0.01l-0.77-6.77
		c-0.05-0.41,0.07-0.82,0.33-1.14c0.26-0.32,0.63-0.52,1.04-0.56c0.04-0.01,0.09-0.01,0.13-0.01c0.67,0,1.21,0.48,1.29,1.14
		l1.06,8.74c0.05,0.44-0.09,0.89-0.38,1.23c-0.3,0.33-0.73,0.53-1.17,0.53h-5.29l-1.25,5.1c-0.08,0.32-0.28,0.58-0.56,0.75
		c-0.28,0.17-0.61,0.21-0.93,0.13C15.6,27.54,15.12,26.77,15.28,26z M16.82,27.78c0.01,0,0.02,0,0.03,0
		C16.84,27.77,16.83,27.78,16.82,27.78z"/>
	<path class="st1" d="M30.95,17.79h-2.01c-0.3,0-0.54,0.24-0.54,0.54v5.56h-5.1c-0.29,0-0.52,0.23-0.52,0.52v5.56H13.3
		c-0.27,0-0.49,0.22-0.49,0.49c0,0.27,0.22,0.49,0.49,0.49h10.45v-6.08h5.1c0.28,0,0.51-0.23,0.51-0.51v-5.58h1.57
		c0.27,0,0.49-0.22,0.49-0.49C31.44,18.01,31.22,17.79,30.95,17.79z"/>
	<path class="st1" d="M2.13,18.95c-0.75-0.98-0.78-2.32-0.07-3.34l0.81-1.16c0.77-1.1,0.78-2.59,0.02-3.71L2,9.47
		C1.5,8.73,1.44,7.77,1.86,6.98l0.39-0.72c0.13-0.24,0.04-0.54-0.2-0.66C1.93,5.54,1.8,5.52,1.68,5.56C1.55,5.6,1.45,5.68,1.39,5.8
		L1.12,6.3c-0.67,1.25-0.59,2.76,0.22,3.93l0.74,1.07c0.53,0.78,0.53,1.82-0.01,2.59l-0.81,1.16c-0.95,1.37-0.91,3.17,0.1,4.49
		l0.72,0.94c0.6,0.79,0.63,1.87,0.07,2.69L1.8,23.66c-0.07,0.11-0.1,0.24-0.08,0.37c0.02,0.13,0.09,0.24,0.2,0.31l0,0
		c0.08,0.06,0.18,0.08,0.28,0.08c0.16,0,0.32-0.08,0.41-0.21l0.34-0.49c0.8-1.17,0.76-2.71-0.1-3.84L2.13,18.95z"/>
	<path class="st1" d="M6.91,18.9c-0.54-0.77-0.54-1.81-0.01-2.59l0.88-1.28c0.72-1.04,0.79-2.39,0.19-3.51l-0.38-0.72
		c-0.06-0.11-0.17-0.2-0.29-0.24c-0.12-0.04-0.26-0.03-0.37,0.04c-0.12,0.06-0.2,0.17-0.24,0.29c-0.04,0.13-0.03,0.26,0.04,0.37
		l0.38,0.72c0.42,0.79,0.37,1.75-0.14,2.49l-0.88,1.27c-0.76,1.11-0.76,2.6,0.02,3.71l0.81,1.16c0.71,1.02,0.68,2.36-0.07,3.34
		L6.12,24.9c-0.86,1.13-0.9,2.67-0.1,3.84l0.34,0.49c0.07,0.11,0.19,0.18,0.31,0.2c0.03,0.01,0.06,0.01,0.09,0.01
		c0.1,0,0.2-0.03,0.28-0.09c0.22-0.15,0.28-0.46,0.13-0.68l-0.34-0.49c-0.56-0.82-0.54-1.9,0.07-2.69l0.72-0.94
		c1.01-1.32,1.05-3.13,0.1-4.49L6.91,18.9z"/>
	<path class="st1" d="M12.44,15.29c1.12-1.46,1.17-3.46,0.11-4.97l-0.48-0.69c-0.64-0.91-0.64-2.14-0.01-3.05l0.58-0.84
		c0.8-1.17,0.89-2.67,0.22-3.93l-0.27-0.5c-0.13-0.24-0.42-0.33-0.66-0.2c-0.11,0.06-0.2,0.16-0.24,0.29
		c-0.04,0.13-0.02,0.26,0.04,0.37l0.27,0.5c0.5,0.93,0.43,2.05-0.16,2.91l-0.58,0.84c-0.86,1.25-0.85,2.93,0.02,4.17l0.48,0.68
		c0.81,1.16,0.78,2.69-0.08,3.82l-0.36,0.47c-0.97,1.27-1.02,3-0.11,4.31l0.17,0.25c0.07,0.11,0.19,0.18,0.31,0.2
		c0.03,0.01,0.06,0.01,0.09,0.01c0.1,0,0.19-0.03,0.28-0.09c0.11-0.07,0.18-0.19,0.2-0.31c0.02-0.13,0-0.26-0.08-0.37L12,18.93
		c-0.66-0.96-0.63-2.24,0.08-3.17L12.44,15.29z M12.39,1.14C12.39,1.14,12.39,1.14,12.39,1.14C12.39,1.14,12.39,1.14,12.39,1.14z"/>
</g>
</svg>
