<?xml version="1.0" encoding="utf-8"?>
<!-- Generator: Adobe Illustrator 23.0.2, SVG Export Plug-In . SVG Version: 6.00 Build 0)  -->
<svg version="1.1" id="Layer_1" xmlns="http://www.w3.org/2000/svg" xmlns:xlink="http://www.w3.org/1999/xlink" x="0px" y="0px"
	 width="32px" height="32px" viewBox="0 0 32 32" style="enable-background:new 0 0 32 32;" xml:space="preserve">
<style type="text/css">
	.st0{fill:none;}
	.st1{fill:#952624;}
</style>
<rect class="st0" width="32" height="32"/>
<path class="st1" d="M30.26,15.37c-0.25-0.36-0.62-0.62-0.83-0.75l-0.07-0.03c-0.04-0.02-0.08-0.04-0.12-0.06
	c-2.84-1.25-5.56-1.23-7.66-0.86c2.74-1.86,4.15-4.14,4.85-5.96l0.05-0.12c0.15-0.5,0.18-0.93,0.1-1.27
	c-0.13-0.54-0.44-0.76-0.95-0.85c-0.43-0.08-0.87,0-1.11,0.06l-0.08,0.03c-0.04,0.01-0.08,0.03-0.11,0.04
	c-2.9,1.12-4.8,3.05-6.02,4.78c0.62-3.25,0-5.85-0.78-7.63l-0.05-0.12c-0.25-0.46-0.53-0.79-0.83-0.97
	c-0.48-0.29-0.85-0.23-1.28,0.07c-0.36,0.25-0.62,0.62-0.75,0.83l-0.04,0.08c-0.02,0.04-0.04,0.07-0.05,0.11
	c-1.24,2.8-1.24,5.47-0.89,7.55c-1.22-1.71-3.11-3.59-5.97-4.71C7.63,5.58,7.59,5.57,7.55,5.56L7.46,5.53
	c-0.22-0.05-0.67-0.13-1.1-0.06C6.07,5.52,5.85,5.63,5.68,5.79c-0.13,0.13-0.21,0.3-0.27,0.53C5.33,6.67,5.36,7.09,5.51,7.6
	l0.04,0.11c0.51,1.3,1.37,2.84,2.82,4.29c0.57,0.57,1.24,1.13,2.01,1.65c-2.08-0.37-4.78-0.37-7.63,0.88
	c-0.04,0.02-0.08,0.04-0.12,0.05l-0.08,0.04c-0.2,0.12-0.57,0.38-0.82,0.74c-0.17,0.24-0.25,0.47-0.25,0.71
	c0,0.18,0.06,0.36,0.18,0.57c0.18,0.3,0.51,0.58,0.98,0.83l0.11,0.05c1.28,0.56,2.98,1.04,5.03,1.04c0.81,0,1.68-0.08,2.6-0.26
	c-1.74,1.22-3.66,3.12-4.79,6.02c-0.01,0.04-0.03,0.07-0.04,0.11l-0.03,0.1c-0.05,0.23-0.13,0.67-0.05,1.1
	c0.05,0.29,0.16,0.51,0.32,0.68c0.13,0.13,0.3,0.21,0.53,0.27c0.34,0.09,0.77,0.05,1.28-0.1l0.11-0.04h0
	c1.81-0.71,4.09-2.11,5.95-4.84c-0.37,2.09-0.38,4.8,0.87,7.65c0.01,0.04,0.03,0.07,0.05,0.11l0.04,0.09
	c0.12,0.2,0.38,0.57,0.74,0.82c0.24,0.17,0.47,0.25,0.71,0.25c0.17,0,0.36-0.06,0.57-0.18c0.3-0.18,0.58-0.51,0.83-0.97l0.05-0.11
	l0,0c0.79-1.8,1.41-4.43,0.77-7.71c0.54,0.8,1.12,1.5,1.71,2.09c1.45,1.45,2.99,2.31,4.29,2.82l0.12,0.05
	c0.5,0.15,0.93,0.18,1.27,0.1c0.23-0.06,0.4-0.15,0.53-0.27c0.17-0.17,0.27-0.39,0.32-0.68c0.08-0.43,0-0.88-0.06-1.11l-0.03-0.08
	c-0.01-0.04-0.03-0.08-0.04-0.12c-1.13-2.9-3.06-4.8-4.8-6.02c0.92,0.18,1.8,0.26,2.62,0.26c2.06,0,3.75-0.48,5.03-1.04l0.12-0.05
	c0.46-0.25,0.79-0.53,0.97-0.83c0.13-0.21,0.18-0.39,0.18-0.57C30.51,15.84,30.43,15.61,30.26,15.37 M29.15,17.01
	c-2,0.9-5.05,1.59-8.94,0.43c-0.75-0.23-1.54-0.51-2.35-0.89l-0.11-0.05l-0.03,0.06l-0.17,0.41l0.1,0.05
	c0.81,0.37,1.59,0.66,2.34,0.89c1.95,1.07,4.65,3.14,6,6.77c0.1,0.45,0.13,1.02-0.13,1.28c-0.22,0.22-0.65,0.23-1.27,0.05
	c-2.09-0.79-4.81-2.52-6.75-6.26c-0.22-0.68-0.48-1.38-0.82-2.11l-0.05-0.1l-0.25,0.11l-0.22,0.09l0.05,0.11
	c0.33,0.72,0.6,1.42,0.81,2.09c1.27,4.02,0.57,7.17-0.34,9.2c-0.31,0.57-0.63,0.87-0.94,0.87c-0.36,0-0.75-0.42-0.99-0.8
	c-1.62-3.54-1.2-6.87-0.59-8.99c0.41-1.44,0.91-2.33,0.92-2.35l0.06-0.1l-0.31-0.17l-0.14-0.07l-0.05,0.1
	c-0.01,0.02-0.51,0.93-0.94,2.38c-1.93,3.56-4.58,5.23-6.61,6c-0.62,0.18-1.06,0.17-1.28-0.05c-0.26-0.26-0.24-0.83-0.14-1.27
	C7.36,21.05,10,19,11.93,17.93c0.78-0.23,1.58-0.53,2.42-0.92l0.1-0.05l-0.18-0.44l-0.02-0.03l-0.11,0.05
	c-0.83,0.38-1.62,0.67-2.39,0.9c-3.88,1.15-6.92,0.46-8.9-0.43c-0.58-0.31-0.87-0.63-0.87-0.94c0-0.36,0.42-0.75,0.8-0.99
	c3.53-1.62,6.85-1.2,8.98-0.59c1.44,0.41,2.34,0.91,2.36,0.92l0.11,0.06l0.16-0.3l0.08-0.15l-0.1-0.06
	c-0.02-0.01-0.94-0.52-2.41-0.95c-3.54-1.93-5.2-4.56-5.97-6.59C5.81,6.8,5.82,6.37,6.04,6.15C6.3,5.89,6.87,5.91,7.31,6.01
	c3.51,1.3,5.54,3.81,6.65,5.72c0.44,1.61,1,2.62,1.02,2.65l0.05,0.1l0.28-0.15l0.17-0.09l-0.06-0.1c-0.01-0.02-0.57-1.02-1-2.62
	c-0.57-2.13-0.89-5.33,0.65-8.71c0.25-0.39,0.64-0.81,1-0.81c0.3,0,0.63,0.3,0.93,0.86c0.89,1.99,1.58,5.03,0.44,8.91
	c-0.23,0.77-0.52,1.56-0.9,2.39l-0.05,0.11l0.05,0.02l0.42,0.18l0.05-0.1c0.39-0.84,0.68-1.64,0.91-2.41
	c1.07-1.93,3.12-4.58,6.75-5.93c0.45-0.1,1.02-0.12,1.28,0.13c0.22,0.21,0.23,0.66,0.05,1.27c-0.78,2.04-2.45,4.69-6.02,6.63
	c-1.44,0.42-2.34,0.92-2.36,0.93l-0.1,0.06l0.07,0.13l0.17,0.32l0.1-0.06c0.02-0.01,0.89-0.48,2.28-0.89
	c2.14-0.62,5.51-1.07,9.04,0.54c0.39,0.25,0.81,0.64,0.81,1C30.01,16.39,29.72,16.7,29.15,17.01"/>
</svg>
