<?xml version="1.0" encoding="utf-8"?>
<!-- Generator: Adobe Illustrator 21.0.0, SVG Export Plug-In . SVG Version: 6.00 Build 0)  -->
<svg version="1.1" id="Layer_1" xmlns="http://www.w3.org/2000/svg" xmlns:xlink="http://www.w3.org/1999/xlink" x="0px" y="0px"
	 width="32px" height="32px" viewBox="0 0 32 32" style="enable-background:new 0 0 32 32;" xml:space="preserve">
<style type="text/css">
	.st0{fill:none;}
	.st1{fill:#952524;}
</style>
<rect class="st0" width="32" height="32"/>
<g>
	<path class="st1" d="M7.3,17.5c2.5,0,4.6-2.1,4.6-4.6c0-2.5-2.1-4.6-4.6-4.6c-2.5,0-4.6,2.1-4.6,4.6C2.7,15.4,4.8,17.5,7.3,17.5z
		 M7.3,9.3c2,0,3.6,1.6,3.6,3.6c0,2-1.6,3.6-3.6,3.6c-2,0-3.6-1.6-3.6-3.6C3.7,10.9,5.3,9.3,7.3,9.3z"/>
	<path class="st1" d="M20.5,16.1c3.3,0,6.1-2.7,6.1-6.1c0-3.3-2.7-6.1-6.1-6.1c-3.3,0-6.1,2.7-6.1,6.1
		C14.5,13.3,17.2,16.1,20.5,16.1z M20.5,4.9c2.8,0,5.1,2.3,5.1,5.1c0,2.8-2.3,5.1-5.1,5.1c-2.8,0-5.1-2.3-5.1-5.1
		C15.5,7.2,17.8,4.9,20.5,4.9z"/>
	<path class="st1" d="M20.5,18.4c-6.6,0-11.4,3.3-11.4,7.9c0,1,0.8,1.8,1.8,1.8h19.2c1,0,1.8-0.8,1.8-1.8
		C31.9,21.7,27.1,18.4,20.5,18.4z M30.1,27.1H11c-0.4,0-0.8-0.4-0.8-0.8c0-3.9,4.4-6.8,10.4-6.9h0c5.7,0,10.4,3.1,10.4,6.9
		C30.9,26.7,30.6,27.1,30.1,27.1z"/>
	<polygon points="20.5,19.5 20.5,19.5 20.5,19.5 	"/>
	<path class="st1" d="M1.7,27.2c-0.4,0-0.7-0.3-0.7-0.7c0-3.5,3.9-6,9.4-6.1l0,0c0.3-0.3,0.8-0.7,1.4-1c-0.5,0-1-0.1-1.4-0.1
		c-6,0-10.3,3-10.3,7.2c0,0.9,0.7,1.6,1.6,1.6h6.4c-0.2-0.3-0.3-0.7-0.3-0.9H1.7z"/>
</g>
</svg>
