<?xml version="1.0" encoding="utf-8"?>
<!-- Generator: Adobe Illustrator 21.0.0, SVG Export Plug-In . SVG Version: 6.00 Build 0)  -->
<svg version="1.1" id="Layer_1" xmlns="http://www.w3.org/2000/svg" xmlns:xlink="http://www.w3.org/1999/xlink" x="0px" y="0px"
	 width="32px" height="32px" viewBox="0 0 32 32" style="enable-background:new 0 0 32 32;" xml:space="preserve">
<style type="text/css">
	.st0{fill:none;}
	.st1{fill:#952524;}
</style>
<rect class="st0" width="32" height="32"/>
<g>
	<path class="st1" d="M9.4,8.5L9.4,8.5h4c1.1,0,2.1-0.9,2.1-2.1V6.2c0-1.1-0.9-2.1-2.1-2.1h-0.1c0.2-0.3,0.3-0.7,0.3-1.1V2.7
		c0-1.1-0.9-2.1-2.1-2.1H4.3c-1.1,0-2.1,0.9-2.1,2.1V3c0,0.4,0.1,0.8,0.3,1.1H2.4C1.3,4.1,0.3,5,0.3,6.2v0.3c0,1.1,0.9,2.1,2.1,2.1
		h3.9h0.1h0.2V17H6.4H6.3H2.4c-1.1,0-2.1,0.9-2.1,2.1v0.3c0,1.1,0.9,2.1,2.1,2.1h0.1c-0.2,0.3-0.3,0.7-0.3,1.1v0.3
		c0,1.1,0.9,2.1,2.1,2.1h7.2c1.1,0,2.1-0.9,2.1-2.1v-0.3c0-0.4-0.1-0.8-0.3-1.1h0.1c1.1,0,2.1-0.9,2.1-2.1v-0.3
		c0-1.1-0.9-2.1-2.1-2.1H9.5H9.4H9.2V8.5H9.4z M3.2,2.7c0-0.6,0.5-1.1,1.1-1.1h7.2c0.6,0,1.1,0.5,1.1,1.1V3c0,0.6-0.5,1.1-1.1,1.1
		H4.3C3.7,4.1,3.2,3.6,3.2,3V2.7z M2.4,7.5C1.8,7.5,1.3,7,1.3,6.4V6.2c0-0.6,0.5-1.1,1.1-1.1h11c0.6,0,1.1,0.5,1.1,1.1v0.3
		c0,0.6-0.5,1.1-1.1,1.1H2.4z M8.7,17H8.4H7.3H7.1V8.5h0.3h1.1h0.3V17z M12.6,22.8c0,0.6-0.5,1.1-1.1,1.1H4.3
		c-0.6,0-1.1-0.5-1.1-1.1v-0.3c0-0.6,0.5-1.1,1.1-1.1h7.2c0.6,0,1.1,0.5,1.1,1.1V22.8z M13.4,18c0.6,0,1.1,0.5,1.1,1.1v0.3
		c0,0.6-0.5,1.1-1.1,1.1h-11c-0.6,0-1.1-0.5-1.1-1.1v-0.3c0-0.6,0.5-1.1,1.1-1.1H13.4z"/>
	<path class="st1" d="M25.6,15L25.6,15h4c1.1,0,2.1-0.9,2.1-2.1v-0.3c0-1.1-0.9-2.1-2.1-2.1h-0.1c0.2-0.3,0.3-0.7,0.3-1.1V9.2
		c0-1.1-0.9-2.1-2.1-2.1h-7.2c-1.1,0-2.1,0.9-2.1,2.1v0.3c0,0.4,0.1,0.8,0.3,1.1h-0.1c-1.1,0-2.1,0.9-2.1,2.1v0.3
		c0,1.1,0.9,2.1,2.1,2.1h3.9h0.1h0.2v8.5h-0.2h-0.1h-3.9c-1.1,0-2.1,0.9-2.1,2.1v0.3c0,1.1,0.9,2.1,2.1,2.1h0.1
		c-0.2,0.3-0.3,0.7-0.3,1.1v0.3c0,1.1,0.9,2.1,2.1,2.1h7.2c1.1,0,2.1-0.9,2.1-2.1V29c0-0.4-0.1-0.8-0.3-1.1h0.1
		c1.1,0,2.1-0.9,2.1-2.1v-0.3c0-1.1-0.9-2.1-2.1-2.1h-3.9h-0.1h-0.2V15H25.6z M19.4,9.2c0-0.6,0.5-1.1,1.1-1.1h7.2
		c0.6,0,1.1,0.5,1.1,1.1v0.3c0,0.6-0.5,1.1-1.1,1.1h-7.2c-0.6,0-1.1-0.5-1.1-1.1V9.2z M18.6,14c-0.6,0-1.1-0.5-1.1-1.1v-0.3
		c0-0.6,0.5-1.1,1.1-1.1h11c0.6,0,1.1,0.5,1.1,1.1v0.3c0,0.6-0.5,1.1-1.1,1.1H18.6z M24.9,23.5h-0.3h-1.1h-0.3V15h0.3h1.1h0.3V23.5z
		 M28.8,29.3c0,0.6-0.5,1.1-1.1,1.1h-7.2c-0.6,0-1.1-0.5-1.1-1.1V29c0-0.6,0.5-1.1,1.1-1.1h7.2c0.6,0,1.1,0.5,1.1,1.1V29.3z
		 M29.6,24.5c0.6,0,1.1,0.5,1.1,1.1v0.3c0,0.6-0.5,1.1-1.1,1.1h-11c-0.6,0-1.1-0.5-1.1-1.1v-0.3c0-0.6,0.5-1.1,1.1-1.1H29.6z"/>
</g>
</svg>
