<?xml version="1.0" encoding="utf-8"?>
<!-- Generator: Adobe Illustrator 21.0.0, SVG Export Plug-In . SVG Version: 6.00 Build 0)  -->
<svg version="1.1" id="Layer_1" xmlns="http://www.w3.org/2000/svg" xmlns:xlink="http://www.w3.org/1999/xlink" x="0px" y="0px"
	 width="32px" height="32px" viewBox="0 0 32 32" style="enable-background:new 0 0 32 32;" xml:space="preserve">
<style type="text/css">
	.st0{fill:none;}
	.st1{fill:#952524;}
</style>
<rect class="st0" width="32" height="32"/>
<g>
	<path class="st1" d="M23.6,8.9c1.7,0,3.1-1.4,3.1-3.1c0-1.7-1.4-3.1-3.1-3.1c-1.7,0-3.1,1.4-3.1,3.1C20.5,7.5,21.9,8.9,23.6,8.9
		 M23.6,3.5c1.2,0,2.2,1,2.2,2.2c0,1.2-1,2.2-2.2,2.2c-1.2,0-2.2-1-2.2-2.2C21.4,4.5,22.4,3.5,23.6,3.5"/>
	<path class="st1" d="M16.1,28.6c0.6,0.2,1.1,0.1,1.6-0.2c0.5-0.3,0.8-0.8,1-1.3l1.1-4.4h4.6c0.7,0,1.4-0.3,1.9-0.8
		c0.5-0.5,0.7-1.2,0.6-2l-1.1-8.7c-0.1-1.1-1.1-2-2.2-2c-0.1,0-0.1,0-0.2,0c-0.7,0.1-1.3,0.4-1.7,0.9c-0.4,0.5-0.6,1.2-0.5,1.8
		l0.7,5.8l-0.1,0l-3.9,0.1c-1.1,0-2,0.8-2.2,1.9l-1.3,6.1C14.1,27.1,14.9,28.3,16.1,28.6 M15.3,26l1.3-6.1c0.1-0.7,0.7-1.1,1.4-1.1
		l4.9-0.1l-0.8-6.8c0-0.4,0.1-0.8,0.3-1.1c0.3-0.3,0.6-0.5,1-0.6c0,0,0.1,0,0.1,0c0.7,0,1.2,0.5,1.3,1.2l1.1,8.7
		c0.1,0.4-0.1,0.9-0.4,1.2c-0.3,0.3-0.7,0.5-1.2,0.5h-5.3l-1.2,5.1c-0.1,0.3-0.3,0.6-0.6,0.8c-0.3,0.2-0.6,0.2-0.9,0.1
		C15.6,27.5,15.1,26.8,15.3,26"/>
	<path class="st1" d="M30.9,17.8h-2c-0.3,0-0.5,0.2-0.5,0.5v5.6h-5.1c-0.3,0-0.5,0.2-0.5,0.5V30h-9.5c-0.3,0-0.5,0.2-0.5,0.5
		c0,0.3,0.2,0.5,0.5,0.5h10.4v-6.1h5.1c0.3,0,0.5-0.2,0.5-0.5v-5.6h1.6c0.3,0,0.5-0.2,0.5-0.5C31.4,18,31.2,17.8,30.9,17.8"/>
	<path class="st1" d="M2.1,19c-0.8-1-0.8-2.3-0.1-3.3l0.8-1.2c0.8-1.1,0.8-2.6,0-3.7L2,9.5C1.5,8.7,1.4,7.8,1.9,7l0.4-0.7
		C2.4,6,2.3,5.7,2,5.6c-0.1-0.1-0.2-0.1-0.4,0c-0.1,0-0.2,0.1-0.3,0.2L1.1,6.3c-0.7,1.2-0.6,2.8,0.2,3.9l0.7,1.1
		c0.5,0.8,0.5,1.8,0,2.6l-0.8,1.2c-1,1.4-0.9,3.2,0.1,4.5l0.7,0.9c0.6,0.8,0.6,1.9,0.1,2.7l-0.3,0.5c-0.2,0.2-0.1,0.5,0.1,0.7v0
		c0.1,0.1,0.2,0.1,0.3,0.1c0.2,0,0.3-0.1,0.4-0.2l0.3-0.5c0.8-1.2,0.8-2.7-0.1-3.8L2.1,19z"/>
	<path class="st1" d="M6.9,18.9c-0.5-0.8-0.5-1.8,0-2.6L7.8,15c0.7-1,0.8-2.4,0.2-3.5l-0.4-0.7c-0.1-0.1-0.2-0.2-0.3-0.2
		c-0.1,0-0.3,0-0.4,0c-0.2,0.1-0.3,0.4-0.2,0.7L7.1,12c0.4,0.8,0.4,1.8-0.1,2.5l-0.9,1.3c-0.8,1.1-0.8,2.6,0,3.7l0.8,1.2
		c0.7,1,0.7,2.4-0.1,3.3l-0.7,0.9C5.3,26,5.2,27.6,6,28.7l0.3,0.5c0.1,0.1,0.2,0.2,0.3,0.2c0,0,0.1,0,0.1,0c0.1,0,0.2,0,0.3-0.1
		c0.2-0.2,0.3-0.5,0.1-0.7l-0.3-0.5c-0.6-0.8-0.5-1.9,0.1-2.7l0.7-0.9c1-1.3,1.1-3.1,0.1-4.5L6.9,18.9z"/>
	<path class="st1" d="M12.4,15.3c1.1-1.5,1.2-3.5,0.1-5l-0.5-0.7c-0.6-0.9-0.6-2.1,0-3.1l0.6-0.8c0.8-1.2,0.9-2.7,0.2-3.9l-0.3-0.5
		c-0.1-0.2-0.4-0.3-0.7-0.2c-0.1,0.1-0.2,0.2-0.2,0.3c0,0.1,0,0.3,0,0.4L12,2.3c0.5,0.9,0.4,2.1-0.2,2.9L11.3,6
		c-0.9,1.2-0.8,2.9,0,4.2l0.5,0.7c0.8,1.2,0.8,2.7-0.1,3.8l-0.4,0.5c-1,1.3-1,3-0.1,4.3l0.2,0.2c0.1,0.1,0.2,0.2,0.3,0.2
		c0,0,0.1,0,0.1,0c0.1,0,0.2,0,0.3-0.1c0.1-0.1,0.2-0.2,0.2-0.3c0-0.1,0-0.3-0.1-0.4L12,18.9c-0.7-1-0.6-2.2,0.1-3.2L12.4,15.3z"/>
</g>
</svg>
