<?xml version="1.0" encoding="utf-8"?>
<!-- Generator: Adobe Illustrator 21.0.0, SVG Export Plug-In . SVG Version: 6.00 Build 0)  -->
<svg version="1.1" id="Layer_1" xmlns="http://www.w3.org/2000/svg" xmlns:xlink="http://www.w3.org/1999/xlink" x="0px" y="0px"
	 width="32px" height="32px" viewBox="0 0 32 32" style="enable-background:new 0 0 32 32;" xml:space="preserve">
<style type="text/css">
	.st0{fill:none;}
	.st1{fill:#952524;}
</style>
<rect class="st0" width="32" height="32"/>
<g>
	<path class="st1" d="M31.1,10.9h-3.6L28.6,7c0.1-0.3-0.1-0.6-0.4-0.7c-0.3-0.1-0.6,0.1-0.7,0.4l-1.3,4.3H0.9
		c-0.5,0-0.9,0.4-0.9,0.9v17.6h0.2c0.4,0,0.8-0.3,0.8-0.8V11.9h25l-2.6,8.5h-7.8c-0.3,0-0.6,0.3-0.6,0.6c0,0.3,0.3,0.6,0.6,0.6h3.8
		v6.7h-2.5v1h5.8v-1h-2.1v-6.7h3.2c0.3,0,0.6-0.2,0.7-0.5l2.8-9.2h3.9v17.6h0.2c0.4,0,0.8-0.3,0.8-0.8V11.8
		C32,11.3,31.6,10.9,31.1,10.9"/>
	<path class="st1" d="M13.9,9.5h0.9V8.9h-0.9v-6c0-0.2-0.1-0.3-0.3-0.3H3.6c-0.2,0-0.3,0.1-0.3,0.3v6h-1v0.6h1H13.9z M3.9,3.3
		C3.9,3.2,4,3.2,3.9,3.3l9.2,0c0,0,0,0,0,0v5.6H3.9V3.3z"/>
</g>
</svg>
