<?xml version="1.0" encoding="utf-8"?>
<!-- Generator: Adobe Illustrator 21.0.0, SVG Export Plug-In . SVG Version: 6.00 Build 0)  -->
<svg version="1.1" id="Layer_1" xmlns="http://www.w3.org/2000/svg" xmlns:xlink="http://www.w3.org/1999/xlink" x="0px" y="0px"
	 width="32px" height="32px" viewBox="0 0 32 32" style="enable-background:new 0 0 32 32;" xml:space="preserve">
<style type="text/css">
	.st0{fill:none;}
	.st1{fill:#952524;}
</style>
<rect class="st0" width="32" height="32"/>
<g>
	<path class="st1" d="M22.4,3.1H9.6c-0.8,0-1.4,0.6-1.4,1.4v23c0,0.8,0.6,1.4,1.4,1.4h12.8c0.8,0,1.4-0.6,1.4-1.4v-23
		C23.8,3.7,23.1,3.1,22.4,3.1z M9.2,4.5c0-0.2,0.2-0.4,0.4-0.4h12.8c0.2,0,0.4,0.2,0.4,0.4v23c0,0.2-0.2,0.4-0.4,0.4H9.6
		c-0.2,0-0.4-0.2-0.4-0.4V4.5z"/>
	<rect x="14.2" y="6.7" class="st1" width="3.6" height="0.6"/>
	<path class="st1" d="M16,26.5c1,0,1.8-0.8,1.8-1.8S17,22.8,16,22.8s-1.8,0.8-1.8,1.8S15,26.5,16,26.5z M14.8,24.7
		c0-0.7,0.6-1.2,1.3-1.2c0.7,0,1.2,0.6,1.2,1.2s-0.6,1.2-1.2,1.2C15.3,25.9,14.8,25.4,14.8,24.7z"/>
</g>
</svg>
