<?xml version="1.0" encoding="utf-8"?>
<!-- Generator: Adobe Illustrator 21.0.0, SVG Export Plug-In . SVG Version: 6.00 Build 0)  -->
<svg version="1.1" id="Layer_1" xmlns="http://www.w3.org/2000/svg" xmlns:xlink="http://www.w3.org/1999/xlink" x="0px" y="0px"
	 width="32px" height="32px" viewBox="0 0 32 32" style="enable-background:new 0 0 32 32;" xml:space="preserve">
<style type="text/css">
	.st0{fill:none;}
	.st1{fill:#952524;}
</style>
<rect class="st0" width="32" height="32"/>
<g>
	<path class="st1" d="M5.1,5.5H0.7C0.3,5.5,0,5.8,0,6.2v19.6c0,0.4,0.3,0.7,0.7,0.7h4.4c0.4,0,0.7-0.3,0.7-0.7V6.2
		C5.8,5.8,5.5,5.5,5.1,5.5 M0.9,6.4h4v19.2h-4V6.4z"/>
	<path class="st1" d="M31.3,5.5h-4.4c-0.4,0-0.7,0.3-0.7,0.7v19.6c0,0.4,0.3,0.7,0.7,0.7h4.4c0.4,0,0.7-0.3,0.7-0.7V6.2
		C32,5.8,31.7,5.5,31.3,5.5 M31.1,25.6h-4V6.4h4V25.6z"/>
	<path class="st1" d="M22.5,14.1H9.5c-0.3,0-0.6,0.3-0.6,0.6v8.9c0,0.3,0.3,0.6,0.6,0.6h6.3v1.6h-4.1v0.7h8.5v-0.7h-3.7v-1.6h5.9
		c0.3,0,0.6-0.3,0.6-0.6v-8.9C23,14.3,22.8,14.1,22.5,14.1 M22.3,23.4H9.7v-8.6h12.5V23.4z"/>
	<path class="st1" d="M2.9,7.3c-0.5,0-1,0.4-1,1c0,0.5,0.4,1,1,1s1-0.4,1-1C3.9,7.8,3.4,7.3,2.9,7.3"/>
	<path class="st1" d="M2.9,11.2c-0.5,0-1,0.4-1,1c0,0.5,0.4,1,1,1s1-0.4,1-1C3.9,11.6,3.4,11.2,2.9,11.2"/>
	<path class="st1" d="M2.9,15c-0.5,0-1,0.4-1,1c0,0.5,0.4,1,1,1s1-0.4,1-1C3.9,15.5,3.4,15,2.9,15"/>
	<path class="st1" d="M29.1,9.3c0.5,0,1-0.4,1-1c0-0.5-0.4-1-1-1c-0.5,0-1,0.4-1,1C28.1,8.8,28.6,9.3,29.1,9.3"/>
	<path class="st1" d="M29.1,13.1c0.5,0,1-0.4,1-1c0-0.5-0.4-1-1-1c-0.5,0-1,0.4-1,1C28.1,12.7,28.6,13.1,29.1,13.1"/>
	<path class="st1" d="M29.1,17c0.5,0,1-0.4,1-1c0-0.5-0.4-1-1-1c-0.5,0-1,0.4-1,1C28.1,16.5,28.6,17,29.1,17"/>
</g>
</svg>
