<?xml version="1.0" encoding="utf-8"?>
<!-- Generator: Adobe Illustrator 21.0.0, SVG Export Plug-In . SVG Version: 6.00 Build 0)  -->
<svg version="1.1" id="Layer_1" xmlns="http://www.w3.org/2000/svg" xmlns:xlink="http://www.w3.org/1999/xlink" x="0px" y="0px"
	 width="32px" height="32px" viewBox="0 0 32 32" style="enable-background:new 0 0 32 32;" xml:space="preserve">
<style type="text/css">
	.st0{fill:none;}
	.st1{fill:#952524;}
</style>
<rect class="st0" width="32" height="32"/>
<g>
	<path class="st1" d="M27.2,8.9h-4V6.2c0-2.8-2.3-5.1-5.1-5.1h-4.2c-2.8,0-5.1,2.3-5.1,5.1v2.7h-4C2.2,8.9,0,11.1,0,13.7V26
		c0,2.7,2.2,4.8,4.8,4.8h22.3c2.7,0,4.8-2.2,4.8-4.8V13.7C32,11.1,29.8,8.9,27.2,8.9 M27.2,9.9c2.1,0,3.8,1.7,3.8,3.8V26
		c0,2.1-1.7,3.8-3.8,3.8H4.8C2.7,29.9,1,28.2,1,26V13.7c0-2.1,1.7-3.8,3.8-3.8h4c0.6,0,1-0.5,1-1V6.2c0-2.3,1.8-4.1,4.1-4.1h4.2
		c2.3,0,4.1,1.8,4.1,4.1v2.7c0,0.6,0.5,1,1,1H27.2z"/>
	<path class="st1" d="M16,10.8c-4.4,0-7.9,3.6-7.9,7.9c0,4.4,3.6,7.9,7.9,7.9c4.4,0,7.9-3.6,7.9-7.9C23.9,14.3,20.4,10.8,16,10.8
		 M22.9,18.7c0,3.8-3.1,6.9-6.9,6.9c-3.8,0-6.9-3.1-6.9-6.9s3.1-6.9,6.9-6.9C19.8,11.8,22.9,14.9,22.9,18.7"/>
	<path class="st1" d="M16,14.7c2.2,0,4.1,1.8,4.1,4.1c0,2.2-1.8,4.1-4.1,4.1s-4.1-1.8-4.1-4.1C11.9,16.5,13.8,14.7,16,14.7 M16,14.1
		c-2.5,0-4.6,2.1-4.6,4.6c0,2.5,2.1,4.6,4.6,4.6c2.5,0,4.6-2.1,4.6-4.6C20.6,16.2,18.5,14.1,16,14.1"/>
	<rect x="13.1" y="5.5" class="st1" width="5.7" height="0.5"/>
</g>
</svg>
