<?xml version="1.0" encoding="utf-8"?>
<!-- Generator: Adobe Illustrator 21.0.0, SVG Export Plug-In . SVG Version: 6.00 Build 0)  -->
<svg version="1.1" id="Layer_1" xmlns="http://www.w3.org/2000/svg" xmlns:xlink="http://www.w3.org/1999/xlink" x="0px" y="0px"
	 width="32px" height="32px" viewBox="0 0 32 32" style="enable-background:new 0 0 32 32;" xml:space="preserve">
<style type="text/css">
	.st0{fill:none;}
	.st1{fill:#952524;}
</style>
<rect class="st0" width="32" height="32"/>
<g>
	<path class="st1" d="M0.6,16.8h5.7L7.2,16H0.8C0.8,14.3,2.3,13,4,13h2.2c1,0,2,0.5,2.6,1.4l0.1,0.1l0.6-0.5l0-0.1
		c-0.8-1-1.9-1.6-3.2-1.6H4c-2.2,0-4,1.8-4,4C0,16.5,0.3,16.8,0.6,16.8"/>
	<path class="st1" d="M29.8,18.8L28,18.4l-2-2.8l0,0c-0.8-0.9-1.8-1.3-3-1.3H15c-1.3,0-2.5,0.5-3.4,1.4l-3.7,3.5H4.8
		c-1.9,0-3.5,1.5-3.6,3.4l0,0.5c0,0.7,0.2,1.4,0.7,1.9c0.5,0.5,1.2,0.8,1.9,0.8H5c0.2,1.6,1.6,2.8,3.3,2.8c1.6,0,3-1.2,3.3-2.8h10.8
		c0.2,1.6,1.6,2.8,3.3,2.8c1.6,0,3-1.2,3.3-2.8h0.5c1.5,0,2.7-1.2,2.7-2.7v-1.6C32,20.2,31.2,19.1,29.8,18.8 M23.2,24.9
		c0.2-1.2,1.2-2,2.3-2c1.2,0,2.1,0.8,2.3,2c0,0.1,0,0.3,0,0.4c0,0.1,0,0.2,0,0.4c-0.2,1.2-1.2,2-2.3,2c-1.2,0-2.1-0.8-2.3-2
		c0-0.1,0-0.3,0-0.4C23.2,25.2,23.2,25.1,23.2,24.9 M5.9,24.9c0.2-1.2,1.2-2,2.3-2c1.2,0,2.1,0.8,2.3,2c0,0.1,0,0.3,0,0.4
		c0,0.1,0,0.2,0,0.4c-0.2,1.2-1.2,2-2.3,2c-1.2,0-2.1-0.8-2.3-2c0-0.1,0-0.3,0-0.4C5.9,25.2,5.9,25.1,5.9,24.9 M15,15.2h7.9
		c0.9,0,1.7,0.4,2.3,1l2.2,3l0,0l2.2,0.4c0.9,0.2,1.5,0.9,1.5,1.7v1.6c0,1-0.8,1.8-1.8,1.8h-0.5c-0.2-1.6-1.6-2.8-3.3-2.8
		c-1.6,0-3,1.2-3.3,2.8H11.5C11.3,23.2,9.9,22,8.2,22c-1.6,0-3,1.2-3.3,2.8H3.8c-0.5,0-0.9-0.2-1.2-0.5c-0.3-0.3-0.5-0.8-0.5-1.2
		l0-0.5C2.2,21.2,3.4,20,4.8,20h3.5l3.9-3.7C13,15.6,14,15.2,15,15.2"/>
	<path class="st1" d="M8.4,6.5c0-1.7-1.4-3.1-3.1-3.1H4.6c-1.7,0-3.1,1.4-3.1,3.1c0,0.3,0.1,0.5,0.3,0.7C1.6,7.7,1.5,8.1,1.5,8.6
		C1.5,10.5,3,12,4.8,12c1.8,0,3.4-1.5,3.4-3.4c0-0.4-0.1-0.9-0.3-1.3C8.2,7.2,8.4,6.9,8.4,6.5z M4.8,11.4c-1.5,0-2.7-1.2-2.7-2.7
		c0-0.4,0.1-0.8,0.3-1.2c0,0,0,0,0,0h4.9c0.2,0.4,0.3,0.8,0.3,1.2C7.5,10.1,6.3,11.4,4.8,11.4z M7.5,6.8C7.5,6.8,7.5,6.8,7.5,6.8
		l-5.2,0c-0.1,0-0.2,0-0.2-0.1C2.1,6.7,2.1,6.6,2.1,6.5c0-0.1,0-0.1,0-0.2c0-0.1,0-0.3,0-0.3c0-0.2,0.1-0.4,0.1-0.4
		C2.6,4.7,3.5,4,4.6,4h0.6c1.1,0,2,0.7,2.4,1.7C7.7,5.8,7.7,6,7.7,6.1l0,0c0,0,0,0,0,0c0,0,0,0,0,0l0,0c0,0.1,0,0.3,0,0.3
		c0,0.1,0,0.1,0,0.2C7.8,6.7,7.7,6.8,7.5,6.8z"/>
</g>
</svg>
