<?xml version="1.0" encoding="utf-8"?>
<!-- Generator: Adobe Illustrator 21.0.0, SVG Export Plug-In . SVG Version: 6.00 Build 0)  -->
<svg version="1.1" id="Layer_1" xmlns="http://www.w3.org/2000/svg" xmlns:xlink="http://www.w3.org/1999/xlink" x="0px" y="0px"
	 width="32px" height="32px" viewBox="0 0 32 32" style="enable-background:new 0 0 32 32;" xml:space="preserve">
<style type="text/css">
	.st0{fill:none;}
	.st1{fill:#952524;}
</style>
<rect class="st0" width="32" height="32"/>
<path class="st1" d="M29.5,17.4L19,11.1v-5L19,6C18.5,2.2,17,1,16.4,0.6l0,0l0,0c-0.2-0.1-0.6-0.1-0.8,0l0,0C15,1,13.5,2.2,13,6
	l0,5.1L2.5,17.4C1.5,18,0.9,19,0.9,20.1v2.4l12.1-4.2v1.4c0,0.3,0,1.5,0.9,7.1l-2.6,2l0,0v2.7h9.3v-2.7L18,26.8
	c0.9-5.6,0.9-6.8,0.9-7.1v-1.4L31,22.4l0.1,0v-2.4C31.1,19,30.5,18,29.5,17.4z M29,18.3c0.6,0.4,1,1.1,1,1.8v1L18,16.9l-0.1,0l0,2.9
	c0,0,0,1-1,7.2l0,0.3l2.7,2.1v1.2h-7.3v-1.2l2.7-2.1l0,0l0-0.3c-1-6.1-1-7.1-1-7.2l0-2.8l0-0.1L1.9,21.1v-1c0-0.7,0.4-1.4,1-1.8
	l11-6.6l0.1,0V6.3c0-0.1,0-0.3,0-0.4c0.4-2.6,1.2-3.8,1.7-4.2c0,0,0,0,0.1-0.1c0.1-0.1,0.2-0.1,0.4,0c0,0,0.1,0,0.1,0.1
	c0.5,0.4,1.3,1.5,1.7,4.2c0,0.1,0,0.2,0,0.4v5.4L29,18.3z"/>
</svg>
