<?xml version="1.0" encoding="utf-8"?>
<!-- Generator: Adobe Illustrator 21.0.0, SVG Export Plug-In . SVG Version: 6.00 Build 0)  -->
<svg version="1.1" id="Layer_1" xmlns="http://www.w3.org/2000/svg" xmlns:xlink="http://www.w3.org/1999/xlink" x="0px" y="0px"
	 width="32px" height="32px" viewBox="0 0 32 32" style="enable-background:new 0 0 32 32;" xml:space="preserve">
<style type="text/css">
	.st0{fill:none;}
	.st1{fill:#952524;}
</style>
<rect class="st0" width="32" height="32"/>
<g>
	<path class="st1" d="M26.7,0.5H5.3c-2.7,0-4.8,2.2-4.8,4.8v21.3c0,2.7,2.2,4.8,4.8,4.8h21.3c2.7,0,4.8-2.2,4.8-4.8V5.3
		C31.5,2.7,29.3,0.5,26.7,0.5 M30.3,5.3v21.3c0,2-1.7,3.7-3.7,3.7H5.3c-2,0-3.7-1.7-3.7-3.7V5.3c0-2,1.7-3.7,3.7-3.7h21.3
		C28.7,1.7,30.3,3.3,30.3,5.3"/>
	<path class="st1" d="M23.3,15.5L11.5,8.7c-0.3-0.1-0.6-0.2-0.7-0.1c-0.3,0.2-0.3,0.5-0.3,0.7v13.6c0,0.2,0.1,0.3,0.3,0.4
		c0.1,0,0.2,0.1,0.3,0.1c0.1,0,0.2,0,0.3-0.1l12-7c0.2-0.1,0.3-0.3,0.3-0.4C23.6,15.8,23.5,15.6,23.3,15.5 M21.7,15.9l-10.1,5.8
		V10.1L21.7,15.9z"/>
</g>
</svg>
