<?xml version="1.0" encoding="utf-8"?>
<!-- Generator: Adobe Illustrator 21.0.0, SVG Export Plug-In . SVG Version: 6.00 Build 0)  -->
<svg version="1.1" id="Layer_1" xmlns="http://www.w3.org/2000/svg" xmlns:xlink="http://www.w3.org/1999/xlink" x="0px" y="0px"
	 width="32px" height="32px" viewBox="0 0 32 32" style="enable-background:new 0 0 32 32;" xml:space="preserve">
<style type="text/css">
	.st0{fill:none;}
	.st1{fill:#952524;}
</style>
<g>
	<rect class="st0" width="32" height="32"/>
</g>
<g>
	<path class="st1" d="M22,10c-1.8-1.8-4.2-2.7-6.7-2.5c-4.1,0.3-7.4,3.7-7.8,7.8C7.3,17.8,8.2,20.2,10,22c1.6,1.6,3.7,2.5,6,2.5
		c0.2,0,0.5,0,0.7,0c4.1-0.3,7.4-3.7,7.8-7.8C24.7,14.2,23.8,11.8,22,10 M21.2,21.2c-1.5,1.5-3.6,2.3-5.8,2.1
		C11.9,23,9,20.1,8.7,16.6c-0.2-2.1,0.6-4.3,2.1-5.8C12.2,9.4,14,8.7,16,8.7c0.2,0,0.4,0,0.6,0c3.5,0.3,6.4,3.2,6.7,6.7
		C23.5,17.5,22.7,19.7,21.2,21.2"/>
	<path class="st1" d="M5.9,16c0-0.3-0.3-0.6-0.6-0.6H1.1c-0.3,0-0.6,0.3-0.6,0.6c0,0.3,0.3,0.6,0.6,0.6h4.2
		C5.6,16.6,5.9,16.3,5.9,16"/>
	<path class="st1" d="M30.9,15.4h-4.2c-0.3,0-0.6,0.3-0.6,0.6c0,0.3,0.3,0.6,0.6,0.6h4.2c0.3,0,0.6-0.3,0.6-0.6
		C31.5,15.7,31.2,15.4,30.9,15.4"/>
	<path class="st1" d="M23.5,9C23.7,9,23.8,9,24,8.9l3-3c0.1-0.1,0.2-0.3,0.2-0.4c0-0.2-0.1-0.3-0.2-0.4c-0.2-0.2-0.6-0.2-0.8,0l-3,3
		C23,8.2,23,8.3,23,8.5c0,0.2,0.1,0.3,0.2,0.4C23.2,9,23.4,9,23.5,9"/>
	<path class="st1" d="M8,23.1l-3,3c-0.1,0.1-0.2,0.3-0.2,0.4c0,0.2,0.1,0.3,0.2,0.4c0.1,0.1,0.3,0.2,0.4,0.2c0.2,0,0.3-0.1,0.4-0.2
		l3-3C9,23.8,9,23.7,9,23.5c0-0.2-0.1-0.3-0.2-0.4C8.7,22.9,8.3,22.9,8,23.1"/>
	<path class="st1" d="M16,5.9c0.3,0,0.6-0.3,0.6-0.6V1.1c0-0.3-0.3-0.6-0.6-0.6c-0.3,0-0.6,0.3-0.6,0.6v4.2
		C15.4,5.6,15.7,5.9,16,5.9"/>
	<path class="st1" d="M16,26.1c-0.3,0-0.6,0.3-0.6,0.6v4.2c0,0.3,0.3,0.6,0.6,0.6c0.3,0,0.6-0.3,0.6-0.6v-4.2
		C16.6,26.4,16.3,26.1,16,26.1"/>
	<path class="st1" d="M24,23.1c-0.2-0.2-0.6-0.2-0.8,0C23,23.2,23,23.4,23,23.5c0,0.2,0.1,0.3,0.2,0.4l3,3c0.1,0.1,0.3,0.2,0.4,0.2
		s0.3-0.1,0.4-0.2c0.1-0.1,0.2-0.3,0.2-0.4c0-0.2-0.1-0.3-0.2-0.4L24,23.1z"/>
	<path class="st1" d="M8,8.9C8.2,9,8.3,9,8.5,9C8.6,9,8.8,9,8.9,8.9C9,8.8,9,8.6,9,8.5C9,8.3,9,8.2,8.9,8l-3-3C5.6,4.8,5.3,4.8,5,5
		C4.9,5.2,4.9,5.3,4.9,5.5c0,0.2,0.1,0.3,0.2,0.4L8,8.9z"/>
</g>
</svg>
