<?xml version="1.0" encoding="utf-8"?>
<!-- Generator: Adobe Illustrator 21.0.0, SVG Export Plug-In . SVG Version: 6.00 Build 0)  -->
<svg version="1.1" id="Layer_1" xmlns="http://www.w3.org/2000/svg" xmlns:xlink="http://www.w3.org/1999/xlink" x="0px" y="0px"
	 width="32px" height="32px" viewBox="0 0 32 32" style="enable-background:new 0 0 32 32;" xml:space="preserve">
<style type="text/css">
	.st0{fill:none;}
	.st1{fill:#952524;}
</style>
<rect class="st0" width="32" height="32"/>
<g>
	<path class="st1" d="M3.1,12c0.1,0.1,0.2,0.1,0.3,0.1c0,0,0.1,0,0.1,0c0.1,0,0.3-0.1,0.3-0.3l-0.1,0l0.1,0c0.1-0.2,0-0.5-0.2-0.6
		c-0.2-0.2-0.5-0.4-0.5-0.7c-0.1-0.6,0.5-1.3,1.6-2c1.2-0.9,1.7-1.7,1.6-2.6C6.2,4.7,5.2,4,4.5,3.6c-0.1-0.1-0.3-0.1-0.4,0
		C4,3.7,3.9,3.8,3.8,3.9c-0.1,0.2,0,0.5,0.2,0.6c0.3,0.2,1.3,0.7,1.3,1.4c0.1,0.6-0.6,1.3-1.2,1.7c-1.4,1-2.1,2-2,2.9
		C2.3,11.3,2.7,11.7,3.1,12"/>
	<path class="st1" d="M8.2,12c0.1,0.1,0.2,0.1,0.3,0.1c0,0,0.1,0,0.1,0c0.1,0,0.3-0.1,0.3-0.3v0c0.1-0.2,0-0.5-0.2-0.6
		c-0.2-0.2-0.5-0.4-0.5-0.7c-0.1-0.6,0.5-1.3,1.6-2c1.2-0.9,1.7-1.7,1.6-2.6C11.4,4.7,10.3,4,9.7,3.6c-0.1-0.1-0.3-0.1-0.4,0
		C9.2,3.7,9.1,3.8,9,3.9C8.9,4.1,9,4.4,9.3,4.5c0.3,0.2,1.2,0.7,1.3,1.4c0.1,0.6-0.6,1.3-1.2,1.7c-1.4,1-2.1,2-2,2.9
		C7.4,11.3,7.9,11.7,8.2,12"/>
	<path class="st1" d="M13.1,12c0.1,0.1,0.2,0.1,0.3,0.1c0,0,0.1,0,0.1,0c0.1,0,0.3-0.1,0.3-0.3l-0.1,0l0.1,0c0.1-0.2,0-0.5-0.2-0.6
		c-0.2-0.2-0.4-0.4-0.5-0.7c-0.1-0.6,0.5-1.3,1.6-2c1.2-0.9,1.7-1.7,1.6-2.6c-0.1-1.1-1.2-1.8-1.9-2.1c-0.1-0.1-0.3-0.1-0.4,0
		c-0.1,0-0.2,0.1-0.3,0.3l0,0c-0.1,0.2,0,0.5,0.2,0.6c0.3,0.2,1.3,0.7,1.3,1.4c0.1,0.6-0.6,1.3-1.2,1.7c-1.4,1-2.1,2-2,2.9
		C12.3,11.3,12.8,11.7,13.1,12"/>
	<path class="st1" d="M28.9,5.6c-0.3-0.2-0.7-0.2-1.1-0.2h-7.6c-0.3,0-0.5,0.2-0.5,0.5c0,0.3,0.2,0.5,0.5,0.5h7.6
		c0.3,0,0.5,0,0.7,0.1c0.7,0.3,1.9,1.1,2,2.7c0.2,2.2-1.5,3-1.6,3l-0.3,0.1v15.1h-6.8c-0.3,0-0.5,0.2-0.5,0.5c0,0.3,0.2,0.5,0.5,0.5
		h7.8V13c1.1-0.6,2.1-1.9,1.9-3.9C31.3,7,29.8,6,28.9,5.6"/>
	<rect x="20.4" y="9.4" class="st1" width="1" height="1"/>
	<rect x="24.5" y="9.4" class="st1" width="1" height="1"/>
	<rect x="20.4" y="13.3" class="st1" width="1" height="1"/>
	<rect x="24.5" y="13.3" class="st1" width="1" height="1"/>
	<path class="st1" d="M18.4,18.5h-0.8c0-0.4,0.1-0.9,0.1-1.3c0-0.2,0-0.3,0-0.5c0-0.1,0-0.2,0-0.3l0-0.2H0.5l0,0.2
		c0,0.1,0,0.2,0,0.3c0,0.1,0,0.3,0,0.4l0,0c0.1,3.7,1.5,7.1,3.8,9.2c0,0,4.5,4.3,9.5,0c0.6-0.6,1.2-1.3,1.7-2.1h2.8
		c1.6,0,2.9-1.3,2.9-2.9C21.3,19.8,20,18.5,18.4,18.5 M9.1,27.3c-4.1,0-7.4-4.4-7.6-10.1h15.2C16.5,22.9,13.1,27.3,9.1,27.3
		 M18.4,23.3h-2.3c0.6-1.2,1-2.5,1.3-3.9h1c1.1,0,1.9,0.9,1.9,1.9C20.3,22.4,19.5,23.3,18.4,23.3"/>
</g>
</svg>
