<?xml version="1.0" encoding="utf-8"?>
<!-- Generator: Adobe Illustrator 21.0.0, SVG Export Plug-In . SVG Version: 6.00 Build 0)  -->
<svg version="1.1" id="Layer_1" xmlns="http://www.w3.org/2000/svg" xmlns:xlink="http://www.w3.org/1999/xlink" x="0px" y="0px"
	 width="32px" height="32px" viewBox="0 0 32 32" style="enable-background:new 0 0 32 32;" xml:space="preserve">
<style type="text/css">
	.st0{fill:none;}
	.st1{fill:#952524;}
</style>
<g>
	<rect class="st0" width="32" height="32"/>
</g>
<g>
	<path class="st1" d="M26.7,0.5H5.3c-2.7,0-4.8,2.2-4.8,4.8v21.3c0,2.7,2.2,4.8,4.8,4.8h21.3c2.7,0,4.8-2.2,4.8-4.8V5.3
		C31.5,2.7,29.3,0.5,26.7,0.5 M30.3,5.3v21.3c0,2-1.7,3.7-3.7,3.7H5.3c-2,0-3.7-1.7-3.7-3.7V5.3c0-2,1.7-3.7,3.7-3.7h21.3
		C28.7,1.7,30.3,3.3,30.3,5.3"/>
	<g>
		<path class="st1" d="M9.1,14.9c-0.6,0-1.1,0.5-1.1,1.1c0,0.6,0.5,1.1,1.1,1.1c0.6,0,1.1-0.5,1.1-1.1C10.2,15.4,9.7,14.9,9.1,14.9"
			/>
		<path class="st1" d="M16,14.9c-0.6,0-1.1,0.5-1.1,1.1c0,0.6,0.5,1.1,1.1,1.1s1.1-0.5,1.1-1.1C17.1,15.4,16.6,14.9,16,14.9"/>
		<path class="st1" d="M22.9,14.9c-0.6,0-1.1,0.5-1.1,1.1c0,0.6,0.5,1.1,1.1,1.1c0.6,0,1.1-0.5,1.1-1.1
			C24.1,15.4,23.6,14.9,22.9,14.9"/>
	</g>
</g>
</svg>
