<?xml version="1.0" encoding="utf-8"?>
<!-- Generator: Adobe Illustrator 21.0.0, SVG Export Plug-In . SVG Version: 6.00 Build 0)  -->
<svg version="1.1" id="Layer_1" xmlns="http://www.w3.org/2000/svg" xmlns:xlink="http://www.w3.org/1999/xlink" x="0px" y="0px"
	 width="32px" height="32px" viewBox="0 0 32 32" style="enable-background:new 0 0 32 32;" xml:space="preserve">
<style type="text/css">
	.st0{fill:none;}
	.st1{fill:#952524;}
</style>
<g>
	<rect class="st0" width="32" height="32"/>
</g>
<g>
	<path class="st1" d="M26.4,2.5h-1.6V1c0-0.3-0.2-0.5-0.5-0.5c-0.3,0-0.5,0.2-0.5,0.5v1.5h-7.4V1c0-0.3-0.2-0.5-0.5-0.5
		c-0.3,0-0.5,0.2-0.5,0.5v1.5H8.1V1c0-0.3-0.2-0.5-0.5-0.5C7.3,0.5,7.1,0.7,7.1,1v1.5H5c-2.5,0-4.5,2.2-4.5,4.9v19.2
		c0,2.7,2,4.9,4.5,4.9H27c2.5,0,4.5-2.2,4.5-4.9V7.3c0-3.2-2.4-4.8-4.3-4.8 M1.4,10.1h26.5H28c0.2,0,0.4-0.2,0.4-0.5v0
		c0-0.3-0.2-0.5-0.4-0.5H1.4V7.4C1.4,5.2,3,3.5,5,3.5h2.2v1.5c0,0.3,0.2,0.5,0.5,0.5c0.2,0,0.5-0.2,0.5-0.5V3.5h7.5v1.5
		c0,0.3,0.2,0.5,0.5,0.5c0.2,0,0.5-0.2,0.5-0.5V3.5h7.4v1.5c0,0.3,0.2,0.5,0.5,0.5c0.2,0,0.5-0.2,0.5-0.5V3.5H27
		c2,0,3.6,1.8,3.6,3.9v19.2c0,2.2-1.6,3.9-3.5,3.9H5c-2,0-3.6-1.8-3.6-3.9V10.1z"/>
	<g>
		<path class="st1" d="M12.3,14.6h1.3c0.3,0,0.5-0.2,0.5-0.5c0-0.3-0.2-0.5-0.5-0.5h-1.3c-0.3,0-0.5,0.2-0.5,0.5
			C11.8,14.4,12,14.6,12.3,14.6"/>
		<path class="st1" d="M5.2,14.6h1.3c0.3,0,0.5-0.2,0.5-0.5c0-0.3-0.2-0.5-0.5-0.5H5.2c-0.3,0-0.5,0.2-0.5,0.5
			C4.7,14.4,4.9,14.6,5.2,14.6"/>
		<path class="st1" d="M19.4,14.6h1.3c0.3,0,0.5-0.2,0.5-0.5c0-0.3-0.2-0.5-0.5-0.5h-1.3c-0.3,0-0.5,0.2-0.5,0.5
			C18.9,14.4,19.2,14.6,19.4,14.6"/>
		<path class="st1" d="M26.5,14.6h1.3c0.3,0,0.5-0.2,0.5-0.5c0-0.3-0.2-0.5-0.5-0.5h-1.3c-0.3,0-0.5,0.2-0.5,0.5
			C26.1,14.4,26.3,14.6,26.5,14.6"/>
		<path class="st1" d="M12.3,18.9h1.3c0.3,0,0.5-0.2,0.5-0.5c0-0.3-0.2-0.5-0.5-0.5h-1.3c-0.3,0-0.5,0.2-0.5,0.5
			C11.8,18.7,12,18.9,12.3,18.9"/>
		<path class="st1" d="M5.2,18.9h1.3c0.3,0,0.5-0.2,0.5-0.5C7,18.2,6.7,18,6.5,18H5.2c-0.3,0-0.5,0.2-0.5,0.5
			C4.7,18.7,4.9,18.9,5.2,18.9"/>
		<path class="st1" d="M19.4,18.9h1.3c0.3,0,0.5-0.2,0.5-0.5c0-0.3-0.2-0.5-0.5-0.5h-1.3c-0.3,0-0.5,0.2-0.5,0.5
			C18.9,18.7,19.2,18.9,19.4,18.9"/>
		<path class="st1" d="M26.5,18.9h1.3c0.3,0,0.5-0.2,0.5-0.5c0-0.3-0.2-0.5-0.5-0.5h-1.3c-0.3,0-0.5,0.2-0.5,0.5
			C26.1,18.7,26.3,18.9,26.5,18.9"/>
		<path class="st1" d="M12.3,23.2h1.3c0.3,0,0.5-0.2,0.5-0.5c0-0.3-0.2-0.5-0.5-0.5h-1.3c-0.3,0-0.5,0.2-0.5,0.5
			C11.8,23,12,23.2,12.3,23.2"/>
		<path class="st1" d="M5.2,23.2h1.3C6.7,23.2,7,23,7,22.7c0-0.3-0.2-0.5-0.5-0.5H5.2c-0.3,0-0.5,0.2-0.5,0.5
			C4.7,23,4.9,23.2,5.2,23.2"/>
		<path class="st1" d="M19.4,23.2h1.3c0.3,0,0.5-0.2,0.5-0.5c0-0.3-0.2-0.5-0.5-0.5h-1.3c-0.3,0-0.5,0.2-0.5,0.5
			C18.9,23,19.2,23.2,19.4,23.2"/>
		<path class="st1" d="M26.5,23.2h1.3c0.3,0,0.5-0.2,0.5-0.5c0-0.3-0.2-0.5-0.5-0.5h-1.3c-0.3,0-0.5,0.2-0.5,0.5
			C26.1,23,26.3,23.2,26.5,23.2"/>
		<path class="st1" d="M12.3,27.5h1.3c0.3,0,0.5-0.2,0.5-0.5c0-0.3-0.2-0.5-0.5-0.5h-1.3c-0.3,0-0.5,0.2-0.5,0.5
			C11.8,27.3,12,27.5,12.3,27.5"/>
		<path class="st1" d="M5.2,27.5h1.3C6.7,27.5,7,27.3,7,27c0-0.3-0.2-0.5-0.5-0.5H5.2c-0.3,0-0.5,0.2-0.5,0.5
			C4.7,27.3,4.9,27.5,5.2,27.5"/>
		<path class="st1" d="M19.4,27.5h1.3c0.3,0,0.5-0.2,0.5-0.5c0-0.3-0.2-0.5-0.5-0.5h-1.3c-0.3,0-0.5,0.2-0.5,0.5
			C18.9,27.3,19.2,27.5,19.4,27.5"/>
		<path class="st1" d="M26.5,27.5h1.3c0.3,0,0.5-0.2,0.5-0.5c0-0.3-0.2-0.5-0.5-0.5h-1.3c-0.3,0-0.5,0.2-0.5,0.5
			C26.1,27.3,26.3,27.5,26.5,27.5"/>
	</g>
</g>
</svg>
