<?xml version="1.0" encoding="utf-8"?>
<!-- Generator: Adobe Illustrator 21.0.0, SVG Export Plug-In . SVG Version: 6.00 Build 0)  -->
<svg version="1.1" id="Layer_1" xmlns="http://www.w3.org/2000/svg" xmlns:xlink="http://www.w3.org/1999/xlink" x="0px" y="0px"
	 width="32px" height="32px" viewBox="0 0 32 32" style="enable-background:new 0 0 32 32;" xml:space="preserve">
<style type="text/css">
	.st0{fill:none;}
	.st1{fill:#952524;}
</style>
<g>
	<rect class="st0" width="32" height="32"/>
</g>
<path class="st1" d="M28.4,23c0.6-1.5,0.9-3.2,0.9-4.9c0-5.7-3.6-10.6-8.7-12.6c0-0.1,0-0.2,0-0.3c0-2.6-2.1-4.7-4.7-4.7
	c-2.6,0-4.7,2.1-4.7,4.7c0,0.1,0,0.2,0,0.3c-5.1,1.9-8.7,6.8-8.7,12.6c0,1.7,0.3,3.4,1,4.9c-1.1,0.9-1.8,2.2-1.8,3.7
	c0,2.6,2.1,4.7,4.7,4.7c1.3,0,2.5-0.5,3.4-1.4c1.8,1,3.9,1.5,6.1,1.5c2.2,0,4.3-0.6,6.2-1.5c0.9,0.9,2,1.4,3.4,1.4
	c2.6,0,4.7-2.1,4.7-4.7C30.2,25.2,29.5,23.9,28.4,23z M12.5,5.1c0.1-1.9,1.6-3.4,3.5-3.4c1.9,0,3.5,1.5,3.5,3.4c0,0,0,0.1,0,0.1
	c0,0.4-0.1,0.7-0.2,1.1c-0.5,1.4-1.8,2.5-3.4,2.5c-1.6,0-2.9-1-3.4-2.5c-0.1-0.3-0.2-0.7-0.2-1.1C12.4,5.2,12.5,5.2,12.5,5.1z
	 M9.5,28.5c-0.2,0.3-0.5,0.7-0.8,0.9c-0.6,0.5-1.4,0.9-2.3,0.9c-2,0-3.5-1.6-3.5-3.5c0-1,0.4-1.9,1.1-2.5c0.3-0.3,0.6-0.5,1-0.7
	c0.4-0.2,0.9-0.3,1.5-0.3c2,0,3.5,1.6,3.5,3.5C10,27.3,9.8,27.9,9.5,28.5z M16,30.3c-1.9,0-3.8-0.5-5.4-1.3c0.4-0.7,0.6-1.5,0.6-2.3
	c0-2.6-2.1-4.7-4.7-4.7c-0.7,0-1.3,0.2-1.9,0.4c-0.5-1.3-0.8-2.8-0.8-4.3c0-5.2,3.2-9.6,7.8-11.4C12.1,8.6,13.9,10,16,10
	c2.1,0,3.9-1.4,4.5-3.3c4.5,1.8,7.8,6.2,7.8,11.4c0,1.5-0.3,3-0.8,4.3c-0.6-0.3-1.2-0.4-1.9-0.4c-2.6,0-4.7,2.1-4.7,4.7
	c0,0.9,0.2,1.6,0.6,2.3C19.8,29.8,17.9,30.3,16,30.3z M25.5,30.2c-0.9,0-1.7-0.3-2.3-0.9c-0.3-0.3-0.6-0.6-0.8-0.9
	c-0.3-0.5-0.5-1.1-0.5-1.8c0-2,1.6-3.5,3.5-3.5c0.5,0,1,0.1,1.4,0.3c0.4,0.2,0.7,0.4,1,0.7c0.7,0.6,1.1,1.6,1.1,2.6
	C29,28.6,27.5,30.2,25.5,30.2z"/>
</svg>
