<?xml version="1.0" encoding="utf-8"?>
<!-- Generator: Adobe Illustrator 21.0.0, SVG Export Plug-In . SVG Version: 6.00 Build 0)  -->
<svg version="1.1" id="Layer_1" xmlns="http://www.w3.org/2000/svg" xmlns:xlink="http://www.w3.org/1999/xlink" x="0px" y="0px"
	 width="32px" height="32px" viewBox="0 0 32 32" style="enable-background:new 0 0 32 32;" xml:space="preserve">
<style type="text/css">
	.st0{fill:none;}
	.st1{fill:#952524;}
</style>
<rect class="st0" width="32" height="32"/>
<g>
	<path class="st1" d="M16,16.2c2.6,0,4.7-2.1,4.7-4.7c0-2.6-2.1-4.7-4.7-4.7c-2.6,0-4.7,2.1-4.7,4.7C11.3,14,13.4,16.2,16,16.2
		 M16,7.7c2,0,3.7,1.7,3.7,3.7c0,2-1.7,3.7-3.7,3.7c-2,0-3.7-1.7-3.7-3.7C12.3,9.4,14,7.7,16,7.7"/>
	<path class="st1" d="M16,17.6c-5.1,0-8.8,2.6-8.8,6.1c0,0.8,0.7,1.5,1.5,1.5h14.5c0.8,0,1.5-0.7,1.5-1.5
		C24.8,20.2,21.1,17.6,16,17.6 M23.3,24.3H8.7c-0.3,0-0.5-0.2-0.5-0.5c0-2.9,3.3-5,7.7-5.1c4.3,0,7.7,2.3,7.7,5.1
		C23.7,24,23.5,24.3,23.3,24.3"/>
	<path class="st1" d="M6.1,17.3c2,0,3.6-1.6,3.6-3.6c0-2-1.6-3.6-3.6-3.6c-2,0-3.6,1.6-3.6,3.6C2.4,15.6,4.1,17.3,6.1,17.3 M6.1,11
		c1.4,0,2.6,1.2,2.6,2.6c0,1.4-1.2,2.6-2.6,2.6c-1.4,0-2.6-1.2-2.6-2.6C3.5,12.2,4.6,11,6.1,11"/>
	<path class="st1" d="M6.6,24.4L6.6,24.4l-4.8-0.1c-0.2,0-0.4-0.2-0.4-0.4c0-2.6,2.9-4.4,7-4.5h0l0,0c0.3-0.2,0.7-0.6,1.2-0.9
		l0.2-0.1l-0.3,0c-0.5,0-0.8-0.1-1.2-0.1c-4.6,0-8,2.3-8,5.6c0,0.8,0.6,1.4,1.4,1.4h5.1l-0.1-0.1C6.7,24.9,6.6,24.6,6.6,24.4"/>
	<path class="st1" d="M25.9,17.3c2,0,3.6-1.6,3.6-3.6c0-2-1.6-3.6-3.6-3.6c-2,0-3.6,1.6-3.6,3.6C22.3,15.6,23.9,17.3,25.9,17.3
		 M25.9,11c1.4,0,2.6,1.2,2.6,2.6c0,1.4-1.2,2.6-2.6,2.6c-1.4,0-2.6-1.2-2.6-2.6C23.3,12.2,24.5,11,25.9,11"/>
	<path class="st1" d="M23.6,18.3c-0.4,0-0.8,0-1.2,0.1l-0.3,0l0.2,0.1c0.5,0.3,0.9,0.6,1.2,0.9l0,0l0,0c4.1,0.1,7,1.9,7,4.5
		c0,0.2-0.2,0.4-0.4,0.4h-4.8l0,0.1c0,0.2-0.1,0.5-0.3,0.8l-0.1,0.1h5.1c0.8,0,1.4-0.6,1.4-1.4C31.6,20.7,28.2,18.3,23.6,18.3"/>
</g>
</svg>
