<?xml version="1.0" standalone="no"?>
<!DOCTYPE svg PUBLIC "-//W3C//DTD SVG 20010904//EN"
 "http://www.w3.org/TR/2001/REC-SVG-20010904/DTD/svg10.dtd">
<svg version="1.0" xmlns="http://www.w3.org/2000/svg"
 width="256.000000pt" height="256.000000pt" viewBox="0 0 256.000000 256.000000"
 preserveAspectRatio="xMidYMid meet">
<metadata>
Created by potrace 1.15, written by Peter Selinger 2001-2017
</metadata>
<g transform="translate(0.000000,256.000000) scale(0.100000,-0.100000)"
fill="#000000" stroke="none">
<path d="M1879 2437 c-117 -44 -194 -137 -220 -269 -10 -51 -13 -55 -55 -72
-71 -29 -124 -110 -124 -188 0 -46 14 -49 226 -46 l199 3 3 35 c8 79 -53 177
-124 200 -39 13 -41 25 -17 95 21 63 93 136 149 153 128 38 270 -26 336 -150
23 -43 23 -44 26 -525 l3 -483 -629 0 -628 0 -12 34 c-7 19 -22 46 -34 61 -23
30 -110 75 -144 75 -11 0 -29 10 -40 21 -74 84 -257 75 -316 -15 -21 -32 -22
-32 -57 -20 -81 29 -166 9 -227 -52 -23 -23 -45 -55 -49 -73 -5 -22 -12 -31
-26 -31 -33 0 -78 -29 -94 -60 -20 -38 -19 -114 1 -146 23 -34 50 -47 108 -54
l50 -5 60 -240 c41 -160 70 -256 88 -287 49 -82 124 -130 225 -143 l52 -7 -25
-50 c-14 -27 -24 -62 -22 -76 3 -24 8 -27 38 -27 34 0 37 3 75 77 l40 78 582
0 583 0 40 -81 c39 -77 42 -80 73 -77 28 3 32 7 35 35 2 18 -6 49 -17 72 -27
53 -26 61 7 61 61 1 160 67 202 135 11 18 45 129 76 246 30 118 59 231 65 252
9 35 12 37 50 37 80 0 129 47 129 125 0 84 -47 135 -124 135 l-35 0 -3 483
c-3 477 -4 483 -26 540 -31 76 -113 164 -189 202 -49 25 -72 29 -153 32 -63 2
-107 -1 -131 -10z m-1180 -1102 c16 -8 38 -27 49 -42 13 -17 30 -28 48 -29 16
-1 37 -2 46 -3 19 -1 78 -48 78 -62 0 -5 -142 -9 -340 -9 -187 0 -340 4 -340
8 0 15 47 53 76 61 37 10 77 -1 125 -35 45 -31 71 -22 88 29 11 34 53 80 81
90 28 10 61 7 89 -8z m1732 -245 c21 -12 25 -40 7 -58 -17 -17 -2309 -17
-2326 0 -17 17 -15 45 6 57 24 14 2286 15 2313 1z m-172 -197 c-5 -21 -29
-123 -54 -227 -25 -104 -54 -203 -65 -221 -11 -18 -39 -45 -62 -61 l-41 -29
-747 -3 -746 -2 -45 23 c-76 40 -94 78 -159 330 l-58 227 993 0 993 0 -9 -37z"/>
</g>
</svg>
