<?xml version="1.0" standalone="no"?>
<!DOCTYPE svg PUBLIC "-//W3C//DTD SVG 20010904//EN"
 "http://www.w3.org/TR/2001/REC-SVG-20010904/DTD/svg10.dtd">
<svg version="1.0" xmlns="http://www.w3.org/2000/svg"
 width="256.000000pt" height="256.000000pt" viewBox="0 0 256.000000 256.000000"
 preserveAspectRatio="xMidYMid meet">
<metadata>
Created by potrace 1.15, written by Peter Selinger 2001-2017
</metadata>
<g transform="translate(0.000000,256.000000) scale(0.100000,-0.100000)"
fill="#000000" stroke="none">
<path d="M465 2211 c-69 -17 -116 -55 -151 -121 -17 -31 -19 -64 -22 -301 l-3
-266 -42 -14 c-99 -33 -201 -140 -233 -245 -19 -63 -21 -733 -2 -752 7 -7 25
-12 40 -12 l28 0 0 -114 c0 -147 -1 -146 131 -146 136 0 139 3 139 150 l0 110
930 0 930 0 0 -110 c0 -147 3 -150 138 -150 131 0 132 1 132 148 l0 112 28 0
c15 0 33 5 40 12 19 19 17 689 -2 752 -32 105 -134 212 -233 245 l-42 14 -3
266 c-3 237 -5 270 -22 301 -26 49 -55 79 -101 103 -40 22 -42 22 -845 24
-443 1 -818 -2 -835 -6z m1642 -111 c60 -36 63 -53 63 -325 l0 -245 -79 0 -79
0 -4 136 -3 136 -37 34 -38 34 -262 0 c-285 -1 -293 -2 -329 -56 -16 -25 -19
-47 -19 -156 l0 -128 -40 0 -40 0 0 128 c0 109 -3 131 -19 156 -36 54 -44 55
-329 56 l-262 0 -38 -34 -37 -34 -3 -136 -4 -136 -79 0 -79 0 0 245 c0 272 3
289 63 325 31 19 56 20 827 20 771 0 796 -1 827 -20z m-973 -336 c13 -12 16
-39 16 -125 l0 -109 -255 0 -255 0 0 103 c0 156 -16 147 255 147 190 0 226 -2
239 -16z m770 -6 c12 -17 16 -48 16 -125 l0 -103 -255 0 -255 0 0 109 c0 86 3
113 16 125 13 14 49 16 239 16 220 0 224 0 239 -22z m354 -333 c74 -22 144
-82 178 -152 29 -58 29 -59 32 -280 l3 -223 -1190 0 -1191 0 0 203 c0 225 8
274 59 344 37 51 81 83 146 105 46 16 124 17 981 18 804 0 937 -2 982 -15z
m212 -795 l0 -40 -1190 0 -1190 0 0 40 0 40 1190 0 1190 0 0 -40z"/>
<path d="M330 1399 c-98 -19 -188 -110 -204 -206 -10 -63 -7 -353 4 -374 14
-26 66 -26 80 0 6 12 10 93 10 193 0 160 2 176 23 213 24 43 91 85 137 85 31
0 50 17 50 45 0 44 -30 57 -100 44z"/>
<path d="M2350 1001 c-5 -11 -10 -40 -10 -65 l0 -46 -55 0 c-45 0 -56 -4 -66
-21 -8 -16 -8 -28 0 -45 10 -23 15 -24 105 -24 113 0 116 2 116 110 0 87 -11
110 -50 110 -19 0 -33 -7 -40 -19z"/>
</g>
</svg>
