<?xml version="1.0" standalone="no"?>
<!DOCTYPE svg PUBLIC "-//W3C//DTD SVG 20010904//EN"
 "http://www.w3.org/TR/2001/REC-SVG-20010904/DTD/svg10.dtd">
<svg version="1.0" xmlns="http://www.w3.org/2000/svg"
 width="59.000000pt" height="49.000000pt" viewBox="0 0 59.000000 49.000000"
 preserveAspectRatio="xMidYMid meet">
<metadata>
Created by potrace 1.15, written by Peter Selinger 2001-2017
</metadata>
<g transform="translate(0.000000,49.000000) scale(0.100000,-0.100000)"
fill="#000000" stroke="none">
<path d="M455 420 c-46 -46 -72 -66 -80 -60 -6 5 -29 12 -52 16 -51 8 -108
-17 -134 -60 -24 -39 -27 -134 -4 -142 11 -5 -4 -26 -55 -82 -39 -42 -70 -79
-70 -84 0 -20 29 -5 69 36 41 42 44 43 69 30 45 -23 158 -18 220 11 52 24 172
128 172 149 0 6 -29 40 -65 76 l-65 66 45 44 c45 44 57 70 32 70 -7 0 -44 -31
-82 -70z m74 -154 l25 -26 -50 -51 c-85 -86 -172 -115 -283 -93 -25 5 -29 9
-20 20 9 11 15 11 32 -1 13 -9 44 -15 75 -15 50 0 58 3 93 39 36 35 39 43 39
93 0 31 -6 62 -14 74 -10 13 -11 23 -4 31 8 10 19 6 47 -16 20 -16 47 -41 60
-55z m-121 2 c12 -46 4 -75 -30 -108 -30 -31 -71 -38 -126 -23 -22 5 -19 11
54 84 43 44 82 79 86 79 4 0 11 -15 16 -32z"/>
<path d="M215 406 c-22 -7 -51 -19 -65 -26 -33 -18 -150 -130 -150 -144 0 -16
102 -116 118 -116 23 0 12 25 -33 70 l-46 46 64 61 c90 86 164 107 276 77 19
-6 22 -3 19 12 -6 32 -109 43 -183 20z"/>
</g>
</svg>
