<?xml version="1.0" encoding="utf-8"?>
<!-- Generator: Adobe Illustrator 16.0.0, SVG Export Plug-In . SVG Version: 6.00 Build 0)  -->
<!DOCTYPE svg PUBLIC "-//W3C//DTD SVG 1.1//EN" "http://www.w3.org/Graphics/SVG/1.1/DTD/svg11.dtd">
<svg version="1.1" id="Capa_1" xmlns="http://www.w3.org/2000/svg" xmlns:xlink="http://www.w3.org/1999/xlink" x="0px" y="0px"
	 width="475.082px" height="475.082px" viewBox="0 0 475.082 475.082" enable-background="new 0 0 475.082 475.082"
	 xml:space="preserve">
<g>
	<path d="M250.992,226.283c-0.536-0.537-1.183-0.805-1.936-0.805h-23.031c-0.753,0-1.399,0.269-1.936,0.805
		c-0.537,0.538-0.805,1.183-0.805,1.937v18.643c0,0.754,0.269,1.398,0.805,1.937c0.537,0.537,1.183,0.805,1.936,0.805h23.031
		c0.753,0,1.399-0.268,1.936-0.805c0.537-0.538,0.806-1.183,0.806-1.937V228.22C251.798,227.465,251.529,226.82,250.992,226.283z
		 M232.058,246.862c0,0.16-0.052,0.292-0.154,0.395c-0.103,0.103-0.234,0.154-0.395,0.154h-5.483c-0.159,0-0.291-0.052-0.394-0.154
		s-0.154-0.234-0.154-0.395v-3.29c0-0.16,0.051-0.291,0.154-0.395c0.103-0.103,0.234-0.152,0.394-0.152h5.484
		c0.16,0,0.291,0.05,0.394,0.152c0.103,0.104,0.154,0.234,0.154,0.395V246.862L232.058,246.862z M232.058,240.282
		c0,0.16-0.052,0.292-0.154,0.395c-0.103,0.103-0.234,0.154-0.395,0.154h-5.483c-0.159,0-0.291-0.052-0.394-0.154
		s-0.154-0.234-0.154-0.395v-3.289c0-0.16,0.051-0.292,0.154-0.395s0.234-0.154,0.394-0.154h5.484c0.16,0,0.291,0.052,0.394,0.154
		c0.103,0.103,0.154,0.234,0.154,0.395V240.282L232.058,240.282z M232.058,233.703c0,0.16-0.052,0.291-0.154,0.394
		c-0.103,0.103-0.234,0.154-0.395,0.154h-5.483c-0.159,0-0.291-0.052-0.394-0.154s-0.154-0.233-0.154-0.394v-3.291
		c0-0.16,0.051-0.291,0.154-0.394c0.103-0.103,0.234-0.154,0.394-0.154h5.484c0.16,0,0.291,0.051,0.394,0.154
		c0.103,0.103,0.154,0.234,0.154,0.394V233.703L232.058,233.703z M240.831,246.862c0,0.16-0.052,0.292-0.153,0.395
		c-0.104,0.103-0.234,0.154-0.395,0.154h-5.484c-0.16,0-0.291-0.052-0.394-0.154s-0.154-0.234-0.154-0.395v-3.29
		c0-0.16,0.051-0.291,0.154-0.395c0.103-0.103,0.234-0.152,0.394-0.152h5.483c0.161,0,0.292,0.05,0.396,0.152
		c0.102,0.104,0.153,0.234,0.153,0.395V246.862L240.831,246.862L240.831,246.862z M240.831,240.282c0,0.16-0.052,0.292-0.153,0.395
		c-0.104,0.103-0.234,0.154-0.395,0.154h-5.484c-0.16,0-0.291-0.052-0.394-0.154s-0.154-0.234-0.154-0.395v-3.289
		c0-0.16,0.051-0.292,0.154-0.395s0.234-0.154,0.394-0.154h5.483c0.161,0,0.292,0.052,0.396,0.154
		c0.102,0.103,0.153,0.234,0.153,0.395V240.282L240.831,240.282z M240.831,233.703c0,0.16-0.052,0.291-0.153,0.394
		c-0.104,0.103-0.234,0.154-0.395,0.154h-5.484c-0.16,0-0.291-0.052-0.394-0.154s-0.154-0.233-0.154-0.394v-3.291
		c0-0.16,0.051-0.291,0.154-0.394c0.103-0.103,0.234-0.154,0.394-0.154h5.483c0.161,0,0.292,0.051,0.396,0.154
		c0.102,0.103,0.153,0.234,0.153,0.394V233.703L240.831,233.703z M249.604,246.862c0,0.16-0.052,0.292-0.154,0.395
		s-0.234,0.154-0.394,0.154h-5.483c-0.16,0-0.292-0.052-0.395-0.154s-0.152-0.234-0.152-0.395v-3.29c0-0.16,0.05-0.291,0.152-0.395
		c0.103-0.103,0.234-0.152,0.395-0.152h5.483c0.159,0,0.291,0.05,0.394,0.152c0.103,0.104,0.154,0.234,0.154,0.395V246.862z
		 M249.604,240.282c0,0.16-0.052,0.292-0.154,0.395s-0.234,0.154-0.394,0.154h-5.483c-0.16,0-0.292-0.052-0.395-0.154
		s-0.152-0.234-0.152-0.395v-3.289c0-0.16,0.05-0.292,0.152-0.395s0.234-0.154,0.395-0.154h5.483c0.159,0,0.291,0.052,0.394,0.154
		s0.154,0.234,0.154,0.395V240.282z M249.604,233.703c0,0.16-0.052,0.291-0.154,0.394s-0.234,0.154-0.394,0.154h-5.483
		c-0.16,0-0.292-0.052-0.395-0.154s-0.152-0.233-0.152-0.394v-3.291c0-0.16,0.05-0.291,0.152-0.394
		c0.103-0.103,0.234-0.154,0.395-0.154h5.483c0.159,0,0.291,0.051,0.394,0.154c0.103,0.103,0.154,0.234,0.154,0.394V233.703z"/>
</g>
</svg>
