<?xml version="1.0" standalone="no"?>
<!DOCTYPE svg PUBLIC "-//W3C//DTD SVG 20010904//EN"
 "http://www.w3.org/TR/2001/REC-SVG-20010904/DTD/svg10.dtd">
<svg version="1.0" xmlns="http://www.w3.org/2000/svg"
 width="59.000000pt" height="34.000000pt" viewBox="0 0 59.000000 34.000000"
 preserveAspectRatio="xMidYMid meet">
<metadata>
Created by potrace 1.15, written by Peter Selinger 2001-2017
</metadata>
<g transform="translate(0.000000,34.000000) scale(0.100000,-0.100000)"
fill="#000000" stroke="none">
<path d="M164 316 c-44 -21 -164 -127 -164 -146 0 -20 115 -123 162 -145 75
-35 191 -35 266 0 54 25 162 118 162 140 0 25 -136 142 -186 159 -72 24 -178
21 -240 -8z m98 -16 c-102 -24 -136 -156 -59 -227 46 -42 94 -51 144 -27 117
58 105 223 -19 255 -32 8 -31 8 8 5 57 -5 102 -29 165 -86 l54 -48 -45 -47
c-129 -132 -301 -132 -430 0 l-45 47 55 50 c63 59 120 88 170 87 l35 -1 -33
-8z m89 -45 c8 -5 23 -21 32 -35 52 -75 -31 -179 -120 -149 -38 12 -73 59 -73
97 0 49 35 90 90 105 17 4 48 -3 71 -18z"/>
</g>
</svg>
